<svg width="74" height="93" viewBox="0 0 74 93" fill="none" xmlns="http://www.w3.org/2000/svg">
<path d="M57.2346 42.1863V33.4644C57.2346 24.767 52.1175 17.2943 44.4474 14.2729C43.677 10.7917 40.6304 8.18402 37 8.18402C33.3696 8.18402 30.323 10.7917 29.5526 14.2737C21.8825 17.295 16.7654 24.7678 16.7654 33.4651V42.187L12.207 46.8928C11.803 47.3095 11.5773 47.8682 11.5773 48.45V55.094C11.5773 56.2881 12.54 57.2553 13.727 57.2553H28.0689C28.08 62.031 32.2485 66.216 37 66.216C41.7515 66.216 45.92 62.031 45.9311 57.2553H60.273C61.4607 57.2553 62.4227 56.2873 62.4227 55.094V48.45C62.4227 47.8682 62.197 47.3095 61.793 46.8928L57.2346 42.1863ZM37 61.8926C34.4596 61.8926 32.3809 59.485 32.3691 57.2545H41.6317C41.6191 59.485 39.5404 61.8926 37 61.8926ZM58.1226 52.9319H15.8774V49.2989L21.0656 43.9436C21.0656 38.8197 21.0656 34.3959 21.0656 33.4644C21.0656 25.5847 26.2537 19.1104 33.6648 17.5339C33.6648 16.7296 33.6648 16.1552 33.6648 15.9997C33.6648 14.1368 35.147 12.5067 37 12.5067C38.853 12.5067 40.3352 14.1368 40.3352 15.9997C40.3352 16.1552 40.3352 16.7296 40.3352 17.5339C47.747 19.1097 52.9352 25.5847 52.9352 33.4644C52.9352 34.6288 52.9352 38.8197 52.9352 43.9436L58.1233 49.2989V52.9319H58.1226Z" fill="#0F374B"/>
</svg>
