<svg id="Layer_35" enable-background="new 0 0 64 64" height="512" viewBox="0 0 64 64" width="512" xmlns="http://www.w3.org/2000/svg"><path d="m44 59h-24c-1.654 0-3-1.346-3-3v-18c0-1.654 1.346-3 3-3h24c1.654 0 3 1.346 3 3v18c0 1.654-1.346 3-3 3z" fill="#f0bc5e"/><path d="m32.337 55h-.674c-3.123 0-5.663-2.54-5.663-5.663 0-1.063.298-2.101.861-3.001l5.139-8.223 5.139 8.223c.563.9.861 1.938.861 3.001 0 3.123-2.54 5.663-5.663 5.663zm-.337-13.113-3.443 5.51c-.365.582-.557 1.252-.557 1.94 0 2.019 1.644 3.663 3.663 3.663h.674c2.019 0 3.663-1.644 3.663-3.663 0-.688-.192-1.358-.557-1.94z"/><path d="m34.679 17c-.712 0-1.405.14-2.06.416l-13.783 5.803c-1.115.469-1.836 1.554-1.836 2.765v.359c0 3.671 2.986 6.657 6.657 6.657 1.777 0 3.448-.692 4.707-1.95l9.636-9.636v-1.093c0-1.831-1.49-3.321-3.321-3.321zm1.321 3.586-9.05 9.05c-.88.88-2.05 1.364-3.293 1.364-2.568 0-4.657-2.089-4.657-4.657v-.359c0-.403.24-.765.611-.921l13.784-5.803c.409-.173.84-.26 1.284-.26.728 0 1.321.593 1.321 1.321z"/><path d="m47 13.685v-2.685c1.654 0 3-1.346 3-3v-4c0-1.654-1.346-3-3-3h-12c-1.654 0-3 1.346-3 3v4c0 1.654 1.346 3 3 3v2h-.788c-.939 0-1.854.185-2.717.549l-14.211 5.983c-2.602 1.095-4.284 3.628-4.284 6.452v30.016c0 3.859 3.141 7 7 7h24c3.859 0 7-3.141 7-7v-36c0-2.785-1.639-5.189-4-6.315zm-13-5.685v-4c0-.551.448-1 1-1h12c.552 0 1 .449 1 1v4c0 .551-.448 1-1 1h-12c-.552 0-1-.449-1-1zm3 3h8v2.08c-.328-.047-.66-.08-1-.08h-7zm12 45c0 2.757-2.243 5-5 5h-24c-2.757 0-5-2.243-5-5v-30.016c0-2.017 1.201-3.826 3.06-4.608l14.212-5.984h.001c.616-.26 1.268-.392 1.939-.392h9.788c2.757 0 5 2.243 5 5z"/><path d="m45 19h2v2h-2z"/><path d="m45 23h2v2h-2z"/><path d="m45 27h2v2h-2z"/></svg>