<svg id="Layer_35" enable-background="new 0 0 64 64" height="512" viewBox="0 0 64 64" width="512" xmlns="http://www.w3.org/2000/svg"><g fill="#f0bc5e"><path d="m48 51-5.337 2-5.338-2-5.333 2-5.329-2-5.332 2-5.331-2v6l5.331 2 5.332-2 5.329 2 5.333-2 5.338 2 5.337-2z"/><path d="m37.325 39-5.333 2-5.329-2-5.332 2-1.331-.499v3.499l-2.223 1.667 3.554 1.333 5.332-2 5.329 2 5.333-2 5.338 2 5.337-2v-6l-5.337 2z"/><path d="m48 27-5.337 2-5.338-2-5.333 2-5.329-2-5.332 2-1.331-.499v6l1.331.499 5.332-2 5.329 2 5.333-2 5.338 2 5.337-2z"/></g><path d="m1 1v3c0 2.757 2.243 5 5 5h16v5c0 2.414 1.721 4.434 4 4.899v4.101h-2c-2.757 0-5 2.243-5 5v15.5l-2 1.5c-1.252.939-2 2.435-2 4v9c0 2.757 2.243 5 5 5h24c2.757 0 5-2.243 5-5v-30c0-2.757-2.243-5-5-5h-2v-4.101c2.279-.465 4-2.484 4-4.899v-5h12c2.757 0 5-2.243 5-5v-3zm46 27v30c0 1.654-1.346 3-3 3h-24c-1.654 0-3-1.346-3-3v-9c0-.939.449-1.837 1.2-2.4l2.8-2.1v-16.5c0-1.654 1.346-3 3-3h20c1.654 0 3 1.346 3 3zm-19-5v-4h12v4zm16-9c0 1.654-1.346 3-3 3h-14c-1.654 0-3-1.346-3-3v-5h20zm17-10c0 1.654-1.346 3-3 3h-52c-1.654 0-3-1.346-3-3v-1h58z"/></svg>