<svg height="496pt" viewBox="0 0 496 496" width="496pt" xmlns="http://www.w3.org/2000/svg"><path d="m264 256-25.039062 25.039062c-4.457032 4.457032-10.503907 6.960938-16.800782 6.960938-4.039062 0-8.007812-1.03125-11.535156-2.992188l-128.746094-71.519531c-.695312-.382812-1.238281-.9375-1.871094-1.398437v80.445312l60.082032 36.050782c16.804687 10.078124 36.070312 15.414062 55.679687 15.414062 29.109375 0 57.140625-11.960938 77.4375-32.777344-5.960937-17.671875-9.207031-36.277344-9.207031-55.222656zm0 0" fill="#f0bc5e"/><path d="m91.199219 176c3.152343 0 6.257812.777344 9.03125 2.257812l115.769531 61.742188 81.375-81.375c1.914062-1.914062 4.160156-3.386719 6.570312-4.496094l.054688-5.898437c0-59.679688-48.550781-108.230469-108.230469-108.230469-19.609375 0-38.867187 5.335938-55.691406 15.425781l-60.078125 36.046875v88.191406c3.160156-2.28125 7.007812-3.664062 11.199219-3.664062zm0 0" fill="#f0bc5e"/><path d="m495.503906 51.824219c.328125-2.144531.496094-4.304688.496094-6.472657v-2.765624c0-23.480469-19.105469-42.585938-42.585938-42.585938-20.980468 0-38.660156 15.03125-42.039062 35.742188l-3.453125 21.21875c-10.945313-19.640626-31.898437-32.960938-55.921875-32.960938-35.289062 0-64 28.710938-64 64v16c0 15.945312 5.902344 30.511719 15.585938 41.726562-4.410157 1.488282-8.480469 3.859376-11.867188 7.242188l-77.183594 77.175781-101.535156-54.144531h95v-16h-112v-19.207031c34.273438-18.792969 72.871094-28.792969 112-28.792969v-16c-38.894531 0-77.328125 9.246094-112 26.703125v-50.703125c0-17.648438-14.351562-32-32-32s-32 14.351562-32 32v34.230469l-32 10.671875v150.195312l32 10.671875v34.230469c0 17.648438 14.351562 32 32 32s32-14.351562 32-32v-50.679688c31.984375 16.09375 67.320312 25.183594 103.128906 26.464844l7.597656 4.222656c4.707032 2.617188 10.042969 4 15.433594 4 8.480469 0 16.457032-3.304687 22.464844-9.304687l12.398438-12.398437c3.480468 34.144531 16.6875 66.640624 38.023437 93.703124h-80.496094c-16.863281 0-32.007812 10.664063-37.671875 26.542969l-30.511718 85.449219h-46.542969l57.28125-143.207031c-4.984375-1.90625-9.832031-4.183594-14.511719-6.824219l-60.007812 150.03125h-82.585938v16h496v-16h-96v-40h-8v-8h-176c-13.230469 0-24-10.769531-24-24s10.769531-24 24-24h128v-16h-28.320312l-3.953126-4.617188c-24.925781-29.078124-38.847656-65.984374-39.582031-104.214843l18.175781-18.175781c7.886719 47 30.191407 90.832031 64.023438 124.664062l11.3125-11.3125c-1.023438-1.023438-1.929688-2.160156-2.9375-3.199219l13.175781 2.144531 23.859375-146.578124.132813-.023438-.0625-.398438 5.832031-35.832031 44.9375 4.992188c8.269531 18.390625 10.957031 38.519531 7.628906 58.527343l-26.117187 156.710938 15.78125 2.632812 26.121093-156.710937c3.816407-22.914063.808594-45.96875-8.535156-67.074219 9.496094-10.949218 15.65625-24.214844 17.871094-38.679687zm-271.503906 428.175781v-32h160v32zm-16-32.808594v32.808594h-44.648438l18.433594-51.609375c5.671875 9.488281 15.039063 16.519531 26.214844 18.800781zm96-359.191406c0-26.472656 21.527344-48 48-48s48 21.527344 48 48v16c0 .792969-.078125 1.566406-.121094 2.351562l-1.757812 10.800782c-5.738282 20.085937-24.21875 34.847656-46.121094 34.847656-26.472656 0-48-21.527344-48-48zm88.167969 65.761719-2.878907 17.695312c-2.664062-3.777343-5.816406-7.113281-9.457031-9.90625 4.40625-2.152343 8.550781-4.734375 12.335938-7.789062zm-376.167969 101.804687v-127.132812l16-5.335938v137.796875zm48 72.433594c-8.824219 0-16-7.175781-16-16v-240c0-8.824219 7.175781-16 16-16s16 7.175781 16 16v98.480469c-9.40625 4.289062-16 13.726562-16 24.71875v1.503906c0 9.871094 5.359375 18.984375 13.992188 23.777344l2.007812 1.113281v90.40625c0 8.824219-7.175781 16-16 16zm32-84.785156v-12.726563l66.457031 36.917969c-23.210937-4.644531-45.664062-12.796875-66.457031-24.191406zm137.304688 32.160156c-4.863282 4.871094-12.792969 5.976562-18.808594 2.640625l-128.742188-71.519531c-3.546875-1.976563-5.753906-5.726563-5.753906-9.792969v-1.503906c0-6.175781 5.023438-11.199219 11.199219-11.199219 1.832031 0 3.648437.457031 5.265625 1.320312l121 64.527344 85.558594-85.566406c2.738281-2.722656 6.496093-4.28125 10.351562-4.28125 8.066406 0 14.625 6.558594 14.625 14.632812 0 3.902344-1.519531 7.582032-4.28125 10.34375zm127.136718 73.273438c-31.121094-33.480469-50.90625-76.289063-56-121.769532l30.597656-30.597656c5.777344-5.785156 8.960938-13.472656 8.960938-21.648438 0-2.542968-.398438-4.976562-.984375-7.335937 2.945313.414063 5.929687.703125 8.984375.703125 14.617188 0 26.96875 10.464844 29.367188 24.878906l2.242187 13.433594zm119.558594-303.296876c0 1.351563-.105469 2.710938-.304688 4.039063l-12.167968 79.023437c-1.800782 11.699219-6.832032 22.410157-14.605469 31.1875l-44.691406-4.96875 5.609375-34.441406c1.007812-3.855468 1.671875-7.832031 1.945312-11.925781l11.390625-69.953125c2.097657-12.929688 13.136719-22.3125 26.238281-22.3125 14.65625 0 26.585938 11.929688 26.585938 26.585938zm0 0"/><path d="m392 448c-30.871094 0-56-25.128906-56-56s25.128906-56 56-56 56 25.128906 56 56-25.128906 56-56 56zm0-72c-8.824219 0-16 7.175781-16 16s7.175781 16 16 16 16-7.175781 16-16-7.175781-16-16-16zm0 0" fill="#f0bc5e"/><path d="m392 416c-13.230469 0-24-10.769531-24-24s10.769531-24 24-24 24 10.769531 24 24-10.769531 24-24 24zm0-32c-4.414062 0-8 3.59375-8 8s3.585938 8 8 8 8-3.59375 8-8-3.585938-8-8-8zm0 0"/></svg>