<?xml version="1.0" encoding="utf-8"?>
<!-- Generator: Adobe Illustrator 16.0.0, SVG Export Plug-In . SVG Version: 6.00 Build 0)  -->
<!DOCTYPE svg PUBLIC "-//W3C//DTD SVG 1.1//EN" "http://www.w3.org/Graphics/SVG/1.1/DTD/svg11.dtd">
<svg version="1.1" id="Capa_1" xmlns="http://www.w3.org/2000/svg" xmlns:xlink="http://www.w3.org/1999/xlink" x="0px" y="0px"
	 width="200px" height="200px" viewBox="148 148 200 200" enable-background="new 148 148 200 200" xml:space="preserve">
<g>
	<path fill="#F0BC5E" d="M268.767,264.308h-44.309V188.35h3.166l12.66,6.33h12.66l12.659-6.33h3.165V264.308z"/>
	<path fill="#F0BC5E" d="M205.468,216.833h-25.319v-18.989h25.319V216.833z"/>
	<path fill="#F0BC5E" d="M306.746,235.823h-25.32v-18.989h25.32V235.823z"/>
</g>
<path d="M328.899,172.525H164.325c-8.725,0-15.825,7.1-15.825,15.825v75.958c0,8.726,7.1,15.824,15.825,15.824h11.979
	c1.496,1.884,3.437,3.286,5.165,4.53c3.2,2.301,5.01,3.736,5.01,6.528c0,2.794-1.81,4.231-5.013,6.532
	c-3.406,2.452-7.646,5.5-7.646,11.676s4.24,9.225,7.646,11.676c3.203,2.301,5.013,3.738,5.013,6.531h6.33
	c0-6.176-4.24-9.223-7.646-11.672c-3.204-2.305-5.013-3.744-5.013-6.535s1.81-4.232,5.013-6.533
	c3.406-2.451,7.646-5.504,7.646-11.675c0-6.172-4.24-9.22-7.646-11.669c-3.204-2.301-5.013-3.738-5.013-6.529
	c0-2.786,1.81-4.222,5.01-6.52c3.409-2.447,7.649-5.491,7.649-11.66h-6.33c0,2.703-1.734,4.149-4.757,6.33h-14.233v-12.66h56.968
	v-6.33h-56.968v-12.66h56.968v-6.33h-56.968v-12.66h12.66v-6.33h-12.66v-12.66h59.387l12.66,6.33h14.155l12.66-6.33h59.384v12.66
	h-56.969v6.33h56.969v12.66h-18.989v6.33h18.989v12.66h-56.969v6.33h56.969v12.66h-8.251c1.136-1.685,1.921-3.715,1.921-6.33h-6.33
	c0,2.785-1.81,4.222-5.01,6.52c-3.409,2.447-7.65,5.491-7.65,11.66c0,6.17,4.241,9.22,7.65,11.67c3.2,2.301,5.01,3.736,5.01,6.528
	c0,2.794-1.81,4.231-5.013,6.532c-3.406,2.452-7.647,5.5-7.647,11.676s4.241,9.225,7.647,11.676
	c3.203,2.301,5.013,3.738,5.013,6.531h6.33c0-6.176-4.241-9.223-7.646-11.672c-3.204-2.305-5.013-3.744-5.013-6.535
	s1.809-4.232,5.013-6.533c3.405-2.451,7.646-5.504,7.646-11.675c0-5.678-3.583-8.704-6.808-11.059h16.302
	c8.726,0,15.825-7.099,15.825-15.824V188.35C344.725,179.625,337.625,172.525,328.899,172.525z M338.395,264.308
	c0,5.233-4.261,9.494-9.495,9.494h-22.012c-0.04-0.272-0.142-0.51-0.142-0.81c0-2.35,1.35-3.764,3.674-5.52h15.315
	c3.491,0,6.33-2.84,6.33-6.33v-69.628c0-3.491-2.839-6.33-6.33-6.33h-60.88l-12.66,6.33h-11.164l-12.66-6.33h-60.883
	c-3.491,0-6.33,2.839-6.33,6.33v69.628c0,3.49,2.839,6.33,6.33,6.33h7.738c-0.852,1.521-1.408,3.313-1.408,5.52
	c0,0.287,0.054,0.535,0.069,0.81h-9.564c-5.234,0-9.495-4.261-9.495-9.494V188.35c0-5.234,4.261-9.495,9.495-9.495h164.575
	c5.234,0,9.495,4.261,9.495,9.495V264.308z"/>
<path d="M231.996,235.823h29.232l-14.616-29.23L231.996,235.823z M242.239,229.493l4.374-8.748l4.373,8.748H242.239z"/>
<path d="M205.468,204.174h18.989v6.33h-18.989V204.174z"/>
<path d="M268.767,223.164h12.659v6.33h-12.659V223.164z"/>
<path d="M286.437,266.475c3.409-2.449,7.649-5.493,7.649-11.662h-6.33c0,2.703-1.734,4.149-4.757,6.33h-66.792
	c1.136-1.685,1.921-3.715,1.921-6.33h-6.33c0,2.785-1.809,4.222-5.01,6.52c-3.409,2.447-7.649,5.491-7.649,11.66
	c0,6.17,4.24,9.22,7.649,11.67c3.201,2.301,5.01,3.736,5.01,6.528c0,2.794-1.809,4.231-5.013,6.532
	c-3.406,2.452-7.646,5.5-7.646,11.676s4.24,9.225,7.646,11.676c3.204,2.301,5.013,3.738,5.013,6.531h6.33
	c0-6.176-4.24-9.223-7.646-11.672c-3.204-2.305-5.013-3.744-5.013-6.535s1.81-4.232,5.013-6.533
	c3.406-2.451,7.646-5.504,7.646-11.675c0-5.678-3.582-8.704-6.807-11.059h66.26c1.496,1.884,3.438,3.286,5.165,4.53
	c3.2,2.301,5.01,3.736,5.01,6.528c0,2.794-1.81,4.231-5.013,6.532c-3.406,2.452-7.646,5.5-7.646,11.676s4.24,9.225,7.646,11.676
	c3.203,2.301,5.013,3.738,5.013,6.531h6.33c0-6.176-4.24-9.223-7.646-11.672c-3.203-2.305-5.014-3.744-5.014-6.535
	s1.811-4.232,5.014-6.533c3.406-2.451,7.646-5.504,7.646-11.675c0-6.172-4.24-9.22-7.646-11.669
	c-3.203-2.301-5.014-3.738-5.014-6.529C281.426,270.206,283.236,268.771,286.437,266.475z M205.61,273.802
	c-0.04-0.272-0.142-0.51-0.142-0.81c0-2.35,1.351-3.764,3.675-5.52h67.361c-0.852,1.521-1.407,3.313-1.407,5.52
	c0,0.287,0.054,0.535,0.069,0.81H205.61z"/>
</svg>
