<?xml version="1.0" encoding="iso-8859-1"?>
<!-- Generator: Adobe Illustrator 19.0.0, SVG Export Plug-In . SVG Version: 6.00 Build 0)  -->
<svg version="1.1" id="Capa_1" xmlns="http://www.w3.org/2000/svg" xmlns:xlink="http://www.w3.org/1999/xlink" x="0px" y="0px"
	 viewBox="0 0 496 496" style="enable-background:new 0 0 496 496;" xml:space="preserve">
<g>
	<path style="fill:#F0BC5E;" d="M176,492c-2.048,0-4.096-0.784-5.656-2.344l-56-56c-2.288-2.288-2.976-5.728-1.736-8.72
		c1.232-2.992,4.16-4.936,7.392-4.936h24V244h64v176h24c3.232,0,6.16,1.944,7.392,4.936c1.24,2.992,0.552,6.432-1.736,8.72l-56,56
		C180.096,491.216,178.048,492,176,492z"/>
	<path style="fill:#F0BC5E;" d="M320,492c-2.048,0-4.096-0.784-5.656-2.344l-56-56c-2.288-2.288-2.976-5.728-1.736-8.72
		c1.232-2.992,4.16-4.936,7.392-4.936h24V244h64v176h24c3.232,0,6.16,1.944,7.392,4.936c1.24,2.992,0.552,6.432-1.736,8.72l-56,56
		C324.096,491.216,322.048,492,320,492z"/>
</g>
<path d="M456,4H40C17.944,4,0,21.944,0,44v144c0,22.056,17.944,40,40,40h416c22.056,0,40-17.944,40-40V44
	C496,21.944,478.056,4,456,4z M480,188c0,13.232-10.768,24-24,24H40c-13.232,0-24-10.768-24-24V44c0-13.232,10.768-24,24-24h416
	c13.232,0,24,10.768,24,24V188z"/>
<path d="M32,196h432V36H32V196z M48,156h16v-16H48v-16h176v16H80v16h144v24H48V156z M272,124h176v16H272V124z M256,180h-16V52h16
	V180z M224,108H48V92h176V108z M272,180v-24h176v24H272z M448,76h-16v16h16v16H272V92h144V76H272V52h176V76z M224,52v24H48V52H224z"
	/>
<polygon points="485.656,305.656 474.344,294.344 452.688,316 440,316 440,303.312 461.656,281.656 450.344,270.344 440,280.688 
	440,260 424,260 424,280.688 413.656,270.344 402.344,281.656 424,303.312 424,316 411.312,316 389.656,294.344 378.344,305.656 
	388.688,316 368,316 368,332 388.688,332 378.344,342.344 389.656,353.656 411.312,332 424,332 424,344.688 402.344,366.344 
	413.656,377.656 424,367.312 424,388 440,388 440,367.312 450.344,377.656 461.656,366.344 440,344.688 440,332 452.688,332 
	474.344,353.656 485.656,342.344 475.312,332 496,332 496,316 475.312,316 "/>
<polygon points="117.656,361.656 106.344,350.344 84.688,372 72,372 72,359.312 93.656,337.656 82.344,326.344 72,336.688 72,316 
	56,316 56,336.688 45.656,326.344 34.344,337.656 56,359.312 56,372 43.312,372 21.656,350.344 10.344,361.656 20.688,372 0,372 
	0,388 20.688,388 10.344,398.344 21.656,409.656 43.312,388 56,388 56,400.688 34.344,422.344 45.656,433.656 56,423.312 56,444 
	72,444 72,423.312 82.344,433.656 93.656,422.344 72,400.688 72,388 84.688,388 106.344,409.656 117.656,398.344 107.312,388 
	128,388 128,372 107.312,372 "/>
<g>
</g>
<g>
</g>
<g>
</g>
<g>
</g>
<g>
</g>
<g>
</g>
<g>
</g>
<g>
</g>
<g>
</g>
<g>
</g>
<g>
</g>
<g>
</g>
<g>
</g>
<g>
</g>
<g>
</g>
</svg>
