<svg id="Layer_35" enable-background="new 0 0 64 64" height="512" viewBox="0 0 64 64" width="512" xmlns="http://www.w3.org/2000/svg"><path d="m18 56c-1.557 0-3.021-.606-4.121-1.707l-11.757-11.757c-.724-.724-1.122-1.685-1.122-2.707 0-2.112 1.717-3.829 3.829-3.829 1.022 0 1.984.398 2.707 1.122l9.459 9.459 3.293-3.293 1.414 1.414-4.707 4.707-10.873-10.873c-.346-.346-.805-.536-1.293-.536-1.009 0-1.829.82-1.829 1.829 0 .488.19.947.536 1.293l11.757 11.757c1.446 1.446 3.968 1.446 5.414 0l4.586-4.586 1.414 1.414-4.586 4.586c-1.1 1.101-2.564 1.707-4.121 1.707z"/><path d="m31.171 54c-1.022 0-1.984-.398-2.707-1.122l-20.408-20.408c-.738-.737-1.146-1.758-1.12-2.8.049-2.045 1.689-3.685 3.734-3.734 1.05-.034 2.062.383 2.8 1.12l20.409 20.409c.723.723 1.121 1.684 1.121 2.706 0 2.112-1.717 3.829-3.829 3.829z" fill="#f0bc5e"/><path d="m46.757 49c-1.4 0-2.717-.545-3.707-1.536l-10.136-10.136c-.589-.589-.914-1.373-.914-2.207 0-1.721 1.4-3.121 3.121-3.121h.349c.51 0 1.018.127 1.468.367l12.287 6.553c1.712.913 2.775 2.685 2.775 4.625v.212c0 2.891-2.352 5.243-5.243 5.243z" fill="#f0bc5e"/><path d="m63 6h-4.414l-13.586 13.586v-3.586h-3.223c-2.058 0-3.992.801-5.447 2.256l-1.073 1.073c-1.55 1.55-3.997 2.078-6.048 1.303l-13.907-5.249c-.674-.254-1.381-.383-2.101-.383h-.251c-3.281 0-5.95 2.669-5.95 5.95 0 1.589.619 3.083 1.743 4.207l31.136 31.136c1.1 1.101 2.564 1.707 4.121 1.707s3.021-.606 4.121-1.707l9.172-9.172c1.101-1.1 1.707-2.564 1.707-4.121v-5h-2.586l6.586-6.586zm-26.33 14.744 1.073-1.073c1.062-1.062 2.532-1.67 4.033-1.67h1.224v4.272l1.604 2.727h-9.604c-1.325 0-2.439-.869-2.835-2.063 1.7-.207 3.275-.963 4.505-2.193zm4.623 34.135-31.136-31.136c-.746-.746-1.157-1.738-1.157-2.793 0-.726.211-1.397.553-1.982l36.447 36.446c-1.464.87-3.474.698-4.707-.535zm15.707-11.879c0 1.022-.398 1.984-1.121 2.707l-8.379 8.379-36.532-36.533c.584-.342 1.256-.553 1.982-.553h.251c.479 0 .948.085 1.395.254l13.907 5.249c.516.195 1.049.326 1.59.406.429 2.323 2.462 4.091 4.907 4.091h10.781l7.647 13h3.572zm4-12.414-6.793 6.793-8.953-15.219 14.16-14.16h1.586z"/></svg>