<svg height="496pt" viewBox="0 0 496 496" width="496pt" xmlns="http://www.w3.org/2000/svg"><g fill="#f0bc5e"><path d="m281.007812 205.359375c-1.304687-7.742187-7.9375-13.359375-15.785156-13.359375h-162.445312c-7.839844 0-14.480469 5.617188-15.785156 13.375l-14.878907 89.3125h223.78125zm0 0"/><path d="m352 334.640625v33.359375l-52.878906 37.761719c-2 1.4375-4.480469 2.238281-7.042969 2.238281-6.636719 0-12.078125-5.441406-12.078125-12.078125v-20c5.921875-.5625 11.679688-2.722656 16.558594-6.320313l54.320312-40.800781c.722656 1.839844 1.121094 3.839844 1.121094 5.839844zm0 0"/><path d="m88 376v19.921875c0 6.636719-5.441406 12.078125-12.078125 12.078125-2.5625 0-5.042969-.800781-7.042969-2.238281l-52.878906-37.761719v-33.359375c0-2 .398438-4 1.121094-5.839844l54.320312 40.800781c4.878906 3.597657 10.636719 5.757813 16.558594 6.320313zm0 0"/><path d="m496 232h-160v-136h160zm0 0"/></g><path d="m352 248h-32.863281l-10.382813-55.375c-3.546875-18.90625-20.082031-32.625-39.3125-32.625h-170.882812c-19.230469 0-35.765625 13.71875-39.320313 32.625l-10.375 55.375h-32.863281c-8.824219 0-16 7.175781-16 16v8c0 16.617188 12.777344 30.152344 28.992188 31.695312l-13.960938 13.960938c-4.535156 4.527344-7.03125 10.558594-7.03125 16.96875v64.816406c0 8.039063 4 15.503906 10.6875 19.964844l5.3125 3.539062v49.054688c0 13.230469 10.769531 24 24 24h40c13.230469 0 24-10.769531 24-24v-24h144v24c0 13.230469 10.769531 24 24 24h40c13.230469 0 24-10.769531 24-24v-49.054688l5.3125-3.546874c6.6875-4.453126 10.6875-11.917969 10.6875-19.957032v-64.816406c0-6.410156-2.496094-12.441406-7.03125-16.96875l-13.960938-13.960938c16.214844-1.542968 28.992188-15.078124 28.992188-31.695312v-8c0-8.824219-7.175781-16-16-16zm-230.558594 184 5.238282-31.457031c3.039062-18.238281 14.273437-33.199219 29.558593-41.488281-12.589843 22.175781-19.558593 47.3125-20.101562 72.945312zm-52.601562 0c-1.582032 0-3.121094-.472656-4.441406-1.34375l-36.839844-24.558594c-2.222656-1.488281-3.558594-3.976562-3.558594-6.65625v-55.441406l42.664062 32c6.871094 5.160156 15.398438 8 24 8h23.992188c-1.664062 4.441406-2.953125 9.078125-3.761719 13.921875l-5.671875 34.078125zm-6.527344-116.839844c24.742188 16.496094 52.289062 27.519532 81.121094 32.9375-8.019532 5.238282-15 11.964844-20.464844 19.910156h-32.296875c-5.167969 0-10.28125-1.703124-14.398437-4.800781l-48.089844-36.070312 20.839844-20.839844zm125.765625 37.023438c3.816406 5.054687 7.335937 10.3125 10.402344 15.816406h-28.96875c3.0625-5.503906 6.59375-10.761719 10.398437-15.816406 1.363282-.09375 2.714844-.183594 4.089844-.183594s2.726562.089844 4.078125.183594zm-26.0625 31.816406h43.96875c2.085937 5.230469 3.953125 10.550781 5.390625 16h-54.75c1.4375-5.449219 3.304688-10.769531 5.390625-16zm-8.542969 32h61.054688c.753906 5.296875 1.207031 10.632812 1.335937 16h-63.71875c.121094-5.367188.574219-10.703125 1.328125-16zm58.289063-56.945312c15.285156 8.289062 26.519531 23.25 29.558593 41.488281l5.238282 31.457031h-14.695313c-.542969-25.632812-7.511719-50.769531-20.101562-72.945312zm12.773437-10.992188c8.730469-1.636719 17.386719-3.664062 25.890625-6.359375l-4.839843-15.246094c-19.945313 6.335938-40.664063 9.542969-61.585938 9.542969-38.902344 0-76.574219-11.121094-109.304688-32h218.703126c-10.09375 6.441406-20.742188 12.046875-31.773438 16.601562l6.101562 14.796876c13.242188-5.46875 26.015626-12.269532 37.96875-20.238282l13.296876-8.863281 20.839843 20.839844-48.097656 36.0625c-4.125 3.097656-9.238281 4.800781-14.398437 4.800781h-32.296876c-5.480468-7.960938-12.472656-14.6875-20.503906-19.9375zm-149.566406-152.488281c2.128906-11.34375 12.046875-19.574219 23.589844-19.574219h170.882812c11.535156 0 21.460938 8.230469 23.589844 19.574219l17.328125 92.425781h-252.71875zm-58.96875 76.425781v-8h29.863281l-4.503906 24h-9.359375c-8.824219 0-16-7.175781-16-16zm80 200c0 4.414062-3.59375 8-8 8h-40c-4.40625 0-8-3.585938-8-8v-38.382812l15.535156 10.351562c3.960938 2.640625 8.5625 4.03125 13.304688 4.03125h27.160156zm232 0c0 4.414062-3.59375 8-8 8h-40c-4.40625 0-8-3.585938-8-8v-24h27.160156c4.742188 0 9.34375-1.390625 13.3125-4.03125l15.527344-10.351562zm12.441406-65.902344-36.839844 24.558594c-1.328124.871094-2.867187 1.34375-4.441406 1.34375h-36.375l-5.679687-34.078125c-.808594-4.84375-2.097657-9.480469-3.761719-13.921875h23.992188c8.609374 0 17.128906-2.839844 24-8l42.664062-32v55.441406c0 2.679688-1.335938 5.167969-3.558594 6.65625zm11.558594-134.097656c0 8.824219-7.175781 16-16 16h-9.359375l-4.496094-24h29.855469zm0 0"/><path d="m416 128c-13.230469 0-24 10.769531-24 24 0 10.414062 6.710938 19.214844 16 22.527344v25.472656h16v-25.472656c9.289062-3.3125 16-12.113282 16-22.527344 0-13.230469-10.769531-24-24-24zm0 32c-4.40625 0-8-3.585938-8-8s3.59375-8 8-8 8 3.585938 8 8-3.59375 8-8 8zm0 0"/><path d="m416 0c-35.289062 0-64 28.710938-64 64v32h16v-32c0-26.472656 21.527344-48 48-48s48 21.527344 48 48v16h16v-16c0-35.289062-28.710938-64-64-64zm0 0"/><path d="m277.054688 138.3125c-13.574219-13.441406-21.054688-31.304688-21.054688-50.3125s7.480469-36.871094 21.054688-50.3125l-11.253907-11.375c-16.632812 16.472656-25.800781 38.375-25.800781 61.6875s9.167969 45.214844 25.800781 61.6875zm0 0"/><path d="m288.433594 127.289062 11.253906-11.378906c-7.535156-7.453125-11.6875-17.375-11.6875-27.910156s4.152344-20.457031 11.6875-27.910156l-11.253906-11.378906c-10.601563 10.496093-16.433594 24.457031-16.433594 39.289062 0 14.839844 5.832031 28.800781 16.433594 39.289062zm0 0"/><path d="m322.3125 93.511719c-1.488281-1.472657-2.3125-3.433594-2.3125-5.511719s.824219-4.039062 2.3125-5.511719l-11.25-11.375c-4.558594 4.503907-7.0625 10.496094-7.0625 16.886719s2.503906 12.382812 7.0625 16.886719zm0 0"/></svg>