<svg height="496pt" viewBox="0 -24 496 496" width="496pt" xmlns="http://www.w3.org/2000/svg"><path d="m248 296c-30.878906 0-56 25.121094-56 56s25.121094 56 56 56 56-25.121094 56-56-25.121094-56-56-56zm0 0" fill="#f0bc5e"/><path d="m488 176h-230.105469c-11.183593 0-20.277343-9.097656-20.277343-20.28125 0-4.023438 1.175781-7.917969 3.40625-11.253906l.863281-1.082032 86.867187-91c7.511719-7.871093 18.054688-12.382812 28.933594-12.382812h130.3125zm0 0" fill="#f0bc5e"/><path d="m248 312c-22.054688 0-40 17.945312-40 40s17.945312 40 40 40 40-17.945312 40-40-17.945312-40-40-40zm0 64c-13.230469 0-24-10.769531-24-24s10.769531-24 24-24 24 10.769531 24 24-10.769531 24-24 24zm0 0"/><path d="m354.121094 0c-18.953125 0-36.832032 7.304688-50.378906 20.550781l-94.015626 92.058594-140.320312 27.535156c-11.855469 3.167969-22.132812 10.527344-28.941406 20.734375-1.449219 2.175782-2.679688 4.472656-3.777344 6.832032-7.335938 1.554687-12.6875 7.914062-12.6875 15.59375v16.695312c0 5.894531 3.238281 11 8 13.777344v40.335937l-16 32v25.886719c-8.824219 0-16 7.175781-16 16v32c0 8.824219 7.175781 16 16 16h120v-24c0-30.921875 12.328125-59.703125 34.703125-81.046875 22.359375-21.335937 51.679687-32.304687 82.722656-30.824219 59.757813 2.816406 106.574219 53.4375 106.574219 115.261719v20.609375h136v-376zm-281.113282 155.726562 112.335938-22.03125-30.894531 26.480469-97.847657 6.070313c4.453126-5.101563 10.207032-8.847656 16.40625-10.519532zm-33.007812 44.273438-.222656-16.671875 107.015625-6.640625c-4.496094 10.96875-13.945313 19.257812-25.671875 22.183594-2.976563.753906-6.050782 1.128906-9.121094 1.128906zm80 152v8h-104v-32h106.214844c-1.460938 7.824219-2.214844 15.847656-2.214844 24zm-88-40v-16h56v-16h-51.054688l8-16h110.414063c-4.800781 5.039062-9.152344 10.367188-13.015625 16h-38.34375v16h28.902344c-2.527344 5.191406-4.78125 10.503906-6.582032 16zm222.175781-87.855469c-29.304687-1.359375-57.289062 7.101563-80.582031 23.855469h-125.59375v-32h64c4.382812 0 8.761719-.535156 13-1.601562 19.246094-4.8125 34.199219-19.757813 39.007812-39.007813l.746094-2.976563 52.460938-44.964843.28125-.058594 97.441406-95.40625c10.527344-10.3125 24.4375-15.984375 39.183594-15.984375h125.878906v296h-111.246094c-16.722656-49.3125-61.042968-85.335938-114.578125-87.855469zm121.824219 135.855469v-4.609375c0-9.398437-1.023438-18.542969-2.839844-27.390625h106.839844v32zm0 0"/><path d="m248 256c-52.9375 0-96 43.0625-96 96s43.0625 96 96 96 96-43.0625 96-96-43.0625-96-96-96zm46.671875 160.839844-7.742187-13.414063-13.859376 8 7.761719 13.445313c-7.71875 3.488281-16.054687 5.847656-24.832031 6.722656v-15.59375h-16v15.59375c-8.785156-.875-17.113281-3.234375-24.832031-6.722656l7.761719-13.445313-13.859376-8-7.742187 13.414063c-6.992187-5.046875-13.121094-11.175782-18.167969-18.167969l13.414063-7.742187-8-13.859376-13.445313 7.761719c-3.488281-7.71875-5.847656-16.054687-6.722656-24.832031h15.59375v-16h-15.59375c.875-8.785156 3.234375-17.113281 6.722656-24.832031l13.445313 7.761719 8-13.859376-13.414063-7.742187c5.046875-6.992187 11.175782-13.121094 18.167969-18.167969l7.742187 13.414063 13.859376-8-7.761719-13.445313c7.71875-3.488281 16.054687-5.847656 24.832031-6.722656v15.59375h16v-15.59375c8.785156.875 17.113281 3.234375 24.832031 6.722656l-7.761719 13.445313 13.859376 8 7.742187-13.414063c6.992187 5.046875 13.121094 11.175782 18.167969 18.167969l-13.414063 7.742187 8 13.859376 13.445313-7.761719c3.488281 7.71875 5.847656 16.054687 6.722656 24.832031h-15.59375v16h15.59375c-.875 8.785156-3.234375 17.113281-6.722656 24.832031l-13.445313-7.761719-8 13.859376 13.414063 7.742187c-5.046875 6.992187-11.175782 13.121094-18.167969 18.167969zm0 0"/><path d="m240 344h16v16h-16zm0 0"/><path d="m384 256h48c13.230469 0 24-10.769531 24-24s-10.769531-24-24-24h-48c-13.230469 0-24 10.769531-24 24s10.769531 24 24 24zm0-32h48c4.40625 0 8 3.59375 8 8s-3.59375 8-8 8h-48c-4.40625 0-8-3.59375-8-8s3.59375-8 8-8zm0 0"/></svg>