<svg height="496pt" viewBox="-112 0 496 496" width="496pt" xmlns="http://www.w3.org/2000/svg"><path d="m153.167969 173.679688-35.449219-.335938c-26.917969-8.007812-45.71875-33.230469-45.71875-61.34375 0-35.289062 28.710938-64 64-64s64 28.710938 64 64c0 28.113281-18.800781 53.335938-45.71875 61.34375zm0 0" fill="#f0bc5e"/><path d="m240 224c13.230469 0 24-10.769531 24-24s-10.769531-24-24-24-24 10.769531-24 24c0 3.695312.902344 7.152344 2.40625 10.28125l-37.71875 37.71875h-.488281c-6.03125-8.671875-10.863281-18.144531-14.238281-28.121094 48.214843-13.207031 82.039062-56.640625 82.039062-107.878906 0-61.761719-50.238281-112-112-112s-112 50.238281-112 112c0 51.238281 33.824219 94.671875 82.039062 107.878906-3.375 9.984375-8.199218 19.449219-14.238281 28.121094h-.488281l-37.71875-37.71875c1.503906-3.128906 2.40625-6.585938 2.40625-10.28125 0-13.230469-10.769531-24-24-24s-24 10.769531-24 24 10.769531 24 24 24c3.695312 0 7.152344-.902344 10.28125-2.40625l18.710938 18.710938c-16.222657 1.542968-28.992188 15.078124-28.992188 31.695312 0 14.871094 10.230469 27.289062 24 30.863281v41.136719h16v-16h24v24h-12.28125l-66.375 99.558594 13.3125 8.875 40.289062-60.433594h57.054688v56h16v-56h57.054688l40.289062 60.441406 13.3125-8.875-66.375-99.566406h-12.28125v-24h24v16h16v-41.136719c13.769531-3.574219 24-15.992187 24-30.863281 0-16.617188-12.769531-30.152344-28.992188-31.695312l18.710938-18.710938c3.128906 1.503906 6.585938 2.40625 10.28125 2.40625zm0-32c4.414062 0 8 3.59375 8 8s-3.585938 8-8 8-8-3.59375-8-8 3.585938-8 8-8zm-80 104v16h-48v-16zm-65.136719-16c.671875-2.574219 1.136719-5.222656 1.136719-8s-.464844-5.425781-1.136719-8h82.273438c-.671875 2.574219-1.136719 5.222656-1.136719 8s.464844 5.425781 1.136719 8zm49.136719-120h-16v-8c0-4.40625 3.585938-8 8-8s8 3.59375 8 8zm-55.03125 35.617188 6.824219-34.136719c-5.207031-4.265625-9.6875-9.289063-13.335938-14.921875l-7.808593 39.058594c-14.71875-12.359376-25.6875-29-31.023438-47.753907l28.917969-19.277343c-.230469-2.1875-.542969-4.355469-.542969-6.585938 0-4.527344.488281-8.945312 1.382812-13.207031l-32.976562 21.984375c-.261719-2.898438-.40625-5.824219-.40625-8.777344 0-17.089844 4.535156-33.113281 12.398438-47.03125l33.90625 6.785156c4.207031-5.1875 9.214843-9.691406 14.832031-13.355468l-38.871094-7.773438c12.285156-14.738281 28.917969-25.671875 47.878906-30.992188l19.144531 28.71875c2.207032-.222656 4.445313-.351562 6.710938-.351562 4.527344 0 8.945312.488281 13.207031 1.382812l-21.960937-32.941406c2.882812-.257812 5.800781-.441406 8.753906-.441406 17.089844 0 33.121094 4.535156 47.03125 12.398438l-6.785156 33.90625c5.1875 4.207031 9.691406 9.222656 13.355468 14.832031l7.773438-38.878907c14.738281 12.285157 25.671875 28.917969 30.992188 47.878907l-28.71875 19.144531c.222656 2.214844.351562 4.453125.351562 6.71875 0 4.566406-.664062 9-1.609375 13.351562l33.167969-22.113281c.257812 2.890625.441406 5.808594.441406 8.761719 0 16.902344-4.585938 32.976562-12.542969 47l-33.96875-6.792969c-4.191406 5.175781-9.152343 9.679688-14.785156 13.359375l38.839844 7.769532c-12.207031 14.648437-28.695313 25.664062-47.589844 31.007812-1.242187-6.695312-1.953125-13.503906-1.953125-20.34375v-32c0-13.230469-10.769531-24-24-24s-24 10.769531-24 24v32c0 6.839844-.710938 13.648438-1.960938 20.351562-7.421874-2.105468-14.511718-5-21.070312-8.734374zm39.03125-11.617188v-8h16v8c0 22.414062 6.128906 44.617188 17.289062 64h-50.578124c11.160156-19.382812 17.289062-41.585938 17.289062-64zm-104 16c0-4.40625 3.585938-8 8-8s8 3.59375 8 8-3.585938 8-8 8-8-3.59375-8-8zm24 72c0-8.824219 7.175781-16 16-16s16 7.175781 16 16-7.175781 16-16 16-16-7.175781-16-16zm24 40v-9.136719c4.871094-1.261719 9.265625-3.648437 12.945312-6.863281h11.054688v16zm118.382812 72h-108.765624l10.664062-16h87.4375zm-30.382812-32h-48v-24h48zm16-40v-16h11.054688c3.679687 3.214844 8.074218 5.601562 12.945312 6.863281v9.136719zm48-40c0 8.824219-7.175781 16-16 16s-16-7.175781-16-16 7.175781-16 16-16 16 7.175781 16 16zm0 0"/><path d="m96 416h16v16h-16zm0 0"/><path d="m160 416h16v16h-16zm0 0"/><path d="m256 496h-240c-8.824219 0-16-7.175781-16-16v-16c0-8.824219 7.175781-16 16-16h240c8.824219 0 16 7.175781 16 16v16c0 8.824219-7.175781 16-16 16zm0 0" fill="#f0bc5e"/></svg>