<?xml version="1.0" encoding="utf-8"?>
<!-- Generator: Adobe Illustrator 16.0.0, SVG Export Plug-In . SVG Version: 6.00 Build 0)  -->
<!DOCTYPE svg PUBLIC "-//W3C//DTD SVG 1.1//EN" "http://www.w3.org/Graphics/SVG/1.1/DTD/svg11.dtd">
<svg version="1.1" id="Layer_5" xmlns="http://www.w3.org/2000/svg" xmlns:xlink="http://www.w3.org/1999/xlink" x="0px" y="0px"
	 width="512px" height="512px" viewBox="0 0 512 512" enable-background="new 0 0 512 512" xml:space="preserve">
<path d="M448,360H311.111C321.52,349.824,328,335.664,328,320v-64h24c13.232,0,24-10.768,24-24v-8h40c13.232,0,24-10.768,24-24v-16
	c0-13.232-10.768-24-24-24h-40v-8c0-13.232-10.768-24-24-24h-24V64c0-30.872-25.128-56-56-56h-32c-30.872,0-56,25.128-56,56v64h-24
	c-13.232,0-24,10.768-24,24v8H96c-13.232,0-24,10.768-24,24v16c0,13.232,10.768,24,24,24h40v8c0,13.232,10.768,24,24,24h24v64
	c0,15.664,6.48,29.824,16.888,40H192c-30.872,0-56,25.128-56,56v32c0,30.872,25.128,56,56,56h256c30.872,0,56-25.128,56-56v-32
	C504,385.128,478.872,360,448,360z M439.056,431.944l-16,32.023l12,24.032h-30.112l-12-24.032l16-32.023l-16-31.977l12-23.968
	h30.104l-11.992,23.968L439.056,431.944z M248.944,463.968l16-32.023l-16-31.977l12-23.968H272h19.048l-11.991,23.968l16,31.977
	l-16,32.023l12,24.032h-30.113L248.944,463.968z M296.943,463.968l16-32.023l-16-31.977l12-23.968h30.104l-11.991,23.968l16,31.977
	l-16,32.023l12,24.032h-30.113L296.943,463.968z M344.943,463.968l16-32.023l-16-31.977l12-23.968h30.104l-11.991,23.968l16,31.977
	l-16,32.023l12,24.032h-30.113L344.943,463.968z M223.968,88.944l31.976-16l32.024,16l24.032-12v30.112l-24.032,12l-32.024-16
	l-31.976,16l-23.968-12V76.952L223.968,88.944z M312,251.056l-24.032,12l-32.024-16l-31.976,16l-23.968-12v-30.104l23.968,11.992
	l31.976-16l32.024,16l24.032-12V251.056z M312,203.056l-24.032,12l-32.024-16l-31.976,16l-23.968-12v-30.104l23.968,11.992
	l31.976-16l32.024,16l24.032-12V203.056z M223.968,136.944l31.976-16l32.024,16l24.032-12v30.112l-24.032,12l-32.024-16l-31.976,16
	l-23.968-12v-30.104L223.968,136.944z M200,268.952l23.968,11.991l31.976-16l32.024,16l24.032-12v30.112l-24.032,12l-32.024-15.999
	l-31.976,15.999l-23.968-12V268.952z M416,176c4.416,0,8,3.584,8,8v16c0,4.416-3.584,8-8,8h-40v-32H416z M352,144
	c4.416,0,8,3.584,8,8v80c0,4.416-3.584,8-8,8h-24v-96H352z M240,24h32c20.439,0,37.16,15.472,39.52,35.288l-23.552,11.768
	l-32.024-16l-31.976,16l-23.496-11.76C202.84,39.48,219.56,24,240,24z M96,208c-4.416,0-8-3.584-8-8v-16c0-4.416,3.584-8,8-8h40v32
	H96z M160,240c-4.416,0-8-3.584-8-8v-80c0-4.416,3.584-8,8-8h24v96H160z M200,320v-3.048l23.968,11.992l31.976-16l32.024,16
	l24.032-12V320c0,22.056-17.943,40-40,40h-32C217.944,360,200,342.056,200,320z M243.048,376l-11.992,23.968l16,31.977l-16,32.023
	l12,24.032h-30.112l-12-24.032l16-32.023l-16-31.977l12-23.968H240H243.048z M152,448v-32c0-22.056,17.944-40,40-40h3.048
	l-11.992,23.968l16,31.977l-16,32.023l12,24.032H192C169.944,488,152,470.056,152,448z M488,448c0,20.44-15.472,37.16-35.288,39.52
	l-11.768-23.552l16-32.023l-16-31.977l11.76-23.496C472.521,378.84,488,395.56,488,416V448z"/>
<path fill="#F0BC5E" stroke="#000000" stroke-miterlimit="10" d="M383.929,268.893c-0.227,0.396-0.521,0.779-0.894,1.143
	c-0.58,0.565-1.175,1.116-1.771,1.664c0.601,2.377-0.329,5.011-3.435,5.622c-2.043,0.402-3.917,1.009-5.678,1.812
	c-2.662,1.964-5.387,3.847-8.128,5.685c-0.842,0.564-1.701,0.801-2.523,0.795v22.838c0.496,0.143,1.006,0.381,1.523,0.732
	c6.147,3.155,11.628,7.43,16.012,12.782c0.144,0.175,0.267,0.354,0.385,0.535h117.71v-53.607H383.929z"/>
<path fill="#F0BC5E" stroke="#000000" stroke-miterlimit="10" d="M150.964,63.036c-6.242-7.757-16.706-9.961-22.901-17.839H16.5
	v53.607h109.991c5.683-4.061,11.824-8.387,14.188-14.633c2.26-5.971,11.93-3.384,9.643,2.658c-0.38,1.004-0.825,1.948-1.299,2.865
	c1.035-0.527,2.072-1.051,3.108-1.576V64.112C151.724,63.845,151.332,63.492,150.964,63.036z"/>
<path d="M88,126.44L175.096,72L88,17.56V40H8v64h80V126.44z M24,88V56h80v-9.56L144.904,72L104,97.56V88H24z"/>
<path d="M424,264v-22.44L336.904,296L424,350.44V328h80v-64H424z M488,312h-80v9.56L367.096,296L408,270.439V280h80V312z"/>
</svg>
