<?xml version="1.0" encoding="utf-8"?>
<!-- Generator: Adobe Illustrator 16.0.0, SVG Export Plug-In . SVG Version: 6.00 Build 0)  -->
<!DOCTYPE svg PUBLIC "-//W3C//DTD SVG 1.1//EN" "http://www.w3.org/Graphics/SVG/1.1/DTD/svg11.dtd">
<svg version="1.1" id="Layer_3" xmlns="http://www.w3.org/2000/svg" xmlns:xlink="http://www.w3.org/1999/xlink" x="0px" y="0px"
	 width="200px" height="200px" viewBox="0.75 311.25 200 200" enable-background="new 0.75 311.25 200 200" xml:space="preserve">
<circle fill="#F0BC5E" cx="53.633" cy="478.606" r="8.173"/>
<circle fill="#F0BC5E" cx="150.121" cy="478.979" r="9.166"/>
<path d="M3,504.122v6.379h197.75v-6.379h-51.032H54.032H3z"/>
<path d="M54.032,465.849c-7.036,0-12.758,5.721-12.758,12.758c0,7.035,5.722,12.758,12.758,12.758
	c7.036,0,12.758-5.723,12.758-12.758C66.79,471.569,61.068,465.849,54.032,465.849z M54.032,484.985
	c-3.518,0-6.379-2.861-6.379-6.379s2.861-6.38,6.379-6.38s6.379,2.862,6.379,6.38S57.55,484.985,54.032,484.985z"/>
<path d="M175.014,481.796h16.167c5.276,0,9.569-4.293,9.569-9.569v-31.895c0-1.209-0.683-2.313-1.764-2.854l-24.862-12.43
	l-25.701-33.414c-4.197-5.457-10.813-8.713-17.695-8.713h-12.905v-12.758h35.084c1.764,0,3.189-1.43,3.189-3.189v-51.032
	c0-1.762-1.426-3.19-3.189-3.19H50.843c-1.764,0-3.189,1.429-3.189,3.19v51.032c0,1.76,1.426,3.189,3.189,3.189h35.084v13.695
	c-4.5,1.321-8.563,4.006-11.466,7.775l-25.43,33.069l-30.903,6.622C9.36,433.203,3,441.068,3,450.034v22.192
	c0,5.276,4.293,9.569,9.569,9.569h16.167c1.579,12.566,12.308,22.326,25.296,22.326s23.717-9.76,25.296-22.326h45.097
	c1.579,12.566,12.308,22.326,25.295,22.326S173.435,494.362,175.014,481.796z M194.371,462.659h-6.379v-23.545l6.379,3.189V462.659z
	 M54.032,319.131h95.686v44.653H54.032V319.131z M111.444,370.163v12.758H92.307v-12.758H111.444z M9.392,449.901h6.366v6.378H9.379
	v-6.245C9.379,449.989,9.392,449.945,9.392,449.901z M9.379,472.227v-9.567h9.569c1.764,0,3.189-1.426,3.189-3.19v-12.758
	c0-1.764-1.426-3.189-3.189-3.189h-7.734c1.776-2.967,4.71-5.202,8.251-5.962l32.048-6.866c0.736-0.16,1.396-0.574,1.859-1.174
	l26.147-33.993c2.999-3.901,7.722-6.227,12.64-6.227h38.568c4.918,0,9.642,2.325,12.64,6.227l26.147,33.993
	c0.297,0.383,0.673,0.696,1.104,0.909l10.994,5.495v29.925c0,1.763,1.426,3.189,3.189,3.189h9.569v3.188
	c0,1.762-1.429,3.19-3.19,3.19h-16.167c-1.579-12.566-12.309-22.327-25.296-22.327c-12.988,0-23.717,9.761-25.296,22.327H79.329
	C77.75,462.851,67.02,453.09,54.032,453.09s-23.717,9.761-25.296,22.327H12.569C10.808,475.417,9.379,473.988,9.379,472.227z
	 M54.032,497.743c-10.554,0-19.137-8.583-19.137-19.137s8.583-19.138,19.137-19.138c10.554,0,19.137,8.584,19.137,19.138
	S64.586,497.743,54.032,497.743z M149.718,497.743c-10.554,0-19.137-8.583-19.137-19.137s8.583-19.138,19.137-19.138
	c10.555,0,19.137,8.584,19.137,19.138S160.272,497.743,149.718,497.743z"/>
<path d="M149.718,465.849c-7.036,0-12.758,5.721-12.758,12.758c0,7.035,5.722,12.758,12.758,12.758s12.758-5.723,12.758-12.758
	C162.476,471.569,156.754,465.849,149.718,465.849z M149.718,484.985c-3.518,0-6.379-2.861-6.379-6.379s2.861-6.38,6.379-6.38
	s6.379,2.862,6.379,6.38S153.236,484.985,149.718,484.985z"/>
<path d="M66.79,433.953h89.307c1.189,0,2.281-0.66,2.829-1.716c0.552-1.056,0.465-2.325-0.213-3.302l-19.469-27.812
	c-2.389-3.41-6.296-5.445-10.456-5.445H94.099c-4.16,0-8.063,2.035-10.449,5.445l-19.469,27.812
	c-0.683,0.977-0.765,2.246-0.214,3.302C64.51,433.293,65.601,433.953,66.79,433.953z M134.012,404.778l15.958,22.796h-35.337
	v-25.516h14.155C130.868,402.059,132.82,403.075,134.012,404.778z M88.875,404.778c1.193-1.703,3.145-2.72,5.225-2.72h14.155v25.516
	H72.917L88.875,404.778z"/>
<path d="M101.875,440.332h12.758v6.379h-12.758V440.332z"/>
<path d="M146.528,440.332h12.758v6.379h-12.758V440.332z"/>
<path fill="#F0BC5E" d="M156.794,366.672c0,2.201-1.786,3.986-3.987,3.986H50.942c-2.202,0-3.987-1.785-3.987-3.986v-50.435
	c0-2.202,1.785-3.987,3.987-3.987h101.865c2.201,0,3.987,1.785,3.987,3.987V366.672z"/>
<path d="M70.8,325.506l-7.199,0.003c-1.764,0-3.19,1.429-3.19,3.19v28.705h6.379v-9.568h3.19c1.76,0,3.189,1.432,3.189,3.19v6.378
	h6.379v-6.378c0-2.46-0.96-4.684-2.488-6.38c1.527-1.696,2.488-3.919,2.488-6.38v-6.378c0-1.901-0.571-3.433-1.693-4.545
	C75.96,325.465,73.329,325.494,70.8,325.506z M66.79,341.457v-9.568l4.057-0.003c0.718-0.003,1.723-0.014,2.322,0.057v6.324
	c0,1.759-1.429,3.19-3.189,3.19H66.79z"/>
<path d="M82.738,328.699v25.516c0,1.761,1.426,3.189,3.189,3.189h12.758v-6.378h-9.568v-6.38h6.379v-6.38h-6.379v-6.378h9.568v-6.38
	H85.927C84.164,325.509,82.738,326.938,82.738,328.699z"/>
<path d="M114.633,340.705l-6.714-13.432c-0.66-1.324-2.162-2.016-3.585-1.678c-1.441,0.338-2.459,1.623-2.459,3.104v28.705h6.379
	V342.21l6.714,13.432c0.548,1.1,1.667,1.763,2.854,1.763c0.242,0,0.488-0.028,0.73-0.086c1.441-0.338,2.459-1.623,2.459-3.104
	v-28.706h-6.379V340.705z"/>
<path d="M124.202,331.889h6.379v25.516h6.379v-25.516h6.379v-6.38h-19.137V331.889z"/>
</svg>
