<?xml version="1.0" encoding="utf-8"?>
<!-- Generator: Adobe Illustrator 16.0.0, SVG Export Plug-In . SVG Version: 6.00 Build 0)  -->
<!DOCTYPE svg PUBLIC "-//W3C//DTD SVG 1.1//EN" "http://www.w3.org/Graphics/SVG/1.1/DTD/svg11.dtd">
<svg version="1.1" id="Capa_1" xmlns="http://www.w3.org/2000/svg" xmlns:xlink="http://www.w3.org/1999/xlink" x="0px" y="0px"
	 width="571px" height="570.5px" viewBox="193.5 0 571 570.5" enable-background="new 193.5 0 571 570.5" xml:space="preserve">
<g>
	<path d="M263.226,270.968c-14.939,0-27.097,12.157-27.097,27.098c0,14.939,12.158,27.097,27.097,27.097
		s27.097-12.157,27.097-27.097C290.323,283.125,278.165,270.968,263.226,270.968z M263.226,307.097
		c-4.977,0-9.032-4.046-9.032-9.031c0-4.986,4.056-9.032,9.032-9.032c4.977,0,9.032,4.046,9.032,9.032
		C272.258,303.051,268.203,307.097,263.226,307.097z"/>
	<path d="M732.903,0h-27.098H525.161h-131.5c-11.679,0-22.012,7.442-25.706,18.534l-2.854,8.563h-29.617
		c-14.939,0-27.097,12.158-27.097,27.097V65.89c-26.085,7.795-45.162,31.974-45.162,60.562c0,18.868,8.346,35.786,21.497,47.374
		c-20.205,15.373-34.079,38.098-38.17,63.316C219.763,244.485,200,268.98,200,298.064c0,34.854,28.361,63.226,63.226,63.226h9.032
		v-18.064h-9.032c-24.902,0-45.161-20.259-45.161-45.16c0-24.902,20.259-45.162,45.161-45.162c16.068,0,31.053,8.653,39.119,22.571
		l15.625-9.05c-0.912-1.571-1.969-3.017-2.999-4.489h11.48v-72.258c34.864,0,63.226-28.361,63.226-63.226
		c0-34.865-28.361-63.226-63.226-63.226v-9.032c0-4.977,4.055-9.032,9.032-9.032h42.641l6.973-20.918
		c1.229-3.694,4.669-6.178,8.563-6.178h5.961c4.2,20.584,22.445,36.129,44.249,36.129s40.049-15.544,44.249-36.129h37.041v99.59
		c-7.568-5.735-16.892-9.267-27.097-9.267c-24.901,0-45.161,20.259-45.161,45.161c0,24.902,20.26,45.161,45.161,45.161
		c21.804,0,40.049-15.544,44.248-36.129h145.43v99.355h-117.42V280h135.483V162.581v-18.064h27.098
		c14.938,0,27.097-12.157,27.097-27.097V27.097C760,12.157,747.843,0,732.903,0z M308.387,253.879
		c-11.299-11.471-26.736-18.372-43.129-18.905c4.751-20.81,17.704-39.164,35.768-50.68c2.375,1.048,4.841,1.906,7.361,2.665V253.879
		z M371.613,126.452c0,24.902-20.259,45.161-45.161,45.161c-9.267,0-17.875-2.818-25.056-7.623l-0.244-0.506
		c-0.09,0.045-0.163,0.099-0.253,0.145c-11.823-8.156-19.609-21.759-19.609-37.177c0-24.902,20.259-45.161,45.161-45.161
		C351.353,81.291,371.613,101.55,371.613,126.452z M443.871,36.129c-11.76,0-21.695-7.578-25.435-18.064h50.861
		C465.566,28.551,455.631,36.129,443.871,36.129z M498.063,180.645c-14.938,0-27.097-12.157-27.097-27.097
		s12.157-27.097,27.097-27.097c14.94,0,27.098,12.157,27.098,27.097S513.004,180.645,498.063,180.645z M633.549,144.516h-90.323
		V18.064h27.332c-5.734,7.569-9.268,16.891-9.268,27.097c0,24.902,20.26,45.162,45.161,45.162c10.207,0,19.528-3.532,27.098-9.267
		V144.516z M606.451,72.258c-14.938,0-27.097-12.157-27.097-27.097s12.157-27.097,27.097-27.097
		c14.938,0,27.098,12.157,27.098,27.097S621.391,72.258,606.451,72.258z M741.936,117.419c0,4.977-4.056,9.032-9.031,9.032h-27.098
		v-18.064h-18.063v18.064v18.064h-36.129V45.161c0-10.206-3.532-19.527-9.269-27.097h45.396v72.258h18.063V18.064h27.098
		c4.977,0,9.031,4.056,9.031,9.032L741.936,117.419L741.936,117.419z"/>
	<path d="M299.355,126.452c0,14.939,12.157,27.097,27.097,27.097s27.097-12.157,27.097-27.097s-12.157-27.097-27.097-27.097
		S299.355,111.512,299.355,126.452z M335.484,126.452c0,4.977-4.056,9.032-9.032,9.032c-4.977,0-9.032-4.056-9.032-9.032
		c0-4.977,4.055-9.032,9.032-9.032C331.428,117.419,335.484,121.475,335.484,126.452z"/>
</g>
<path fill="#F0BC5E" d="M480,560h-72.258v-40.69c-13.052-3.359-25.534-8.544-37.24-15.48l-28.813,28.804l-51.095-51.095
	l28.804-28.813c-6.937-11.706-12.121-24.188-15.481-37.239h-40.69v-72.259h40.69c3.36-13.052,8.544-25.533,15.481-37.239
	l-28.804-28.813l51.095-51.096l28.813,28.804c11.706-6.937,24.188-12.122,37.24-15.481v-40.69H480v40.69
	c13.052,3.36,25.534,8.544,37.24,15.481l28.813-28.804l51.097,51.095l-28.805,28.813c6.938,11.705,12.121,24.188,15.481,37.238
	h40.689v72.26h-40.689c-3.36,13.051-8.545,25.533-15.481,37.238l28.805,28.813l-51.097,51.096l-28.813-28.805
	c-11.706,6.938-24.188,12.121-37.24,15.48V560L480,560z"/>
<g>
	<path d="M443.871,469.678c-49.804,0-90.323-40.519-90.323-90.322c0-49.805,40.519-90.322,90.323-90.322
		c49.804,0,90.322,40.519,90.322,90.322c0,23.998-9.313,46.598-26.229,63.633l-12.816-12.719
		c13.53-13.639,20.981-31.712,20.981-50.914c0-39.842-32.417-72.259-72.258-72.259c-39.841,0-72.258,32.417-72.258,72.259
		s32.417,72.259,72.258,72.259c13.711,0,27.052-3.857,38.577-11.146l9.654,15.256C477.688,464.854,461.005,469.678,443.871,469.678z
		"/>
	<path d="M443.871,433.549c-29.888,0-54.194-24.307-54.194-54.193c0-29.888,24.306-54.193,54.194-54.193
		c29.888,0,54.192,24.306,54.192,54.193C498.063,409.242,473.759,433.549,443.871,433.549z M443.871,343.226
		c-19.925,0-36.129,16.204-36.129,36.13s16.204,36.129,36.129,36.129S480,399.28,480,379.354
		C480,359.43,463.796,343.226,443.871,343.226z"/>
</g>
</svg>
