<?xml version="1.0" encoding="utf-8"?>
<!-- Generator: Adobe Illustrator 16.0.0, SVG Export Plug-In . SVG Version: 6.00 Build 0)  -->
<!DOCTYPE svg PUBLIC "-//W3C//DTD SVG 1.1//EN" "http://www.w3.org/Graphics/SVG/1.1/DTD/svg11.dtd">
<svg version="1.1" id="Capa_1" xmlns="http://www.w3.org/2000/svg" xmlns:xlink="http://www.w3.org/1999/xlink" x="0px" y="0px"
	 width="560px" height="560px" viewBox="0 0 560 560" enable-background="new 0 0 560 560" xml:space="preserve">
<polygon fill="#F0BC5E" points="194.699,524.123 279,341.5 363.301,524.123 "/>
<polygon fill="#F0BC5E" points="195.699,481.123 280,389.813 364.301,481.123 "/>
<polygon fill="#F0BC5E" points="224.242,419.467 279,360.155 333.758,419.467 "/>
<g>
	<g>
		<path d="M425.253,229.183c-0.142-0.7-0.35-1.389-0.623-2.045c-0.271-0.667-0.612-1.302-1.006-1.893
			c-0.405-0.602-0.864-1.159-1.367-1.662c-0.504-0.503-1.062-0.963-1.663-1.356c-0.591-0.394-1.225-0.733-1.882-1.006
			c-0.666-0.273-1.354-0.492-2.045-0.624c-1.41-0.284-2.865-0.284-4.276,0c-0.699,0.131-1.389,0.35-2.045,0.624
			c-0.667,0.273-1.302,0.613-1.893,1.006c-0.604,0.394-1.159,0.853-1.662,1.356s-0.963,1.061-1.356,1.662
			c-0.395,0.591-0.73,1.225-1.006,1.893c-0.271,0.656-0.479,1.345-0.624,2.045c-0.142,0.7-0.218,1.422-0.218,2.133
			s0.076,1.433,0.218,2.133c0.144,0.7,0.353,1.389,0.624,2.045c0.273,0.667,0.612,1.302,1.006,1.892
			c0.396,0.602,0.854,1.159,1.356,1.663c0.503,0.503,1.061,0.962,1.662,1.367c0.591,0.394,1.226,0.722,1.893,0.996
			c0.655,0.273,1.346,0.492,2.045,0.634c0.7,0.142,1.423,0.208,2.135,0.208c0.71,0,1.433-0.065,2.144-0.208
			c0.689-0.143,1.379-0.361,2.045-0.634c0.657-0.273,1.291-0.602,1.882-0.996c0.604-0.405,1.159-0.864,1.663-1.367
			c0.503-0.503,0.962-1.061,1.367-1.663c0.394-0.59,0.732-1.225,1.006-1.892c0.273-0.656,0.481-1.345,0.623-2.045
			c0.145-0.7,0.208-1.422,0.208-2.133S425.396,229.883,425.253,229.183z"/>
	</g>
</g>
<g>
	<g>
		<path d="M559.033,259.296l-28.12-139.973c-4.564-22.724-24.684-39.219-47.84-39.219H337.876c-2.791-1.482-5.808-2.592-8.984-3.266
			v-51.9c0-6.041-4.896-10.938-10.938-10.938h-75.907c-6.041,0-10.938,4.897-10.938,10.938V76.84
			c-3.179,0.674-6.192,1.784-8.984,3.266H76.928c-23.155,0-43.275,16.494-47.842,39.217L0.967,259.296
			C-1.93,273.72,1.752,288.52,11.072,299.9c9.304,11.359,23.059,17.877,37.735,17.877h197.766c-1.973,4.484-3.065,9.44-3.065,14.647
			c0,9.185,3.52,17.974,9.566,24.627l-48.762,63.094c-2.553,3.301-3.002,7.765-1.164,11.508c1.838,3.744,5.646,6.118,9.817,6.118
			h3.562l-39,36.155c-3.299,3.06-4.389,7.825-2.746,12.016c1.644,4.188,5.683,6.942,10.183,6.942h13.408l-37.771,34.052
			c-3.362,3.029-4.511,7.818-2.888,12.047c1.623,4.227,5.683,7.016,10.21,7.016h224.15c4.525,0,8.587-2.789,10.211-7.016
			c1.623-4.229,0.475-9.018-2.888-12.047l-37.771-34.052h13.408c4.498,0,8.54-2.756,10.183-6.941
			c1.645-4.189,0.554-8.956-2.746-12.017l-38.999-36.156h3.563c4.171,0,7.979-2.373,9.816-6.118
			c1.841-3.743,1.389-8.208-1.165-11.509l-48.738-63.063c6.088-6.639,9.544-15.353,9.544-24.655c0-5.207-1.094-10.163-3.065-14.648
			h197.767c14.676,0,28.43-6.517,37.732-17.875C558.248,288.521,561.931,273.722,559.033,259.296z M238.289,97.966h3.758
			c6.041,0,10.938-4.897,10.938-10.938V35.876h54.03v51.153c0,6.041,4.896,10.938,10.938,10.938h3.757
			c7.023,0,12.737,5.728,12.737,12.767c0,7.041-5.717,12.772-12.737,12.777h-83.415c-7.026-0.005-12.744-5.737-12.744-12.777
			S231.266,97.966,238.289,97.966z M469.621,145.387l21.518,107.107H68.862l2.058-10.239H373.94c6.039,0,10.938-4.897,10.938-10.938
			s-4.898-10.938-10.938-10.938H75.314l15.065-74.993h379.242V145.387z M324.755,415.895h-9.169c-4.498,0-8.54,2.757-10.182,6.942
			c-1.645,4.189-0.556,8.957,2.747,12.015l38.998,36.159h-13.991c-4.526,0-8.587,2.788-10.21,7.017
			c-1.623,4.227-0.478,9.016,2.888,12.047l37.771,34.051H196.395l37.771-34.051c3.362-3.031,4.511-7.82,2.887-12.047
			c-1.624-4.229-5.684-7.017-10.21-7.017H212.85l38.999-36.159c3.303-3.058,4.392-7.823,2.747-12.015
			c-1.644-4.188-5.684-6.942-10.183-6.942h-9.169L280,357.985L324.755,415.895z M265.386,332.426
			c0-8.077,6.559-14.647,14.615-14.647c8.059-0.002,14.615,6.569,14.615,14.646c0,2.362-0.558,4.63-1.582,6.652l-4.379-5.666
			c-2.071-2.68-5.269-4.249-8.654-4.249s-6.583,1.569-8.653,4.249l-4.384,5.672C265.938,337.064,265.386,334.797,265.386,332.426z
			 M532.006,286.037c-5.134,6.268-12.72,9.863-20.813,9.863H48.809c-8.093,0-15.679-3.596-20.812-9.863
			c-5.148-6.285-7.183-14.461-5.58-22.433l28.119-139.973c2.52-12.545,13.621-21.65,26.393-21.65h127.868
			c-0.729,2.796-1.119,5.73-1.119,8.752c0,4.51,0.866,8.821,2.441,12.777H81.421c-5.21,0-9.697,3.675-10.723,8.783L44.786,261.278
			c-0.645,3.214,0.185,6.548,2.262,9.084c2.077,2.537,5.183,4.006,8.461,4.006h448.984c3.276,0,6.385-1.471,8.461-4.006
			c2.077-2.536,2.907-5.87,2.261-9.084l-25.911-128.984c-1.024-5.108-5.513-8.783-10.724-8.783H353.883
			c1.574-3.956,2.441-8.268,2.441-12.777c0-3.022-0.392-5.955-1.119-8.752h127.869c12.771,0,23.872,9.105,26.394,21.651
			l28.12,139.973C539.189,271.576,537.153,279.752,532.006,286.037z"/>
	</g>
</g>
</svg>
