<?xml version="1.0" encoding="iso-8859-1"?>
<!-- Generator: Adobe Illustrator 19.0.0, SVG Export Plug-In . SVG Version: 6.00 Build 0)  -->
<svg version="1.1" id="Capa_1" xmlns="http://www.w3.org/2000/svg" xmlns:xlink="http://www.w3.org/1999/xlink" x="0px" y="0px"
	 viewBox="0 0 496 496" style="enable-background:new 0 0 496 496;" xml:space="preserve">
<g>
	<rect x="112" y="416" style="fill:#F0BC5E;" width="32" height="72"/>
	<rect x="48" y="360" style="fill:#F0BC5E;" width="32" height="128"/>
	<rect x="176" y="376" style="fill:#F0BC5E;" width="32" height="112"/>
	<rect x="240" y="336" style="fill:#F0BC5E;" width="32" height="152"/>
</g>
<polygon points="128.472,392.952 91.36,328 40,328 40,312 100.64,312 127.528,359.048 163.056,288 280,288 280,304 172.944,304 "/>
<polygon points="312,496 0,496 0,280 16,280 16,480 312,480 "/>
<path d="M464,152h-16c0-13.232-10.768-24-24-24v-16C446.056,112,464,129.944,464,152z"/>
<path d="M424,80h-44.688L320.4,21.088C306.808,7.488,288.728,0,269.496,0H86.712C64.944,0,44.984,12.768,35.864,32.536L2.2,105.464
	c-1.432,3.12-2.2,6.6-2.2,10.048V208c0,13.232,10.768,24,24,24h24v-16H24c-4.416,0-8-3.592-8-8v-32h16v-16H16v-16h16v-16H16v-12.488
	c0-1.16,0.248-2.32,0.736-3.352L50.4,39.24C56.912,25.12,71.168,16,86.712,16h182.784c14.96,0,29.016,5.824,39.592,16.4l63.6,63.6
	H424c30.872,0,56,25.12,56,56v56c0,4.408-3.584,8-8,8h-24v16h24c13.232,0,24-10.768,24-24v-56C496,112.304,463.704,80,424,80z"/>
<rect x="248" y="120" width="32" height="16"/>
<polygon points="216,216 216,120 200,120 200,216 176,216 176,232 320,232 320,216 "/>
<path style="fill:#F0BC5E;" d="M384,296c-39.704,0-72-32.304-72-72s32.296-72,72-72s72,32.304,72,72S423.704,296,384,296z"/>
<path d="M384,256c-17.648,0-32-14.352-32-32s14.352-32,32-32s32,14.352,32,32S401.648,256,384,256z M384,208
	c-8.824,0-16,7.176-16,16s7.176,16,16,16s16-7.176,16-16S392.824,208,384,208z"/>
<path style="fill:#F0BC5E;" d="M112,296c-39.704,0-72-32.304-72-72s32.296-72,72-72s72,32.304,72,72S151.704,296,112,296z"/>
<path d="M112,256c-17.648,0-32-14.352-32-32s14.352-32,32-32s32,14.352,32,32S129.648,256,112,256z M112,208
	c-8.824,0-16,7.176-16,16s7.176,16,16,16s16-7.176,16-16S120.824,208,112,208z"/>
<path d="M358.064,104H168V88h151.44l-32.976-32.976C282,50.56,275.816,48,269.496,48H86.712c-3.112,0-5.96,1.824-7.256,4.648
	L63.136,88H152v16H38.12l26.808-58.056C68.832,37.48,77.376,32,86.712,32h182.784c10.528,0,20.832,4.272,28.28,11.712L358.064,104z"
	/>
<path d="M408,320c-48.52,0-88,39.48-88,88s39.48,88,88,88s88-39.48,88-88S456.52,320,408,320z M408,480c-39.704,0-72-32.304-72-72
	s32.296-72,72-72s72,32.304,72,72S447.704,480,408,480z"/>
<path d="M449.928,378.792l-2.144,2.496C438.976,368.176,424.168,360,408,360c-26.472,0-48,21.528-48,48h16c0-17.648,14.352-32,32-32
	c12.32,0,23.448,7.104,28.776,18.136l-20.168,23.528c-2.68-1.04-5.568-1.664-8.608-1.664c-13.232,0-24,10.768-24,24s10.768,24,24,24
	s24-10.768,24-24c0-4.344-1.248-8.368-3.28-11.888l33.352-38.904L449.928,378.792z M408,448c-4.416,0-8-3.592-8-8s3.584-8,8-8
	s8,3.592,8,8S412.416,448,408,448z"/>
<g>
</g>
<g>
</g>
<g>
</g>
<g>
</g>
<g>
</g>
<g>
</g>
<g>
</g>
<g>
</g>
<g>
</g>
<g>
</g>
<g>
</g>
<g>
</g>
<g>
</g>
<g>
</g>
<g>
</g>
</svg>
