<svg id="Layer_35" enable-background="new 0 0 64 64" height="512" viewBox="0 0 64 64" width="512" xmlns="http://www.w3.org/2000/svg"><path d="m25 43c-2.761 0-5 2.239-5 5v2h4.062c3.981 0 7.357-2.927 7.92-6.869l.018-.131z" fill="#f0bc5e"/><path d="m51.207 23c-6.095 0-11.87 2.253-16.341 6.296.083.22.134.455.134.704 0 2.209-1.791 4-4 4h-1.52l-1.145 1h30.665v-12z" fill="#f0bc5e"/><path d="m63 19h-11c-.919 0-1.832.044-2.738.124 1.769-2.643 2.738-5.748 2.738-8.973v-5.651c0-1.929-1.57-3.5-3.5-3.5h-.001c-.934 0-1.812.364-2.474 1.024-.661.662-1.025 1.54-1.025 2.475v5.071c0 2.237-1.459 4.139-3.52 4.773.949-1.195 1.52-2.702 1.52-4.343 0-3.86-3.14-7-7-7s-7 3.14-7 7c0 2.078.915 3.941 2.357 5.225l-5.431 3.514c-1.044-2.382-2.758-4.376-4.918-5.739h1.992c1.103 0 2-.897 2-2v-2c0-1.103-.897-2-2-2h-20c-1.103 0-2 .897-2 2v48h12v3c0 1.654 1.346 3 3 3h6c1.654 0 3-1.346 3-3v-3.059c3.47-.386 6.343-2.753 7.475-5.941h30.525zm-29-2.002 1.908-.002c.031 0 .061.004.092.004.033 0 .064-.004.096-.005h.004.003c.403-.006.796-.047 1.18-.118l.717-.072v.195c0 1.103-.897 2-2 2s-2-.897-2-2zm-3-6.998c0-2.757 2.243-5 5-5s5 2.243 5 5-2.243 5-5 5-5-2.243-5-5zm1.018 7.179c.096 2.121 1.838 3.821 3.982 3.821 2.206 0 4-1.794 4-4v-.395l.697-.07c3.593-.359 6.303-3.354 6.303-6.965v-5.071c0-.4.156-.777.439-1.06s.66-.439 1.061-.439c.827 0 1.5.673 1.5 1.5v5.651c0 3.457-1.261 6.76-3.541 9.349-4.896.885-9.504 2.935-13.459 6.007v-3.507h-2.303l-3.568 2.379-.141-1.555c-.067-.736-.213-1.443-.393-2.135zm-26.883 31.821 3.865-4.638v-3.362h-6v-2h13v5.343c0 .802-.312 1.556-.878 2.122l-2.536 2.535zm-2.135-.562v-5.438h4v.638zm4.091-11.438c-.055-.33-.091-.663-.091-1 0-3.309 2.691-6 6-6s6 2.691 6 6c0 .337-.038.67-.093 1zm8.909-8.591c0-.542.271-1.041.727-1.335l4.376-2.832.399 3.888-2.404 1.603c-.248.165-.536.25-.832.26-.658-.578-1.408-1.052-2.23-1.39-.008-.066-.036-.127-.036-.194zm3.716 3.26c.169-.078.334-.168.491-.272l1.525-1.017.625 6.093c-.453.187-.926.321-1.413.409.034-.292.056-.586.056-.882 0-1.596-.475-3.081-1.284-4.331zm-4.076-6.274c-.932.603-1.517 1.587-1.619 2.678-.335-.043-.674-.073-1.021-.073-4.411 0-8 3.589-8 8 0 .336.031.669.072 1h-2.072v-20h11.042c3.194 0 5.89 2.103 6.731 5.074zm.896 22.484c.944-.944 1.464-2.2 1.464-3.536v-5.343h1.686c2.404 0 4.664-.936 6.364-2.636l.676-.676 4.12 8.24-1.303 1.955c-1.301 1.952-3.479 3.117-5.824 3.117h-8.304zm14.464-20.879h-3.632l-.032-.355 3.664-2.443zm-3.087 6-.364-4h5.451c.551 0 1 .449 1 1 0 1.654-1.346 3-3 3zm-24.913-24h20v2h-20zm11.042 4c5.727 0 10.436 4.301 10.955 10.004l.965 10.621-1.325 1.326c-.124.124-.256.238-.388.352l-1.243-12.117c-.426-4.667-4.279-8.186-8.964-8.186h-11.042v-2zm-11.042 42v-4h5c.551 0 1 .448 1 1v2c0 .552-.449 1-1 1zm19 6h-6c-.551 0-1-.448-1-1v-3h8v3c0 .552-.449 1-1 1zm2-6h-13.184c.112-.314.184-.648.184-1v-2c0-.352-.072-.686-.184-1h12.903c2.901 0 5.59-1.396 7.281-3.735v.735c0 3.859-3.14 7-7 7zm37-6h-28.059c.037-.329.059-.662.059-1v-4.236l-4.382-8.764h2.382c2.757 0 5-2.243 5-5 0-1.274-.801-2.357-1.923-2.792 5.096-4.015 11.375-6.208 17.923-6.208h9z"/><path d="m53 39h6v2h-6z"/><path d="m35 45h2v2h-2z"/><path d="m39 45h2v2h-2z"/><path d="m43 45h2v2h-2z"/><path d="m5 19h2v2h-2z"/><path d="m9 19h2v2h-2z"/><path d="m13 19h2v2h-2z"/></svg>