<?xml version="1.0" encoding="utf-8"?>
<!-- Generator: Adobe Illustrator 16.0.0, SVG Export Plug-In . SVG Version: 6.00 Build 0)  -->
<!DOCTYPE svg PUBLIC "-//W3C//DTD SVG 1.1//EN" "http://www.w3.org/Graphics/SVG/1.1/DTD/svg11.dtd">
<svg version="1.1" id="Capa_1" xmlns="http://www.w3.org/2000/svg" xmlns:xlink="http://www.w3.org/1999/xlink" x="0px" y="0px"
	 width="558px" height="560px" viewBox="157.5 0 558 560" enable-background="new 157.5 0 558 560" xml:space="preserve">
<g>
	<rect x="335.613" y="406.451" fill="#F0BC5E" width="216.774" height="108.388"/>
	<rect x="335.613" y="153.548" fill="#F0BC5E" width="216.774" height="108.387"/>
</g>
<path d="M570.451,90.323V36.129h-81.29V0h-90.322v36.129h-81.291v54.194h108.387v54.193H326.58v126.452h45.162v18.064h-27.097
	v90.321h27.097v18.064H326.58V523.87h72.258V560h90.322v-36.129h72.258V397.419h-99.354v-18.063h81.29v-90.322h-27.098v-18.064
	h45.161V144.516h-45.161V90.323H570.451z M416.903,18.064h54.192v18.064h-54.192V18.064z M335.613,54.193h216.774v18.064H335.613
	V54.193z M471.097,541.936h-54.192v-18.063h54.192V541.936z M344.645,505.807v-18.063h162.581v-18.064H344.645v-18.063h198.709
	v18.063H525.29v18.064h18.064v18.063H344.645z M543.354,433.549H344.645v-18.064h198.709V433.549z M444,397.419h-54.193v-18.063H444
	V397.419z M525.29,361.29H362.709v-54.193H525.29V361.29z M498.193,289.032H389.807v-18.064h108.388L498.193,289.032
	L498.193,289.032z M344.645,252.903v-18.064h198.709v18.064H344.645z M543.354,180.645H380.774v18.064h162.581v18.065H344.645
	v-18.065h18.064v-18.064h-18.064v-18.064h198.709V180.645z M498.193,144.516H444V90.323h54.193V144.516z"/>
</svg>
