<?xml version="1.0" encoding="iso-8859-1"?>
<!-- Generator: Adobe Illustrator 19.0.0, SVG Export Plug-In . SVG Version: 6.00 Build 0)  -->
<svg version="1.1" id="Capa_1" xmlns="http://www.w3.org/2000/svg" xmlns:xlink="http://www.w3.org/1999/xlink" x="0px" y="0px"
	 viewBox="0 0 496 496" style="enable-background:new 0 0 496 496;" xml:space="preserve">
<path style="fill:#F0BC5E;" d="M248,192c-13.232,0-24-10.768-24-24s10.768-24,24-24s24,10.768,24,24S261.232,192,248,192z"/>
<polygon points="352.856,43.232 339.088,16 156.912,16 143.144,43.232 128.856,36 147.088,0 348.912,0 367.144,36 "/>
<path style="fill:#F0BC5E;" d="M384,128H112c-4.424,0-8-3.576-8-8V40c0-4.424,3.576-8,8-8h272c4.424,0,8,3.576,8,8v80
	C392,124.424,388.424,128,384,128z"/>
<rect x="344" y="80" width="48" height="16"/>
<rect x="104" y="80" width="224" height="16"/>
<path d="M376,336c-22.056,0-40,17.944-40,40v16h-41.448l-8-40H280V224h32v32h40c13.232,0,24-10.768,24-24V128h-16v104
	c0,4.408-3.584,8-8,8h-24V128h-16v80H184v-80h-16v112h-24c-4.416,0-8-3.592-8-8V128h-16v104c0,13.232,10.768,24,24,24h40v-32h32v128
	h-6.552l-8,40H160v-16c0-22.056-17.944-40-40-40h-8v160h8c22.056,0,40-17.944,40-40v-16h47.144l10.176,56h61.36l10.176-56H336v16
	c0,22.056,17.944,40,40,40h8V336H376z M144,456c0,10.432-6.688,19.328-16,22.632V353.368c9.312,3.304,16,12.2,16,22.632V456z
	 M160,424v-16h41.328l2.912,16H160z M232,224h32v128h-32V224z M265.32,480h-34.64l-14.536-79.928L222.552,368h50.888l6.416,32.072
	L265.32,480z M291.768,424l2.912-16H336v16H291.768z M368,478.632c-9.312-3.304-16-12.2-16-22.632v-80
	c0-10.432,6.688-19.328,16-22.632V478.632z"/>
<g>
</g>
<g>
</g>
<g>
</g>
<g>
</g>
<g>
</g>
<g>
</g>
<g>
</g>
<g>
</g>
<g>
</g>
<g>
</g>
<g>
</g>
<g>
</g>
<g>
</g>
<g>
</g>
<g>
</g>
</svg>
