<?xml version="1.0" encoding="utf-8"?>
<!-- Generator: Adobe Illustrator 16.0.0, SVG Export Plug-In . SVG Version: 6.00 Build 0)  -->
<!DOCTYPE svg PUBLIC "-//W3C//DTD SVG 1.1//EN" "http://www.w3.org/Graphics/SVG/1.1/DTD/svg11.dtd">
<svg version="1.1" id="Capa_1" xmlns="http://www.w3.org/2000/svg" xmlns:xlink="http://www.w3.org/1999/xlink" x="0px" y="0px"
	 width="560px" height="560px" viewBox="110.5 0 560 560" enable-background="new 110.5 0 560 560" xml:space="preserve">
<path d="M490.563,496.255V238.762c12.457-4.392,21.875-16.368,21.875-30.95c0-14.419-9.354-26.686-22.308-31.078
	c-4.323-46.369-40.935-83.501-87.068-88.624V32.813c0-6.037-4.896-10.938-10.938-10.938H370.25
	c-30.155,0-54.688,24.532-54.688,54.688V88.12c-46.202,5.08-82.774,42.126-87.064,88.602c-12.758,4.298-22.311,16.415-22.311,31.091
	c0,14.257,9.143,26.417,21.875,30.933v257.492c-12.454,4.396-21.875,16.368-21.875,30.949C206.188,545.281,220.906,560,239,560
	h240.625c18.128,0,32.813-14.685,32.813-32.813C512.438,512.93,503.29,500.771,490.563,496.255z M337.438,76.563
	c0-18.09,14.719-32.813,32.813-32.813h10.938V87.5h-43.75L337.438,76.563L337.438,76.563z M326.5,109.375h65.625
	c38.503,0,70.462,28.57,75.785,65.625H250.707C255.945,138.184,287.629,109.375,326.5,109.375z M239,196.875h240.625
	c6.028,0,10.938,4.909,10.938,10.938c0,6.037-4.9,10.938-10.938,10.938H239c-6.033,0-10.938-4.905-10.938-10.938
	C228.063,201.775,232.963,196.875,239,196.875z M252.5,450.5c-0.775-7.234-1.364-14.486-1.806-21.75h-0.756v-16.32
	c-0.606-18.499-0.419-37.058,0-55.604V306.25h1.288c0.146-7.305,0.246-14.598,0.267-21.875h-1.555v-43.75h218.75v253.75h-218.75
	v-43.75h2.572C252.506,450.584,252.504,450.541,252.5,450.5z M479.625,538.125H239c-6.033,0-10.938-4.905-10.938-10.938
	c0-6.037,4.896-10.938,10.938-10.938h240.625c6.028,0,10.938,4.904,10.938,10.938C490.563,533.225,485.662,538.125,479.625,538.125z
	"/>
<path d="M249.938,412.43v-55.604C249.518,375.372,249.331,393.931,249.938,412.43z"/>
<path d="M609.076,0.149l-131.25,21.875c-5.96,0.996-9.984,6.631-8.993,12.587c0.995,5.969,6.644,9.984,12.586,8.993l131.25-21.875
	c5.961-0.995,9.985-6.631,8.994-12.586C620.672,3.183,615.028-0.842,609.076,0.149z"/>
<path d="M612.669,87.649l-131.25-21.875c-5.955-0.991-11.591,3.034-12.586,8.994c-0.991,5.956,3.033,11.591,8.993,12.586
	l131.25,21.875c5.956,0.991,11.596-3.033,12.587-8.993C622.654,94.28,618.63,88.645,612.669,87.649z"/>
<rect x="250.932" y="241.135" fill="#FFFFFF" width="218.75" height="253.75"/>
<path fill="#F0BC5E" stroke="#000000" stroke-miterlimit="10" d="M455.506,415.639c0,7.072-5.733,12.808-12.807,12.808H278.34
	c-7.073,0-12.807-5.734-12.807-12.808v-99.257c0-7.072,5.734-12.807,12.807-12.807h164.359c7.073,0,12.807,5.733,12.807,12.807
	V415.639z"/>
<circle fill="#FFFFFF" cx="360.52" cy="366.01" r="51.762"/>
<g>
	<path fill="#F0BC5E" d="M358.253,388.677c-4.998,0-9.067-4.067-9.067-9.065c0-4.999,4.069-9.066,9.067-9.066
		c4.999,0,9.066,4.067,9.066,9.066C367.319,384.608,363.251,388.677,358.253,388.677z"/>
	<path fill="#F0BC5E" d="M366.186,368.278H350.32c-1.874,0-3.399-1.526-3.399-3.401v-5.729c0-0.875,0.207-1.752,0.598-2.534
		l2.801-5.604c0.966-1.932,2.908-3.134,5.068-3.134h10.797c1.875,0,3.4,1.527,3.4,3.4v13.6
		C369.585,366.752,368.06,368.278,366.186,368.278z"/>
	<path d="M341.254,383.01h2.267v2.269h-2.267V383.01z"/>
	<path d="M358.253,375.078c-0.665,0-1.319,0.149-1.946,0.448l0.976,2.047c1.548-0.74,3.238,0.462,3.238,2.037
		c0,0.323-0.077,0.65-0.23,0.968l2.047,0.976c0.298-0.624,0.45-1.278,0.45-1.942C362.786,377.109,360.753,375.078,358.253,375.078z"
		/>
	<path d="M355.986,379.61c0-0.325,0.077-0.65,0.231-0.971l-2.047-0.976c-0.297,0.625-0.449,1.281-0.449,1.945
		c0,2.5,2.032,4.531,4.533,4.531c0.664,0,1.319-0.151,1.947-0.448l-0.976-2.049C357.676,382.389,355.986,381.184,355.986,379.61z"/>
	<path d="M391.033,339.371l-20.56-8.225c-0.443-0.178-0.912-0.269-1.389-0.269c-1.539,0-2.901,0.923-3.472,2.353l-1.424,3.561
		c-0.178,0.443-0.268,0.912-0.268,1.391c0,0.769,0.229,1.493,0.639,2.098l-3.304,7.599h2.473l0.827-1.901l3.458,1.456l0.879-2.09
		l-3.435-1.444l0.951-2.188l19.805,7.923l-1.104,2.54l-14.103-5.938l-0.88,2.09l14.08,5.927l-1.113,2.56l-13.523-5.693
		c0.003,0.055,0.017,0.106,0.017,0.162v2.306l12.602,5.306l-1.113,2.56l-11.489-4.839v0.336H357.12c-1.875,0-3.4,1.525-3.4,3.399
		s1.525,3.399,3.4,3.399h12.465v0.679l3.3,1.392c-0.635,0.742-1.146,1.595-1.516,2.516l-2.706-1.139
		c-0.621,0.665-1.5,1.088-2.478,1.088h-1.342c-0.468,1.313-1.715,2.266-3.19,2.266h-6.8c-1.476,0-2.722-0.951-3.191-2.266h-1.342
		c-0.361,0-0.705-0.073-1.033-0.179c0.024,0.121,0.042,0.243,0.069,0.361l-5.362,2.258l-1.159-2.667l4.361-1.836
		c-0.177-0.413-0.276-0.864-0.276-1.34v-1.005l-4.989,2.1l-1.065-2.443l6.054-2.551v-1.828c0-0.217,0.013-0.435,0.037-0.646
		l-6.995,2.945l-1.112-2.56l9.539-4.018l1.558-3.115l-12,5.054l-1.112-2.56l19.65-8.274l0.827,1.901h2.471l-3.304-7.599
		c0.41-0.604,0.641-1.329,0.641-2.098c0-0.479-0.091-0.946-0.268-1.391l-1.425-3.561c-0.571-1.43-1.935-2.353-3.473-2.353
		c-0.478,0-0.945,0.091-1.389,0.269l-20.559,8.225c-1.43,0.571-2.352,1.936-2.352,3.473c0,0.479,0.09,0.945,0.267,1.391l1.425,3.561
		c0.54,1.351,1.789,2.239,3.224,2.333l10.355,23.817h-2.805c-1.875,0-3.4,1.524-3.4,3.398c0,1.25,0.686,2.332,1.693,2.922
		c-0.127,0.133-0.252,0.266-0.366,0.408c-1.121,1.396-1.539,3.2-1.152,4.949l3.449,15.519h35.8l4.92-20.499
		c4.393-0.626,7.785-4.401,7.785-8.965c0-3.938-2.527-7.282-6.042-8.531l5.661-13.021c1.434-0.096,2.684-0.983,3.223-2.333
		l1.425-3.561c0.176-0.443,0.268-0.91,0.268-1.39C393.385,341.307,392.462,339.942,391.033,339.371z M334.826,349.631l14.783-5.913
		l-0.842-2.104l-15.401,6.159c-0.731,0.294-1.619-0.083-1.915-0.822l-1.425-3.563c-0.069-0.172-0.104-0.355-0.104-0.545
		c0-0.605,0.363-1.144,0.925-1.368l20.563-8.226c0.733-0.292,1.618,0.083,1.914,0.821l1.424,3.563
		c0.071,0.172,0.106,0.357,0.106,0.547c0,0.605-0.364,1.144-0.926,1.366l-2.906,1.164l0.841,2.104l2.768-1.107l0.952,2.188
		l-19.651,8.272L334.826,349.631z M369.585,361.963v-0.484H357.12c-0.625,0-1.134-0.511-1.134-1.134c0-0.625,0.51-1.134,1.134-1.134
		h12.465v-0.142l8.723,3.674c-1.297,0.213-2.504,0.692-3.553,1.396L369.585,361.963z M380.895,371.645l-6.538,27.23h-32.196
		l-3.053-13.743c-0.239-1.074,0.02-2.18,0.708-3.039c0.688-0.856,1.712-1.35,2.812-1.35c1.458,0,2.766,0.872,3.328,2.219
		l4.741,11.381h6.631c0.469,1.316,1.716,2.267,3.192,2.267c1.875,0,3.4-1.525,3.4-3.399c0-0.141-0.025-0.275-0.043-0.41l3.948-1.976
		l-1.014-2.026l-3.939,1.969c-0.61-0.589-1.438-0.956-2.352-0.956c-1.476,0-2.723,0.951-3.192,2.269h-5.121l-4.16-9.987
		c-0.915-2.195-3.042-3.611-5.42-3.611h-2.507c-0.624,0-1.134-0.511-1.134-1.135c0-0.625,0.51-1.134,1.134-1.134h9.734
		c0.334-0.823,0.783-1.584,1.333-2.266h-5.791l-0.497-1.146l5.426-2.284c1.032,1.386,2.67,2.297,4.528,2.297h6.8
		c2.489,0,4.586-1.626,5.345-3.862l3.8,1.602c-0.046,0.37-0.079,0.746-0.079,1.129c0,0.774,0.102,1.534,0.29,2.268h-5.69
		c0.549,0.682,0.999,1.441,1.333,2.266h5.297c0.514,0.887,1.17,1.69,1.963,2.366l-1.706,4.434h-5.555
		c-0.334,0.823-0.784,1.585-1.333,2.269h8.446l5.449-14.168c0.13-0.345,0.455-0.565,0.823-0.565c0.486,0,0.882,0.396,0.882,0.896
		C380.918,371.507,380.91,371.576,380.895,371.645z M359.386,393.209c0-0.623,0.509-1.132,1.134-1.132
		c0.624,0,1.133,0.509,1.133,1.132c0,0.624-0.509,1.134-1.133,1.134S359.386,393.833,359.386,393.209z M386.585,371.678
		c0,3.104-2.092,5.721-4.936,6.532l1.448-6.035c0.058-0.24,0.088-0.487,0.088-0.749c0-1.734-1.414-3.146-3.149-3.146
		c-1.293,0-2.474,0.811-2.938,2.018l-2.303,5.99c-1.15-1.243-1.809-2.88-1.809-4.608c0-3.752,3.049-6.801,6.8-6.801
		C383.535,364.877,386.585,367.926,386.585,371.678z M391.012,343.391l-1.425,3.563c-0.294,0.737-1.178,1.115-1.913,0.82
		l-20.563-8.228c-0.562-0.224-0.925-0.761-0.925-1.366c0-0.188,0.035-0.375,0.105-0.547l1.425-3.563
		c0.226-0.563,0.761-0.927,1.369-0.927c0.189,0,0.373,0.035,0.546,0.106l20.562,8.224c0.563,0.226,0.926,0.763,0.926,1.368
		C391.118,343.032,391.083,343.217,391.012,343.391z"/>
	<path d="M362.786,352.411h2.266v2.266h-2.266V352.411z"/>
	<path d="M358.253,352.411h2.267v2.266h-2.267V352.411z"/>
	<path d="M353.72,352.411h2.266v2.266h-2.266V352.411z"/>
</g>
</svg>
