<?xml version="1.0" encoding="utf-8"?>
<!-- Generator: Adobe Illustrator 16.0.0, SVG Export Plug-In . SVG Version: 6.00 Build 0)  -->
<!DOCTYPE svg PUBLIC "-//W3C//DTD SVG 1.1//EN" "http://www.w3.org/Graphics/SVG/1.1/DTD/svg11.dtd">
<svg version="1.1" id="Layer_3" xmlns="http://www.w3.org/2000/svg" xmlns:xlink="http://www.w3.org/1999/xlink" x="0px" y="0px"
	 width="512px" height="512px" viewBox="0 0 512 512" enable-background="new 0 0 512 512" xml:space="preserve">
<rect x="88" y="295.5" fill="#F0BC5E" stroke="#000000" stroke-miterlimit="10" width="96" height="48.5"/>
<rect x="398" y="86.5" fill="#F0BC5E" stroke="#000000" stroke-miterlimit="10" width="18" height="17.5"/>
<rect x="327.5" y="24.75" fill="#F0BC5E" stroke="#000000" stroke-miterlimit="10" width="160.5" height="17.5"/>
<path fill="#F0BC5E" stroke="#000000" stroke-miterlimit="10" d="M221.631,160.703c-8.467-10.946-23.268-15.336-30.953-26.953H143.5
	v49.75h81.241v-21.12C223.629,162.357,222.525,161.859,221.631,160.703z"/>
<rect x="247" y="360" fill="#F0BC5E" stroke="#000000" stroke-miterlimit="10" width="18" height="17.5"/>
<path d="M496,8H320c-4.424,0-8,3.584-8,8v32c0,4.416,3.576,8,8,8h12.688l29.656,29.656C363.84,87.16,365.872,88,368,88h16v360
	c0,4.416-3.584,8-8,8s-8-3.584-8-8v-16c0-48.52-39.48-88-88-88h-32v-80h8c4.424,0,8-3.584,8-8v-32c0-4.416-3.576-8-8-8h-8.408
	C243.48,162.392,198.64,120,144,120h-16c-54.64,0-99.48,42.392-103.592,96H16c-4.424,0-8,3.584-8,8v32c0,4.416,3.576,8,8,8h8v144h-8
	c-4.424,0-8,3.576-8,8v32c0,4.424,3.576,8,8,8h12.448C25.696,460.728,24,466.144,24,472c0,17.648,14.352,32,32,32s32-14.352,32-32
	c0-5.856-1.696-11.272-4.448-16h104.896c-2.752,4.728-4.448,10.144-4.448,16c0,17.648,14.352,32,32,32s32-14.352,32-32
	c0-5.856-1.696-11.272-4.448-16H256c4.424,0,8-3.576,8-8v-32c0-4.424-3.576-8-8-8h-8v-16h32c22.057,0,40,17.944,40,40v16
	c0,30.872,25.128,56,56,56s56-25.128,56-56V88h16c2.128,0,4.16-0.84,5.656-2.344L483.312,56H496c4.424,0,8-3.584,8-8V16
	C504,11.584,500.424,8,496,8z M222.344,184H144v-48C178.128,136,207.752,155.536,222.344,184z M128,136v56c0,4.416,3.576,8,8,8
	h92.664c1.464,5.16,2.48,10.504,2.976,16H40.36C44.416,171.208,82.168,136,128,136z M24,232h8h208h8v16h-8H32h-8V232z M72,472
	c0,8.824-7.176,16-16,16s-16-7.176-16-16s7.176-16,16-16S72,463.176,72,472z M232,472c0,8.824-7.176,16-16,16s-16-7.176-16-16
	s7.176-16,16-16S232,463.176,232,472z M248,440H24v-16h8h208h8V440z M40,408V264h192v144H40z M248,360h16v16h-16V360z M376,488
	c-22.057,0-40-17.944-40-40v-16c0-30.872-25.128-56-56-56v-16c39.704,0,72,32.296,72,72v16c0,13.232,10.768,24,24,24
	s24-10.768,24-24V120h16v328C416,470.056,398.057,488,376,488z M416,104h-16V88h16V104z M444.688,72h-73.376l-16-16h105.376
	L444.688,72z M488,40H328V24h160V40z"/>
<path d="M192,280H80c-4.424,0-8,3.576-8,8v64c0,4.424,3.576,8,8,8h112c4.424,0,8-3.576,8-8v-64C200,283.576,196.424,280,192,280z
	 M184,344H88v-48h96V344z"/>
<path d="M104,312h64v16h-64V312z"/>
<rect x="24" y="231.5" fill="#F0BC5E" stroke="#000000" stroke-miterlimit="10" width="224" height="16.5"/>
<rect x="24" y="423.5" fill="#F0BC5E" stroke="#000000" stroke-miterlimit="10" width="224" height="16.5"/>
</svg>
