<svg height="496pt" viewBox="0 -24 496 496" width="496pt" xmlns="http://www.w3.org/2000/svg"><path d="m264.960938 119.03125c-9.050782-9.078125-24.871094-9.078125-33.921876 0l-11.328124-11.3125c7.554687-7.550781 17.59375-11.71875 28.289062-11.71875s20.734375 4.167969 28.289062 11.71875zm0 0"/><path d="m456 192v16c4.414062 0 8 3.585938 8 8v208c0 4.414062-3.585938 8-8 8h-416c-4.414062 0-8-3.585938-8-8v-208c0-4.414062 3.585938-8 8-8v-16c-13.230469 0-24 10.769531-24 24v208c0 13.230469 10.769531 24 24 24h416c13.230469 0 24-10.769531 24-24v-208c0-13.230469-10.769531-24-24-24zm0 0"/><path d="m80 320c0 22.054688 17.945312 40 40 40s40-17.945312 40-40-17.945312-40-40-40-40 17.945312-40 40zm64 0c0 13.230469-10.769531 24-24 24s-24-10.769531-24-24c0-10.414062 6.710938-19.214844 16-22.527344v22.527344h16v-22.527344c9.289062 3.3125 16 12.113282 16 22.527344zm0 0"/><path d="m192 352h240c8.824219 0 16-7.175781 16-16v-96c0-8.824219-7.175781-16-16-16h-240c-8.824219 0-16 7.175781-16 16v96c0 8.824219 7.175781 16 16 16zm0-112h240l.015625 96h-16.015625v-80h-16v80h-16v-24h-16v24h-16v-48h-16v48h-16v-80h-16v80h-16v-32h-16v32h-16v-80h-16v80h-16v-48h-16v48h-16zm0 0"/><path d="m48 264h16v16h-16zm0 0"/><path d="m48 296h16v16h-16zm0 0"/><path d="m48 328h16v16h-16zm0 0"/><path d="m144 224h16v16h-16zm0 0"/><path d="m48 224h80v16h-80zm0 0"/><path d="m287.601562 96.398438c-10.585937-10.566407-24.648437-16.398438-39.601562-16.398438s-29.015625 5.832031-39.601562 16.398438l-11.308594-11.308594c13.605468-13.601563 31.6875-21.089844 50.910156-21.089844s37.304688 7.488281 50.910156 21.089844zm0 0"/><path d="m310.222656 73.777344c-16.621094-16.617188-38.71875-25.777344-62.222656-25.777344s-45.601562 9.160156-62.222656 25.777344l-11.3125-11.3125c19.640625-19.640625 45.75-30.464844 73.535156-30.464844s53.894531 10.824219 73.535156 30.464844zm0 0"/><path d="m332.847656 51.152344c-22.664062-22.664063-52.792968-35.152344-84.847656-35.152344s-62.183594 12.488281-84.847656 35.152344l-11.3125-11.3125c25.679687-25.6875 59.832031-39.839844 96.160156-39.839844s70.480469 14.152344 96.167969 39.832031zm0 0"/><path d="m240 128h16v16h-16zm0 0"/><path d="m480 208h-464c-8.824219 0-16-7.175781-16-16v-16c0-8.824219 7.175781-16 16-16h464c8.824219 0 16 7.175781 16 16v16c0 8.824219-7.175781 16-16 16zm0 0" fill="#f0bc5e"/><path d="m48 360h16v16h-16zm0 0"/><g fill="#f0bc5e"><path d="m224 416h-16c-8.824219 0-16-7.175781-16-16v-16c0-8.824219 7.175781-16 16-16h16c8.824219 0 16 7.175781 16 16v16c0 8.824219-7.175781 16-16 16zm0 0"/><path d="m288 416h-16c-8.824219 0-16-7.175781-16-16v-16c0-8.824219 7.175781-16 16-16h16c8.824219 0 16 7.175781 16 16v16c0 8.824219-7.175781 16-16 16zm0 0"/><path d="m352 416h-16c-8.824219 0-16-7.175781-16-16v-16c0-8.824219 7.175781-16 16-16h16c8.824219 0 16 7.175781 16 16v16c0 8.824219-7.175781 16-16 16zm0 0"/><path d="m416 416h-16c-8.824219 0-16-7.175781-16-16v-16c0-8.824219 7.175781-16 16-16h16c8.824219 0 16 7.175781 16 16v16c0 8.824219-7.175781 16-16 16zm0 0"/></g></svg>