<?xml version="1.0" encoding="utf-8"?>
<!-- Generator: Adobe Illustrator 19.2.0, SVG Export Plug-In . SVG Version: 6.00 Build 0)  -->
<svg version="1.1" id="Layer_1" xmlns="http://www.w3.org/2000/svg" xmlns:xlink="http://www.w3.org/1999/xlink" x="0px" y="0px"
	 viewBox="0 0 512 512" style="enable-background:new 0 0 512 512;" xml:space="preserve">
<style type="text/css">
	.st0{fill:#FFC857;}
</style>
<path id="XMLID_1661_" d="M471.4,313c0-16.5-13.5-30-30-30h-24.7l-11.5-41.3c-4.7-16.7-19.2-28.7-36.2-30.5c2.2-1.9,3.6-4.6,3.6-7.6
	v-74.1l85.6-34c3.8-1.5,6.3-5.2,6.3-9.3s-2.5-7.8-6.3-9.3l-69.9-27.7c-5.1-2-10.9,0.5-13,5.6s0.5,10.9,5.6,13l46.5,18.5l-164.9,65.4
	L97.7,86.2l164.9-65.4l43.9,17.4c5.1,2,10.9-0.5,13-5.6c2-5.1-0.5-10.9-5.6-13L266.2,0.7c-2.4-0.9-5-0.9-7.4,0l-192,76.2
	c-3.8,1.5-6.3,5.2-6.3,9.3v57.7c-11.6,4.1-20,15.2-20,28.3v44c0,5.5,4.5,10,10,10h40c5.5,0,10-4.5,10-10v-44c0-13-8.4-24.2-20-28.3
	v-42.9l72,28.6v74.1c0,3,1.3,5.8,3.5,7.6c-17,1.7-31.5,13.8-36.2,30.4L108.3,283H83.7c-16.5,0-30,13.5-30,30
	c0,12.9,8.1,23.9,19.6,28.1c-7.9,9.1-12.7,21-12.7,34v59.4c0,16.2,13.2,29.4,29.4,29.4h12.8v22.5c0,14.1,11.5,25.6,25.6,25.6h18.7
	c14.1,0,25.6-11.5,25.6-25.6v-22.5h49.8c5.5,0,10-4.5,10-10s-4.5-10-10-10H89.9c-5.2,0-9.4-4.2-9.4-9.4v-59.4
	c0-17.7,14.4-32.1,32.1-32.1h299.7c17.7,0,32.1,14.4,32.1,32.1v59.4c0,5.2-4.2,9.4-9.4,9.4H302.5c-5.5,0-10,4.5-10,10s4.5,10,10,10
	h50v22.5c0,14.1,11.5,25.6,25.6,25.6h18.7c14.1,0,25.6-11.5,25.6-25.6v-22.5h12.8c16.2,0,29.4-13.2,29.4-29.4v-59.4
	c0-13-4.8-24.9-12.7-34C463.3,336.8,471.4,325.8,471.4,313z M80.6,206.1h-20v-34c0-5.5,4.5-10,10-10s10,4.5,10,10V206.1z
	 M152.7,463.9v22.5c0,3.1-2.5,5.6-5.6,5.6h-18.7c-3.1,0-5.6-2.5-5.6-5.6v-22.5H152.7z M402.4,486.4c0,3.1-2.5,5.6-5.6,5.6h-18.7
	c-3.1,0-5.6-2.5-5.6-5.6v-22.5h30L402.4,486.4L402.4,486.4z M441.4,303c5.5,0,10,4.5,10,10s-4.5,10-10,10h-13.5l-5.6-20H441.4z
	 M386,247l21.2,75.9H283.8l90-90C379.6,235.6,384.2,240.7,386,247z M187.7,323l70.6-70.6l0.5,0.2c1.2,0.5,2.4,0.7,3.7,0.7
	s2.5-0.2,3.7-0.7l54.3-21.6h27l-92,92H187.7z M258.8,171.6c1.2,0.5,2.4,0.7,3.7,0.7s2.5-0.2,3.7-0.7l86.3-34.3v59.4l-37.8,15
	c0,0,0,0,0,0l-52.2,20.7l-90-35.7v-59.4L258.8,171.6z M139.2,247c2.7-9.5,11.4-16.1,21.2-16.1h44.1l33.6,13.3l-78.6,78.6
	c0,0,0,0,0,0h-41.6L139.2,247z"/>
<path id="XMLID_1670_" d="M262.6,443.9c-2.6,0-5.2,1.1-7.1,2.9c-1.9,1.9-2.9,4.4-2.9,7.1c0,2.6,1.1,5.2,2.9,7.1s4.4,2.9,7.1,2.9
	s5.2-1.1,7.1-2.9c1.9-1.9,2.9-4.4,2.9-7.1c0-2.6-1.1-5.2-2.9-7.1C267.8,445,265.2,443.9,262.6,443.9z"/>
<path id="XMLID_1674_" class="st0" d="M90.2,393.4c0,17.6,14.3,31.9,31.9,31.9s31.9-14.3,31.9-31.9s-14.3-31.9-31.9-31.9
	S90.2,375.9,90.2,393.4z M133.9,393.4c0,6.5-5.3,11.9-11.9,11.9s-11.9-5.3-11.9-11.9s5.3-11.9,11.9-11.9S133.9,386.9,133.9,393.4z"
	/>
<path id="XMLID_1685_" class="st0" d="M434.9,393.4c0-17.6-14.3-31.9-31.9-31.9s-31.9,14.3-31.9,31.9s14.3,31.9,31.9,31.9
	S434.9,411,434.9,393.4z M391.2,393.4c0-6.5,5.3-11.9,11.9-11.9s11.9,5.3,11.9,11.9s-5.3,11.9-11.9,11.9S391.2,400,391.2,393.4z"/>
<path id="XMLID_1691_" d="M327.1,411.7c3.4-4.3,4.7-9.8,3.4-15.2l-5-21.7c-1.9-8.2-9.1-13.9-17.4-13.9H217
	c-8.4,0-15.6,5.7-17.4,13.9l-5,21.7c-1.2,5.3,0,10.9,3.4,15.2s8.5,6.7,14,6.7h101.1C318.6,418.4,323.7,416,327.1,411.7z
	 M214.6,398.4l4-17.5h87.9l4,17.5H214.6z"/>
<path id="XMLID_1692_" class="st0" d="M347.1,59.8c9,0,16.3-7.3,16.3-16.3s-7.3-16.3-16.3-16.3h0c-9,0-16.3,7.3-16.3,16.3
	S338.1,59.8,347.1,59.8z"/>
<path class="st0" d="M80.6,300.3h19l-5.6,20H80.6c-5.5,0-10-4.5-10-10S75.1,300.3,80.6,300.3z"/>
<path class="st0" d="M441.4,303c5.5,0,10,4.5,10,10s-4.5,10-10,10h-13.5l-5.6-20H441.4z"/>
</svg>
