<?xml version="1.0" encoding="utf-8"?>
<!-- Generator: Adobe Illustrator 16.0.0, SVG Export Plug-In . SVG Version: 6.00 Build 0)  -->
<!DOCTYPE svg PUBLIC "-//W3C//DTD SVG 1.1//EN" "http://www.w3.org/Graphics/SVG/1.1/DTD/svg11.dtd">
<svg version="1.1" id="Capa_1" xmlns="http://www.w3.org/2000/svg" xmlns:xlink="http://www.w3.org/1999/xlink" x="0px" y="0px"
	 width="200px" height="200px" viewBox="148 148 200 200" enable-background="new 148 148 200 200" xml:space="preserve">
<path d="M255.48,203.729c-3.553-3.564-9.764-3.564-13.317,0l-4.447-4.441c2.966-2.964,6.907-4.601,11.105-4.601
	c4.198,0,8.14,1.637,11.105,4.601L255.48,203.729z"/>
<path d="M330.477,232.374v6.281c1.733,0,3.141,1.408,3.141,3.141v81.656c0,1.732-1.407,3.141-3.141,3.141h-163.31
	c-1.733,0-3.141-1.408-3.141-3.141v-81.656c0-1.732,1.408-3.141,3.141-3.141v-6.281c-5.194,0-9.421,4.228-9.421,9.421v81.656
	c0,5.194,4.228,9.422,9.421,9.422h163.31c5.193,0,9.423-4.228,9.423-9.422v-81.656C339.899,236.602,335.67,232.374,330.477,232.374z
	"/>
<path d="M182.87,282.623c0,8.659,7.044,15.703,15.703,15.703c8.658,0,15.703-7.044,15.703-15.703
	c0-8.657-7.045-15.703-15.703-15.703C189.915,266.92,182.87,273.966,182.87,282.623z M207.995,282.623
	c0,5.193-4.228,9.421-9.422,9.421c-5.194,0-9.422-4.228-9.422-9.421c0-4.089,2.635-7.543,6.281-8.844v8.844h6.281v-8.844
	C205.36,275.08,207.995,278.534,207.995,282.623z"/>
<path d="M226.838,295.186h94.218c3.465,0,6.28-2.816,6.28-6.281v-37.687c0-3.465-2.815-6.282-6.28-6.282h-94.218
	c-3.464,0-6.281,2.817-6.281,6.282v37.687C220.557,292.369,223.374,295.186,226.838,295.186z M226.838,251.218h94.218l0.006,37.687
	h-6.287v-31.406h-6.28v31.406h-6.282v-9.421h-6.28v9.421h-6.282v-18.844h-6.281v18.844h-6.281v-31.406h-6.281v31.406h-6.28v-12.563
	h-6.281v12.563h-6.281v-31.406h-6.281v31.406H239.4v-18.844h-6.281v18.844h-6.281V251.218z"/>
<path d="M170.308,260.639h6.281v6.281h-6.281V260.639z"/>
<path d="M170.308,273.202h6.281v6.281h-6.281V273.202z"/>
<path d="M170.308,285.764h6.281v6.28h-6.281V285.764z"/>
<path d="M207.995,244.936h6.281v6.282h-6.281V244.936z"/>
<path d="M170.308,244.936h31.406v6.282h-31.406V244.936z"/>
<path d="M264.368,194.843c-4.155-4.147-9.676-6.438-15.546-6.438s-11.391,2.29-15.547,6.438l-4.439-4.439
	c5.341-5.339,12.439-8.279,19.986-8.279c7.546,0,14.645,2.94,19.985,8.279L264.368,194.843z"/>
<path d="M273.249,185.963c-6.525-6.523-15.199-10.119-24.427-10.119c-9.227,0-17.902,3.596-24.427,10.119l-4.441-4.441
	c7.71-7.71,17.961-11.96,28.869-11.96c10.907,0,21.157,4.25,28.868,11.96L273.249,185.963z"/>
<path d="M282.131,177.08c-8.896-8.896-20.725-13.799-33.309-13.799s-24.412,4.903-33.309,13.799l-4.441-4.44
	c10.081-10.085,23.488-15.64,37.75-15.64c14.261,0,27.669,5.555,37.753,15.637L282.131,177.08z"/>
<path d="M245.682,207.25h6.281v6.281h-6.281V207.25z"/>
<path fill="#F0BC5E" d="M339.899,238.655H157.745c-3.464,0-6.281-2.817-6.281-6.281v-6.281c0-3.465,2.817-6.282,6.281-6.282h182.154
	c3.463,0,6.281,2.817,6.281,6.282v6.281C346.181,235.838,343.362,238.655,339.899,238.655z"/>
<path d="M170.308,298.326h6.281v6.281h-6.281V298.326z"/>
<g>
	<path fill="#F0BC5E" d="M239.4,320.31h-6.281c-3.464,0-6.281-2.816-6.281-6.281v-6.28c0-3.465,2.817-6.281,6.281-6.281h6.281
		c3.464,0,6.281,2.816,6.281,6.281v6.28C245.682,317.493,242.864,320.31,239.4,320.31z"/>
	<path fill="#F0BC5E" d="M264.525,320.31h-6.281c-3.465,0-6.281-2.816-6.281-6.281v-6.28c0-3.465,2.816-6.281,6.281-6.281h6.281
		c3.464,0,6.28,2.816,6.28,6.281v6.28C270.806,317.493,267.989,320.31,264.525,320.31z"/>
	<path fill="#F0BC5E" d="M289.649,320.31h-6.281c-3.464,0-6.281-2.816-6.281-6.281v-6.28c0-3.465,2.817-6.281,6.281-6.281h6.281
		c3.464,0,6.282,2.816,6.282,6.281v6.28C295.932,317.493,293.113,320.31,289.649,320.31z"/>
	<path fill="#F0BC5E" d="M314.774,320.31h-6.28c-3.465,0-6.282-2.816-6.282-6.281v-6.28c0-3.465,2.817-6.281,6.282-6.281h6.28
		c3.464,0,6.281,2.816,6.281,6.281v6.28C321.056,317.493,318.238,320.31,314.774,320.31z"/>
</g>
</svg>
