<svg height="496pt" viewBox="0 -40 496 496" width="496pt" xmlns="http://www.w3.org/2000/svg"><path d="m441.367188 0c-8.175782 0-15.871094 3.183594-21.65625 8.976562l-143.023438 143.023438h-35.101562l-17.394532 78.265625 15.617188 3.46875 14.605468-65.734375h19.171876l14.605468 65.734375 15.617188-3.46875-3.410156-15.355469 155.601562-155.597656v68.6875h16v-97.367188c0-16.898437-13.734375-30.632812-30.632812-30.632812zm-145.078126 196.398438-7.519531-33.855469 142.253907-142.253907c2.769531-2.769531 6.441406-4.289062 10.34375-4.289062 8.074218 0 14.632812 6.558594 14.632812 14.632812v6.054688zm0 0"/><path d="m208 224h112v56h-112zm0 0" fill="#f0bc5e"/><path d="m181.207031 368h165.578125v16h-165.578125zm0 0"/><path d="m192 272v-104c0-22.054688-17.945312-40-40-40h-77.769531c-19 0-35.496094 13.519531-39.222657 32.152344l-10.207031 51.03125-6.984375 4.65625c-11.152344 7.441406-17.816406 19.878906-17.816406 33.289062v110.871094c0 13.230469 10.769531 24 24 24h66.785156v-16h-66.785156c-4.40625 0-8-3.59375-8-8v-8h74.726562v-16h-26.726562v-104h65.886719l16-8h30.113281v32h-32v16h32v72h5.207031v8h165.578125v-16h-154.785156v-48h288v48h-42.792969v16h42.792969v8c0 4.40625-3.59375 8-8 8h-34.792969v16h34.792969c13.230469 0 24-10.769531 24-24v-88zm-176 64v-86.871094c0-8.039062 4-15.503906 10.6875-19.96875l12.503906-8.335937 11.503906-57.519531c2.242188-11.191407 12.136719-19.304688 23.535157-19.304688h77.769531c10.414062 0 19.214844 6.710938 22.527344 16h-96.496094c-7.101562 0-13.429688 4.777344-15.382812 11.601562l-14.34375 50.199219-.28125 114.199219zm126.113281-128-16 8h-59.503906l11.429687-40h97.960938v32zm0 0"/><path d="m136 416c-30.878906 0-56-25.121094-56-56s25.121094-56 56-56 56 25.121094 56 56-25.121094 56-56 56zm0-72c-8.824219 0-16 7.175781-16 16s7.175781 16 16 16 16-7.175781 16-16-7.175781-16-16-16zm0 0" fill="#f0bc5e"/><path d="m136 384c-13.230469 0-24-10.769531-24-24s10.769531-24 24-24 24 10.769531 24 24-10.769531 24-24 24zm0-32c-4.40625 0-8 3.59375-8 8s3.59375 8 8 8 8-3.59375 8-8-3.59375-8-8-8zm0 0"/><path d="m392 416c-30.878906 0-56-25.121094-56-56s25.121094-56 56-56 56 25.121094 56 56-25.121094 56-56 56zm0-72c-8.824219 0-16 7.175781-16 16s7.175781 16 16 16 16-7.175781 16-16-7.175781-16-16-16zm0 0" fill="#f0bc5e"/><path d="m392 384c-13.230469 0-24-10.769531-24-24s10.769531-24 24-24 24 10.769531 24 24-10.769531 24-24 24zm0-32c-4.40625 0-8 3.59375-8 8s3.59375 8 8 8 8-3.59375 8-8-3.59375-8-8-8zm0 0"/><path d="m457.367188 256h-2.742188c-16.890625 0-30.625-13.734375-30.625-30.632812v-9.367188h16v9.367188c0 8.074218 6.558594 14.632812 14.632812 14.632812h2.742188c8.066406 0 14.625-6.558594 14.625-14.632812 0-3.902344-1.519531-7.574219-4.289062-10.34375l-11.710938-11.710938v-27.3125h16v20.6875l7.023438 7.023438c5.792968 5.792968 8.976562 13.480468 8.976562 21.65625 0 16.898437-13.734375 30.632812-30.632812 30.632812zm0 0"/><path d="m464 184c-17.648438 0-32-14.351562-32-32s14.351562-32 32-32 32 14.351562 32 32-14.351562 32-32 32zm0 0" fill="#f0bc5e"/><path d="m208 304h16v16h-16zm0 0"/><path d="m240 304h16v16h-16zm0 0"/><path d="m272 304h16v16h-16zm0 0"/></svg>