<?xml version="1.0" encoding="utf-8"?>
<!-- Generator: Adobe Illustrator 16.0.0, SVG Export Plug-In . SVG Version: 6.00 Build 0)  -->
<!DOCTYPE svg PUBLIC "-//W3C//DTD SVG 1.1//EN" "http://www.w3.org/Graphics/SVG/1.1/DTD/svg11.dtd">
<svg version="1.1" id="Capa_1" xmlns="http://www.w3.org/2000/svg" xmlns:xlink="http://www.w3.org/1999/xlink" x="0px" y="0px"
	 width="560px" height="560px" viewBox="200 0 560 560" enable-background="new 200 0 560 560" xml:space="preserve">
<g>
	<circle fill="#F0BC5E" cx="326.452" cy="81.29" r="63.226"/>
	<rect x="254.193" y="270.968" fill="#F0BC5E" width="252.903" height="108.388"/>
</g>
<g>
	<path d="M760,243.871c0-34.865-28.37-63.226-63.226-63.226h-117.42v18.064H561.29v-18.064h-99.354v-18.064h36.13
		c14.938,0,27.097-12.157,27.097-27.097V27.097C525.161,12.157,513.004,0,498.063,0H263.226c-14.939,0-27.097,12.157-27.097,27.097
		v108.387c0,14.939,12.158,27.097,27.097,27.097h36.129v18.064H200v72.258h18.064v289.033h18.064V560h18.064v-18.064h252.903V560
		h18.064v-18.064h18.063V289.032h36.13h9.031h9.032v126.451c0,39.842,32.417,72.259,72.259,72.259
		c39.841,0,72.258-32.417,72.258-72.259V289.032H760V243.871z M254.193,135.484V27.097c0-4.977,4.047-9.032,9.032-9.032h234.839
		c4.984,0,9.031,4.056,9.031,9.032v108.387c0,4.977-4.047,9.032-9.031,9.032H263.226C258.24,144.516,254.193,140.46,254.193,135.484
		z M317.419,162.581h126.452v18.064H317.419V162.581z M236.129,523.871V252.903h252.903v-18.064H218.064V198.71h325.161v36.129
		h-36.129v18.064h18.064v270.968H236.129z M543.226,270.968v-18.064h18.064v-36.129h18.064v54.193H543.226z M723.871,299.69
		l-37.899,7.577l3.551,17.713l34.35-6.864v17.712l-37.899,7.578l3.55,17.713l34.351-6.874v17.712l-37.899,7.578l3.551,17.713
		l34.35-6.874v17.713l-37.899,7.577l3.55,17.713l33.166-6.63c-5.201,24.486-26.987,42.931-53.01,42.931
		c-26.021,0-47.808-18.443-53.002-42.938l33.167,6.63l3.55-17.713l-37.908-7.578v-17.703l34.358,6.874l3.55-17.713l-37.908-7.587
		v-17.703l34.358,6.874l3.55-17.713l-37.908-7.587v-17.703l34.358,6.873l3.55-17.712l-37.908-7.587v-10.658h108.388v10.657H723.871z
		 M741.936,270.968H597.419V198.71h99.355c24.9,0,45.16,20.26,45.16,45.162L741.936,270.968L741.936,270.968z"/>
	<path d="M326.452,36.129c-24.902,0-45.161,20.259-45.161,45.162c0,24.902,20.259,45.161,45.161,45.161
		c24.902,0,45.161-20.259,45.161-45.161C371.613,56.388,351.354,36.129,326.452,36.129z M326.452,108.387
		c-14.939,0-27.097-12.158-27.097-27.097s12.157-27.097,27.097-27.097s27.097,12.158,27.097,27.097
		C353.548,96.229,341.391,108.387,326.452,108.387z"/>
	<polygon points="386.064,83.097 375.226,97.548 413.767,126.452 489.032,126.452 489.032,108.387 419.782,108.387 	"/>
	<rect x="425.807" y="72.258" width="63.227" height="18.065"/>
	<rect x="470.968" y="343.226" width="18.064" height="18.064"/>
	<rect x="362.581" y="343.226" width="90.323" height="18.064"/>
</g>
</svg>
