<?xml version="1.0" encoding="utf-8"?>
<!-- Generator: Adobe Illustrator 16.0.0, SVG Export Plug-In . SVG Version: 6.00 Build 0)  -->
<!DOCTYPE svg PUBLIC "-//W3C//DTD SVG 1.1//EN" "http://www.w3.org/Graphics/SVG/1.1/DTD/svg11.dtd">
<svg version="1.1" id="Layer_1_1_" xmlns="http://www.w3.org/2000/svg" xmlns:xlink="http://www.w3.org/1999/xlink" x="0px" y="0px"
	 width="512px" height="512px" viewBox="0 0 512 512" enable-background="new 0 0 512 512" xml:space="preserve">
<g>
	<path fill="#FFFFFF" stroke="#000000" stroke-width="20" stroke-miterlimit="10" d="M492.857,449.576
		c4.79,9.756-0.333,22.096-11.45,27.557l-35.229,17.308c-11.119,5.463-24.02,1.979-28.812-7.775L209.786,64.136
		c-4.792-9.757,0.333-22.095,11.45-27.556l35.229-17.307c11.119-5.462,24.018-1.982,28.813,7.776L492.857,449.576z"/>
	<path fill="#FFFFFF" stroke="#000000" stroke-width="20" stroke-miterlimit="10" d="M476.482,413.069
		c9.821,0.006,17.781,10.053,17.771,22.439l-0.024,39.248c-0.007,12.391-7.98,22.424-17.802,22.422l-425.42-0.264
		c-9.823-0.008-17.781-10.053-17.772-22.44l0.024-39.25c0.009-12.388,7.979-22.422,17.801-22.418L476.482,413.069z"/>
	<path fill="#FFFFFF" stroke="#000000" stroke-width="20" stroke-miterlimit="10" d="M19.142,447.707
		c-4.791,9.757,0.333,22.096,11.45,27.557l35.229,17.309c11.118,5.462,24.017,1.978,28.812-7.777L302.214,62.267
		c4.794-9.757-0.333-22.095-11.45-27.556l-35.228-17.307c-11.119-5.462-24.019-1.981-28.812,7.776L19.142,447.707z"/>
	<circle fill="#F0BC5E" cx="251.876" cy="69.091" r="21.565"/>
	<circle fill="#F0BC5E" cx="66.84" cy="442.904" r="21.566"/>
	<circle fill="#F0BC5E" cx="435.044" cy="454.118" r="21.565"/>
</g>
</svg>
