<?xml version="1.0" encoding="utf-8"?>
<!-- Generator: Adobe Illustrator 16.0.0, SVG Export Plug-In . SVG Version: 6.00 Build 0)  -->
<!DOCTYPE svg PUBLIC "-//W3C//DTD SVG 1.1//EN" "http://www.w3.org/Graphics/SVG/1.1/DTD/svg11.dtd">
<svg version="1.1" id="Capa_1" xmlns="http://www.w3.org/2000/svg" xmlns:xlink="http://www.w3.org/1999/xlink" x="0px" y="0px"
	 width="480px" height="480px" viewBox="0 0 480 480" enable-background="new 0 0 480 480" xml:space="preserve">
<path d="M112.064,399.929c-13.251,0-23.996,10.744-23.996,23.995c0,13.252,10.744,23.996,23.996,23.996s23.996-10.744,23.996-23.996
	C136.06,410.673,125.316,399.929,112.064,399.929z M112.064,431.923c-4.417,0-7.999-3.581-7.999-7.999
	c0-4.417,3.582-7.998,7.999-7.998s7.999,3.581,7.999,7.998C120.063,428.342,116.481,431.923,112.064,431.923z"/>
<path d="M344.023,399.929c-13.252,0-23.996,10.744-23.996,23.995c0,13.252,10.744,23.996,23.996,23.996
	c13.251,0,23.995-10.744,23.995-23.996C368.019,410.673,357.274,399.929,344.023,399.929z M344.023,431.923
	c-4.418,0-7.999-3.581-7.999-7.999c0-4.417,3.581-7.998,7.999-7.998c4.416,0,7.998,3.581,7.998,7.998
	C352.021,428.342,348.439,431.923,344.023,431.923z"/>
<rect x="16.082" y="175.969" fill="#F0BC5E" stroke="#000000" stroke-miterlimit="10" width="399.928" height="47.991"/>
<path fill="#F0BC5E" stroke="#000000" stroke-miterlimit="10" d="M16.082,343.969v47.991h73.865
	c-0.928-2.967,0.579-6.683,4.553-6.46c1.293,0.072,2.586,0.093,3.877,0.079c8.9-7.048,20.616-3.987,31.133-0.23
	c2.526,0.601,5.032,1.505,7.514,2.834c1.573,0.843,2.294,2.277,2.377,3.777h182.068c-0.209-1.334,0.187-2.766,1.496-3.995
	c11.349-10.656,32.035-12.329,45.059-3.782c2.793,1.833,2.984,5.641,1.109,7.777h46.877v-47.991H16.082z"/>
<rect x="96.082" y="14.969" fill="#F0BC5E" stroke="#000000" stroke-miterlimit="10" width="164.418" height="47.991"/>
<path d="M458.292,32.459c-4.559-5.366-11.244-8.463-18.286-8.463h-55.99c-13.252,0-23.996,10.744-23.996,23.996v111.98H304.03
	V71.987c0-4.417-3.581-7.999-7.999-7.999h-23.996V7.999c0-4.417-3.58-7.999-7.998-7.999H88.069c-4.417,0-7.999,3.582-7.999,7.999
	v55.99H56.074c-4.417,0-7.999,3.581-7.999,7.999v87.984H8.083c-4.417,0-7.999,3.581-7.999,7.999v63.988
	c0,4.417,3.582,7.999,7.999,7.999h31.994v87.984H8.083c-4.417,0-7.999,3.581-7.999,7.999v63.988c0,4.417,3.582,7.998,7.999,7.998
	h50.389c-6.877,22.934,1.59,47.703,21.067,61.63c19.477,13.924,45.652,13.924,65.129,0c19.477-13.927,27.944-38.696,21.066-61.63
	h124.697c-6.879,22.934,1.589,47.703,21.066,61.63c19.477,13.924,45.651,13.924,65.129,0c19.477-13.927,27.943-38.696,21.066-61.63
	h26.315c4.417,0,7.998-3.581,7.998-7.998V335.94c0-4.418-3.581-7.999-7.998-7.999h-15.997v-87.984h15.997
	c4.417,0,7.998-3.581,7.998-7.999V167.97c0-4.417-3.581-7.999-7.998-7.999h-15.997V71.987h31.146
	c11.936,0.148,22.266-8.272,24.523-19.997C464.845,45.004,462.873,37.86,458.292,32.459z M96.067,47.991h103.981
	c4.417,0,7.999-3.581,7.999-7.999c0-4.417-3.582-7.999-7.999-7.999H96.067V15.997h159.972v15.997h-23.996
	c-4.417,0-7.999,3.582-7.999,7.999c0,4.417,3.582,7.999,7.999,7.999h23.996v15.998H96.067V47.991z M64.073,143.974h111.98
	c4.417,0,7.999-3.581,7.999-7.999c0-4.417-3.582-7.999-7.999-7.999H64.073V111.98h47.992c4.417,0,7.999-3.582,7.999-7.999
	s-3.582-7.999-7.999-7.999H64.073V79.986h223.96v79.986H64.073V143.974z M56.074,239.957h15.997v87.984H56.074V239.957z
	 M360.02,239.957v87.984h-23.995v-55.99c0-4.417-3.581-7.998-7.999-7.998H120.063c-4.417,0-7.999,3.581-7.999,7.998v55.99H88.069
	v-87.984H360.02z M320.027,327.941H128.062V279.95h191.966V327.941z M112.064,463.917c-22.086,0-39.993-17.907-39.993-39.993
	s17.907-39.992,39.993-39.992s39.993,17.906,39.993,39.992C152.03,446.002,134.143,463.89,112.064,463.917z M344.023,463.917
	c-22.086,0-39.993-17.907-39.993-39.993s17.907-39.992,39.993-39.992s39.992,17.906,39.992,39.992
	C383.988,446.002,366.102,463.89,344.023,463.917z M416.01,391.93h-26.108c-10.439-15.028-27.577-23.991-45.878-23.991
	c-18.302,0-35.439,8.963-45.879,23.991H157.943c-10.439-15.028-27.577-23.991-45.878-23.991s-35.439,8.963-45.878,23.991H16.082
	v-47.991H416.01V391.93z M392.015,327.941h-15.997v-87.984h15.997V327.941z M416.01,223.96H16.082v-47.991H416.01V223.96z
	 M439.158,55.99h-39.145c-4.418,0-7.999,3.581-7.999,7.999v95.983h-15.997V47.991c0-4.417,3.581-7.999,7.998-7.999h55.99
	c2.367,0,4.612,1.047,6.132,2.859c1.523,1.816,2.159,4.21,1.746,6.538C446.911,53.385,443.263,56.143,439.158,55.99z"/>
<path d="M152.057,95.983h-7.999c-4.417,0-7.999,3.582-7.999,7.999s3.582,7.999,7.999,7.999h7.999c4.417,0,7.999-3.582,7.999-7.999
	S156.475,95.983,152.057,95.983z"/>
</svg>
