<svg id="Layer_5" enable-background="new 0 0 64 64" height="512" viewBox="0 0 64 64" width="512" xmlns="http://www.w3.org/2000/svg"><path d="m39 39h-4c-1.103 0-2 .897-2 2v3h2v-3h4v3h2v-3c0-1.103-.897-2-2-2z"/><path d="m55 44v-3c0-1.103-.897-2-2-2h-4c-1.103 0-2 .897-2 2v3h2v-3h4v3z"/><path d="m54 63h-20c-1.657 0-3-1.343-3-3v-7h4.5c1.381 0 2.5-1.119 2.5-2.5 0-1.381-1.119-2.5-2.5-2.5h-4.5v-2c0-1.657 1.343-3 3-3h20c1.657 0 3 1.343 3 3v2h-4.5c-1.381 0-2.5 1.119-2.5 2.5 0 1.381 1.119 2.5 2.5 2.5h4.5v7c0 1.657-1.343 3-3 3z" fill="#f0bc5e"/><path d="m43.895 59.447-1.79-.894 2.277-4.553h-4l3.723-7.447 1.79.894-2.277 4.553h4z"/><path d="m63 1h-26.434c-3.193 0-6.223 1.384-8.313 3.796l-9.761 11.263-5.946.793c-5.442.725-9.546 5.413-9.546 10.903v3.429c-1.161.414-2 1.514-2 2.816v2c0 1.654 1.346 3 3 3h9.076v-2h-9.076c-.551 0-1-.448-1-1v-2c0-.552.449-1 1-1h8.256v-2h-7.256v-3.245c0-.516.049-1.022.134-1.517.875.482 1.848.762 2.866.762 3.309 0 6-2.691 6-6 0-.785-.173-1.544-.474-2.261l5.981-.797 10.258-11.836c1.71-1.974 4.189-3.106 6.801-3.106h24.434v2h-24.79c-1.685 0-3.302.715-4.438 1.962l-3.152 3.464c-2.69.977-4.62 3.551-4.62 6.574v1 9.756h2v-9.756h4 2 4.019c-1.261 1.674-2.019 3.748-2.019 6 0 3.466 1.774 6.524 4.46 8.318-3.286.712-6.225 2.372-8.511 4.682h-3.024v2h1.346c-2.047 2.816-3.271 6.267-3.27 10 0 2.757 2.244 5 5.001 5h5.498c1.93 0 3.5-1.57 3.5-3.5s-1.57-3.5-3.5-3.5h-6.5v2h6.5c.827 0 1.5.673 1.5 1.5s-.673 1.5-1.5 1.5h-5.499c-1.654 0-3-1.346-3.001-3-.002-8.274 6.727-15.035 15-15.071l.827-.004c.385.045.775.075 1.173.075.422 0 .836-.035 1.245-.086l.847-.004h.068c3.951 0 7.667 1.533 10.469 4.323 2.818 2.805 4.371 6.54 4.371 10.517v.25c0 .802-.312 1.555-.878 2.121-.567.567-1.32.879-2.121.879h-5.501c-.827 0-1.5-.673-1.5-1.5s.673-1.5 1.5-1.5h6.5v-2h-6.5c-1.93 0-3.5 1.57-3.5 3.5s1.57 3.5 3.5 3.5h5.501c1.335 0 2.591-.521 3.535-1.465s1.464-2.2 1.464-3.535v-.25c-.001-3.549-1.105-6.92-3.126-9.75h3.126zm-55 24c-.826 0-1.613-.264-2.282-.735 1.045-2.463 3.158-4.387 5.791-5.149.322.584.491 1.225.491 1.884 0 2.206-1.794 4-4 4zm24-9h-2-3.899c.464-2.279 2.485-4 4.899-4h1c1.103 0 2 .897 2 2s-.897 2-2 2zm3.444 0c.344-.591.556-1.268.556-2 0-2.206-1.794-4-4-4h-.289l1.54-1.692c.757-.831 1.836-1.308 2.959-1.308h9.79v7.202c-.646-.132-1.315-.202-2-.202-2.241 0-4.305.75-5.974 2zm9.66 15.915-2.145.01c-3.92-.514-6.959-3.867-6.959-7.925 0-4.411 3.589-8 8-8s8 3.589 8 8c0 4.036-3.007 7.374-6.896 7.915zm15.896 5.085h-2.792c-.058-.06-.109-.125-.168-.185-2.347-2.336-5.26-3.889-8.426-4.546 2.645-1.801 4.386-4.835 4.386-8.269 0-2.252-.758-4.326-2.019-6h9.019zm0-21h-11v.019c-.617-.465-1.284-.865-2-1.178v-7.841h13z"/><path d="m20 43c-4.962 0-9-4.037-9-9s4.038-9 9-9 9 4.037 9 9-4.038 9-9 9zm0-13c-2.206 0-4 1.795-4 4s1.794 4 4 4 4-1.795 4-4-1.794-4-4-4z" fill="#f0bc5e"/><path d="m20 39c-2.757 0-5-2.243-5-5s2.243-5 5-5 5 2.243 5 5-2.243 5-5 5zm0-8c-1.654 0-3 1.346-3 3s1.346 3 3 3 3-1.346 3-3-1.346-3-3-3z"/></svg>