<?xml version="1.0" encoding="utf-8"?>
<!-- Generator: Adobe Illustrator 16.0.0, SVG Export Plug-In . SVG Version: 6.00 Build 0)  -->
<!DOCTYPE svg PUBLIC "-//W3C//DTD SVG 1.1//EN" "http://www.w3.org/Graphics/SVG/1.1/DTD/svg11.dtd">
<svg version="1.1" id="Layer_1" xmlns="http://www.w3.org/2000/svg" xmlns:xlink="http://www.w3.org/1999/xlink" x="0px" y="0px"
	 width="560px" height="560px" viewBox="200 0 560 560" enable-background="new 200 0 560 560" xml:space="preserve">
<path fill="#F0BC5E" stroke="#000000" stroke-miterlimit="10" d="M489.934,393c0.08-0.174,0.146-0.348,0.249-0.523
	c4.397-7.505,11.051-12.825,17.965-17.833c7.029-8.578,14.859-16.568,22.317-24.679c0.17-0.186,0.354-0.338,0.535-0.486V314.01
	c-4.982,2.45-11.404,2.664-16.747,2.771c-7.074,0.141-14.094-0.357-21.082-1.459c-2.494-0.394-4.42-3.813-3.492-6.15
	c7.624-19.211,28.812-26.291,38.504-43.694c0.72-1.292,1.729-2.017,2.817-2.307v-7.233h-79.694c0.262,2.673-1.339,5.563-4.806,5.563
	h-9.054c-0.814,0.331-1.746,0.468-2.775,0.321c-1.04-0.148-2.085-0.245-3.134-0.321H420.5v7.926
	c4.375-0.273,8.77-0.995,13.053,0.351c4.994,1.568,7.48,6.806,5.848,11.635c-0.896,2.646-2.906,4.567-4.336,6.896
	c-1.937,3.151-3.169,6.758-4.436,10.224c-2.458,6.729-4.812,13.478-7.811,19.992c-0.456,0.988-1.312,1.682-2.317,2.073v43.24
	c11.693-0.613,23.271-2.713,35-2.838c2.258-0.024,4.186,1.55,4.821,3.671c2.682,8.953-0.661,19.168-4.556,28.329H489.934
	L489.934,393z"/>
<g>
	<g>
		<g>
			<path d="M760,194.194v-72.256h-54.192V67.741h-90.322v54.193h-270.97V67.741h-90.322v54.193H200v72.258h36.13v289.033H200v72.259
				h560v-72.259h-36.13V194.194H760L760,194.194z M741.935,501.291v36.13h-523.87v-36.13h18.065h487.74H741.935L741.935,501.291z
				 M705.806,483.227H254.193V194.194h451.613V483.227L705.806,483.227z M723.868,176.131H236.13h-18.065v-0.002v-36.128h54.193
				V85.806h54.192v54.195h307.098V85.806h54.192v54.195h54.192v36.13H723.868L723.868,176.131z"/>
			<rect x="371.613" y="85.806" width="216.775" height="18.065"/>
			<path d="M420.775,464.909l44.899-44.908H687.74v-18.063H483.738l90.323-90.323h-83.188l31.613-36.129h165.255V257.42H538.296
				l15.807-18.065h-97.747l-9.032,18.065H272.258v18.065h166.03l-45.162,90.323h64.807l-14.063,37.501v-1.373H272.258V420h165.354
				L420.775,464.909z M422.357,347.741l45.161-90.322h46.77l-63.227,72.258h79.395l-63.487,63.479l17.035-45.415H422.357
				L422.357,347.741z"/>
			<rect x="272.258" y="22.583" width="54.192" height="18.065"/>
			<polygon points="651.612,58.711 669.678,58.711 669.678,40.648 687.742,40.648 687.742,22.583 669.678,22.583 669.678,4.516 
				651.612,4.516 651.612,22.583 633.548,22.583 633.548,40.648 651.612,40.648 			"/>
			<rect x="272.258" y="212.259" width="18.064" height="18.064"/>
			<rect x="308.387" y="212.259" width="18.065" height="18.064"/>
			<rect x="272.258" y="447.097" width="18.064" height="18.064"/>
			<rect x="669.678" y="212.259" width="18.064" height="18.064"/>
			<rect x="633.548" y="212.259" width="18.064" height="18.064"/>
		</g>
	</g>
</g>
<rect x="218.065" y="501.291" fill="#F0BC5E" width="523.87" height="36.13"/>
<rect x="218.065" y="140.001" fill="#F0BC5E" width="523.869" height="36.13"/>
<rect x="272.258" y="85.806" fill="#F0BC5E" width="54.192" height="54.195"/>
<rect x="633.548" y="85.806" fill="#F0BC5E" width="54.192" height="54.195"/>
</svg>
