<svg height="496pt" viewBox="-24 0 496 496" width="496pt" xmlns="http://www.w3.org/2000/svg"><path d="m440 282.222656v-20.558594c0-4.9375-1.167969-9.886718-3.375-14.3125l-51.089844-102.28125-14.3125 7.160157 51.089844 102.28125c1.101562 2.207031 1.6875 4.679687 1.6875 7.152343v18.335938h-32.441406c.25-2.113281.441406-4.230469.441406-6.359375 0-7.527344-1.550781-14.832031-4.609375-21.695313l-24.527344-55.191406-14.617187 6.492188 24.53125 55.195312c2.132812 4.816406 3.222656 9.925782 3.222656 15.199219 0 3.480469-.488281 6.925781-1.441406 10.28125l-10.957032 38.34375c-4.488281-6.417969-11.746093-10.265625-19.601562-10.265625v-8c0-22.054688-17.945312-40-40-40v16c13.230469 0 24 10.769531 24 24v8h-64v-8c0-13.230469 10.769531-24 24-24v-16c-22.054688 0-40 17.945312-40 40v8h-48v-8c0-22.054688-17.945312-40-40-40v16c13.230469 0 24 10.769531 24 24v8h-64v-8c0-13.230469 10.769531-24 24-24v-16c-22.054688 0-40 17.945312-40 40v8.070312c-7.824219.1875-15.046875 4.082032-19.40625 10.617188l-.058594.082031-11.09375-38.847656c-.953125-3.355469-1.441406-6.800781-1.441406-10.28125 0-5.273437 1.089844-10.382813 3.222656-15.191406l24.53125-55.191407-14.617187-6.496093-24.527344 55.191406c-3.058594 6.863281-4.609375 14.160156-4.609375 21.6875 0 2.128906.191406 4.246094.441406 6.359375h-32.441406v-18.335938c0-2.472656.585938-4.945312 1.6875-7.160156l51.089844-102.28125-14.3125-7.160156-51.089844 102.289062c-2.207031 4.425782-3.375 9.375-3.375 14.3125v20.558594c-4.761719 2.777344-8 7.882813-8 13.777344v48c0 5.894531 3.238281 11 8 13.777344v18.222656c0 37 28.054688 67.535156 64 71.527344v24.472656c0 13.230469 10.769531 24 24 24h32c13.230469 0 24-10.769531 24-24v-24h144v24c0 13.230469 10.769531 24 24 24h32c13.230469 0 24-10.769531 24-24v-24.472656c35.945312-3.992188 64-34.527344 64-71.527344v-18.222656c4.761719-2.777344 8-7.882813 8-13.777344v-48c0-5.894531-3.238281-11-8-13.777344zm-8 29.777344h-16v16h16v16h-57.96875l4.578125-16h21.390625v-16h-16.824219l4.578125-16h44.246094zm-334.097656 19.558594c1.488281-2.230469 3.976562-3.558594 6.65625-3.558594h239.441406c2.679688 0 5.167969 1.328125 6.65625 3.558594l7.199219 10.808594-4.144531 14.488281c-4.558594 15.976562-19.359376 27.144531-35.976563 27.144531h-187.46875c-16.617187 0-31.417969-11.167969-35.984375-27.144531l-3.976562-13.902344zm-23.933594 12.441406h-57.96875v-16h16v-16h-16v-16h44.246094l4.578125 16h-16.824219v16h21.398438zm62.03125 128c0 4.414062-3.59375 8-8 8h-32c-4.40625 0-8-3.585938-8-8v-24h48zm216 8h-32c-4.40625 0-8-3.585938-8-8v-24h48v24c0 4.414062-3.59375 8-8 8zm16-48h-288c-30.878906 0-56-25.128906-56-56v-16h54.542969l.359375 1.246094c6.511718 22.816406 27.632812 38.753906 51.363281 38.753906h187.476563c23.730468 0 44.851562-15.9375 51.363281-38.753906l.351562-1.246094h54.542969v16c0 30.871094-25.121094 56-56 56zm0 0"/><path d="m341.601562 216h-235.203124c-9.476563 0-18.078126-5.59375-21.925782-14.246094l-23.863281-53.699218c-3.058594-6.871094-4.609375-14.167969-4.609375-21.695313 0-4.960937.6875-9.886719 2.054688-14.671875l20.839843-72.933594c6.519531-22.816406 27.640625-38.753906 51.371094-38.753906h187.476563c23.730468 0 44.851562 15.9375 51.363281 38.753906l20.839843 72.933594c1.367188 4.785156 2.054688 9.710938 2.054688 14.671875 0 7.527344-1.550781 14.832031-4.609375 21.695313l-23.863281 53.699218c-3.847656 8.652344-12.449219 14.246094-21.925782 14.246094zm0 0" fill="#f0bc5e"/><path d="m358.113281 120-19.175781-70.3125c-2.839844-10.414062-12.371094-17.6875-23.160156-17.6875h-39.664063l3.78125-22.6875-15.78125-2.625-6.890625 41.3125h-66.445312l-6.890625-41.3125-15.78125 2.625 3.78125 22.6875h-39.664063c-10.789062 0-20.320312 7.273438-23.160156 17.6875l-19.175781 70.3125c-1.550781 5.703125-.957031 11.761719 1.6875 17.046875l16.839843 33.6875c4.097657 8.175781 12.320313 13.265625 21.472657 13.265625h150.113281v-16h-150.113281c-3.046875 0-5.789063-1.695312-7.152344-4.425781l-16.839844-33.6875c-.878906-1.765625-1.078125-3.78125-.558593-5.6875l19.175781-70.3125c.9375-3.460938 4.113281-5.886719 7.710937-5.886719h42.335938l2.664062 16h93.554688l2.664062-16h42.335938c3.597656 0 6.773437 2.425781 7.71875 5.886719l19.175781 70.3125c.519531 1.90625.320313 3.921875-.558594 5.6875l-16.839843 33.6875c-1.371094 2.730469-4.113282 4.425781-7.160157 4.425781h-22.113281v16h22.113281c9.152344 0 17.367188-5.089844 21.460938-13.265625l16.839843-33.6875c2.648438-5.285156 3.25-11.34375 1.699219-17.046875zm0 0"/><path d="m186.339844 138.34375 64-64 11.316406 11.3125-64.003906 64zm0 0"/><path d="m242.34375 130.339844 32-32 11.3125 11.316406-32 32zm0 0"/><path d="m162.34375 114.339844 32-32 11.3125 11.316406-32 32zm0 0"/><g fill="#f0bc5e"><path d="m160 280h-16c-13.230469 0-24-10.769531-24-24s10.769531-24 24-24h16c13.230469 0 24 10.769531 24 24s-10.769531 24-24 24zm0 0"/><path d="m304 280h-16c-13.230469 0-24-10.769531-24-24s10.769531-24 24-24h16c13.230469 0 24 10.769531 24 24s-10.769531 24-24 24zm0 0"/></g></svg>