<?xml version="1.0" encoding="utf-8"?>
<!-- Generator: Adobe Illustrator 16.0.0, SVG Export Plug-In . SVG Version: 6.00 Build 0)  -->
<!DOCTYPE svg PUBLIC "-//W3C//DTD SVG 1.1//EN" "http://www.w3.org/Graphics/SVG/1.1/DTD/svg11.dtd">
<svg version="1.1" id="Capa_1" xmlns="http://www.w3.org/2000/svg" xmlns:xlink="http://www.w3.org/1999/xlink" x="0px" y="0px"
	 width="560px" height="560px" viewBox="197.5 0 560 560" enable-background="new 197.5 0 560 560" xml:space="preserve">
<g>
	<rect x="461.935" y="261.948" fill="#F0BC5E" width="45.163" height="180.651"/>
	<rect x="254.183" fill="#F0BC5E" width="90.327" height="54.196"/>
	<rect x="615.49" fill="#F0BC5E" width="90.327" height="54.196"/>
</g>
<g>
	<path d="M597.425,54.196v13.982C574.021,27.504,530.204,0,480,0s-94.021,27.504-117.425,68.179V54.196H236.117v161.478
		c0,20.766,14.064,38.777,34.207,43.817l125.916,31.47c12.086,3.025,20.531,13.838,20.531,26.294v110.488
		c-13.964,17.313-20.278,39.681-17.343,61.919c4.806,36.438,34.812,65.813,71.338,69.841c3.019,0.335,6.034,0.497,9.042,0.497
		c20.019,0,39.445-7.316,54.396-20.694c17.217-15.398,27.089-37.477,27.089-60.571c0-18.563-6.395-36.527-18.064-50.989v-110.49
		c0-12.456,8.445-23.269,20.521-26.294l125.916-31.47c20.152-5.04,34.216-23.051,34.216-43.817V54.196H597.425z M480,18.065
		c64.746,0,117.425,52.679,117.425,117.425c0,64.747-52.679,117.425-117.425,117.425S362.575,200.237,362.575,135.49
		C362.575,70.744,415.253,18.065,480,18.065z M705.817,215.674c0,12.456-8.445,23.268-20.522,26.294l-125.916,31.47
		c-20.151,5.041-34.216,23.052-34.216,43.817v117.209l2.259,2.556c10.188,11.571,15.808,26.396,15.808,41.715
		c0,17.957-7.679,35.138-21.072,47.124c-13.566,12.147-31.081,17.758-49.399,15.696c-28.381-3.134-51.686-25.939-55.425-54.25
		c-2.438-18.499,2.981-36.354,15.247-50.285l2.259-2.556V317.255c0-20.766-14.064-38.777-34.207-43.817l-125.916-31.47
		c-12.085-3.026-20.531-13.838-20.531-26.294V72.262h90.327v63.229c0,65.433,46.626,120.171,108.393,132.763v174.349h0.277
		c-11.063,8.238-18.345,21.311-18.345,36.133c0,24.901,20.26,45.164,45.163,45.164s45.163-20.263,45.163-45.164
		c0-14.822-7.28-27.895-18.345-36.133h0.278v-27.098h-18.064v18.979c-2.917-0.598-5.943-0.912-9.032-0.912s-6.115,0.314-9.032,0.912
		V270.52c2.998,0.199,5.979,0.461,9.032,0.461s6.034-0.262,9.032-0.461v126.917h18.064V268.253
		c61.767-12.591,108.394-67.33,108.394-132.763V72.262h90.327L705.817,215.674L705.817,215.674z M507.098,478.732
		c0,14.938-12.155,27.099-27.098,27.099s-27.098-12.158-27.098-27.099c0-14.939,12.155-27.1,27.098-27.1
		S507.098,463.793,507.098,478.732z"/>
	<path d="M480,234.85c54.783,0,99.359-44.576,99.359-99.36c0-54.783-44.576-99.359-99.359-99.359s-99.36,44.576-99.36,99.359
		C380.64,190.274,425.217,234.85,480,234.85z M480,54.196c44.82,0,81.294,36.465,81.294,81.294c0,44.83-36.474,81.294-81.294,81.294
		s-81.294-36.465-81.294-81.294C398.706,90.661,435.18,54.196,480,54.196z"/>
	<rect x="290.313" width="18.065" height="36.131"/>
	<rect x="651.621" width="18.063" height="36.131"/>
</g>
</svg>
