<svg id="Layer_35" enable-background="new 0 0 64 64" height="512" viewBox="0 0 64 64" width="512" xmlns="http://www.w3.org/2000/svg"><path d="m32 1c-17.094 0-31 13.906-31 31 0 13.595 8.8 25.165 21 29.336v-5.336h2l.001-1.37c-9.313-3.302-16.001-12.2-16.001-22.63 0-13.233 10.767-24 24-24s24 10.767 24 24c0 10.43-6.688 19.328-16.001 22.63l.001 1.37h2v5.336c12.2-4.171 21-15.741 21-29.336 0-17.094-13.906-31-31-31z" fill="#f0bc5e"/><path d="m17 29h-4c-1.103 0-2 .897-2 2v2c0 1.103.897 2 2 2h4c1.103 0 2-.897 2-2v-2c0-1.103-.897-2-2-2zm-4 4v-2h4l.002 2z"/><path d="m57 32c0-13.785-11.215-25-25-25s-25 11.215-25 25c0 10.057 6.06 19.104 15.221 23h-1.221v8h22v-8h-1.221c9.161-3.896 15.221-12.943 15.221-23zm-3.095 5c-2.234 0-4.552.192-6.908.553 0-.006.003-.012.003-.018 0-1.397-1.142-2.535-2.544-2.535-2.152 0-4.094.916-5.456 2.379v-5.379c0-1.654-1.346-3-3-3-.352 0-.686.072-1 .184v-1.184c0-1.654-1.346-3-3-3s-3 1.346-3 3v.184c-.314-.112-.648-.184-1-.184-1.654 0-3 1.346-3 3v.184c-.314-.112-.648-.184-1-.184-1.654 0-3 1.346-3 3v4.342c-3.795-.885-7.383-1.342-10.905-1.342h-.533c-.362-1.62-.562-3.293-.562-5 0-1.717.195-3.389.554-5h13.306l.298-.33c2.108-2.332 5.33-3.67 8.842-3.67s6.734 1.338 8.842 3.67l.298.33h13.307c.358 1.611.553 3.283.553 5 0 1.707-.2 3.38-.562 5zm-14.905 15.667v2.333h-14v-2.236l-1.472-2.944c-.345-.691-.528-1.464-.528-2.236v-13.584c0-.552.448-1 1-1s1 .448 1 1v4h2v-4-3c0-.552.448-1 1-1s1 .448 1 1v7h2v-7-3c0-.552.448-1 1-1s1 .448 1 1v4 6h2v-6c0-.552.448-1 1-1s1 .448 1 1v12h2v-1.544c0-3.009 2.447-5.456 5.456-5.456.305 0 .544.235.544.535 0 .106-.031.209-.09.297l-1.029 1.544c-.553.828-.909 1.788-1.032 2.775l-.644 5.145c-.107.861-.439 1.684-.961 2.379zm-7-43.667c10.242 0 18.939 6.731 21.907 16h-11.89c-2.482-2.548-6.105-4-10.017-4s-7.534 1.452-10.017 4h-11.89c2.968-9.269 11.665-16 21.907-16zm-21.905 30c3.508 0 7.089.469 10.905 1.393v7.191c0 1.081.256 2.164.739 3.13l1.213 2.427c-6.199-2.654-10.849-7.872-12.857-14.141zm30.905 22h-18v-4h18zm.185-7.913 1.659-2.212c.73-.973 1.195-2.125 1.346-3.332l.644-5.144c.085-.681.331-1.343.712-1.914l.498-.746c2.688-.485 5.333-.739 7.861-.739-1.994 6.223-6.588 11.415-12.72 14.087z"/><path d="m43 29h2v2h-2z"/><path d="m47 29h2v2h-2z"/><path d="m51 29h2v2h-2z"/><path d="m51 33h2v2h-2z"/><path d="m47 33h2v2h-2z"/><path d="m15.027 23.451c.328-.65.699-1.29 1.102-1.901l-1.67-1.1c-.444.674-.854 1.381-1.217 2.099z"/><path d="m32 13v-2c-6.144 0-11.961 2.679-15.959 7.35l1.52 1.301c3.617-4.227 8.88-6.651 14.439-6.651z"/></svg>