<?xml version="1.0" encoding="utf-8"?>
<!-- Generator: Adobe Illustrator 16.0.0, SVG Export Plug-In . SVG Version: 6.00 Build 0)  -->
<!DOCTYPE svg PUBLIC "-//W3C//DTD SVG 1.1//EN" "http://www.w3.org/Graphics/SVG/1.1/DTD/svg11.dtd">
<svg version="1.1" id="Capa_1" xmlns="http://www.w3.org/2000/svg" xmlns:xlink="http://www.w3.org/1999/xlink" x="0px" y="0px"
	 width="561px" height="560px" viewBox="198.5 0 561 560" enable-background="new 198.5 0 561 560" xml:space="preserve">
<polygon fill="#F0BC5E" points="559.736,335.5 514.303,360.349 468.868,263.731 520.245,263.731 "/>
<polygon fill="#F0BC5E" points="467.727,297.981 440.326,334.516 407.217,309.97 449.5,253.5 "/>
<polygon fill="#F0BC5E" points="505.363,499.978 500.805,448.395 607.533,445.486 586.944,492.558 "/>
<polygon fill="#F0BC5E" points="576.61,430.715 554.118,390.97 589.875,370.472 624.668,431.841 "/>
<polygon fill="#F0BC5E" points="383.024,354.319 429.355,377.45 375.937,469.895 340.5,423.5 "/>
<polygon fill="#F0BC5E" points="404.715,451.288 450.353,452.942 449.088,494.139 378.587,491.638 "/>
<polygon fill="#F0BC5E" points="695.494,194.659 265.077,194.659 267.931,166.116 692.641,166.116 "/>
<g>
	<g>
		<path d="M537.94,365.912c2.854,0,5.709-1.712,7.422-3.996l28.542-45.667c2.282-3.426,1.712-7.421-0.571-10.275
			c-2.283-2.854-6.279-3.996-10.275-2.282l-5.137,1.712l-24.547-54.23c-0.57-3.425-3.996-5.708-7.421-5.708h-84.485
			c-2.854,0-5.138,1.142-6.85,3.425l-47.381,57.084c-1.712,1.713-2.283,4.566-1.712,6.851s1.712,4.566,3.425,6.279l47.38,35.393
			c3.996,2.854,9.704,2.283,12.559-1.712l27.973-37.105l10.274,17.696l-5.709,2.854c-3.425,1.712-5.137,5.138-4.566,9.134
			c0.571,3.425,2.854,6.85,6.852,7.421l53.088,13.129C536.799,365.912,537.37,365.912,537.94,365.912z M440.326,334.516
			l-33.109-24.546l38.817-46.81h2.854l18.838,34.821L440.326,334.516z M507.115,340.225c1.142-2.854,1.142-5.138,0-7.421
			l-21.121-37.677l-17.126-31.396h51.377l25.688,56.513c0.571,1.713,1.713,2.854,2.854,3.426l-14.842,23.404L507.115,340.225z"/>
		<path d="M458.593,434.984l-46.238-2.283l9.134-18.268l5.708,3.426c3.426,1.713,7.422,1.713,10.274-1.143
			c2.854-2.283,3.996-6.278,2.283-9.704l-18.837-51.377c-1.142-3.425-5.138-6.278-8.563-5.708l-54.23,2.283
			c-3.996,0-6.85,2.854-7.992,6.279c-1.142,3.425,0.571,7.421,3.425,9.704l4.567,2.854l-30.826,50.234
			c-1.713,2.854-1.713,6.851,0,9.705l35.963,53.088l13.701,21.122c1.712,2.283,4.567,3.995,7.421,3.995h73.639
			c5.139,0,9.135-3.995,9.135-9.134v-57.085C467.156,439.552,463.16,435.556,458.593,434.984z M374.108,468.094l-29.113-42.242
			l32.538-53.089c0.571-1.142,1.142-2.854,1.142-4.566l27.4-1.143l9.705,25.688h-0.571c-2.283,0.57-3.996,2.283-5.138,4.565
			l-19.409,38.817L374.108,468.094z M449.46,492.069h-60.51l-3.996-6.279l18.838-35.393l45.668,2.282V492.069L449.46,492.069z"/>
		<path d="M601.305,353.354c-1.142-2.282-2.854-3.995-5.138-4.565c-2.283-0.571-4.566-0.571-6.85,0.57l-51.947,29.112
			c-3.996,2.283-5.709,7.992-3.425,11.988l22.263,40.53l-20.551,1.712v-6.279c0-3.996-2.854-6.85-6.279-7.991
			c-3.425-1.143-7.421,0-9.704,2.854l-33.68,43.385c-2.283,2.854-2.283,7.421-0.571,10.275l30.255,45.097
			c1.713,2.283,4.567,3.996,7.421,3.996c0.571,0,1.713,0,2.283-0.571c3.426-1.142,6.279-4.565,6.279-7.992v-5.138h59.368
			c3.425,0,6.851-2.283,7.991-5.137l35.394-77.064c1.142-2.282,1.142-5.138,0-7.421L601.305,353.354z M585.892,492.069H523.67
			c-1.713,0-2.854,0.57-4.567,1.142l-15.411-22.834l17.125-21.692l0.57,0.571c1.712,1.713,3.995,2.283,6.851,2.283l43.385-3.996
			l35.393-2.283L585.892,492.069z M615.576,426.993l-39.39,2.854l-22.263-39.959l35.963-19.979l26.83,54.802L615.576,426.993z"/>
		<path d="M709.194,156.412c-0.57-4.566-4.566-7.992-8.563-7.992h-62.793C633.272,65.647,564.771,0,480.856,0
			C396.942,0,328.44,65.647,323.874,148.42h-63.935c-4.567,0-8.563,3.425-8.563,7.992l-5.138,44.526
			c-0.571,1.142-0.571,1.712-0.571,2.854c0,0.571,0,0.571,0,1.142l-30.254,285.994c0,0.57,0,0.57,0,1.143
			c0,37.676,30.254,67.931,67.931,67.931h393.313c37.676,0,67.931-30.255,67.931-67.931c0-0.571,0-0.571,0-1.143L709.194,156.412z
			 M480.856,17.696c74.21,0,134.72,57.655,139.285,130.724h-278C346.708,75.352,407.217,17.696,480.856,17.696z M267.931,166.116
			h424.709l2.854,28.542H265.077L267.931,166.116z M677.228,541.732H283.344c-27.401,0-50.235-22.264-50.235-49.663l29.684-279.145
			h434.414l29.684,279.145C726.891,519.47,704.628,541.732,677.228,541.732z"/>
	</g>
</g>
</svg>
