<?xml version="1.0" encoding="utf-8"?>
<!-- Generator: Adobe Illustrator 16.0.0, SVG Export Plug-In . SVG Version: 6.00 Build 0)  -->
<!DOCTYPE svg PUBLIC "-//W3C//DTD SVG 1.1//EN" "http://www.w3.org/Graphics/SVG/1.1/DTD/svg11.dtd">
<svg version="1.1" id="Layer_5" xmlns="http://www.w3.org/2000/svg" xmlns:xlink="http://www.w3.org/1999/xlink" x="0px" y="0px"
	 width="512px" height="512px" viewBox="0 0 512 512" enable-background="new 0 0 512 512" xml:space="preserve">
<circle fill="#F0BC5E" stroke="#000000" stroke-miterlimit="10" cx="369.313" cy="366.752" r="29.187"/>
<path fill="#F0BC5E" stroke="#000000" stroke-miterlimit="10" d="M251.679,333.171c0.202-0.711,0.512-1.301,0.893-1.787
	c-3.488-13.346-13.643-23.005-25.635-23.005c-14.876,0-26.937,14.858-26.937,33.187s12.06,33.187,26.937,33.187
	c6.992,0,13.356-3.288,18.142-8.671C243.464,355.144,248.684,343.713,251.679,333.171z"/>
<circle fill="#F0BC5E" stroke="#000000" stroke-miterlimit="10" cx="299.75" cy="327.685" r="12.25"/>
<circle fill="#F0BC5E" stroke="#000000" stroke-miterlimit="10" cx="368.424" cy="286.569" r="13.076"/>
<circle fill="#F0BC5E" stroke="#000000" stroke-miterlimit="10" cx="441.75" cy="329.685" r="14.25"/>
<circle fill="#F0BC5E" stroke="#000000" stroke-miterlimit="10" cx="299.75" cy="408.188" r="12.25"/>
<circle fill="#F0BC5E" stroke="#000000" stroke-miterlimit="10" cx="368.424" cy="453.076" r="13.076"/>
<circle fill="#F0BC5E" stroke="#000000" stroke-miterlimit="10" cx="437.969" cy="409.969" r="10.469"/>
<path d="M368,328c-22.057,0-40,17.944-40,40s17.943,40,40,40s40-17.944,40-40S390.057,328,368,328z M368,392
	c-13.232,0-24-10.768-24-24s10.768-24,24-24s24,10.768,24,24S381.232,392,368,392z"/>
<rect x="287.5" y="50.5" fill="#F0BC5E" stroke="#000000" stroke-miterlimit="10" width="40.5" height="59"/>
<rect x="72" y="40" fill="#F0BC5E" stroke="#000000" stroke-miterlimit="10" width="16.008" height="80"/>
<rect x="407.83" y="96.845" fill="#F0BC5E" stroke="#000000" stroke-miterlimit="10" width="68.67" height="45.655"/>
<rect x="34.5" y="343.935" fill="#F0BC5E" stroke="#000000" stroke-miterlimit="10" width="26" height="40.069"/>
<rect x="85" y="431.349" fill="#F0BC5E" stroke="#000000" stroke-miterlimit="10" width="38.5" height="45.151"/>
<polygon fill="#F0BC5E" stroke="#000000" stroke-miterlimit="10" points="488,304.136 424,248 424,184 488,184 "/>
<polygon fill="#F0BC5E" stroke="#000000" stroke-miterlimit="10" points="227.5,264 227.5,216 256,184 329,184 340.127,240 
	280.544,264 "/>
<path d="M368,424c-13.232,0-24,10.768-24,24s10.768,24,24,24s24-10.768,24-24S381.232,424,368,424z M368,456c-4.408,0-8-3.584-8-8
	s3.592-8,8-8s8,3.584,8,8S372.408,456,368,456z"/>
<path d="M449.288,387.208c-11.472-6.6-26.176-2.656-32.792,8.792c-6.616,11.464-2.672,26.168,8.792,32.792
	c3.768,2.168,7.88,3.208,11.952,3.208c8.304,0,16.384-4.313,20.823-12C464.68,408.544,460.744,393.832,449.288,387.208z
	 M444.208,412c-2.216,3.824-7.12,5.128-10.92,2.928c-3.824-2.2-5.136-7.111-2.928-10.928c1.479-2.56,4.168-4,6.943-4
	c1.353,0,2.729,0.344,3.984,1.072C445.104,403.272,446.416,408.176,444.208,412z"/>
<path d="M425.288,307.208c-11.464,6.624-15.399,21.328-8.792,32.792c4.439,7.688,12.52,11.992,20.832,11.992
	c4.063,0,8.184-1.032,11.96-3.2c11.456-6.624,15.392-21.336,8.784-32.792C451.464,304.544,436.736,300.592,425.288,307.208z
	 M444.208,324c2.2,3.824,0.888,8.728-2.928,10.928c-3.824,2.216-8.729,0.889-10.929-2.928c-2.208-3.824-0.888-8.728,2.929-10.928
	C437.112,318.864,442,320.184,444.208,324z"/>
<path d="M368,312c13.232,0,24-10.768,24-24s-10.768-24-24-24s-24,10.768-24,24S354.768,312,368,312z M368,280c4.408,0,8,3.584,8,8
	s-3.592,8-8,8s-8-3.584-8-8S363.592,280,368,280z"/>
<path d="M310.712,307.208c-11.464-6.6-26.168-2.656-32.776,8.792c-6.615,11.456-2.68,26.168,8.776,32.792h0.009
	c3.768,2.168,7.887,3.2,11.951,3.2c8.305,0,16.393-4.304,20.832-11.992C326.12,328.536,322.176,313.832,310.712,307.208z
	 M305.648,332c-2.2,3.824-7.104,5.144-10.92,2.928c-3.824-2.2-5.137-7.111-2.929-10.928c2.2-3.824,7.104-5.152,10.921-2.928
	C306.536,323.272,307.848,328.176,305.648,332z"/>
<path d="M286.712,387.208c-11.456,6.624-15.392,21.336-8.784,32.792c4.44,7.688,12.521,11.992,20.832,11.992
	c4.064,0,8.184-1.032,11.952-3.2h0.009c11.455-6.624,15.391-21.328,8.783-32.792C312.889,384.544,298.191,380.6,286.712,387.208z
	 M302.712,414.928c-3.808,2.208-8.72,0.88-10.928-2.928c-2.2-3.824-0.888-8.728,2.928-10.928c1.265-0.729,2.632-1.072,3.992-1.072
	c2.769,0,5.464,1.44,6.944,4C307.848,407.824,306.536,412.728,302.712,414.928z"/>
<path d="M504,136h-16v-24c0-13.232-10.768-24-24-24h-48c-13.232,0-24,10.768-24,24v24h-16V48c0-22.056-17.943-40-40-40h-48
	c-19.313,0-35.472,13.768-39.192,32H104c0-8.824-7.176-16-16-16H72c-8.824,0-16,7.176-16,16v80c0,8.824,7.176,16,16,16h16
	c8.824,0,16-7.176,16-16h144v19.408c-36.88,10.48-64,44.392-64,84.592v8H32c-13.232,0-24,10.768-24,24c0,13.232,10.768,24,24,24
	c4.408,0,8,3.584,8,8v40H24v49.472C14.712,380.784,8,389.584,8,400v64c0,22.056,17.944,40,40,40h40v-16h48v-64H88v-24
	c0-10.416-6.712-19.216-16-22.528V328H56v-40c0-13.232-10.768-24-24-24c-4.408,0-8-3.592-8-8s3.592-8,8-8h152v16.809
	c-18.232,3.719-32,19.871-32,39.191v128c0,22.056,17.944,40,40,40h88.544c23.664,19.936,54.16,32,87.456,32
	c74.992,0,136-61.008,136-136c0-2.704-0.248-5.336-0.408-8H504V136z M56,344v32H40v-32H56z M72,488H48c-13.232,0-24-10.768-24-24
	v-64c0-4.416,3.592-8,8-8h32c4.408,0,8,3.584,8,8V488z M120,440v32H88v-32H120z M408,112c0-4.408,3.592-8,8-8h48
	c4.408,0,8,3.592,8,8v24h-64V112z M72,120V40h16l0.008,80H72z M104,104V56h144v48H104z M264,48c0-13.232,10.768-24,24-24h48
	c13.232,0,24,10.768,24,24v88h-88c-2.704,0-5.359,0.168-8,0.408V48z M272,152h216v16h-80v70.024C395.344,234.12,381.92,232,368,232
	c-8.2,0-16.191,0.856-24,2.248V168h-72c-30.88,0-56,25.12-56,56v40h-16v-40C200,184.304,232.304,152,272,152z M280.544,264H232v-40
	c0-22.056,17.944-40,40-40h56v54.024C310.384,243.456,294.32,252.4,280.544,264z M168,432V304c0-13.232,10.768-24,24-24h72.496
	c-5.248,6.16-9.904,12.816-14,19.84C244.64,297.368,238.384,296,232,296c-26.472,0-48,21.528-48,48s21.528,48,48,48
	c0.736,0,1.488-0.096,2.232-0.136c4.304,24.184,14.96,46.16,30.264,64.136H192C178.768,456,168,445.232,168,432z M232,368
	c0,2.688,0.248,5.32,0.408,7.976c-0.136,0-0.28,0.024-0.408,0.024c-17.648,0-32-14.352-32-32s14.352-32,32-32
	c3.84,0,7.6,0.776,11.176,2.136C236.016,330.664,232,348.864,232,368z M368,488c-66.168,0-120-53.832-120-120s53.832-120,120-120
	s120,53.832,120,120S434.168,488,368,488z M424,244.208V184h64v120.136C473.904,277.76,451.344,256.624,424,244.208L424,244.208z"/>
<path d="M200,392h-16v32c0,8.824,7.176,16,16,16h16v-16h-16V392z"/>
<path d="M440,200h32v16h-32V200z"/>
<path d="M440,232h32v16h-32V232z"/>
<path d="M296,200h16v16h-16V200z"/>
<path d="M264,200h16v16h-16V200z"/>
<path d="M296,120h32c8.824,0,16-7.176,16-16V56c0-8.824-7.176-16-16-16h-32c-8.824,0-16,7.176-16,16v48
	C280,112.824,287.176,120,296,120z M296,56h32l0.008,48H296V56z"/>
</svg>
