<?xml version="1.0" encoding="utf-8"?>
<!-- Generator: Adobe Illustrator 16.0.0, SVG Export Plug-In . SVG Version: 6.00 Build 0)  -->
<!DOCTYPE svg PUBLIC "-//W3C//DTD SVG 1.1//EN" "http://www.w3.org/Graphics/SVG/1.1/DTD/svg11.dtd">
<svg version="1.1" id="Layer_5" xmlns="http://www.w3.org/2000/svg" xmlns:xlink="http://www.w3.org/1999/xlink" x="0px" y="0px"
	 width="512px" height="512px" viewBox="0 0 512 512" enable-background="new 0 0 512 512" xml:space="preserve">
<ellipse fill="#F0BC5E" stroke="#000000" stroke-miterlimit="10" cx="328.5" cy="257.25" rx="18" ry="17.25"/>
<polygon fill="#F0BC5E" stroke="#000000" stroke-miterlimit="10" points="248.222,175.272 288.437,173.437 286.602,213.652 "/>
<polygon fill="#F0BC5E" stroke="#000000" stroke-miterlimit="10" points="325.335,146.299 355.068,173.437 325.334,200.575 "/>
<polygon fill="#F0BC5E" stroke="#000000" stroke-miterlimit="10" points="407.008,177.899 406.386,218.15 366.357,213.863 "/>
<polygon fill="#F0BC5E" stroke="#000000" stroke-miterlimit="10" points="438.446,256.746 409.718,284.946 384.252,253.769 "/>
<polygon fill="#F0BC5E" stroke="#000000" stroke-miterlimit="10" points="407.285,333.354 367.117,336.005 368.137,295.761 "/>
<polygon fill="#F0BC5E" stroke="#000000" stroke-miterlimit="10" points="329.827,366.028 298.851,340.319 327.275,311.813 "/>
<polygon fill="#F0BC5E" stroke="#000000" stroke-miterlimit="10" points="246.325,337.005 252.119,293.493 295.962,295.682 "/>
<polygon fill="#F0BC5E" stroke="#000000" stroke-miterlimit="10" points="215.804,256.285 244.813,225.011 273.314,256.749 "/>
<rect x="45.5" y="112" fill="#F0BC5E" stroke="#000000" stroke-miterlimit="10" width="34.5" height="64"/>
<rect x="48" y="336" fill="#F0BC5E" stroke="#000000" stroke-miterlimit="10" width="32" height="78.5"/>
<circle fill="#F0BC5E" stroke="#000000" stroke-miterlimit="10" cx="456.625" cy="88.078" r="23.921"/>
<circle fill="#F0BC5E" stroke="#000000" stroke-miterlimit="10" cx="166.852" cy="407.838" r="25.247"/>
<rect x="125.5" y="144" fill="#F0BC5E" stroke="#000000" stroke-miterlimit="10" width="34.5" height="32"/>
<path d="M328,128c-70.576,0-128,57.424-128,128s57.424,128,128,128s128-57.424,128-128S398.576,128,328,128z M328,364.688
	l-21.928-21.928l13.984-23.304c2.607,0.32,5.248,0.544,7.943,0.544V364.688z M328,304c-26.473,0-48-21.527-48-48
	c0-26.472,21.527-48,48-48s48,21.528,48,48C376,282.473,354.473,304,328,304z M282.768,210.768l-31.624-31.616h31.008l6.6,26.408
	C286.664,207.184,284.641,208.896,282.768,210.768z M264,256h-44.688l21.928-21.928l23.304,13.984
	C264.225,250.664,264,253.304,264,256z M282.768,301.232l-31.616,31.615V301.84l26.409-6.6
	C279.184,297.336,280.896,299.36,282.768,301.232z M328,147.312l21.928,21.928l-13.984,23.304c-2.607-0.32-5.248-0.544-7.943-0.544
	V147.312z M373.232,301.232l31.615,31.615H373.84l-6.6-26.407C369.336,304.816,371.359,303.104,373.232,301.232z M392,256h44.688
	l-21.929,21.928l-23.304-13.984C391.775,261.336,392,258.695,392,256z M373.232,210.768l31.615-31.624v31.008l-26.408,6.6
	C376.816,214.664,375.104,212.64,373.232,210.768z M360.448,200.928c-2.673-1.584-5.456-3-8.36-4.184l17.992-29.984l-20.656-20.648
	c16.84,3.28,32.28,10.392,45.528,20.32L360.448,200.928z M312,194.104c-3.04,0.784-6.032,1.72-8.88,2.928l-8.472-33.888h-29.217
	c13.672-9.24,29.528-15.416,46.568-17.872V194.104z M272.928,223.552c-1.584,2.672-3,5.456-4.184,8.36L238.76,213.92l-20.648,20.656
	c3.28-16.84,10.392-32.28,20.32-45.528L272.928,223.552z M266.104,272c0.785,3.04,1.721,6.032,2.929,8.88l-33.888,8.472v29.217
	c-9.24-13.672-15.408-29.528-17.864-46.568H266.104z M295.552,311.072c2.673,1.584,5.456,3,8.36,4.184L285.92,345.24l20.656,20.647
	c-16.84-3.279-32.288-10.392-45.528-20.319L295.552,311.072z M344,317.896c3.04-0.784,6.032-1.721,8.88-2.929l8.472,33.889h29.217
	c-13.672,9.239-29.528,15.407-46.568,17.863V317.896z M383.072,288.448c1.584-2.673,3-5.456,4.184-8.36l29.984,17.992l20.647-20.656
	c-3.279,16.84-10.392,32.288-20.319,45.528L383.072,288.448z M389.896,240c-0.785-3.04-1.721-6.032-2.929-8.88l33.888-8.472v-29.216
	c9.24,13.672,15.417,29.528,17.872,46.568H389.896z"/>
<path d="M328,224c-17.648,0-32,14.352-32,32c0,17.648,14.352,32,32,32s32-14.352,32-32C360,238.352,345.648,224,328,224z M328,272
	c-8.824,0-16-7.176-16-16s7.176-16,16-16s16,7.176,16,16S336.824,272,328,272z"/>
<path d="M168,384c-13.232,0-24,10.768-24,24s10.768,24,24,24s24-10.768,24-24S181.232,384,168,384z M168,416c-4.408,0-8-3.592-8-8
	s3.592-8,8-8s8,3.592,8,8S172.408,416,168,416z"/>
<path d="M504,88c0-30.88-25.12-56-56-56H304c-30.88,0-56,25.12-56,56v11.312c-1.856,0.952-3.696,1.92-5.512,2.936
	C236.672,93.552,226.816,88,216,88c-17.648,0-32,14.352-32,32c0,8.688,3.536,16.728,9.536,22.624
	c-6.528,7.736-12.392,16.04-17.536,24.824V152c0-13.232-10.768-24-24-24h-16c-13.232,0-24,10.768-24,24v24H96v-56
	c0-13.232-10.768-24-24-24H56c-13.232,0-24,10.768-24,24v56c-13.232,0-24,10.768-24,24v112c0,13.232,10.768,24,24,24v72
	c0,13.232,10.768,24,24,24h16c13.232,0,24-10.768,24-24v-72h16v72c0,30.88,25.12,56,56,56h105.473c3.312,9.288,12.111,16,22.527,16
	h16c13.232,0,24-10.768,24-24v-24.2c93.344-4.2,168-81.432,168-175.8c0-2.68-0.08-5.344-0.2-8h0.2V88z M216,104
	c5.192,0,9.92,2.592,12.856,6.672c-8.736,5.976-16.904,12.72-24.408,20.128c-2.76-2.896-4.448-6.672-4.448-10.8
	C200,111.176,207.176,104,216,104z M152.76,240H136v16h16c0,10.928,1.056,21.616,2.968,32H56v-64h98.968
	C154,229.256,153.248,234.592,152.76,240L152.76,240z M128,152c0-4.408,3.592-8,8-8h16c4.408,0,8,3.592,8,8v24h-32V152z M48,120
	c0-4.408,3.592-8,8-8h16c4.408,0,8,3.592,8,8v56H48V120z M24,312V200c0-4.408,3.592-8,8-8h132.096
	c-2.048,5.216-3.848,10.552-5.392,16H56c-8.824,0-16,7.176-16,16v64c0,8.824,7.176,16,16,16h102.712
	c1.544,5.448,3.344,10.784,5.392,16H32C27.592,320,24,316.408,24,312L24,312z M80,408c0,4.408-3.592,8-8,8H56c-4.408,0-8-3.592-8-8
	v-72h32V408z M128,408v-72h43.312c20.816,40.6,56.92,72.08,100.688,86.816V448H168C145.944,448,128,430.056,128,408z M312,464h-16
	c-4.408,0-8-3.592-8-8v-28.64c10.352,2.416,21.04,3.943,32,4.439V456C320,460.408,316.408,464,312,464z M328,416
	c-88.224,0-160-71.776-160-160c0-88.224,71.776-160,160-160c88.225,0,160,71.776,160,160C488,344.224,416.225,416,328,416z M328,80
	c-22.576,0-44.152,4.32-64,12.096V88c0-22.056,17.943-40,40-40h144c22.056,0,40,17.944,40,40v94.816
	C460.168,122.208,398.936,80,328,80z"/>
<path d="M456,64c-13.232,0-24,10.768-24,24s10.768,24,24,24s24-10.768,24-24S469.232,64,456,64z M456,96c-4.408,0-8-3.592-8-8
	s3.592-8,8-8s8,3.592,8,8S460.408,96,456,96z"/>
<path d="M72,240h16v16H72V240z"/>
<path d="M104,240h16v16h-16V240z"/>
</svg>
