<?xml version="1.0" encoding="utf-8"?>
<!-- Generator: Adobe Illustrator 16.0.0, SVG Export Plug-In . SVG Version: 6.00 Build 0)  -->
<!DOCTYPE svg PUBLIC "-//W3C//DTD SVG 1.1//EN" "http://www.w3.org/Graphics/SVG/1.1/DTD/svg11.dtd">
<svg version="1.1" id="Capa_1" xmlns="http://www.w3.org/2000/svg" xmlns:xlink="http://www.w3.org/1999/xlink" x="0px" y="0px"
	 width="560px" height="560px" viewBox="200 0 560 560" enable-background="new 200 0 560 560" xml:space="preserve">
<rect x="662.415" y="64.584" transform="matrix(-0.6176 -0.7865 0.7865 -0.6176 1075.4801 687.5863)" fill="#F0BC5E" stroke="#000000" stroke-miterlimit="10" width="84.963" height="35.507"/>
<rect x="463.377" y="58.582" transform="matrix(0.6176 -0.7865 0.7865 0.6176 133.4062 427.0475)" fill="#F0BC5E" stroke="#000000" stroke-miterlimit="10" width="84.962" height="35.507"/>
<g>
	<g>
		<g>
			<path d="M696.774,234.815h-18.518c21.007-27.291,24.428-64.236,8.789-94.92l18.76-18.76l11.68,11.679
				c3.526,3.526,9.244,3.526,12.771,0l27.097-27.097c3.526-3.527,3.526-9.244,0-12.771L694.128,29.72
				c-3.527-3.526-9.245-3.526-12.771,0L654.26,56.816c-3.525,3.527-3.525,9.244,0,12.771l11.68,11.679l-18.798,18.796
				c-25.563-13.018-55.814-13.018-81.38,0l-18.797-18.796l11.679-11.679c3.526-3.527,3.526-9.245,0-12.771L531.547,29.72
				c-3.526-3.526-9.244-3.526-12.771,0L455.55,92.945c-3.525,3.527-3.525,9.245,0,12.771l4.778,4.778l-143.902,15.987
				c-24.874,0.417-44.7,20.917-44.283,45.792c0.403,24.048,19.628,43.539,43.668,44.27l100.177,18.272H263.226
				c-34.901,0.04-63.186,28.324-63.226,63.226v72.258c0.04,34.901,28.324,63.188,63.226,63.227h42.361
				c-24.964,16.513-31.816,50.134-15.304,75.098c16.512,24.964,50.133,31.816,75.098,15.305
				c24.964-16.513,31.816-50.134,15.304-75.098c-4.021-6.079-9.225-11.284-15.304-15.305h229.238
				c-24.964,16.513-31.815,50.134-15.304,75.098c16.511,24.964,50.134,31.816,75.098,15.305
				c24.964-16.513,31.816-50.134,15.304-75.098c-4.021-6.079-9.226-11.284-15.304-15.305h42.361
				c34.9-0.039,63.186-28.324,63.226-63.227v-72.258C759.96,263.139,731.676,234.854,696.774,234.815z M254.193,414.557
				c-21.012-4.319-36.102-22.805-36.129-44.258v-72.258c0.027-21.453,15.117-39.938,36.129-44.258V414.557z M653.474,234.815
				h-10.893v-50.454l30.872-30.836c3.46,8.508,5.245,17.605,5.257,26.79C678.726,201.309,669.493,221.245,653.474,234.815z
				 M687.742,48.877l50.454,50.454l-14.325,14.325l-50.454-50.454L687.742,48.877z M678.71,94.038l14.325,14.325l-15.979,15.969
				c-4.229-5.29-9.035-10.089-14.334-14.307L678.71,94.038z M649.807,122.915c5.441,4.083,10.279,8.916,14.37,14.352l-21.938,21.939
				c-0.688-7.426-3.683-14.449-8.563-20.088L649.807,122.915z M606.451,108.363c9.289,0.003,18.489,1.801,27.098,5.293
				l-15.003,15.002c-7.788-2.975-16.4-2.975-24.188,0l-15.003-15.002C587.963,110.164,597.163,108.367,606.451,108.363z
				 M624.517,162.557v72.258h-36.13v-72.258c0-9.978,8.088-18.065,18.064-18.065C616.429,144.492,624.517,152.58,624.517,162.557z
				 M563.097,122.915l16.133,16.159c-4.882,5.638-7.875,12.662-8.563,20.087l-21.939-21.894
				C552.817,131.83,557.655,126.998,563.097,122.915z M570.322,184.361v50.454H559.43c-16.02-13.57-25.252-33.506-25.235-54.5
				c0.012-9.185,1.797-18.281,5.257-26.79L570.322,184.361z M550.181,110.025c-5.298,4.218-10.104,9.018-14.334,14.307
				l-15.979-15.969l14.325-14.325L550.181,110.025z M525.161,48.877l14.325,14.325l-50.454,50.454l-14.325-14.325L525.161,48.877z
				 M317.419,198.686c-14.965,0-27.097-12.131-27.097-27.097c0-14.966,12.131-27.097,27.097-27.097s27.097,12.132,27.097,27.097
				C344.516,186.554,332.385,198.686,317.419,198.686z M348.508,204.196c17.979-16.932,18.828-45.235,1.895-63.213
				c-0.029-0.032-0.059-0.063-0.088-0.094l126.343-14.036l5.961,5.961c3.526,3.526,9.245,3.526,12.771,0l11.706-11.679l18.761,18.76
				c-15.64,30.684-12.22,67.629,8.788,94.92h-17.729L348.508,204.196z M326.452,513.532c-12.64-3.306-22.51-13.175-25.814-25.814
				h25.814V513.532z M326.452,469.653h-25.814c3.305-12.64,13.175-22.51,25.814-25.813V469.653z M344.516,513.532v-25.814h25.814
				C367.025,500.356,357.156,510.228,344.516,513.532z M370.33,469.653h-25.814V443.84
				C357.156,447.145,367.025,457.015,370.33,469.653z M615.483,513.532c-12.64-3.306-22.51-13.175-25.813-25.814h25.813V513.532z
				 M615.483,469.653H589.67c3.305-12.64,13.175-22.51,25.813-25.813V469.653z M633.549,513.532v-25.814h25.813
				C656.058,500.356,646.188,510.228,633.549,513.532z M659.362,469.653h-25.813V443.84
				C646.188,447.145,656.058,457.015,659.362,469.653z M687.742,415.46H272.258V289.009h415.484V415.46z M687.742,270.944H272.258
				V252.88h415.484V270.944z M741.936,370.299c-0.026,21.453-15.115,39.938-36.129,44.258V253.783
				c21.014,4.321,36.103,22.805,36.129,44.258V370.299z"/>
			<path d="M299.355,397.396h361.291c4.987,0,9.032-4.045,9.032-9.032V334.17c0-4.988-4.045-9.032-9.032-9.032H299.355
				c-4.988,0-9.032,4.044-9.032,9.032v54.193C290.323,393.352,294.367,397.396,299.355,397.396z M308.387,343.202h343.226v36.129
				H308.387V343.202z"/>
		</g>
	</g>
</g>
<rect x="308.387" y="343.202" fill="#F0BC5E" stroke="#000000" stroke-miterlimit="10" width="343.226" height="36.129"/>
<circle fill="#F0BC5E" stroke="#000000" stroke-miterlimit="10" cx="316.435" cy="171.612" r="27.112"/>
</svg>
