<?xml version="1.0" encoding="iso-8859-1"?>
<!-- Generator: Adobe Illustrator 19.0.0, SVG Export Plug-In . SVG Version: 6.00 Build 0)  -->
<svg version="1.1" id="Capa_1" xmlns="http://www.w3.org/2000/svg" xmlns:xlink="http://www.w3.org/1999/xlink" x="0px" y="0px"
	 viewBox="0 0 496 496" style="enable-background:new 0 0 496 496;" xml:space="preserve">
<path d="M101.376,88.688l20.968,20.968l11.312-11.312l-24.592-24.592C110.944,68.168,112,62.208,112,56c0-30.872-25.128-56-56-56
	S0,25.128,0,56s25.128,56,56,56c6.208,0,12.168-1.056,17.752-2.936l24.592,24.592l11.312-11.312l-20.968-20.968
	C93.568,97.848,97.848,93.568,101.376,88.688z M16,56c0-22.056,17.944-40,40-40s40,17.944,40,40S78.056,96,56,96S16,78.056,16,56z"
	/>
<path d="M56,32c-13.232,0-24,10.768-24,24s10.768,24,24,24s24-10.768,24-24S69.232,32,56,32z M56,64c-4.416,0-8-3.584-8-8
	s3.584-8,8-8s8,3.584,8,8S60.416,64,56,64z"/>
<path d="M440,384c-6.16,0-12.064,1.04-17.616,2.88l-15.232-30.456l-14.312,7.16l15.24,30.472
	c-5.464,3.808-10.216,8.56-14.032,14.032l-30.472-15.24l-7.16,14.312l30.456,15.232C385.04,427.936,384,433.84,384,440
	c0,30.872,25.128,56,56,56s56-25.128,56-56S470.872,384,440,384z M440,480c-22.056,0-40-17.944-40-40s17.944-40,40-40
	s40,17.944,40,40S462.056,480,440,480z"/>
<path d="M440,416c-13.232,0-24,10.768-24,24s10.768,24,24,24s24-10.768,24-24S453.232,416,440,416z M440,448c-4.416,0-8-3.584-8-8
	s3.584-8,8-8s8,3.584,8,8S444.416,448,440,448z"/>
<path d="M284.04,376.688l-13.592-4.416l-1.36-1.36c-8.8-8.8,1.104-21.48,36.768-64.08c6.664-7.952,14.976-17.88,21.936-26.696
	c-8.816,6.96-18.752,15.272-26.712,21.936c-42.592,35.648-55.28,45.536-64.064,36.76c-8.792-8.792,1.104-21.456,36.76-64.032
	c6.656-7.936,14.944-17.84,21.896-26.64c-8.792,6.952-18.688,15.24-26.624,21.88c-42.592,35.68-55.296,45.552-64.048,36.776
	c-8.792-8.792,1.104-21.456,36.776-64.048c6.632-7.912,14.904-17.792,21.84-26.568c-8.784,6.944-18.656,15.216-26.576,21.848
	c-42.6,35.688-55.28,45.552-64.032,36.784c-8.776-8.784,1.12-21.448,36.792-64.024c6.624-7.896,14.872-17.744,21.808-26.504
	c-8.76,6.928-18.592,15.168-26.488,21.776c-42.584,35.68-55.256,45.6-64.064,36.8c-8.784-8.784,1.112-21.448,36.768-64.024
	c6.632-7.912,14.896-17.784,21.84-26.56c-8.776,6.936-18.624,15.192-26.528,21.824c-42.624,35.712-55.304,45.568-64.056,36.8
	c-8.784-8.792,1.112-21.464,36.792-64.048c13.736-16.408,34.496-41.192,35.944-47.288c-0.184,0.808,0,3.032,1.792,4.832
	l11.312-11.312c8.784,8.792-1.112,21.464-36.792,64.048c-6.624,7.912-14.88,17.776-21.824,26.544
	c8.776-6.944,18.64-15.2,26.544-21.832c42.568-35.664,55.256-45.592,64.032-36.784c8.792,8.792-1.112,21.464-36.8,64.064
	c-6.616,7.904-14.872,17.768-21.816,26.536c8.784-6.944,18.656-15.216,26.568-21.848c42.6-35.68,55.264-45.544,64.024-36.768
	c8.784,8.784-1.12,21.456-36.808,64.04c-6.608,7.888-14.84,17.728-21.776,26.48c8.76-6.92,18.584-15.168,26.48-21.776
	c42.616-35.696,55.304-45.592,64.056-36.792c8.792,8.792-1.104,21.456-36.776,64.048c-6.64,7.928-14.92,17.816-21.864,26.592
	c8.792-6.944,18.672-15.216,26.6-21.856c42.592-35.688,55.288-45.56,64.048-36.776c8.792,8.792-1.104,21.472-36.792,64.072
	c-6.64,7.936-14.936,17.832-21.88,26.632c8.8-6.952,18.712-15.248,26.656-21.896c42.584-35.656,55.256-45.56,64.064-36.76
	c8.8,8.8-1.096,21.464-36.752,64.056c-11.472,13.696-27.832,33.224-33.76,42.856l4.608,1.504L284.04,376.688z"/>
<g>
	<path style="fill:#F0BC5E;" d="M80,208c-2.048,0-4.096-0.784-5.656-2.344l-24-24c-3.128-3.128-3.128-8.184,0-11.312l120-120
		c3.128-3.128,8.184-3.128,11.312,0l24,24c3.128,3.128,3.128,8.184,0,11.312l-120,120C84.096,207.216,82.048,208,80,208z"/>
	<path style="fill:#F0BC5E;" d="M352,416c-1.328,0-2.664-0.328-3.88-1.008l-72-40c-2.192-1.216-3.696-3.4-4.04-5.88
		c-0.352-2.488,0.496-4.992,2.264-6.768l88-88c1.776-1.768,4.296-2.608,6.768-2.264c2.488,0.344,4.664,1.84,5.88,4.04l40,72
		c1.736,3.12,1.184,7.016-1.336,9.536l-56,56C356.12,415.192,354.072,416,352,416z"/>
</g>
<g>
</g>
<g>
</g>
<g>
</g>
<g>
</g>
<g>
</g>
<g>
</g>
<g>
</g>
<g>
</g>
<g>
</g>
<g>
</g>
<g>
</g>
<g>
</g>
<g>
</g>
<g>
</g>
<g>
</g>
</svg>
