<?xml version="1.0" encoding="utf-8"?>
<!-- Generator: Adobe Illustrator 16.0.0, SVG Export Plug-In . SVG Version: 6.00 Build 0)  -->
<!DOCTYPE svg PUBLIC "-//W3C//DTD SVG 1.1//EN" "http://www.w3.org/Graphics/SVG/1.1/DTD/svg11.dtd">
<svg version="1.1" id="Capa_1" xmlns="http://www.w3.org/2000/svg" xmlns:xlink="http://www.w3.org/1999/xlink" x="0px" y="0px"
	 width="560px" height="560px" viewBox="0 0 560 560" enable-background="new 0 0 560 560" xml:space="preserve">
<g>
	<rect x="207.742" y="104.355" fill="#F0BC5E" width="144.516" height="108.387"/>
	<path fill="#F0BC5E" d="M334.193,501.774H225.807c-9.979,0-18.063-8.084-18.063-18.064v-54.194H352.26v54.194
		C352.258,493.69,344.174,501.774,334.193,501.774z"/>
</g>
<path d="M397.419,266.936c0-11.76-7.578-21.695-18.064-25.435V203.71H361.29V95.323h-18.064V5H216.773v54.193h72.259v36.129h-90.323
	v108.387h-18.064V241.5c-10.485,3.74-18.063,13.675-18.063,25.435c0,11.76,7.578,21.695,18.063,25.435v10.694
	c0,11.76,7.578,21.693,18.064,25.435V483.71c0,14.939,12.158,27.097,27.097,27.097h18.064V565h72.258v-54.193h18.064
	c14.938,0,27.097-12.155,27.097-27.097V328.499c10.486-3.739,18.063-13.675,18.063-25.435V292.37
	C389.841,288.631,397.419,278.695,397.419,266.936z M234.839,41.129V23.064h90.322v72.258h-18.064V41.129H234.839z M289.032,113.387
	h54.191v10.089l-19.185,2.403l2.24,17.92l16.942-2.114v17.929l-126.45,15.807v-17.929l91.441-11.435l-2.24-17.92l-89.201,11.146
	v-25.896H289.032L289.032,113.387z M216.773,193.621l126.451-15.806v25.895H216.773V193.621z M361.29,221.774v18.064H198.709
	v-18.064H361.29z M343.226,330.161v90.322H216.773v-90.322H343.226z M234.839,312.097v-18.063h90.322v18.063H234.839z
	 M216.773,312.097h-9.031c-4.986,0-9.033-4.056-9.033-9.03v-9.032h18.064V312.097z M298.063,546.936h-36.13v-36.129h36.13V546.936z
	 M334.193,492.742H225.807c-4.986,0-9.031-4.058-9.031-9.032v-9.032h18.063v-18.063h-18.063V438.55h126.45v18.064h-90.32v18.063
	h90.32v9.032C343.226,488.688,339.18,492.742,334.193,492.742z M352.258,312.097h-9.032v-18.063h18.064v9.032
	C361.29,308.041,357.244,312.097,352.258,312.097z M370.322,275.968H189.677c-4.985,0-9.032-4.056-9.032-9.032
	c0-4.977,4.047-9.032,9.032-9.032h180.646c4.984,0,9.031,4.055,9.031,9.032C379.354,271.912,375.309,275.968,370.322,275.968z"/>
</svg>
