<svg height="496pt" viewBox="0 -80 496 496" width="496pt" xmlns="http://www.w3.org/2000/svg"><path d="m96 104h192v224h-192zm0 0" fill="#f0bc5e"/><path d="m496 200h-32v-16h-40v16h24v48h-24v16h40v-16h32zm-16 32h-16v-16h16zm0 0"/><path d="m400 144h-40v160h40l32-24v-112zm0 0" fill="#f0bc5e"/><path d="m344 32h-8v-8c0-13.230469-10.769531-24-24-24h-224c-10.414062 0-19.214844 6.710938-22.527344 16h-65.472656v48h64v33.472656c-9.289062 3.3125-16 12.113282-16 22.527344v56h-48v128h48v8c0 13.230469 10.769531 24 24 24h240c10.414062 0 19.214844-6.710938 22.527344-16h9.472656c13.230469 0 24-10.769531 24-24v-240c0-13.230469-10.769531-24-24-24zm-24-8v8h-32v64h-176v-80h200c4.40625 0 8 3.585938 8 8zm-232-8h8v80h-16v-72c0-4.414062 3.59375-8 8-8zm-72 32v-16h48v16zm32 144v20.449219c-4.726562-2.753907-10.144531-4.449219-16-4.449219s-11.273438 1.695312-16 4.449219v-20.449219zm0 48c0 8.824219-7.175781 16-16 16s-16-7.175781-16-16 7.175781-16 16-16 16 7.175781 16 16zm-32 48v-20.449219c4.726562 2.753907 10.144531 4.449219 16 4.449219s11.273438-1.695312 16-4.449219v20.449219zm304 24c0 4.414062-3.59375 8-8 8h-200v-152h-16v152h-24c-4.40625 0-8-3.585938-8-8v-192c0-4.414062 3.59375-8 8-8h200v160h16v-160h24c4.40625 0 8 3.585938 8 8zm32-16c0 4.414062-3.59375 8-8 8h-8v-184c0-13.230469-10.769531-24-24-24h-8v-48h40c4.40625 0 8 3.585938 8 8zm0 0"/><path d="m272 288h16v16h-16zm0 0"/><path d="m96 136h16v16h-16zm0 0"/></svg>