<svg height="496pt" viewBox="-56 0 496 496" width="496pt" xmlns="http://www.w3.org/2000/svg"><g fill="#f0bc5e"><path d="m312 440-7.039062 48h-80.960938l8-48h68.320312c3.917969 0 7.679688-.480469 11.28125-1.519531zm0 0"/><path d="m83.679688 440h68.320312l8 48h-80.960938l-7.039062-48 .398438-1.519531c3.601562 1.039062 7.363281 1.519531 11.28125 1.519531zm0 0"/><path d="m319.199219 314.640625c-10.640625 35.4375-31.519531 66.878906-59.917969 90.640625-11.839844 1.839844-23.761719 2.71875-35.761719 2.71875h-63.039062c-12 0-23.921875-.878906-35.761719-2.71875-28.398438-23.761719-49.277344-55.203125-59.917969-90.640625 3.277344-1.679687 6.960938-2.640625 10.878907-2.640625h232.640624c3.917969 0 7.601563.960938 10.878907 2.640625zm0 0"/><path d="m192 144c-30.871094 0-56-25.128906-56-56s25.128906-56 56-56 56 25.128906 56 56-25.128906 56-56 56zm0 0"/></g><path d="m168 64h48v16h-48zm0 0"/><path d="m168 96h48v16h-48zm0 0"/><path d="m384 315.199219c0-13.800781-3.265625-27.613281-9.433594-39.960938-5.933594-11.863281-17.871094-19.238281-31.140625-19.238281-.945312 0-1.882812.113281-2.824219.191406l8.878907-32.558594c6.984375-25.585937 10.519531-52.007812 10.519531-78.527343 0-7.058594-1.328125-13.960938-3.960938-20.539063l-.726562-1.824218c-7.015625-17.535157-22.144531-29.773438-40.089844-33.460938 3.128906-7.730469 4.777344-16.015625 4.777344-24.394531 0-35.773438-29.113281-64.886719-64.886719-64.886719h-126.226562c-35.773438 0-64.886719 29.113281-64.886719 64.886719 0 8.378906 1.648438 16.664062 4.777344 24.386719-17.9375 3.6875-33.074219 15.925781-40.082032 33.445312l-.742187 1.855469c-2.625 6.570312-3.953125 13.472656-3.953125 20.53125 0 26.519531 3.535156 52.941406 10.511719 78.527343l8.878906 32.558594c-.933594-.078125-1.871094-.191406-2.816406-.191406-13.269531 0-25.207031 7.375-31.140625 19.238281-6.167969 12.347657-9.433594 26.167969-9.433594 39.960938 0 25.535156 8.785156 50.585937 24.734375 70.527343l7.335937 9.160157c-.015624.488281-.070312.960937-.070312 1.441406 0 21.726563 13.503906 40.335937 32.542969 47.960937l7.609375 51.710938h239.703125l7.601562-51.710938c19.039063-7.625 32.542969-26.234374 32.542969-47.960937 0-.480469-.054688-.953125-.070312-1.433594l7.335937-9.160156c15.949219-19.941406 24.734375-44.992187 24.734375-70.535156zm-23.742188-32.800781c5.0625 10.128906 7.742188 21.472656 7.742188 32.800781 0 20.976562-6.96875 41.511719-19.550781 58.242187l-8.746094-43.722656c-2.984375-14.894531-16.183594-25.71875-31.375-25.71875h-4.328125v-11.472656l29.753906-17.847656c2.917969-1.75 6.261719-2.679688 9.671875-2.679688 7.175781 0 13.621094 3.984375 16.832031 10.398438zm-260.53125-18.398438h140.273438v-16h-140.265625c-2.367187-3.28125-3.734375-7.246094-3.734375-11.3125v-9.375c0-4.066406 1.367188-8.03125 3.734375-11.3125h140.265625v-16h-140.265625c-2.367187-3.28125-3.734375-7.246094-3.734375-11.3125v-14.054688c0-11.394531 4.105469-22.136718 11.527344-30.632812h24.664062c13.3125 19.847656 35.808594 32 59.800782 32 23.992187 0 46.496093-12.152344 59.800781-32h24.664062c7.4375 8.496094 11.542969 19.230469 11.542969 30.632812v14.054688c0 4.066406-1.367188 8.03125-3.734375 11.3125h-28.265625v16h28.265625c2.367187 3.28125 3.734375 7.246094 3.734375 11.3125v9.375c0 4.066406-1.367188 8.03125-3.734375 11.3125h-28.265625v16h28.273438c2.382812 3.28125 3.726562 7.183594 3.726562 11.3125v28.6875h-192v-28.6875c0-4.128906 1.34375-8.03125 3.726562-11.3125zm208.601563 56c7.601563 0 14.199219 5.414062 15.6875 12.863281l8.082031 40.382813c-33.472656 17.457031-70.792968 26.753906-108.59375 26.753906h-63.007812c-37.800782 0-75.121094-9.296875-108.59375-26.753906l8.082031-40.382813c1.496094-7.449219 8.09375-12.863281 15.6875-12.863281zm32.136719-191.304688.726562 1.816407c1.863282 4.664062 2.808594 9.578125 2.808594 14.59375 0 25.101562-3.34375 50.109375-9.953125 74.320312l-11.871094 43.542969-18.273437 10.960938c-.246094-6.457032-2.148438-12.617188-5.636719-17.929688 3.734375-5.6875 5.734375-12.34375 5.734375-19.3125v-9.375c0-6.96875-2-13.625-5.734375-19.3125 3.734375-5.6875 5.734375-12.34375 5.734375-19.3125v-14.054688c0-14.648437-4.992188-28.527343-14.175781-39.6875l17.535156-30.6875c14.738281 1.246094 27.519531 10.484376 33.105469 24.4375zm-211.578125-112.695312h126.21875c26.957031 0 48.894531 21.9375 48.894531 48.886719 0 8.496093-2.222656 16.890625-6.441406 24.257812l-22.207032 38.855469h-32.597656l-2.3125 3.992188c-10 17.273437-28.570312 28.007812-48.441406 28.007812s-38.441406-10.734375-48.449219-28.007812l-2.3125-3.992188h-32.597656l-22.199219-38.855469c-4.21875-7.367187-6.441406-15.753906-6.441406-24.257812 0-26.949219 21.9375-48.886719 48.886719-48.886719zm-86.085938 114.527344.742188-1.847656c5.570312-13.9375 18.359375-23.183594 33.097656-24.433594l17.535156 30.691406c-9.183593 11.167969-14.175781 25.046875-14.175781 39.695312v14.054688c0 6.96875 2 13.625 5.734375 19.3125-3.734375 5.6875-5.734375 12.34375-5.734375 19.3125v9.375c0 6.96875 2 13.625 5.734375 19.3125-3.476563 5.3125-5.390625 11.480469-5.636719 17.929688l-18.273437-10.960938-11.878907-43.542969c-6.601562-24.21875-9.945312-49.226562-9.945312-74.320312 0-5.015625.945312-9.929688 2.800781-14.578125zm-26.800781 184.671875c0-11.328125 2.679688-22.671875 7.742188-32.808594 3.210937-6.414063 9.65625-10.398437 16.832031-10.398437 3.410156 0 6.753906.929687 9.671875 2.679687l29.753906 17.855469v11.472656h-4.328125c-15.199219 0-28.390625 10.824219-31.375 25.726562l-8.746094 43.722657c-12.582031-16.738281-19.550781-37.273438-19.550781-58.25zm282.03125 164.800781h-212.0625l-4.730469-32.121094c.816407.03125 1.617188.121094 2.433594.121094h216.648437c.824219 0 1.625-.089844 2.433594-.121094zm2.296875-48h-216.65625c-19.671875 0-35.671875-16-35.671875-35.671875 0-2.25.238281-4.496094.664062-6.703125 34.664063 17.253906 73.023438 26.375 111.832032 26.375h63.007812c38.808594 0 77.167969-9.121094 111.832032-26.375.425781 2.207031.664062 4.464844.664062 6.703125 0 19.671875-16 35.671875-35.671875 35.671875zm0 0"/></svg>