<?xml version="1.0" encoding="utf-8"?>
<!-- Generator: Adobe Illustrator 16.0.0, SVG Export Plug-In . SVG Version: 6.00 Build 0)  -->
<!DOCTYPE svg PUBLIC "-//W3C//DTD SVG 1.1//EN" "http://www.w3.org/Graphics/SVG/1.1/DTD/svg11.dtd">
<svg version="1.1" id="Capa_1" xmlns="http://www.w3.org/2000/svg" xmlns:xlink="http://www.w3.org/1999/xlink" x="0px" y="0px"
	 width="512px" height="512px" viewBox="0 0 512 512" enable-background="new 0 0 512 512" xml:space="preserve">
<rect x="148.5" y="81.867" fill="#F0BC5E" stroke="#000000" stroke-miterlimit="10" width="107.5" height="90.633"/>
<rect x="101.5" y="179.5" fill="#F0BC5E" stroke="#000000" stroke-miterlimit="10" width="192" height="142"/>
<rect x="76.5" y="267.5" fill="#F0BC5E" stroke="#000000" stroke-miterlimit="10" width="49" height="65"/>
<rect x="272.5" y="267.5" fill="#F0BC5E" stroke="#000000" stroke-miterlimit="10" width="50" height="65"/>
<path d="M267.574,0H131.039c-18.844,0.02-34.113,15.289-34.133,34.133v13.078C35.695,96.328,36.41,165.512,37.055,216.309
	c0.059,4.875,0.117,9.582,0.117,14.09c0,16.305-8.09,33.352-16.656,51.402c-16.375,34.504-34.934,73.609,1.648,116.285
	c12.52,14.055,27.707,25.484,44.672,33.629l-14.215,47.395c-2.293,7.75-0.793,16.129,4.043,22.602
	C61.504,508.188,69.113,512,77.195,512h244.223c8.086,0.004,15.699-3.813,20.539-10.293c4.836-6.484,6.328-14.867,4.027-22.621
	l-14.207-47.371c16.969-8.145,32.152-19.57,44.676-33.621c36.582-42.68,18.023-81.785,1.648-116.289
	c-8.57-18.055-16.66-35.102-16.66-51.406c0-4.508,0.055-9.215,0.113-14.09c0.648-50.797,1.367-119.98-59.848-169.098V34.133
	C301.688,15.289,286.418,0.02,267.574,0z M284.641,34.133v68.266c0.082,14.602-6.137,28.527-17.066,38.211V128
	c0.004-12.207-3.758-24.121-10.77-34.113c-3.523-11.074-5.641-22.551-6.297-34.152c0.09-3.934,0.426-7.852,1-11.742
	c2.059-10.32,1.301-21-2.191-30.926h18.258C276.992,17.078,284.629,24.711,284.641,34.133z M199.305,384
	c-11.645,0.242-23.258,1.305-34.758,3.176c-23.891,3.336-45.055,6.238-66.027-7.426c2.859-9.203,6.617-18.102,11.219-26.57
	c0.598,0.957,1.266,1.871,2,2.73c7.254,7.563,17.441,11.598,27.906,11.047c8.383-0.164,16.672-1.797,24.488-4.832
	c22.664-8.742,47.77-8.73,70.426,0.031c7.773,2.969,16,4.582,24.32,4.77c10.406,0.543,20.543-3.402,27.844-10.836
	c0.793-0.922,1.512-1.898,2.156-2.93c4.602,8.473,8.363,17.379,11.227,26.586c-20.98,13.668-42.148,10.758-66.035,7.426
	C222.57,385.301,210.953,384.238,199.305,384z M108.047,183.859c10.328-5.555,19.727-4.977,34.391,2.09
	c0.234,0.117,1.016,0.492,1.258,0.586l0.594,0.297c0.578,0.234,1.184,0.398,1.801,0.488l-18.996,85.492l-14.254-11.879
	c-1.031-0.844-2.133-1.605-3.285-2.277C103.078,208.18,105.59,187.891,108.047,183.859z M164.039,45.875
	c-1.426-11.395-2.383-19.902,4.98-28.809h60.57c7.367,8.906,6.41,17.414,4.984,28.809c-0.672,4.59-1.047,9.219-1.133,13.859
	c0.105,5.07,0.617,10.125,1.523,15.113c-8.391-4.32-17.688-6.578-27.125-6.582h-17.066c-9.438,0.004-18.734,2.262-27.125,6.582
	c0.906-4.988,1.418-10.043,1.523-15.113C165.086,55.094,164.707,50.465,164.039,45.875z M124.215,343.895
	c2.043-0.422,3.863-1.574,5.117-3.238l2.051-2.73l0.008-0.008l2.426-3.242c0.113,0.039,0.223,0.098,0.344,0.133
	c7.043,1.457,14.371,0.602,20.891-2.445c28.52-10.793,59.996-10.793,88.516,0c6.52,3.047,13.848,3.902,20.895,2.445
	c0.109-0.035,0.195-0.125,0.305-0.16l4.52,6.027c1.262,1.68,3.094,2.832,5.152,3.242l0.043,0.012
	c-0.117,0.234-0.246,0.461-0.387,0.68c-4.113,3.809-9.633,5.719-15.219,5.258c-6.32-0.191-12.563-1.453-18.461-3.734
	c-26.449-10.148-55.719-10.156-82.176-0.016c-23.859,8.703-32.734-0.387-33.824-1.629c-0.164-0.172-0.313-0.355-0.449-0.547
	L124.215,343.895z M256.164,318.207c-2.297-0.41-4.555-1.035-6.734-1.867c-32.305-12.18-67.945-12.18-100.25,0
	c-2.172,0.824-4.418,1.453-6.703,1.871c2.57-9.184,1.93-18.969-1.82-27.734l22.824-102.742h71.652l22.863,102.918
	C254.34,299.379,253.695,309.074,256.164,318.207z M241.973,170.668h-85.332c-4.711-0.004-8.531-3.824-8.535-8.535V128
	c0.027-23.551,19.113-42.641,42.668-42.668h17.066c23.551,0.027,42.637,19.117,42.668,42.668v34.133
	C250.504,166.844,246.684,170.664,241.973,170.668z M91.113,273.723c0.801-0.578,1.684-1.027,2.621-1.332
	c1.648,0.723,3.496,0.871,5.238,0.422c0.156-0.039,0.27-0.152,0.422-0.199c0.906,0.281,1.742,0.75,2.453,1.375l15.867,13.215
	c9.707,8.059,12.059,22.004,5.531,32.801c-0.398,0.785-0.879,1.531-1.434,2.219l-4.086,5.457l-5.297,1.195l-18.871,3.754
	c-4.344,0.848-8.613-1.754-9.859-6l-6.238-22.059c-2.871-10.195,0.789-21.109,9.23-27.512L91.113,273.723z M280.98,327.824
	l-4.191-5.582c-8.184-10.898-6.391-26.301,4.082-35.023l15.934-13.273c3.035-2.539,7.418-2.652,10.578-0.27l4.547,3.41
	c8.453,6.391,12.125,17.309,9.25,27.512l-6.289,22.016c-1.246,4.254-5.523,6.863-9.875,6.023L280.98,327.824z M289.063,258.609
	c-1.113,0.66-2.18,1.406-3.18,2.227l-14.367,11.961l-19.375-87.195c0.586-0.258,1.109-0.613,1.668-0.91l1.109,1.84l1.258-0.586
	c14.66-7.051,24.078-7.645,34.391-2.09C293.023,187.887,295.531,208.16,289.063,258.609z M113.973,34.133
	c0.012-9.422,7.645-17.055,17.066-17.066h18.258c-3.496,9.926-4.25,20.605-2.191,30.926c0.574,3.891,0.91,7.809,1,11.742
	c-0.656,11.602-2.773,23.078-6.297,34.152c-7.012,9.992-10.773,21.906-10.77,34.113v12.609
	c-10.93-9.684-17.148-23.609-17.066-38.211V34.133z M96.906,69.973v32.426c-0.102,24.359,12.945,46.879,34.133,58.902v0.832
	c0,0.676,0.148,1.309,0.199,1.973c-10.973-2.363-22.434-0.516-32.105,5.18c-5.004,2.805-14.75,8.336-9.109,68.484
	c-10.242-8.418-22.688-13.723-35.852-15.285c-0.023-2.141-0.027-4.184-0.059-6.391C53.535,169.711,52.969,113.023,96.906,69.973z
	 M53.547,239.672c12.547,1.215,23.969,7.758,31.359,17.965c-1.391,0.684-2.723,1.48-3.977,2.391l-4.531,3.422
	c-14.043,10.672-20.133,28.848-15.352,45.824l6.25,22.063c3.207,10.941,13.223,18.48,24.625,18.535c0.094,0,0.191-0.027,0.285-0.027
	c-2.961,5.906-5.559,11.988-7.781,18.207c-18.07-18.082-39.762-32.141-63.645-41.254c3.875-13.004,8.945-25.613,15.148-37.68
	C44.293,273.633,50.234,256.957,53.547,239.672z M329.621,483.965c0.766,2.586,0.266,5.383-1.352,7.543
	c-1.613,2.16-4.156,3.43-6.852,3.426H77.195c-2.695,0.004-5.23-1.262-6.848-3.418c-1.617-2.152-2.125-4.941-1.371-7.527
	l13.555-45.199c37.395,13.914,76.883,21.355,116.773,22.012c39.891-0.656,79.379-8.098,116.773-22.012L329.621,483.965z
	 M363.5,386.98c-48.02,56.02-163.043,56.754-164.195,56.754c-1.148,0-116.172-0.734-164.191-56.754
	c-10.902-11.598-16.938-26.941-16.859-42.859c20.828,8.621,39.719,21.328,55.551,37.375c15.738,16.82,37.906,26.125,60.934,25.57
	c10.781-0.246,21.531-1.246,32.176-2.988c10.715-1.754,21.539-2.758,32.391-3.012c10.855,0.254,21.68,1.262,32.395,3.012
	c10.641,1.742,21.391,2.742,32.168,2.992c23.031,0.555,45.199-8.75,60.938-25.57c15.832-16.047,34.723-28.758,55.555-37.375
	c0.078,15.918-5.957,31.258-16.863,42.855H363.5z M362.684,289.117c6.203,12.063,11.277,24.676,15.148,37.676
	c-23.883,9.117-45.57,23.176-63.641,41.258c-2.223-6.223-4.824-12.305-7.785-18.215c0.074,0,0.148,0.023,0.219,0.023
	c11.434-0.031,21.48-7.586,24.684-18.559l6.293-22.016c4.777-17.004-1.344-35.195-15.426-45.852l-4.551-3.414
	c-1.207-0.898-2.488-1.695-3.836-2.371c7.367-10.203,18.758-16.75,31.277-17.977c3.316,17.285,9.254,33.957,17.613,49.445H362.684z
	 M344.5,216.094c-0.031,2.227-0.035,4.285-0.055,6.438c-13.129,1.5-25.555,6.711-35.828,15.016
	c5.594-59.949-4.141-65.461-9.148-68.273c-9.668-5.688-21.117-7.547-32.086-5.203c0.043-0.652,0.191-1.273,0.191-1.938v-0.832
	c21.184-12.023,34.234-34.543,34.133-58.902V69.973c43.938,43.051,43.367,99.738,42.789,146.121H344.5z"/>
</svg>
