<?xml version="1.0" encoding="utf-8"?>
<!-- Generator: Adobe Illustrator 16.0.0, SVG Export Plug-In . SVG Version: 6.00 Build 0)  -->
<!DOCTYPE svg PUBLIC "-//W3C//DTD SVG 1.1//EN" "http://www.w3.org/Graphics/SVG/1.1/DTD/svg11.dtd">
<svg version="1.1" id="Capa_1" xmlns="http://www.w3.org/2000/svg" xmlns:xlink="http://www.w3.org/1999/xlink" x="0px" y="0px"
	 width="368px" height="368px" viewBox="0 0 368 368" enable-background="new 0 0 368 368" xml:space="preserve">
<path fill="#F0BC5E" d="M360,0c-4.426,0-8,3.574-8,8v160.137c-11.793-22.066-29.527-40.418-51.008-53.129
	c-11.703-19.77-28.23-36.297-48-48C229.297,26.977,185.793,0,136,0C61.008,0,0,61.008,0,136v224c0,4.426,3.574,8,8,8s8-3.574,8-8
	V199.863c11.793,22.066,29.527,40.418,51.008,53.129c11.703,19.77,28.23,36.297,48,48C138.703,341.023,182.207,368,232,368
	c74.992,0,136-61.008,136-136V8C368,3.574,364.426,0,360,0z M271.207,101.816c-1.313-0.391-2.672-0.672-3.992-1.031
	c-0.359-1.328-0.629-2.688-1.031-3.992C267.902,98.414,269.586,100.098,271.207,101.816z M304,184c0,66.168-53.832,120-120,120
	c-20.77,0-40.313-5.313-57.367-14.633c-3.234-5.91-5.879-12.16-8.09-18.613C124.273,271.488,130.07,272,136,272
	c74.992,0,136-61.008,136-136c0-5.93-0.512-11.727-1.246-17.457c6.453,2.211,12.711,4.863,18.613,8.09
	C298.688,143.688,304,163.23,304,184z M64,184c0-66.168,53.832-120,120-120c20.77,0,40.313,5.313,57.367,14.633
	c3.234,5.91,5.879,12.16,8.09,18.613C243.727,96.512,237.93,96,232,96c-74.992,0-136,61.008-136,136
	c0,5.93,0.512,11.727,1.246,17.457c-6.453-2.211-12.711-4.863-18.613-8.09C69.313,224.313,64,204.77,64,184z M112,232
	c0-66.168,53.832-120,120-120c7.488,0,14.793,0.777,21.902,2.098C255.223,121.207,256,128.512,256,136c0,66.168-53.832,120-120,120
	c-7.488,0-14.793-0.777-21.902-2.098C112.777,246.793,112,239.488,112,232z M16,136C16,69.832,69.832,16,136,16
	c34.359,0,65.313,14.594,87.207,37.816C210.785,50.063,197.633,48,184,48c-74.992,0-136,61.008-136,136
	c0,13.633,2.063,26.785,5.816,39.207C30.594,201.313,16,170.359,16,136z M96.793,266.184c1.313,0.391,2.672,0.672,3.992,1.031
	c0.359,1.328,0.629,2.688,1.031,3.992C100.098,269.586,98.414,267.902,96.793,266.184z M232,352
	c-34.359,0-65.313-14.594-87.207-37.816C157.215,317.938,170.367,320,184,320c74.992,0,136-61.008,136-136
	c0-13.633-2.063-26.785-5.816-39.207C337.406,166.688,352,197.641,352,232C352,298.168,298.168,352,232,352z"/>
</svg>
