<?xml version="1.0" encoding="utf-8"?>
<!-- Generator: Adobe Illustrator 16.0.0, SVG Export Plug-In . SVG Version: 6.00 Build 0)  -->
<!DOCTYPE svg PUBLIC "-//W3C//DTD SVG 1.1//EN" "http://www.w3.org/Graphics/SVG/1.1/DTD/svg11.dtd">
<svg version="1.1" id="Layer_5" xmlns="http://www.w3.org/2000/svg" xmlns:xlink="http://www.w3.org/1999/xlink" x="0px" y="0px"
	 width="512px" height="512px" viewBox="0 0 512 512" enable-background="new 0 0 512 512" xml:space="preserve">
<rect x="400" y="280" fill="#F0BC5E" stroke="#000000" stroke-miterlimit="10" width="64" height="48"/>
<rect x="72" y="456" fill="#F0BC5E" stroke="#000000" stroke-miterlimit="10" width="16" height="32"/>
<rect x="152" y="456" fill="#F0BC5E" stroke="#000000" stroke-miterlimit="10" width="16" height="32"/>
<rect x="388.5" y="376" fill="#F0BC5E" stroke="#000000" stroke-miterlimit="10" width="83.5" height="64"/>
<rect x="19.712" y="267.396" fill="#F0BC5E" stroke="#000000" stroke-miterlimit="10" width="197.788" height="47.104"/>
<path d="M504,356.688l-24-24V264h-40v-92C440,81.568,366.432,8,276,8c-0.672,0-1.328,0.096-2,0.104C273.328,8.088,272.672,8,272,8
	c-7.96,0-15.712,0.864-23.2,2.448C171.296,23.472,112,90.856,112,172v28H72v64H32c-13.232,0-24,10.768-24,24v16
	c0,10.416,6.712,19.216,16,22.528v91.368L43.056,456H56v48h48v-48h32v48h48v-48h12.944L216,417.888v-91.359
	c9.288-3.313,16-12.112,16-22.528v-16c0-13.232-10.768-24-24-24h-40v-64h-40v-28c0-42.64,18.232-81.008,47.184-108.04
	C165.584,80.464,160,99.568,160,120c0,61.76,50.24,112,112,112s112-50.24,112-112c0-26.728-9.439-51.272-25.12-70.544
	C398.145,76.096,424,121.08,424,172v92h-40v68.688l-24,24V376h16v80h16v48h80v-48h16v-80h16V356.688z M40,408v-80h160v80H40z
	 M88,488H72v-32h16V488z M168,488h-16v-32h16V488z M52.944,440l-8-16h150.112l-8,16H52.944z M216,288v16c0,4.416-3.592,8-8,8H32
	c-4.408,0-8-3.584-8-8v-16c0-4.416,3.592-8,8-8h176C212.408,280,216,283.584,216,288z M152,264H88v-48h64V264z M272,216
	c-52.936,0-96-43.064-96-96c0-46.08,32.648-84.656,76.024-93.88C259.2,24.944,266.52,24.2,274,24.096
	c52.008,1.088,94,43.64,94,95.904C368,172.936,324.936,216,272,216z M464,280v48h-64v-48H464z M395.313,344h73.376l16,16H379.313
	L395.313,344z M456,488h-48v-32h48V488z M472,440h-32v-16h-16v16h-32v-64h32v32h16v-32h32V440z"/>
<path d="M272,40c-44.112,0-80,35.888-80,80s35.888,80,80,80c44.111,0,80-35.888,80-80S316.111,40,272,40z M272,184
	c-35.288,0-64-28.712-64-64s28.712-64,64-64s64,28.712,64,64S307.288,184,272,184z"/>
<path d="M56,344h16v16H56V344z"/>
<path d="M88,344h16v16H88V344z"/>
<path d="M120,344h16v16h-16V344z"/>
</svg>
