<?xml version="1.0" encoding="utf-8"?>
<!-- Generator: Adobe Illustrator 16.0.0, SVG Export Plug-In . SVG Version: 6.00 Build 0)  -->
<!DOCTYPE svg PUBLIC "-//W3C//DTD SVG 1.1//EN" "http://www.w3.org/Graphics/SVG/1.1/DTD/svg11.dtd">
<svg version="1.1" id="Capa_1" xmlns="http://www.w3.org/2000/svg" xmlns:xlink="http://www.w3.org/1999/xlink" x="0px" y="0px"
	 width="560px" height="560px" viewBox="200 0 560 560" enable-background="new 200 0 560 560" xml:space="preserve">
<path fill="#F0BC5E" d="M495.545,469.678h-31.08l-6.513-19.537c-15.003-1.941-29.707-5.897-43.86-11.813l-15.463,13.711
	l-26.916-15.544l4.155-20.27c-12.085-9.23-22.833-19.987-32.083-32.072l-20.269,4.146l-15.544-26.916l13.711-15.464
	c-5.907-14.153-9.872-28.857-11.814-43.86l-19.545-6.512v-31.081l19.537-6.512c1.942-15.002,5.898-29.707,11.814-43.86
	l-13.711-15.463l15.544-26.916l20.269,4.146c9.24-12.085,19.998-22.833,32.083-32.073l-4.155-20.269l26.916-15.544l15.463,13.711
	c14.154-5.907,28.858-9.872,43.861-11.814l6.512-19.545h31.08l6.513,19.537c15.002,1.942,29.707,5.898,43.86,11.814l15.464-13.711
	l26.916,15.544l-4.146,20.269c12.076,9.231,22.834,19.998,32.074,32.074l20.269-4.146l15.545,26.916l-13.711,15.463
	c5.906,14.154,9.872,28.858,11.813,43.861l19.546,6.512v31.08l-19.537,6.513c-1.941,15.003-5.897,29.707-11.813,43.86l13.711,15.464
	l-15.544,26.916l-20.27-4.146c-9.23,12.075-19.997,22.834-32.072,32.073l4.146,20.27l-26.916,15.544l-15.464-13.711
	c-14.145,5.907-28.856,9.872-43.86,11.813L495.545,469.678z"/>
<g>
	<rect x="443.871" y="27.097" width="18.063" height="18.064"/>
	<rect x="498.063" y="27.097" width="18.064" height="18.064"/>
	<rect x="579.354" y="27.097" width="18.063" height="18.064"/>
	<rect x="633.549" y="27.097" width="18.064" height="18.064"/>
	<path d="M760,18.064V0h-27.097h-9.032h-81.29h-54.194h-81.29h-9.031h-45.161c-5.239,0-10.181,1.174-14.679,3.179
		c-20.61,3.089-40.934,8.536-60.461,16.204c-4.977,0.524-9.836,2.005-14.298,4.579L316.534,51.06
		c-4.534,2.619-8.237,6.115-11.128,10.107c-16.313,12.998-31.188,27.855-44.249,44.249c-4.055,2.944-7.523,6.657-10.098,11.127
		l-27.097,46.923c-2.619,4.543-4.073,9.42-4.579,14.325c-7.641,19.419-13.088,39.733-16.204,60.444
		c-2.005,4.489-3.179,9.438-3.179,14.668v54.193c0,5.239,1.174,10.188,3.188,14.688c3.089,20.63,8.535,40.942,16.195,60.462
		c0.506,4.896,1.96,9.764,4.579,14.289l27.097,46.923c2.583,4.471,6.061,8.201,10.125,11.137
		c12.998,16.321,27.864,31.188,44.24,44.249c2.891,3.983,6.584,7.471,11.11,10.089l46.932,27.098
		c4.507,2.602,9.42,4.119,14.442,4.625c19.365,7.613,39.634,13.033,60.316,16.158c4.489,2.015,9.438,3.188,14.679,3.188h45.16h9.032
		h81.29h54.194h81.29h9.032H760v-18.064h-27.097h-9.032c-9.963,0-18.064-8.102-18.064-18.063s8.103-18.064,18.064-18.064h9.032H760
		v-18.063h-27.097h-9.032h-81.29h-54.194h-81.29h-9.031h-45.161c-7.659,0-14.74,2.43-20.595,6.512l-17.675-3.612
		c-2.963-6.974-7.994-13.114-15.039-17.188l-46.932-27.097c-6.629-3.83-13.982-5.258-21.09-4.651l-13.494-11.959
		c0.958-7.741-0.47-15.536-4.444-22.409l-27.097-46.923c-3.83-6.63-9.475-11.552-15.933-14.578l-5.708-17.116
		c4.561-6.052,7.361-13.484,7.361-21.623v-54.192c0-7.659-2.43-14.75-6.521-20.603l3.595-17.55
		c6.991-2.954,13.133-8.093,17.215-15.156l27.097-46.922c3.739-6.485,5.292-13.792,4.661-21.1l11.868-13.386
		c1.49,0.19,2.99,0.289,4.498,0.289c6.124,0,12.329-1.554,18.001-4.823l46.932-27.097l0,0c6.629-3.83,11.543-9.484,14.569-15.951
		l17.107-5.699c6.052,4.552,13.484,7.352,21.623,7.352h45.161h9.031h81.29h54.194h81.29h9.032H760V54.193h-27.097h-9.032
		c-9.963,0-18.064-8.102-18.064-18.064s8.103-18.064,18.064-18.064h9.032L760,18.064L760,18.064z M557.28,18.064
		c-3.107,5.338-5.022,11.453-5.022,18.064c0,6.612,1.915,12.727,5.022,18.064h-19.086c3.115-5.338,5.03-11.453,5.03-18.064
		c0-6.611-1.915-12.727-5.021-18.064H557.28z M419.493,49.795l-2.177,0.723c-0.596-4.57-2.06-9.096-4.499-13.332
		c-1.842-3.188-4.218-5.898-6.846-8.328c4.173-1.228,8.364-2.357,12.582-3.369c-1.048,3.387-1.779,6.909-1.779,10.64
		C416.774,40.97,417.768,45.568,419.493,49.795z M254.193,307.097c0,9.963-8.102,18.064-18.064,18.064s-18.064-8.103-18.064-18.064
		v-54.193c0-9.963,8.102-18.064,18.064-18.064c9.963,0,18.064,8.102,18.064,18.064V307.097z M236.129,216.774
		c-3.73,0-7.253,0.731-10.64,1.779c1.021-4.236,2.149-8.427,3.378-12.6c2.402,2.61,5.094,5.004,8.328,6.864
		c4.191,2.412,8.671,3.884,13.187,4.489l-0.452,2.222C245.667,217.768,241.016,216.774,236.129,216.774z M228.867,354.047
		c-1.229-4.174-2.357-8.373-3.378-12.601c3.387,1.048,6.91,1.778,10.64,1.778c4.833,0,9.439-0.992,13.657-2.719l0.723,2.177
		c-4.57,0.598-9.095,2.061-13.323,4.498C233.961,349.043,231.27,351.438,228.867,354.047z M412.818,522.814
		c2.421-4.191,3.866-8.672,4.471-13.196l2.249,0.461c-1.771,4.254-2.764,8.905-2.764,13.792c0,3.729,0.731,7.253,1.779,10.64
		c-4.227-1.021-8.418-2.141-12.582-3.369C408.6,528.703,410.984,526.003,412.818,522.814z M538.204,541.936
		c3.105-5.338,5.021-11.452,5.021-18.063s-1.915-12.728-5.021-18.064h19.085c-3.116,5.338-5.031,11.453-5.031,18.064
		s1.915,12.727,5.022,18.063H538.204z M692.764,541.936h-19.085c3.116-5.338,5.031-11.452,5.031-18.063s-1.915-12.728-5.021-18.064
		h19.085c-3.115,5.338-5.03,11.453-5.03,18.064S689.657,536.598,692.764,541.936z M642.581,505.807
		c9.962,0,18.064,8.103,18.064,18.064s-8.104,18.064-18.064,18.064h-54.194c-9.962,0-18.063-8.103-18.063-18.064
		s8.103-18.064,18.063-18.064H642.581L642.581,505.807z M452.903,505.807h45.161h9.031c9.963,0,18.064,8.103,18.064,18.064
		s-8.103,18.064-18.064,18.064h-9.031h-45.161c-9.963,0-18.064-8.103-18.064-18.064S442.94,505.807,452.903,505.807z M343.631,462
		l46.932,27.097c8.626,4.986,11.598,16.052,6.621,24.677c-2.42,4.183-6.313,7.172-10.974,8.419
		c-4.679,1.245-9.538,0.604-13.711-1.808l-46.932-27.097c-4.173-2.412-7.163-6.305-8.418-10.966
		c-1.247-4.669-0.605-9.528,1.797-13.711c3.351-5.789,9.43-9.032,15.68-9.032C337.697,459.588,340.795,460.365,343.631,462z
		 M310.916,447.53l1.68,1.489c-3.658,2.801-6.847,6.332-9.294,10.56c-1.86,3.225-2.999,6.647-3.775,10.106
		c-3.116-2.963-6.16-6.007-9.123-9.123c3.468-0.794,6.837-2.059,10.008-3.884C304.54,454.313,308.08,451.188,310.916,447.53z
		 M297.991,416.369c2.42,4.182,3.053,9.05,1.806,13.72c-1.247,4.661-4.236,8.554-8.418,10.966
		c-4.173,2.411-9.032,3.063-13.711,1.807c-4.661-1.255-8.554-4.245-10.965-8.428l-27.097-46.923
		c-4.977-8.626-2.014-19.708,6.612-24.676c2.836-1.644,5.934-2.421,9.005-2.421c6.25,0,12.338,3.243,15.671,9.032L297.991,416.369z
		 M297.991,143.631l-27.097,46.923c-4.986,8.635-16.041,11.606-24.676,6.611c-8.626-4.977-11.588-16.05-6.612-24.676l27.097-46.923
		c2.412-4.182,6.305-7.171,10.965-8.427c1.553-0.416,3.134-0.614,4.706-0.614c3.134,0,6.214,0.822,9.005,2.43
		c4.182,2.411,7.171,6.304,8.418,10.965C301.053,134.581,300.412,139.449,297.991,143.631z M311.006,112.569
		c-2.845-3.703-6.422-6.855-10.595-9.258c-3.188-1.833-6.603-2.99-10.089-3.785c2.999-3.152,6.069-6.223,9.213-9.213
		c0.777,3.459,1.915,6.883,3.775,10.107c2.42,4.191,5.573,7.686,9.186,10.477L311.006,112.569z M390.563,70.903L343.631,98
		c-8.635,4.977-19.699,2.005-24.676-6.612c-2.412-4.182-3.053-9.041-1.807-13.711c1.247-4.661,4.236-8.553,8.418-10.965
		l46.94-27.097c2.782-1.617,5.871-2.438,8.997-2.438c1.571,0,3.152,0.208,4.706,0.623c4.661,1.247,8.554,4.236,10.965,8.418
		C402.151,54.844,399.188,65.917,390.563,70.903z M498.063,54.193h-45.16c-9.963,0-18.064-8.102-18.064-18.064
		s8.103-18.064,18.064-18.064h45.16h9.032c9.963,0,18.064,8.102,18.064,18.064c0,9.963-8.103,18.064-18.064,18.064H498.063z
		 M588.387,54.193c-9.962,0-18.063-8.102-18.063-18.064s8.103-18.064,18.063-18.064h54.194c9.962,0,18.064,8.102,18.064,18.064
		c0,9.963-8.104,18.064-18.064,18.064H588.387z M692.764,54.193h-19.085c3.116-5.338,5.031-11.453,5.031-18.064
		c0-6.611-1.915-12.727-5.021-18.064h19.085c-3.115,5.338-5.03,11.453-5.03,18.064C687.742,42.741,689.657,48.855,692.764,54.193z"
		/>
	<rect x="714.839" y="27.097" width="18.064" height="18.064"/>
	
		<rect x="325.569" y="73.317" transform="matrix(-0.8661 0.4999 -0.4999 -0.8661 665.5618 -13.5965)" width="18.065" height="18.065"/>
	
		<rect x="372.526" y="46.216" transform="matrix(-0.8661 0.4999 -0.4999 -0.8661 739.6423 -87.634)" width="18.065" height="18.065"/>
	<rect x="246.222" y="172.51" transform="matrix(-0.5001 0.866 -0.866 -0.5001 540.1052 51.2851)" width="18.055" height="18.055"/>
	
		<rect x="273.308" y="125.578" transform="matrix(-0.5001 0.866 -0.866 -0.5001 540.0923 -42.577)" width="18.056" height="18.055"/>
	<rect x="227.097" y="298.064" width="18.064" height="18.063"/>
	<rect x="227.097" y="243.871" width="18.064" height="18.064"/>
	
		<rect x="273.321" y="416.369" transform="matrix(-0.866 0.5001 -0.5001 -0.866 739.5907 652.5823)" width="18.056" height="18.055"/>
	
		<rect x="246.226" y="369.389" transform="matrix(-0.866 0.5001 -0.5001 -0.866 665.5368 578.4688)" width="18.056" height="18.056"/>
	<rect x="372.492" y="495.69" transform="matrix(-0.5 0.866 -0.866 -0.5 1009.3878 426.6707)" width="18.064" height="18.064"/>
	<rect x="325.561" y="468.607" transform="matrix(-0.5 0.866 -0.866 -0.5 915.5377 426.7035)" width="18.064" height="18.063"/>
	<rect x="498.063" y="514.839" width="18.064" height="18.064"/>
	<rect x="443.871" y="514.839" width="18.063" height="18.064"/>
	<rect x="579.354" y="514.839" width="18.063" height="18.064"/>
	<rect x="633.549" y="514.839" width="18.064" height="18.064"/>
	<rect x="714.839" y="514.839" width="18.064" height="18.064"/>
	<path d="M543.452,330.815c11.507-14.344,17.838-32.391,17.838-50.815c0-44.827-36.472-81.291-81.29-81.291
		S398.709,235.173,398.709,280s36.472,81.29,81.291,81.29c18.417,0,36.463-6.331,50.807-17.839l-11.29-14.1
		c-11.317,9.077-24.991,13.873-39.517,13.873c-34.864,0-63.226-28.369-63.226-63.226c0-34.856,28.361-63.226,63.226-63.226
		s63.226,28.37,63.226,63.226c0,14.533-4.796,28.199-13.863,39.507L543.452,330.815z"/>
	<rect x="470.968" y="234.839" width="18.064" height="18.064"/>
	<rect x="434.839" y="289.032" width="18.064" height="18.063"/>
	<rect x="507.097" y="289.032" width="18.064" height="18.063"/>
</g>
</svg>
