<?xml version="1.0" encoding="utf-8"?>
<!-- Generator: Adobe Illustrator 16.0.0, SVG Export Plug-In . SVG Version: 6.00 Build 0)  -->
<!DOCTYPE svg PUBLIC "-//W3C//DTD SVG 1.1//EN" "http://www.w3.org/Graphics/SVG/1.1/DTD/svg11.dtd">
<svg version="1.1" id="Capa_1" xmlns="http://www.w3.org/2000/svg" xmlns:xlink="http://www.w3.org/1999/xlink" x="0px" y="0px"
	 width="512px" height="512px" viewBox="0 0 512 512" enable-background="new 0 0 512 512" xml:space="preserve">
<g>
	<path d="M413.039,292.18V61.953C413.039,27.793,385.246,0,351.086,0c-34.164,0-61.957,27.793-61.957,61.953V292.18
		c-22.094,13.555-39.254,34.035-48.656,58.238c-2,5.148,0.551,10.945,5.699,12.945c5.145,1.996,10.941-0.555,12.941-5.703
		c8.426-21.68,24.336-39.773,44.805-50.941c3.215-1.75,5.211-5.117,5.211-8.777V61.953c0-23.133,18.82-41.953,41.957-41.953
		c23.133,0,41.953,18.82,41.953,41.953v235.988c0,3.66,2,7.027,5.211,8.777c31.746,17.32,51.469,50.523,51.469,86.648
		c0,54.387-44.25,98.633-98.637,98.633c-41.016,0-77.117-24.699-91.969-62.93c-2-5.148-7.793-7.699-12.941-5.699
		s-7.703,7.793-5.703,12.941c8.699,22.387,23.773,41.391,43.598,54.953s43,20.734,67.02,20.734
		c65.414,0,118.633-53.219,118.633-118.633C469.719,351.934,448.148,313.695,413.039,292.18z"/>
	<path fill="#F0BC5E" d="M351.086,87.379c-5.523,0-10,4.477-10,10v227.68c-33.348,4.863-59.039,33.637-59.039,68.309
		c0,38.066,30.969,69.039,69.039,69.039c38.066,0,69.039-30.973,69.039-69.039c0-34.672-25.695-63.445-59.039-68.309V97.379
		C361.086,91.855,356.609,87.379,351.086,87.379z M400.125,393.367c0,27.039-22,49.039-49.039,49.039
		c-27.043,0-49.039-22-49.039-49.039c0-27.043,21.996-49.043,49.039-49.043C378.125,344.324,400.125,366.324,400.125,393.367z"/>
	<path d="M450.789,114.988h51.953c5.523,0,10-4.477,10-10s-4.477-10-10-10h-51.953c-5.523,0-10,4.477-10,10
		S445.266,114.988,450.789,114.988z"/>
	<path d="M502.742,141.176h-51.953c-5.523,0-10,4.477-10,10c0,5.52,4.477,10,10,10h51.953c5.523,0,10-4.48,10-10
		C512.742,145.652,508.266,141.176,502.742,141.176z"/>
	<path d="M502.742,187.359h-51.953c-5.523,0-10,4.477-10,10s4.477,10,10,10h51.953c5.523,0,10-4.477,10-10
		S508.266,187.359,502.742,187.359z"/>
	<path d="M502.742,233.543h-51.953c-5.523,0-10,4.48-10,10c0,5.523,4.477,10,10,10h51.953c5.523,0,10-4.477,10-10
		S508.266,233.543,502.742,233.543z"/>
	<path d="M137.016,99.145c-24.059,0-46.84,11.664-60.941,31.195c-3.23,4.477-2.223,10.727,2.254,13.961
		c4.48,3.23,10.73,2.223,13.961-2.254c10.355-14.34,27.074-22.902,44.727-22.902c30.391,0,55.117,24.727,55.117,55.121
		s-24.727,55.121-55.117,55.121c-17.656,0-34.375-8.563-44.727-22.902c-3.23-4.477-9.48-5.484-13.961-2.254
		c-4.477,3.234-5.484,9.484-2.254,13.961c14.102,19.535,36.883,31.195,60.941,31.195c41.418,0,75.117-33.699,75.117-75.121
		S178.438,99.145,137.016,99.145z"/>
	<path d="M137.016,81.918c5.523,0,10-4.477,10-10V48.25c0-5.52-4.477-10-10-10s-10,4.48-10,10v23.668
		C127.016,77.441,131.492,81.918,137.016,81.918z"/>
	<path d="M57.574,108.965c1.953,1.953,4.512,2.93,7.07,2.93s5.117-0.977,7.07-2.93c3.906-3.902,3.906-10.234,0-14.141L54.98,78.09
		c-3.906-3.906-10.238-3.906-14.141,0c-3.906,3.902-3.906,10.234,0,14.141L57.574,108.965z"/>
	<path d="M229.363,174.266c0,5.523,4.477,10,10,10h23.668c5.523,0,10-4.477,10-10s-4.477-10-10-10h-23.668
		C233.84,164.266,229.363,168.742,229.363,174.266z"/>
	<path d="M209.387,111.895c2.559,0,5.117-0.977,7.07-2.926l16.734-16.738c3.906-3.902,3.906-10.234,0-14.141
		c-3.902-3.906-10.234-3.906-14.141,0l-16.734,16.734c-3.906,3.906-3.906,10.238,0,14.145
		C204.266,110.918,206.828,111.895,209.387,111.895z"/>
	<path d="M44.668,174.266c0-5.523-4.477-10-10-10H11c-5.523,0-10,4.477-10,10s4.477,10,10,10h23.668
		C40.191,184.266,44.668,179.789,44.668,174.266z"/>
	<path d="M137.016,266.613c-5.523,0-10,4.477-10,10v23.668c0,5.523,4.477,10,10,10s10-4.477,10-10v-23.668
		C147.016,271.09,142.539,266.613,137.016,266.613z"/>
	<path d="M233.191,256.301l-16.734-16.734c-3.906-3.906-10.238-3.906-14.141,0c-3.906,3.906-3.906,10.238,0,14.145l16.734,16.734
		c1.953,1.949,4.512,2.926,7.07,2.926s5.117-0.977,7.07-2.926C237.098,266.539,237.098,260.207,233.191,256.301z"/>
	<path d="M57.574,239.566L40.84,256.301c-3.906,3.902-3.906,10.234,0,14.141c1.949,1.953,4.512,2.93,7.07,2.93
		s5.117-0.977,7.07-2.93l16.734-16.734c3.906-3.902,3.906-10.234,0-14.141S61.48,235.66,57.574,239.566z"/>
	<path d="M252.453,393.367c0-5.508-4.492-10-10-10s-10.004,4.492-10.004,10s4.496,10,10.004,10S252.453,398.875,252.453,393.367z"/>
	<path d="M61.895,174.266c0,5.508,4.492,10,10,10s10-4.492,10-10s-4.492-10-10-10S61.895,168.758,61.895,174.266z"/>
	<circle fill="#F0BC5E" cx="351.673" cy="395.198" r="53.827"/>
</g>
</svg>
