<?xml version="1.0" encoding="iso-8859-1"?>
<!-- Generator: Adobe Illustrator 19.0.0, SVG Export Plug-In . SVG Version: 6.00 Build 0)  -->
<svg version="1.1" id="Capa_1" xmlns="http://www.w3.org/2000/svg" xmlns:xlink="http://www.w3.org/1999/xlink" x="0px" y="0px"
	 viewBox="0 0 496 496" style="enable-background:new 0 0 496 496;" xml:space="preserve">
<rect x="331.228" y="382.401" transform="matrix(-0.809 0.5878 -0.5878 -0.809 843.143 506.8383)" width="16" height="16"/>
<path d="M203.784,248c0,17.648,14.352,32,32,32s32-14.352,32-32s-14.352-32-32-32S203.784,230.352,203.784,248z M251.784,248
	c0,8.824-7.176,16-16,16s-16-7.176-16-16s7.176-16,16-16S251.784,239.176,251.784,248z"/>
<path d="M171.784,248c0,35.288,28.712,64,64,64s64-28.712,64-64s-28.712-64-64-64S171.784,212.712,171.784,248z M283.784,248
	c0,26.472-21.528,48-48,48s-48-21.528-48-48s21.528-48,48-48S283.784,221.528,283.784,248z"/>
<path d="M235.784,16V0C141.088,0,53.328,55.16,12.224,140.528l14.416,6.944C65.096,67.608,147.192,16,235.784,16z"/>
<path d="M26.632,348.528l-14.416,6.944C53.328,440.84,141.088,496,235.784,496v-16C147.192,480,65.096,428.392,26.632,348.528z"/>
<rect x="227.784" y="152" width="16" height="16"/>
<rect x="144.073" y="212.833" transform="matrix(-0.309 0.9511 -0.9511 -0.309 409.0906 144.4446)" width="15.999" height="15.999"/>
<rect x="176.049" y="311.203" transform="matrix(-0.5878 0.809 -0.809 -0.5878 550.4711 357.9354)" width="16" height="16"/>
<rect x="279.507" y="311.2" transform="matrix(-0.809 0.5878 -0.5878 -0.809 707.7287 408.436)" width="16" height="16"/>
<rect x="311.484" y="212.807" transform="matrix(-0.9511 0.3089 -0.3089 -0.9511 691.55 332.1278)" width="16" height="16"/>
<rect x="227.784" y="64" width="16" height="16"/>
<rect x="259.784" y="88" width="16" height="16"/>
<rect x="60.384" y="185.582" transform="matrix(-0.309 0.9511 -0.9511 -0.309 273.6222 188.3656)" width="15.999" height="15.999"/>
<rect x="93.092" y="162.594" transform="matrix(-0.309 0.9511 -0.9511 -0.309 294.5749 127.1671)" width="15.999" height="15.999"/>
<rect x="124.335" y="382.365" transform="matrix(-0.5878 0.809 -0.809 -0.5878 525.9296 512.7629)" width="16" height="16"/>
<rect x="112.537" y="344.173" transform="matrix(-0.5878 0.809 -0.809 -0.5878 476.298 461.6661)" width="16" height="16"/>
<rect x="291.237" y="381.761" transform="matrix(-0.809 0.5878 -0.5878 -0.809 770.4227 529.1862)" width="16" height="16"/>
<path d="M374.032,381.24C337.496,419.136,288.4,440,235.784,440c-16.872,0-33.232-2.208-48.84-6.312
	c2.12-25.112-2-50.112-11.632-72.92C193.336,370.472,213.92,376,235.784,376c19.656,0,38.216-4.584,54.872-12.536l5.128-1.352
	c16.688-5.28,34-7.32,51.432-6.104l1.128-15.96c-8.128-0.568-16.208-0.352-24.208,0.336c24.376-23.312,39.648-56.072,39.648-92.384
	c0-5.672-0.496-11.224-1.216-16.712l0.288-5.096c0.144-19.064,4.136-37.552,11.848-54.96l-14.624-6.488
	c-3.968,8.944-6.944,18.168-9.136,27.536c-17.52-36.008-51.44-62.632-92.008-70.088l-4.624-1.792
	c-30.04-10.016-55.528-30.064-72.552-56.624C198.912,58.752,217.032,56,235.784,56c49.952,0,97.264,19.088,133.224,53.744
	l11.104-11.52C341.152,60.672,289.904,40,235.784,40c-114.688,0-208,93.312-208,208s93.312,208,208,208
	c57,0,110.192-22.608,149.76-63.656L374.032,381.24z M347.784,248c0,61.76-50.24,112-112,112s-112-50.24-112-112s50.24-112,112-112
	S347.784,186.24,347.784,248z M166.176,69.112c13.064,21.584,31.128,39.4,52.36,52.184c-41.264,5.6-76.384,30.808-95.424,66.032
	l-2.952,3.616c-18.792,25.464-45.736,43.504-76.24,51.488C46.184,163.52,96.272,96.416,166.176,69.112z M171.208,428.792
	c-70.92-25.408-122.664-91.408-127.096-169.864c24.56-5.752,47.088-17.416,65.808-33.648c-1.328,7.384-2.136,14.952-2.136,22.72
	c0,33.968,13.392,64.816,35.064,87.752l2.952,4.576C164.216,366.088,173.048,397.304,171.208,428.792z"/>
<path style="fill:#F0BC5E;" d="M407.576,423.52c-0.024,0-0.048,0-0.072,0c-2.176-0.024-4.256-0.928-5.76-2.512l-59.792-63.52
	c-1.384-1.488-2.168-3.448-2.168-5.488v-1.496c0-2,0.752-3.928,2.104-5.408c24.432-26.672,37.896-61.16,37.896-97.096
	s-13.464-70.424-37.896-97.104c-1.352-1.472-2.104-3.4-2.104-5.4V144c0-2.04,0.784-4,2.168-5.488l59.792-63.52
	c1.504-1.584,3.576-2.496,5.76-2.512c1.992,0.168,4.272,0.848,5.8,2.416c45.448,46.592,70.48,108.072,70.48,173.104
	s-25.032,126.512-70.488,173.112C411.792,422.656,409.728,423.52,407.576,423.52z"/>
<rect x="443.784" y="240" width="16" height="16"/>
<path d="M430.384,397.896l-51.528-47.2l3.768-5.696c17.608-26.592,27.632-57.488,29-89.344l15.984,0.688
	c-1.392,32.48-11.032,64.032-27.96,91.704l41.536,38.048L430.384,397.896z"/>
<path d="M411.616,240.344c-1.368-31.864-11.392-62.76-29-89.344l-3.776-5.696l51.528-47.2l10.808,11.8l-41.536,38.048
	c16.928,27.664,26.568,59.224,27.96,91.704L411.616,240.344z"/>
<g>
</g>
<g>
</g>
<g>
</g>
<g>
</g>
<g>
</g>
<g>
</g>
<g>
</g>
<g>
</g>
<g>
</g>
<g>
</g>
<g>
</g>
<g>
</g>
<g>
</g>
<g>
</g>
<g>
</g>
</svg>
