<svg height="496pt" viewBox="0 0 496 496" width="496pt" xmlns="http://www.w3.org/2000/svg"><path d="m248 72c-97.046875 0-176 78.953125-176 176s78.953125 176 176 176 176-78.953125 176-176-78.953125-176-176-176zm0 416c-132.335938 0-240-107.664062-240-240s107.664062-240 240-240 240 107.664062 240 240-107.664062 240-240 240zm0 0" fill="#f0bc5e"/><path d="m248 0c-136.753906 0-248 111.246094-248 248s111.246094 248 248 248 248-111.246094 248-248-111.246094-248-248-248zm131.558594 438.945312-39.34375-10.539062-4.144532 15.457031 24.90625 6.671875c-28.367187 15.890625-60.382812 25.960938-94.464843 28.664063l-28.847657-28.847657-11.3125 11.3125 18.257813 18.257813c-34.363281-.496094-66.9375-8.464844-96.160156-22.410156l-10.578125-39.449219-15.457032 4.144531 6.683594 24.914063c-28.570312-17.128906-53.152344-40.226563-72.042968-67.554688l10.539062-39.34375-15.457031-4.144531-6.671875 24.90625c-15.890625-28.367187-25.960938-60.382813-28.664063-94.464844l28.847657-28.847656-11.3125-11.3125-18.257813 18.257813c.496094-34.359376 8.464844-66.9375 22.410156-96.160157l39.449219-10.578125-4.144531-15.453125-24.914063 6.679688c17.128906-28.570313 40.226563-53.152344 67.554688-72.042969l39.34375 10.539062 4.144531-15.457031-24.90625-6.671875c28.367187-15.886718 60.382813-25.960937 94.464844-28.664062l28.847656 28.847656 11.3125-11.3125-18.257813-18.253906c34.359376.496094 66.9375 8.460937 96.160157 22.40625l10.578125 39.449218 15.453125-4.144531-6.679688-24.914062c28.570313 17.128906 53.152344 40.226562 72.042969 67.554687l-10.539062 39.34375 15.457031 4.144532 6.671875-24.90625c15.886718 28.367187 25.960937 60.382812 28.664062 94.464843l-28.847656 28.847657 11.3125 11.3125 18.253906-18.257813c-.496094 34.363281-8.460937 66.9375-22.40625 96.160156l-39.449218 10.578125 4.144531 15.457032 24.914062-6.683594c-17.128906 28.578125-40.226562 53.152344-67.554687 72.042968zm0 0"/><path d="m248 96c-83.816406 0-152 68.183594-152 152s68.183594 152 152 152 152-68.183594 152-152-68.183594-152-152-152zm129.976562 112h-51.695312c-8.433594-16.433594-21.855469-29.855469-38.289062-38.289062v-51.695313c42.878906 13.222656 76.769531 47.113281 89.984374 89.984375zm-137.976562 127.59375v48c-5.425781-.320312-10.769531-.914062-16-1.851562v-49.15625c5.160156 1.46875 10.496094 2.511718 16 3.007812zm16 0c5.503906-.496094 10.839844-1.539062 16-3.007812v49.15625c-5.230469.9375-10.574219 1.53125-16 1.851562zm-8-15.59375c-39.703125 0-72-32.296875-72-72s32.296875-72 72-72 72 32.296875 72 72-32.296875 72-72 72zm-135.59375-64h48c.496094 5.503906 1.539062 10.839844 3.007812 16h-49.15625c-.945312-5.230469-1.539062-10.574219-1.851562-16zm48-16h-48c.320312-5.425781.914062-10.769531 1.851562-16h49.15625c-1.46875 5.160156-2.511718 10.496094-3.007812 16zm95.59375-79.59375v-48c5.425781.320312 10.769531.914062 16 1.851562v49.15625c-5.160156-1.46875-10.496094-2.511718-16-3.007812zm-16 0c-5.503906.496094-10.839844 1.539062-16 3.007812v-49.15625c5.230469-.9375 10.574219-1.53125 16-1.851562zm95.59375 95.59375h48c-.320312 5.425781-.914062 10.769531-1.851562 16h-49.15625c1.46875-5.160156 2.511718-10.496094 3.007812-16zm0-16c-.496094-5.503906-1.539062-10.839844-3.007812-16h49.15625c.9375 5.230469 1.53125 10.574219 1.851562 16zm-127.59375-121.976562v51.695312c-16.433594 8.433594-29.855469 21.855469-38.289062 38.289062h-51.695313c13.222656-42.878906 47.113281-76.769531 89.984375-89.984374zm-89.976562 169.976562h51.695312c8.433594 16.433594 21.855469 29.855469 38.289062 38.289062v51.695313c-42.878906-13.222656-76.769531-47.113281-89.984374-89.984375zm169.976562 89.976562v-51.695312c16.433594-8.433594 29.855469-21.855469 38.289062-38.289062h51.695313c-13.222656 42.878906-47.113281 76.769531-89.984375 89.984374zm0 0"/><path d="m248 224c-13.230469 0-24 10.769531-24 24s10.769531 24 24 24 24-10.769531 24-24-10.769531-24-24-24zm0 32c-4.414062 0-8-3.585938-8-8s3.585938-8 8-8 8 3.585938 8 8-3.585938 8-8 8zm0 0"/><path d="m240 192h16v16h-16zm0 0"/><path d="m192 240h16v16h-16zm0 0"/><path d="m240 288h16v16h-16zm0 0"/><path d="m288 240h16v16h-16zm0 0"/></svg>