<svg id="Layer_35" enable-background="new 0 0 64 64" height="512" viewBox="0 0 64 64" width="512" xmlns="http://www.w3.org/2000/svg"><path d="m57 5h-40c-1.103 0-2 .897-2 2v26c0 1.103.897 2 2 2h4.5l2.507-2.149c.641-.549 1.457-.851 2.301-.851h.157c1.769 0 3.222 1.303 3.482 3h27.053c1.103 0 2-.897 2-2v-26c0-1.103-.897-2-2-2z" fill="#f0bc5e"/><path d="m58 1h-42c-2.757 0-5 2.243-5 5v13.586l-4.191 4.192c-2.456 2.455-3.809 5.721-3.808 9.193l.002 18.029h2l-.002-18.029c-.001-2.938 1.144-5.701 3.222-7.779l2.777-2.778v11.586c0 2.757 2.243 5 5 5 1.528 0 3.01-.548 4.169-1.542l4.489-3.847c.458-.394 1.044-.61 1.649-.61h.157c1.398-.001 2.536 1.137 2.536 2.535 0 .678-.264 1.314-.742 1.793l-7.793 7.793c-.944.944-1.465 2.2-1.465 3.535v2.343h2v-2.343c0-.79.32-1.562.879-2.121l7.536-7.536h28.585c2.757 0 5-2.243 5-5v-28c0-2.757-2.243-5-5-5zm-31.692 30c-1.082 0-2.131.388-2.951 1.092l-.357.305v-9.397h4v8.054c-.178-.021-.352-.054-.535-.054zm34.692 3c0 1.654-1.346 3-3 3h-27.24c.158-.465.24-.958.24-1.464 0-1.563-.794-2.943-2-3.759v-8.777h4v12h2v-12h4v12h2v-12h4v12h2v-12h4v12h2v-12h6v-2h-44v2h6v11h.13l-2.263 1.939c-.798.684-1.815 1.061-2.867 1.061-1.654 0-3-1.346-3-3v-28c0-1.654 1.346-3 3-3h42c1.654 0 3 1.346 3 3z"/><path d="m53 5h-2v12h-4v-12h-2v12h-4v-12h-2v12h-4v-12h-2v12h-4v-12h-2v12h-4v-12h-2v12h-6v2h44v-2h-6z"/><path d="m53 59h2v2h-2z"/><path d="m49.195 52h3.805v5h2v-7h-2.195l3.195-5.113 3.195 5.113h-2.195v13h2v-11h3.805l-6.805-10.887z"/><path d="m43 43h2v2h-2z"/><path d="m45 47h-2v7h2.195l-3.195 5.113-3.195-5.113h2.195v-13h-2v11h-3.805l6.805 10.887 6.805-10.887h-3.805z"/><path d="m23 63h-22v-12h22z" fill="#f0bc5e"/></svg>