<svg height="496pt" viewBox="0 -40 496 496" width="496pt" xmlns="http://www.w3.org/2000/svg"><path d="m272 256c0-61.855469-50.144531-112-112-112l-56 56c61.855469 0 112 50.144531 112 112zm0 0" fill="#f0bc5e"/><path d="m426.34375 74.34375-37.65625 37.65625h-72l-25.863281 25.863281c-1.953125-2.261719-3.902344-4.519531-6.03125-6.65625-2.136719-2.136719-4.394531-4.085937-6.65625-6.03125l29.175781-29.175781h72l34.34375-34.34375-11.3125-11.3125-29.65625 29.65625h-72l-35.421875 35.425781c-19.265625-12.554687-41.730469-19.335937-65.265625-19.335937-.023438 0-.0625 0-.097656 0h-3.308594l-148.59375 148.597656v3.3125c0 17.167969 3.910156 34.175781 10.984375 49.703125l-58.984375 58.984375v3.3125c0 30.878906 25.121094 56 56 56h3.3125l58.984375-58.984375c15.535156 7.074219 32.535156 10.984375 49.703125 10.984375h3.3125l148.597656-148.601562v-3.308594c.019532-23.570313-6.765625-46.066406-19.335937-65.355469l22.738281-22.734375h72l42.34375-42.34375zm-364.902344 316.902344c-5.472656-17.429688-19.257812-31.214844-36.6875-36.6875l66.4375-66.4375c19.519532 1.542968 35.144532 17.167968 36.6875 36.6875zm-44.296875-22.09375c14.6875 3.464844 26.230469 15.007812 29.695313 29.695312-14.6875-3.464844-26.222656-15-29.695313-29.695312zm147.589844-17.199219c-11.925781-.359375-23.429687-2.722656-34.382813-6.992187l13.648438-13.648438v-3.3125c0-30.878906-25.121094-56-56-56h-3.3125l-13.648438 13.648438c-4.269531-10.945313-6.632812-22.457032-6.992187-34.382813l11.105469-11.105469c54.824218 1.65625 99.023437 45.863282 100.679687 100.679688zm25.785156-25.792969c-7.785156-51.878906-48.808593-92.894531-100.6875-100.6875l113.335938-113.34375c26.566406.792969 51.425781 11.511719 70.296875 30.390625 18.878906 18.871094 29.597656 43.726563 30.390625 70.296875zm0 0"/><path d="m459.710938 112c-9.695313 0-18.808594-3.777344-25.65625-10.632812l-39.429688-39.429688c-6.847656-6.847656-10.625-15.960938-10.625-25.648438 0-20.007812 16.28125-36.289062 36.289062-36.289062 9.695313 0 18.808594 3.777344 25.65625 10.632812l39.429688 39.429688c6.847656 6.847656 10.625 15.960938 10.625 25.648438 0 20.007812-16.28125 36.289062-36.289062 36.289062zm0 0" fill="#f0bc5e"/></svg>