<svg height="496pt" viewBox="0 -72 496 496" width="496pt" xmlns="http://www.w3.org/2000/svg"><path d="m422.71875 23.601562-46.71875 288.398438s-40.078125 22.878906-96 30v-302.480469c61.601562-1.917969 109.359375-8.960937 142.71875-15.917969zm0 0" fill="#f0bc5e"/><path d="m216 341.921875v.078125c-55.921875-7.121094-96-30-96-30l-46.800781-288.398438c33.359375 6.957032 81.199219 14 142.800781 15.917969zm0 0" fill="#f0bc5e"/><path d="m478.457031 0-1.425781.566406c-.191406.082032-19.328125 7.632813-55.941406 15.203125-42.464844 8.855469-90.019532 14.160157-141.335938 15.75-20.320312.632813-43.179687.632813-63.507812 0-51.382813-1.597656-98.964844-6.894531-141.429688-15.75-36.527344-7.570312-55.664062-15.121093-55.847656-15.203125l-1.433594-.566406h-17.535156v65.886719l.839844 1.6875c25.625 51.234375 39.160156 108.59375 39.160156 165.867187v43.261719l76.03125 42.242187c1.6875.964844 42.113281 23.75 99.023438 31 11.722656 1.382813 22.496093 2.054688 32.945312 2.054688s21.222656-.671875 33.007812-2.0625c56.839844-7.242188 97.265626-30.027344 98.871094-30.945312l76.121094-42.289063v-43.261719c0-28.5625 3.34375-57.234375 9.953125-85.226562 6.445313-27.566406 16.269531-54.695313 29.207031-80.648438l.839844-1.6875v-65.878906zm-254.457031 47.703125c5.265625.121094 10.585938.199219 16 .242187v287.816407c-5.183594-.175781-10.535156-.53125-16-1.050781zm32 .242187c5.414062-.042968 10.734375-.121093 16-.242187v287c-5.472656.519531-10.824219.871094-16 1.050781zm-200 219.351563v-33.855469c0-59.121094-13.824219-118.3125-40-171.320312v-45.578125c6.855469 2.472656 25.441406 8.648437 55.566406 14.890625 41.203125 8.589844 87.089844 13.863281 136.433594 15.765625v285.535156c-48.855469-7.941406-83.679688-27.488281-84.113281-27.734375zm424-205.167969c-13.070312 26.542969-23.039062 54.277344-29.625 82.4375-6.878906 29.175782-10.375 59.082032-10.375 88.875v33.847656l-67.96875 37.757813c-.359375.21875-35.054688 19.753906-84.03125 27.695313v-285.542969c49.28125-1.902344 95.144531-7.175781 136.335938-15.765625 30.199218-6.25 48.800781-12.425782 55.664062-14.898438zm0 0"/><path d="m112 56h16v16h-16zm0 0"/><path d="m368 56h16v16h-16zm0 0"/></svg>