<svg height="496pt" viewBox="0 -24 496 496" width="496pt" xmlns="http://www.w3.org/2000/svg"><path d="m384 216v32l88 16-8-48zm0 0" fill="#f0bc5e"/><path d="m184 408c-30.878906 0-56-25.121094-56-56s25.121094-56 56-56 56 25.121094 56 56-25.121094 56-56 56zm0 0" fill="#f0bc5e"/><path d="m493.566406 279.816406c0-9.535156-5.46875-17.824218-13.566406-21.671875v-19.570312c0-35.574219-25.503906-65.476563-60.625-71.09375l-84.984375-13.601563-13.125-39.375 53.03125-36.289062c28.902344-19.757813 62.6875-30.214844 97.703125-30.214844v-16c-38.246094 0-75.160156 11.414062-106.734375 33.015625l-100.714844 68.914063-120.535156-114.203126c-13.429687-12.71875-31.015625-19.726562-49.519531-19.726562h-94.496094v376h72v-24c0-61.761719 50.238281-112 112-112s112 50.238281 112 112v24h184c8.824219 0 16-7.175781 16-16.238281zm-31.453125-55.816406c1.230469 4.65625 1.886719 9.542969 1.886719 14.574219v15.839843l-72-13.085937v-17.328125zm-145.527343-72.96875-39.464844-6.3125 30.421875-20.816406zm-222.089844-135.03125c14.390625 0 28.0625 5.449219 38.511718 15.34375l118.921876 112.65625h-25.265626l-29.40625-22.054688-78.226562-78.226562c-7.550781-7.558594-17.597656-11.71875-28.289062-11.71875h-74.742188v-16zm25.503906 116c0 1.367188.214844 2.679688.40625 4h-104.40625v-88h74.742188c6.417968 0 12.449218 2.496094 16.976562 7.023438l48.96875 48.976562h-8.6875c-15.441406 0-28 12.558594-28 28zm28-12h24.6875l13.65625 13.65625 13.734375 10.34375h-52.078125c-6.617188 0-12-5.382812-12-12s5.382812-12 12-12zm-92 240h-40v-32h42.335938c-1.488282 7.785156-2.335938 15.792969-2.335938 24zm6.488281-48h-46.488281v-160h112.464844c5.046875 4.9375 11.933594 8 19.535156 8h67.808594c-.871094 22.480469-5.464844 44.441406-13.632813 65.441406-5.953125-.847656-11.992187-1.441406-18.175781-1.441406-56.601562 0-104.664062 36.96875-121.511719 88zm155.558594-83.265625c8.289063-22.101563 12.914063-45.148437 13.761719-68.734375h39.566406l145.472656 23.28125c16.214844 2.589844 29.808594 11.839844 38.167969 24.71875h-79.015625v46.671875l94.785156 17.230469c3.933594.609375 6.789063 3.929687 6.789063 8.152344l.96875 31.945312h-173.03125c-13.335938-40.390625-46.246094-71.855469-87.464844-83.265625zm93.953125 131.265625v-8c0-8.207031-.847656-16.214844-2.335938-24h169.359376l.976562 32zm0 0"/><path d="m184 256c-52.9375 0-96 43.0625-96 96s43.0625 96 96 96 96-43.0625 96-96-43.0625-96-96-96zm46.671875 160.839844-7.742187-13.414063-13.859376 8 7.761719 13.445313c-7.71875 3.496094-16.054687 5.847656-24.832031 6.722656v-15.59375h-16v15.59375c-8.785156-.875-17.113281-3.234375-24.832031-6.722656l7.761719-13.445313-13.859376-8-7.742187 13.414063c-6.992187-5.046875-13.121094-11.175782-18.167969-18.167969l13.414063-7.742187-8-13.859376-13.445313 7.761719c-3.496094-7.71875-5.847656-16.054687-6.722656-24.832031h15.59375v-16h-15.59375c.875-8.785156 3.234375-17.113281 6.722656-24.832031l13.445313 7.761719 8-13.859376-13.414063-7.742187c5.046875-6.992187 11.175782-13.121094 18.167969-18.167969l7.742187 13.414063 13.859376-8-7.761719-13.445313c7.71875-3.496094 16.054687-5.847656 24.832031-6.722656v15.59375h16v-15.59375c8.785156.875 17.113281 3.234375 24.832031 6.722656l-7.761719 13.445313 13.859376 8 7.742187-13.414063c6.992187 5.046875 13.121094 11.175782 18.167969 18.167969l-13.414063 7.742187 8 13.859376 13.445313-7.761719c3.496094 7.71875 5.847656 16.054687 6.722656 24.832031h-15.59375v16h15.59375c-.875 8.785156-3.234375 17.121094-6.722656 24.832031l-13.445313-7.761719-8 13.859376 13.414063 7.742187c-5.046875 6.992187-11.175782 13.121094-18.167969 18.167969zm0 0"/><path d="m184 312c-22.054688 0-40 17.945312-40 40s17.945312 40 40 40 40-17.945312 40-40-17.945312-40-40-40zm0 64c-13.230469 0-24-10.769531-24-24s10.769531-24 24-24 24 10.769531 24 24-10.769531 24-24 24zm0 0"/><path d="m176 344h16v16h-16zm0 0"/></svg>