<?xml version="1.0" encoding="utf-8"?>
<!-- Generator: Adobe Illustrator 16.0.0, SVG Export Plug-In . SVG Version: 6.00 Build 0)  -->
<!DOCTYPE svg PUBLIC "-//W3C//DTD SVG 1.1//EN" "http://www.w3.org/Graphics/SVG/1.1/DTD/svg11.dtd">
<svg version="1.1" id="Capa_1" xmlns="http://www.w3.org/2000/svg" xmlns:xlink="http://www.w3.org/1999/xlink" x="0px" y="0px"
	 width="512px" height="512px" viewBox="0 0 512 512" enable-background="new 0 0 512 512" xml:space="preserve">
<g id="_x30_54---Car-Sales" transform="translate(0 -1)">
	<path id="Shape" d="M93.867,316.733c-21.208,0-38.4,17.192-38.4,38.4c0,21.207,17.192,38.399,38.4,38.399
		c21.208,0,38.4-17.192,38.4-38.399C132.22,333.945,115.055,316.78,93.867,316.733z M93.867,376.467
		c-11.782,0-21.333-9.552-21.333-21.333c0-11.782,9.551-21.334,21.333-21.334s21.333,9.552,21.333,21.334
		C115.2,366.915,105.649,376.467,93.867,376.467z"/>
	<circle fill="#F0BC5E" cx="93.867" cy="355.133" r="24.753"/>
	<path id="Shape_1_" d="M294.4,513h170.666c23.564,0,42.667-19.103,42.667-42.667V143.166c0.082-11.102-4.245-21.783-12.032-29.696
		l-85.76-100.011c-8.09-8.089-19.089-12.591-30.529-12.495c-11.439,0.096-22.361,4.782-30.313,13.007l-19.883,23.21
		C246.443,26.6,180.907,52.2,175.445,134.803c-35.328,5.035-71.083,14.336-84.139,31.744c-1.792,2.389,0-1.792-16.555,73.387H38.4
		c-18.851,0-34.133,15.282-34.133,34.133c0.082,15.234,10.249,28.57,24.917,32.683c-5.095,8.105-7.814,17.478-7.851,27.051v42.667
		c0.024,21.676,13.697,40.988,34.133,48.213V487.4c0,14.138,11.461,25.6,25.6,25.6h51.2c14.139,0,25.6-11.462,25.6-25.6v-59.733
		h93.867v42.666C251.733,493.897,270.836,513,294.4,513z M251.733,376.467H192c-4.713,0-8.533-3.82-8.533-8.533v-25.601
		c0-4.713,3.82-8.533,8.533-8.533h59.733V376.467z M361.643,25.576c9.805-9.846,25.672-10.073,35.755-0.512l85.333,100.011
		c4.959,4.726,7.817,11.242,7.937,18.091v19.968h-25.601c-4.713,0-8.533,3.821-8.533,8.533c0,4.713,3.82,8.534,8.533,8.534h25.601
		v290.133c0,14.139-11.462,25.601-25.601,25.601H294.4c-14.139,0-25.601-11.462-25.601-25.601V180.2h8.534
		c4.712,0,8.533-3.821,8.533-8.534c0-4.712-3.821-8.533-8.533-8.533H268.8v-19.968c-0.021-7.027,2.85-13.754,7.937-18.603
		l59.732-69.205c7.766,1.28,13.995,2.56,18.262,3.584c-0.865,12.41,7.316,23.646,19.393,26.632
		c12.077,2.986,24.552-3.142,29.57-14.524c5.019-11.383,1.127-24.726-9.224-31.627c-10.351-6.901-24.163-5.362-32.741,3.647
		c-2.731-0.683-6.912-1.707-12.374-2.73L361.643,25.576z M371.2,60.733c0-4.713,3.82-8.533,8.533-8.533s8.533,3.82,8.533,8.533
		s-3.82,8.533-8.533,8.533S371.2,65.446,371.2,60.733z M315.733,52.883c-59.307,69.205-57.941,66.133-61.44,76.203
		c-11.52,0-35.414,0.768-61.611,3.584C198.571,66.792,249.6,47.336,315.733,52.883z M106.069,175.507
		c18.091-20.224,94.976-28.501,145.664-29.44v119.466c-56.361,0.724-112.585,5.716-168.192,14.934L106.069,175.507z M21.333,274.066
		c0-9.426,7.641-17.066,17.066-17.066h32.683l-5.546,25.6c-7.606,1.217-14.84,4.134-21.163,8.533H38.4
		C28.974,291.133,21.333,283.492,21.333,274.066z M140.8,487.4c0,4.713-3.82,8.533-8.533,8.533h-51.2
		c-4.712,0-8.533-3.82-8.533-8.533v-59.733H140.8V487.4z M72.533,410.6c-18.851,0-34.133-15.281-34.133-34.133V333.8
		c0-18.852,15.282-34.133,34.133-34.133c59.162-10.613,119.099-16.321,179.2-17.067v34.134H192c-14.139,0-25.6,11.462-25.6,25.6
		v25.601c0,14.139,11.461,25.6,25.6,25.6h59.733V410.6H72.533z"/>
	<path id="Shape_2_" d="M311.467,180.2h17.066c4.713,0,8.533-3.821,8.533-8.534c0-4.712-3.82-8.533-8.533-8.533h-17.066
		c-4.713,0-8.533,3.821-8.533,8.533C302.934,176.379,306.754,180.2,311.467,180.2z"/>
	<path id="Shape_3_" d="M362.666,180.2h17.067c4.713,0,8.533-3.821,8.533-8.534c0-4.712-3.82-8.533-8.533-8.533h-17.067
		c-4.712,0-8.533,3.821-8.533,8.533C354.133,176.379,357.954,180.2,362.666,180.2z"/>
	<path id="Shape_4_" d="M413.867,180.2h17.066c4.713,0,8.533-3.821,8.533-8.534c0-4.712-3.82-8.533-8.533-8.533h-17.066
		c-4.713,0-8.533,3.821-8.533,8.533C405.334,176.379,409.154,180.2,413.867,180.2z"/>
	<path id="Shape_5_" d="M307.2,257c0,14.139,11.462,25.6,25.6,25.6c14.139,0,25.601-11.461,25.601-25.6s-11.462-25.6-25.601-25.6
		C318.662,231.4,307.2,242.861,307.2,257z M341.334,257c0,4.713-3.821,8.533-8.534,8.533s-8.533-3.82-8.533-8.533
		s3.82-8.533,8.533-8.533S341.334,252.287,341.334,257z"/>
	<path id="Shape_6_" d="M435.2,350.867c-14.139,0-25.601,11.461-25.601,25.6s11.462,25.6,25.601,25.6s25.6-11.461,25.6-25.6
		S449.339,350.867,435.2,350.867z M435.2,385c-4.713,0-8.533-3.82-8.533-8.533s3.82-8.533,8.533-8.533s8.533,3.82,8.533,8.533
		S439.913,385,435.2,385z"/>
	<path id="Shape_7_" d="M300.373,377.149c-6.426,6.941-8.5,16.86-5.395,25.796c3.105,8.935,10.886,15.429,20.231,16.888
		c9.346,1.46,18.735-2.354,24.417-9.916l128-153.6c6.69-7.943,7.919-19.14,3.11-28.345c-4.808-9.205-14.7-14.593-25.041-13.639
		c-6.682,0.638-12.828,3.927-17.067,9.13L300.373,377.149z M447.232,231.4c3.452-0.331,6.761,1.46,8.371,4.532
		s1.202,6.812-1.033,9.463l-128,153.601c-3.016,3.629-8.402,4.125-12.031,1.109c-3.629-3.017-4.126-8.403-1.109-12.032l128-153.6
		C442.876,232.715,444.966,231.609,447.232,231.4z"/>
</g>
<rect x="320.806" y="242.433" transform="matrix(0.7776 0.6287 -0.6287 0.7776 234.9635 -152.3129)" fill="#F0BC5E" width="23.986" height="27.135"/>
<rect x="423.206" y="361.9" transform="matrix(0.7776 0.6287 -0.6287 0.7776 332.8477 -190.1279)" fill="#F0BC5E" width="23.986" height="27.135"/>
<polygon fill="#F0BC5E" points="320.796,410.625 302.149,395.537 444.404,219.577 463.055,234.662 "/>
<path id="Shape_8_" d="M307.2,256c0,14.139,11.462,25.6,25.6,25.6c14.139,0,25.601-11.461,25.601-25.6s-11.462-25.6-25.601-25.6
	C318.662,230.4,307.2,241.861,307.2,256z M341.334,256c0,4.713-3.821,8.533-8.534,8.533s-8.533-3.82-8.533-8.533
	s3.82-8.533,8.533-8.533S341.334,251.287,341.334,256z"/>
<path id="Shape_10_" d="M435.2,349.867c-14.139,0-25.601,11.461-25.601,25.6s11.462,25.6,25.601,25.6s25.6-11.461,25.6-25.6
	S449.339,349.867,435.2,349.867z M435.2,384c-4.713,0-8.533-3.82-8.533-8.533s3.82-8.533,8.533-8.533s8.533,3.82,8.533,8.533
	S439.913,384,435.2,384z"/>
<path id="Shape_9_" d="M300.373,376.149c-6.426,6.941-8.5,16.86-5.395,25.796c3.105,8.935,10.886,15.429,20.231,16.888
	c9.346,1.46,18.735-2.354,24.417-9.916l128-153.6c6.69-7.943,7.919-19.14,3.11-28.345c-4.808-9.205-14.7-14.593-25.041-13.639
	c-6.682,0.638-12.828,3.927-17.067,9.13L300.373,376.149z M447.232,230.4c3.452-0.331,6.761,1.46,8.371,4.532
	s1.202,6.812-1.033,9.463l-128,153.601c-3.016,3.629-8.402,4.125-12.031,1.109c-3.629-3.017-4.126-8.403-1.109-12.032l128-153.6
	C442.876,231.715,444.966,230.609,447.232,230.4z"/>
</svg>
