<?xml version="1.0" encoding="utf-8"?>
<!-- Generator: Adobe Illustrator 16.0.0, SVG Export Plug-In . SVG Version: 6.00 Build 0)  -->
<!DOCTYPE svg PUBLIC "-//W3C//DTD SVG 1.1//EN" "http://www.w3.org/Graphics/SVG/1.1/DTD/svg11.dtd">
<svg version="1.1" id="Capa_1" xmlns="http://www.w3.org/2000/svg" xmlns:xlink="http://www.w3.org/1999/xlink" x="0px" y="0px"
	 width="496px" height="496px" viewBox="0 0 496 496" enable-background="new 0 0 496 496" xml:space="preserve">
<path fill="#F0BC5E" d="M484.5,357.5c0,16.568-13.432,30-30,30H43c-16.568,0-30-13.432-30-30V327c0-16.568,13.432-30,30-30h411.5
	c16.568,0,30,13.432,30,30V357.5z"/>
<circle fill="#F0BC5E" cx="128" cy="168" r="10.807"/>
<circle fill="#F0BC5E" cx="247.92" cy="88" r="10.807"/>
<circle fill="#F0BC5E" cx="368" cy="168" r="10.807"/>
<circle fill="#FFFFFF" cx="392" cy="391.193" r="40.807"/>
<circle fill="#FFFFFF" cx="136" cy="391.193" r="40.807"/>
<ellipse fill="#FFFFFF" cx="34.286" cy="368.536" rx="28.093" ry="22.657"/>
<path d="M256,320h32v16h-32V320z"/>
<path d="M447.449,399.449C474.809,395.785,496,372.344,496,344c0-11.09-3.281-21.398-8.855-30.113
	C493.016,292.527,496,270.359,496,248C496,111.258,384.742,0,248,0S0,111.258,0,248c0,22.359,2.984,44.527,8.855,65.887
	C3.281,322.602,0,332.91,0,344v16c0,22.055,17.945,40,40,40h40.641c1.793,12.449,7.648,23.594,16.246,32H8c-4.414,0-8,3.574-8,8v48
	c0,4.426,3.586,8,8,8h480c4.414,0,8-3.574,8-8v-48c0-4.426-3.586-8-8-8h-56.887C439.84,423.473,445.754,412.121,447.449,399.449z
	 M447.246,383.266C443.031,356.535,419.902,336,392,336c-28.152,0-51.457,20.91-55.359,48H320v-80h120c22.055,0,40,17.945,40,40
	C480,363.574,465.848,379.84,447.246,383.266z M380.688,480h-17.375l32-32h17.375L380.688,480z M435.313,448h17.375l-32,32h-17.375
	L435.313,448z M115.313,448h17.375l-32,32H83.313L115.313,448z M60.688,480H43.313l32-32h17.375L60.688,480z M155.313,448h17.375
	l-32,32h-17.375L155.313,448z M195.313,448h17.375l-32,32h-17.375L195.313,448z M235.313,448h17.375l-32,32h-17.375L235.313,448z
	 M275.313,448h17.375l-32,32h-17.375L275.313,448z M315.313,448h17.375l-32,32h-17.375L315.313,448z M355.313,448h17.375l-32,32
	h-17.375L355.313,448z M175.113,432c8.59-8.406,14.445-19.551,16.246-32h145.281c1.793,12.449,7.648,23.594,16.246,32H175.113z
	 M56,344H16c0-22.055,17.945-40,40-40h152v80h-16.641c-3.902-27.09-27.207-48-55.359-48s-51.457,20.91-55.359,48H64v-32
	C64,347.574,60.414,344,56,344z M139.313,288l64-64h17.375l-64,64H139.313z M288,288h-16v-24c0-4.414,3.594-8,8-8s8,3.586,8,8V288z
	 M264,304h40v80h-80v-80H264z M448,288.641c-2.625-0.375-5.281-0.641-8-0.641h-88v-16h96V288.641z M248,16
	c127.93,0,232,104.07,232,232c0,17.48-2.055,34.801-5.895,51.68c-3.129-2.406-6.504-4.48-10.105-6.199V264c0-4.426-3.586-8-8-8H344
	c-4.414,0-8,3.574-8,8v24h-32v-24c0-13.23-10.77-24-24-24s-24,10.77-24,24v24h-76.688l66.344-66.344
	c2.289-2.289,2.977-5.727,1.734-8.719C246.152,209.953,243.23,208,240,208h-40c-2.121,0-4.16,0.84-5.656,2.344L116.688,288H56
	c-12.84,0-24.648,4.391-34.105,11.68C18.055,282.801,16,265.48,16,248C16,120.07,120.07,16,248,16z M16,360h32v24h-8
	C26.77,384,16,373.23,16,360z M96,392c0-22.055,17.945-40,40-40s40,17.945,40,40s-17.945,40-40,40S96,414.055,96,392z M16,448
	h36.688l-32,32H16V448z M480,480h-36.688l32-32H480V480z M352,392c0-22.055,17.945-40,40-40s40,17.945,40,40s-17.945,40-40,40
	S352,414.055,352,392z"/>
<path d="M136,368c-13.23,0-24,10.77-24,24s10.77,24,24,24s24-10.77,24-24S149.23,368,136,368z M136,400c-4.406,0-8-3.586-8-8
	s3.594-8,8-8s8,3.586,8,8S140.406,400,136,400z"/>
<path d="M392,368c-13.23,0-24,10.77-24,24s10.77,24,24,24s24-10.77,24-24S405.23,368,392,368z M392,400c-4.406,0-8-3.586-8-8
	s3.594-8,8-8s8,3.586,8,8S396.406,400,392,400z"/>
<path d="M33.426,272.91l15.895-1.832C48.449,263.488,48,255.711,48,248c0-110.281,89.719-200,200-200
	c107.992,0,195.777,84.473,199.848,192.305l15.992-0.602C459.441,123.23,364.633,32,248,32C128.895,32,32,128.895,32,248
	C32,256.32,32.48,264.703,33.426,272.91z"/>
<path d="M120,144h16v16h-16V144z"/>
<path d="M120,176h16v16h-16V176z"/>
<path d="M136,160h16v16h-16V160z"/>
<path d="M104,160h16v16h-16V160z"/>
<path d="M240,64h16v16h-16V64z"/>
<path d="M240,96h16v16h-16V96z"/>
<path d="M256,80h16v16h-16V80z"/>
<path d="M224,80h16v16h-16V80z"/>
<path d="M360,144h16v16h-16V144z"/>
<path d="M360,176h16v16h-16V176z"/>
<path d="M376,160h16v16h-16V160z"/>
<path d="M344,160h16v16h-16V160z"/>
</svg>
