<?xml version="1.0" encoding="iso-8859-1"?>
<!-- Generator: Adobe Illustrator 19.0.0, SVG Export Plug-In . SVG Version: 6.00 Build 0)  -->
<svg version="1.1" id="Capa_1" xmlns="http://www.w3.org/2000/svg" xmlns:xlink="http://www.w3.org/1999/xlink" x="0px" y="0px"
	 viewBox="0 0 499.816 499.816" style="enable-background:new 0 0 499.816 499.816;" xml:space="preserve">
<path style="fill:#F0BC5E;" d="M289.908,400h-144c-2.512,0-4.888-1.184-6.4-3.2l-24-32c-1.04-1.384-1.6-3.064-1.6-4.8V184
	c0-22.056,17.944-40,40-40h128c22.056,0,40,17.944,40,40v176c0,1.736-0.56,3.416-1.6,4.8l-24,32
	C294.796,398.816,292.42,400,289.908,400z"/>
<polygon points="265.908,476.184 241.908,466.584 241.908,400 225.908,400 225.908,477.416 281.908,499.816 281.908,400 
	265.908,400 "/>
<polygon points="193.908,444.184 169.908,434.584 169.908,400 153.908,400 153.908,445.416 209.908,467.816 209.908,400 
	193.908,400 "/>
<polygon points="273.908,224 257.908,224 257.908,344 225.908,344 225.908,176 209.908,176 209.908,344 177.908,344 177.908,328 
	161.908,328 161.908,344 113.908,344 113.908,360 161.908,360 177.908,360 209.908,360 225.908,360 257.908,360 273.908,360 
	321.908,360 321.908,344 273.908,344 "/>
<rect x="257.908" y="176" width="16" height="32"/>
<rect x="161.908" y="176" width="16" height="136"/>
<path d="M337.908,0v48h-40V8h-48v40h-72c-17.648,0-32,14.352-32,32v64h16v-16h16v16h16V96h56v40h48V96h56c17.648,0,32-14.352,32-32
	V0H337.908z M265.908,56h16v32h-16V56z M281.908,24v16h-16V24H281.908z M177.908,80v32h-16V80c0-8.824,7.176-16,16-16h72v16H177.908
	z M265.908,120v-16h16v16H265.908z M369.908,64c0,8.824-7.176,16-16,16h-56V64h56V16h16V64z"/>
<g>
</g>
<g>
</g>
<g>
</g>
<g>
</g>
<g>
</g>
<g>
</g>
<g>
</g>
<g>
</g>
<g>
</g>
<g>
</g>
<g>
</g>
<g>
</g>
<g>
</g>
<g>
</g>
<g>
</g>
</svg>
