<svg height="496pt" viewBox="0 0 496 496" width="496pt" xmlns="http://www.w3.org/2000/svg"><path d="m323.558594 424h-151.117188c-11.273437 0-20.441406-9.167969-20.441406-20.433594 0-3.832031 1.070312-7.574218 3.105469-10.832031l73.871093-118.191406c4.128907-6.597657 11.238282-10.542969 19.023438-10.542969s14.894531 3.945312 19.023438 10.542969l73.863281 118.191406c2.042969 3.257813 3.113281 7 3.113281 10.832031 0 11.265625-9.167969 20.433594-20.441406 20.433594zm0 0" fill="#f0bc5e"/><path d="m247.433594 394.976562-14.867188-5.953124 11.617188-29.023438h-25.128906l21.785156-43.574219 14.320312 7.148438-10.214844 20.425781h22.871094zm0 0"/><path d="m448 224v-32c0-8.824219-7.175781-16-16-16h-16v-32c0-8.824219-7.175781-16-16-16h-32c-8.824219 0-16 7.175781-16 16v32h-32v-16c0-8.824219-7.175781-16-16-16h-32c-8.824219 0-16 7.175781-16 16v16h-16v-16c0-8.824219-7.175781-16-16-16h-32c-8.824219 0-16 7.175781-16 16v16h-32v-32c0-8.824219-7.175781-16-16-16h-32c-8.824219 0-16 7.175781-16 16v32h-16c-8.824219 0-16 7.175781-16 16v32c0 8.824219 7.175781 16 16 16v208c-8.824219 0-16 7.175781-16 16v32h400v-32c0-8.824219-7.175781-16-16-16v-208c8.824219 0 16-7.175781 16-16zm-80-80h32v32h-32zm-96 16h32v16h-32zm-80 0h32v16h-32zm-96-16h32v32h-32zm288 304v16h48v16h-368v-16h48v-16h-32v-208h336v208zm-320-224v-32h368l.007812 32zm0 0"/><path d="m128 448h240v16h-240zm0 0"/><path d="m360 48h32v16h-32zm0 0"/><path d="m440 112c-30.871094 0-56-25.121094-56-56s25.128906-56 56-56 56 25.121094 56 56-25.128906 56-56 56zm0 0" fill="#f0bc5e"/><path d="m464 48h-16v-16h-16v16h-16v16h16v16h16v-16h16zm0 0"/><path d="m255.390625 133.726562-31.511719-86.628906-22.832031 60.894532-21.992187-43.992188h-75.054688v-16h84.945312l10.007813 20.007812 25.167969-67.105468 32.488281 89.371094 18.117187-42.273438h37.273438v16h-26.726562zm0 0"/><path d="m56 112c-30.871094 0-56-25.121094-56-56s25.128906-56 56-56 56 25.121094 56 56-25.128906 56-56 56zm0 0" fill="#f0bc5e"/><path d="m32 48h48v16h-48zm0 0"/><path d="m328 48h16v16h-16zm0 0"/></svg>