<?xml version="1.0" encoding="utf-8"?>
<!-- Generator: Adobe Illustrator 16.0.0, SVG Export Plug-In . SVG Version: 6.00 Build 0)  -->
<!DOCTYPE svg PUBLIC "-//W3C//DTD SVG 1.1//EN" "http://www.w3.org/Graphics/SVG/1.1/DTD/svg11.dtd">
<svg version="1.1" id="Layer_3" xmlns="http://www.w3.org/2000/svg" xmlns:xlink="http://www.w3.org/1999/xlink" x="0px" y="0px"
	 width="512px" height="512px" viewBox="0 0 512 512" enable-background="new 0 0 512 512" xml:space="preserve">
<path d="M485.36,144L447.72,52.584C436.56,25.504,410.432,8,381.145,8h-130.32c-24.521,0-47.128,12.296-60.456,32.888
	l-67.456,104.24L13.808,176.304C10.368,177.288,8,180.432,8,184v104c0,4.424,3.576,8,8,8h40.472C60.464,331.944,91,360,128,360
	s67.536-28.056,71.528-64H312v-16H199.528C195.536,244.056,165,216,128,216s-67.536,28.056-71.528,64H24v-48h24c4.424,0,8-3.576,8-8
	v-43.112l74.192-21.192c1.864-0.528,3.472-1.728,4.52-3.352L203.8,49.576C214.168,33.56,231.752,24,250.824,24h130.32
	c22.783,0,43.111,13.608,51.783,34.68l39.681,96.368c1.224,3,4.151,4.952,7.392,4.952h24v-16H485.36z M128,232
	c30.872,0,56,25.128,56,56s-25.128,56-56,56s-56-25.128-56-56S97.128,232,128,232z M40,216H24v-25.968l16-4.568V216z"/>
<path d="M128,328c22.056,0,40-17.944,40-40c0-22.057-17.944-40-40-40s-40,17.943-40,40C88,310.056,105.944,328,128,328z M128,264
	c13.232,0,24,10.768,24,24s-10.768,24-24,24s-24-10.768-24-24S114.768,264,128,264z"/>
<path d="M411.488,54.768C407.752,45.8,399.057,40,389.336,40H248.56c-8.04,0-15.504,3.992-19.968,10.688l-59.248,88.872
	c-1.632,2.456-1.792,5.608-0.4,8.208S173.048,152,176,152h264c2.672,0,5.168-1.336,6.656-3.56c1.487-2.224,1.76-5.048,0.728-7.512
	L411.488,54.768z M241.904,59.56c1.488-2.232,3.976-3.56,6.656-3.56H304v80H190.944L241.904,59.56z M320,136V56h69.336
	c3.232,0,6.137,1.928,7.385,4.92L428,136H320z"/>
<path d="M288,168h32v16h-32V168z"/>
<path d="M416,168h32v16h-32V168z"/>
<ellipse fill="#F0BC5E" stroke="#000000" stroke-miterlimit="10" cx="56" cy="400" rx="24.01" ry="24.677"/>
<ellipse fill="#F0BC5E" stroke="#000000" stroke-miterlimit="10" cx="152" cy="456" rx="24.01" ry="24.677"/>
<ellipse fill="#F0BC5E" stroke="#000000" stroke-miterlimit="10" cx="56" cy="56" rx="24.01" ry="24.677"/>
<ellipse fill="#F0BC5E" stroke="#000000" stroke-miterlimit="10" cx="128" cy="288" rx="24.01" ry="24.676"/>
<rect x="328" y="328" fill="#F0BC5E" stroke="#000000" stroke-miterlimit="10" width="160" height="160"/>
<ellipse fill="#FFFFFF" stroke="#000000" stroke-miterlimit="10" cx="408" cy="392" rx="24.01" ry="24.677"/>
<path d="M192,448c-17.648,0-32-14.352-32-32c0-4.424-3.576-8-8-8s-8,3.576-8,8c0,17.648-14.352,32-32,32c-4.424,0-8,3.576-8,8
	s3.576,8,8,8c17.648,0,32,14.352,32,32c0,4.424,3.576,8,8,8s8-3.576,8-8c0-17.648,14.352-32,32-32c4.424,0,8-3.576,8-8
	S196.424,448,192,448z M152,469.496c-3.552-5.344-8.152-9.937-13.496-13.496c5.344-3.552,9.936-8.152,13.496-13.496
	c3.552,5.344,8.152,9.937,13.496,13.496C160.152,459.552,155.552,464.152,152,469.496z"/>
<path d="M96,392c-17.648,0-32-14.352-32-32c0-4.424-3.576-8-8-8s-8,3.576-8,8c0,17.648-14.352,32-32,32c-4.424,0-8,3.576-8,8
	s3.576,8,8,8c17.648,0,32,14.352,32,32c0,4.424,3.576,8,8,8s8-3.576,8-8c0-17.648,14.352-32,32-32c4.424,0,8-3.576,8-8
	S100.424,392,96,392z M56,413.496c-3.552-5.344-8.152-9.944-13.496-13.496c5.344-3.552,9.944-8.152,13.496-13.496
	c3.552,5.344,8.152,9.944,13.496,13.496C64.152,403.552,59.552,408.152,56,413.496z"/>
<path d="M16,64c17.648,0,32,14.352,32,32c0,4.424,3.576,8,8,8s8-3.576,8-8c0-17.648,14.352-32,32-32c4.424,0,8-3.576,8-8
	s-3.576-8-8-8c-17.648,0-32-14.352-32-32c0-4.424-3.576-8-8-8s-8,3.576-8,8c0,17.648-14.352,32-32,32c-4.424,0-8,3.576-8,8
	S11.576,64,16,64z M56,42.504c3.552,5.344,8.152,9.944,13.496,13.496C64.152,59.552,59.552,64.152,56,69.496
	C52.448,64.152,47.848,59.552,42.504,56C47.848,52.448,52.448,47.848,56,42.504z"/>
<path d="M500.24,305.216L440,267.568V208c0-4.424-3.576-8-8-8h-48c-4.424,0-8,3.576-8,8v59.568l-60.24,37.647
	C313.424,306.68,312,309.24,312,312v48c0,2.128,0.84,4.16,2.344,5.656L328,379.313v49.376l-13.656,13.655
	C312.84,443.84,312,445.872,312,448v48c0,4.424,3.576,8,8,8h176c4.424,0,8-3.576,8-8v-48c0-2.128-0.84-4.16-2.344-5.656L488,428.688
	v-49.376l13.656-13.656C503.16,364.16,504,362.128,504,360v-48C504,309.24,502.576,306.68,500.24,305.216z M386.296,280h43.408
	l51.2,32H335.096L386.296,280z M392,216h32v48h-32V216z M474.344,370.344C472.84,371.84,472,373.872,472,376v56
	c0,2.128,0.84,4.16,2.344,5.656L488,451.313V488H328v-36.688l13.656-13.656C343.16,436.16,344,434.128,344,432v-56
	c0-2.128-0.84-4.16-2.344-5.656L328,356.688V328h160v28.688L474.344,370.344z"/>
<path d="M448,384c-17.648,0-32-14.352-32-32c0-4.424-3.576-8-8-8s-8,3.576-8,8c0,17.648-14.352,32-32,32c-4.424,0-8,3.576-8,8
	s3.576,8,8,8c17.648,0,32,14.352,32,32c0,4.424,3.576,8,8,8s8-3.576,8-8c0-17.648,14.352-32,32-32c4.424,0,8-3.576,8-8
	S452.424,384,448,384z M408,405.496c-3.552-5.344-8.152-9.937-13.496-13.496c5.344-3.552,9.936-8.152,13.496-13.496
	c3.552,5.344,8.152,9.937,13.496,13.496C416.152,395.552,411.552,400.152,408,405.496z"/>
</svg>
