<svg height="496pt" viewBox="0 -52 496 496" width="496pt" xmlns="http://www.w3.org/2000/svg"><path d="m342.398438 179.199219-12.796876 9.601562 14.398438 19.199219h-181.902344c.382813-.527344.710938-1.078125 1.101563-1.601562l19.199219-25.597657-12.796876-9.601562-19.203124 25.601562c-19.597657 26.144531-30.398438 58.527344-30.398438 91.199219h16c0-22.273438 5.640625-44.375 16.0625-64h87.9375v72h-80v16h80v16h-64v16h152v-16h-72v-16h45.414062l2.019532-5.03125c8.496094-21.242188 28.765625-34.96875 51.644531-34.96875h12.921875v-58.664062zm-51.589844 116.800781h-34.808594v-72h96v32.0625c-26.359375 1.105469-49.648438 16.378906-61.191406 39.9375zm0 0"/><path d="m469.726562 212.542969-65.277343-11.863281-36.289063-46.863282c-3.121094-4.679687-7.113281-8.578125-11.847656-11.59375l-8.578125 13.511719c2.851563 1.808594 5.242187 4.144531 7.449219 7.417969l40.382812 52.167968 71.304688 12.960938c7.609375 1.390625 13.128906 8.015625 13.128906 15.75v3.96875h-24v16h24v16h-24v16h24v16c0 8.824219-7.175781 16-16 16h-40v16h40c17.648438 0 32-14.351562 32-32v-67.96875c0-15.472656-11.046875-28.710938-26.273438-31.488281zm0 0"/><path d="m416 296h-16c-13.230469 0-24-10.769531-24-24s10.769531-24 24-24h16c13.230469 0 24 10.769531 24 24s-10.769531 24-24 24zm-16-32c-4.414062 0-8 3.585938-8 8s3.585938 8 8 8h16c4.414062 0 8-3.585938 8-8s-3.585938-8-8-8zm0 0"/><path d="m155.34375 146.398438c-.984375.90625-1.9375 1.847656-2.488281 2.496093l-57.199219 56.226563c-2.296875 2.253906-5.183594 3.757812-8.351562 4.335937l-61.039063 11.09375c-15.21875 2.769531-26.265625 16.007813-26.265625 31.480469v59.96875c0 17.648438 14.351562 32 32 32h48v-16h-48c-8.824219 0-16-7.175781-16-16v-34.238281l25.824219-8.609375c13.070312-4.351563 22.863281-14.929688 26.207031-28.304688l3.046875-12.191406 19.089844-3.464844c6.335937-1.160156 12.121093-4.152344 16.710937-8.671875l57.5625-56.597656c.527344-.59375 1.09375-1.167969 1.6875-1.699219zm-102.832031 90.570312c-2.015625 8.039062-7.902344 14.390625-15.757813 17.015625l-20.753906 6.917969v-8.871094c0-7.734375 5.519531-14.359375 13.136719-15.75l24.671875-4.480469zm0 0"/><path d="m376 392c-30.871094 0-56-25.128906-56-56s25.128906-56 56-56 56 25.128906 56 56-25.128906 56-56 56zm0 0" fill="#f0bc5e"/><path d="m376 360c-13.230469 0-24-10.769531-24-24s10.769531-24 24-24 24 10.769531 24 24-10.769531 24-24 24zm0-32c-4.414062 0-8 3.585938-8 8s3.585938 8 8 8 8-3.585938 8-8-3.585938-8-8-8zm0 0"/><path d="m192 240h32v16h-32zm0 0"/><path d="m304 240h32v16h-32zm0 0"/><path d="m256 224c-61.761719 0-112-50.238281-112-112s50.238281-112 112-112 112 50.238281 112 112-50.238281 112-112 112zm0 0" fill="#f0bc5e"/><path d="m296 184h-80c-8.824219 0-16-7.175781-16-16v-64c0-8.824219 7.175781-16 16-16h80c8.824219 0 16 7.175781 16 16v64c0 8.824219-7.175781 16-16 16zm-80-80v64h80.015625l-.015625-64zm0 0"/><path d="m248 144h16v32h-16zm0 0"/><path d="m296 96h-16v-24c0-13.230469-10.769531-24-24-24s-24 10.769531-24 24v24h-16v-24c0-22.054688 17.945312-40 40-40s40 17.945312 40 40zm0 0"/><path d="m248 112h16v16h-16zm0 0"/><path d="m128 392c-30.871094 0-56-25.128906-56-56s25.128906-56 56-56 56 25.128906 56 56-25.128906 56-56 56zm0 0" fill="#f0bc5e"/><path d="m128 360c-13.230469 0-24-10.769531-24-24s10.769531-24 24-24 24 10.769531 24 24-10.769531 24-24 24zm0-32c-4.414062 0-8 3.585938-8 8s3.585938 8 8 8 8-3.585938 8-8-3.585938-8-8-8zm0 0"/></svg>