<?xml version="1.0" encoding="utf-8"?>
<!-- Generator: Adobe Illustrator 16.0.0, SVG Export Plug-In . SVG Version: 6.00 Build 0)  -->
<!DOCTYPE svg PUBLIC "-//W3C//DTD SVG 1.1//EN" "http://www.w3.org/Graphics/SVG/1.1/DTD/svg11.dtd">
<svg version="1.1" id="Capa_1" xmlns="http://www.w3.org/2000/svg" xmlns:xlink="http://www.w3.org/1999/xlink" x="0px" y="0px"
	 width="496px" height="496px" viewBox="0 0 496 496" enable-background="new 0 0 496 496" xml:space="preserve">
<path fill="#FFFFFF" d="M248,296c-30.879,0-56,25.121-56,56s25.121,56,56,56s56-25.121,56-56S278.879,296,248,296z"/>
<path fill="#FFFFFF" stroke="#000000" stroke-width="15" stroke-miterlimit="10" d="M488,176H257.895
	c-11.184,0-20.277-9.098-20.277-20.281c0-4.023,1.176-7.918,3.406-11.254l0.863-1.082l86.867-91
	C336.266,44.512,346.809,40,357.688,40H488V176z"/>
<path d="M248,312c-22.055,0-40,17.945-40,40s17.945,40,40,40s40-17.945,40-40S270.055,312,248,312z M248,376
	c-13.23,0-24-10.77-24-24s10.77-24,24-24s24,10.77,24,24S261.23,376,248,376z"/>
<path d="M354.121,0c-18.953,0-36.832,7.305-50.379,20.551l-94.016,92.059l-140.32,27.535c-11.855,3.168-22.133,10.527-28.941,20.734
	c-1.449,2.176-2.68,4.473-3.777,6.832C29.352,169.266,24,175.625,24,183.305V200c0,5.895,3.238,11,8,13.777v40.336l-16,32V312
	c-8.824,0-16,7.176-16,16v32c0,8.824,7.176,16,16,16h120v-24c0-30.922,12.328-59.703,34.703-81.047
	c22.359-21.336,51.68-32.305,82.723-30.824C313.184,242.945,360,293.566,360,355.391V376h136V0H354.121z M73.008,155.727
	l112.336-22.031l-30.895,26.48l-97.848,6.07C61.055,161.145,66.809,157.398,73.008,155.727z M40,200l-0.223-16.672l107.016-6.641
	c-4.496,10.969-13.945,19.258-25.672,22.184C118.145,199.625,115.07,200,112,200H40z M120,352v8H16v-32h106.215
	C120.754,335.824,120,343.848,120,352z M32,312v-16h56v-16H36.945l8-16h110.414c-4.801,5.039-9.152,10.367-13.016,16H104v16h28.902
	c-2.527,5.191-4.781,10.504-6.582,16H32z M254.176,224.145c-29.305-1.359-57.289,7.102-80.582,23.855H48v-32h64
	c4.383,0,8.762-0.535,13-1.602c19.246-4.813,34.199-19.758,39.008-39.008l0.746-2.977l52.461-44.965l0.281-0.059l97.441-95.406
	C325.465,21.672,339.375,16,354.121,16H480v296H368.754C352.031,262.688,307.711,226.664,254.176,224.145z M376,360v-4.609
	c0-9.398-1.023-18.543-2.84-27.391H480v32H376z"/>
<path d="M248,256c-52.938,0-96,43.063-96,96s43.063,96,96,96s96-43.063,96-96S300.938,256,248,256z M294.672,416.84l-7.742-13.414
	l-13.859,8l7.762,13.445c-7.719,3.488-16.055,5.848-24.832,6.723V416h-16v15.594c-8.785-0.875-17.113-3.234-24.832-6.723
	l7.762-13.445l-13.859-8l-7.742,13.414c-6.992-5.047-13.121-11.176-18.168-18.168l13.414-7.742l-8-13.859l-13.445,7.762
	c-3.488-7.719-5.848-16.055-6.723-24.832H184v-16h-15.594c0.875-8.785,3.234-17.113,6.723-24.832l13.445,7.762l8-13.859
	l-13.414-7.742c5.047-6.992,11.176-13.121,18.168-18.168l7.742,13.414l13.859-8l-7.762-13.445
	c7.719-3.488,16.055-5.848,24.832-6.723V288h16v-15.594c8.785,0.875,17.113,3.234,24.832,6.723l-7.762,13.445l13.859,8l7.742-13.414
	c6.992,5.047,13.121,11.176,18.168,18.168l-13.414,7.742l8,13.859l13.445-7.762c3.488,7.719,5.848,16.055,6.723,24.832H312v16
	h15.594c-0.875,8.785-3.234,17.113-6.723,24.832l-13.445-7.762l-8,13.859l13.414,7.742
	C307.793,405.664,301.664,411.793,294.672,416.84z"/>
<path d="M240,344h16v16h-16V344z"/>
<path fill="#F0BC5E" d="M449.867,232.128c0,8.766-7.106,15.872-15.872,15.872h-52.213c-8.766,0-15.872-7.106-15.872-15.872l0,0
	c0-8.766,7.106-15.872,15.872-15.872h52.213C442.761,216.256,449.867,223.362,449.867,232.128L449.867,232.128z"/>
<path d="M384,256h48c13.23,0,24-10.77,24-24s-10.77-24-24-24h-48c-13.23,0-24,10.77-24,24S370.77,256,384,256z M384,224h48
	c4.406,0,8,3.594,8,8s-3.594,8-8,8h-48c-4.406,0-8-3.594-8-8S379.594,224,384,224z"/>
</svg>
