<svg height="496pt" viewBox="-64 0 496 496" width="496pt" xmlns="http://www.w3.org/2000/svg"><g fill="#f0bc5e"><path d="m315.558594 129.34375h-263.117188l-8.875 13.3125 18.753906 12.496094c36.144532 24.105468 78.214844 36.847656 121.679688 36.847656 22.558594 0 44.910156-3.464844 66.742188-10.40625l16.984374-6.195312c13.242188-5.46875 26.015626-12.277344 37.960938-20.238282l18.753906-12.496094zm0 0"/><path d="m281.007812 45.359375c-1.304687-7.742187-7.9375-13.359375-15.785156-13.359375h-162.445312c-7.839844 0-14.480469 5.617188-15.785156 13.375l-14.878907 89.3125h223.78125zm0 0"/><path d="m273.414062 496c-7.054687 0-14.039062-1.046875-20.757812-3.121094l-100.65625-30.976562v-75.8125l100.65625-30.976563c6.71875-2.074219 13.703125-3.121093 20.757812-3.121093 38.921876.007812 70.585938 31.671874 70.585938 70.59375v2.828124c0 38.921876-31.664062 70.585938-70.585938 70.585938zm0 0"/></g><path d="m368 112v-8c0-8.824219-7.175781-16-16-16h-32.855469l-10.382812-55.375c-3.554688-18.90625-20.089844-32.625-39.320313-32.625h-170.882812c-19.230469 0-35.765625 13.71875-39.320313 32.632812l-10.375 55.367188h-32.863281c-8.824219 0-16 7.175781-16 16v8c0 16.617188 12.777344 30.152344 28.992188 31.695312l-13.960938 13.960938c-4.535156 4.527344-7.03125 10.558594-7.03125 16.976562v64.808594c0 8.039063 4 15.503906 10.6875 19.964844l5.3125 3.546875v49.046875c0 13.230469 10.769531 24 24 24h40c13.230469 0 24-10.769531 24-24v-24h144v24c0 13.230469 10.769531 24 24 24h40c13.230469 0 24-10.769531 24-24v-49.054688l5.3125-3.546874c6.6875-4.453126 10.6875-11.917969 10.6875-19.957032v-64.808594c0-6.410156-2.496094-12.441406-7.03125-16.976562l-13.960938-13.960938c16.214844-1.542968 28.992188-15.078124 28.992188-31.695312zm-24.070312 128h-79.929688c-10.414062 0-19.214844-6.710938-22.527344-16h35.855469c8.601563 0 17.121094-2.839844 24-8l42.671875-32v55.441406c0 .191406-.054688.367188-.070312.558594zm-319.929688-.558594v-55.441406l42.664062 32c6.878907 5.160156 15.398438 8 24 8h35.855469c-3.3125 9.289062-12.113281 16-22.527343 16h-79.929688c-.007812-.191406-.0625-.367188-.0625-.558594zm80 16.558594c2.734375 0 5.414062-.28125 8-.808594v16.808594h-43.160156c-1.582032 0-3.121094-.464844-4.441406-1.34375l-21.972657-14.65625zm24-8.207031c7.625-5.769531 13.214844-14.097657 15.191406-23.792969h.808594v48h-16zm32-23.792969h16v48h-16zm32 0h16v48h-16zm32 0h.808594c1.976562 9.703125 7.566406 18.023438 15.191406 23.792969v24.207031h-16zm32 31.191406c2.585938.527344 5.265625.808594 8 .808594h61.574219l-21.980469 14.65625c-1.320312.878906-2.851562 1.34375-4.433594 1.34375h-43.160156zm35.734375-51.992187c-4.125 3.097656-9.246094 4.800781-14.40625 4.800781h-186.664063c-5.160156 0-10.28125-1.703125-14.398437-4.800781l-48.089844-36.070313 23.136719-23.128906h265.375l23.136719 23.136719zm-216.765625-167.625c2.128906-11.34375 12.046875-19.574219 23.589844-19.574219h170.882812c11.535156 0 21.460938 8.230469 23.589844 19.574219l17.328125 92.425781h-252.71875zm-58.96875 76.425781v-8h29.863281l-4.496093 24h-9.367188c-8.824219 0-16-7.175781-16-16zm80 200c0 4.40625-3.59375 8-8 8h-40c-4.40625 0-8-3.59375-8-8v-38.382812l15.527344 10.351562c3.960937 2.640625 8.5625 4.03125 13.320312 4.03125h27.152344zm232 0c0 4.40625-3.59375 8-8 8h-40c-4.40625 0-8-3.59375-8-8v-24h27.160156c4.761719 0 9.359375-1.390625 13.3125-4.03125l15.527344-10.351562zm24-200c0 8.824219-7.175781 16-16 16h-9.359375l-4.496094-24h29.855469zm0 0"/><path d="m192 432h16v16h-16zm0 0"/><path d="m192 400h16v16h-16zm0 0"/><path d="m120 424c0 13.230469 10.769531 24 24 24h8v-16h-8c-4.40625 0-8-3.59375-8-8s3.59375-8 8-8h8v-16h-8c-13.230469 0-24 10.769531-24 24zm0 0"/><path d="m288 384h-32c-13.230469 0-24 10.769531-24 24v32c0 13.230469 10.769531 24 24 24h32c13.230469 0 24-10.769531 24-24v-32c0-13.230469-10.769531-24-24-24zm-32 16h32c4.40625 0 8 3.59375 8 8v8h-48v-8c0-4.40625 3.59375-8 8-8zm32 48h-32c-4.40625 0-8-3.59375-8-8v-8h48v8c0 4.40625-3.59375 8-8 8zm0 0"/><path d="m61.089844 373.65625-11.3125-11.3125c-16.625 16.625-25.777344 38.71875-25.777344 62.222656s9.152344 45.601563 25.777344 62.226563l11.3125-11.3125c-13.601563-13.601563-21.089844-31.679688-21.089844-50.914063 0-19.230468 7.488281-37.308594 21.089844-50.910156zm0 0"/><path d="m72.398438 384.976562c-10.574219 10.574219-16.398438 24.640626-16.398438 39.597657 0 14.960937 5.824219 29.027343 16.398438 39.59375l11.3125-11.3125c-7.550782-7.550781-11.710938-17.597657-11.710938-28.289063 0-10.679687 4.160156-20.726562 11.710938-28.285156zm0 0"/><path d="m106.335938 418.910156-11.304688-11.316406c-4.535156 4.535156-7.03125 10.558594-7.03125 16.972656 0 6.410156 2.496094 12.441406 7.03125 16.96875l11.3125-11.3125c-1.511719-1.511718-2.34375-3.519531-2.34375-5.65625 0-2.132812.832031-4.140625 2.335938-5.65625zm0 0"/></svg>