<?xml version="1.0" encoding="iso-8859-1"?>
<!-- Generator: Adobe Illustrator 19.0.0, SVG Export Plug-In . SVG Version: 6.00 Build 0)  -->
<svg version="1.1" id="Capa_1" xmlns="http://www.w3.org/2000/svg" xmlns:xlink="http://www.w3.org/1999/xlink" x="0px" y="0px"
	 viewBox="0 0 500.944 500.944" style="enable-background:new 0 0 500.944 500.944;" xml:space="preserve">
<path style="fill:#F0BC5E;" d="M38.12,274.176L38.12,274.176c-5.408,0-10.848-1.144-15.6-3.736
	c-23.384-12.776-27.44-37.768-17.304-55.52l27.832-48.712c3.072-5.376,10.824-5.376,13.888,0l27.832,48.712
	c8.192,14.336,7.12,33.392-5.904,46.92C60.928,270.096,49.568,274.176,38.12,274.176z"/>
<polygon points="313.176,347.304 339.264,355.992 358.656,326.912 345.344,318.032 332.736,336.952 310.824,329.64 296,339.528 
	296,322.472 280,322.472 280,366.656 250.968,355.04 245.032,369.904 252.712,372.976 245.256,384.16 214.424,368.736 
	194.344,388.816 205.656,400.128 217.576,388.208 250.744,404.784 267.896,379.048 280,383.888 280,418.472 176,418.472 
	176,434.472 320,434.472 320,418.472 296,418.472 296,358.752 "/>
<path d="M48,354.472H32c0-22.056,17.944-40,40-40v16C58.768,330.472,48,341.24,48,354.472z"/>
<path d="M493.8,307.928l-33.664-72.92c-9.12-19.768-29.08-32.536-50.848-32.536H226.504c-19.232,0-37.312,7.488-50.904,21.088
	l-58.912,58.912H72c-39.704,0-72,32.304-72,72v56c0,13.232,10.768,24,24,24h24v-16H24c-4.416,0-8-3.592-8-8v-56
	c0-30.88,25.128-56,56-56h51.312l63.6-63.6c10.576-10.576,24.632-16.4,39.592-16.4h182.784c15.544,0,29.8,9.12,36.312,23.24
	l33.664,72.92c0.488,1.04,0.736,2.2,0.736,3.352v12.488h-16v16h16v16h-16v16h16v32c0,4.408-3.584,8-8,8h-24v16h24
	c13.232,0,24-10.768,24-24v-92.488C496,314.536,495.232,311.056,493.8,307.928z"/>
<rect x="216" y="322.472" width="32" height="16"/>
<path style="fill:#F0BC5E;" d="M112,498.472c-39.704,0-72-32.304-72-72s32.296-72,72-72s72,32.304,72,72
	S151.704,498.472,112,498.472z"/>
<path d="M112,458.472c-17.648,0-32-14.352-32-32s14.352-32,32-32s32,14.352,32,32S129.648,458.472,112,458.472z M112,410.472
	c-8.824,0-16,7.176-16,16c0,8.824,7.176,16,16,16s16-7.176,16-16C128,417.648,120.824,410.472,112,410.472z"/>
<path style="fill:#F0BC5E;" d="M384,498.472c-39.704,0-72-32.304-72-72s32.296-72,72-72s72,32.304,72,72
	S423.704,498.472,384,498.472z"/>
<path d="M384,458.472c-17.648,0-32-14.352-32-32s14.352-32,32-32s32,14.352,32,32S401.648,458.472,384,458.472z M384,410.472
	c-8.824,0-16,7.176-16,16c0,8.824,7.176,16,16,16s16-7.176,16-16C400,417.648,392.824,410.472,384,410.472z"/>
<path d="M457.88,306.472H400v-16h32.864l-16.32-35.352c-1.296-2.824-4.144-4.648-7.256-4.648H226.504
	c-6.32,0-12.504,2.56-16.968,7.024l-32.976,32.976H384v16H137.936l60.288-60.288c7.448-7.44,17.752-11.712,28.28-11.712h182.784
	c9.336,0,17.88,5.48,21.792,13.952L457.88,306.472z"/>
<path d="M432,58.472h68.944l-24-48h-64.256l-24,24H174.456c-12.664,0-25.096-4.36-34.984-12.272L114.808,2.472H0v144h114.808
	l24.664-19.728c9.888-7.912,22.32-12.272,34.984-12.272h214.232l24,24h64.256l24-48H432V58.472z M104,130.472H88v-112h16V130.472z
	 M16,114.472h40v-16H16v-16h40v-16H16v-16h40v-16H16v-16h56v112H16V114.472z M475.056,106.472l-8,16h-47.744l-24-24H174.456
	c-16.288,0-32.256,5.6-44.984,15.776L120,121.824V27.12l9.472,7.576c12.72,10.176,28.696,15.776,44.984,15.776h220.856l24-24h47.744
	l8,16H432c-8.824,0-16,7.176-16,16v32c0,8.824,7.176,16,16,16H475.056z"/>
<rect x="136" y="66.472" width="40" height="16"/>
<rect x="192" y="66.472" width="208" height="16"/>
<g>
</g>
<g>
</g>
<g>
</g>
<g>
</g>
<g>
</g>
<g>
</g>
<g>
</g>
<g>
</g>
<g>
</g>
<g>
</g>
<g>
</g>
<g>
</g>
<g>
</g>
<g>
</g>
<g>
</g>
</svg>
