<?xml version="1.0" encoding="iso-8859-1"?>
<!-- Generator: Adobe Illustrator 19.0.0, SVG Export Plug-In . SVG Version: 6.00 Build 0)  -->
<svg version="1.1" id="Capa_1" xmlns="http://www.w3.org/2000/svg" xmlns:xlink="http://www.w3.org/1999/xlink" x="0px" y="0px"
	 viewBox="0 0 496 496" style="enable-background:new 0 0 496 496;" xml:space="preserve">
<g>
	<rect x="296" y="32" style="fill:#F0BC5E;" width="192" height="32"/>
	<path style="fill:#F0BC5E;" d="M148.208,39.216c-0.392-4.088-3.84-7.216-7.96-7.216H8v16v136v16h147.104
		c2.256,0,4.408-0.952,5.92-2.624c1.52-1.672,2.256-3.904,2.04-6.16L148.208,39.216z"/>
	<path style="fill:#F0BC5E;" d="M200,368h-64c-4.424,0-8-3.576-8-8v-32c0-4.424,3.576-8,8-8h64c4.424,0,8,3.576,8,8v32
		C208,364.424,204.424,368,200,368z"/>
</g>
<path d="M232,120h-43.504l-9.376-84.424C176.856,15.296,159.768,0,139.36,0H0v464h72v-64h48v72c0,13.232,10.768,24,24,24h48
	c13.232,0,24-10.768,24-24v-72h16c13.232,0,24-10.768,24-24v-64c0-10.416-6.712-19.216-16-22.528V256c0-22.056-17.944-40-40-40
	h-0.84l-1.776-16H232c13.232,0,24-10.768,24-24v-32C256,130.768,245.232,120,232,120z M16,368v-64h24v64H16z M56,448H16v-64h40V448z
	 M56,368v-64h32v80H72v-16H56z M200,416h-16v16h16v16h-16v16h16v8c0,4.416-3.584,8-8,8h-48c-4.416,0-8-3.584-8-8v-8h16v-16h-16v-16
	h16v-16h-16v-16h64V416z M240,376c0,4.416-3.584,8-8,8H104v-80h128c4.416,0,8,3.584,8,8V376z M200,232c13.232,0,24,10.768,24,24v32
	H16v-56h32v-16H16V16h123.36c12.24,0,22.496,9.176,23.848,21.344L183.064,216H64v16H200z M240,176c0,4.408-3.584,8-8,8h-36.392
	l-5.336-48H232c4.416,0,8,3.592,8,8V176z"/>
<path d="M496,136V0H288v136c0,49.072,34.208,90.216,80,101.096V280h-61.592l8.888,16H288v24h-16v16h16v16h58.4l8.888,16H360v19.16
	c0,17.28-5.072,34.024-14.656,48.408L337.056,448H352c26.472,0,48-21.528,48-48v-32h16v104c0,13.232,10.768,24,24,24h32
	c13.232,0,24-10.768,24-24V368v-8v-56c0-13.232-10.768-24-24-24h-56v-42.904C461.792,226.216,496,185.072,496,136z M304,136V48h144
	V32H304V16h176v16h-16v16h16v88c0,48.52-39.48,88-88,88S304,184.52,304,136z M304,336v-24h20.184l13.336,24H304z M384,400
	c0,11.976-6.608,22.44-16.376,27.92c5.52-12.808,8.376-26.632,8.376-40.76V368h8V400z M480,384h-16v16h16v16h-16v16h16v16h-16v16h16
	v8c0,4.416-3.584,8-8,8h-32c-4.416,0-8-3.584-8-8V368h48V384z M480,304v48H364.712l-31.12-56H472C476.416,296,480,299.584,480,304z
	 M400,280h-16v-40.408c2.648,0.208,5.296,0.408,8,0.408s5.352-0.2,8-0.408V280z"/>
<path d="M464,136h-16c0,30.88-25.128,56-56,56v16C431.704,208,464,175.696,464,136z"/>
<rect x="448" y="104" width="16" height="16"/>
<g>
</g>
<g>
</g>
<g>
</g>
<g>
</g>
<g>
</g>
<g>
</g>
<g>
</g>
<g>
</g>
<g>
</g>
<g>
</g>
<g>
</g>
<g>
</g>
<g>
</g>
<g>
</g>
<g>
</g>
</svg>
