<?xml version="1.0" encoding="utf-8"?>
<!-- Generator: Adobe Illustrator 16.0.0, SVG Export Plug-In . SVG Version: 6.00 Build 0)  -->
<!DOCTYPE svg PUBLIC "-//W3C//DTD SVG 1.1//EN" "http://www.w3.org/Graphics/SVG/1.1/DTD/svg11.dtd">
<svg version="1.1" id="Capa_1" xmlns="http://www.w3.org/2000/svg" xmlns:xlink="http://www.w3.org/1999/xlink" x="0px" y="0px"
	 width="560px" height="560px" viewBox="200 0 560 560" enable-background="new 200 0 560 560" xml:space="preserve">
<circle fill="#F0BC5E" cx="481.484" cy="279.743" r="98.016"/>
<rect x="266.938" y="208.336" fill="#F0BC5E" stroke="#000000" stroke-miterlimit="10" width="19.562" height="146.039"/>
<rect x="668.094" y="208.336" fill="#F0BC5E" width="27.406" height="146.039"/>
<circle fill="#FFFFFF" stroke="#000000" stroke-miterlimit="10" cx="478.784" cy="280.695" r="33.222"/>
<g>
	<g>
		<path d="M563.169,214.322c-2.822-3.544-7.982-4.131-11.527-1.309c-3.545,2.821-4.131,7.982-1.311,11.527
			c12.664,15.91,19.356,35.088,19.356,55.46c0,49.152-39.988,89.141-89.142,89.141c-49.152,0-89.14-39.988-89.14-89.141
			c0-49.152,39.987-89.141,89.141-89.141c16.817,0,33.2,4.712,47.376,13.625c3.836,2.409,8.899,1.256,11.312-2.578
			c2.41-3.836,1.257-8.9-2.578-11.313c-16.795-10.559-36.197-16.142-56.109-16.142C422.349,174.452,375,221.801,375,279.999
			s47.349,105.547,105.547,105.547S586.094,338.198,586.094,280C586.094,255.877,578.166,233.168,563.169,214.322z"/>
	</g>
</g>
<g>
	<g>
		<path d="M480.547,235.703c-24.426,0-44.297,19.871-44.297,44.297s19.871,44.297,44.297,44.297s44.297-19.871,44.297-44.297
			S504.973,235.703,480.547,235.703z M480.547,307.891c-15.379,0-27.891-12.512-27.891-27.891s12.512-27.891,27.891-27.891
			S508.438,264.62,508.438,280C508.438,295.379,495.926,307.891,480.547,307.891z"/>
	</g>
</g>
<g>
	<g>
		<circle cx="480.547" cy="216.563" r="10.938"/>
	</g>
</g>
<g>
	<g>
		<circle cx="525.401" cy="235.146" r="10.938"/>
	</g>
</g>
<g>
	<g>
		<circle cx="543.984" cy="280" r="10.938"/>
	</g>
</g>
<g>
	<g>
		<circle cx="525.401" cy="324.854" r="10.938"/>
	</g>
</g>
<g>
	<g>
		<circle cx="480.547" cy="343.438" r="10.938"/>
	</g>
</g>
<g>
	<g>
		<circle cx="435.692" cy="324.854" r="10.938"/>
	</g>
</g>
<g>
	<g>
		<circle cx="417.109" cy="280" r="10.938"/>
	</g>
</g>
<g>
	<g>
		<circle cx="435.692" cy="235.146" r="10.938"/>
	</g>
</g>
<g>
	<g>
		<path d="M740.397,245.547H707.5v-27.344c0-13.268-10.794-24.063-24.063-24.063c-8.887,0-16.657,4.846-20.824,12.031h-34.485
			c-17.496,0-34.146-7.2-45.68-19.756c-26.144-28.456-63.284-44.776-101.9-44.776s-75.757,16.32-101.9,44.776
			c-11.535,12.555-28.184,19.756-45.679,19.756h-34.486c-4.167-7.185-11.938-12.031-20.825-12.031
			c-13.268,0-24.063,10.794-24.063,24.063v27.344h-33.992c-10.808,0-19.602,8.794-19.602,19.602v31.89
			c0,10.808,8.794,19.602,19.602,19.602h33.992v27.345c0,13.269,10.794,24.063,24.063,24.063c9.762,0,18.178-5.846,21.948-14.219
			h33.363c17.496,0,34.145,7.2,45.679,19.757c26.143,28.456,63.284,44.775,101.9,44.775s75.758-16.319,101.9-44.775
			c11.533-12.556,28.184-19.757,45.68-19.757h33.362c3.771,8.373,12.187,14.219,21.947,14.219c13.27,0,24.063-10.794,24.063-24.063
			v-27.345h32.897c10.809,0,19.603-8.794,19.603-19.602v-31.89C760,254.341,751.206,245.547,740.397,245.547z M253.594,300.234
			h-33.992c-1.762,0-3.196-1.435-3.196-3.195v-31.89c0-1.762,1.434-3.196,3.196-3.196h33.992V300.234z M285.313,343.984
			c0,4.221-3.435,7.655-7.656,7.655c-4.221,0-7.657-3.435-7.657-7.655V218.203c0-4.221,3.435-7.656,7.656-7.656
			c4.221,0,7.656,3.436,7.656,7.656L285.313,343.984L285.313,343.984z M691.094,343.984c0,4.221-3.435,7.655-7.655,7.655
			c-4.222,0-7.656-3.436-7.656-7.655v-22.97c0-4.53-3.673-8.202-8.203-8.202s-8.203,3.672-8.203,8.202v16.406h-31.248
			c-22.077,0-43.129,9.135-57.762,25.063c-23.044,25.084-55.782,39.469-89.818,39.469s-66.774-14.385-89.819-39.469
			c-14.631-15.93-35.685-25.063-57.761-25.063h-31.249V222.578h31.249c22.075,0,43.127-9.135,57.761-25.062
			c23.044-25.084,55.783-39.469,89.819-39.469s66.774,14.385,89.818,39.469c14.633,15.928,35.685,25.062,57.762,25.062h31.248
			v65.625c0,4.531,3.673,8.203,8.203,8.203s8.203-3.672,8.203-8.203v-70c0-4.221,3.435-7.656,7.656-7.656
			c4.221,0,7.655,3.436,7.655,7.656V343.984z M743.594,297.039c0,1.762-1.434,3.195-3.195,3.195H707.5v-38.281h32.897
			c1.763,0,3.195,1.434,3.195,3.196L743.594,297.039L743.594,297.039z"/>
	</g>
</g>
</svg>
