<svg height="496pt" viewBox="0 -1 496 495" width="496pt" xmlns="http://www.w3.org/2000/svg"><g fill="#f0bc5e"><path d="m160 390.15625h16v48h-16zm0 0"/><path d="m192 390.15625h16v48h-16zm0 0"/><path d="m224 390.15625h16v48h-16zm0 0"/><path d="m256 390.15625h16v48h-16zm0 0"/><path d="m288 390.15625h16v48h-16zm0 0"/><path d="m320 390.15625h16v48h-16zm0 0"/><path d="m416 334.15625-72 8 7.097656 10.40625 21.367188 21.371094c5.304687 5.300781 12.359375 8.222656 19.855468 8.222656 12.910157 0 24.121094-8.753906 27.238282-21.273438l4.195312-16.789062zm0 0"/><path d="m80 334.15625-7.761719 9.9375 4.195313 16.789062c3.125 12.519532 14.335937 21.273438 27.246094 21.273438 7.503906 0 14.550781-2.921875 19.855468-8.222656l21.367188-21.371094 7.097656-10.40625zm0 0"/><path d="m323.992188 74.171875 4.007812-12.015625c-15.894531 0-31.6875 2.558594-46.769531 7.589844l-1.230469.410156c0-10.25-4.070312-20.070312-11.3125-27.3125l-1.375-1.375c-7.242188-7.242188-11.3125-17.066406-11.3125-27.3125l-12.558594 7.535156c-17.027344 10.214844-27.441406 28.609375-27.441406 48.464844l-1.230469-.410156c-15.082031-5.03125-30.875-7.589844-46.769531-7.589844l4.007812 12.015625c2.59375 7.777344 2.59375 16.183594 0 23.960937-2.65625 7.96875-4.007812 16.304688-4.007812 24.695313 0 11.992187 6.296875 23.105469 16.574219 29.28125l7.425781 4.445313c37.023438 22.554687 73.488281 23.816406 109.335938 1.601562l10.089843-6.054688c10.277344-6.167968 16.574219-17.28125 16.574219-29.273437 0-8.390625-1.351562-16.726563-4.007812-24.6875-2.59375-7.777344-2.59375-16.191406 0-23.96875zm0 0"/></g><path d="m448 406.15625v-56c0-9.59375-3.535156-18.839844-9.679688-26.023438 10.335938-4.128906 17.679688-14.191406 17.679688-25.976562 0-15.441406-12.558594-28-28-28h-16.9375l-7.621094-60.960938c-2.488281-19.976562-19.5625-35.039062-39.6875-35.039062h-231.507812c-20.132813 0-37.199219 15.0625-39.6875 35.039062l-7.621094 60.960938h-16.9375c-15.441406 0-28 12.558594-28 28 0 11.785156 7.34375 21.847656 17.679688 25.976562-6.144532 7.183594-9.679688 16.429688-9.679688 26.023438v56c0 13.128906 6.449219 24.703125 16.246094 32h-.246094v32c0 13.230469 10.769531 24 24 24h48c13.230469 0 24-10.769531 24-24v-24h176v24c0 13.230469 10.769531 24 24 24h48c13.230469 0 24-10.769531 24-24v-32h-.246094c9.796875-7.296875 16.246094-18.871094 16.246094-32zm-91.222656-8c-7.335938-9.769531-18.898438-16-31.890625-16h-153.773438c-12.992187 0-24.554687 6.230469-31.890625 16h-.132812c-25.777344 0-50.992188-4.601562-75.082032-13.550781v-34.449219c0-2.328125.449219-4.578125 1.105469-6.769531 30.535157 3.816406 123.367188 14.769531 182.886719 14.769531s152.351562-10.953125 182.894531-14.769531c.65625 2.191406 1.105469 4.441406 1.105469 6.769531v34.449219c-24.089844 8.949219-49.3125 13.550781-75.078125 13.550781zm-6.21875 32h-205.117188l1.992188-11.945312c1.933594-11.621094 11.894531-20.054688 23.679687-20.054688h153.78125c11.785157 0 21.738281 8.433594 23.671875 20.054688zm-270.558594-104 10.664062-8h314.664063l10.671875 8 3.367188 2.527344c-36.917969 4.464844-117.96875 13.472656-171.367188 13.472656-53.390625 0-134.449219-9.007812-171.367188-13.472656zm220.945312-24-18.210937-36.425781 24.839844-12.421875-7.160157-14.3125-29.542968 14.777344-32.078125-6.417969-5.03125-25.199219h119.460937l13.335938 80zm-83.503906-80 7.757813 38.800781 41.394531 8.277344 16.460938 32.921875h-153.613282l13.335938-80zm210.558594 64c6.617188 0 12 5.382812 12 12s-5.382812 12-12 12h-6.664062l-5.816407-4.359375-2.457031-19.640625zm-319.566406-74.976562c1.496094-11.984376 11.734375-21.023438 23.8125-21.023438h231.507812c12.078125 0 22.316406 9.039062 23.8125 21.023438l11.371094 90.976562h-16.160156l-13.777344-82.632812c-1.28125-7.742188-7.921875-13.367188-15.777344-13.367188h-210.445312c-7.855469 0-14.496094 5.625-15.785156 13.367188l-13.769532 82.632812h-16.160156zm-40.433594 74.976562h14.9375l-2.457031 19.640625-5.816407 4.359375h-6.664062c-6.617188 0-12-5.382812-12-12s5.382812-12 12-12zm-4 115.488281c21.976562 7.542969 44.800781 11.648438 68.0625 12.34375-.109375.542969-.320312 1.039063-.414062 1.582031l-2.425782 14.585938h-41.222656c-13.230469 0-24-10.769531-24-24zm80 68.511719c0 4.40625-3.59375 8-8 8h-36.6875l10.34375-10.34375-11.3125-11.3125-17.335938 17.335938c-.582031-1.121094-1.007812-2.335938-1.007812-3.679688v-24.808594c2.585938.527344 5.265625.808594 8 .808594h56zm272 0c0 4.40625-3.59375 8-8 8h-9.054688l7.710938-11.558594-13.3125-8.875-13.625 20.433594h-19.71875c-4.40625 0-8-3.59375-8-8v-24h56c2.734375 0 5.414062-.28125 8-.808594zm-8-40h-41.222656l-2.433594-14.578125c-.085938-.550781-.296875-1.046875-.414062-1.582031 23.261718-.695313 46.085937-4.808594 68.0625-12.34375v4.503906c.007812 13.230469-10.761719 24-23.992188 24zm0 0"/><path d="m0 422.15625v16c14.121094 0 27.785156 4.144531 39.527344 11.96875l4.03125 2.6875 8.875-13.3125-4.035156-2.6875c-14.375-9.59375-31.109376-14.65625-48.398438-14.65625zm0 0"/><path d="m4.425781 470.996094 7.160157 14.3125c9.359374-4.679688 19.839843-7.152344 30.300781-7.152344h6.113281v-16h-6.113281c-12.933594 0-25.886719 3.054688-37.460938 8.839844zm0 0"/><path d="m447.59375 436.8125-4.035156 2.6875 8.875 13.3125 4.03125-2.6875c11.75-7.824219 25.414062-11.96875 39.535156-11.96875v-16c-17.289062 0-34.023438 5.0625-48.40625 14.65625zm0 0"/><path d="m448 462.15625v16h6.113281c10.460938 0 20.941407 2.472656 30.3125 7.160156l7.160157-14.3125c-11.585938-5.792968-24.539063-8.847656-37.472657-8.847656zm0 0"/><path d="m226.34375 163.8125 11.3125-11.3125-8.601562-8.601562c-3.253907-3.253907-5.054688-7.597657-5.054688-12.214844 0-5.792969 2.871094-11.167969 7.695312-14.375 6.296876-4.199219 11.816407-9.464844 16.304688-15.503906 4.496094 6.046874 10.007812 11.3125 16.304688 15.503906 4.824218 3.207031 7.695312 8.582031 7.695312 14.375 0 4.617187-1.800781 8.960937-5.054688 12.214844l-8.601562 8.601562 11.3125 11.3125 8.601562-8.601562c6.277344-6.277344 9.742188-14.640626 9.742188-23.527344 0-11.152344-5.535156-21.503906-14.824219-27.6875-7.175781-4.785156-13.007812-11.390625-16.871093-19.121094l-8.304688-16.582031-8.3125 16.582031c-3.855469 7.722656-9.695312 14.335938-16.871094 19.121094-9.28125 6.183594-14.816406 16.535156-14.816406 27.6875 0 8.886718 3.464844 17.25 9.742188 23.527344zm0 0"/><path d="m98.832031 64.011719c-6.992187 6.984375-10.832031 16.273437-10.832031 26.144531s3.839844 19.160156 10.832031 26.144531l15.511719 15.511719 11.3125-11.3125-15.511719-15.511719c-3.96875-3.96875-6.144531-9.230469-6.144531-14.832031s2.175781-10.863281 6.144531-14.832031l7.03125-7.03125c6.984375-6.976563 10.824219-16.265625 10.824219-26.136719s-3.839844-19.160156-10.832031-26.144531l-15.511719-15.511719-11.3125 11.3125 15.511719 15.511719c3.96875 3.96875 6.144531 9.230469 6.144531 14.832031s-2.175781 10.863281-6.144531 14.832031zm0 0"/><path d="m42.832031 120.011719c-6.992187 6.984375-10.832031 16.273437-10.832031 26.144531s3.839844 19.160156 10.832031 26.144531l15.511719 15.511719 11.3125-11.3125-15.511719-15.511719c-3.96875-3.96875-6.144531-9.230469-6.144531-14.832031s2.175781-10.863281 6.144531-14.832031l7.03125-7.03125c6.984375-6.976563 10.824219-16.265625 10.824219-26.136719s-3.839844-19.160156-10.832031-26.144531l-15.511719-15.511719-11.3125 11.3125 15.511719 15.511719c3.96875 3.96875 6.144531 9.230469 6.144531 14.832031s-2.175781 10.863281-6.144531 14.832031zm0 0"/><path d="m385.855469 75.324219c3.96875 3.96875 6.144531 9.230469 6.144531 14.832031s-2.175781 10.863281-6.144531 14.832031l-15.511719 15.511719 11.3125 11.3125 15.511719-15.511719c6.992187-6.984375 10.832031-16.273437 10.832031-26.144531s-3.839844-19.160156-10.832031-26.144531l-7.03125-7.03125c-3.960938-3.960938-6.136719-9.222657-6.136719-14.824219s2.175781-10.863281 6.144531-14.832031l15.511719-15.511719-11.3125-11.3125-15.511719 15.511719c-6.992187 6.984375-10.832031 16.273437-10.832031 26.144531s3.839844 19.160156 10.832031 26.144531zm0 0"/><path d="m441.855469 131.324219c3.96875 3.96875 6.144531 9.230469 6.144531 14.832031s-2.175781 10.863281-6.144531 14.832031l-15.511719 15.511719 11.3125 11.3125 15.511719-15.511719c6.992187-6.984375 10.832031-16.273437 10.832031-26.144531s-3.839844-19.160156-10.832031-26.144531l-7.03125-7.03125c-3.960938-3.960938-6.136719-9.222657-6.136719-14.824219s2.175781-10.863281 6.144531-14.832031l15.511719-15.511719-11.3125-11.3125-15.511719 15.511719c-6.992187 6.984375-10.832031 16.273437-10.832031 26.144531s3.839844 19.160156 10.832031 26.144531zm0 0"/></svg>