<svg height="496pt" viewBox="0 0 496 496" width="496pt" xmlns="http://www.w3.org/2000/svg"><path d="m408 368v-64h16v-16h-16v-16h16v-16h-16v-24h-16v24h-32v-24h-16v24h-16v16h16v16h-16v16h16v64zm-16-16h-32v-48h32zm-32-80h32v16h-32zm0 0"/><path d="m472 480v-24h-16v24h-16v-48h-16v48h-16v-72h-16v72h-16v-96h-16v112h136v-16zm0 0"/><g fill="#f0bc5e"><path d="m239.296875 284.375c-1.695313-7.285156-8.105469-12.375-15.578125-12.375h-127.429688c-7.480468 0-13.882812 5.089844-15.578124 12.375l-17.191407 73.816406h192.96875zm0 0"/><path d="m120 88h112v64h-112zm0 0"/><path d="m32 384s29.121094 8.320312 72.320312 12.960938l-.320312 3.039062c-4.800781 14.320312-18.160156 24-33.28125 24-4.480469 0-8.957031-.480469-13.277344-1.28125l-33.441406-6.71875v-15.039062c0-5.039063 1.121094-9.921876 3.359375-14.320313l2-4zm0 0"/><path d="m292.640625 386.640625c2.238281 4.398437 3.359375 9.28125 3.359375 14.320313v15.039062l-33.441406 6.71875c-4.320313.800781-8.796875 1.28125-13.277344 1.28125-15.121094 0-28.480469-9.679688-33.28125-24l-.320312-2.71875c46.082031-4.5625 72.320312-13.28125 72.320312-13.28125l2.640625-1.359375zm0 0"/><path d="m376 240c-66.167969 0-120-53.832031-120-120s53.832031-120 120-120 120 53.832031 120 120-53.832031 120-120 120zm0-200c-44.113281 0-80 35.886719-80 80s35.886719 80 80 80 80-35.886719 80-80-35.886719-80-80-80zm0 0"/></g><path d="m376 208c-48.519531 0-88-39.480469-88-88 0-20.246094 7.054688-40.023438 19.871094-55.6875l12.386718 10.136719c-10.480468 12.808593-16.257812 28.992187-16.257812 45.550781 0 39.695312 32.304688 72 72 72 16.558594 0 32.742188-5.777344 45.550781-16.257812l10.136719 12.386718c-15.664062 12.816406-35.441406 19.871094-55.6875 19.871094zm0 0"/><path d="m493.65625 21.65625-11.3125-11.3125-45.878906 45.878906c-15.785156-14.964844-37.050782-24.222656-60.464844-24.222656-20.246094 0-40.023438 7.054688-55.6875 19.871094l10.136719 12.386718c12.808593-10.480468 28.992187-16.257812 45.550781-16.257812 19.007812 0 36.273438 7.457031 49.152344 19.535156l-57.152344 57.152344-18.34375-18.34375-11.3125 11.3125 29.65625 29.65625 67.625-67.625c7.808594 11.511719 12.375 25.382812 12.375 40.3125 0 16.558594-5.777344 32.742188-16.257812 45.550781l12.386718 10.136719c12.816406-15.664062 19.871094-35.441406 19.871094-55.6875 0-19.34375-6.34375-37.183594-16.960938-51.726562zm0 0"/><path d="m320 336c0-13.230469-10.769531-24-24-24h-18.273438l-8.527343-40.289062c-3.894531-18.375-20.351563-31.710938-39.136719-31.710938h-140.125c-18.785156 0-35.242188 13.335938-39.136719 31.710938l-8.527343 40.289062h-18.273438c-13.230469 0-24 10.769531-24 24s10.769531 24 24 24h7.742188l-11.511719 23.03125c-2.765625 5.527344-4.230469 11.710938-4.230469 17.898438v23.070312c0 16.359375 9.894531 30.414062 24 36.609375v19.390625c0 8.824219 7.175781 16 16 16h32c8.824219 0 16-7.175781 16-16v-16h16v16h80v-16h16v16c0 8.824219 7.175781 16 16 16h32c8.824219 0 16-7.175781 16-16v-19.390625c14.105469-6.195313 24-20.25 24-36.609375v-23.070312c0-6.175782-1.464844-12.371094-4.222656-17.890626l-11.519532-23.039062h7.742188c13.230469 0 24-10.769531 24-24zm-24-8c4.40625 0 8 3.59375 8 8s-3.59375 8-8 8h-11.496094l-3.382812-16zm-251.054688 41.367188h230.109376l4.394531 8.777343c-15.015625 4.0625-57.625 13.855469-119.449219 13.855469-56.167969 0-102.839844-10.007812-119.351562-14.03125zm21.511719-94.34375c2.335938-11.023438 12.207031-19.023438 23.480469-19.023438h140.132812c11.273438 0 21.144532 8 23.480469 19.023438l16.585938 78.34375h-220.265625zm-50.457031 60.976562c0-4.40625 3.59375-8 8-8h14.886719l-3.382813 16h-11.503906c-4.40625 0-8-3.59375-8-8zm72 144h-32v-16h32zm96-16h-48v-16h48zm80 16h-32v-16h32zm24-56c0 13.230469-10.769531 24-24 24h-64v-16h-80v16h-64c-13.230469 0-24-10.769531-24-24v-23.070312c0-2.808594.65625-5.570313 1.625-8.210938 13.847656 3.585938 63.816406 15.28125 126.375 15.28125 68.296875 0 113.199219-11.335938 126.425781-15.160156.933594 2.601562 1.574219 5.320312 1.574219 8.089844zm0 0"/><path d="m55.503906 189.464844-29.046875-77.464844h-26.457031v-16h37.542969l18.953125 50.535156 42.230468-98.535156h133.273438v16h-122.726562zm0 0"/><path d="m120 80h112v16h-112zm0 0"/><path d="m120 112h112v16h-112zm0 0"/><path d="m120 144h112v16h-112zm0 0"/><path d="m160 176h16v16h-16zm0 0"/><path d="m192 176h16v16h-16zm0 0"/><path d="m128 176h16v16h-16zm0 0"/><path d="m88 144h16v16h-16zm0 0"/></svg>