<svg height="496pt" viewBox="-3 0 496 496" width="496pt" xmlns="http://www.w3.org/2000/svg"><g fill="#f0bc5e"><path d="m170.246094 248h-24c-8.820313 0-16-7.175781-16-16v-32h56v32c0 8.824219-7.175782 16-16 16zm0 0"/><path d="m290.246094 248h-24c-8.820313 0-16-7.175781-16-16v-32h56v32c0 8.824219-7.175782 16-16 16zm0 0"/><path d="m218.246094 488c-35.285156 0-64-28.710938-64-64s28.714844-64 64-64c35.289062 0 64 28.710938 64 64s-28.710938 64-64 64zm0 0"/></g><path d="m138.246094 168h16v16h-16zm0 0"/><path d="m282.246094 168h16v16h-16zm0 0"/><path d="m466.007812 163.695312-39.761718-9.941406v-9.953125c9.65625-7.3125 16-18.785156 16-31.792969v-16h24v-16h-24c0-19.3125-13.765625-35.472656-32-39.191406v-16.816406c0-13.230469-10.765625-24-24-24-13.230469 0-24 10.769531-24 24v88c0 13.015625 6.347656 24.488281 16 31.792969v9.949219l-39.757813 9.945312c-3.320312.832031-6.367187 2.199219-9.152343 3.929688-1.238282-5.800782-3.832032-11.058594-7.289063-15.625h.199219c13.234375 0 24-10.769532 24-24 0-13.230469-10.765625-24-24-24h-16.597656l-3.953126-21.726563c-2.765624-15.21875-16-26.265625-31.480468-26.265625h-103.933594c-15.480469 0-28.714844 11.046875-31.488281 26.273438l-3.945313 21.726562h-16.601562c-13.230469 0-24 10.769531-24 24s10.769531 24 24 24h.210937c-5.082031 6.703125-8.210937 14.960938-8.210937 24v24c0 8.824219 7.179687 16 16 16h192v16h-240v-208c0-13.230469-10.765625-24-24-24-13.230469 0-24 10.769531-24 24v424h-14.246094l-12 48h100.496094l-12-48h-14.25v-152h272v200h112v-224h16c8.824218 0 16-7.175781 16-16v-61.257812c0-14.710938-9.964844-27.484376-24.238282-31.046876zm-39.761718-51.695312c0 13.230469-10.765625 24-24 24-13.230469 0-24-10.769531-24-24v-16h48zm0-32h-48c0-13.230469 10.769531-24 24-24 13.234375 0 24 10.769531 24 24zm-40-64c4.410156 0 8 3.585938 8 8v16.808594c-5.941406 1.214844-11.324219 3.855468-16 7.390625v-24.199219c0-4.414062 3.59375-8 8-8zm-64 104c4.410156 0 8 3.585938 8 8s-3.589844 8-8 8h-10.773438l-2.914062-16zm-171.710938-34.863281c1.386719-7.609375 8-13.136719 15.746094-13.136719h103.933594c7.738281 0 14.359375 5.519531 15.746094 13.136719l9.34375 51.375c-1.679688-.214844-3.328126-.511719-5.058594-.511719h-144c-1.726563 0-3.375.296875-5.054688.511719zm113.464844 66.863281-12 48h-67.503906l-12-48zm-157.753906-24c0-4.414062 3.59375-8 8-8h13.691406l-2.914062 16h-10.777344c-4.40625 0-8-3.585938-8-8zm16 48c0-13.230469 10.769531-24 24-24h9.753906l12 48h-45.753906zm146.25 24 12-48h9.75c13.234375 0 24 10.769531 24 24l.011718 18.632812c0 .039063-.011718.070313-.011718.101563v5.265625zm-188.496094 280h-59.503906l4-16h51.503906zm-37.753906-32v-424c0-4.414062 3.59375-8 8-8 4.410156 0 8 3.585938 8 8v424zm32-168v-32h240v8c0 8.824219 7.179687 16 16 16h16v8zm288 32h32v168h-32zm48 168v-168h32v168zm32-184h-80v-24h24c6.167968 0 11.746094-2.40625 16-6.238281 4.257812 3.839843 9.832031 6.238281 16 6.238281h24zm-32-70.527344c-2.988282 1.0625-5.6875 2.6875-8 4.765625-2.308594-2.085937-5.007813-3.703125-8-4.765625v-17.472656h16zm64 30.527344h-56c-4.40625 0-8-3.585938-8-8s3.59375-8 8-8h40v-48h-16v32h-16v-32h-48v32h-16v-32h-16v48h40c4.410156 0 8 3.585938 8 8s-3.589844 8-8 8h-56v-61.257812c0-7.359376 4.984375-13.742188 12.121094-15.527344l51.878906-12.96875v-15.054688c2.585937.527344 5.265625.808594 8 .808594 2.738281 0 5.417968-.28125 8-.808594v15.054688l51.882812 12.960937c7.136719 1.792969 12.117188 8.175781 12.117188 15.535157zm0 0"/><path d="m252.59375 418.34375 11.308594 11.3125 10.34375-10.34375v4.6875c0 30.871094-25.117188 56-56 56-30.878906 0-56-25.128906-56-56s25.121094-56 56-56v-16c-39.695313 0-72 32.296875-72 72s32.304687 72 72 72c39.699218 0 72-32.296875 72-72v-4.6875l10.347656 10.34375 11.308594-11.3125-29.65625-29.65625zm0 0"/><path d="m210.246094 420.6875-18.34375-18.34375-11.308594 11.3125 29.652344 29.65625 101.65625-101.65625-11.308594-11.3125zm0 0"/></svg>