<svg height="496pt" viewBox="-15 0 495 496" width="496pt" xmlns="http://www.w3.org/2000/svg"><g fill="#f0bc5e"><path d="m149.835938 96-13.335938 40v8h192v-8l-13.335938-40zm0 0"/><path d="m.5 192v8c0 22.054688 17.945312 40 40 40h64v-48zm0 0"/><path d="m.5 296v8c0 22.054688 17.945312 40 40 40h64v-48zm0 0"/><path d="m360.5 296v48h64c22.054688 0 40-17.945312 40-40v-8zm0 0"/><path d="m360.5 192v48h64c22.054688 0 40-17.945312 40-40v-8zm0 0"/></g><path d="m392.5 160c0-14.863281-10.238281-27.289062-24-30.863281v-35.207031l-42.519531-76.53125-2.953125-.984376c-2.007813-.671874-49.695313-16.414062-90.527344-16.414062s-88.519531 15.742188-90.527344 16.40625l-2.953125.984375-42.519531 76.539063v35.207031c-13.761719 3.574219-24 16-24 30.863281s10.238281 27.289062 24 30.863281v128.34375l-7.839844 39.21875-.160156 43.214844.648438 1.503906c15.839843 36.976563 52.054687 60.855469 92.28125 60.855469h91.070312v32h48v-39.046875c24.425781-9.65625 44.601562-28.695313 55.351562-53.808594l.648438-1.503906v-41.640625l-8-40.792969v-128.34375c13.761719-3.574219 24-16 24-30.863281zm-62.0625 242.984375 5.972656-41.847656.027344-49.136719h16.0625v8l8 40.792969v33.511719c-5.808594 1.941406-16.28125 5.214843-30.0625 8.679687zm22.0625-106.984375h-16.054688l.023438-56h16.03125zm0-72h-16.03125l.007812-32h16.023438zm24-64c0 8.824219-7.175781 16-16 16h-24.015625l.015625-32h24c8.824219 0 16 7.175781 16 16zm-24-32h-18.230469l-23.707031-71.105469c8.363281 1.59375 15.730469 3.144531 21.523438 4.433594l20.414062 36.742187zm-30.710938-85.214844c-5.175781-1.050781-10.898437-2.136718-17-3.226562l-4.359374-13.070313c6.496093 1.71875 11.636718 3.246094 14.613281 4.167969zm-39.6875-20.679687 35.292969 105.894531h-20.894531v16h24v208h-24v16h22.777344l-5.554688 38.855469c-22.976562 4.886719-51.460937 9.144531-81.222656 9.144531s-58.246094-4.257812-81.222656-9.144531l-5.554688-38.855469h134.777344v-16h-136v-208h136v-16h-132.894531l35.292969-105.894531c15.226562-3.257813 33.203124-6.105469 49.601562-6.105469s34.375 2.847656 49.601562 6.105469zm-153.601562 169.894531v32h-16.046875l.039063-32zm-16.0625 48h16.0625v56h-16.128906zm-.097656 81.566406.015625-9.566406h16.144531v48l6.078125 42.984375c-13.789063-3.464844-24.269531-6.746094-30.078125-8.679687v-33.511719zm52.222656-295.070312-4.359375 13.070312c-6.101563 1.082032-11.816406 2.175782-17 3.226563l6.738281-12.121094c2.984375-.929687 8.125-2.457031 14.621094-4.175781zm-31.648438 34.832031c5.792969-1.289063 13.160157-2.839844 21.523438-4.433594l-23.707031 71.105469h-18.230469v-29.929688zm-44.414062 98.671875c0-8.824219 7.175781-16 16-16h24v32h-24c-8.824219 0-16-7.175781-16-16zm216 320h-16v-16.183594c5.433594-.265625 10.785156-.9375 16-2.046875zm-20.929688-32h-102.140624c-27.097657 0-52.035157-12.894531-67.722657-34.015625 24.777344 7.273437 69.664063 18.015625 118.792969 18.015625s94.015625-10.742188 118.792969-18.015625c-15.6875 21.121094-40.625 34.015625-67.722657 34.015625zm0 0"/></svg>