<?xml version="1.0" encoding="utf-8"?>
<!-- Generator: Adobe Illustrator 16.0.0, SVG Export Plug-In . SVG Version: 6.00 Build 0)  -->
<!DOCTYPE svg PUBLIC "-//W3C//DTD SVG 1.1//EN" "http://www.w3.org/Graphics/SVG/1.1/DTD/svg11.dtd">
<svg version="1.1" id="Capa_1" xmlns="http://www.w3.org/2000/svg" xmlns:xlink="http://www.w3.org/1999/xlink" x="0px" y="0px"
	 width="560px" height="560px" viewBox="200 0 560 560" enable-background="new 200 0 560 560" xml:space="preserve">
<g>
	<path fill="#F0BC5E" d="M416.774,415.483H362.58V144.516h72.258v63.226h-18.064V415.483z"/>
	<path fill="#F0BC5E" d="M687.742,415.483h-54.193V207.742h-18.064v-63.226h72.259L687.742,415.483L687.742,415.483z"/>
</g>
<g>
	<path d="M705.807,171.613v63.226h-18.063v18.064h18.063v54.193h-18.063v18.064h18.063v63.226H760V171.613H705.807z
		 M741.936,370.322h-18.063V189.677h18.063V370.322z"/>
	<path d="M308.387,225.807h-54.194v18.064H200v72.258h54.193v18.064h54.194v27.097h54.193v-18.064h-36.129V216.774h36.129v-18.065
		h-54.193V225.807z M218.064,298.064v-36.129h36.129v36.129H218.064z M272.258,316.129v-72.258h36.129v72.258H272.258z"/>
	<path d="M588.387,225.807c-14.938,0-27.097,12.157-27.097,27.097v36.129h-18.064v-36.129c0-14.939-12.156-27.097-27.097-27.097
		c-11.76,0-21.695,7.578-25.435,18.064h-21.397c-3.739-10.486-13.675-18.064-25.435-18.064c-14.939,0-27.097,12.157-27.097,27.097
		v117.419c0,14.938,12.158,27.097,27.097,27.097c14.938,0,27.097-12.157,27.097-27.097v-36.129h18.063v36.129
		c0,14.938,12.157,27.097,27.098,27.097c11.76,0,21.695-7.578,25.435-18.063h21.397c3.739,10.485,13.675,18.063,25.435,18.063
		c14.939,0,27.098-12.157,27.098-27.097v-36.129h18.064V316.13h-18.064v-54.193h18.064v-18.064h-19.727
		C610.083,233.385,600.147,225.807,588.387,225.807z M561.29,307.097v54.193h-18.064v-54.193H561.29z M452.903,370.322
		c0,4.978-4.047,9.031-9.032,9.031c-4.986,0-9.032-4.055-9.032-9.031V252.903c0-4.977,4.046-9.032,9.032-9.032
		c4.985,0,9.032,4.055,9.032,9.032V370.322z M470.968,316.129v-54.193h18.064v54.193H470.968z M525.161,370.322
		c0,4.978-4.046,9.031-9.032,9.031c-4.985,0-9.032-4.055-9.032-9.031V252.903c0-4.977,4.047-9.032,9.032-9.032
		c4.986,0,9.032,4.055,9.032,9.032V370.322z M597.419,370.322c0,4.978-4.046,9.031-9.032,9.031c-4.984,0-9.031-4.055-9.031-9.031
		V252.903c0-4.977,4.047-9.032,9.031-9.032c4.986,0,9.032,4.055,9.032,9.032V370.322z"/>
</g>
</svg>
