<?xml version="1.0" encoding="iso-8859-1"?>
<!-- Generator: Adobe Illustrator 19.0.0, SVG Export Plug-In . SVG Version: 6.00 Build 0)  -->
<svg version="1.1" id="Capa_1" xmlns="http://www.w3.org/2000/svg" xmlns:xlink="http://www.w3.org/1999/xlink" x="0px" y="0px"
	 viewBox="0 0 502.952 502.952" style="enable-background:new 0 0 502.952 502.952;" xml:space="preserve">
<path d="M462.056,388.476c-12.744-34.584-43.2-60.056-79.512-66.464l-75.064-13.248v-9.288h-0.832
	c22.896-14.408,39.776-37.424,46.064-64.528c19.568-2.592,34.768-19.208,34.768-39.472v-56c0-74.992-61.008-136-136-136
	s-136,61.008-136,136v56c0,20.264,15.2,36.88,34.768,39.472c6.288,27.104,23.168,50.128,46.064,64.528h-0.832v9.288l-75.064,13.248
	c-36.312,6.408-66.776,31.872-79.512,66.464L0,499.476h502.952L462.056,388.476z M355.144,218.108
	c0.144-2.208,0.336-4.392,0.336-6.632v-38.528c9.288,3.312,16,12.112,16,22.528C371.48,206.012,364.608,214.892,355.144,218.108z
	 M131.48,195.476c0-10.416,6.712-19.216,16-22.528v38.528c0,2.24,0.192,4.424,0.336,6.632
	C138.352,214.892,131.48,206.012,131.48,195.476z M163.48,211.476v-64c0-4.416,3.584-8,8-8h120v-16h-120c-13.232,0-24,10.768-24,24
	v8.808c-5.944,1.216-11.328,3.856-16,7.392v-24.2c0-66.168,53.832-120,120-120s120,53.832,120,120v24.208
	c-4.672-3.536-10.056-6.184-16-7.392v-8.816c0-13.232-10.768-24-24-24h-24v16h24c4.416,0,8,3.584,8,8v64c0,48.52-39.48,88-88,88
	S163.48,259.996,163.48,211.476z M291.48,307.452v6.856c-1.376,4.168-9.784,25.168-40,25.168c-30.208,0-38.6-20.904-40-25.168
	v-6.856c12.32,5.152,25.832,8.024,40,8.024C265.648,315.476,279.16,312.604,291.48,307.452z M123.2,337.764l36.528-6.44l8.584,8.584
	l-44.4,44.4l-33.472-33.48C100.24,344.412,111.336,339.86,123.2,337.764z M270.224,483.476l20.832-20.832l20.824,20.832H270.224z
	 M274.424,423.388L263.112,434.7l16.624,16.632L247.6,483.476H22.96l32.96-89.472c4.704-12.776,12.392-23.952,21.984-33.088
	l62.632,62.64l11.312-11.312l-16.624-16.632l44.4-44.4l16.632,16.624l11.312-11.312l-28.608-28.6l19.352-3.416
	c6.336,13.424,22.456,30.968,53.168,30.968s46.832-17.544,53.168-30.96l75.112,13.248c30.728,5.432,56.504,26.976,67.28,56.24
	L480,483.476H334.504L274.424,423.388z"/>
<path style="fill:#F0BC5E;" d="M274.424,401.108l-44.576-44.576c-9.256-9.272-24.336-9.256-33.592,0l-55.728,55.72
	c-9.248,9.264-9.248,24.336,0.008,33.592l37.632,37.632h47.488L274.44,434.7C283.68,425.436,283.68,410.364,274.424,401.108z"/>
<rect x="241.034" y="413.779" transform="matrix(-0.704 0.7102 -0.7102 -0.704 731.7878 560.7676)" width="16" height="38.208"/>
<rect x="208.854" y="445.961" transform="matrix(-0.711 0.7032 -0.7032 -0.711 697.9976 643.0628)" width="16" height="38.008"/>
<path d="M189.056,435.46c-7.8,0-15.584-2.968-21.512-8.896l-20.496-20.672l11.36-11.264l20.48,20.648
	c5.416,5.416,14.928,5.424,20.376-0.024c2.712-2.728,4.216-6.344,4.216-10.2c0-3.856-1.504-7.48-4.224-10.2l-20.576-20.536
	l11.296-11.328l20.576,20.536c11.864,11.864,11.864,31.168,0.008,43.032C204.64,432.492,196.848,435.46,189.056,435.46z"/>
<g>
</g>
<g>
</g>
<g>
</g>
<g>
</g>
<g>
</g>
<g>
</g>
<g>
</g>
<g>
</g>
<g>
</g>
<g>
</g>
<g>
</g>
<g>
</g>
<g>
</g>
<g>
</g>
<g>
</g>
</svg>
