<svg height="496pt" viewBox="0 0 496 496" width="496pt" xmlns="http://www.w3.org/2000/svg"><path d="m392.449219 256.839844-10.304688-12.367188c-3.96875-4.753906-6.144531-10.777344-6.144531-16.96875 0-5.695312 1.878906-11.34375 5.304688-15.910156l5.816406-7.753906c8.304687-11.078125 12.878906-24.808594 12.878906-38.648438 0-25.800781-15.320312-49.03125-39.039062-59.199218l-16.984376-7.28125.023438-2.710938c0-52.9375-43.0625-96-96-96s-96 43.0625-96 96v2.726562l-16.960938 7.273438c-22.4375 9.617188-37.734374 31.585938-38.960937 55.960938l15.984375.808593c.921875-18.328125 12.417969-34.832031 29.273438-42.066406l12.289062-5.261719 11.511719 81.085938c2.230469 15.65625 15.855469 27.472656 31.679687 27.472656h102.375c15.824219 0 29.449219-11.816406 31.679688-27.472656l11.578125-81.0625 12.214843 5.230468c17.824219 7.640626 29.335938 25.113282 29.335938 44.496094 0 10.402344-3.441406 20.71875-9.679688 29.046875l-5.816406 7.746094c-3.960937 5.28125-6.582031 11.480469-7.769531 17.953125l-21.023437 21.023438c-7.542969 7.566406-11.710938 17.613281-11.710938 28.296874v27.886719h16v-27.886719c0-6.320312 2.558594-12.496093 7.03125-16.96875l11.257812-11.257812c1.664063 4.960938 4.175782 9.632812 7.558594 13.695312l10.296875 12.363282c12.808594 15.351562 19.855469 34.8125 19.855469 54.804687h16c0-23.726562-8.367188-46.832031-23.550781-65.054687zm-216.371094-96.839844h143.84375l-2.289063 16h-139.265624zm-2.285156-16-4.570313-32h157.554688l-4.570313 32zm74.207031-128c44.113281 0 80 35.886719 80 80h-160c0-44.113281 35.886719-80 80-80zm51.183594 192h-102.367188c-7.914062 0-14.71875-5.902344-15.832031-13.734375l-.328125-2.265625h134.695312l-.320312 2.265625c-1.128906 7.832031-7.925781 13.734375-15.847656 13.734375zm0 0"/><path d="m328 352h16v40h-16zm0 0"/><path d="m168 392h-16v-122.742188c0-2.386718-.351562-4.746093-1.046875-7.011718l15.292969-4.6875c1.167968 3.785156 1.753906 7.722656 1.753906 11.699218zm0 0"/><path d="m139.007812 430.007812c3.054688 6.128907 9.3125 9.992188 16.160157 9.992188h185.664062c6.839844 0 13.105469-3.863281 16.160157-9.992188l3.007812-6.007812v-16c0-13.230469-10.769531-24-24-24h-176c-13.230469 0-24 10.769531-24 24v16zm0 0" fill="#f0bc5e"/><path d="m414.855469 376.992188c-4.953125-5.710938-12.128907-8.992188-19.6875-8.992188-9.929688 0-18.863281 5.519531-23.3125 14.40625l-22.015625 44.027344c-1.71875 3.429687-5.167969 5.566406-9.007813 5.566406h-185.664062c-3.832031 0-7.28125-2.136719-9-5.566406l-22.015625-44.027344c-3.046875-6.101562-8.242188-10.558594-14.390625-12.789062l-4.714844-9.433594c-5.917969-11.816406-9.046875-25.054688-9.046875-38.289063 0-19.992187 7.046875-39.460937 19.847656-54.816406l10.289063-12.359375c3.984375-4.765625 6.816406-10.238281 8.414062-16.253906l-15.453125-4.121094c-1 3.753906-2.769531 7.160156-5.25 10.128906l-10.296875 12.359375c-15.183593 18.230469-23.550781 41.335938-23.550781 65.0625 0 15.699219 3.710938 31.417969 10.726562 45.449219l1.183594 2.367188c-4.09375 1.503906-7.847656 3.898437-10.765625 7.273437-4.953125 5.710937-7.183593 13.28125-6.121093 20.769531l10.832031 75.863282c1.832031 12.757812 12.929687 22.382812 25.816406 22.382812h272.65625c12.886719 0 23.984375-9.625 25.816406-22.375l10.832031-75.863281c1.070313-7.488281-1.160156-15.066407-6.121093-20.769531zm-9.71875 18.503906-10.832031 75.863281c-.710938 4.929687-5 8.640625-9.976563 8.640625h-272.65625c-4.976563 0-9.265625-3.710938-9.96875-8.648438l-10.832031-75.863281c-.421875-2.9375.417968-5.785156 2.359375-8.015625 1.9375-2.242187 4.640625-3.472656 7.609375-3.472656 3.832031 0 7.28125 2.136719 9 5.566406l22.015625 44.027344c4.441406 8.886719 13.375 14.40625 23.3125 14.40625h185.671875c9.929687 0 18.863281-5.519531 23.3125-14.40625l22.015625-44.027344c3.046875-6.09375 12.167969-7.222656 16.609375-2.09375 1.941406 2.238282 2.773437 5.085938 2.359375 8.023438zm0 0"/><path d="m464 402.246094-9.9375-2.484375c-128.503906-32.128907-246.476562-89.914063-350.621094-171.746094l-71.441406-56.128906v-76.34375l81.328125 63.898437c102.359375 80.429688 218.304687 137.222656 344.609375 168.796875l6.0625 1.515625zm0 0" fill="#f0bc5e"/><path d="m496 424h-24c-13.230469 0-24-10.769531-24-24v-80c0-13.230469 10.769531-24 24-24h24zm-24-112c-4.414062 0-8 3.59375-8 8v80c0 4.40625 3.585938 8 8 8h8v-96zm0 0"/><path d="m24 208h-24v-128h24c13.230469 0 24 10.769531 24 24v80c0 13.230469-10.769531 24-24 24zm-8-16h8c4.414062 0 8-3.59375 8-8v-80c0-4.40625-3.585938-8-8-8h-8zm0 0"/></svg>