<svg height="496pt" viewBox="0 -80 496 496" width="496pt" xmlns="http://www.w3.org/2000/svg"><g fill="#f0bc5e"><path d="m200 72h96v64h-96zm0 0"/><path d="m48 224c0-22.054688-14.351562-40-32-40-.816406 0-1.648438.121094-2.472656.207031l-3.726563 10.65625c-1.191406 3.402344-1.800781 6.976563-1.800781 10.578125v42.558594c0 5.6875 1.609375 10.945312 4.207031 15.574219 1.273438.210937 2.535157.425781 3.792969.425781 17.648438 0 32-17.945312 32-40zm0 0"/><path d="m488 192h-16c-13.230469 0-24 10.769531-24 24v16c0 13.230469 10.769531 24 24 24h14.871094c.664062-2.566406 1.128906-5.222656 1.128906-8zm0 0"/><path d="m408.238281 40-5.453125-21.824219c-2.664062-10.695312-12.25-18.175781-23.28125-18.175781h-215.007812c-11.03125 0-20.609375 7.480469-23.28125 18.175781l-5.453125 21.824219zm0 0"/></g><path d="m320 192h16v16h-16zm0 0"/><path d="m352 192h16v16h-16zm0 0"/><path d="m384 192h16v16h-16zm0 0"/><path d="m160 192h16v16h-16zm0 0"/><path d="m440 32h-319.238281c-37.347657 0-70.730469 23.679688-83.066407 58.929688l-35.457031 101.292968c-1.476562 4.273438-2.238281 8.714844-2.238281 13.21875v42.558594c0 22.054688 17.945312 40 40 40h16v-16h-16c-13.230469 0-24-10.769531-24-24v-42.558594c0-2.707031.457031-5.371094 1.351562-7.929687l7.527344-21.511719h71.121094v16h-32v16h32v24h16v-56h80v96h-40v16h192v-16h-40v-96h176v72c0 13.230469-10.769531 24-24 24h-16v16h16c22.054688 0 40-17.945312 40-40v-160c0-30.878906-25.128906-56-56-56zm0 16c13.015625 0 24.488281 6.34375 31.792969 16h-395.953125c12.496094-10.015625 28.160156-16 44.914062-16zm-24 32v80h-48v-80zm-128 48h-80v-48h80zm-235.191406-31.792969c2.046875-5.863281 4.96875-11.207031 8.328125-16.207031h63.765625l-26.671875 80h-67.75zm62.289062 63.792969 26.664063-80h50.238281v80zm92.902344-16h32v128h-32zm48 128v-128h32v128zm48-192h48v80h-48zm128 80v-80h47.191406c.527344 2.585938.808594 5.265625.808594 8v72zm0 0"/><path d="m128 192h16v16h-16zm0 0"/><path d="m392 336c-30.871094 0-56-25.128906-56-56s25.128906-56 56-56 56 25.128906 56 56-25.128906 56-56 56zm0-72c-8.824219 0-16 7.175781-16 16s7.175781 16 16 16 16-7.175781 16-16-7.175781-16-16-16zm0 0" fill="#f0bc5e"/><path d="m392 304c-13.230469 0-24-10.769531-24-24s10.769531-24 24-24 24 10.769531 24 24-10.769531 24-24 24zm0-32c-4.414062 0-8 3.585938-8 8s3.585938 8 8 8 8-3.585938 8-8-3.585938-8-8-8zm0 0"/><path d="m104 336c-30.871094 0-56-25.128906-56-56s25.128906-56 56-56 56 25.128906 56 56-25.128906 56-56 56zm0-72c-8.824219 0-16 7.175781-16 16s7.175781 16 16 16 16-7.175781 16-16-7.175781-16-16-16zm0 0" fill="#f0bc5e"/><path d="m104 304c-13.230469 0-24-10.769531-24-24s10.769531-24 24-24 24 10.769531 24 24-10.769531 24-24 24zm0-32c-4.414062 0-8 3.585938-8 8s3.585938 8 8 8 8-3.585938 8-8-3.585938-8-8-8zm0 0"/></svg>