<?xml version="1.0" encoding="iso-8859-1"?>
<!-- Generator: Adobe Illustrator 19.0.0, SVG Export Plug-In . SVG Version: 6.00 Build 0)  -->
<svg version="1.1" id="Capa_1" xmlns="http://www.w3.org/2000/svg" xmlns:xlink="http://www.w3.org/1999/xlink" x="0px" y="0px"
	 viewBox="0 0 496 496" style="enable-background:new 0 0 496 496;" xml:space="preserve">
<g>
	<rect x="160" y="264" style="fill:#F0BC5E;" width="48" height="144"/>
	<rect x="376" y="56" style="fill:#F0BC5E;" width="16" height="384"/>
</g>
<path d="M136,152c0-22.056-17.944-40-40-40s-40,17.944-40,40s17.944,40,40,40S136,174.056,136,152z M72,152
	c0-13.232,10.768-24,24-24s24,10.768,24,24c0,10.416-6.712,19.216-16,22.528V152H88v22.528C78.712,171.216,72,162.416,72,152z"/>
<path d="M482.736,156.424L464,147.056V80c0-17.648-14.352-32-32-32h-96c-17.648,0-32,14.352-32,32v8h-48v16h-24
	c-13.232,0-24,10.768-24,24v128h-88v-36.2c27.92-9.92,48-36.52,48-67.8c0-39.696-32.304-72-72-72s-72,32.304-72,72
	c0,31.272,20.08,57.88,48,67.8V240H32v16h-8c-13.232,0-24,10.768-24,24v112c0,13.232,10.768,24,24,24h16v8c0,13.232,10.768,24,24,24
	s24-10.768,24-24v-8h88v8c0,13.232,10.768,24,24,24s24-10.768,24-24v-8h8c13.232,0,24-10.768,24-24V280c0-13.232-10.768-24-24-24h-8
	V128c0-4.408,3.592-8,8-8h24v16h48v11.056l-18.736,9.368C277.08,160.512,272,168.744,272,177.888v140.224
	c0,9.152,5.08,17.376,13.264,21.472l18.736,9.36V416c0,17.648,14.352,32,32,32h96c17.648,0,32-14.352,32-32v-67.056l18.736-9.368
	c8.184-4.088,13.264-12.32,13.264-21.464V177.888C496,168.744,490.92,160.512,482.736,156.424z M40,152c0-30.88,25.12-56,56-56
	s56,25.12,56,56s-25.12,56-56,56S40,182.88,40,152z M88,223.528c2.632,0.296,5.296,0.472,8,0.472s5.368-0.176,8-0.472V256h-8v-16h-8
	V223.528z M72,424c0,4.416-3.592,8-8,8s-8-3.584-8-8v-8h16V424z M208,424c0,4.416-3.592,8-8,8s-8-3.584-8-8v-8h16V424z M240,280v112
	c0,4.416-3.592,8-8,8h-24v-16h-16v16H24c-4.408,0-8-3.584-8-8V280c0-4.416,3.592-8,8-8h24v-16h32v16h112v96h16v-96h24
	C236.408,272,240,275.584,240,280z M272,120v-16h32v16H272z M292.424,325.264c-2.728-1.368-4.424-4.104-4.424-7.152V177.888
	c0-3.048,1.696-5.792,4.424-7.152L304,164.944v166.112L292.424,325.264z M320,416v-76.688l10.344,10.344l11.312-11.312L320,316.688
	v-89.376l10.344,10.344l11.312-11.312L320,204.688v-89.376l10.344,10.344l11.312-11.312L320,92.688V80c0-8.824,7.176-16,16-16h16v32
	h16V64h32v368h-32V112h-16v36.688l-21.656,21.656l11.312,11.312L352,171.312v89.376l-21.656,21.656l11.312,11.312L352,283.312
	v89.376l-21.656,21.656l11.312,11.312L352,395.312V432h-16C327.176,432,320,424.824,320,416z M432,432h-16v-32.008l9.6,12.8
	l12.8-9.592L416,373.336v-85.344l9.6,12.8l12.8-9.592L416,261.336V168l9.6,12.8l12.8-9.6L416,141.336V64h16c8.824,0,16,7.176,16,16
	v5.336L425.6,115.2l12.8,9.6L448,112v85.336L425.6,227.2l12.8,9.6L448,224v93.336L425.6,347.2l12.8,9.592l9.6-12.8V416
	C448,424.824,440.824,432,432,432z M480,318.112c0,3.048-1.696,5.792-4.424,7.16L464,331.056V164.944l11.576,5.792
	c2.728,1.36,4.424,4.104,4.424,7.152V318.112z"/>
<g>
</g>
<g>
</g>
<g>
</g>
<g>
</g>
<g>
</g>
<g>
</g>
<g>
</g>
<g>
</g>
<g>
</g>
<g>
</g>
<g>
</g>
<g>
</g>
<g>
</g>
<g>
</g>
<g>
</g>
</svg>
