<svg height="496pt" viewBox="0 0 496 496" width="496pt" xmlns="http://www.w3.org/2000/svg"><path d="m302.246094 496h-76.492188l-12-48h100.492188zm0 0" fill="#f0bc5e"/><path d="m462.246094 496h-76.492188l-12-48h100.492188zm0 0" fill="#f0bc5e"/><path d="m160 176h120v16h-120zm0 0"/><path d="m24 192h40v-16h-40c-4.40625 0-8-3.59375-8-8v-8h64v-16h-64v-9.222656l25.238281-4.210938c12.578125-2.09375 23.496094-10.160156 29.203125-21.566406l8.710938-17.425781.144531-.40625 12.109375-2.199219c5.816406-1.058594 11.019531-4.207031 14.65625-8.878906l42.640625-54.824219c4.585937-5.890625 11.488281-9.265625 18.953125-9.265625h130.6875c20.328125 0 39.082031 11.03125 48.953125 28.808594l18.335937 33.015625c3.214844 5.785156 8.734376 10.015625 15.160157 11.625l45.144531 11.285156c3.566406.890625 6.0625 4.082031 6.0625 7.761719v3.503906h-32v16h32v16h-72v16h72v8c0 4.40625-3.59375 8-8 8h-48v16h48c13.230469 0 24-10.769531 24-24v-59.503906c0-11.03125-7.480469-20.609375-18.175781-23.289063l-45.144531-11.285156c-2.144532-.539063-3.984376-1.945313-5.054688-3.875l-18.34375-33.015625c-12.6875-22.839844-36.808594-37.03125-62.9375-37.03125h-130.6875c-12.441406 0-23.945312 5.632812-31.578125 15.449219l-42.636719 54.816406c-1.21875 1.558594-2.953125 2.605469-4.890625 2.957031l-68.847656 12.511719c-11.414063 2.089844-19.703125 12.019531-19.703125 23.617187v58.648438c0 13.230469 10.769531 24 24 24zm-1.433594-90.519531 37.128906-6.753907-3.558593 7.113282c-3.433594 6.847656-9.984375 11.6875-17.527344 12.945312l-22.609375 3.773438v-9.207032c0-3.863281 2.769531-7.175781 6.566406-7.871093zm0 0"/><path d="m352 93.871094-23.839844-41.710938c-7.105468-12.441406-20.417968-20.160156-34.726562-20.160156h-129.554688l-51.429687 72h187.558593c-16.175781 6.136719-31.007812 15.679688-43.617187 28.289062l-11.703125 11.710938h-100.6875v16h107.3125l16.398438-16.398438c20.386718-20.378906 47.472656-31.601562 76.289062-31.601562h8zm-208.457031-5.871094 28.570312-40h121.3125c8.589844 0 16.574219 4.632812 20.839844 12.097656l15.949219 27.902344zm0 0"/><path d="m288 296h-16v-16h-16v32h32zm0 0"/><path d="m328 240c-30.878906 0-56-25.121094-56-56s25.121094-56 56-56 56 25.121094 56 56-25.121094 56-56 56zm0 0" fill="#f0bc5e"/><path d="m496 256v-16c0-8.824219-7.175781-16-16-16h-96c-8.824219 0-16 7.175781-16 16v16c0 8.824219 7.175781 16 16 16v48h-66.359375c1.519531-5.070312 2.359375-10.441406 2.359375-16 0-30.871094-25.121094-56-56-56s-56 25.128906-56 56c0 5.808594.886719 11.40625 2.542969 16.679688-10.605469 2.488281-18.542969 11.96875-18.542969 23.320312v56h-40v-48h-32v16h16v48h56v24c0 13.230469 10.769531 24 24 24h256c13.230469 0 24-10.769531 24-24v-96c0-10.414062-6.710938-19.214844-16-22.527344v-49.472656c8.824219 0 16-7.175781 16-16zm-112-16h96l.007812 16h-96.007812zm16 64h64v16h-64zm72 32c4.40625 0 8 3.585938 8 8v8h-56v16h56v16h-272v-16h200v-16h-115.304688c6.792969-4.078125 12.664063-9.527344 17.191407-16zm-208-72c22.054688 0 40 17.945312 40 40s-17.945312 40-40 40-40-17.945312-40-40 17.945312-40 40-40zm-48 72h2.113281c4.527344 6.472656 10.398438 11.921875 17.191407 16h-27.304688v-8c0-4.414062 3.59375-8 8-8zm256 112h-256c-4.40625 0-8-3.585938-8-8v-8h200v-16h-200v-16h272v16h-56v16h56v8c0 4.414062-3.59375 8-8 8zm-8-160h-64v-16h64zm0 0"/><path d="m88 352h16v16h-16zm0 0"/><path d="m32 336c0-8.824219 7.175781-16 16-16h104c13.230469 0 24-10.769531 24-24s-10.769531-24-24-24h-40v16h40c4.40625 0 8 3.585938 8 8s-3.59375 8-8 8h-104c-17.648438 0-32 14.351562-32 32s14.351562 32 32 32h24v-16h-24c-8.824219 0-16-7.175781-16-16zm0 0"/><path d="m80 272h16v16h-16zm0 0"/><path d="m64 288v-16h-32c-8.824219 0-16-7.175781-16-16s7.175781-16 16-16h80v-16h-80c-17.648438 0-32 14.351562-32 32s14.351562 32 32 32zm0 0"/><path d="m304 184c0 13.230469 10.769531 24 24 24s24-10.769531 24-24-10.769531-24-24-24-24 10.769531-24 24zm32 0c0 4.40625-3.59375 8-8 8s-8-3.59375-8-8 3.59375-8 8-8 8 3.59375 8 8zm0 0"/><path d="m112 240c-30.878906 0-56-25.121094-56-56s25.121094-56 56-56 56 25.121094 56 56-25.121094 56-56 56zm0 0" fill="#f0bc5e"/><path d="m88 184c0 13.230469 10.769531 24 24 24s24-10.769531 24-24-10.769531-24-24-24-24 10.769531-24 24zm32 0c0 4.40625-3.59375 8-8 8s-8-3.59375-8-8 3.59375-8 8-8 8 3.59375 8 8zm0 0"/></svg>