<?xml version="1.0" encoding="utf-8"?>
<!-- Generator: Adobe Illustrator 16.0.0, SVG Export Plug-In . SVG Version: 6.00 Build 0)  -->
<!DOCTYPE svg PUBLIC "-//W3C//DTD SVG 1.1//EN" "http://www.w3.org/Graphics/SVG/1.1/DTD/svg11.dtd">
<svg version="1.1" id="Capa_1" xmlns="http://www.w3.org/2000/svg" xmlns:xlink="http://www.w3.org/1999/xlink" x="0px" y="0px"
	 width="560px" height="560px" viewBox="200 0 560 560" enable-background="new 200 0 560 560" xml:space="preserve">
<g>
	<path d="M760,265.269l-3.062-29.075l-25.636-9.61l19.501-19.202l-9.031-27.802l-27.063-4.073l15.075-22.843l-14.614-25.317
		l-27.313,1.644l10.008-25.48l-19.573-21.723l-26.383,7.289l4.49-27.007l-23.646-17.18L608.457,57.5l-1.22-27.341l-26.69-11.886
		L559.394,35.65l-6.883-26.492l-28.596-6.07l-17.053,21.389L494.614,0h-29.229l-12.236,24.478L436.085,3.08l-28.596,6.069
		l-6.883,26.501l-21.153-17.387l-26.682,11.886l-1.237,27.341l-24.288-12.609L303.6,62.07l4.489,27.006l-26.383-7.289
		l-19.573,21.723l10.008,25.48l-27.313-1.644l-14.614,25.317l15.075,22.843l-27.061,4.073l-9.032,27.802l19.5,19.202l-25.633,9.61
		L200,265.269L223.078,280L200,294.73l3.062,29.074l25.633,9.61l-19.5,19.202l9.032,27.802l27.061,4.073l-15.075,22.843
		l14.614,25.317l27.313-1.646l-10.008,25.479l19.573,21.723l26.383-7.289l-4.489,27.007l23.646,17.179l24.288-12.606l1.237,27.341
		l26.682,11.886l21.153-17.387l6.883,26.491l28.596,6.068l17.063-21.396L465.386,560h29.229l12.236-24.479l17.063,21.396
		l28.596-6.069l6.884-26.49l21.152,17.388l26.69-11.887l1.22-27.343l24.297,12.609l23.646-17.18l-4.488-27.007l26.383,7.287
		l19.573-21.722l-10.009-25.479l27.313,1.645l14.614-25.317l-15.075-22.842l27.061-4.074l9.033-27.801l-19.501-19.203l25.634-9.608
		L760,294.73L736.923,280L760,265.269z M740.147,249.191l0.713,6.865l-17.333,11.073c-0.442-8.508-1.336-16.899-2.639-25.155
		L740.147,249.191z M728.053,195.774l2.132,6.566l-14.678,14.442c-2.203-8.21-4.841-16.231-7.855-24.08L728.053,195.774z
		 M480,505.807c-124.51,0-225.807-101.297-225.807-225.807S355.49,54.193,480,54.193S705.807,155.49,705.807,280
		S604.51,505.807,480,505.807z M705.12,146.042l3.45,5.979l-11.398,17.251c-3.875-7.569-8.12-14.903-12.735-21.984L705.12,146.042z
		 M676.967,107.294l-7.578,19.293c-5.348-6.584-11.002-12.916-16.988-18.914l19.95-5.509L676.967,107.294z M636.746,70.117
		l-3.396,20.449c-6.585-5.338-13.458-10.315-20.573-14.958l18.39-9.547L636.746,70.117z M583.383,39.309l6.296,2.809l0.921,20.648
		c-7.506-3.839-15.228-7.298-23.156-10.36L583.383,39.309z M531.077,23.068l6.757,1.436l5.175,19.925
		c-8.093-2.168-16.348-3.947-24.748-5.275L531.077,23.068z M483.45,18.064l9.195,18.39c-4.185-0.217-8.4-0.325-12.646-0.325
		s-8.463,0.108-12.646,0.325l9.195-18.39H483.45z M428.923,23.068l12.816,16.086c-8.4,1.328-16.655,3.107-24.748,5.275l5.175-19.925
		L428.923,23.068z M376.617,39.309l15.933,13.097c-7.931,3.062-15.662,6.521-23.168,10.369l0.931-20.657L376.617,39.309z
		 M328.836,66.062l18.39,9.547c-7.117,4.643-13.991,9.62-20.575,14.958l-3.396-20.449L328.836,66.062z M287.649,102.173l19.952,5.51
		c-5.988,5.998-11.643,12.32-16.989,18.914l-7.578-19.293L287.649,102.173z M254.88,146.042l20.684,1.247
		c-4.616,7.081-8.861,14.424-12.735,21.994l-11.39-17.252L254.88,146.042z M231.947,195.774l20.395-3.071
		c-3.017,7.84-5.654,15.87-7.858,24.08l-14.677-14.442L231.947,195.774z M219.139,256.056l0.714-6.865l19.257-7.226
		c-1.301,8.255-2.195,16.646-2.638,25.155L219.139,256.056z M219.853,310.809l-0.714-6.862l17.333-11.073
		c0.443,8.508,1.337,16.898,2.638,25.154L219.853,310.809z M231.947,364.226l-2.132-6.564l14.677-14.442
		c2.204,8.21,4.841,16.23,7.858,24.08L231.947,364.226z M254.88,413.957l-3.45-5.979l11.399-17.252
		c3.875,7.569,8.12,14.903,12.735,21.984L254.88,413.957z M283.034,452.706l7.578-19.293c5.347,6.584,11.001,12.916,16.989,18.913
		l-19.952,5.51L283.034,452.706z M323.254,489.883l3.396-20.449c6.584,5.34,13.458,10.314,20.575,14.957l-18.39,9.55
		L323.254,489.883z M376.617,520.691l-6.304-2.811l-0.931-20.657c7.515,3.839,15.237,7.31,23.168,10.369L376.617,520.691z
		 M428.923,536.932l-6.757-1.437l-5.175-19.925c8.093,2.168,16.348,3.945,24.748,5.272L428.923,536.932z M476.55,541.936
		l-9.195-18.39c4.185,0.217,8.4,0.325,12.646,0.325s8.463-0.108,12.646-0.325l-9.195,18.39H476.55z M531.077,536.932l-12.816-16.087
		c8.4-1.327,16.655-3.104,24.748-5.272l-5.175,19.925L531.077,536.932z M583.383,520.691l-15.933-13.099
		c7.931-3.053,15.651-6.521,23.159-10.358l-0.923,20.646L583.383,520.691z M631.164,493.938l-18.39-9.548
		c7.115-4.643,13.988-9.618,20.573-14.957l3.396,20.449L631.164,493.938z M672.351,457.827l-19.95-5.51
		c5.986-5.997,11.643-12.32,16.988-18.913l7.578,19.293L672.351,457.827z M705.12,413.957l-20.686-1.237
		c4.615-7.09,8.869-14.424,12.735-21.993l11.39,17.252L705.12,413.957z M728.053,364.226l-20.395,3.071
		c3.017-7.84,5.652-15.87,7.856-24.08l14.679,14.442L728.053,364.226z M740.86,303.944l-0.713,6.862l-19.259,7.229
		c1.303-8.256,2.194-16.646,2.639-25.155L740.86,303.944z"/>
</g>
</svg>
