<svg height="496pt" viewBox="0 0 496 496" width="496pt" xmlns="http://www.w3.org/2000/svg"><path d="m368 280c-48.601562 0-88 39.398438-88 88s39.398438 88 88 88 88-39.398438 88-88-39.398438-88-88-88zm0 112c-13.257812 0-24-10.742188-24-24s10.742188-24 24-24 24 10.742188 24 24-10.742188 24-24 24zm0 0" fill="#f0bc5e"/><path d="m168 40c-70.695312 0-128 57.304688-128 128s57.304688 128 128 128 128-57.304688 128-128-57.304688-128-128-128zm0 160c-17.671875 0-32-14.328125-32-32s14.328125-32 32-32 32 14.328125 32 32-14.328125 32-32 32zm0 0" fill="#f0bc5e"/><path d="m444.800781 310.40625-168-224c-25.554687-34.070312-66.226562-54.40625-108.800781-54.40625-74.992188 0-136 61.007812-136 136 0 42.574219 20.335938 83.246094 54.398438 108.800781l223.992187 168c16.519531 12.375 36.976563 19.199219 57.609375 19.199219 52.9375 0 96-43.0625 96-96 0-20.632812-6.824219-41.097656-19.199219-57.59375zm-76.800781 137.59375c-17.191406 0-34.238281-5.679688-48-16l-224-168c-30.054688-22.542969-48-58.433594-48-96 0-66.167969 53.832031-120 120-120 37.566406 0 73.457031 17.945312 96 48l168 224c10.320312 13.761719 16 30.808594 16 48 0 44.113281-35.886719 80-80 80zm0 0"/><path d="m470.398438 291.199219-168-224c-31.558594-42.078125-81.796876-67.199219-134.398438-67.199219-92.640625 0-168 75.359375-168 168 0 52.601562 25.121094 102.832031 67.199219 134.398438l224 168c22.015625 16.503906 49.289062 25.601562 76.800781 25.601562 70.574219 0 128-57.425781 128-128 0-27.503906-9.089844-54.792969-25.601562-76.800781zm-102.398438 188.800781c-24.070312 0-47.9375-7.953125-67.199219-22.398438l-224-168c-38.074219-28.554687-60.800781-74.015624-60.800781-121.601562 0-83.816406 68.183594-152 152-152 47.59375 0 93.046875 22.726562 121.601562 60.800781l168 224c14.4375 19.261719 22.398438 43.136719 22.398438 67.199219 0 61.761719-50.238281 112-112 112zm0 0"/><path d="m368 336c-17.648438 0-32 14.351562-32 32s14.351562 32 32 32 32-14.351562 32-32-14.351562-32-32-32zm0 48c-8.824219 0-16-7.175781-16-16s7.175781-16 16-16 16 7.175781 16 16-7.175781 16-16 16zm0 0"/><path d="m368 304c-35.289062 0-64 28.710938-64 64s28.710938 64 64 64 64-28.710938 64-64-28.710938-64-64-64zm0 112c-26.472656 0-48-21.527344-48-48s21.527344-48 48-48 48 21.527344 48 48-21.527344 48-48 48zm0 0"/><path d="m168 128c-22.054688 0-40 17.945312-40 40s17.945312 40 40 40 40-17.945312 40-40-17.945312-40-40-40zm0 64c-13.230469 0-24-10.769531-24-24s10.769531-24 24-24 24 10.769531 24 24-10.769531 24-24 24zm0 0"/><path d="m168 96c-39.695312 0-72 32.304688-72 72s32.304688 72 72 72 72-32.304688 72-72-32.304688-72-72-72zm0 128c-30.878906 0-56-25.121094-56-56s25.121094-56 56-56 56 25.121094 56 56-25.121094 56-56 56zm0 0"/><path d="m176 72c0 4.417969-3.582031 8-8 8s-8-3.582031-8-8 3.582031-8 8-8 8 3.582031 8 8zm0 0"/><path d="m88.863281 113.070312c-3.824219-2.207031-8.71875-.894531-10.925781 2.929688-2.210938 3.824219-.898438 8.71875 2.925781 10.929688 3.824219 2.207031 8.722657.894531 10.929688-2.929688s.894531-8.71875-2.929688-10.929688zm0 0"/><path d="m80.863281 209.070312c-3.824219 2.210938-5.136719 7.105469-2.925781 10.929688 2.207031 3.824219 7.101562 5.136719 10.925781 2.929688 3.824219-2.210938 5.136719-7.105469 2.929688-10.929688s-7.105469-5.136719-10.929688-2.929688zm0 0"/><path d="m176 264c0 4.417969-3.582031 8-8 8s-8-3.582031-8-8 3.582031-8 8-8 8 3.582031 8 8zm0 0"/><path d="m255.136719 209.070312c-3.824219-2.207031-8.722657-.894531-10.929688 2.929688s-.894531 8.71875 2.929688 10.929688c3.824219 2.207031 8.71875.894531 10.925781-2.929688 2.210938-3.824219.90625-8.71875-2.925781-10.929688zm0 0"/><path d="m247.136719 113.070312c-3.824219 2.210938-5.136719 7.105469-2.929688 10.929688s7.105469 5.136719 10.929688 2.929688c3.824219-2.210938 5.136719-7.105469 2.925781-10.929688-2.207031-3.824219-7.09375-5.136719-10.925781-2.929688zm0 0"/></svg>