<?xml version="1.0" encoding="utf-8"?>
<!-- Generator: Adobe Illustrator 16.0.0, SVG Export Plug-In . SVG Version: 6.00 Build 0)  -->
<!DOCTYPE svg PUBLIC "-//W3C//DTD SVG 1.1//EN" "http://www.w3.org/Graphics/SVG/1.1/DTD/svg11.dtd">
<svg version="1.1" id="Capa_1" xmlns="http://www.w3.org/2000/svg" xmlns:xlink="http://www.w3.org/1999/xlink" x="0px" y="0px"
	 width="496px" height="496px" viewBox="0 0 496 496" enable-background="new 0 0 496 496" xml:space="preserve">
<polygon fill="#F0BC5E" points="128,38.5 30.337,138.601 32,320 128,320 "/>
<polygon fill="#F0BC5E" points="316.432,34.776 433.833,156.5 433.833,352 335.604,352 "/>
<polygon fill="#F0BC5E" points="389.002,153.599 430.8,140.645 321.731,22.645 293.2,34.659 "/>
<polygon fill="#F0BC5E" points="167.5,33.776 147.337,20.743 50.305,112.922 93.5,157.5 "/>
<rect x="338.937" y="47.127" transform="matrix(0.7137 -0.7004 0.7004 0.7137 43.5113 279.7155)" fill="#F0BC5E" width="50.03" height="79"/>
<path d="M472,304h-24v-88C448,96.895,351.105,0,232,0S16,96.895,16,216v105.473C6.711,324.785,0,333.586,0,344v128
	c0,13.23,10.77,24,24,24h112c13.23,0,24-10.77,24-24V344c0-10.414-6.711-19.215-16-22.527V112h176v192h-24c-13.23,0-24,10.77-24,24
	v45.457c0,9.605,5.711,18.262,14.543,22.055L328,413.273V496h112v-82.727l41.465-17.77c8.824-3.785,14.535-12.441,14.535-22.047V328
	C496,314.77,485.23,304,472,304z M432,216v136h-96V104c0-29.09-12.039-55.391-31.352-74.289C379.105,58.855,432,131.344,432,216z
	 M232,16c45.824,0,83.535,35.215,87.594,80H144.406C148.465,51.215,186.176,16,232,16z M159.352,29.711
	C140.039,48.609,128,74.91,128,104v216H32V216C32,131.344,84.895,58.855,159.352,29.711z M112,480H48v-16h64V480z M144,472
	c0,4.414-3.586,8-8,8h-8v-32H32v32h-8c-4.414,0-8-3.586-8-8V344c0-4.414,3.586-8,8-8h112c4.414,0,8,3.586,8,8V472z M480,373.457
	c0,3.199-1.902,6.086-4.84,7.352L424,402.727V480h-80v-77.273l-51.152-21.918c-2.945-1.273-4.848-4.152-4.848-7.352V328
	c0-4.414,3.586-8,8-8h24v32h-16v16h160v-16h-16v-32h24c4.414,0,8,3.586,8,8V373.457z"/>
<path d="M64,216c0-42.633,16.055-83.313,45.207-114.535L97.52,90.543C65.586,124.742,48,169.297,48,216v88h16V216z"/>
<path d="M400,288h16v-72c0-32.328-8.535-64.152-24.695-92.016l-13.84,8.031C392.199,157.449,400,186.488,400,216V288z"/>
<path d="M400,304h16v16h-16V304z"/>
<path d="M360,464h48v-64h-48V464z M376,416h16v32h-16V416z"/>
<path d="M32,400h96v-48H32V400z M48,368h64v16H48V368z"/>
<path fill="#F0BC5E" d="M319.865,98.581C317.166,52.521,278.963,16,232.226,16c-47.048,0-85.45,37.007-87.691,83.5
	C202.646,99.5,261.726,100.464,319.865,98.581z"/>
</svg>
