<svg height="496pt" viewBox="0 0 496 496" width="496pt" xmlns="http://www.w3.org/2000/svg"><path d="m304 296 .238281.480469c-19.277343 10.960937-32.238281 31.757812-32.238281 55.519531v69.921875c-7.761719 1.359375-15.839844 2.078125-24 2.078125s-16.238281-.71875-24-2.078125v-69.921875c0-23.761719-12.960938-44.558594-32.238281-55.519531l.238281-.480469c0-20.480469 8.160156-40.160156 22.640625-54.640625l1.359375-1.359375h64l1.359375 1.359375c14.480469 14.480469 22.640625 34.160156 22.640625 54.640625zm-40-8c0-8.800781-7.199219-16-16-16s-16 7.199219-16 16 7.199219 16 16 16 16-7.199219 16-16zm0 0" fill="#f0bc5e"/><path d="m495.425781 316.71875-15.089843-60.375c-.664063-2.625-1.839844-5.03125-3.480469-7.136719l-49.703125-63.902343c-5.417969-6.953126-14.535156-10.160157-23.023438-8.847657-34.863281-48.65625-91.839844-80.457031-156.128906-80.457031-64.28125 0-121.238281 31.785156-156.105469 80.433594-8.488281-1.304688-17.621093 1.917968-23.046875 8.871094l-49.6875 63.886718c-1.65625 2.121094-2.832031 4.519532-3.496094 7.167969l-15.089843 60.359375c-.382813 1.519531-.574219 3.097656-.574219 4.664062v69.234376c0 1.566406.191406 3.144531.574219 4.664062l15.664062 62.65625 15.523438-3.875-15.761719-63.445312.097656-70.023438 15.078125-60.328125c.113281-.457031.3125-.867187.601563-1.226563l45.191406-58.109374c-9.074219 17.742187-15.496094 37.046874-18.671875 57.429687-1.152344 1.777344-2.058594 3.695313-2.578125 5.777344l-14.597656 58.398437c-.984375 3.945313-.714844 8.03125.808594 11.824219l11.8125 29.542969c2.9375 7.34375 9.960937 12.097656 17.882812 12.097656 8.566406 0 15.984375-5.511719 18.445312-13.726562l17.671876-58.898438c1.320312-4.414062 5.304687-7.375 9.914062-7.375 5.703125 0 10.34375 4.640625 10.34375 10.351562v2.671876c0 1.121093-.175781 2.214843-.527344 3.273437l-31.472656 94.40625v49.296875h16v-32.550781c35.921875 36.101562 84.535156 56.550781 136 56.550781 51.519531 0 100.078125-20.414062 136-56.527344v32.527344h16v-49.296875l-31.472656-94.40625c-.351563-1.058594-.527344-2.152344-.527344-3.273437v-2.671876c0-5.710937 4.640625-10.351562 10.34375-10.351562 4.609375 0 8.59375 2.960938 9.914062 7.375l17.671876 58.898438c2.460937 8.214843 9.878906 13.726562 18.445312 13.726562 7.921875 0 14.9375-4.753906 17.882812-12.113281l11.820313-29.542969c1.515625-3.785156 1.785156-7.863281.800781-11.816406l-14.597656-58.414063c-.519531-2.074219-1.425781-3.984375-2.578125-5.761719-3.167969-20.375-9.597656-39.679687-18.664063-57.414062l45.191407 58.109375c.273437.34375.472656.761719.585937 1.183594l15.183594 61.152343-.097656 70.023438-15.664063 62.65625 15.523438 3.875 15.664062-62.65625c.382813-1.519531.574219-3.097656.574219-4.664062v-69.234376c0-1.566406-.191406-3.144531-.574219-4.664062zm-438.640625 11.707031c-.257812-.648437-.304687-1.347656-.136718-2.019531l1.847656-7.382812c2.222656 13.71875 5.960937 27.105468 11.144531 40.074218-.417969-.296875-.832031-.625-1.039063-1.144531zm296.566406-11.066406 9.207032 27.632813c-16.679688 33.449218-47.160156 57.609374-82.558594 66.824218v-59.816406c0-30.871094 25.121094-56 56-56h18.128906c-1.359375 3.183594-2.128906 6.679688-2.128906 10.351562v2.671876c0 2.832031.457031 5.640624 1.351562 8.335937zm-226.863281-69.359375h243.015625c3.351563 10.167969 5.390625 20.894531 6.089844 32h-39.59375c-39.695312 0-72 32.296875-72 72v62.921875c-5.273438.671875-10.609375 1.078125-16 1.078125-5.40625 0-10.734375-.382812-16-1.039062v-62.960938c0-39.703125-32.304688-72-72-72h-39.59375c.691406-11.105469 2.730469-21.832031 6.082031-32zm6.589844-16c20.824219-42.550781 64.441406-72 114.921875-72s94.097656 29.449219 114.921875 72zm26.921875 64c30.878906 0 56 25.128906 56 56v59.921875c-35.238281-9.019531-65.328125-32.683594-82.304688-66.257813l-.582031.296876 9.535157-28.601563c.894531-2.695313 1.351562-5.503906 1.351562-8.335937v-2.671876c0-3.671874-.769531-7.167968-2.128906-10.351562zm88 168c-51.640625 0-100.160156-22.449219-133.695312-61.625l12.328124-36.976562c26.328126 41.386718 71.582032 66.601562 121.367188 66.601562 49.335938 0 95.144531-25.640625 121.367188-66.59375l12.320312 36.960938c-33.542969 39.191406-81.992188 61.632812-133.6875 61.632812zm191.222656-135.585938-11.816406 29.53125c-.207031.519532-.613281.847657-1.03125 1.152344 5.183594-12.96875 8.921875-26.355468 11.136719-40.066406l1.847656 7.375c.160156.671875.121094 1.371094-.136719 2.007812zm-23.175781 11.90625-12.460937-41.542968c-1.960938-6.546875-6.265626-11.777344-11.800782-15.058594-2.289062-77.40625-65.824218-139.71875-143.785156-139.71875s-141.496094 62.3125-143.785156 139.71875c-5.535156 3.28125-9.839844 8.511719-11.800782 15.058594l-12.460937 41.542968c-5.25-16.839843-7.953125-34.34375-7.953125-52.320312 0-97.046875 78.953125-176 176-176s176 78.953125 176 176c0 17.96875-2.703125 35.488281-7.953125 52.320312zm0 0"/><path d="m248 312c13.230469 0 24-10.769531 24-24s-10.769531-24-24-24-24 10.769531-24 24 10.769531 24 24 24zm0-32c4.40625 0 8 3.585938 8 8s-3.59375 8-8 8-8-3.585938-8-8 3.59375-8 8-8zm0 0"/><path d="m248 16c19 0 36.871094 7.480469 50.320312 21.054688l11.367188-11.246094c-16.472656-16.640625-38.382812-25.808594-61.6875-25.808594s-45.214844 9.167969-61.679688 25.808594l11.367188 11.246094c13.441406-13.574219 31.3125-21.054688 50.3125-21.054688zm0 0"/><path d="m287.289062 48.441406c-10.496093-10.609375-24.449218-16.441406-39.289062-16.441406s-28.792969 5.832031-39.289062 16.441406l11.367187 11.246094c7.464844-7.535156 17.386719-11.6875 27.921875-11.6875s20.457031 4.152344 27.921875 11.6875zm0 0"/><path d="m231.113281 71.0625 11.375 11.25c2.953125-2.984375 8.070313-2.984375 11.023438 0l11.375-11.25c-9.007813-9.109375-24.765625-9.109375-33.773438 0zm0 0"/><g fill="#f0bc5e"><path d="m496 496h-128v-48h128zm0 0"/><path d="m128 496h-128v-48h128zm0 0"/></g></svg>