<?xml version="1.0" encoding="utf-8"?>
<!-- Generator: Adobe Illustrator 16.0.0, SVG Export Plug-In . SVG Version: 6.00 Build 0)  -->
<!DOCTYPE svg PUBLIC "-//W3C//DTD SVG 1.1//EN" "http://www.w3.org/Graphics/SVG/1.1/DTD/svg11.dtd">
<svg version="1.1" id="Capa_1" xmlns="http://www.w3.org/2000/svg" xmlns:xlink="http://www.w3.org/1999/xlink" x="0px" y="0px"
	 width="560px" height="560px" viewBox="200 0 560 560" enable-background="new 200 0 560 560" xml:space="preserve">
<path fill="#F0BC5E" d="M480,144.516c-74.823,0-135.484,60.661-135.484,135.484S405.177,415.483,480,415.483
	S615.483,354.823,615.483,280S554.823,144.516,480,144.516z M480,316.129c-19.952,0-36.129-16.177-36.129-36.129
	s16.177-36.129,36.129-36.129s36.129,16.177,36.129,36.129S499.952,316.129,480,316.129z"/>
<g>
	<path d="M480,560c-154.397,0-280-125.603-280-280C200,125.603,325.603,0,480,0c154.397,0,280,125.603,280,280
		C760,434.397,634.397,560,480,560z M480,18.064c-144.426,0-261.936,117.51-261.936,261.936S335.574,541.936,480,541.936
		S741.936,424.426,741.936,280S624.426,18.064,480,18.064z"/>
	<path d="M480,325.161c-24.902,0-45.161-20.259-45.161-45.161c0-24.902,20.259-45.161,45.161-45.161s45.161,20.259,45.161,45.161
		C525.161,304.902,504.902,325.161,480,325.161z M480,252.903c-14.938,0-27.097,12.157-27.097,27.097
		c0,14.939,12.155,27.097,27.097,27.097s27.097-12.157,27.097-27.097C507.097,265.06,494.938,252.903,480,252.903z"/>
	<path d="M480,225.807c-14.938,0-27.097-12.158-27.097-27.097S465.06,171.613,480,171.613s27.097,12.158,27.097,27.097
		S494.938,225.807,480,225.807z M480,189.677c-4.985,0-9.032,4.046-9.032,9.032s4.047,9.033,9.032,9.033s9.032-4.047,9.032-9.033
		S484.985,189.677,480,189.677z"/>
	<path d="M402.666,281.979c-2.773,0-5.573-0.424-8.346-1.317c-14.208-4.625-22.011-19.934-17.405-34.142
		c4.625-14.199,19.925-22.021,34.142-17.405h0.009c14.199,4.625,22.002,19.934,17.396,34.142
		C424.74,274.689,414.083,281.979,402.666,281.979z M402.702,245.849c-3.821,0-7.371,2.438-8.608,6.241
		c-1.536,4.724,1.066,9.845,5.808,11.381c4.697,1.535,9.845-1.057,11.381-5.808c1.535-4.724-1.066-9.836-5.799-11.38
		C404.554,245.984,403.623,245.849,402.702,245.849z"/>
	<path d="M432.156,372.87c-5.673,0-11.184-1.779-15.87-5.187c-5.853-4.255-9.701-10.53-10.83-17.686
		c-1.138-7.146,0.578-14.307,4.841-20.16c4.254-5.853,10.532-9.7,17.688-10.829c7.1-1.139,14.298,0.577,20.158,4.841
		c5.854,4.256,9.7,10.531,10.829,17.688c1.141,7.145-0.578,14.307-4.841,20.159c-4.255,5.854-10.532,9.7-17.686,10.83
		C435.028,372.762,433.583,372.87,432.156,372.87z M432.229,336.731c-2.802,0-5.548,1.292-7.325,3.722
		c-2.929,4.027-2.032,9.689,2.005,12.618c4.011,2.906,9.683,2.041,12.618-2.006c2.927-4.028,2.03-9.691-2.005-12.618
		C435.932,337.301,434.071,336.731,432.229,336.731z"/>
	<path d="M527.844,372.87c-1.427,0-2.861-0.118-4.299-0.344c-7.154-1.129-13.432-4.979-17.686-10.829
		c-4.266-5.854-5.979-13.018-4.843-20.16c1.131-7.154,4.979-13.432,10.829-17.688c5.862-4.263,13.069-5.979,20.16-4.841
		c7.153,1.129,13.433,4.979,17.687,10.829c4.264,5.854,5.979,13.018,4.842,20.16c-1.129,7.153-4.979,13.431-10.83,17.686
		C539.025,371.09,533.517,372.87,527.844,372.87z M527.771,336.731c-1.843,0-3.701,0.561-5.302,1.716
		c-4.026,2.927-4.932,8.59-2.005,12.618c2.944,4.036,8.589,4.903,12.618,2.006c4.028-2.929,4.932-8.59,2.005-12.618
		C533.317,338.023,530.571,336.731,527.771,336.731z"/>
	<path d="M557.334,281.979c-11.426,0-22.074-7.29-25.796-18.713c-4.606-14.217,3.197-29.536,17.396-34.151
		c14.234-4.625,29.544,3.197,34.15,17.396c4.606,14.217-3.197,29.536-17.396,34.151h-0.012
		C562.916,281.555,560.098,281.979,557.334,281.979z M557.298,245.849c-0.921,0-1.852,0.145-2.781,0.442
		c-4.725,1.536-7.335,6.648-5.799,11.39c1.535,4.742,6.656,7.334,11.392,5.799c4.73-1.536,7.334-6.648,5.799-11.39
		C564.659,248.27,561.101,245.849,557.298,245.849z"/>
	<rect x="416.774" y="36.129" width="18.064" height="18.064"/>
	<rect x="443.871" y="63.226" width="18.063" height="18.065"/>
	<rect x="470.968" y="90.323" width="18.064" height="18.064"/>
	<rect x="498.063" y="117.419" width="18.063" height="18.064"/>
	
		<rect x="266.589" y="143.239" transform="matrix(0.7071 -0.7071 0.7071 0.7071 -26.9456 239.4869)" width="18.064" height="18.064"/>
	
		<rect x="304.907" y="143.237" transform="matrix(0.7071 -0.7071 0.7071 0.7071 -15.7197 266.5865)" width="18.064" height="18.064"/>
	
		<rect x="343.229" y="143.246" transform="matrix(0.7071 -0.7071 0.7071 0.7071 -4.5049 293.6806)" width="18.064" height="18.064"/>
	<rect x="381.554" y="143.237" transform="matrix(0.7071 -0.7071 0.7071 0.7071 6.7294 320.7842)" width="18.064" height="18.064"/>
	<rect x="236.129" y="325.161" width="18.064" height="18.063"/>
	<rect x="263.226" y="298.064" width="18.065" height="18.063"/>
	<rect x="290.323" y="270.968" width="18.064" height="18.064"/>
	<rect x="317.419" y="243.871" width="18.064" height="18.064"/>
	
		<rect x="343.228" y="475.356" transform="matrix(0.7071 -0.7071 0.7071 0.7071 -239.3416 390.9712)" width="18.064" height="18.064"/>
	
		<rect x="343.2" y="437.006" transform="matrix(0.7069 -0.7073 0.7073 0.7069 -212.2493 379.8698)" width="18.066" height="18.066"/>
	
		<rect x="343.219" y="398.678" transform="matrix(0.7071 -0.7071 0.7071 0.7071 -185.123 368.4945)" width="18.063" height="18.064"/>
	
		<rect x="343.229" y="360.402" transform="matrix(0.7069 -0.7073 0.7073 0.7069 -158.0584 357.4183)" width="18.065" height="18.067"/>
	<rect x="525.161" y="505.807" width="18.063" height="18.064"/>
	<rect x="498.063" y="478.71" width="18.063" height="18.064"/>
	<rect x="470.968" y="451.613" width="18.064" height="18.063"/>
	<rect x="443.871" y="424.516" width="18.063" height="18.065"/>
	
		<rect x="675.324" y="398.644" transform="matrix(0.7071 -0.7071 0.7071 0.7071 -87.8196 603.3477)" width="18.064" height="18.064"/>
	<rect x="636.981" y="398.7" transform="matrix(0.7071 -0.7071 0.7071 0.7071 -99.097 576.2214)" width="18.063" height="18.064"/>
	
		<rect x="598.699" y="398.685" transform="matrix(0.7071 -0.7071 0.7071 0.7071 -110.2991 549.1482)" width="18.064" height="18.064"/>
	
		<rect x="560.372" y="398.699" transform="matrix(0.7071 -0.7071 0.7071 0.7071 -121.5348 522.0509)" width="18.064" height="18.063"/>
	<rect x="705.807" y="216.774" width="18.064" height="18.064"/>
	<rect x="678.71" y="243.871" width="18.064" height="18.064"/>
	<rect x="651.613" y="270.968" width="18.063" height="18.064"/>
	<rect x="624.517" y="298.064" width="18.064" height="18.063"/>
	<rect x="598.69" y="66.586" transform="matrix(0.7071 -0.7071 0.7071 0.7071 124.5204 451.8633)" width="18.064" height="18.063"/>
	
		<rect x="598.705" y="104.951" transform="matrix(0.7069 -0.7073 0.7073 0.7069 97.5102 463.2759)" width="18.064" height="18.066"/>
	<rect x="598.682" y="143.24" transform="matrix(0.7071 -0.7071 0.7071 0.7071 70.3284 474.3281)" width="18.063" height="18.064"/>
	
		<rect x="598.661" y="181.542" transform="matrix(0.7068 -0.7074 0.7074 0.7068 43.3516 485.7496)" width="18.067" height="18.066"/>
</g>
</svg>
