<?xml version="1.0" encoding="utf-8"?>
<!-- Generator: Adobe Illustrator 16.0.0, SVG Export Plug-In . SVG Version: 6.00 Build 0)  -->
<!DOCTYPE svg PUBLIC "-//W3C//DTD SVG 1.1//EN" "http://www.w3.org/Graphics/SVG/1.1/DTD/svg11.dtd">
<svg version="1.1" id="Layer_5" xmlns="http://www.w3.org/2000/svg" xmlns:xlink="http://www.w3.org/1999/xlink" x="0px" y="0px"
	 width="512px" height="512px" viewBox="0 0 512 512" enable-background="new 0 0 512 512" xml:space="preserve">
<rect x="62.191" y="302.864" transform="matrix(0.7114 0.7028 -0.7028 0.7114 279.7271 -41.9772)" fill="#F0BC5E" stroke="#000000" stroke-miterlimit="10" width="257.564" height="33.456"/>
<rect x="170.145" y="158.761" transform="matrix(0.7114 0.7028 -0.7028 0.7114 220.6539 -186.3349)" fill="#F0BC5E" stroke="#000000" stroke-miterlimit="10" width="334.107" height="33.456"/>
<rect x="418.486" y="32.941" transform="matrix(0.7114 0.7028 -0.7028 0.7114 170.1544 -305.4653)" fill="#F0BC5E" stroke="#000000" stroke-miterlimit="10" width="77.017" height="42.993"/>
<rect x="101.344" y="362.596" transform="matrix(0.7114 0.7028 -0.7028 0.7114 306.4683 21.911)" fill="#F0BC5E" stroke="#000000" stroke-miterlimit="10" width="50.424" height="42.994"/>
<rect x="40.472" y="425.716" transform="matrix(0.7114 0.7028 -0.7028 0.7114 339.673 92.2536)" fill="#F0BC5E" stroke="#000000" stroke-miterlimit="10" width="34.087" height="67.941"/>
<path d="M504,80c0-39.704-32.304-72-72-72h-3.312l-26.097,26.096C373.473,17.52,339.832,8,304,8h-3.313L256,52.688l-3.72-3.72
	C246.496,43.184,238.808,40,230.632,40C213.736,40,200,53.744,200,70.624c0,8.184,3.184,15.872,8.976,21.656l3.712,3.72l-144,144
	l17.24,17.24l-24,40l6.76,6.76l-26.344,26.344l11.312,11.313L80,315.313l6.76,6.76l40-24L140.688,312l-32,32l8,8L96,372.688l-24-24
	L28.688,392l24,24l-48,48L48,507.313l48-48l24,24L163.312,440l-24-24L160,395.313l8,8l32-32l13.928,13.928l-24,40l6.76,6.76
	l-26.344,26.344l11.312,11.313L208,443.313l6.76,6.76l40-24l17.24,17.24l144-144l3.72,3.72c5.784,5.784,13.473,8.968,21.648,8.968
	C458.264,312,472,298.256,472,281.376c0-8.185-3.185-15.872-8.976-21.655L459.312,256L504,211.312V208
	c0-35.832-9.521-69.472-26.096-98.592L504,83.312V80z M89.24,301.928l-7.168-7.168l15.512-25.855l17.512,17.512L89.24,301.928z
	 M48,484.688L27.312,464L64,427.313L84.688,448L48,484.688z M140.688,440L120,460.688L51.312,392L72,371.313L140.688,440z
	 M128,404.688L107.312,384L128,363.313L148.688,384L128,404.688z M168,380.688L131.312,344L152,323.313L188.688,360L168,380.688z
	 M217.24,429.928l-7.168-7.168l15.512-25.855l17.512,17.512L217.24,429.928z M272,420.688L91.312,240L112,219.312L292.688,400
	L272,420.688z M304,388.688L123.312,208L224,107.312L244.688,128l-48,48L248,227.312l48-48L332.688,216l-48,48L336,315.313l48-48
	L404.688,288L304,388.688z M256,139.312L284.688,168L248,204.688L219.312,176L256,139.312z M344,227.312L372.688,256L336,292.688
	L307.313,264L344,227.312z M441.368,296c-3.904,0-7.584-1.52-10.344-4.279L220.28,80.968C217.56,78.24,216,74.48,216,70.624
	C216,62.56,222.56,56,230.632,56c3.904,0,7.584,1.52,10.344,4.28L451.72,271.032c2.721,2.728,4.28,6.487,4.28,10.344
	C456,289.439,449.44,296,441.368,296L441.368,296z M487.976,204.72L448,244.688L267.313,64l39.976-39.968
	C406.145,25.768,486.231,105.856,487.976,204.72z M469.232,95.464c-14.128-20.672-32.017-38.568-52.688-52.688l18.68-18.68
	c28.32,1.608,51.072,24.368,52.688,52.688L469.232,95.464z"/>
<path d="M404.809,73.68l-9.608,12.8c6.088,4.568,11.888,9.664,17.248,15.128l11.424-11.2
	C417.943,84.36,411.527,78.736,404.809,73.68z"/>
<path d="M455.184,192.24l-18.096,18.104l11.313,11.313l23.359-23.36l-0.288-3.68c-2.664-33.584-15.264-65.28-36.439-91.648
	l-12.48,10.016C440.952,135.888,452.192,163.216,455.184,192.24z"/>
</svg>
