<svg height="491pt" viewBox="-89 0 491 491.312" width="491pt" xmlns="http://www.w3.org/2000/svg"><path d="m42.621094 491.3125h-2.464844c-22.054688 0-40-17.945312-40-40s17.945312-40 40-40h104v16h-104c-13.230469 0-24 10.765625-24 24 0 13.230469 10.769531 24 24 24h2.464844c2.75 0 5.472656-.472656 8.0625-1.402344l106.792968-38.132812 5.375 15.0625-106.785156 38.136718c-4.335937 1.542969-8.855468 2.335938-13.445312 2.335938zm0 0"/><path d="m280.15625 451.3125h-112c-17.648438 0-32-14.351562-32-32v-176c0-17.648438 14.351562-32 32-32h112c17.648438 0 32 14.351562 32 32v176c0 17.648438-14.351562 32-32 32zm0 0" fill="#f0bc5e"/><path d="m200.15625 339.3125h16v16h-16zm0 0"/><path d="m232.15625 339.3125h16v16h-16zm0 0"/><path d="m272.15625 243.3125c-43.175781 0-80.273438 26.457031-95.976562 64h-.023438v.0625c-5.136719 12.304688-8 25.792969-8 39.9375v40h112v-144zm-8 16.359375v47.640625h-70.359375c13.429687-26.214844 39.640625-44.855469 70.359375-47.640625zm-80 111.640625v-24c0-8.320312 1.191406-16.367188 3.359375-24h76.640625v48zm0 0"/><path d="m232.15625 275.3125h16v16h-16zm0 0"/><path d="m168.15625 243.3125h16v16h-16zm0 0"/><path d="m192.15625 451.3125h-16v-8c0-17.648438-14.351562-32-32-32h-8v-16h8c26.472656 0 48 21.527344 48 48zm0 0"/><path d="m264.15625 40-40-40-40 40v171.3125h16v-164.6875l16-16v124.6875h16v-124.6875l16 16v25.375l-11.3125 11.3125 11.3125 11.3125v9.375l-11.3125 11.3125 11.3125 11.3125v9.375l-11.3125 11.3125 11.3125 11.3125v52.6875h16v-59.3125l-4.6875-4.6875 4.6875-4.6875v-22.625l-4.6875-4.6875 4.6875-4.6875v-22.625l-4.6875-4.6875 4.6875-4.6875zm0 0"/><path d="m216.15625 171.3125h16v40h-16zm0 0"/></svg>