<?xml version="1.0" encoding="utf-8"?>
<!-- Generator: Adobe Illustrator 16.0.0, SVG Export Plug-In . SVG Version: 6.00 Build 0)  -->
<!DOCTYPE svg PUBLIC "-//W3C//DTD SVG 1.1//EN" "http://www.w3.org/Graphics/SVG/1.1/DTD/svg11.dtd">
<svg version="1.1" id="Capa_1" xmlns="http://www.w3.org/2000/svg" xmlns:xlink="http://www.w3.org/1999/xlink" x="0px" y="0px"
	 width="512px" height="512px" viewBox="0 0 512 512" enable-background="new 0 0 512 512" xml:space="preserve">
<polygon fill="#F0BC5E" stroke="#000000" stroke-miterlimit="10" points="307.2,361.933 307.2,460.8 460.8,460.8 460.8,307.2 
	361.933,307.2 "/>
<circle fill="#F0BC5E" stroke="#000000" stroke-miterlimit="10" cx="304.901" cy="196.267" r="14.769"/>
<circle fill="#F0BC5E" stroke="#000000" stroke-miterlimit="10" cx="460.8" cy="196.267" r="14.769"/>
<circle fill="#F0BC5E" stroke="#000000" stroke-miterlimit="10" cx="384" cy="153.601" r="14.769"/>
<circle fill="#F0BC5E" stroke="#000000" stroke-miterlimit="10" cx="196.267" cy="313.436" r="14.769"/>
<circle fill="#F0BC5E" stroke="#000000" stroke-miterlimit="10" cx="153.558" cy="390.436" r="14.769"/>
<circle fill="#F0BC5E" stroke="#000000" stroke-miterlimit="10" cx="196.267" cy="468.436" r="14.769"/>
<g id="_x30_30---CPU-Car">
	<path id="Shape" d="M17.067,273.066c0,14.139,11.461,25.601,25.6,25.601H51.2c14.138,0,25.6-11.462,25.6-25.601v-34.133h153.6
		v14.421c0,4.713,3.821,8.534,8.534,8.534c4.712,0,8.533-3.821,8.533-8.534v-14.421h21.675c4.712,0,8.533-3.821,8.533-8.534
		s-3.821-8.533-8.533-8.533H25.6c-4.713,0-8.533-3.82-8.533-8.533v-51.2c0-14.139,11.461-25.6,25.6-25.6h221.867
		c9.614-0.045,18.429,5.347,22.768,13.927c1.271,2.887,4.034,4.836,7.181,5.068s6.164-1.292,7.847-3.96
		c1.682-2.669,1.754-6.049,0.188-8.788c-1.906-3.752-4.356-7.203-7.271-10.24c9.596-6.098,14.021-17.793,10.863-28.715
		c-3.156-10.922-13.139-18.454-24.508-18.491h-20.377l-13.756-48.196C241.122,15.194,221.063,0.067,198.221,0h-89.242
		c-22.841,0.067-42.9,15.194-49.246,37.137L45.978,85.333H25.6c-11.366,0.06-21.331,7.606-24.47,18.53s1.301,22.609,10.902,28.693
		C4.326,140.475,0.01,151.084,0,162.133v51.2c0.045,10.81,6.875,20.426,17.067,24.03V273.066z M59.733,238.934v34.133
		c0,4.713-3.821,8.533-8.533,8.533h-8.534c-4.713,0-8.533-3.82-8.533-8.533v-34.133H59.733z M281.6,102.4
		c3.449,0.028,6.543,2.13,7.84,5.327c1.295,3.197,0.539,6.86-1.918,9.282c-3.242,3.328-6.724,2.458-16.545,2.458l-4.882-17.067
		H281.6z M76.168,41.813c4.227-14.621,17.591-24.701,32.811-24.747h89.242c15.22,0.046,28.584,10.126,32.811,24.747l22.187,77.653
		H53.982L76.168,41.813z M25.6,102.4h15.505l-4.881,17.067c-10.735,0-13.406,0.759-16.708-2.611
		c-2.368-2.457-3.045-6.088-1.721-9.233S22.188,102.424,25.6,102.4z"/>
	<path id="Shape_1_" d="M53.615,155.076c-4.898-0.7-9.859,0.76-13.597,4.002s-5.885,7.946-5.885,12.894v15.761
		c0,9.426,7.641,17.066,17.067,17.066h42.667c9.426,0,17.067-7.641,17.067-17.066v-9.668c-0.033-8.479-6.263-15.659-14.652-16.887
		L53.615,155.076z M51.2,187.733v-15.761l42.667,6.093v9.668H51.2z"/>
	<path id="Shape_2_" d="M253.585,155.076l-42.667,6.102c-8.39,1.229-14.619,8.408-14.652,16.887v9.668
		c0,9.426,7.641,17.066,17.067,17.066H256c9.426,0,17.066-7.641,17.066-17.066v-15.761c0-4.948-2.146-9.652-5.885-12.894
		C263.443,155.836,258.483,154.376,253.585,155.076L253.585,155.076z M256,187.733h-42.667v-9.668L256,171.972V187.733z"/>
	<path id="Shape_3_" d="M170.667,153.6h-34.133c-4.713,0-8.533,3.82-8.533,8.533s3.82,8.533,8.533,8.533h34.133
		c4.713,0,8.534-3.82,8.534-8.533S175.379,153.6,170.667,153.6z"/>
	<path id="Shape_4_" d="M170.667,187.733h-34.133c-4.713,0-8.533,3.82-8.533,8.533s3.82,8.533,8.533,8.533h34.133
		c4.713,0,8.534-3.82,8.534-8.533S175.379,187.733,170.667,187.733z"/>
	<path id="Shape_5_" d="M93.867,68.267c4.634,0,4.821-1.289,23.1-19.567c2.218-2.143,3.108-5.315,2.327-8.299
		c-0.781-2.983-3.111-5.313-6.094-6.094c-2.984-0.781-6.156,0.108-8.299,2.327L87.833,53.7c-2.439,2.44-3.169,6.11-1.849,9.298
		C87.305,66.187,90.416,68.266,93.867,68.267z"/>
	<path id="Shape_6_" d="M104.9,99.9c3.332,3.331,8.734,3.331,12.066,0l51.2-51.2c2.218-2.143,3.108-5.315,2.327-8.299
		c-0.781-2.983-3.111-5.313-6.095-6.094c-2.983-0.781-6.156,0.108-8.299,2.327l-51.2,51.2C101.569,91.166,101.569,96.567,104.9,99.9
		L104.9,99.9z"/>
	<path id="Shape_7_" d="M486.4,256h-17.067v-35.704c11.756-4.156,18.807-16.176,16.698-28.465s-12.763-21.271-25.231-21.271
		c-12.468,0-23.123,8.982-25.231,21.271s4.943,24.309,16.698,28.465V256h-59.733v-78.37c11.756-4.156,18.807-16.176,16.698-28.465
		S396.469,127.894,384,127.894s-23.123,8.982-25.231,21.271s4.942,24.309,16.698,28.465V256h-59.733v-35.704
		c11.755-4.156,18.806-16.176,16.698-28.465c-2.109-12.289-12.764-21.271-25.231-21.271s-23.123,8.982-25.231,21.271
		s4.943,24.309,16.697,28.465V256H281.6c-14.139,0-25.6,11.461-25.6,25.6V307.2h-35.704c-4.156-11.755-16.176-18.807-28.465-16.698
		s-21.271,12.764-21.271,25.231s8.982,23.123,21.271,25.231s24.309-4.943,28.465-16.698H256V384h-78.37
		c-4.156-11.755-16.176-18.807-28.465-16.698s-21.271,12.764-21.271,25.231c0,12.469,8.982,23.123,21.271,25.231
		s24.309-4.943,28.465-16.698H256V460.8h-35.704c-4.156-11.755-16.176-18.806-28.465-16.698
		c-12.289,2.109-21.271,12.764-21.271,25.231c0,12.469,8.982,23.123,21.271,25.231s24.309-4.942,28.465-16.697H256v8.533
		c0,14.138,11.461,25.6,25.6,25.6H486.4c14.138,0,25.6-11.462,25.6-25.6V281.6C512,267.461,500.538,256,486.4,256z M460.8,187.733
		c4.713,0,8.533,3.82,8.533,8.533s-3.82,8.533-8.533,8.533s-8.533-3.82-8.533-8.533S456.087,187.733,460.8,187.733z M384,145.067
		c4.713,0,8.533,3.82,8.533,8.533s-3.82,8.533-8.533,8.533s-8.533-3.82-8.533-8.533S379.287,145.067,384,145.067z M307.2,187.733
		c4.713,0,8.533,3.82,8.533,8.533s-3.82,8.533-8.533,8.533s-8.534-3.82-8.534-8.533S302.487,187.733,307.2,187.733z
		 M196.267,324.267c-4.713,0-8.533-3.82-8.533-8.533s3.82-8.533,8.533-8.533s8.533,3.82,8.533,8.533
		S200.979,324.267,196.267,324.267z M153.6,401.066c-4.713,0-8.533-3.82-8.533-8.533S148.887,384,153.6,384s8.533,3.82,8.533,8.533
		S158.313,401.066,153.6,401.066z M196.267,477.867c-4.713,0-8.533-3.821-8.533-8.534s3.82-8.533,8.533-8.533
		s8.533,3.82,8.533,8.533S200.979,477.867,196.267,477.867z M494.934,486.4c0,4.713-3.82,8.533-8.533,8.533H281.6
		c-4.713,0-8.533-3.82-8.533-8.533V281.6c0-4.713,3.82-8.533,8.533-8.533H486.4c4.713,0,8.533,3.82,8.533,8.533V486.4z"/>
	<path id="Shape_8_" d="M460.8,290.133h-98.867c-4.524,0.012-8.86,1.809-12.065,5.001l-54.733,54.733
		c-3.212,3.191-5.013,7.537-5.001,12.065V460.8c0,9.426,7.642,17.067,17.067,17.067h153.6c9.426,0,17.066-7.642,17.066-17.067V307.2
		C477.866,297.774,470.226,290.133,460.8,290.133z M460.8,460.8H307.2v-98.867l54.732-54.732H460.8V460.8z"/>
	<path id="Shape_9_" d="M298.666,324.267c4.713,0,8.534-3.82,8.534-8.533V307.2h8.533c4.713,0,8.533-3.82,8.533-8.533
		s-3.82-8.534-8.533-8.534h-17.067c-4.712,0-8.533,3.821-8.533,8.534v17.066C290.133,320.446,293.954,324.267,298.666,324.267z"/>
</g>
</svg>
