<?xml version="1.0" encoding="utf-8"?>
<!-- Generator: Adobe Illustrator 16.0.0, SVG Export Plug-In . SVG Version: 6.00 Build 0)  -->
<!DOCTYPE svg PUBLIC "-//W3C//DTD SVG 1.1//EN" "http://www.w3.org/Graphics/SVG/1.1/DTD/svg11.dtd">
<svg version="1.1" id="Capa_1" xmlns="http://www.w3.org/2000/svg" xmlns:xlink="http://www.w3.org/1999/xlink" x="0px" y="0px"
	 width="560px" height="560px" viewBox="200 0 560 560" enable-background="new 200 0 560 560" xml:space="preserve">
<g>
	<path fill="#F0BC5E" d="M380.645,307.097c-14.939,0-27.097-12.157-27.097-27.097c0-14.94,12.158-27.097,27.097-27.097
		S407.742,265.06,407.742,280C407.742,294.939,395.584,307.097,380.645,307.097z"/>
	<path fill="#F0BC5E" d="M579.354,307.097c-14.939,0-27.098-12.157-27.098-27.097c0-14.94,12.157-27.097,27.098-27.097
		c14.939,0,27.097,12.157,27.097,27.097C606.451,294.939,594.294,307.097,579.354,307.097z"/>
</g>
<g>
	<path d="M741.936,505.807V0h-54.192v32.236l-23.61-14.172H295.868l-23.61,14.172V0h-54.193v505.807H200V560h90.323v-54.193h-18.065
		v-90.322h45.162c0,19.926,16.204,36.13,36.129,36.13c19.925,0,36.129-16.204,36.129-36.13v-36.129h180.646v36.129
		c0,19.926,16.204,36.13,36.129,36.13c19.926,0,36.13-16.204,36.13-36.13h45.161v90.322h-18.064V560H760v-54.193H741.936z
		 M723.871,18.064v451.613h-18.064V18.064H723.871z M606.451,325.161v18.063h36.13c4.985,0,9.032,4.048,9.032,9.032
		c0,4.986-4.047,9.032-9.032,9.032H317.419c-4.986,0-9.032-4.046-9.032-9.032c0-4.984,4.046-9.032,9.032-9.032h270.967v-18.063
		H335.484v-66.477c0-4.291,3.053-8.021,7.262-8.861l37.899-7.578V162.58c0-4.977,4.046-9.032,9.032-9.032h180.646
		c4.985,0,9.032,4.056,9.032,9.032v79.665l37.898,7.578c4.209,0.84,7.263,4.57,7.263,8.861v66.477H606.451z M620.804,232.111
		l-23.385-4.679V162.58c0-14.939-12.157-27.097-27.097-27.097H389.677c-14.939,0-27.097,12.157-27.097,27.097v64.852l-23.384,4.679
		c-12.618,2.52-21.777,13.693-21.777,26.573v3.251h-45.162v-166.5l38.631-23.177H649.1l38.642,23.177v166.5H642.58v-3.251
		C642.581,245.804,633.422,234.631,620.804,232.111z M300.881,36.129h358.237l28.624,17.18v21.063l-33.627-20.178h-348.23
		l-33.627,20.178V53.309L300.881,36.129z M254.193,18.064v451.613h-18.064V18.064H254.193z M272.258,541.936h-54.193v-18.063h54.193
		V541.936z M236.129,505.807v-18.063h18.064v18.063H236.129z M272.258,397.419V280h45.162v45.161
		c-14.939,0-27.097,12.157-27.097,27.097c0,14.94,12.157,27.098,27.097,27.098v18.063H272.258L272.258,397.419z M371.613,415.483
		c0,9.963-8.102,18.064-18.064,18.064c-9.962,0-18.064-8.103-18.064-18.064v-36.13h36.129v36.13H371.613z M606.451,433.549
		c-9.962,0-18.064-8.103-18.064-18.064v-36.129h36.13v36.129C624.517,425.446,616.414,433.549,606.451,433.549z M642.581,397.419
		v-18.063c14.939,0,27.097-12.157,27.097-27.098c0-14.939-12.157-27.097-27.097-27.097V280h45.161v117.419H642.581z
		 M705.807,487.742h18.064v18.063h-18.064V487.742z M741.936,541.936h-54.192v-18.063h54.192V541.936z"/>
	<path d="M398.709,234.839H561.29v-63.226H398.709V234.839z M416.774,189.677h126.451v27.097H416.774V189.677z"/>
	<rect x="425.807" y="289.032" width="108.388" height="18.063"/>
	<rect x="425.807" y="252.903" width="108.388" height="18.064"/>
</g>
<g>
	<rect x="705.807" y="433.549" fill="#F0BC5E" width="18.064" height="18.064"/>
	<rect x="705.807" y="397.419" fill="#F0BC5E" width="18.064" height="18.064"/>
	<rect x="236.129" y="433.549" fill="#F0BC5E" width="18.064" height="18.064"/>
	<rect x="236.129" y="397.419" fill="#F0BC5E" width="18.064" height="18.064"/>
</g>
</svg>
