<?xml version="1.0" encoding="utf-8"?>
<!-- Generator: Adobe Illustrator 16.0.0, SVG Export Plug-In . SVG Version: 6.00 Build 0)  -->
<!DOCTYPE svg PUBLIC "-//W3C//DTD SVG 1.1//EN" "http://www.w3.org/Graphics/SVG/1.1/DTD/svg11.dtd">
<svg version="1.1" id="Capa_1" xmlns="http://www.w3.org/2000/svg" xmlns:xlink="http://www.w3.org/1999/xlink" x="0px" y="0px"
	 width="559.389px" height="560px" viewBox="200 0 559.389 560" enable-background="new 200 0 559.389 560" xml:space="preserve">
<g>
	<rect x="335.484" y="225.807" fill="#F0BC5E" width="54.193" height="108.387"/>
	<rect x="570.322" y="225.807" fill="#F0BC5E" width="54.193" height="108.387"/>
	<rect x="425.807" y="135.484" fill="#F0BC5E" width="108.388" height="54.193"/>
	<rect x="425.807" y="370.322" fill="#F0BC5E" width="108.388" height="54.192"/>
</g>
<g>
	<path d="M480,0C325.603,0,200,125.612,200,280c0,154.389,125.603,280,280,280c154.397,0,280-125.611,280-280
		C760,125.612,634.397,0,480,0z M700.748,420.731c-17.017,2.158-57.427,5.572-88.354-5.157
		c10.92-10.667,20.449-22.681,28.562-35.695c2.771,0.227,5.563,0.361,8.373,0.361c28.74,0,59.197-10.992,80.15-20.485
		C722.525,381.45,712.798,401.891,700.748,420.731z M480,451.613c-94.631,0-171.613-76.982-171.613-171.613
		S385.369,108.387,480,108.387S651.613,185.369,651.613,280S574.631,451.613,480,451.613z M353.729,421.147
		c-7.858,30.141-1.87,66.134,4.39,90.603c-20.016-10.568-38.514-23.62-55.052-38.794c0.813-17.116,4.462-57.445,20.386-86.041
		C332.115,399.542,342.357,410.959,353.729,421.147z M369.5,433.855c12.374,8.914,25.805,16.394,40.157,22.146
		c3.044,31.07,21.533,63.434,35.163,83.503c-22.727-3.063-44.538-9.015-65.042-17.541
		C374.702,505.644,364.261,466.254,369.5,433.855z M292.472,307.024c-25.417,18.154-44.231,50.391-54.808,72.258
		c-8.445-20.53-14.316-42.37-17.297-65.113c11.57-12.537,40.311-41.151,70.903-52.866c-0.605,6.16-0.948,12.383-0.948,18.697
		C290.323,289.195,291.208,298.173,292.472,307.024z M294.315,241.315c-30.014,8.427-58.61,32.209-75.988,49.089
		c-0.136-3.449-0.262-6.918-0.262-10.404c0-19.464,2.204-38.414,6.25-56.677c15.192-7.831,52.17-24.938,84.966-25.426
		C302.67,211.572,297.485,226.06,294.315,241.315z M340.253,58.619c18.841-11.94,39.272-21.569,60.94-28.424
		c14.353,9.213,47.682,32.652,64.526,60.85c-15.599,1.174-30.664,4.164-44.989,8.888C398.475,78.147,363.592,65.249,340.253,58.619z
		 M606.271,138.853c7.858-30.141,1.87-66.134-4.39-90.603c20.017,10.567,38.514,23.619,55.052,38.793
		c-0.813,17.116-4.462,57.445-20.386,86.041C627.885,160.458,617.643,149.042,606.271,138.853z M590.501,126.145
		c-12.375-8.915-25.806-16.394-40.158-22.147c-3.043-31.071-21.532-63.434-35.162-83.503c22.726,3.062,44.538,9.014,65.041,17.541
		C585.298,54.356,595.739,93.746,590.501,126.145z M667.527,252.976c25.417-18.155,44.23-50.391,54.809-72.258
		c8.444,20.53,14.315,42.371,17.296,65.114c-11.57,12.537-40.311,41.15-70.901,52.866c0.604-6.16,0.947-12.384,0.947-18.697
		C669.678,270.805,668.792,261.827,667.527,252.976z M665.686,318.686c30.015-8.428,58.61-32.209,75.988-49.09
		c0.135,3.45,0.262,6.919,0.262,10.405c0,19.465-2.203,38.414-6.25,56.678c-15.191,7.831-52.188,24.947-84.967,25.436
		C657.33,348.429,662.515,333.94,665.686,318.686z M712.273,159.148c-6.62,15.797-23.899,52.568-48.692,74.001
		c-3.848-15.047-9.304-29.445-16.512-42.822c17.586-25.724,24.216-62.295,26.682-86.42
		C688.853,120.508,701.796,139.088,712.273,159.148z M491.417,18.354c10.342,13.584,33.608,46.959,39.796,79.186
		c-14.479-4.074-29.626-6.431-45.27-6.919c-13.478-28.199-41.974-52.324-61.663-66.532c17.965-3.911,36.599-6.024,55.72-6.024
		C483.83,18.064,487.623,18.191,491.417,18.354z M320.716,72.267c16.746,3.785,55.864,14.406,81.236,35.054
		c-14.018,6.368-27.124,14.361-39.083,23.782c-7.551-3.441-16.077-6.223-25.534-8.201l-3.703,17.676
		c4.995,1.048,9.673,2.33,14,3.821c-10.938,10.676-20.485,22.716-28.605,35.75c-31.116-2.493-65.52,9.673-88.517,20.097
		c6.955-21.695,16.683-42.145,28.732-60.977c11.444-1.454,34.097-3.559,57.273-1.265l1.779-17.974
		c-16.52-1.635-32.669-1.183-45.306-0.253C286.818,101.974,302.851,85.996,320.716,72.267z M247.727,400.852
		c6.621-15.797,23.899-52.566,48.693-74.001c3.848,15.049,9.303,29.445,16.511,42.821c-17.585,25.726-24.215,62.296-26.681,86.421
		C271.147,439.491,258.204,420.912,247.727,400.852z M468.583,541.646c-10.342-13.586-33.608-46.959-39.796-79.187
		c14.461,4.064,29.606,6.422,45.233,6.918c3.332,6.974,7.687,14.055,13.097,21.118l14.344-10.975
		c-2.719-3.551-5.095-7.081-7.181-10.567c15.599-1.175,30.673-4.164,44.998-8.888c22.256,21.795,57.139,34.691,80.478,41.313
		c-18.841,11.932-39.263,21.568-60.932,28.424c-10.025-6.431-29.652-20.006-46.362-37.492l-13.052,12.482
		c12.085,12.654,25.534,23.357,36.328,31.125c-17.983,3.902-36.617,6.016-55.738,6.016
		C476.17,541.936,472.377,541.809,468.583,541.646z M639.284,487.732c-16.746-3.784-55.865-14.406-81.236-35.055
		c14.036-6.368,27.16-14.379,39.128-23.817c20.783,9.502,45.938,12.274,67.841,12.274c7.876,0,15.283-0.36,21.939-0.867
		C673.155,458.063,657.132,474.021,639.284,487.732z"/>
	<path d="M589.335,343.226h44.214V216.774h-44.214c-11.109-19.221-26.896-35-46.109-46.119v-44.204H416.774v44.204
		c-19.221,11.119-35,26.898-46.11,46.119h-44.213v126.451h44.213c11.11,19.222,26.898,35,46.11,46.119v44.204h126.451v-44.204
		C562.446,378.226,578.226,362.446,589.335,343.226z M579.354,270.968h36.129v18.064h-36.129V270.968z M579.354,325.161v-18.064
		h36.129v18.064H579.354z M615.483,252.903h-36.13v-18.064h36.13V252.903z M470.968,180.645v-36.129h18.064v36.129H470.968z
		 M507.097,144.516h18.064v36.129h-18.064V144.516L507.097,144.516z M434.839,144.516h18.064v36.129h-18.064V144.516z
		 M380.645,289.032h-36.129v-18.064h36.129V289.032z M380.645,234.839v18.064h-36.129v-18.064H380.645z M344.516,307.097h36.129
		v18.064h-36.129V307.097z M489.032,379.354v36.13h-18.064v-36.13H489.032z M452.903,415.483h-18.064v-36.13h18.064V415.483z
		 M525.161,415.483h-18.064v-36.13h18.064V415.483z M543.226,367.929v-6.639H416.774v6.639
		c-9.538-6.846-17.857-15.165-24.704-24.703h6.639V216.774h-6.639c6.847-9.538,15.166-17.857,24.704-24.704v6.639h126.451v-6.639
		c9.538,6.847,17.857,15.166,24.703,24.704h-6.639v126.451h6.639C561.083,352.764,552.764,361.083,543.226,367.929z"/>
	<path d="M480,234.839c-24.902,0-45.161,20.259-45.161,45.161c0,24.902,20.259,45.161,45.161,45.161s45.161-20.259,45.161-45.161
		C525.161,255.098,504.902,234.839,480,234.839z M480,307.097c-14.938,0-27.097-12.157-27.097-27.097
		c0-14.94,12.156-27.097,27.097-27.097S507.097,265.06,507.097,280C507.097,294.939,494.938,307.097,480,307.097z"/>
	<rect x="470.968" y="36.129" width="18.064" height="18.064"/>
	
		<rect x="390.657" y="50.299" transform="matrix(-0.9397 0.3419 -0.3419 -0.9397 795.5708 -21.5846)" width="18.062" height="18.053"/>
	
		<rect x="320.007" y="91.055" transform="matrix(-0.7662 0.6426 -0.6426 -0.7662 645.4632 -34.6692)" width="18.064" height="18.065"/>
	
		<rect x="267.597" y="153.548" transform="matrix(-0.4999 0.8661 -0.8661 -0.4999 555.7211 4.2641)" width="18.065" height="18.066"/>
	
		<rect x="239.682" y="230.229" transform="matrix(-0.1734 0.9849 -0.9849 -0.1734 527.4709 35.7974)" width="18.061" height="18.052"/>
	
		<rect x="239.718" y="311.759" transform="matrix(-0.9849 0.1734 -0.1734 -0.9849 549.3428 593.6027)" width="18.059" height="18.068"/>
	
		<rect x="267.556" y="388.396" transform="matrix(-0.8661 0.4999 -0.4999 -0.8661 714.8062 603.3798)" width="18.065" height="18.065"/>
	
		<rect x="320.065" y="450.866" transform="matrix(-0.6426 0.7662 -0.7662 -0.6426 892.9495 503.2712)" width="18.064" height="18.064"/>
	
		<rect x="390.623" y="491.637" transform="matrix(-0.3419 0.9397 -0.9397 -0.3419 1006.7892 296.2896)" width="18.054" height="18.062"/>
	<rect x="470.968" y="505.807" width="18.064" height="18.064"/>
	
		<rect x="551.268" y="491.601" transform="matrix(-0.9397 0.3419 -0.3419 -0.9397 1258.0018 779.5085)" width="18.062" height="18.054"/>
	
		<rect x="621.905" y="450.869" transform="matrix(-0.7662 0.6426 -0.6426 -0.7662 1409.8939 406.8272)" width="18.064" height="18.064"/>
	
		<rect x="674.36" y="388.347" transform="matrix(-0.4999 0.8661 -0.8661 -0.4999 1369.179 4.1473)" width="18.065" height="18.065"/>
	
		<rect x="702.169" y="311.767" transform="matrix(-0.1734 0.9849 -0.9849 -0.1734 1150.4531 -324.0101)" width="18.062" height="18.052"/>
	
		<rect x="702.23" y="230.188" transform="matrix(-0.9849 0.1734 -0.1734 -0.9849 1453.2258 351.4879)" width="18.059" height="18.067"/>
	
		<rect x="674.389" y="153.562" transform="matrix(-0.8661 0.4999 -0.4999 -0.8661 1356.6 -38.2345)" width="18.065" height="18.065"/>
	<rect x="621.883" y="91.034" transform="matrix(-0.6426 0.7662 -0.7662 -0.6426 1113 -319.0521)" width="18.064" height="18.064"/>
	
		<rect x="551.279" y="50.323" transform="matrix(-0.3419 0.9397 -0.9397 -0.3419 807.6454 -446.8947)" width="18.052" height="18.062"/>
</g>
</svg>
