<?xml version="1.0" encoding="utf-8"?>
<!-- Generator: Adobe Illustrator 16.0.0, SVG Export Plug-In . SVG Version: 6.00 Build 0)  -->
<!DOCTYPE svg PUBLIC "-//W3C//DTD SVG 1.1//EN" "http://www.w3.org/Graphics/SVG/1.1/DTD/svg11.dtd">
<svg version="1.1" id="Layer_3" xmlns="http://www.w3.org/2000/svg" xmlns:xlink="http://www.w3.org/1999/xlink" x="0px" y="0px"
	 width="512px" height="512px" viewBox="0 0 512 512" enable-background="new 0 0 512 512" xml:space="preserve">
<path fill="#F0BC5E" stroke="#000000" stroke-miterlimit="10" d="M158.078,16.656c-78.657,0-142.422,63.764-142.422,142.422
	c0,78.657,63.765,142.422,142.422,142.422c26.602,0,51.495-7.302,72.8-19.998c-5.017-5.35-10.844-9.767-16.399-14.607
	c-6.87-5.986-12.767-12.879-16.708-21.17c-2.618-5.507-4.455-11.945,0.196-16.972c4.447-4.808,11.049-7.487,15.998-11.788
	c7.741-6.728,20.274-30.86,32.571-18.116c10.86,11.255,25.219,18.445,35.757,29.938c11.589-20.606,18.208-44.383,18.208-69.709
	C300.5,80.42,236.735,16.656,158.078,16.656z M77.679,178.829c-1.204-4.834-2.033-9.504-1.037-14.44
	c-0.892-2.635-1.382-5.392-1.464-8.167c-2.081-0.387-3.834-1.956-3.678-4.722c0.827-14.638,6.321-27.804,14.825-38.801
	c1.29-2.728,2.869-5.335,4.673-7.814c17.156-25.061,51.32-36.714,80.713-27.544c4.534-3.189,10.644,3.374,6.324,7.696
	c-1.923,1.924-3.827,3.866-5.711,5.824c1.648,3.601-2.136,6.795-5.652,6.329c-0.859,0.965-1.731,1.919-2.636,2.847
	c-3.04,3.116-6.905,1.148-8.011-1.956c-10.095,5.517-20.083,11.192-29.534,17.781c-0.002,1.506-0.724,2.995-2.468,3.957
	c-6.154,3.394-9.552,10.29-15.73,13.728c-1.587,0.883-3.283,1.507-5.014,1.87c-0.57,0.735-1.146,1.47-1.735,2.206
	c-3.511,4.395-6.163,9.214-9.036,14.019c-3.277,5.48,1.579,7.151,5.196,10.059c3.106,2.496,2.066,9.025,0.383,12.165
	c-2.568,4.79-6.748,5.18-10.602,3.552C87.579,182.752,79.128,184.651,77.679,178.829z M170.971,244.299
	c-1.985,4.121-7.195,6.234-12.196,6.417c-1.051,0.039-2.104,0.016-3.158-0.033c-7.363,1.063-15.23-0.008-22.111-2.918
	c-13.884-0.73-28.266-12.924-36.405-22.194c-4.939-5.625-10.611-14.041-12.55-22.234c-0.843-0.526-1.697-1.038-2.575-1.519
	c-4.847-2.654-1.835-9.363,2.685-9.283c1.191-3.624,3.781-6.862,8.315-9.352c0.439-0.241,0.875-0.404,1.302-0.512
	c4.067-6.174,8.663-11.976,15.639-11.13c9.244,1.121,13.762,12.065,19.126,18.317c4.04,4.708,8.959,8.789,13.373,13.141
	c4.61,4.546,9.202,9.139,13.597,13.904C165.735,223.443,182.043,234.804,170.971,244.299z M250.395,156.356
	c0.065,0.356,0.106,0.734,0.105,1.144c-0.007,4.188-0.264,8.233-1.179,12.329c-0.801,3.587-4.149,4.269-6.699,3.053
	c-0.266,0.381-0.53,0.763-0.805,1.141c-3.531,4.841-11.148,1.055-9.043-4.205c-0.891,0.036-1.799-0.013-2.725-0.175
	c-6.335-1.107-10.645-6.479-13.867-11.62c-0.919-1.466-0.968-2.896-0.488-4.104c-6.323-4.59-12.576-9.26-18.024-14.876
	c-2.719-2.803-5.08-5.729-7.178-8.849c-9.011-1.596-17.558-8.863-19.086-18.136c-0.319-1.933-0.273-3.701,0.072-5.291
	c-0.344-2.237,1.134-4.854,3.342-5.853c2.419-2.229,5.84-3.478,9.615-3.578c1.437-2.7,2.504-6.024,3.195-7.6
	c2.329-5.311,5.869-12.08,12.716-11.532c6.699,0.536,10.542,5.417,11.241,11.113c1.182-0.05,2.403,0.417,3.449,1.645
	c1.431,1.681,2.876,3.35,4.329,5.011c4.179,2.675,7.812,6.705,10.617,10.193c2.463,3.062,4.704,6.451,6.974,9.838
	c3.236,3.808,6.394,7.682,9.414,11.673c1.689,0.25,3.263,1.362,3.952,3.491c2.259,6.976,1.938,15.505-0.727,22.898
	C250.027,154.727,250.322,155.491,250.395,156.356z"/>
<path d="M476,448c-10.76,0-20.872-4.184-28.488-11.8L411.313,400l10.344-10.344c3.128-3.128,3.128-8.185,0-11.313L319.313,276
	l6.344-6.344c3.128-3.129,3.128-8.184,0-11.313l-29.952-29.952C306.336,207.28,312,183.792,312,160C312,76.184,243.816,8,160,8
	S8,76.184,8,160s68.184,152,152,152c23.792,0,47.28-5.664,68.392-16.296l29.952,29.952c1.561,1.56,3.608,2.344,5.656,2.344
	s4.096-0.784,5.656-2.344l6.344-6.344l102.344,102.344c1.561,1.56,3.608,2.344,5.656,2.344s4.096-0.784,5.656-2.344L400,411.313
	l36.2,36.199C446.832,458.152,460.968,464,476,464c6.616,0,12,5.384,12,12s-5.384,12-12,12H296c-17.648,0-32-14.352-32-32
	c0-26.472-21.528-48-48-48H96v16h120c17.648,0,32,14.352,32,32c0,26.472,21.527,48,48,48h180c15.44,0,28-12.56,28-28
	S491.44,448,476,448L476,448z M160,296c-74.992,0-136-61.008-136-136S85.008,24,160,24s136,61.008,136,136
	c0,19.512-4.256,38.792-12.279,56.408l-32.593-32.592C259.464,173.752,264,161.224,264,148c0-15.032-5.848-29.168-16.488-39.8
	l-41.856-41.856c-3.128-3.128-8.184-3.128-11.313,0l-5.784,5.784C177.128,66.896,164.648,64,152,64c-48.52,0-88,39.48-88,88
	c0,12.656,2.896,25.136,8.12,36.568l-5.776,5.776c-3.128,3.128-3.128,8.184,0,11.313l41.856,41.856
	C118.832,258.152,132.968,264,148,264c13.224,0,25.752-4.536,35.816-12.872l32.592,32.593C198.792,291.744,179.512,296,160,296z
	 M80,152c0-39.704,32.296-72,72-72c8.328,0,16.568,1.536,24.352,4.336L164,96.688l-6.344-6.344c-3.128-3.128-8.184-3.128-11.312,0
	l-56,56c-3.128,3.128-3.128,8.184,0,11.313L96.688,164l-12.352,12.352C81.544,168.576,80,160.336,80,152L80,152z M108,175.312
	l64.32,64.32C165.336,244.968,156.936,248,148,248c-10.76,0-20.872-4.184-28.488-11.8l-36.2-36.2L108,175.312z M107.312,152
	L152,107.312L228.688,184L184,228.688L107.312,152z M175.312,108L200,83.312l36.2,36.2C243.816,127.128,248,137.24,248,148
	c0,8.936-3.032,17.336-8.368,24.32L175.312,108z M195.312,240L240,195.312L308.688,264L264,308.688L195.312,240z M384,404.688
	L287.313,308L308,287.313L404.688,384L384,404.688z"/>
<circle fill="#F0BC5E" stroke="#000000" stroke-miterlimit="10" cx="456" cy="56" r="18.422"/>
<circle fill="#F0BC5E" stroke="#000000" stroke-miterlimit="10" cx="392" cy="211" r="18.422"/>
<circle fill="#F0BC5E" stroke="#000000" stroke-miterlimit="10" cx="56" cy="360" r="18.422"/>
<path d="M416,64c17.648,0,32,14.352,32,32c0,4.424,3.576,8,8,8s8-3.576,8-8c0-17.648,14.352-32,32-32c4.424,0,8-3.576,8-8
	s-3.576-8-8-8c-17.648,0-32-14.352-32-32c0-4.424-3.576-8-8-8s-8,3.576-8,8c0,17.648-14.352,32-32,32c-4.424,0-8,3.576-8,8
	S411.576,64,416,64z M456,42.504c3.552,5.344,8.152,9.944,13.496,13.496c-5.344,3.552-9.944,8.152-13.496,13.496
	c-3.552-5.344-8.152-9.944-13.496-13.496C447.848,52.448,452.448,47.848,456,42.504z"/>
<path d="M352,224c17.648,0,32,14.352,32,32c0,4.424,3.576,8,8,8s8-3.576,8-8c0-17.648,14.352-32,32-32c4.424,0,8-3.576,8-8
	s-3.576-8-8-8c-17.648,0-32-14.352-32-32c0-4.424-3.576-8-8-8s-8,3.576-8,8c0,17.648-14.352,32-32,32c-4.424,0-8,3.576-8,8
	S347.576,224,352,224z M392,202.504c3.552,5.344,8.152,9.936,13.496,13.496c-5.344,3.552-9.936,8.152-13.496,13.496
	c-3.552-5.344-8.152-9.936-13.496-13.496C383.848,212.448,388.448,207.848,392,202.504z"/>
<path d="M104,360c0-4.424-3.576-8-8-8c-17.648,0-32-14.352-32-32c0-4.424-3.576-8-8-8s-8,3.576-8,8c0,17.648-14.352,32-32,32
	c-4.424,0-8,3.576-8,8s3.576,8,8,8c17.648,0,32,14.352,32,32c0,4.424,3.576,8,8,8s8-3.576,8-8c0-17.648,14.352-32,32-32
	C100.424,368,104,364.424,104,360z M56,373.496c-3.552-5.344-8.152-9.944-13.496-13.496c5.344-3.552,9.944-8.152,13.496-13.496
	c3.552,5.344,8.152,9.944,13.496,13.496C64.152,363.552,59.552,368.152,56,373.496z"/>
</svg>
