<?xml version="1.0" encoding="utf-8"?>
<!-- Generator: Adobe Illustrator 16.0.0, SVG Export Plug-In . SVG Version: 6.00 Build 0)  -->
<!DOCTYPE svg PUBLIC "-//W3C//DTD SVG 1.1//EN" "http://www.w3.org/Graphics/SVG/1.1/DTD/svg11.dtd">
<svg version="1.1" id="Capa_1" xmlns="http://www.w3.org/2000/svg" xmlns:xlink="http://www.w3.org/1999/xlink" x="0px" y="0px"
	 width="512px" height="512px" viewBox="0 0 512 512" enable-background="new 0 0 512 512" xml:space="preserve">
<path fill="#F0BC5E" d="M182.211,346.352H155.32l34.527-34.527c5.883-5.879,5.883-15.414,0-21.297
	c-5.879-5.879-15.414-5.879-21.297,0l-60.234,60.238c-9.449,9.449-2.758,25.707,10.648,25.707h26.891L111.328,411
	c-5.879,5.879-5.879,15.414,0,21.297c5.883,5.879,15.418,5.879,21.297,0l60.234-60.238c4.309-4.305,5.594-10.781,3.266-16.41
	C193.793,350.023,188.305,346.352,182.211,346.352z"/>
<path d="M496.941,90.352h-15.059V65.254c0-8.316-6.742-15.059-15.059-15.059s-15.059,6.742-15.059,15.059v25.098h-30.121V65.254
	c0-8.316-6.742-15.059-15.059-15.059s-15.059,6.742-15.059,15.059v25.098h-15.059c-8.316,0-15.059,6.742-15.059,15.059v30.121
	c0,36.359,25.91,66.781,60.234,73.777v217.359c0,13.84-11.258,25.098-25.098,25.098h-10.035c-13.84,0-25.102-11.258-25.102-25.098
	V326.273c0-30.445-24.77-55.215-55.215-55.215h-5.02V55.215C301.176,24.77,276.406,0,245.961,0H55.215C24.77,0,0,24.77,0,55.215
	v441.727C0,505.258,6.742,512,15.059,512h271.059c8.316,0,15.059-6.742,15.059-15.059V301.176h5.02
	c13.84,0,25.102,11.258,25.102,25.098v100.391c0,30.449,24.77,55.219,55.215,55.219h10.039c30.445,0,55.215-24.77,55.215-55.219
	V209.309C486.09,202.313,512,171.891,512,135.527V105.41C512,97.094,505.258,90.352,496.941,90.352z M55.215,30.117h190.746
	c13.84,0,25.098,11.262,25.098,25.098v155.609H30.117V55.215C30.117,41.375,41.375,30.117,55.215,30.117z M271.059,481.883H30.117
	V240.941h240.941V481.883z M481.883,135.527c0,24.914-20.266,45.176-45.176,45.176s-45.176-20.266-45.176-45.176v-15.059h90.352
	V135.527z"/>
</svg>
