<svg id="Layer_35" enable-background="new 0 0 64 64" height="512" viewBox="0 0 64 64" width="512" xmlns="http://www.w3.org/2000/svg"><path d="m19.91 53h22.18v2h-22.18z"/><path d="m50.42 36.358c-2.274-5.685-7.7-9.358-13.823-9.358-5.769 0-11.145 2.583-14.749 7.089l-2.848 3.56v12.351h.191v1h23.618v-2h-7.809v-10h14v2h-4v2h4v4.349h2v-9.541zm-17.42-6.966v7.608h-4.556c.344-.591.556-1.268.556-2v-2h-3.29c2.106-1.785 4.596-3.025 7.29-3.608zm-9.59 5.946c.095-.119.205-.222.303-.338h3.287c0 1.103-.897 2-2 2h-2.92zm-2.41 13.662v-10h12v2h-4v2h4v6zm14-12v-7.911c.529-.049 1.06-.089 1.597-.089 2.589 0 5.031.763 7.085 2.113l-3.27 5.887zm7.7 0 2.582-4.648c1.38 1.26 2.493 2.835 3.237 4.648z"/><path d="m59.213 36.272-4.524-1.131-.809-1.618c-1.815-3.628-4.655-6.487-8.074-8.304.126-.391.194-.8.194-1.219 0-.712-.203-1.372-.53-1.952l5.184-4.382c.406.207.859.334 1.346.334 1.654 0 3-1.346 3-3s-1.346-3-3-3-3 1.346-3 3c0 .436.098.847.266 1.221l-5.182 4.381c-.609-.375-1.318-.602-2.084-.602-1.875 0-3.44 1.301-3.872 3.044-.423-.028-.848-.044-1.276-.044-7.104 0-13.93 3.361-18.26 8.991l-3.136 4.076-8.446 1.207c-3.427.49-6.01 3.469-6.01 6.93v7.796c0 1.654 1.346 3 3 3h4.09v-2h-4.09c-.551 0-1-.449-1-1v-1h5.809v-2h-5.809v-2h3c2.757 0 5-2.243 5-5v-3.276l5.544-.792 3.632-4.721c3.955-5.142 10.189-8.211 16.676-8.211 6.495 0 12.335 3.609 15.24 9.418l1.22 2.44 1.715.429c-.016.241-.027.48-.027.713 0 4.525 2.613 8.27 6 8.897v2.103h-7.809v2h7.625c-.414 1.161-1.514 2-2.816 2h-4.09v2h4.09c2.757 0 5-2.243 5-5v-8.877c0-2.299-1.558-4.293-3.787-4.851zm-7.213-22.272c.551 0 1 .449 1 1s-.449 1-1 1-1-.449-1-1 .449-1 1-1zm-43 28c0 1.654-1.346 3-3 3h-3v-.796c0-2.472 1.846-4.6 4.293-4.95l1.707-.244zm34.946-17.633c-1.219-.487-2.494-.848-3.81-1.075.287-.753 1.011-1.292 1.864-1.292 1.103 0 2 .897 2 2 0 .126-.032.245-.054.367zm17.054 20.492c-2.279-.65-4-3.478-4-6.859 0-.07.014-.145.016-.215l1.713.428c1.336.334 2.271 1.531 2.271 2.91z"/><path d="m57 15h2c0-3.86-3.14-7-7-7v2c2.757 0 5 2.243 5 5z"/><path d="m61 15h2c0-6.065-4.935-11-11-11v2c4.962 0 9 4.038 9 9z"/><path d="m14 60c-3.86 0-7-3.14-7-7s3.14-7 7-7 7 3.14 7 7-3.14 7-7 7zm0-9c-1.103 0-2 .897-2 2s.897 2 2 2 2-.897 2-2-.897-2-2-2z" fill="#f0bc5e"/><path d="m48 60c-3.86 0-7-3.14-7-7s3.14-7 7-7 7 3.14 7 7-3.14 7-7 7zm0-9c-1.103 0-2 .897-2 2s.897 2 2 2 2-.897 2-2-.897-2-2-2z" fill="#f0bc5e"/><path d="m14 56c-1.654 0-3-1.346-3-3s1.346-3 3-3 3 1.346 3 3-1.346 3-3 3zm0-4c-.551 0-1 .449-1 1s.449 1 1 1 1-.449 1-1-.449-1-1-1z"/><path d="m48 56c-1.654 0-3-1.346-3-3s1.346-3 3-3 3 1.346 3 3-1.346 3-3 3zm0-4c-.551 0-1 .449-1 1s.449 1 1 1 1-.449 1-1-.449-1-1-1z"/></svg>