<svg height="496pt" viewBox="0 0 496 496" width="496pt" xmlns="http://www.w3.org/2000/svg"><g fill="#f0bc5e"><path d="m472 360h-16c-8.839844 0-16-7.160156-16-16v-16c0-8.839844 7.160156-16 16-16h16zm0 0"/><path d="m24 384c17.671875 0 32-14.328125 32-32s-14.328125-32-32-32zm0 0"/><path d="m168 288h-120v-25.886719l20.425781-40.847656c4.085938-8.1875 12.316407-13.265625 21.460938-13.265625h78.113281zm0 0"/><path d="m192 72h256c4.414062 0 8-3.585938 8-8v-48c0-4.414062-3.585938-8-8-8h-256c-4.414062 0-8 3.585938-8 8v48c0 4.414062 3.585938 8 8 8zm0 0"/></g><path d="m208 32h16v16h-16zm0 0"/><path d="m240 32h160v16h-160zm0 0"/><path d="m416 32h16v16h-16zm0 0"/><path d="m128 304h16v48h-16zm0 0"/><path d="m448 152c0-13.230469-10.769531-24-24-24h-208c-13.230469 0-24 10.769531-24 24v136h256zm-232-8h208c4.414062 0 8 3.59375 8 8v72h-16v-48h-48v48h-32v-64h-112v64h-16v-72c0-4.40625 3.585938-8 8-8zm184 80h-16v-32h16zm-80-32h-80v-16h80zm-80 16h80v16h-80zm-32 64v-32h224v32zm0 0"/><path d="m480 416v-264c0-30.878906-25.128906-56-56-56h-16v-16h40c8.824219 0 16-7.175781 16-16v-48c0-8.824219-7.175781-16-16-16h-256c-8.824219 0-16 7.175781-16 16v48c0 8.824219 7.175781 16 16 16h40v16h-16c-30.871094 0-56 25.121094-56 56v24h-67.761719c-20.316406 0-39.078125 11.03125-48.949219 28.800781l-27.289062 49.128907v162.070312c-8.824219 0-16 7.175781-16 16v16c0 8.824219 7.175781 16 16 16h42.792969v-16h-42.792969v-16h42.792969v-16h-26.792969v-157.929688l25.273438-45.503906c7.054687-12.6875 20.453124-20.566406 34.964843-20.566406h67.761719v224h-10.792969v16h181.578125v-16h-154.785156v-264c0-22.054688 17.945312-40 40-40h208c22.054688 0 40 17.945312 40 40v264h-42.792969v16h58.792969v16h-58.792969v16h58.792969c8.824219 0 16-7.175781 16-16v-16c0-8.824219-7.175781-16-16-16zm-288-400h256v48h-256zm56 64h144v16h-144zm0 0"/><path d="m149.207031 448h181.578125v16h-181.578125zm0 0"/><path d="m376 496c-30.871094 0-56-25.121094-56-56s25.128906-56 56-56 56 25.121094 56 56-25.128906 56-56 56zm0-72c-8.824219 0-16 7.175781-16 16s7.175781 16 16 16 16-7.175781 16-16-7.175781-16-16-16zm0 0" fill="#f0bc5e"/><path d="m104 496c-30.871094 0-56-25.121094-56-56s25.128906-56 56-56 56 25.121094 56 56-25.128906 56-56 56zm0-72c-8.824219 0-16 7.175781-16 16s7.175781 16 16 16 16-7.175781 16-16-7.175781-16-16-16zm0 0" fill="#f0bc5e"/><path d="m376 464c-13.230469 0-24-10.769531-24-24s10.769531-24 24-24 24 10.769531 24 24-10.769531 24-24 24zm0-32c-4.414062 0-8 3.59375-8 8s3.585938 8 8 8 8-3.59375 8-8-3.585938-8-8-8zm0 0"/><path d="m104 464c-13.230469 0-24-10.769531-24-24s10.769531-24 24-24 24 10.769531 24 24-10.769531 24-24 24zm0-32c-4.414062 0-8 3.59375-8 8s3.585938 8 8 8 8-3.59375 8-8-3.585938-8-8-8zm0 0"/><path d="m192 384h16v16h-16zm0 0"/><path d="m192 352h16v16h-16zm0 0"/><path d="m192 320h16v16h-16zm0 0"/></svg>