<svg height="496pt" viewBox="-15 0 495 496" width="496pt" xmlns="http://www.w3.org/2000/svg"><path d="m464.5 176v-24c0-8.824219-7.175781-16-16-16h-56.433594l-5.09375-59.425781c-1.625-19.015625-16.074218-33.621094-34.472656-36.070313v-16.503906c0-13.230469-10.769531-24-24-24s-24 10.769531-24 24v16h-144v-16c0-13.230469-10.769531-24-24-24s-24 10.769531-24 24v16.503906c-18.398438 2.449219-32.847656 17.054688-34.480469 36.082032l-5.078125 59.414062h-56.441406c-8.824219 0-16 7.175781-16 16v24c0 22.054688 17.945312 40 40 40h25.59375l-4.1875 48.871094c-34.6875 5.144531-61.40625 35.03125-61.40625 71.128906v16h16v112c0 17.648438 14.351562 32 32 32h48c17.648438 0 32-14.351562 32-32v-56h208v56c0 17.648438 14.351562 32 32 32h48c17.648438 0 32-14.351562 32-32v-112h16v-24c0-35.289062-28.710938-64-64-64v16c26.472656 0 48 21.527344 48 48v8h-40l-.03125-8.6875-3.265625-38.074219-15.933594 1.363281 3.230469 37.398438v8c0 30.871094-25.128906 56-56 56h-208c-22.28125 0-41.503906-13.113281-50.519531-32h27.992187c3.3125 9.289062 12.113282 16 22.527344 16s19.214844-6.710938 22.527344-16h89.472656v-16h-89.472656c-3.3125-9.289062-12.113282-16-22.527344-16s-19.214844 6.710938-22.527344 16h-32.832031c-.375-2.625-.640625-5.28125-.640625-8l-.015625-3.992188 26.679687-20.007812h101.335938v-16h-106.664062l-19.839844 14.878906 19.96875-232.925781c1.070312-12.511719 11.359375-21.953125 23.910156-21.953125h229.25c12.550781 0 22.832031 9.441406 23.910156 21.945312l12.351563 144.09375 15.9375-1.359374-.398438-4.679688h25.574219c22.054688 0 40-17.945312 40-40zm-57.808594 176h25.808594v19.71875l-40 26.664062-10.246094-6.832031c12.078125-9.957031 20.847656-23.78125 24.4375-39.550781zm-54.191406 54.144531c5.222656-1.191406 10.214844-2.96875 14.945312-5.234375l25.054688 16.707032 40-26.671876v28.765626l-40 26.664062-40-26.664062zm0 32.808594 40 26.671875 40-26.671875v25.046875c0 8.824219-7.175781 16-16 16h-48c-8.824219 0-16-7.175781-16-16zm-224-94.953125c4.414062 0 8 3.585938 8 8s-3.585938 8-8 8-8-3.585938-8-8 3.585938-8 8-8zm-88-144c-13.230469 0-24-10.769531-24-24v-24h55.0625l-4.109375 48zm-24 136c0-26.753906 18.871094-49.160156 43.992188-54.671875l-3.992188 46.671875v8zm96 128c0 8.824219-7.175781 16-16 16h-48c-8.824219 0-16-7.175781-16-16v-25.046875l40 26.671875 40-26.671875zm-14.945312-63.089844c4.730468 2.265625 9.722656 4.042969 14.945312 5.234375v13.574219l-40 26.664062-40-26.664062v-28.765625l40 26.671875zm-14.808594-9.359375-10.246094 6.832031-40-26.664062v-19.71875h25.808594c3.589844 15.769531 12.359375 29.59375 24.4375 39.550781zm61.753906-351.550781h-16v-16c0-4.414062 3.585938-8 8-8s8 3.585938 8 8zm192 0h-16v-16c0-4.414062 3.585938-8 8-8s8 3.585938 8 8zm61.054688 160-4.109376-48h55.054688v24c0 13.230469-10.769531 24-24 24zm0 0"/><path d="m352.597656 185.214844 15.8125-2.4375-14.949218-97.21875c-1.21875-7.855469-7.871094-13.558594-15.824219-13.558594h-210.074219c-8.054688 0-14.871094 6.023438-15.871094 14.015625l-16.253906 129.984375h113.0625v-16h-94.9375l14-112h210.082031zm0 0"/><path d="m130.839844 138.34375 39.996094-39.996094 11.316406 11.3125-40 40zm0 0"/><path d="m146.839844 178.34375 64-64 11.316406 11.3125-64.003906 64zm0 0"/><path d="m160.5 280h-64v-48h64zm0 0" fill="#f0bc5e"/><path d="m296.5 376c-61.761719 0-112-50.238281-112-112s50.238281-112 112-112 112 50.238281 112 112-50.238281 112-112 112zm0 0" fill="#f0bc5e"/><path d="m296.5 192c-39.703125 0-72 32.296875-72 72s32.296875 72 72 72 72-32.296875 72-72-32.296875-72-72-72zm0 80c-4.414062 0-8-3.585938-8-8s3.585938-8 8-8 8 3.585938 8 8-3.585938 8-8 8zm10.28125-29.59375c-.746094-.351562-1.503906-.652344-2.28125-.925781v-32.839844c9.464844 1.359375 18.152344 5.085937 25.472656 10.574219zm-18.28125-.933594c-.785156.28125-1.542969.574219-2.28125.925782l-23.191406-23.191407c7.320312-5.488281 16.007812-9.207031 25.472656-10.574219zm-13.59375 12.246094c-.351562.746094-.652344 1.503906-.925781 2.28125h-32.839844c1.359375-9.464844 5.085937-18.152344 10.574219-25.472656zm-.933594 18.28125c.28125.785156.574219 1.542969.925782 2.28125l-23.191407 23.191406c-5.480469-7.320312-9.207031-16.007812-10.566406-25.472656zm12.246094 13.59375c.746094.351562 1.503906.644531 2.28125.925781v32.832031c-9.464844-1.359374-18.152344-5.085937-25.472656-10.574218zm18.28125.933594c.785156-.28125 1.542969-.574219 2.28125-.925782l23.191406 23.191407c-7.320312 5.480469-16.007812 9.207031-25.472656 10.566406zm13.59375-12.246094c.351562-.746094.652344-1.503906.925781-2.28125h32.832031c-1.359374 9.464844-5.085937 18.152344-10.574218 25.472656zm.933594-18.28125c-.28125-.785156-.574219-1.542969-.925782-2.28125l23.191407-23.191406c5.488281 7.320312 9.207031 16.007812 10.574219 25.472656zm0 0"/></svg>