<svg height="496pt" viewBox="0 -72 496 496" width="496pt" xmlns="http://www.w3.org/2000/svg"><path d="m120 152h320c8.839844 0 16-7.160156 16-16v-93.207031l-336-2.792969zm0 0" fill="#f0bc5e"/><path d="m440 32v-8c0-13.230469-10.769531-24-24-24h-140l-24 32h-129.175781c-51.152344 0-95.375 38.160156-102.871094 88.761719l-19.464844 131.34375c-.328125 2.199219-.488281 4.414062-.488281 6.636719 0 24.953124 20.304688 45.257812 45.257812 45.257812h58.742188v-16h-58.742188c-16.128906 0-29.257812-13.128906-29.257812-29.257812 0-.910157.121094-1.832032.199219-2.742188h59.113281l36.6875-36.6875v44.6875h16v-56h67.3125l16-16h12.6875v96h-24v16h144v-16h-40v-96h48v16h-16v16h16v36.230469h16v-68.230469h48v16h-16v16h16v36.296875h11.726562v11.703125h47.328126l-5.789063 11.574219c-1.363281 2.730469-4.105469 4.425781-7.152344 4.425781h-22.113281v16h22.113281c9.144531 0 17.367188-5.078125 21.460938-13.265625l12.425781-24.847656v-177.886719c0-30.878906-25.121094-56-56-56zm8 16.808594v87.191406c0 4.40625-3.59375 8-8 8h-88v-96h88c2.734375 0 5.414062.28125 8 .808594zm-384 87.191406v56h-38.433594l8.296875-56zm16 0h32v56h-32zm48-88h96v96h-96zm112 0h96v96h-96zm44-32h132c4.40625 0 8 3.59375 8 8v8h-152zm-172 32.761719v71.238281h-75.617188c7-37.671875 38.105469-66.511719 75.617188-71.238281zm-43.3125 191.238281h-50.230469l4.742188-32h77.488281zm136-64-16 16h-60.6875v-32h312c13.230469 0 24-10.769531 24-24v-79.792969c9.65625 7.3125 16 18.785157 16 31.792969v88zm83.3125 32h-16v16h16v64h-48v-96h48zm192-16v64h-48v-64zm0 0"/><path d="m392 352c-30.878906 0-56-25.121094-56-56s25.121094-56 56-56 56 25.121094 56 56-25.121094 56-56 56zm0-72c-8.824219 0-16 7.175781-16 16s7.175781 16 16 16 16-7.175781 16-16-7.175781-16-16-16zm0 0" fill="#f0bc5e"/><path d="m152 352c-30.878906 0-56-25.121094-56-56s25.121094-56 56-56 56 25.121094 56 56-25.121094 56-56 56zm0-72c-8.824219 0-16 7.175781-16 16s7.175781 16 16 16 16-7.175781 16-16-7.175781-16-16-16zm0 0" fill="#f0bc5e"/><path d="m392 320c-13.230469 0-24-10.769531-24-24s10.769531-24 24-24 24 10.769531 24 24-10.769531 24-24 24zm0-32c-4.40625 0-8 3.59375-8 8s3.59375 8 8 8 8-3.59375 8-8-3.59375-8-8-8zm0 0"/><path d="m152 320c-13.230469 0-24-10.769531-24-24s10.769531-24 24-24 24 10.769531 24 24-10.769531 24-24 24zm0-32c-4.40625 0-8 3.59375-8 8s3.59375 8 8 8 8-3.59375 8-8-3.59375-8-8-8zm0 0"/></svg>