<svg height="496pt" viewBox="0 0 496 496" width="496pt" xmlns="http://www.w3.org/2000/svg"><path d="m169.535156 264h-68.664062l27.128906-40h40.496094l135-55.503906-69.496094 69.75zm0 0" fill="#f0bc5e"/><path d="m471.03125 0h-39.03125l-.96875.0546875c-6.808594.8320315-167.527344 21.1289065-236.6875 90.2890625l-5.0625 5.0625 7.109375 8.890625-45.765625 45.757813c-19.121094 19.113281-29.824219 44.351562-30.496094 71.289062l-111.921875 164.144531c-5.375 7.871094-8.207031 17.078125-8.207031 26.625 0 9.351563 2.742188 18.421875 7.9375 26.214844l5.765625 8.648437-6.070313 6.070313c-4.585937 4.585937-7.183593 10.6875-7.3125 17.199219-.121093 6.851562 2.480469 13.28125 7.320313 18.121094 4.726563 4.730468 10.96875 7.3125 17.640625 7.3125h.472656c6.492188-.121094 12.589844-2.71875 17.191406-7.3125l445.742188-445.742188c4.71875-4.714844 7.3125-10.984375 7.3125-17.65625 0-13.769531-11.199219-24.96875-24.96875-24.96875zm-38.527344 16h12.175782l-8.167969 8.167969c-10.441407.40625-20.648438 2.527343-30.359375 6.527343-60.953125 25.097657-118.457032 57.152344-171.648438 95.632813l-23.671875-29.59375c66.3125-59.671875 212.304688-79.519531 221.671875-80.734375zm-133.023437 145.207031-133.066407 54.792969h-16.652343l43.542969-37.007812c65.632812-55.792969 139.296874-100.703126 218.941406-133.496094 1.507812-.617188 3.042968-1.113282 4.578125-1.632813zm-137.542969.160157 44.511719-44.503907 15.277343 19.105469c-13.175781 9.917969-26.167968 20.109375-38.78125 30.832031l-44.824218 38.09375c3.582031-16.359375 11.695312-31.398437 23.816406-43.527343zm-140.691406 268.089843c-3.429688-5.160156-5.246094-11.152343-5.246094-17.34375 0-6.3125 1.871094-12.410156 5.433594-17.617187l110.789062-162.496094h37.363282l100.46875-41.367188-244.816407 244.808594zm456.128906-398.144531-445.742188 445.734375c-1.648437 1.65625-3.847656 2.585937-6.175781 2.632813-2.488281.167968-4.777343-.886719-6.503906-2.625-1.738281-1.742188-2.671875-4.054688-2.625-6.503907.046875-2.34375.976563-4.535156 2.625-6.183593l448.359375-448.367188h3.71875c4.945312 0 8.96875 4.023438 8.96875 8.96875 0 2.398438-.929688 4.648438-2.625 6.34375zm0 0"/></svg>