<svg id="Layer_35" enable-background="new 0 0 64 64" height="512" viewBox="0 0 64 64" width="512" xmlns="http://www.w3.org/2000/svg"><path d="m60 19c-2.414 0-4.434 1.721-4.899 4h-5.101v2h5v14h-5v2h5.101c.465 2.279 2.484 4 4.899 4h3v-26zm1 24h-1c-1.654 0-3-1.346-3-3v-16c0-1.654 1.346-3 3-3h1z"/><path d="m40.062 13c-.776 0-1.554.083-2.312.247l-28.123 6.081c-4.999 1.081-8.627 5.577-8.627 10.691v10.043c0 6.032 4.906 10.938 10.937 10.938h28.125c6.032 0 10.938-4.906 10.938-10.938v-16.124c0-6.031-4.906-10.938-10.938-10.938zm5.938 27.062c0 3.275-2.663 5.938-5.938 5.938h-28.125c-3.274 0-5.937-2.663-5.937-5.938v-10.043c0-2.776 1.97-5.217 4.684-5.804l28.124-6.081c.411-.089.834-.134 1.254-.134 3.275 0 5.938 2.664 5.938 5.938z" fill="#f0bc5e"/><path d="m40.062 17c-.494 0-.987.053-1.466.157l-28.124 6.081c-3.17.685-5.472 3.537-5.472 6.781v10.043c0 3.826 3.112 6.938 6.938 6.938h28.125c3.825 0 6.937-3.112 6.937-6.938v-16.124c0-3.826-3.112-6.938-6.938-6.938zm-29.167 8.192 28.125-6.081c.34-.073.691-.111 1.042-.111 2.723 0 4.938 2.215 4.938 4.938v5.062h-4v-2.991l1.504.859.992-1.736-7.496-4.284-7.496 4.284.992 1.736 1.504-.859v2.991h-23.88c.4-1.864 1.859-3.393 3.775-3.808zm14.105 5.808v4h2v-4h3.171l2.625 14h-13.591l2.625-14zm11-7.848 3 1.714v4.134h-6v-4.134zm-29 16.91v-9.062h12.796l-2.626 14h-5.233c-2.722 0-4.937-2.215-4.937-4.938zm33.062 4.938h-5.232l-2.625-14h12.795v9.062c0 2.723-2.215 4.938-4.938 4.938z"/><path d="m25 39h2v4h-2z"/></svg>