<svg height="496pt" viewBox="0 -40 496 496" width="496pt" xmlns="http://www.w3.org/2000/svg"><path d="m324.945312 416h-153.890624l-18.214844-36.425781 14.320312-7.148438 13.785156 27.574219h134.109376l13.785156-27.574219 14.320312 7.148438zm0 0"/><path d="m96 0v18.128906l1.054688 1.839844c19.808593 34.671875 55.824218 57.039062 95.335937 59.75-.207031 1.378906-.390625 2.753906-.390625 4.152344 0 14.097656 10.457031 25.6875 24 27.714844v48.414062h16v-48h32v48h16v-48.414062c13.542969-2.019532 24-13.617188 24-27.714844 0-1.398438-.183594-2.78125-.390625-4.160156 39.511719-2.710938 75.527344-25.070313 95.335937-59.75l1.054688-1.832032v-18.128906zm179.871094 96h-55.75c-6.679688 0-12.121094-5.441406-12.121094-12.128906 0-1.535156.296875-3.0625.863281-4.503906l9.503907-23.75c1.847656-4.625 6.265624-7.617188 11.257812-7.617188h36.75c4.992188 0 9.410156 2.992188 11.257812 7.617188l9.496094 23.734374c.574219 1.464844.871094 2.984376.871094 4.519532 0 6.6875-5.441406 12.128906-12.128906 12.128906zm22.28125-32.167969-5.664063-14.152343c-4.296875-10.742188-14.542969-17.679688-26.113281-17.679688h-36.75c-11.570312 0-21.824219 6.9375-26.121094 17.679688l-5.664062 14.152343c-34.351563-.894531-66.167969-18.855469-84.503906-47.832031h269.328124c-18.335937 28.976562-50.152343 46.9375-84.511718 47.832031zm0 0"/><path d="m495.542969 332.238281-17.726563-124.160156c-3.921875-27.40625-27.761718-48.078125-55.449218-48.078125h-348.734376c-27.6875 0-51.519531 20.671875-55.449218 48.078125l-17.726563 124.160156c-.304687 2.128907-.457031 4.273438-.457031 6.417969 0 25 20.34375 45.34375 45.34375 45.34375h405.3125c25 0 45.34375-20.34375 45.34375-45.34375 0-2.144531-.152344-4.289062-.457031-6.417969zm-44.886719 11.761719h-405.3125c-2.945312 0-5.34375-2.398438-5.34375-5.34375l17.792969-124.921875c1.109375-7.832031 7.925781-13.734375 15.839843-13.734375h348.734376c7.914062 0 14.730468 5.902344 15.839843 13.742188l17.738281 124.160156c.054688 3.699218-2.34375 6.097656-5.289062 6.097656zm0 0" fill="#f0bc5e"/><path d="m450.65625 352h-405.3125c-7.359375 0-13.34375-5.984375-13.34375-13.34375l.078125-1.128906 17.792969-124.917969c1.671875-11.753906 11.898437-20.609375 23.761718-20.609375h348.734376c11.871093 0 22.089843 8.855469 23.769531 20.609375l17.816406 125.167969c.054687 4-1.351563 7.671875-3.976563 10.335937-2.472656 2.503907-5.785156 3.886719-9.320312 3.886719zm-402.191406-16h399.136718l-17.304687-121.128906c-.5625-3.917969-3.96875-6.871094-7.929687-6.871094h-348.734376c-3.960937 0-7.367187 2.953125-7.921874 6.863281zm0 0"/><path d="m337.359375 315.546875 64-96.007813 13.3125 8.878907-64 96.003906zm0 0"/><path d="m273.359375 315.546875 64-96.003906 13.3125 8.875-64 96.003906zm0 0"/><path d="m209.359375 315.550781 64-96.003906 13.3125 8.875-64 96.003906zm0 0"/><path d="m145.359375 315.554688 64-96.003907 13.3125 8.875-64 96.003907zm0 0"/><path d="m81.359375 315.558594 64-96.003906 13.3125 8.875-64 96.003906zm0 0"/></svg>