<?xml version="1.0" encoding="utf-8"?>
<!-- Generator: Adobe Illustrator 16.0.0, SVG Export Plug-In . SVG Version: 6.00 Build 0)  -->
<!DOCTYPE svg PUBLIC "-//W3C//DTD SVG 1.1//EN" "http://www.w3.org/Graphics/SVG/1.1/DTD/svg11.dtd">
<svg version="1.1" id="Layer_3" xmlns="http://www.w3.org/2000/svg" xmlns:xlink="http://www.w3.org/1999/xlink" x="0px" y="0px"
	 width="512px" height="512px" viewBox="0 0 512 512" enable-background="new 0 0 512 512" xml:space="preserve">
<path d="M160,80c-17.648,0-32,14.352-32,32s14.352,32,32,32s32-14.352,32-32S177.648,80,160,80z M160,128c-8.824,0-16-7.176-16-16
	s7.176-16,16-16s16,7.176,16,16S168.824,128,160,128z"/>
<path fill="#F0BC5E" stroke="#000000" stroke-miterlimit="10" d="M421.965,128.629c8.755-6.906,7.462-20.083,16.334-27.333
	c0.148-0.122,0.299-0.231,0.451-0.333V51.31c-2.891-6.152-5.687-12.079-10.801-16.931c-4.225-4.007-8.772-7.853-11.674-12.879
	h-65.037c-1.373,1.079-2.622,2.134-3.488,3c-31,51-90,55-139,38c-20.217-6.433-32.836-25.53-47.941-41H73.25v4.529
	c0.823-0.221,1.704-0.256,2.579-0.015c0.8,0.22,1.506,0.638,2.081,1.188c0.19-0.019,0.387-0.029,0.59-0.029
	c2.915,0,4.507,2.043,4.787,4.282c1.343,2.33,0.773,5.791-1.728,7.144c0.544,1.719,0.061,3.63-1.19,5.105
	c-2.497,2.941-5.633,5.675-7.119,9.272v52.485c2.308,0.813,3.319,3.225,3.035,5.445c3.895,1.453,7.125,4.182,9.215,8.595
	c25.039,50.078,50.039,112.543,37.132,168.44c3.686,1.686,3.6,7.734-0.251,9.224c0.502,0.795,0.787,1.722,0.787,2.672
	c0,1.067-0.361,2.099-0.986,2.951c-0.248,1.072-0.802,2.062-1.68,2.748c0.874,1.908,0.588,4.387-0.872,5.911
	c-0.144,1.354-0.759,2.649-1.862,3.477c0.666,2.286-0.144,5.063-2.448,6.131c-0.09,2.424-1.688,4.78-4.818,4.78
	c-1.234,0-2.229-0.368-2.991-0.96c-0.335,0.542-0.663,1.086-1.009,1.626h7c-12.324,6.524-25.698,4.64-37.838,1.204
	c-0.06,1.698-0.863,3.361-2.412,4.212v135.759c0.4,0.239,0.779,0.55,1.119,0.956c3.025,3.614,6.329,6.859,9.115,10.678
	c2.59,3.549,4.756,7.193,8.218,9.988c0.469,0.379,0.833,0.783,1.101,1.203h68.345c0.071-0.195,0.155-0.382,0.249-0.566
	c-0.632-0.146-1.271-0.276-1.897-0.434h-1c13-9,26-16,39-26c12-11,28-12,43-16c37.424-10.953,89.836,6.425,106.302,43h73.127
	c-0.075-1.329,0.359-2.721,1.37-3.869c4.675-5.316,9.983-10.017,15-15c0.769-0.764,1.608-1.193,2.451-1.369v-64.772
	c-0.084,0.004-0.164,0.013-0.25,0.013c-3.752,0-5.316-3.384-4.702-6.215c-21.882-7.096-32.071-43.659-38.298-66.787
	c-15-61-20-124,12-180c5-8,13-10,21-15c0.81-0.54,1.644-1.079,2.492-1.623c-0.164-0.015-0.327-0.022-0.492-0.043
	c-0.449-0.06-0.875-0.161-1.279-0.295c-0.064,0.052-0.12,0.109-0.186,0.161C424.032,139.647,416.903,132.621,421.965,128.629z"/>
<path d="M321.57,185.57c26.473,0,48-21.528,48-48s-21.527-48-48-48s-48,21.528-48,48S295.098,185.57,321.57,185.57z M321.57,105.57
	c17.648,0,32,14.352,32,32s-14.352,32-32,32s-32-14.352-32-32S303.922,105.57,321.57,105.57z"/>
<path d="M208,184c-17.648,0-32,14.352-32,32s14.352,32,32,32s32-14.352,32-32S225.648,184,208,184z M208,232
	c-8.824,0-16-7.176-16-16s7.176-16,16-16s16,7.176,16,16S216.824,232,208,232z"/>
<path d="M288,264c-22.057,0-40,17.943-40,40c0,22.056,17.943,40,40,40s40-17.944,40-40C328,281.943,310.057,264,288,264z M288,328
	c-13.232,0-24-10.768-24-24s10.768-24,24-24s24,10.768,24,24S301.232,328,288,328z"/>
<path d="M368,384c-17.648,0-32,14.352-32,32s14.352,32,32,32s32-14.352,32-32S385.648,384,368,384z M368,432
	c-8.824,0-16-7.176-16-16s7.176-16,16-16s16,7.176,16,16S376.824,432,368,432z"/>
<path d="M40,160c-17.648,0-32,14.352-32,32s14.352,32,32,32c7.817,0,14.984-2.82,20.547-7.491
	c0.411-15.731,1.204-31.497,1.981-47.213C56.741,163.554,48.779,160,40,160z M40,208c-8.824,0-16-7.176-16-16s7.176-16,16-16
	s16,7.176,16,16S48.824,208,40,208z"/>
<path d="M72,192c0-8.869-3.626-16.903-9.472-22.704c-0.777,15.716-1.571,31.481-1.981,47.213C67.543,210.635,72,201.831,72,192z"/>
<path d="M438.5,43.5c1.204,1.376,2.528,2.299,3.919,2.859c-2.511-5.628-5.799-10.833-9.735-15.476
	c-1.856-1.728-3.781-3.418-5.798-4.921C430.283,31.987,433.361,38.361,438.5,43.5z"/>
<path d="M432.684,30.883c-2.175-2.566-4.548-4.957-7.093-7.156c0.438,0.738,0.87,1.483,1.295,2.235
	C428.902,27.465,430.827,29.155,432.684,30.883z"/>
<path d="M496.521,231.9c4.777-9.623,7.479-20.45,7.479-31.9c0-17.788-6.5-34.079-17.231-46.656c1.244,3.023,2.188,6.073,2.731,9.156
	C493.821,185.437,496.251,208.705,496.521,231.9z"/>
<path d="M429.408,384.448c-23.784-37.368-36.561-80.384-37.272-124.608C403.855,267.641,417.688,272,432,272
	c28.246,0,52.736-16.363,64.521-40.1c-0.271-23.196-2.7-46.464-7.021-69.4c-0.544-3.083-1.487-6.133-2.731-9.156
	c-11.243-13.178-27.14-22.258-45.125-24.679c-4.164,3.276-8.975,6.056-13.144,8.835c-8,5-16,7-21,15c-32,56-27,119-12,180
	c6.742,25.043,18.126,65.851,43.975,67.928c-0.504-0.883-1.022-1.759-1.57-2.62L429.408,384.448z M419.08,145.64
	c4.224-1,8.536-1.64,12.92-1.64c30.88,0,56,25.12,56,56s-25.12,56-56,56c-14.809,0-28.968-5.952-39.424-16.336
	C394.816,206.776,403.88,174.848,419.08,145.64z"/>
<path d="M437.904,114.2C444.504,103.816,448,91.832,448,79.528v-6.96c0-9.329-2.005-18.193-5.581-26.208
	c-1.391-0.56-2.715-1.483-3.919-2.859c-5.139-5.139-8.217-11.513-11.614-17.538c-3.771-2.808-7.856-4.959-12.386-5.462
	c4.529,0.503,8.615,2.654,12.386,5.462c-0.425-0.752-0.856-1.497-1.295-2.235C414.269,13.94,399.535,8,383.432,8
	c-17.248,0-33.464,6.72-45.656,18.912l-5.487,5.488C311.904,52.776,284.816,64,256,64c-28.816,0-55.904-11.224-76.288-31.6
	l-5.488-5.488C162.032,14.72,145.816,8,128.568,8c-14.808,0-28.432,5.064-39.336,13.48C80.368,12.96,68.52,8,56,8
	C29.528,8,8,29.528,8,56s21.528,48,48,48c4.216,0,8.328-0.6,12.328-1.664c1.433,3.789,3.125,7.487,5.25,10.979
	c1.075-0.16,2.087-0.398,2.922-0.815c2-1,3-4,4-4c5-2-2,8,5,7c-7,1,0-9-5-7c-1,0-2,3-4,4c-0.835,0.417-1.848,0.656-2.922,0.815
	c0.177,0.291,0.335,0.589,0.519,0.876l8.496,13.36C107.064,166.008,120,210.424,120,256c0,22.393-3.304,44.52-9.464,65.984
	C105.888,320.728,101.032,320,96,320c-9.562,0-18.568,2.414-26.451,6.657c0.314,1.281,0.617,2.564,0.951,3.843c17-2,43,2,48-10
	c22-56,8-121-11-178c-4-12-15-24-25-34c10,10,21,22,25,34c19,57,33,122,11,178c-5,12-31,8-48,10
	c-0.333-1.278-0.637-2.562-0.951-3.843C51.975,336.116,40,354.688,40,376c0,19.36,9.888,36.456,24.864,46.52
	C64.352,425.816,64,429.136,64,432.48v6.951C64,475.032,92.968,504,128.568,504c14.125,0,27.555-4.513,38.657-12.842
	c-2.605-0.492-5.19-1.024-7.725-1.658c2.534,0.634,5.12,1.166,7.725,1.658c2.454-1.841,4.798-3.863,7.007-6.07l5.488-5.496
	C200.096,459.216,227.184,448,256,448c28.816,0,55.904,11.216,76.279,31.592l5.496,5.496c3.167,3.167,6.609,5.955,10.267,8.362
	c-14.905-38.587-69.125-57.194-107.542-45.95c-15,4-31,5-43,16c-13,10-26,17-39,26c13-9,26-16,39-26c12-11,28-12,43-16
	c38.417-11.244,92.637,7.363,107.542,45.95c10.424,6.858,22.621,10.55,35.39,10.55C419.032,504,448,475.032,448,439.432v-6.951
	c0-11.283-2.948-22.301-8.525-32.053c-25.849-2.077-37.232-42.885-43.975-67.928c-15-61-20-124,12-180c5-8,13-10,21-15
	c4.169-2.779,8.979-5.559,13.144-8.835C438.486,128.24,435.271,128,432,128c-1,0-1.984,0.176-2.984,0.216
	c0.137-0.216,0.257-0.448,0.393-0.664L437.904,114.2z M64,72.568v6.96c0,2.416,0.24,4.8,0.512,7.184C61.744,87.472,58.928,88,56,88
	c-17.648,0-32-14.352-32-32s14.352-32,32-32c8.208,0,15.992,3.192,21.872,8.712C69.216,43.696,64,57.528,64,72.568z M56,376
	c0-22.056,17.944-40,40-40s40,17.944,40,40s-17.944,40-40,40S56,398.056,56,376z M424.408,105.608l-8.496,13.352
	C389.8,159.992,376,207.376,376,256s13.8,96.016,39.904,137.04l8.504,13.36c4.968,7.8,7.592,16.815,7.592,26.08v6.951
	C432,466.208,410.208,488,383.432,488c-12.976,0-25.168-5.056-34.336-14.224l-5.496-5.496C320.191,444.88,289.088,432,256,432
	s-64.192,12.88-87.6,36.28l-5.488,5.496C153.736,482.944,141.544,488,128.568,488C101.792,488,80,466.208,80,439.432v-6.951
	c0-0.937,0.12-1.856,0.176-2.793C85.2,431.168,90.504,432,96,432c30.88,0,56-25.128,56-56c0-20.112-10.696-37.736-26.664-47.608
	C132.304,304.872,136,280.576,136,256c0-48.624-13.8-96.008-39.904-137.032l-8.496-13.36C82.624,97.8,80,88.784,80,79.528v-6.96
	C80,45.792,101.792,24,128.568,24c12.976,0,25.168,5.048,34.344,14.224l5.488,5.488C191.8,67.112,222.912,80,256,80
	s64.2-12.888,87.6-36.288l5.488-5.488C358.264,29.048,370.456,24,383.432,24C410.208,24,432,45.792,432,72.568v6.96
	C432,88.784,429.376,97.8,424.408,105.608z"/>
<circle fill="#FFFFFF" cx="322.021" cy="137.209" r="32.512"/>
<circle fill="#FFFFFF" cx="95.931" cy="375.799" r="40.293"/>
<circle fill="#FFFFFF" cx="288" cy="304" r="24.304"/>
<circle fill="#FFFFFF" cx="368.361" cy="415.452" r="16.579"/>
<circle fill="#FFFFFF" cx="208" cy="216" r="16.579"/>
</svg>
