<svg height="496pt" viewBox="0 0 496 496" width="496pt" xmlns="http://www.w3.org/2000/svg"><g fill="#f0bc5e"><path d="m344 128c-17.648438 0-32-14.351562-32-32v-1.351562c0-5.808594 1.574219-11.503907 4.558594-16.472657l27.441406-45.726562 27.441406 45.734375c2.984375 4.96875 4.558594 10.664062 4.558594 16.464844v1.351562c0 17.648438-14.351562 32-32 32zm0 0"/><path d="m176 272h-96v-64h96zm0 0"/><path d="m408 272h-96v-64h96zm0 0"/></g><path d="m480 32h-72.152344c-14.617187-19.382812-37.757812-32-63.847656-32s-49.230469 12.617188-63.847656 32h-264.152344c-8.824219 0-16 7.175781-16 16v80c0 8.824219 7.175781 16 16 16v312h73.472656c3.3125 9.289062 12.113282 16 22.527344 16h48v-16h-48c-4.414062 0-8-3.59375-8-8v-24.054688c17.199219-.136718 34.191406-2.914062 50.527344-8.359374l-5.0625-15.179688c-14.703125 4.898438-29.992188 7.402344-45.457032 7.539062.023438-3.65625 2.503907-6.824218 6.046876-7.714843l47.289062-11.824219c4.519531-1.125 8.578125-3.527344 11.734375-6.917969l40.042969-42.953125c1.496094-1.605468 3.632812-2.535156 5.839844-2.535156h124.839843c13.007813 18.679688 20.199219 41.222656 20.199219 64v8h32v16h-24v16h24v8c0 4.40625-3.585938 8-8 8h-24v16h24c10.414062 0 19.214844-6.710938 22.527344-16h65.472656v-312h8c8.824219 0 16-7.175781 16-16v-80c0-8.824219-7.175781-16-16-16zm-136-16c35.289062 0 64 28.710938 64 64s-28.710938 64-64 64-64-28.710938-64-64 28.710938-64 64-64zm-73.273438 32c-4.300781 9.808594-6.726562 20.625-6.726562 32 0 18.023438 6.0625 34.609375 16.152344 48h-264.152344v-32h232v-16h-232v-32zm-113.359374 322.601562c-1.046876 1.125-2.398438 1.917969-3.894532 2.292969l-47.296875 11.824219c-10.695312 2.671875-18.175781 12.25-18.175781 23.28125v32h-24v-248h128v141.441406zm50.632812-49.433593v-73.167969l16 12v60h-9.039062c-2.394532 0-4.714844.480469-6.960938 1.167969zm216 118.832031h-16v-54.191406c0-6.105469-2.289062-11.921875-6.449219-16.359375l-38.949219-41.800781c-4.523437-4.863282-10.921874-7.648438-17.5625-7.648438h-49.039062v-128h128zm-48.257812-48c-.742188-11.726562-3.183594-23.296875-7.0625-34.367188l21.183593 22.726563c1.375 1.480469 2.136719 3.417969 2.136719 5.449219v6.191406zm80.257812 48h-16v-248c0-8.824219-7.175781-16-16-16h-128c-8.824219 0-16 7.175781-16 16v128h-40v-68l-32-24v-36c0-8.824219-7.175781-16-16-16h-128c-8.824219 0-16 7.175781-16 16v248h-16v-296h264.207031c13.351563 10 29.863281 16 47.792969 16s34.441406-6 47.792969-16h64.207031zm-48.152344-312c10.089844-13.390625 16.152344-29.976562 16.152344-48 0-11.375-2.425781-22.191406-6.726562-32h62.726562v32h-40v16h40v32zm0 0"/><path d="m208 456h104v16h-104zm0 0"/><path d="m328 352h-107.3125l-36.6875 36.6875v10.015625c0 17.648437 2.832031 35.082031 8.414062 51.824219l15.171876-5.054688c-4.898438-14.703125-7.402344-29.992187-7.539063-45.472656h126.394531c-2.007812 14.335938-6.007812 28.425781-12.167968 41.472656l14.46875 6.832032c9.984374-21.160157 15.257812-44.695313 15.257812-68.082032v-12.222656c0-8.824219-7.175781-16-16-16zm-116.6875 32 16-16h100.6875v12.222656c0 1.257813-.175781 2.519532-.207031 3.777344zm0 0"/><path d="m216 416h32v16h-32zm0 0"/><path d="m88 288h16v16h-16zm0 0"/><path d="m120 288h16v16h-16zm0 0"/><path d="m152 288h16v16h-16zm0 0"/><path d="m320 288h16v16h-16zm0 0"/><path d="m352 288h16v16h-16zm0 0"/><path d="m384 288h16v16h-16zm0 0"/><path d="m184 496c-17.648438 0-32-14.351562-32-32s14.351562-32 32-32 32 14.351562 32 32-14.351562 32-32 32zm0 0" fill="#f0bc5e"/><path d="m336 496c-17.648438 0-32-14.351562-32-32s14.351562-32 32-32 32 14.351562 32 32-14.351562 32-32 32zm0 0" fill="#f0bc5e"/></svg>