<svg height="496pt" viewBox="-64 0 496 496" width="496pt" xmlns="http://www.w3.org/2000/svg"><path d="m184 160h-112c-8.824219 0-16 7.175781-16 16v24h144v-24c0-8.824219-7.175781-16-16-16zm0 0" fill="#f0bc5e"/><path d="m48 256h160v192h-160zm0 0" fill="#f0bc5e"/><path d="m72 32h112v16h-112zm0 0"/><path d="m128 336.449219-27.441406 45.734375c-2.984375 4.976562-4.558594 10.664062-4.558594 16.464844v1.351562c0 17.648438 14.351562 32 32 32s32-14.351562 32-32v-1.351562c0-5.800782-1.574219-11.488282-4.558594-16.464844zm16 63.550781c0 8.824219-7.175781 16-16 16s-16-7.175781-16-16v-1.351562c0-2.894532.792969-5.746094 2.28125-8.234376l13.71875-22.863281 13.71875 22.863281c1.488281 2.488282 2.28125 5.339844 2.28125 8.234376zm0 0"/><path d="m128 328c13.230469 0 24-10.769531 24-24s-10.769531-24-24-24-24 10.769531-24 24 10.769531 24 24 24zm0-32c4.40625 0 8 3.59375 8 8s-3.59375 8-8 8-8-3.59375-8-8 3.59375-8 8-8zm0 0"/><path d="m364.824219 95.191406c2.070312-3.121094 3.175781-6.75 3.175781-10.511718v-1.71875c0-10.457032-8.503906-18.960938-18.960938-18.960938-5.542968 0-10.792968 2.414062-14.390624 6.625l-46.648438 54.414062v266.960938c0 4.40625-3.59375 8-8 8s-8-3.59375-8-8v-104c0-13.230469-10.769531-24-24-24h-8v-16c0-13.230469-10.769531-24-24-24v-16h8c8.824219 0 16-7.175781 16-16v-80c0-8.824219-7.175781-16-16-16h-24v-16h16v-80h-176v80h16v16h-24c-8.824219 0-16 7.175781-16 16v80c0 8.824219 7.175781 16 16 16h8v16c-13.230469 0-24 10.769531-24 24v200h-16v48h256v-48h-16v-168h8c4.40625 0 8 3.59375 8 8v104c0 13.230469 10.769531 24 24 24s24-10.769531 24-24v-136h48c8.824219 0 16-7.175781 16-16v-67.054688c0-6.105468-3.390625-11.585937-8.839844-14.3125l-17.976562-8.992187c-3.199219-1.59375-5.183594-4.808594-5.183594-8.375 0-1.859375.542969-3.65625 1.574219-5.203125zm-164.824219 128.808594h-16v-16h16zm-32-16v16h-80v-16zm56-80h-48v-16h48zm-64-16v16h-64v-16zm-104-96h144v48h-144zm16 64h112v16h-112zm8 32v16h-48v-16zm-48 32h192.007812l.007813 48h-192.015625zm24 64h16v16h-16zm184 272h-224v-16h224zm-208-32v-200c0-4.40625 3.59375-8 8-8h176c4.40625 0 8 3.59375 8 8v200zm304-208v-40c0-4.40625 3.59375-8 8-8h8v48zm-1.976562-76.039062 17.976562 8.984374v3.054688h-8c-13.230469 0-24 10.769531-24 24v40h-16v-109.039062l42.792969-49.929688c1.621093-1.910156 5.207031-.566406 5.207031 1.929688v1.71875c0 .585937-.167969 1.152343-.496094 1.640624l-27.238281 40.863282c-2.792969 4.183594-4.265625 9.054687-4.265625 14.082031 0 9.671875 5.375 18.367187 14.023438 22.695313zm0 0"/></svg>