<svg height="496pt" viewBox="0 0 496 496" width="496pt" xmlns="http://www.w3.org/2000/svg"><g fill="#f0bc5e"><path d="m409.007812 205.359375c-1.304687-7.742187-7.9375-13.359375-15.785156-13.359375h-162.445312c-7.839844 0-14.480469 5.617188-15.785156 13.375l-14.878907 89.3125h223.78125zm0 0"/><path d="m443.558594 289.34375h-263.117188l-8.875 13.3125 18.753906 12.496094c36.144532 24.105468 78.214844 36.847656 121.679688 36.847656 22.558594 0 44.910156-3.464844 66.742188-10.40625l16.984374-6.195312c13.242188-5.46875 26.015626-12.277344 37.960938-20.238282l18.753906-12.496094zm0 0"/><path d="m87.878906 240c-8.03125 0-15.328125-5.054688-18.144531-12.574219l-9.964844-26.5625c-7.066406-18.855469-17.875-35.648437-32.128906-49.894531l-2.304687-2.304688c-16.335938-16.351562-25.335938-38.078124-25.335938-61.191406v-.9375c0-47.710937 38.824219-86.535156 86.527344-86.535156h2.9375c47.710937 0 86.535156 38.824219 86.535156 86.527344 0 23.441406-9.695312 46.183594-26.609375 62.425781-16 15.367187-28.261719 34.566406-35.480469 55.535156l-7.710937 22.433594c-2.6875 7.820313-10.039063 13.078125-18.320313 13.078125zm0 0"/></g><path d="m496 272v-8c0-8.824219-7.175781-16-16-16h-32.855469l-10.382812-55.375c-3.554688-18.90625-20.089844-32.625-39.320313-32.625h-170.882812c-19.230469 0-35.765625 13.71875-39.320313 32.632812l-10.382812 55.367188h-32.855469c-8.824219 0-16 7.175781-16 16v8c0 16.617188 12.777344 30.152344 28.992188 31.695312l-13.960938 13.960938c-4.535156 4.527344-7.03125 10.558594-7.03125 16.96875v64.816406c0 8.039063 4 15.503906 10.6875 19.964844l5.3125 3.539062v49.054688c0 13.230469 10.769531 24 24 24h40c13.230469 0 24-10.769531 24-24v-24h144v24c0 13.230469 10.769531 24 24 24h40c13.230469 0 24-10.769531 24-24v-49.054688l5.3125-3.546874c6.6875-4.453126 10.6875-11.917969 10.6875-19.957032v-64.816406c0-6.410156-2.496094-12.441406-7.03125-16.96875l-13.960938-13.960938c16.214844-1.542968 28.992188-15.078124 28.992188-31.695312zm-24.070312 128h-79.929688c-10.414062 0-19.214844-6.710938-22.527344-16h35.855469c8.609375 0 17.128906-2.839844 24-8l42.671875-32v55.441406c0 .191406-.054688.367188-.070312.558594zm-319.929688-.558594v-55.441406l42.664062 32c6.871094 5.160156 15.398438 8 24 8h35.855469c-3.3125 9.289062-12.113281 16-22.527343 16h-79.929688c-.007812-.191406-.0625-.367188-.0625-.558594zm80 16.558594c2.734375 0 5.414062-.28125 8-.808594v16.808594h-43.160156c-1.582032 0-3.121094-.472656-4.441406-1.34375l-21.972657-14.65625zm24-8.207031c7.625-5.769531 13.214844-14.097657 15.191406-23.792969h.808594v48h-16zm32-23.792969h16v48h-16zm32 0h16v48h-16zm32 0h.808594c1.976562 9.703125 7.566406 18.023438 15.191406 23.792969v24.207031h-16zm32 31.191406c2.585938.527344 5.265625.808594 8 .808594h61.574219l-21.980469 14.65625c-1.320312.871094-2.859375 1.34375-4.433594 1.34375h-43.160156zm35.734375-51.992187c-4.125 3.097656-9.238281 4.800781-14.398437 4.800781h-186.671876c-5.167968 0-10.28125-1.703125-14.398437-4.800781l-48.089844-36.070313 23.136719-23.128906h265.375l23.136719 23.136719zm-216.765625-167.625c2.128906-11.34375 12.046875-19.574219 23.589844-19.574219h170.882812c11.535156 0 21.460938 8.230469 23.589844 19.574219l17.328125 92.425781h-252.71875zm-58.96875 76.425781v-8h29.855469l-4.496094 24h-9.359375c-8.824219 0-16-7.175781-16-16zm80 200c0 4.414062-3.59375 8-8 8h-40c-4.40625 0-8-3.585938-8-8v-38.382812l15.535156 10.351562c3.960938 2.640625 8.5625 4.03125 13.3125 4.03125h27.152344zm232 0c0 4.414062-3.59375 8-8 8h-40c-4.40625 0-8-3.585938-8-8v-24h27.160156c4.742188 0 9.34375-1.390625 13.3125-4.03125l15.527344-10.351562zm24-200c0 8.824219-7.175781 16-16 16h-9.359375l-4.496094-24h29.855469zm0 0"/><path d="m80 104h20c15.441406 0 28-12.558594 28-28s-12.558594-28-28-28h-36v88h16zm0-40h20c6.617188 0 12 5.382812 12 12s-5.382812 12-12 12h-20zm0 0"/><path d="m40 480h16v16h-16zm0 0"/><path d="m40 448h16v16h-16zm0 0"/><path d="m6.921875 344h33.078125v88h16v-104h-14.921875l22.921875-27.503906 22.921875 27.503906h-14.921875v168h16v-152h33.078125l-57.078125-68.496094zm0 0"/><path d="m287.023438 135.03125 11.320312 11.304688c3.015625-3.015626 8.289062-3.015626 11.304688 0l11.320312-11.304688c-9.058594-9.0625-24.878906-9.0625-33.945312 0zm0 0"/><path d="m343.601562 112.398438c-10.585937-10.574219-24.640624-16.398438-39.601562-16.398438s-29.015625 5.824219-39.601562 16.398438l11.3125 11.3125c7.5625-7.550782 17.609374-11.710938 28.289062-11.710938s20.726562 4.160156 28.289062 11.710938zm0 0"/><path d="m366.222656 89.777344c-16.621094-16.625-38.71875-25.777344-62.222656-25.777344s-45.601562 9.152344-62.222656 25.777344l11.3125 11.3125c13.597656-13.601563 31.679687-21.089844 50.910156-21.089844s37.3125 7.488281 50.910156 21.089844zm0 0"/><path d="m304 48c27.785156 0 53.894531 10.816406 73.535156 30.464844l11.3125-11.3125c-22.65625-22.664063-52.792968-35.152344-84.847656-35.152344s-62.191406 12.488281-84.847656 35.152344l11.3125 11.3125c19.640625-19.648438 45.75-30.464844 73.535156-30.464844zm0 0"/></svg>