<?xml version="1.0" encoding="utf-8"?>
<!-- Generator: Adobe Illustrator 16.0.0, SVG Export Plug-In . SVG Version: 6.00 Build 0)  -->
<!DOCTYPE svg PUBLIC "-//W3C//DTD SVG 1.1//EN" "http://www.w3.org/Graphics/SVG/1.1/DTD/svg11.dtd">
<svg version="1.1" id="Capa_1" xmlns="http://www.w3.org/2000/svg" xmlns:xlink="http://www.w3.org/1999/xlink" x="0px" y="0px"
	 width="560px" height="560px" viewBox="200.5 0 560 560" enable-background="new 200.5 0 560 560" xml:space="preserve">
<g>
	
		<rect x="669.666" y="243.598" transform="matrix(-0.3715 0.9284 -0.9284 -0.3715 1184.0579 -256.0476)" fill="#F0BC5E" width="18.063" height="58.333"/>
	
		<rect x="252.155" y="263.724" transform="matrix(-0.9286 0.3711 -0.3711 -0.9286 643.7799 421.6348)" fill="#F0BC5E" width="58.338" height="18.064"/>
	<rect x="443.876" y="225.803" fill="#F0BC5E" width="72.257" height="252.899"/>
	<rect x="425.812" y="54.193" fill="#F0BC5E" width="108.387" height="18.064"/>
</g>
<path d="M712.87,293.661c-2.321-10.044-1.418-20.368,2.646-29.915l29.246-70.008l-61.823-24.73l-54.086,124.743l-26.229-61.861
	c12.862-5.546,21.895-18.317,21.895-33.184c0-19.925-16.203-36.128-36.129-36.128h-63.225v-55.854
	c10.486-3.739,18.064-13.675,18.064-25.435V27.096C543.229,12.157,531.072,0,516.133,0h-72.257
	c-14.939,0-27.096,12.157-27.096,27.096v54.193c0,11.76,7.579,21.695,18.064,25.435v55.854h-63.225
	c-19.925,0-36.128,16.204-36.128,36.128c0,14.867,9.032,27.638,21.885,33.184l-26.229,61.861L277.063,168.99l-61.825,24.729
	l29.273,70.071c4.046,9.483,4.95,19.809,2.628,29.852c-0.533,2.284-0.921,4.605-1.21,6.945c-6.024,6.458-9.791,15.057-9.791,24.567
	c0,16.112,10.667,29.634,25.263,34.275l24.757,57.518c21.686,50.398,52.359,95.613,91.152,134.407
	c5.563,5.563,12.961,8.635,20.837,8.635c8.797,0,17.062-3.884,22.67-10.641l1.355-1.635c7.081-8.536,8.779-20.178,4.426-30.375
	l-65.863-154.52L415,234.835h19.843v289.027c0,14.938,12.157,27.097,27.098,27.097h36.128c14.938,0,27.097-12.157,27.097-27.097
	V234.835h19.844l54.266,127.985L533.403,517.35c-4.346,10.197-2.655,21.841,4.442,30.394l1.328,1.599
	c5.618,6.774,13.883,10.658,22.68,10.658c7.876,0,15.273-3.071,20.837-8.635c38.793-38.793,69.467-84.008,91.152-134.407
	l24.757-57.516c14.604-4.652,25.271-18.174,25.271-34.286c0-9.512-3.767-18.109-9.79-24.567
	C713.792,298.259,713.403,295.938,712.87,293.661z M692.539,192.293l28.496,11.399l-11.786,28.216l-28.876-11.552L692.539,192.293z
	 M434.844,27.096c0-4.977,4.057-9.032,9.032-9.032h72.257c4.978,0,9.032,4.055,9.032,9.032v54.193c0,4.977-4.056,9.032-9.032,9.032
	h-72.257c-4.977,0-9.032-4.056-9.032-9.032V27.096L434.844,27.096z M452.908,144.514h18.063V126.45h-18.063v-18.064H507.1v18.064
	h-18.063v18.064H507.1v18.064h-54.191V144.514L452.908,144.514z M267.47,192.293l12.167,28.063l-28.876,11.552l-11.787-28.216
	L267.47,192.293z M254.202,325.156c0-9.963,8.102-18.064,18.064-18.064s18.064,8.103,18.064,18.064s-8.102,18.063-18.064,18.063
	S254.202,335.118,254.202,325.156z M408.29,536.164l-1.355,1.635c-4.109,4.968-12.266,5.374-16.845,0.786
	c-37.167-37.167-66.549-80.494-87.332-128.78l-21.442-49.812c15.526-4.038,27.079-18.056,27.079-34.837
	c0-19.925-16.204-36.129-36.128-36.129c-2.168,0-4.254,0.271-6.313,0.642c1.192-11.2-0.334-22.436-4.796-32.886l-3.432-8.21
	l29.102-11.643l34.593,79.781l-15.508,36.58c-5.835,13.747,0.614,29.688,14.37,35.532l0,0c3.441,1.454,7.009,2.141,10.531,2.141
	c7.081,0,13.892-2.845,18.958-7.785l60.208,141.263C411.667,528.379,411.008,532.886,408.29,536.164z M402.635,217.71
	l-63.459,149.681c-1.942,4.588-7.244,6.729-11.841,4.786c-4.588-1.95-6.738-7.262-4.787-11.841l63.45-149.689
	c1.942-4.588,7.253-6.756,11.851-4.787c2.222,0.939,3.947,2.691,4.85,4.922C403.602,213.031,403.575,215.488,402.635,217.71z
	 M507.101,451.605v18.063h-54.191v-18.063h18.063v-18.064h-18.063v-18.063h54.191v18.063h-18.063v18.064H507.101z M452.908,397.413
	v-18.064H507.1v18.064H452.908z M452.908,361.284v-18.063H507.1v18.063H452.908z M452.908,325.156v-18.064H507.1v18.064H452.908z
	 M452.908,289.027v-18.064H507.1v18.064H452.908z M498.068,532.895H461.94c-4.978,0-9.032-4.046-9.032-9.031v-36.128H507.1v36.128
	C507.101,528.849,503.046,532.895,498.068,532.895z M507.101,252.899h-54.191v-18.064h54.191V252.899z M538.849,216.771H421.16
	c1.093-11.453-5.13-22.806-16.276-27.53c-13.756-5.826-29.688,0.614-35.523,14.37l-4.941,11.651
	c-6.386-2.791-10.866-9.149-10.866-16.556c0-9.962,8.102-18.064,18.064-18.064H588.39c9.963,0,18.064,8.102,18.064,18.064
	c0,7.406-4.489,13.765-10.875,16.556l-4.94-11.651c-5.824-13.747-21.758-20.196-35.522-14.37
	C543.97,193.965,537.756,205.318,538.849,216.771z M557.319,210.8c0.902-2.24,2.629-3.983,4.851-4.922
	c1.146-0.488,2.339-0.723,3.513-0.723c3.523,0,6.874,2.068,8.328,5.5l63.46,149.689c1.941,4.58-0.208,9.892-4.796,11.842
	c-4.598,1.941-9.898-0.208-11.842-4.796l-63.459-149.671C556.435,215.488,556.407,213.031,557.319,210.8z M657.26,409.805
	c-20.783,48.286-50.164,91.613-87.341,128.78c-4.57,4.57-12.717,4.182-16.854-0.804l-1.328-1.6
	c-2.736-3.297-3.396-7.804-1.707-11.751l60.217-141.263c5.067,4.95,11.878,7.786,18.959,7.786c3.514,0,7.09-0.688,10.531-2.142l0,0
	c13.756-5.835,20.205-21.775,14.37-35.531L638.6,316.693l34.594-79.772l29.102,11.643l-3.405,8.147
	c-4.471,10.504-6.007,21.749-4.822,32.949c-2.068-0.361-4.154-0.633-6.322-0.633c-19.925,0-36.129,16.204-36.129,36.129
	c0,16.781,11.553,30.8,27.088,34.846L657.26,409.805z M687.743,343.221c-9.963,0-18.064-8.103-18.064-18.063
	c0-9.963,8.103-18.064,18.064-18.064s18.063,8.103,18.063,18.064C705.808,335.118,697.705,343.221,687.743,343.221z"/>
</svg>
