<svg height="496pt" viewBox="-112 0 496 496" width="496pt" xmlns="http://www.w3.org/2000/svg"><path d="m128 16h16v24h16v-40h-48v40h16zm0 0"/><path d="m40 352h192v40h-192zm0 0" fill="#f0bc5e"/><path d="m152 32h-32c-39.703125 0-72 32.296875-72 72v96h176v-96c0-39.703125-32.296875-72-72-72zm0 0" fill="#f0bc5e"/><path d="m256 272v-8c0-10.414062-6.710938-19.214844-16-22.527344v-25.472656c0-13.230469-10.769531-24-24-24h-56v-48h8c13.230469 0 24-10.769531 24-24s-10.769531-24-24-24-24 10.769531-24 24v8h-16v-8c0-13.230469-10.769531-24-24-24s-24 10.769531-24 24 10.769531 24 24 24h8v48h-56c-13.230469 0-24 10.769531-24 24v25.472656c-9.289062 3.3125-16 12.113282-16 22.527344v8c-8.824219 0-16 7.175781-16 16v16c0 8.824219 7.175781 16 16 16h16v80h32v96h48v-96h32v96h80v-96h16v-80h16c8.824219 0 16-7.175781 16-16v-16c0-8.824219-7.175781-16-16-16zm-96-152c0-4.414062 3.585938-8 8-8s8 3.585938 8 8-3.585938 8-8 8h-8zm-56 8c-4.414062 0-8-3.585938-8-8s3.585938-8 8-8 8 3.585938 8 8v8zm24 16h16v48h-16zm-72 64h160c4.414062 0 8 3.585938 8 8v24h-176v-24c0-4.414062 3.585938-8 8-8zm-24 56c0-4.414062 3.585938-8 8-8h192c4.414062 0 8 3.585938 8 8v8h-208zm64 216h-16v-80h16zm112 0h-16v-32h-16v32h-16v-80h48zm16-96h-176v-64h176zm32-80h-240l-.015625-16h240.015625zm0 0"/><path d="m80.007812 64h111.992188v16h-111.992188zm0 0"/></svg>