<svg id="Layer_35" enable-background="new 0 0 64 64" height="512" viewBox="0 0 64 64" width="512" xmlns="http://www.w3.org/2000/svg"><path d="m24.008 32.139c.319-.082.647-.139.992-.139h5v-18c0-1.105.895-2 2-2s2 .895 2 2v18h5c.345 0 .673.057.992.139l1.505-7.527c.334-1.669.503-3.376.503-5.075 0-5.727-1.937-11.37-5.452-15.889l-.531-.683c-.971-1.249-2.435-1.965-4.017-1.965s-3.046.716-4.017 1.965l-.531.683c-3.515 4.519-5.452 10.162-5.452 15.889 0 1.699.169 3.407.503 5.075z" fill="#f0bc5e"/><path d="m50 42c0-2.757-2.243-5-5-5h-1v-1c0-2.757-2.243-5-5-5h-4v-17c0-1.654-1.346-3-3-3s-3 1.346-3 3v17h-4c-2.757 0-5 2.243-5 5v1h-1c-2.757 0-5 2.243-5 5 0 2.414 1.721 4.434 4 4.899v1.101c0 2.414 1.721 4.434 4 4.899v10.101h6v-10h6v10h8v-10.101c2.279-.465 4-2.484 4-4.899v-1.101c2.279-.465 4-2.485 4-4.899zm-19-28c0-.551.448-1 1-1s1 .449 1 1v17h-2zm-9 22c0-1.654 1.346-3 3-3h14c1.654 0 3 1.346 3 3v1h-20zm4 25h-2v-8h2zm10 0v-8h4v8zm5-10h-18c-1.654 0-3-1.346-3-3v-1h24v1c0 1.654-1.346 3-3 3zm4-6h-26c-1.654 0-3-1.346-3-3s1.346-3 3-3h1 24 1c1.654 0 3 1.346 3 3s-1.346 3-3 3z"/><path d="m18 41h2v2h-2z"/><path d="m22 41h2v2h-2z"/><path d="m26 41h2v2h-2z"/></svg>