<?xml version="1.0" encoding="utf-8"?>
<!-- Generator: Adobe Illustrator 16.0.0, SVG Export Plug-In . SVG Version: 6.00 Build 0)  -->
<!DOCTYPE svg PUBLIC "-//W3C//DTD SVG 1.1//EN" "http://www.w3.org/Graphics/SVG/1.1/DTD/svg11.dtd">
<svg version="1.1" id="Capa_1" xmlns="http://www.w3.org/2000/svg" xmlns:xlink="http://www.w3.org/1999/xlink" x="0px" y="0px"
	 width="560px" height="560px" viewBox="200 0 560 560" enable-background="new 200 0 560 560" xml:space="preserve">
<g>
	<rect x="687.742" y="144.516" fill="#F0BC5E" width="63.226" height="144.516"/>
	<circle fill="#F0BC5E" cx="583.871" cy="239.355" r="40.645"/>
</g>
<g>
	<path d="M461.937,135.484C317.5,135.484,200,252.994,200,397.419v27.097h424.517c74.705,0,135.483-60.776,135.483-135.482V135.484
		H461.937z M741.936,171.613h-45.16v-18.064h45.16V171.613z M696.774,280v-18.064h45.16V280H696.774z M696.774,243.871v-18.064
		h45.16v18.064H696.774z M696.774,207.742v-18.065h45.16v18.065H696.774z M678.71,153.548v43.635
		c-7.903-17.694-20.558-32.814-36.4-43.635H678.71z M669.678,239.355c0,47.311-38.496,85.806-85.807,85.806
		c-47.313,0-85.808-38.495-85.808-85.806s38.495-85.807,85.808-85.807C631.182,153.548,669.678,192.044,669.678,239.355z
		 M624.517,406.451H241.034c33.456-17.712,70.542-27.098,108.929-27.098h111.974V361.29h-24.343C463.191,343.298,480,313.6,480,280
		c0-54.781-44.574-99.355-99.355-99.355c-54.781,0-99.354,44.574-99.354,99.355c0,34.404,17.585,64.762,44.231,82.6
		c-38.188,3.687-74.724,15.915-107.457,36.14v-1.319c0-134.472,109.399-243.871,243.871-243.871h63.497
		C498.037,172.272,480,203.741,480,239.355c0,57.274,46.598,103.871,103.871,103.871c42.188,0,78.509-25.316,94.748-61.526
		c-0.912,44.041-36.951,79.592-81.2,79.592H480v18.064h117.419c48.612,0,89.104-35.117,97.63-81.29h46.426
		C736.832,358.59,686.216,406.451,624.517,406.451z M299.355,280c0-44.827,36.472-81.291,81.29-81.291s81.292,36.463,81.292,81.291
		s-36.474,81.29-81.292,81.29S299.355,324.827,299.355,280z"/>
	<path d="M429.871,302.535l18.236,4.887l4.679-17.449l-18.2-4.879c0.153-1.67,0.253-3.369,0.253-5.094
		c0-1.725-0.1-3.423-0.262-5.103l18.199-4.877l-4.68-17.451l-18.234,4.887c-5.411-11.778-14.913-21.271-26.69-26.681l4.886-18.236
		l-17.45-4.679l-4.877,18.2c-1.671-0.154-3.36-0.253-5.085-0.253s-3.414,0.099-5.103,0.262l-4.877-18.2l-17.45,4.679l4.886,18.236
		c-11.778,5.41-21.271,14.912-26.69,26.681l-18.236-4.886l-4.679,17.45l18.2,4.877c-0.145,1.671-0.244,3.369-0.244,5.094
		c0,1.725,0.099,3.424,0.262,5.104l-18.2,4.877l4.679,17.45l18.236-4.886c5.411,11.777,14.913,21.271,26.69,26.681l-4.886,18.236
		l17.45,4.679l4.877-18.199c1.671,0.152,3.36,0.253,5.085,0.253s3.415-0.101,5.104-0.263l4.877,18.2l17.45-4.679l-4.887-18.236
		C414.958,323.807,424.451,314.313,429.871,302.535z M380.645,316.129c-19.925,0-36.129-16.204-36.129-36.129
		s16.204-36.129,36.129-36.129s36.129,16.204,36.129,36.129S400.57,316.129,380.645,316.129z"/>
</g>
<circle fill="#F0BC5E" cx="380.645" cy="280" r="18.064"/>
</svg>
