<?xml version="1.0" encoding="utf-8"?>
<!-- Generator: Adobe Illustrator 16.0.0, SVG Export Plug-In . SVG Version: 6.00 Build 0)  -->
<!DOCTYPE svg PUBLIC "-//W3C//DTD SVG 1.1//EN" "http://www.w3.org/Graphics/SVG/1.1/DTD/svg11.dtd">
<svg version="1.1" id="Capa_1" xmlns="http://www.w3.org/2000/svg" xmlns:xlink="http://www.w3.org/1999/xlink" x="0px" y="0px"
	 width="560px" height="560px" viewBox="202.5 0 560 560" enable-background="new 202.5 0 560 560" xml:space="preserve">
<rect x="299.355" y="135.484" fill="#F0BC5E" width="361.291" height="361.292"/>
<path d="M687.742,144.516V72.258h-90.323V0H362.581v72.258h-90.323v72.258h18.065v343.226h-18.065V560h415.484v-72.258h-18.064
	V144.516H687.742z M380.645,54.193h162.581V36.129H380.645V18.064h198.709v18.064H561.29v18.064h18.064v18.064H380.645V54.193z
	 M290.323,90.323h379.354v36.129H290.323V90.323z M561.29,487.742V144.516h18.064v343.226H561.29z M362.581,424.516v63.228h-18.064
	V144.516h18.064v261.935h18.064V144.516h18.064v343.226h-18.064v-63.228L362.581,424.516L362.581,424.516z M416.774,144.516h18.064
	v343.226h-18.064V144.516z M452.903,144.516h18.063v343.226h-18.063V144.516z M489.032,144.516h18.063v343.226h-18.063V144.516z
	 M525.161,144.516h18.063v343.226h-18.063V144.516z M308.387,144.516h18.064v343.226h-18.064V144.516z M669.678,541.936H290.323
	v-36.129h379.354V541.936z M651.613,487.742h-18.064V180.645h-18.064v307.097H597.42V144.516h18.064v18.064h18.064v-18.064h18.064
	V487.742z"/>
</svg>
