<svg height="496pt" viewBox="0 -64 496 496" width="496pt" xmlns="http://www.w3.org/2000/svg"><g fill="#f0bc5e"><path d="m72 200v128h-32v-128zm0 0"/><path d="m136 200v128h-32v-128zm0 0"/><path d="m168 200h32v128h-32zm0 0"/><path d="m232 200h32v128h-32zm0 0"/><path d="m296 200h32v128h-32zm0 0"/><path d="m392 200v128h-32v-128zm0 0"/><path d="m456 200v128h-32v-128zm0 0"/><path d="m456 98.71875v69.28125h-32v-98.640625zm0 0"/><path d="m392 41.359375v126.640625h-32v-128h25.761719c2.160156 0 4.316406.480469 6.238281 1.359375zm0 0"/><path d="m296 40h32v128h-32zm0 0"/><path d="m232 40h32v128h-32zm0 0"/><path d="m168 40h32v128h-32zm0 0"/><path d="m136 40v128h-32v-128zm0 0"/><path d="m72 40v128h-32v-128zm0 0"/></g><path d="m488.207031 117.382812-86.167969-78.976562c-2.117187-1.992188-4.535156-3.511719-6.703124-4.328125-2.992188-1.359375-6.296876-2.078125-9.574219-2.078125h-259.515625l-8-32h-60.492188l-8 32h-25.753906c-13.230469 0-24 10.769531-24 24v256c0 13.230469 10.769531 24 24 24h25.753906l8 32h60.492188l8-32h243.507812l8 32h60.492188l8-32h25.753906c13.230469 0 24-10.769531 24-24v-176.960938c0-6.75-2.855469-13.207031-7.792969-17.65625zm-417.960937-101.382812h35.507812l4 16h-43.507812zm-46.246094 32h361.761719c.980469 0 2.015625.222656 3.382812.832031.695313.265625 1.335938.664063 2.007813 1.304688l86.289062 79.078125c1.597656 1.449218 2.558594 3.617187 2.558594 5.816406v24.96875h-464v-104c0-4.40625 3.59375-8 8-8zm456 128v16h-464v-16zm-374.246094 176h-35.507812l-4-16h43.507812zm320 0h-35.507812l-4-16h43.507812zm46.246094-32h-448c-4.40625 0-8-3.59375-8-8v-104h464v104c0 4.40625-3.59375 8-8 8zm0 0"/></svg>