<svg height="496pt" viewBox="-96 0 496 496" width="496pt" xmlns="http://www.w3.org/2000/svg"><path d="m32 72h240v176h-240zm0 0" fill="#f0bc5e"/><path d="m288 336v-96h-48v-144h-16v144h-48v-144h-16v144h-48v-144h-16v144h-80v96h-16v75.3125l52.6875 52.6875h11.3125v32h176v-32h11.3125l52.6875-52.6875v-75.3125zm-256-48h222.398438v-16h-222.398438v-16h240v48h-222.398438v16h222.398438v16h-240zm256 64v16h-256v16h256v16h-272v-48zm-64 128h-144v-16h144zm20.6875-32h-185.375l-32-32h249.375zm0 0"/><path d="m32 80h32v144h16v-144h48v144h16v-144h48v144h16v-144h64c8.824219 0 16-7.175781 16-16v-16c0-8.824219-7.175781-16-16-16h-56v-8c0-13.230469-10.769531-24-24-24h-80c-13.230469 0-24 10.769531-24 24v8h-56c-8.824219 0-16 7.175781-16 16v16c0 8.824219 7.175781 16 16 16zm72-56c0-4.414062 3.59375-8 8-8h80c4.40625 0 8 3.585938 8 8v8h-96zm-72 24h240v16h-240l-.007812-16zm0 0"/></svg>