<?xml version="1.0" encoding="utf-8"?>
<!-- Generator: Adobe Illustrator 16.0.0, SVG Export Plug-In . SVG Version: 6.00 Build 0)  -->
<!DOCTYPE svg PUBLIC "-//W3C//DTD SVG 1.1//EN" "http://www.w3.org/Graphics/SVG/1.1/DTD/svg11.dtd">
<svg version="1.1" id="Layer_5" xmlns="http://www.w3.org/2000/svg" xmlns:xlink="http://www.w3.org/1999/xlink" x="0px" y="0px"
	 width="512px" height="512px" viewBox="0 0 512 512" enable-background="new 0 0 512 512" xml:space="preserve">
<path d="M256,280c13.232,0,24-10.768,24-24c0-13.232-10.768-24-24-24c-13.232,0-24,10.768-24,24C232,269.232,242.768,280,256,280z
	 M256,248c4.408,0,8,3.592,8,8s-3.592,8-8,8s-8-3.592-8-8S251.592,248,256,248z"/>
<path fill="#F0BC5E" stroke="#000000" stroke-miterlimit="10" d="M276.426,151.885c-10.129-7.34-25.652-8.324-37.451-6.584
	c-1.882,5.429-3.959,10.791-6.024,16.159c-0.379,1.391-0.789,2.773-1.225,4.148c0,0.01,0,0.019,0,0.029
	c1.984-0.441,4.11,0.151,5.09,2.339c2.831,6.321,7.587,10.961,13.046,14.819c0.718,0.442,1.435,0.886,2.151,1.332
	c1.292-0.091,2.585-0.211,3.876-0.368c6.882-3.791,12.778-8.808,18.531-14.056c-0.377-4.581,1.191-7.96,2.968-11.928
	C277.431,155.762,277.155,153.772,276.426,151.885z"/>
<path fill="#F0BC5E" stroke="#000000" stroke-miterlimit="10" d="M185.284,195.112c-3.513-4.685-13.001-3.751-18.113-4.791
	c-1.305-0.265-2.439-1.256-3.091-2.473c-0.613,2.992-1.402,5.966-2.312,8.918c-1.418,7.632-4.316,15.189-7.472,21.963
	c1.341,0.186,2.632,0.89,3.521,2.247c3.993,6.103,10.171,8.769,16.717,8.972c0.312-0.103,0.624-0.205,0.928-0.31
	c5.146-1.763,10.116-4.153,15.217-6.112C191.011,213.694,191.203,203.005,185.284,195.112z"/>
<path fill="#F0BC5E" stroke="#000000" stroke-miterlimit="10" d="M176.887,326.844c4.029-5.438,9.458-10.263,14.078-13.879
	c1.499-1.173,3.191-1.446,4.673-1.107c0.161-2.478,0.014-5.066-0.221-7.631c-0.777-3.455-1.101-7.066-0.917-10.727
	c0.006-0.127,0.039-0.235,0.052-0.357c-1.239-2.111-2.892-4.098-4.931-5.988c-0.148-0.101-0.285-0.213-0.437-0.31
	c-6.59-4.211-14.57-5.11-22.116-3.237c-2.884,0.716-6.152,1.984-9.319,3.691c-3.249,5.941-5.436,12.357-8.013,18.592
	c2.633,5.354,5.25,10.714,7.885,16.064C163.545,323.732,170.435,326.261,176.887,326.844z"/>
<path fill="#F0BC5E" stroke="#000000" stroke-miterlimit="10" d="M274.662,342.255c-1.892-0.813-3.108-2.977-3.085-5.072
	c-1.804-0.379-3.62-0.669-5.452-0.808c-7.881-0.594-15.569,0.438-23.296,1.946c-2.049,0.4-3.705-0.296-4.794-1.475
	c-1.89,2.539-3.361,5.349-4.204,8.318c-1.972,6.949-1.448,15.693,4.635,20.563c9.585,7.673,26.085,2.067,36.481-0.983
	c0.074-0.457,0.158-0.913,0.249-1.369C273.935,356.323,273.794,349.258,274.662,342.255z"/>
<path fill="#F0BC5E" stroke="#000000" stroke-miterlimit="10" d="M361.655,298.803c-1.26-0.479-2.37-1.429-2.977-2.974
	c-0.949-2.419-2.033-4.769-3.116-7.108c-0.029-0.019-0.057-0.04-0.086-0.059c-0.685-0.431-1.378-0.854-2.08-1.267
	c-2.888-1.527-5.824-2.934-8.828-4.146c-4.806,3.772-9.445,7.804-14.201,11.348c-3.689,2.749-7.862,5.977-12.32,8.637
	c-0.094,0.338-0.175,0.68-0.271,1.017c-0.355,1.564-0.68,3.133-0.976,4.706c0.006,0.007,0.013,0.013,0.018,0.021
	c3.109,4.354,6.979,8.299,12.171,10.035c4.974,1.664,10.17,2.496,15.296,3.556c0.089-0.024,0.179-0.051,0.269-0.075
	c5.553-3.586,11.229-6.908,17.15-9.709C361.856,308.14,361.867,303.463,361.655,298.803z"/>
<path fill="#F0BC5E" stroke="#000000" stroke-miterlimit="10" d="M260.259,17.158c-58.564,0-112.018,22.439-152.701,59.39
	c3.029,9.188,3.188,18.61,2.153,28.113c0.045,7.219-0.087,14.43-0.836,21.619c1.649,17.272,2.348,34.981-0.382,52.158
	c0,0.022,0.006,0.041,0.007,0.063c0.15,6.157,0.057,12.301-0.19,18.436c-0.142,7.439-0.369,14.877-0.688,22.311
	c0.756,33.538,5.074,66.891,5.764,100.436c0.741,36.06-3.665,71.884-5.886,107.817c-0.086,1.397-0.579,2.488-1.295,3.285
	c40.848,37.684,94.84,60.617,154.054,60.617c127.427,0,230.718-106.162,230.718-237.122
	C490.977,123.32,387.686,17.158,260.259,17.158z M390.202,316.813c-3.376,9.061-7.62,17.883-13.366,25.696
	c-3.03,4.12-6.535,7.689-9.8,11.591c-3.363,4.021-5.81,7.06-11.207,8.221c-1.2,0.259-2.322,0.106-3.282-0.316
	c-10.909,9.628-24.886,15.971-39.716,20.035c-8.513,4.456-17.619,7.891-27.002,9.281c-0.521,0.077-1.006,0.065-1.475,0.019
	c-1.131,0.695-2.249,1.407-3.347,2.149c-6.96,4.706-14.145,9.177-22.837,6.832c-2.636-0.71-4.12-3.457-3.506-6.059
	c-7.67,0.077-15.194-1.804-22.912-2.511c-0.634,0.39-1.382,0.659-2.252,0.748c-1.45,0.148-2.471,0.285-3.922-0.03
	c-1.218-0.266-2.143-1.034-2.766-2.016c-1.161-0.142-2.322-0.295-3.48-0.474c-9.986-1.545-20.557-4.443-27.817-11.541
	c-8.568-0.559-16.043-5.179-19.3-13.176c-7.281-4.364-13.832-10.577-18.254-17.875c-5.027-3.057-9.929-6.404-13.493-10.884
	c-2.722-3.42-4.457-7.016-5.332-10.782c-3.577-3.303-7.658-6.405-10.207-10.355c-2.483,2.057-7.393,0.983-8.25-2.538
	c-2.901-11.907-1.851-24,0.597-35.934c-1.143-0.618-2.076-1.692-2.597-3.066c-4.631-12.228-1.253-24.978,3.955-37.036
	c-1.808-6.389-1.871-13.161,0.416-19.684c2.474-7.058,6.531-13.324,11.257-19.061c1.154-2.909,2.471-5.816,3.975-8.806
	c5.676-11.286,12.685-22.336,22.684-30.278c0.156-0.124,0.324-0.225,0.491-0.329c8.576-8.771,18.389-16.154,29.037-22.123
	c0.479-0.384,0.976-0.654,1.482-0.823c12.969-7.06,27.128-12.046,41.765-14.927c13.708-13.647,33.313-5.452,50.671-1.597
	c24.936,3.309,48.911,12.733,68.495,28.48c2.063,1.659,4.054,3.397,5.979,5.202c8.084,5.216,14.913,11.98,18.438,21.322
	c0.181,0.478,0.257,0.957,0.258,1.427c3.471,5.451,6.56,11.181,9.273,17.108c0.131,0.105,0.252,0.221,0.37,0.344
	c2.682-2.226,7.477-2.156,8.099,2.122c1.143,7.859,1.489,15.679,1.265,23.467c0.257,0.839,0.506,1.682,0.735,2.533
	c2.472,9.144,3.897,18.387,4.28,27.626c0.23,2.376,0.419,4.744,0.558,7.098C399.363,276.316,397.382,297.539,390.202,316.813z"/>
<path fill="#F0BC5E" stroke="#000000" stroke-miterlimit="10" d="M304.403,268.064c0.924-3.925,1.666-7.922,2.235-11.962
	c-0.114-0.725-0.225-1.452-0.355-2.169c-0.65-3.546-1.503-7.132-2.566-10.685c-2.108,0.252-4.344-0.481-5.218-2.408
	c-3.147-6.949-5.258-14.084-6.673-21.337c-1.665-2.107-3.491-4.097-5.482-5.947c-3.523,1.713-7.421-0.383-7.912-4.328
	c-0.041-0.328-0.102-0.655-0.169-0.981c-1.729,0.874-3.71,1.142-5.489,0.099c-1.486-0.871-2.226-2.248-2.379-3.739
	c-18.353,1.521-34.99,7.639-51.369,15.803c-0.045,7.249-2.819,14.146-5.811,21.07c-1.086,6.665-3.041,13.163-6.222,19.159
	c1.04,4.3,1.979,8.618,2.539,12.996c0.434,3.396,0.669,7.163-0.114,10.64c0.211,0.196,0.417,0.404,0.609,0.641
	c12.731,15.598,32.415,20.127,52.643,21.333c4.316-0.648,8.693-1.444,12.533-3.348c5.729-2.839,11.117-6.757,17.104-9.214
	c1.639-5.027,5.652-8.657,10.847-10.301c0.789-3.717,1.567-7.435,2.32-11.154C304.532,271.102,304.032,269.646,304.403,268.064z"/>
<path fill="#F0BC5E" stroke="#000000" stroke-miterlimit="10" d="M349.92,225.315c2.157-1.992,3.979-4.26,5.539-6.784
	c-0.346-1.98-0.715-3.942-1.07-5.873c-1.496-8.12-3.133-16.285-3.191-24.511c-6.544-1.103-13.033-2.505-19.692-2.738
	c-2.462,1.784-4.896,3.61-7.368,5.366c-2.143,2.152-3.979,4.62-5.394,7.281c-0.101,1.59-0.188,3.182-0.306,4.77
	c1.589,3.477,3.398,6.905,5.473,10.285c3.553,5.79,7.295,11.703,12.016,16.661C340.301,227.865,345.271,226.53,349.92,225.315z"/>
<ellipse fill="#F0BC5E" stroke="#000000" stroke-miterlimit="10" cx="47.99" cy="288" rx="24.01" ry="24.676"/>
<ellipse fill="#F0BC5E" stroke="#000000" stroke-miterlimit="10" cx="47.99" cy="224" rx="24.01" ry="24.676"/>
<path d="M256,184c13.232,0,24-10.768,24-24s-10.768-24-24-24c-13.232,0-24,10.768-24,24S242.768,184,256,184z M256,152
	c4.408,0,8,3.592,8,8s-3.592,8-8,8s-8-3.592-8-8S251.592,152,256,152z"/>
<path d="M160.864,228.784c3.768,2.176,7.888,3.216,11.96,3.216c8.304,0,16.384-4.304,20.824-12
	c6.616-11.464,2.672-26.168-8.784-32.784c-11.464-6.616-26.168-2.68-32.792,8.784c-3.2,5.552-4.056,12.016-2.392,18.208
	C151.336,220.408,155.312,225.576,160.864,228.784L160.864,228.784z M165.936,204c1.48-2.56,4.168-4,6.944-4
	c1.352,0,2.728,0.344,3.992,1.072c3.824,2.2,5.136,7.104,2.928,10.928s-7.128,5.128-10.928,2.928
	c-1.848-1.063-3.176-2.792-3.728-4.856C164.592,208.008,164.864,205.848,165.936,204L165.936,204z"/>
<path d="M184.864,324.792c11.456-6.624,15.392-21.328,8.784-32.792c-6.616-11.456-21.328-15.4-32.784-8.792
	c-11.464,6.616-15.4,21.328-8.792,32.792c4.44,7.688,12.52,11.992,20.832,11.992C176.976,327.992,181.096,326.96,184.864,324.792z
	 M165.936,308c-2.208-3.824-0.888-8.728,2.928-10.928c3.832-2.2,8.728-0.881,10.928,2.928c2.208,3.824,0.888,8.728-2.92,10.928
	C173.048,313.144,168.136,311.824,165.936,308L165.936,308z"/>
<path d="M256,328c-13.232,0-24,10.768-24,24s10.768,24,24,24c13.232,0,24-10.768,24-24S269.232,328,256,328z M256,360
	c-4.408,0-8-3.584-8-8s3.592-8,8-8s8,3.584,8,8S260.408,360,256,360z"/>
<path d="M351.136,283.208c-11.464-6.592-26.168-2.656-32.784,8.792c-6.615,11.464-2.672,26.168,8.784,32.792h0.009
	c3.768,2.168,7.888,3.2,11.959,3.2c8.305,0,16.393-4.304,20.832-11.992C366.536,304.536,362.6,289.832,351.136,283.208z
	 M346.064,308c-2.201,3.816-7.097,5.144-10.929,2.928c-3.823-2.2-5.136-7.111-2.928-10.928c2.2-3.824,7.097-5.145,10.928-2.928
	C346.96,299.272,348.271,304.176,346.064,308z"/>
<path d="M339.176,232c4.072,0,8.192-1.032,11.96-3.208c5.552-3.208,9.521-8.376,11.185-14.576
	c1.664-6.192,0.808-12.664-2.393-18.208c-6.623-11.464-21.328-15.408-32.792-8.784c-11.464,6.616-15.399,21.328-8.784,32.784
	C322.792,227.688,330.872,232,339.176,232z M335.136,201.072c1.257-0.729,2.632-1.072,3.992-1.072c2.769,0,5.464,1.432,6.944,4
	c1.072,1.848,1.352,4.008,0.8,6.072c-0.552,2.064-1.88,3.792-3.728,4.856c-3.816,2.2-8.721,0.896-10.929-2.928
	C330,208.176,331.32,203.28,335.136,201.072z"/>
<path d="M256,312c30.88,0,56-25.128,56-56c0-30.88-25.12-56-56-56s-56,25.12-56,56C200,286.872,225.12,312,256,312z M256,216
	c22.057,0,40,17.944,40,40c0,22.057-17.943,40-40,40c-22.056,0-40-17.943-40-40C216,233.944,233.944,216,256,216z"/>
<path d="M72,88h16v16H72V88z"/>
<path d="M72,120h16v16H72V120z"/>
<path d="M72,152h16v16H72V152z"/>
<path d="M72,408h16v16H72V408z"/>
<path d="M72,376h16v16H72V376z"/>
<path d="M72,344h16v16H72V344z"/>
<circle cx="48" cy="288" r="8"/>
<circle cx="48" cy="224" r="8"/>
<path d="M256,8c-48.92,0-95.584,14.128-136,40.76V40H75.72l-8.048,12.072c-27.784,41.672-42.712,90-43.52,140.008
	C14.408,199.376,8,210.912,8,224c0,13.128,6.448,24.704,16.248,32C14.448,263.296,8,274.872,8,288
	c0,13.088,6.408,24.624,16.152,31.92c0.808,50.008,15.736,98.336,43.52,140.008L75.72,472H120v-8.76
	C160.424,489.872,207.08,504,256,504c136.744,0,248-111.248,248-248C504,119.256,392.744,8,256,8z M24,224c0-13.232,10.768-24,24-24
	s24,10.768,24,24s-10.768,24-24,24S24,237.232,24,224z M48,264c13.232,0,24,10.768,24,24s-10.768,24-24,24s-24-10.768-24-24
	S34.768,264,48,264z M104,456H84.28l-3.296-4.944c-24.664-37-38.488-79.6-40.56-123.823C42.88,327.712,45.408,328,48,328
	c22.056,0,40-17.944,40-40c0-13.128-6.448-24.704-16.248-32C81.552,248.704,88,237.128,88,224c0-22.056-17.944-40-40-40
	c-2.592,0-5.12,0.288-7.576,0.768c2.08-44.224,15.896-86.824,40.56-123.824L84.28,56H104V456z M256,488
	c-49.352,0-96.248-15.344-136-44.192V323.472C144.912,373.48,196.44,408,256,408c83.816,0,152-68.184,152-152
	c0-83.816-68.184-152-152-152c-59.56,0-111.088,34.52-136,84.528V68.184C159.744,39.336,206.648,24,256,24
	c127.928,0,232,104.072,232,232C488,383.92,383.928,488,256,488z M120,256c0-74.992,61.008-136,136-136s136,61.008,136,136
	s-61.008,136-136,136S120,330.992,120,256z"/>
<path d="M240.897,444.259l11.312-11.313l11.312,11.313l-11.312,11.312L240.897,444.259z"/>
<path d="M218.277,421.64l11.313-11.312l11.312,11.312l-11.312,11.313L218.277,421.64z"/>
<path d="M263.494,466.984l11.312-11.313l11.312,11.313l-11.312,11.312L263.494,466.984z"/>
<path d="M368.146,434.945l4.144-15.456l15.457,4.144l-4.145,15.456L368.146,434.945z"/>
<path d="M337.119,426.39l4.145-15.456l15.455,4.145l-4.144,15.456L337.119,426.39z"/>
<path d="M306.307,418.344l4.145-15.455l15.455,4.144l-4.144,15.456L306.307,418.344z"/>
<path d="M376.579,355.943l15.456-4.144l4.144,15.456l-15.456,4.144L376.579,355.943z"/>
<path d="M438.412,339.366l15.456-4.144l4.144,15.456l-15.456,4.144L438.412,339.366z"/>
<path d="M407.496,347.651l15.455-4.145l4.145,15.456l-15.456,4.145L407.496,347.651z"/>
<path d="M432.901,259.734l11.313-11.312l11.312,11.312l-11.312,11.313L432.901,259.734z"/>
<path d="M410.271,282.362l11.313-11.312l11.313,11.312l-11.313,11.312L410.271,282.362z"/>
<path d="M455.528,237.114l11.312-11.312l11.313,11.312l-11.313,11.312L455.528,237.114z"/>
<path d="M411.029,170.601l4.145-15.456l15.456,4.144l-4.145,15.456L411.029,170.601z"/>
<path d="M419.489,139.814l4.144-15.456l15.456,4.144l-4.144,15.456L419.489,139.814z"/>
<path d="M402.92,201.646l4.145-15.456l15.456,4.144l-4.145,15.456L402.92,201.646z"/>
<path d="M343.604,89.088l15.455-4.144l4.145,15.456l-15.456,4.144L343.604,89.088z"/>
<path d="M335.318,58.172l15.456-4.144l4.144,15.456l-15.455,4.144L335.318,58.172z"/>
<path d="M351.888,119.997l15.456-4.144l4.145,15.456l-15.457,4.144L351.888,119.997z"/>
<path d="M270.994,90.368l11.313-11.312l11.313,11.312l-11.313,11.312L270.994,90.368z"/>
<path d="M225.747,45.112L237.059,33.8l11.312,11.312l-11.312,11.312L225.747,45.112z"/>
<path d="M248.361,67.736l11.312-11.312l11.312,11.312l-11.312,11.312L248.361,67.736z"/>
<path d="M124.398,88.455l4.144-15.456l15.456,4.144l-4.144,15.456L124.398,88.455z"/>
<path d="M155.281,96.716l4.144-15.456l15.456,4.144l-4.144,15.456L155.281,96.716z"/>
<path d="M186.229,105.032l4.144-15.456l15.456,4.144l-4.144,15.456L186.229,105.032z"/>
<path d="M148.925,411.543l15.456-4.144l4.146,15.464l-15.456,4.144L148.925,411.543z"/>
<path d="M140.64,380.635l15.456-4.144l4.144,15.456l-15.456,4.144L140.64,380.635z"/>
<path d="M157.218,442.46l15.456-4.145l4.144,15.456l-15.456,4.145L157.218,442.46z"/>
</svg>
