<?xml version="1.0" encoding="utf-8"?>
<!-- Generator: Adobe Illustrator 16.0.0, SVG Export Plug-In . SVG Version: 6.00 Build 0)  -->
<!DOCTYPE svg PUBLIC "-//W3C//DTD SVG 1.1//EN" "http://www.w3.org/Graphics/SVG/1.1/DTD/svg11.dtd">
<svg version="1.1" id="Capa_1" xmlns="http://www.w3.org/2000/svg" xmlns:xlink="http://www.w3.org/1999/xlink" x="0px" y="0px"
	 width="202px" height="200.24px" viewBox="221.5 359.76 202 200.24" enable-background="new 221.5 359.76 202 200.24"
	 xml:space="preserve">
<g>
	<rect x="349.519" y="397.443" fill="#F0BC5E" width="10.596" height="21.192"/>
	<rect x="395.433" y="397.443" fill="#F0BC5E" width="10.595" height="21.192"/>
	<rect x="367.178" y="379.784" fill="#F0BC5E" width="21.191" height="10.596"/>
	<rect x="367.178" y="425.7" fill="#F0BC5E" width="21.191" height="10.595"/>
</g>
<g>
	<path d="M364.327,363.891c-30.187,0-54.745,24.56-54.745,54.745c0,30.185,24.558,54.744,54.745,54.744
		c30.188,0,54.745-24.56,54.745-54.745C419.071,388.451,394.514,363.891,364.327,363.891z M407.487,446.15
		c-3.327,0.423-11.228,1.09-17.274-1.008c2.135-2.085,3.997-4.436,5.583-6.979c0.542,0.044,1.088,0.071,1.638,0.071
		c5.619,0,11.573-2.149,15.67-4.005C411.745,438.47,409.843,442.466,407.487,446.15z M364.327,452.188
		c-18.502,0-33.553-15.05-33.553-33.552c0-18.503,15.051-33.553,33.553-33.553s33.553,15.05,33.553,33.553
		C397.879,437.138,382.829,452.188,364.327,452.188z M339.639,446.231c-1.536,5.895-0.366,12.931,0.858,17.714
		c-3.913-2.066-7.53-4.618-10.764-7.584c0.159-3.347,0.872-11.231,3.986-16.822C335.413,442.007,337.416,444.24,339.639,446.231z
		 M342.722,448.716c2.419,1.743,5.045,3.206,7.852,4.331c0.595,6.075,4.21,12.402,6.875,16.326
		c-4.444-0.599-8.708-1.764-12.717-3.43C343.739,462.752,341.698,455.051,342.722,448.716z M327.662,423.92
		c-4.969,3.55-8.648,9.852-10.716,14.127c-1.651-4.015-2.799-8.284-3.382-12.731c2.262-2.451,7.881-8.045,13.862-10.335
		c-0.118,1.204-0.185,2.421-0.185,3.655C327.242,420.434,327.415,422.188,327.662,423.92z M328.022,411.072
		c-5.868,1.647-11.459,6.297-14.856,9.597c-0.027-0.673-0.052-1.353-0.052-2.033c0-3.806,0.431-7.512,1.222-11.081
		c2.97-1.531,10.2-4.876,16.612-4.973C329.655,405.256,328.642,408.089,328.022,411.072z M337.004,375.352
		c3.683-2.334,7.678-4.217,11.915-5.557c2.806,1.8,9.322,6.384,12.615,11.896c-3.05,0.229-5.995,0.814-8.796,1.738
		C348.387,379.17,341.567,376.649,337.004,375.352z M389.015,391.039c1.536-5.895,0.364-12.93-0.859-17.714
		c3.913,2.066,7.53,4.618,10.764,7.585c-0.158,3.346-0.872,11.231-3.986,16.822C393.241,395.264,391.239,393.031,389.015,391.039z
		 M385.931,388.555c-2.419-1.744-5.045-3.206-7.851-4.33c-0.595-6.075-4.21-12.403-6.875-16.326
		c4.443,0.598,8.708,1.763,12.717,3.429C384.914,374.519,386.956,382.22,385.931,388.555z M400.991,413.352
		c4.97-3.55,8.647-9.853,10.716-14.127c1.651,4.014,2.799,8.283,3.382,12.73c-2.262,2.451-7.881,8.046-13.862,10.336
		c0.119-1.203,0.186-2.421,0.186-3.655C401.412,416.837,401.238,415.082,400.991,413.352z M400.631,426.199
		c5.868-1.648,11.459-6.298,14.857-9.598c0.026,0.674,0.051,1.353,0.051,2.034c0,3.805-0.431,7.511-1.222,11.081
		c-2.97,1.531-10.204,4.878-16.613,4.974C398.998,432.015,400.011,429.183,400.631,426.199z M409.74,395.006
		c-1.294,3.089-4.672,10.278-9.52,14.47c-0.752-2.942-1.819-5.757-3.229-8.373c3.438-5.029,4.735-12.179,5.217-16.896
		C405.161,387.452,407.691,391.084,409.74,395.006z M366.559,367.479c2.022,2.655,6.571,9.182,7.78,15.482
		c-2.83-0.796-5.792-1.257-8.851-1.354c-2.635-5.513-8.207-10.229-12.056-13.007c3.512-0.765,7.156-1.179,10.894-1.179
		C365.075,367.422,365.818,367.448,366.559,367.479z M333.184,378.02c3.274,0.741,10.923,2.817,15.883,6.854
		c-2.74,1.246-5.303,2.808-7.642,4.651c-1.476-0.674-3.143-1.217-4.992-1.604l-0.724,3.456c0.977,0.205,1.892,0.455,2.738,0.747
		c-2.138,2.087-4.006,4.442-5.593,6.99c-6.083-0.487-12.81,1.891-17.306,3.929c1.36-4.241,3.261-8.239,5.618-11.922
		c2.238-0.284,6.666-0.695,11.197-0.248l0.348-3.515c-3.23-0.318-6.387-0.229-8.858-0.047
		C326.557,383.829,329.691,380.704,333.184,378.02z M318.914,442.265c1.294-3.09,4.672-10.278,9.521-14.468
		c0.752,2.94,1.819,5.755,3.228,8.371c-3.438,5.029-4.734,12.18-5.216,16.896C323.493,449.818,320.962,446.187,318.914,442.265z
		 M362.095,469.792c-2.022-2.658-6.571-9.183-7.781-15.483c2.827,0.795,5.789,1.256,8.844,1.354c0.651,1.363,1.502,2.748,2.56,4.13
		l2.804-2.146c-0.53-0.694-0.995-1.386-1.403-2.066c3.049-0.229,5.997-0.814,8.798-1.738c4.351,4.261,11.172,6.781,15.734,8.078
		c-3.683,2.333-7.676,4.217-11.914,5.556c-1.959-1.257-5.797-3.91-9.064-7.329l-2.551,2.44c2.362,2.474,4.992,4.566,7.102,6.086
		c-3.516,0.762-7.159,1.176-10.897,1.176C363.578,469.849,362.836,469.823,362.095,469.792z M395.47,459.251
		c-3.275-0.74-10.923-2.817-15.884-6.854c2.745-1.246,5.31-2.813,7.65-4.657c4.063,1.858,8.981,2.399,13.263,2.399
		c1.541,0,2.988-0.07,4.29-0.17C402.092,453.449,398.959,456.57,395.47,459.251z"/>
	<path d="M385.704,430.997h8.645v-24.724h-8.645c-2.173-3.759-5.259-6.843-9.015-9.017v-8.643h-24.723v8.643
		c-3.758,2.175-6.843,5.258-9.016,9.017h-8.644v24.724h8.644c2.172,3.759,5.259,6.843,9.016,9.017v8.643h24.723v-8.643
		C380.446,437.84,383.531,434.756,385.704,430.997z M383.752,416.869h7.063v3.532h-7.063V416.869z M383.752,427.466v-3.533h7.063
		v3.533H383.752z M390.816,413.338h-7.063v-3.533h7.063V413.338z M362.561,399.21v-7.064h3.533v7.064H362.561z M369.625,392.146
		h3.533v7.064h-3.533V392.146L369.625,392.146z M355.497,392.146h3.532v7.064h-3.532V392.146z M344.901,420.401h-7.064v-3.532h7.064
		V420.401z M344.901,409.805v3.533h-7.064v-3.533H344.901z M337.837,423.933h7.064v3.533h-7.064V423.933z M366.093,438.061v7.064
		h-3.533v-7.064H366.093z M359.029,445.125h-3.532v-7.064h3.532V445.125z M373.157,445.125h-3.533v-7.064h3.533V445.125z
		 M376.688,435.826v-1.298h-24.723v1.298c-1.865-1.338-3.492-2.964-4.831-4.829h1.298v-24.724h-1.298
		c1.339-1.865,2.965-3.491,4.831-4.831v1.3h24.723v-1.3c1.865,1.34,3.491,2.966,4.83,4.831h-1.299v24.724h1.299
		C380.18,432.862,378.554,434.488,376.688,435.826z"/>
	<path d="M364.327,409.805c-4.869,0-8.83,3.963-8.83,8.831c0,4.867,3.961,8.83,8.83,8.83c4.869,0,8.83-3.963,8.83-8.83
		C373.157,413.768,369.196,409.805,364.327,409.805z M364.327,423.933c-2.92,0-5.298-2.376-5.298-5.297
		c0-2.922,2.376-5.298,5.298-5.298c2.922,0,5.298,2.376,5.298,5.298C369.625,421.557,367.248,423.933,364.327,423.933z"/>
	<rect x="362.561" y="370.956" width="3.533" height="3.53"/>
	<rect x="346.866" y="373.726" transform="matrix(0.9397 -0.342 0.342 0.9397 -107.4032 141.8896)" width="3.532" height="3.529"/>
	
		<rect x="333.046" y="381.694" transform="matrix(0.7665 -0.6422 0.6422 0.7665 -168.0928 304.5456)" width="3.531" height="3.531"/>
	<rect x="322.792" y="393.91" transform="matrix(0.4999 -0.8661 0.8661 0.4999 -180.3779 478.9647)" width="3.534" height="3.532"/>
	<rect x="317.331" y="408.91" transform="matrix(0.1736 -0.9848 0.9848 0.1736 -140.7466 653.6156)" width="3.529" height="3.529"/>
	<rect x="317.338" y="424.845" transform="matrix(0.9849 -0.1731 0.1731 0.9849 -69.0435 61.692)" width="3.531" height="3.532"/>
	
		<rect x="322.788" y="439.828" transform="matrix(0.8661 -0.4999 0.4999 0.8661 -177.3016 221.4079)" width="3.532" height="3.533"/>
	
		<rect x="333.057" y="452.042" transform="matrix(0.6426 -0.7662 0.7662 0.6426 -228.0428 418.7317)" width="3.532" height="3.531"/>
	<rect x="346.862" y="460.012" transform="matrix(0.342 -0.9397 0.9397 0.342 -204.538 631.4487)" width="3.529" height="3.532"/>
	<rect x="362.561" y="462.784" width="3.533" height="3.531"/>
	<rect x="378.26" y="460.021" transform="matrix(0.9396 -0.3423 0.3423 0.9396 -135.1043 157.9656)" width="3.532" height="3.53"/>
	
		<rect x="392.068" y="452.033" transform="matrix(0.7662 -0.6426 0.6426 0.7662 -199.5337 359.1765)" width="3.532" height="3.531"/>
	<rect x="402.319" y="439.816" transform="matrix(0.5 -0.866 0.866 0.5 -180.3832 570.7162)" width="3.533" height="3.532"/>
	<rect x="407.781" y="424.838" transform="matrix(0.1735 -0.9848 0.9848 0.1735 -81.6402 755.9257)" width="3.532" height="3.529"/>
	<rect x="407.763" y="408.899" transform="matrix(0.9849 -0.1734 0.1734 0.9849 -64.9998 77.2251)" width="3.532" height="3.533"/>
	<rect x="402.33" y="393.918" transform="matrix(0.8662 -0.4997 0.4997 0.8662 -143.6513 254.856)" width="3.532" height="3.532"/>
	<rect x="392.067" y="381.69" transform="matrix(0.6429 -0.7659 0.7659 0.6429 -153.0697 438.5881)" width="3.532" height="3.531"/>
	<rect x="378.271" y="373.741" transform="matrix(0.3417 -0.9398 0.9398 0.3417 -102.7206 604.3696)" width="3.53" height="3.532"/>
</g>
<g>
	
		<rect x="297.092" y="530.203" transform="matrix(-0.8089 0.5879 -0.5879 -0.8089 853.3055 786.5823)" width="3.49" height="3.492"/>
	<path d="M269.288,500.901c0,3.85,3.131,6.98,6.98,6.98c3.85,0,6.981-3.131,6.981-6.98c0-3.849-3.131-6.98-6.981-6.98
		C272.419,493.921,269.288,497.053,269.288,500.901z M279.759,500.901c0,1.926-1.566,3.49-3.491,3.49c-1.924,0-3.49-1.564-3.49-3.49
		c0-1.925,1.565-3.489,3.49-3.489C278.193,497.412,279.759,498.977,279.759,500.901z"/>
	<path d="M262.308,500.901c0,7.697,6.263,13.961,13.96,13.961c7.698,0,13.961-6.264,13.961-13.961
		c0-7.698-6.263-13.961-13.961-13.961C268.571,486.94,262.308,493.203,262.308,500.901z M286.74,500.901
		c0,5.775-4.696,10.471-10.471,10.471c-5.774,0-10.471-4.695-10.471-10.471c0-5.774,4.697-10.47,10.471-10.47
		C282.044,490.432,286.74,495.127,286.74,500.901z"/>
	<path d="M276.268,450.293v-3.489c-20.657,0-39.8,12.031-48.767,30.655l3.145,1.515
		C239.035,461.552,256.943,450.293,276.268,450.293z"/>
	<path d="M230.645,522.83l-3.145,1.515C236.468,542.967,255.612,555,276.268,555v-3.49
		C256.943,551.51,239.035,540.253,230.645,522.83z"/>
	<rect x="274.523" y="479.96" width="3.49" height="3.489"/>
	<rect x="256.265" y="493.223" transform="matrix(-0.309 0.951 -0.951 -0.309 808.4846 402.5532)" width="3.49" height="3.49"/>
	<rect x="263.25" y="514.691" transform="matrix(-0.588 0.8089 -0.8089 -0.588 838.5393 605.7413)" width="3.49" height="3.49"/>
	<rect x="285.806" y="514.689" transform="matrix(-0.809 0.5878 -0.5878 -0.809 823.748 765.1954)" width="3.49" height="3.491"/>
	
		<rect x="292.774" y="493.228" transform="matrix(-0.9511 0.3089 -0.3089 -0.9511 727.5375 874.7565)" width="3.49" height="3.491"/>
	<rect x="274.523" y="460.765" width="3.49" height="3.49"/>
	<rect x="281.504" y="466" width="3.489" height="3.489"/>
	<rect x="238.011" y="487.284" transform="matrix(-0.3092 0.951 -0.951 -0.3092 778.9506 412.2105)" width="3.49" height="3.489"/>
	
		<rect x="245.148" y="482.272" transform="matrix(-0.3088 0.9511 -0.9511 -0.3088 783.4942 398.6496)" width="3.49" height="3.492"/>
	
		<rect x="251.957" y="530.219" transform="matrix(-0.5879 0.8089 -0.8089 -0.5879 833.1774 639.4688)" width="3.49" height="3.489"/>
	<rect x="249.383" y="521.888" transform="matrix(-0.5878 0.809 -0.809 -0.5878 822.3689 628.2288)" width="3.491" height="3.489"/>
	<rect x="288.366" y="530.073" transform="matrix(-0.809 0.5878 -0.5878 -0.809 837.4012 791.5635)" width="3.491" height="3.489"/>
	<path d="M306.426,529.967c-7.97,8.266-18.68,12.818-30.157,12.818c-3.68,0-7.25-0.481-10.654-1.378
		c0.462-5.479-0.437-10.932-2.537-15.906c3.932,2.117,8.421,3.321,13.191,3.321c4.288,0,8.336-0.999,11.969-2.733l1.119-0.295
		c3.641-1.151,7.417-1.598,11.22-1.332l0.247-3.481c-1.773-0.124-3.536-0.077-5.281,0.073c5.317-5.086,8.649-12.231,8.649-20.152
		c0-1.237-0.109-2.449-0.266-3.645l0.063-1.113c0.032-4.158,0.902-8.192,2.584-11.988l-3.189-1.415
		c-0.866,1.951-1.515,3.963-1.992,6.006c-3.822-7.854-11.221-13.662-20.071-15.289l-1.008-0.39
		c-6.554-2.186-12.113-6.56-15.827-12.354c3.742-1.095,7.694-1.695,11.784-1.695c10.897,0,21.217,4.164,29.062,11.725l2.423-2.513
		c-8.499-8.193-19.678-12.702-31.484-12.702c-25.018,0-45.372,20.355-45.372,45.373c0,25.019,20.354,45.372,45.372,45.372
		c12.434,0,24.038-4.932,32.668-13.886L306.426,529.967z M300.7,500.901c0,13.472-10.958,24.432-24.432,24.432
		c-13.472,0-24.432-10.96-24.432-24.432c0-13.473,10.959-24.432,24.432-24.432C289.742,476.47,300.7,487.429,300.7,500.901z
		 M261.084,461.88c2.849,4.707,6.79,8.595,11.422,11.382c-9.001,1.223-16.663,6.722-20.816,14.406l-0.644,0.788
		c-4.099,5.554-9.977,9.489-16.631,11.23C234.91,482.475,245.836,467.835,261.084,461.88z M262.182,540.34
		c-15.47-5.542-26.758-19.941-27.724-37.054c5.356-1.255,10.271-3.799,14.354-7.341c-0.29,1.611-0.466,3.262-0.466,4.958
		c0,7.407,2.92,14.138,7.648,19.142l0.644,0.996C260.657,526.661,262.583,533.471,262.182,540.34z"/>
	<path fill="#F0BC5E" d="M313.743,539.19c-0.005,0-0.01,0-0.015,0c-0.475-0.007-0.929-0.203-1.257-0.548l-13.043-13.857
		c-0.301-0.325-0.473-0.752-0.473-1.197v-0.326c0-0.438,0.164-0.856,0.459-1.18c5.329-5.818,8.267-13.341,8.267-21.181
		c0-7.839-2.938-15.363-8.267-21.182c-0.295-0.321-0.459-0.741-0.459-1.178v-0.326c0-0.445,0.172-0.873,0.473-1.198l13.043-13.855
		c0.328-0.346,0.78-0.545,1.257-0.549c0.434,0.037,0.932,0.187,1.265,0.527c9.914,10.163,15.375,23.574,15.375,37.761
		s-5.461,27.598-15.376,37.764C314.663,539.001,314.213,539.19,313.743,539.19z"/>
	<rect x="321.641" y="499.157" width="3.491" height="3.489"/>
	<path d="M318.719,533.6l-11.241-10.296l0.823-1.242c3.84-5.802,6.027-12.54,6.325-19.489l3.487,0.149
		c-0.304,7.086-2.407,13.969-6.1,20.005l9.061,8.299L318.719,533.6z"/>
	<path d="M314.625,499.23c-0.299-6.948-2.486-13.689-6.326-19.488l-0.824-1.242l11.241-10.297l2.357,2.574l-9.06,8.301
		c3.692,6.034,5.796,12.919,6.1,20.003L314.625,499.23z"/>
</g>
</svg>
