<?xml version="1.0" encoding="utf-8"?>
<!-- Generator: Adobe Illustrator 16.0.0, SVG Export Plug-In . SVG Version: 6.00 Build 0)  -->
<!DOCTYPE svg PUBLIC "-//W3C//DTD SVG 1.1//EN" "http://www.w3.org/Graphics/SVG/1.1/DTD/svg11.dtd">
<svg version="1.1" id="Layer_1" xmlns="http://www.w3.org/2000/svg" xmlns:xlink="http://www.w3.org/1999/xlink" x="0px" y="0px"
	 width="512px" height="512px" viewBox="0 0 512 512" enable-background="new 0 0 512 512" xml:space="preserve">
<circle fill="#F0BC5E" stroke="#000000" stroke-miterlimit="10" cx="154.945" cy="149.994" r="54.421"/>
<path d="M437.316,345.66H265c-16.009-0.018-28.982-12.991-29-29c0-3.866-3.134-7-7-7h-7.652l25.472-29.965
	c9.336,4.693,20.672,2.379,27.42-5.6l78.932-92.872c6.801-7.939,7.274-19.504,1.145-27.972l14.399-16.936
	c2.503-2.946,2.145-7.363-0.8-9.868L340.104,102.8c-2.945-2.502-7.362-2.144-9.867,0.8l-14.4,16.94
	c-9.346-4.7-20.695-2.372-27.436,5.628l-78.924,92.856c-6.728,7.965-7.196,19.479-1.136,27.964l-53.276,62.672H143
	c-2.542,0-4.884,1.378-6.12,3.6l-9.712,17.484c-5.118,9.202-14.818,14.911-25.348,14.916H74.684c-3.866,0-7,3.134-7,7v68
	c0,3.866,3.134,7,7,7l0,0h362.632c3.865,0,7-3.134,7-7l0,0v-68C444.316,348.794,441.182,345.66,437.316,345.66L437.316,345.66z
	 M336.368,118l17.144,14.58l-9.371,11.02L327,129.028L336.368,118z M220.144,228.088l78.94-92.852
	c3.143-3.707,8.695-4.165,12.402-1.022c0.006,0.005,0.012,0.01,0.018,0.015L340.4,158.8l1.088,0.928
	c3.699,3.148,4.148,8.698,1.004,12.4l-78.916,92.88c-3.156,3.705-8.716,4.155-12.428,1.008l-30-25.5
	C217.447,237.357,216.998,231.8,220.144,228.088L220.144,228.088z M218.512,256.645l17.14,14.556l-32.68,38.443h-29.528
	L218.512,256.645z M101.82,359.66c15.62-0.002,30.011-8.469,37.6-22.12l7.712-13.88h75.44c3.451,20.752,21.39,35.974,42.428,36
	h165.316v30H81.684v-30H101.82z M81.684,413.66v-10h348.632v10H81.684z"/>
<path d="M155.668,219.008c37.188,0,67.336-30.147,67.336-67.336c0-37.188-30.147-67.336-67.336-67.336s-67.336,30.147-67.336,67.336
	c0,0.001,0,0.003,0,0.004C88.374,188.847,118.498,218.968,155.668,219.008z M155.668,98.34c29.457,0,53.336,23.879,53.336,53.336
	c0,29.457-23.879,53.336-53.336,53.336s-53.336-23.879-53.336-53.336l0,0C102.363,122.232,126.224,98.371,155.668,98.34z"/>
<path d="M155.668,172.552c3.865-0.002,6.998-3.135,7-7v-47.5c0-3.866-3.134-7-7-7s-7,3.134-7,7v47.5
	C148.668,169.418,151.802,172.552,155.668,172.552z"/>
<path d="M155.668,192.3c3.866,0,7-3.134,7-7v-1.124c0-3.866-3.134-7-7-7s-7,3.134-7,7v1.124c-0.002,3.864,3.128,6.998,6.992,7
	C155.663,192.3,155.666,192.3,155.668,192.3z"/>
</svg>
