<?xml version="1.0" encoding="utf-8"?>
<!-- Generator: Adobe Illustrator 16.0.0, SVG Export Plug-In . SVG Version: 6.00 Build 0)  -->
<!DOCTYPE svg PUBLIC "-//W3C//DTD SVG 1.1//EN" "http://www.w3.org/Graphics/SVG/1.1/DTD/svg11.dtd">
<svg version="1.1" id="Capa_1" xmlns="http://www.w3.org/2000/svg" xmlns:xlink="http://www.w3.org/1999/xlink" x="0px" y="0px"
	 width="512px" height="512px" viewBox="0 0 512 512" enable-background="new 0 0 512 512" xml:space="preserve">
<rect x="85.333" y="102.4" fill="#F0BC5E" width="45.167" height="162.133"/>
<rect x="119.467" y="122.5" fill="#F0BC5E" width="51.2" height="142.033"/>
<rect x="178.5" y="207.5" fill="#F0BC5E" width="123" height="30"/>
<rect x="211.5" y="122.5" fill="#F0BC5E" width="125" height="29"/>
<rect x="238.062" y="125.075" transform="matrix(0.7106 -0.7036 0.7036 0.7106 -50.1039 228.5662)" fill="#F0BC5E" width="29.454" height="100.226"/>
<rect x="382.334" y="90.533" fill="#F0BC5E" width="44.333" height="174"/>
<rect x="345.5" y="122.163" fill="#F0BC5E" width="38.057" height="148.337"/>
<g id="Page-1">
	<g id="_x30_18---Fuse">
		<path id="Shape" d="M507.281,26.496l-51.2-25.6c-0.103-0.042-0.213-0.042-0.315-0.103c-0.103-0.06-0.384-0.128-0.572-0.205
			c-0.821-0.305-1.685-0.481-2.56-0.521c-0.137,0-0.239-0.068-0.367-0.068H59.733c-0.111,0-0.205,0.06-0.316,0.06
			c-0.896,0.037-1.78,0.215-2.62,0.529c-0.188,0.077-0.375,0.119-0.563,0.196c-0.188,0.077-0.213,0.068-0.316,0.111l-51.2,25.6
			C1.826,27.942-0.001,30.899,0,34.133v213.333c0,2.686,1.265,5.215,3.413,6.827l32.213,24.158l14.038,35.081
			c2.57,6.497,8.858,10.758,15.846,10.734h2.756v150.067c-0.012,4.528,1.789,8.874,5,12.066l20.6,20.6
			c3.206,3.191,7.542,4.989,12.066,5h78.268c4.524-0.011,8.86-1.809,12.066-5l20.6-20.6c3.212-3.192,5.013-7.538,5-12.066V324.267
			h68.266v150.067c-0.012,4.528,1.789,8.874,5.001,12.066l20.6,20.6c3.206,3.191,7.542,4.989,12.065,5h78.269
			c4.524-0.011,8.86-1.809,12.065-5l20.6-20.6c3.213-3.192,5.014-7.538,5.001-12.066V324.267h2.756
			c6.986,0.024,13.273-4.231,15.847-10.727l14.037-35.089l32.214-24.158c2.148-1.612,3.413-4.141,3.413-6.827V34.133
			C512.002,30.899,510.175,27.942,507.281,26.496L507.281,26.496z M494.934,71.526L460.8,54.46V22.34l34.134,17.066V71.526z
			 M443.733,51.2H68.267V17.066h375.467V51.2z M17.067,39.407L51.2,22.34v32.12L17.067,71.526V39.407z M34.133,256l-17.066-12.8V128
			l17.066,12.8V256z M204.8,474.334l-20.599,20.6h-78.268l-20.599-20.6V324.267H204.8V474.334z M426.667,474.334l-20.6,20.6h-78.269
			l-20.599-20.6V324.267h119.467V474.334z M446.489,307.2H65.519L55.279,281.6h401.451L446.489,307.2z M261.291,199.467l-46.08-57.6
			c-2.05-2.561-2.451-6.069-1.032-9.026c1.419-2.957,4.408-4.839,7.688-4.841H332.8v17.067h-75.426
			c-3.282-0.001-6.273,1.879-7.694,4.836c-1.422,2.958-1.021,6.468,1.03,9.03l46.08,57.6c2.051,2.561,2.451,6.069,1.031,9.026
			c-1.418,2.957-4.407,4.838-7.688,4.84H179.2v-17.066h75.426c3.282,0.001,6.272-1.879,7.694-4.837S263.342,202.028,261.291,199.467
			z M426.667,264.533h-76.8V128h25.6c3.672-0.003,6.93-2.354,8.09-5.837l6.596-19.763h36.515V264.533z M179.2,247.467h110.933
			c9.842,0.001,18.813-5.639,23.076-14.509s3.065-19.398-3.082-27.083l-34.995-43.742H332.8v102.4H179.2V247.467z M162.133,204.8
			v59.733h-76.8V102.4h36.514l6.596,19.763c1.16,3.483,4.418,5.834,8.089,5.837h25.6V204.8z M443.733,264.533V93.867
			c0-4.713-3.82-8.533-8.533-8.533H384c-3.672,0.002-6.93,2.354-8.09,5.836l-6.596,19.764H221.867
			c-9.841-0.001-18.812,5.639-23.075,14.508s-3.066,19.398,3.082,27.083l34.995,43.742H179.2v-76.8c0-4.713-3.821-8.533-8.534-8.533
			h-27.98L136.09,91.17c-1.16-3.483-4.418-5.834-8.09-5.836H76.8c-4.712,0-8.533,3.82-8.533,8.533v170.667H51.2v-128
			c0-2.686-1.265-5.215-3.414-6.827l-30.72-23.04v-16.06l44.68-22.34h388.506l44.681,22.34v16.06l-30.72,23.04
			c-2.149,1.612-3.414,4.141-3.414,6.827v128H443.733z M494.934,243.2L477.866,256V140.8l17.067-12.8V243.2z"/>
		<path id="Shape_1_" d="M110.934,358.4H128c4.713,0,8.533-3.821,8.533-8.533c0-4.713-3.82-8.534-8.533-8.534h-17.066
			c-4.713,0-8.534,3.821-8.534,8.534C102.4,354.579,106.221,358.4,110.934,358.4z"/>
		<path id="Shape_2_" d="M162.133,358.4H179.2c4.713,0,8.533-3.821,8.533-8.533c0-4.713-3.82-8.534-8.533-8.534h-17.067
			c-4.713,0-8.533,3.821-8.533,8.534C153.6,354.579,157.42,358.4,162.133,358.4z"/>
		<path id="Shape_3_" d="M332.8,358.4h17.067c4.713,0,8.533-3.821,8.533-8.533c0-4.713-3.82-8.534-8.533-8.534H332.8
			c-4.712,0-8.533,3.821-8.533,8.534C324.267,354.579,328.088,358.4,332.8,358.4z"/>
		<path id="Shape_4_" d="M384,358.4h17.066c4.713,0,8.533-3.821,8.533-8.533c0-4.713-3.82-8.534-8.533-8.534H384
			c-4.713,0-8.533,3.821-8.533,8.534C375.467,354.579,379.287,358.4,384,358.4z"/>
	</g>
</g>
</svg>
