<svg height="496pt" viewBox="0 -43 496 495" width="496pt" xmlns="http://www.w3.org/2000/svg"><path d="m88 40.5h40v240h-40zm0 0" fill="#f0bc5e"/><path d="m368 40.5h40v240h-40zm0 0" fill="#f0bc5e"/><path d="m496 232.5v-144c0-30.878906-25.121094-56-56-56h-112v-16c0-8.824219-7.175781-16-16-16h-128c-8.824219 0-16 7.175781-16 16v16h-112c-30.878906 0-56 25.121094-56 56v144c0 16.144531 6.902344 30.664062 17.863281 40.894531-10.246093 2.730469-17.863281 12-17.863281 23.105469v16c0 13.230469 10.769531 24 24 24h448c13.230469 0 24-10.769531 24-24v-16c0-11.105469-7.617188-20.375-17.863281-23.105469 10.960937-10.230469 17.863281-24.75 17.863281-40.894531zm-16-144v144c0 22.054688-17.945312 40-40 40h-64v-224h64c22.054688 0 40 17.945312 40 40zm-200 88h-64v-32h64zm0-48h-64v-32h64zm0-48h-64v-32h64zm-56 160v-16c-4.40625 0-8-3.59375-8-8v-24h64v24c0 13.230469 10.769531 24 24 24v-16c-4.40625 0-8-3.59375-8-8v-168h64v224h-224v-224h64v168c0 13.230469 10.769531 24 24 24zm-40-224h128v16h-128zm-168 216v-144c0-22.054688 17.945312-40 40-40h64v224h-64c-22.054688 0-40-17.945312-40-40zm456 56c4.40625 0 8 3.59375 8 8v16c0 4.40625-3.59375 8-8 8h-448c-4.40625 0-8-3.59375-8-8v-16c0-4.40625 3.59375-8 8-8zm0 0"/><path d="m128 360.5c0 26.507812-21.492188 48-48 48s-48-21.492188-48-48 21.492188-48 48-48 48 21.492188 48 48zm0 0" fill="#f0bc5e"/><path d="m80 384.5c-13.230469 0-24-10.769531-24-24s10.769531-24 24-24 24 10.769531 24 24-10.769531 24-24 24zm0-32c-4.40625 0-8 3.59375-8 8s3.59375 8 8 8 8-3.59375 8-8-3.59375-8-8-8zm0 0"/><path d="m224 360.5c0 26.507812-21.492188 48-48 48s-48-21.492188-48-48 21.492188-48 48-48 48 21.492188 48 48zm0 0" fill="#f0bc5e"/><path d="m176 384.5c-13.230469 0-24-10.769531-24-24s10.769531-24 24-24 24 10.769531 24 24-10.769531 24-24 24zm0-32c-4.40625 0-8 3.59375-8 8s3.59375 8 8 8 8-3.59375 8-8-3.59375-8-8-8zm0 0"/><path d="m368 360.5c0 26.507812-21.492188 48-48 48s-48-21.492188-48-48 21.492188-48 48-48 48 21.492188 48 48zm0 0" fill="#f0bc5e"/><path d="m320 384.5c-13.230469 0-24-10.769531-24-24s10.769531-24 24-24 24 10.769531 24 24-10.769531 24-24 24zm0-32c-4.40625 0-8 3.59375-8 8s3.59375 8 8 8 8-3.59375 8-8-3.59375-8-8-8zm0 0"/><path d="m464 360.5c0 26.507812-21.492188 48-48 48s-48-21.492188-48-48 21.492188-48 48-48 48 21.492188 48 48zm0 0" fill="#f0bc5e"/><path d="m416 384.5c-13.230469 0-24-10.769531-24-24s10.769531-24 24-24 24 10.769531 24 24-10.769531 24-24 24zm0-32c-4.40625 0-8 3.59375-8 8s3.59375 8 8 8 8-3.59375 8-8-3.59375-8-8-8zm0 0"/></svg>