<?xml version="1.0" encoding="utf-8"?>
<!-- Generator: Adobe Illustrator 16.0.0, SVG Export Plug-In . SVG Version: 6.00 Build 0)  -->
<!DOCTYPE svg PUBLIC "-//W3C//DTD SVG 1.1//EN" "http://www.w3.org/Graphics/SVG/1.1/DTD/svg11.dtd">
<svg version="1.1" id="Capa_1" xmlns="http://www.w3.org/2000/svg" xmlns:xlink="http://www.w3.org/1999/xlink" x="0px" y="0px"
	 width="560px" height="560px" viewBox="200 0 560 560" enable-background="new 200 0 560 560" xml:space="preserve">
<g>
	<rect x="597.419" y="469.678" width="27.098" height="18.064"/>
	<rect x="362.581" y="505.807" width="261.936" height="18.064"/>
	<rect x="407.742" y="469.678" width="171.612" height="18.064"/>
	<rect x="362.581" y="469.678" width="27.097" height="18.064"/>
	<path d="M696.774,345.899v-48.991l-27.098,3.288v-11.164h36.129v-36.129c0-14.939-12.156-27.097-27.097-27.097
		c-4.832,0-9.367,1.273-13.296,3.486c-4.814-7.524-13.25-12.519-22.833-12.519c-9.584,0-18.021,4.995-22.834,12.519
		c-3.929-2.213-8.463-3.486-13.296-3.486c-14.938,0-27.098,12.157-27.098,27.097v36.129h36.13v17.722l-217.912,26.41l-118.458-308
		C273.324,10.116,258.592,0,242.47,0h-3.215C217.613,0,200,17.613,200,39.254c0,5.094,0.966,10.062,2.89,14.776l109.119,268.61
		c-21.894-4.264-44.204-6.513-66.848-6.513h-9.032v54.193h9.032c9.086,0,18.119,0.442,27.097,1.2v134.283h18.065V373.52
		c20.611,2.937,40.871,7.923,60.625,14.867h-51.592v54.194h108.387V404.79c9.673-3.45,16.735-12.185,17.793-22.753l55.802,15.021
		l0.036,0.253l0.578-0.09l167.313,45.044l2.35-8.716h9.031V406.09l18.064-2.854v21.278h18.064v-24.134l27.097-4.281v-54.374
		L696.774,345.899z M678.71,348.682L606.451,359.8v-33.744l72.259-8.762V348.682L678.71,348.682z M597.419,252.903
		c0-4.977,4.056-9.032,9.032-9.032c4.978,0,9.032,4.055,9.032,9.032h18.064v-9.032c0-4.977,4.055-9.032,9.032-9.032
		c4.977,0,9.032,4.055,9.032,9.032v9.032h18.063c0-4.977,4.057-9.032,9.032-9.032s9.032,4.055,9.032,9.032v18.064h-90.323v-18.064
		H597.419z M633.549,289.032h18.064v13.35l-18.064,2.187V289.032z M588.387,328.241v34.341l-105.407,16.213l-63.857-17.188
		l-0.027,0.1c-3.586-4.137-8.355-7.172-13.838-8.545l-0.993-2.592L588.387,328.241z M218.064,39.254
		c0-11.679,9.511-21.19,21.19-21.19h3.206c8.708,0,16.656,5.456,19.781,13.584l18.408,47.835l-40.817,17.496l-20.214-49.75
		C218.588,44.683,218.064,42,218.064,39.254z M246.634,113.716l40.509-17.36l95.381,248c-16.032-6.855-32.39-12.52-49.045-16.882
		L246.634,113.716z M254.193,334.311c42.858,1.147,84.461,10.487,123.851,27.722c-3.459,4.118-5.681,9.249-6.187,14.912
		l-1.409-0.562c-37.222-14.894-76.295-22.95-116.254-24.008L254.193,334.311L254.193,334.311z M389.677,424.516h-72.258v-18.063
		h72.258V424.516z M398.709,388.387c-4.977,0-9.032-4.055-9.032-9.031c0-4.978,4.056-9.032,9.032-9.032
		c4.977,0,9.033,4.056,9.033,9.032S403.687,388.387,398.709,388.387z M642.581,421.762l-30.015-8.084l30.015-4.732V421.762z
		 M705.807,380.674l-136.063,21.487l-43.571-11.732l179.634-27.639V380.674z"/>
</g>
<path fill="#F0BC5E" d="M687.742,560c-39.842,0-72.259-32.417-72.259-72.258c0-39.842,32.417-72.259,72.259-72.259
	c39.841,0,72.258,32.417,72.258,72.259C760,527.583,727.583,560,687.742,560z"/>
<path d="M687.742,451.613c-19.926,0-36.129,16.203-36.129,36.129c0,19.925,16.203,36.129,36.129,36.129
	c19.925,0,36.129-16.204,36.129-36.129C723.871,467.816,707.667,451.613,687.742,451.613z M687.742,505.807
	c-9.963,0-18.064-8.103-18.064-18.063c0-9.963,8.103-18.064,18.064-18.064s18.063,8.103,18.063,18.064
	C705.807,497.704,697.704,505.807,687.742,505.807z"/>
<path fill="#F0BC5E" d="M326.452,560c-29.888,0-54.194-24.306-54.194-54.193c0-29.887,24.306-54.192,54.194-54.192
	c29.888,0,54.193,24.306,54.193,54.192C380.645,535.694,356.339,560,326.452,560z"/>
<rect x="317.419" y="496.774" width="18.064" height="18.063"/>
</svg>
