<svg height="496pt" viewBox="0 0 496 496" width="496pt" xmlns="http://www.w3.org/2000/svg"><path d="m32 128h184v144h-184zm0 0" fill="#f0bc5e"/><path d="m328 272.945312-3.574219-1.792968c-42.210937-21.097656-68.425781-63.519532-68.425781-110.703125v-35.546875l28.121094 9.386718c11.933594 3.96875 25.503906.78125 34.414062-8.136718l9.464844-9.464844 9.464844 9.464844c8.917968 8.910156 22.472656 12.128906 34.421875 8.128906l28.113281-9.386719v35.546875c0 47.183594-26.214844 89.605469-68.425781 110.710938zm0 0" fill="#f0bc5e"/><path d="m328 227.3125-29.65625-29.65625 11.3125-11.3125 18.34375 18.34375 98.34375-98.34375 11.3125 11.3125zm0 0"/><path d="m272 400h88v16h-88zm0 0"/><path d="m320 480h-304v-368h96v-96h208v108.6875l8-8 8 8v-124.6875h-235.3125l-100.6875 100.6875v395.3125h336v-89h-16zm-292.6875-384 68.6875-68.6875v68.6875zm0 0"/><path d="m475.390625 326.121094-35.488281-5.074219c-2.148438-.304687-4.109375-1.503906-5.375-3.261719l-26.449219-37.03125c-7.484375-10.496094-19.652344-16.753906-32.550781-16.753906h-102.398438c-13.410156 0-25.847656 6.65625-33.28125 17.816406l-19.304687 28.953125c-1.03125 1.542969-2.574219 2.695313-4.351563 3.222657l-63.078125 18.917968c-10.242187 3.074219-17.113281 12.3125-17.113281 22.992188v36.097656c0 13.230469 10.769531 24 24 24h48v-16h-48c-4.40625 0-8-3.585938-8-8v-36.097656c0-3.558594 2.296875-6.636719 5.695312-7.664063l63.082032-18.917969c5.335937-1.601562 9.984375-5.039062 13.070312-9.679687l19.304688-28.953125c4.464844-6.695312 11.925781-10.6875 19.976562-10.6875h102.40625c7.738282 0 15.03125 3.761719 19.527344 10.046875l26.457031 37.042969c3.800781 5.308594 9.679688 8.878906 16.136719 9.804687l35.488281 5.074219c3.902344.542969 6.855469 3.953125 6.855469 7.902344v42.128906c0 4.414062-3.59375 8-8 8h-48v16h48c13.230469 0 24-10.769531 24-24v-42.128906c0-11.863282-8.855469-22.070313-20.609375-23.75zm0 0"/><path d="m267.054688 296-24 48h161.890624l-24-48zm1.890624 32 8-16h94.109376l8 16zm0 0"/><path d="m208 64h16v16h-16zm0 0"/><path d="m240 64h16v16h-16zm0 0"/><path d="m176 64h16v16h-16zm0 0"/><path d="m32 128h184v16h-184zm0 0"/><path d="m32 192h184v16h-184zm0 0"/><path d="m240 448c-22.054688 0-40-17.945312-40-40s17.945312-40 40-40 40 17.945312 40 40-17.945312 40-40 40zm0 0" fill="#f0bc5e"/><path d="m232 400h16v16h-16zm0 0"/><path d="m392 448c-22.054688 0-40-17.945312-40-40s17.945312-40 40-40 40 17.945312 40 40-17.945312 40-40 40zm0 0" fill="#f0bc5e"/><path d="m384 400h16v16h-16zm0 0"/><path d="m144 160h72v16h-72zm0 0"/><path d="m32 160h96v16h-96zm0 0"/><path d="m32 224h184v16h-184zm0 0"/><path d="m32 256h184v16h-184zm0 0"/><path d="m176 464h-16c-12.222656 0-17.480469-12.015625-21.320312-20.800781-1.464844-3.351563-4.894532-11.199219-6.65625-11.199219-1.757813 0-5.191407 7.847656-6.65625 11.199219-3.839844 8.777343-9.09375 20.800781-21.328126 20.800781-12.230468 0-17.496093-12.015625-21.335937-20.792969-1.464844-3.359375-4.902344-11.207031-6.679687-11.207031-1.777344 0-5.214844 7.847656-6.679688 11.207031-3.847656 8.777344-9.113281 20.792969-21.34375 20.792969h-16v-16h16c1.777344 0 5.214844-7.847656 6.679688-11.207031 3.847656-8.777344 9.113281-20.792969 21.34375-20.792969 12.234374 0 17.496093 12.015625 21.335937 20.792969 1.472656 3.359375 4.914063 11.207031 6.6875 11.207031 1.761719 0 5.191406-7.847656 6.664063-11.199219 3.832031-8.785156 9.089843-20.800781 21.320312-20.800781 12.234375 0 17.488281 12.023438 21.320312 20.800781 1.464844 3.351563 4.886719 11.199219 6.648438 11.199219h16zm0 0"/><path d="m192 448h16v16h-16zm0 0"/><path d="m304 112h-176v-80h176zm-160-16h144v-48h-144zm0 0"/></svg>