<?xml version="1.0" encoding="utf-8"?>
<!-- Generator: Adobe Illustrator 16.0.0, SVG Export Plug-In . SVG Version: 6.00 Build 0)  -->
<!DOCTYPE svg PUBLIC "-//W3C//DTD SVG 1.1//EN" "http://www.w3.org/Graphics/SVG/1.1/DTD/svg11.dtd">
<svg version="1.1" id="Capa_1" xmlns="http://www.w3.org/2000/svg" xmlns:xlink="http://www.w3.org/1999/xlink" x="0px" y="0px"
	 width="560px" height="560px" viewBox="210.5 0 560 560" enable-background="new 210.5 0 560 560" xml:space="preserve">
<path fill="#F0BC5E" d="M394.193,261.936c-79.818,0-144.516,64.698-144.516,144.516c0,79.817,64.698,144.517,144.516,144.517
	S538.71,486.271,538.71,406.452C538.71,326.634,474.012,261.936,394.193,261.936z M394.193,496.774
	c-49.885,0-90.322-40.438-90.322-90.323s40.438-90.322,90.322-90.322c49.886,0,90.323,40.438,90.323,90.322
	C484.517,456.337,444.079,496.774,394.193,496.774z"/>
<g>
	<rect x="565.807" y="108.387" width="18.064" height="18.064"/>
	<path d="M700.342,185.64l-1.012,0.506c-3.504-10.342-11.706-18.417-22.12-21.759c9.439-13.287,15.048-29.463,15.048-46.968V81.291
		C692.258,36.463,655.795,0,610.968,0c-31.839,0-59.378,18.444-72.71,45.161h-40.192c-12.455,0-22.581,10.125-22.581,22.581
		c0,12.455,10.126,22.581,22.581,22.581h31.612v27.097c0,44.827,36.463,81.29,81.29,81.29c1.879,0,3.723-0.153,5.573-0.28
		l-28.605,28.605l-79.988,29.093c-11.933,4.335-20.468,14.74-22.753,26.935c-25.508-18.859-56.921-30.159-91-30.159
		c-84.668,0-153.548,68.88-153.548,153.548c0,84.669,68.88,153.549,153.548,153.549c84.669,0,153.549-68.88,153.549-153.549
		c0-29.869-8.707-57.681-23.521-81.29h0.345c4.552,0,8.995-0.858,13.214-2.538l46.092-18.443v196.045l-21.876,10.938
		c-8.798,4.398-14.253,13.231-14.253,23.06c0,14.218,11.562,25.778,25.777,25.778h45.161h19.384h81.289V266.199
		C719.354,238.379,712.771,210.524,700.342,185.64z M644.252,171.071c-7.244,4.516-15.454,7.587-24.252,8.852v-26.826
		c10.297-2.095,18.064-11.227,18.064-22.129c0-10.902-7.769-20.034-18.064-22.129V90.323h54.193v27.097
		c0,20.124-9.483,38.044-24.18,49.632C647.973,168.181,646.049,169.518,644.252,171.071z M610.968,18.064
		c31.784,0,58.097,23.61,62.503,54.193H548.465C552.872,41.675,579.184,18.064,610.968,18.064z M493.549,67.742
		c0-2.484,2.032-4.517,4.517-4.517h33.708c-0.678,2.963-1.22,5.961-1.563,9.032h-32.146
		C495.581,72.258,493.549,70.226,493.549,67.742z M547.742,117.419V90.323h54.192v36.129h13.549c2.483,0,4.517,2.032,4.517,4.516
		c0,2.484-2.032,4.516-4.517,4.516h-13.549v44.438C571.353,175.515,547.742,149.204,547.742,117.419z M597.871,242.643
		l56.776-56.777c1.814-1.165,3.567-2.412,5.283-3.703c2.122-0.966,4.427-1.518,6.783-1.518c9.104,0,16.511,7.407,16.511,16.511
		c0,4.344-1.761,8.607-4.832,11.679l-63.461,63.46l-61.526,24.613L540.1,263.642L597.871,242.643z M496.511,494.995l2.431-17.008
		l-17.885-2.558l-5.6,39.184c-20.241,15.246-44.818,24.929-71.581,26.834l13.801-10.352l-10.838-14.451l-31.712,23.791
		c-26.356-3.738-50.265-15.012-69.476-31.668l17.008,2.431l2.556-17.884l-39.182-5.601c-15.247-20.241-24.929-44.818-26.835-71.581
		l10.351,13.802L284,419.097l-23.791-31.712c3.739-26.355,15.012-50.265,31.667-69.477l-2.43,17.008l17.884,2.557l5.6-39.183
		c20.242-15.246,44.818-24.929,71.581-26.834l-13.801,10.351l10.83,14.451l31.712-23.791c26.356,3.739,50.265,15.012,69.476,31.667
		l-17.008-2.43l-2.556,17.884l39.182,5.602c15.247,20.24,24.93,44.817,26.835,71.579l-10.342-13.801l-14.452,10.839l23.791,31.712
		C524.438,451.875,513.167,475.783,496.511,494.995z M524.565,307.097h-4.463c-9.664,0-17.521-7.857-17.521-17.521
		c0-7.334,4.643-13.964,11.534-16.475l8.985-3.27l13.521,33.798l-5.555,2.223C529,306.672,526.806,307.097,524.565,307.097z
		 M625.076,287.705l66.089-66.09c1.048-1.047,1.896-2.24,2.791-3.396c4.806,15.508,7.334,31.749,7.334,47.979v230.576h-54.193
		V361.29h-18.063v135.484h-27.098V296.953L625.076,287.705z M565.807,534.222c0-2.936,1.636-5.582,4.272-6.899l24.956-12.482h6.765
		c-5.563,4.823-8.896,11.77-8.896,19.383c0,2.71,0.532,5.267,1.31,7.714h-20.691C569.274,541.936,565.807,538.467,565.807,534.222z
		 M638.064,541.936h-19.384c-4.244,0-7.714-3.469-7.714-7.714c0-2.936,1.636-5.582,4.272-6.899l24.956-12.482h61.094v27.097
		L638.064,541.936L638.064,541.936z"/>
	<path d="M394.193,307.097c-54.78,0-99.354,44.574-99.354,99.354c0,54.781,44.574,99.354,99.354,99.354
		c54.781,0,99.355-44.573,99.355-99.354C493.549,351.671,448.975,307.097,394.193,307.097z M394.193,487.742
		c-44.827,0-81.29-36.464-81.29-81.291c0-44.826,36.463-81.29,81.29-81.29s81.291,36.464,81.291,81.29
		C475.483,451.278,439.021,487.742,394.193,487.742z"/>
	<path d="M394.193,334.193c-39.841,0-72.258,32.417-72.258,72.258c0,39.842,32.417,72.259,72.258,72.259
		c39.842,0,72.258-32.417,72.258-72.259C466.451,366.61,434.035,334.193,394.193,334.193z M448.387,406.451
		c0,6.639-1.255,12.979-3.45,18.858l-24.143-13.937c0.298-1.599,0.497-3.233,0.497-4.923c0-1.688-0.198-3.323-0.497-4.922
		l24.143-13.938C447.132,393.473,448.387,399.813,448.387,406.451z M435.932,371.921l-24.25,14c-2.484-2.122-5.32-3.793-8.455-4.904
		v-27.944C416.295,355.284,427.812,362.13,435.932,371.921z M394.193,415.483c-4.985,0-9.032-4.046-9.032-9.032
		c0-4.985,4.047-9.032,9.032-9.032c4.986,0,9.032,4.047,9.032,9.032C403.226,411.438,399.179,415.483,394.193,415.483z
		 M385.161,353.071v27.944c-3.134,1.12-5.97,2.791-8.454,4.904l-24.251-14C360.576,362.13,372.092,355.284,385.161,353.071z
		 M340,406.451c0-6.64,1.255-12.979,3.45-18.859l24.144,13.938c-0.298,1.599-0.497,3.232-0.497,4.922
		c0,1.688,0.199,3.324,0.497,4.923l-24.144,13.937C341.255,419.431,340,413.09,340,406.451z M352.456,440.982l24.251-14
		c2.484,2.121,5.32,3.783,8.454,4.903v27.945C372.092,457.619,360.576,450.772,352.456,440.982z M403.226,459.832v-27.945
		c3.134-1.12,5.971-2.791,8.455-4.903l24.25,13.999C427.812,450.772,416.295,457.619,403.226,459.832z"/>
</g>
</svg>
