<svg height="496pt" viewBox="0 0 496 496" width="496pt" xmlns="http://www.w3.org/2000/svg"><path d="m296 456h104v16h-104zm0 0"/><path d="m160 400c0-8.824219-7.175781-16-16-16h-32v-200h-16v200h-32v-200h-16v200h-32c-8.824219 0-16 7.175781-16 16v32c0 2.929688.847656 5.640625 2.222656 8-1.375 2.359375-2.222656 5.070312-2.222656 8v32c0 8.824219 7.175781 16 16 16h128c8.824219 0 16-7.175781 16-16v-32c0-2.929688-.847656-5.640625-2.222656-8 1.375-2.359375 2.222656-5.070312 2.222656-8zm-16 32h-17.046875l10.664063-16-10.664063-16h17.046875zm-25.617188 32-10.664062 16h-20.765625l10.664063-16-10.664063-16h20.765625zm-10.664062-64 10.664062 16-10.664062 16h-20.765625l10.664063-16-10.664063-16zm-29.335938 16-10.664062 16h-20.765625l10.664063-16-10.664063-16h20.765625zm-10.664062 32 10.664062 16-10.664062 16h-20.765625l10.664063-16-10.664063-16zm-51.71875-48h11.71875l10.664062 16-10.664062 16h-11.71875zm0 48h11.71875l10.664062 16-10.664062 16h-11.71875zm110.953125 32 10.664063-16-10.664063-16h17.046875l.015625 32zm0 0"/><path d="m128 192h-96v-48h96zm0 0" fill="#f0bc5e"/><path d="m416 352h-107.3125l-36.6875 36.6875v10.015625c0 17.640625 2.832031 35.082031 8.414062 51.832031l15.171876-5.0625c-4.898438-14.703125-7.402344-30-7.539063-45.472656h126.402344c-2.007813 14.335938-6.007813 28.425781-12.167969 41.472656l14.472656 6.832032c9.972656-21.152344 15.246094-44.695313 15.246094-68.082032v-12.222656c0-8.824219-7.175781-16-16-16zm-116.6875 32 16-16h100.6875v12.222656c0 1.257813-.175781 2.511719-.207031 3.777344zm0 0"/><path d="m304 416h32v16h-32zm0 0"/><path d="m496 144v-112c0-8.824219-7.175781-16-16-16h-64v.152344c-13.390625-10.089844-29.984375-16.152344-48-16.152344-22.320312 0-42.503906 9.207031-57.03125 24h-75.65625l-24-24h-45.738281l-24 16h-125.574219c-8.824219 0-16 7.175781-16 16v112c0 8.824219 7.175781 16 16 16h144v32h16v184h16v-184h240v128h-129.039062c-6.640626 0-13.039063 2.792969-17.554688 7.640625l-40.046875 42.960937c-1.046875 1.125-2.390625 1.910157-3.886719 2.292969l-47.296875 11.824219c-10.695312 2.671875-18.175781 12.25-18.175781 23.28125v40c0 13.230469 10.769531 24 24 24h48v-16h-48c-4.414062 0-8-3.585938-8-8v-24.054688c17.199219-.136718 34.191406-2.914062 50.527344-8.359374l-5.0625-15.171876c-14.703125 4.898438-29.992188 7.402344-45.457032 7.539063.023438-3.65625 2.503907-6.816406 6.046876-7.714844l47.289062-11.824219c4.519531-1.125 8.585938-3.519531 11.734375-6.917968l40.042969-42.953125c1.496094-1.613281 3.632812-2.542969 5.839844-2.542969h124.839843c13.007813 18.6875 20.199219 41.222656 20.199219 64v8h32v16h-24v16h24v8c0 4.414062-3.585938 8-8 8h-24v16h24c13.230469 0 24-10.769531 24-24v-62.191406c0-6.105469-2.289062-11.914063-6.449219-16.359375l-9.550781-10.257813v-199.191406c8.824219 0 16-7.175781 16-16zm-16 0h-64.207031c15.421875-11.542969 26.605469-28.457031 30.589843-48h33.617188zm-97.472656-35.648438c3.535156-1.816406 6.671875-4.238281 9.289062-7.183593l8.953125 18.089843 18.566407-1.203124c-9.480469 12.753906-23.550782 21.875-39.785157 24.839843l-9.933593-14.894531 13.039062-19.558594zm97.472656-76.351562v48h-32c0-18.015625-6.0625-34.609375-16.152344-48zm-53.335938 22.496094c3.414063 7.816406 5.335938 16.441406 5.335938 25.503906 0 7.527344-1.375 14.726562-3.777344 21.449219l-17.847656 1.152343-10.421875-21.082031-.113281.054688c.023437-.527344.160156-1.03125.160156-1.574219 0-3.527344-.710938-6.863281-1.769531-10.039062l20.144531 1.304687zm-51.425781-38.054688c16.546875 1.871094 31.175781 10.078125 41.449219 22.125l-7.917969 16.035156-23.472656-1.511718-.007813.0625c-3.25-2.105469-6.882812-3.671875-10.792968-4.480469l11.121094-16.671875zm8.761719 63.558594c0 8.824219-7.175781 16-16 16s-16-7.175781-16-16 7.175781-16 16-16 16 7.175781 16 16zm-23.238281 63.558594c-16.546875-1.871094-31.175781-10.078125-41.449219-22.125l7.917969-16.035156 23.472656 1.511718.007813-.0625c3.25 2.105469 6.882812 3.671875 10.792968 4.480469l-11.121094 16.671875zm-4.3125-126.460938 9.933593 14.902344-13.039062 19.558594.128906.089844c-3.535156 1.816406-6.671875 4.238281-9.289062 7.183593l-8.953125-18.089843-18.566407 1.203124c9.488282-12.761718 23.550782-21.875 39.785157-24.847656zm-48.671875 41.453125 17.847656-1.152343 10.421875 21.082031.113281-.054688c-.023437.527344-.160156 1.03125-.160156 1.574219 0 3.527344.710938 6.863281 1.769531 10.039062l-20.144531-1.304687-8.289062 16.769531c-3.414063-7.816406-5.335938-16.441406-5.335938-25.503906 0-7.527344 1.375-14.726562 3.777344-21.449219zm-155.777344-30.269531 18.425781-12.28125h34.261719l24 24h70.136719c-5.578125 9.601562-9.265625 20.425781-10.417969 32h-59.71875l-24 24h-34.261719l-18.425781-12.28125v-3.71875h40v-48h-40zm-136 115.71875v-48h32v-16h-32v-48h120v16h40v16h-40v16h-72v16h77.574219l24 16h45.738281l24-24h53.09375c2.289062 22.886719 14.3125 42.902344 31.800781 56zm160 32v-16h256v16zm287.742188 216c-.742188-11.726562-3.183594-23.304688-7.0625-34.367188l21.183593 22.726563c1.375 1.472656 2.136719 3.417969 2.136719 5.449219v6.191406zm-13.140626-64.351562c-.792968-.847657-1.707031-1.550782-2.601562-2.273438v-165.375h16v182.023438zm0 0"/><path d="m248 216h144v80h-144zm0 0" fill="#f0bc5e"/><path d="m328 208h-88v96h160v-96zm-72 16h56v64h-56zm128 64h-56v-64h56zm0 0"/><g fill="#f0bc5e"><path d="m272 496c-17.648438 0-32-14.351562-32-32s14.351562-32 32-32 32 14.351562 32 32-14.351562 32-32 32zm0 0"/><path d="m424 496c-17.648438 0-32-14.351562-32-32s14.351562-32 32-32 32 14.351562 32 32-14.351562 32-32 32zm0 0"/></g></svg>