<?xml version="1.0" encoding="utf-8"?>
<!-- Generator: Adobe Illustrator 16.0.0, SVG Export Plug-In . SVG Version: 6.00 Build 0)  -->
<!DOCTYPE svg PUBLIC "-//W3C//DTD SVG 1.1//EN" "http://www.w3.org/Graphics/SVG/1.1/DTD/svg11.dtd">
<svg version="1.1" id="Capa_1" xmlns="http://www.w3.org/2000/svg" xmlns:xlink="http://www.w3.org/1999/xlink" x="0px" y="0px"
	 width="560px" height="560px" viewBox="200 0 560 560" enable-background="new 200 0 560 560" xml:space="preserve">
<circle fill="#F0BC5E" cx="480" cy="289.032" r="36.129"/>
<g>
	<rect x="498.063" y="505.807" width="18.064" height="18.064"/>
	<rect x="498.063" y="397.419" width="18.064" height="90.323"/>
	<rect x="470.968" y="36.129" width="18.064" height="63.226"/>
	
		<rect x="320.875" y="98.301" transform="matrix(-0.7071 0.7071 -0.7071 -0.7071 655.046 -11.5106)" width="18.064" height="63.224"/>
	<rect x="236.129" y="270.968" width="63.226" height="18.064"/>
	
		<rect x="298.293" y="421.084" transform="matrix(-0.7071 0.7071 -0.7071 -0.7071 867.3208 500.9754)" width="63.224" height="18.064"/>
	
		<rect x="621.05" y="398.498" transform="matrix(-0.7071 0.7071 -0.7071 -0.7071 1379.7455 288.6796)" width="18.064" height="63.224"/>
	<path d="M705.807,225.807h-94.975l67.155-67.155c21.126-21.126,21.126-55.512,0-76.639c-21.127-21.135-55.514-21.135-76.64,0
		l-67.154,67.155V54.193C534.193,24.306,509.888,0,480,0s-54.193,24.306-54.193,54.193v94.975l-67.155-67.155
		c-10.233-10.233-23.845-15.87-38.324-15.87s-28.081,5.636-38.324,15.87c-21.126,21.126-21.126,55.513,0,76.639l67.164,67.155
		h-94.975C224.306,225.807,200,250.112,200,280c0,29.888,24.306,54.193,54.193,54.193h94.975l-67.164,67.164
		c-10.233,10.232-15.87,23.845-15.87,38.313s5.636,28.082,15.87,38.315c10.233,10.241,23.845,15.879,38.324,15.879
		s28.082-5.638,38.324-15.879l49.091-49.092V560h144.516V428.896l49.091,49.091c10.233,10.241,23.846,15.879,38.323,15.879
		c14.479,0,28.082-5.638,38.324-15.879c10.232-10.233,15.87-23.847,15.87-38.315s-5.638-28.081-15.87-38.313l-67.164-67.164h94.975
		C735.694,334.193,760,309.888,760,280C760,250.112,735.694,225.807,705.807,225.807z M614.12,94.785
		c14.09-14.09,37.014-14.09,51.096,0c6.819,6.819,10.576,15.896,10.576,25.552c0,9.655-3.757,18.724-10.576,25.552L547.534,263.562
		c-3.107-8.202-7.643-15.689-13.341-22.166v-66.685L614.12,94.785z M480,18.064c19.925,0,36.129,16.204,36.129,36.129v172.354
		c-10.64-6.178-22.96-9.772-36.129-9.772s-25.489,3.595-36.129,9.772V54.193C443.871,34.269,460.075,18.064,480,18.064z
		 M284.199,120.328c0-9.646,3.757-18.724,10.577-25.552c13.648-13.647,37.448-13.647,51.096,0l79.936,79.936v66.685
		c-5.7,6.476-10.233,13.955-13.341,22.166L294.785,145.88C287.956,139.061,284.199,129.983,284.199,120.328z M218.064,280
		c0-19.925,16.204-36.129,36.129-36.129h113.039l40.735,40.734c-0.09,1.473-0.226,2.937-0.226,4.427v27.097H254.193
		C234.269,316.129,218.064,299.925,218.064,280z M345.88,465.216c-13.657,13.656-37.448,13.656-51.095,0
		c-6.819-6.829-10.577-15.896-10.577-25.544c0-9.646,3.758-18.715,10.577-25.543l79.936-79.936h33.022v27.097h18.063
		c9.962,0,18.064,8.103,18.064,18.063c0,9.964-8.104,18.064-18.064,18.064h-18.063v5.935L345.88,465.216z M665.216,414.129
		c6.819,6.828,10.576,15.896,10.576,25.543c0,9.647-3.757,18.715-10.576,25.544c-13.657,13.656-37.448,13.656-51.096,0
		l-61.862-61.862v-33.03h-18.063v171.612H425.807V415.483c19.926,0,36.13-16.203,36.13-36.13c0-19.925-16.204-36.129-36.13-36.129
		v-54.192c0-29.888,24.307-54.193,54.193-54.193s54.193,24.306,54.193,54.193v63.226h18.063v-18.063h33.031L665.216,414.129z
		 M705.807,316.129H552.258v-27.097c0-1.49-0.136-2.954-0.226-4.427l40.734-40.734h113.039c19.926,0,36.129,16.204,36.129,36.129
		C741.936,299.925,725.731,316.129,705.807,316.129z"/>
	<rect x="660.646" y="270.968" width="63.227" height="18.064"/>
	
		<rect x="598.49" y="120.863" transform="matrix(-0.7071 0.7071 -0.7071 -0.7071 1167.502 -223.8023)" width="63.224" height="18.063"/>
</g>
<g>
	<rect x="470.968" y="99.355" fill="#F0BC5E" width="18.064" height="36.129"/>
	
		<rect x="355.999" y="146.975" transform="matrix(-0.7071 0.7071 -0.7071 -0.7071 739.8464 23.6242)" fill="#F0BC5E" width="18.064" height="36.129"/>
	<rect x="299.355" y="270.968" fill="#F0BC5E" width="36.129" height="18.064"/>
	
		<rect x="356.006" y="376.906" transform="matrix(0.7071 0.7071 -0.7071 0.7071 386.2038 -142.437)" fill="#F0BC5E" width="18.064" height="36.129"/>
	
		<rect x="585.91" y="376.897" transform="matrix(0.7071 -0.7071 0.7071 0.7071 -105.0249 536.3691)" fill="#F0BC5E" width="18.064" height="36.129"/>
	<rect x="624.517" y="270.968" fill="#F0BC5E" width="36.13" height="18.064"/>
	
		<rect x="585.928" y="146.966" transform="matrix(-0.7071 -0.7071 0.7071 -0.7071 898.9763 702.4191)" fill="#F0BC5E" width="18.064" height="36.129"/>
</g>
</svg>
