<svg height="496pt" viewBox="0 0 496 496" width="496pt" xmlns="http://www.w3.org/2000/svg"><path d="m328 144h16v16h-16zm0 0"/><path d="m360 144h16v16h-16zm0 0"/><path d="m416 112h-80c-4.414062 0-8-3.585938-8-8s3.585938-8 8-8h40c13.230469 0 24-10.769531 24-24s-10.769531-24-24-24h-32v16h32c4.414062 0 8 3.585938 8 8s-3.585938 8-8 8h-40c-13.230469 0-24 10.769531-24 24s10.769531 24 24 24h80c4.414062 0 8 3.585938 8 8s-3.585938 8-8 8h-24v16h24c13.230469 0 24-10.769531 24-24s-10.769531-24-24-24zm0 0"/><path d="m468.046875 162.054688c7.578125-15.085938 11.953125-32.054688 11.953125-50.054688 0-61.761719-50.238281-112-112-112s-112 50.238281-112 112c0 17.191406 4.007812 33.425781 10.960938 48h-82.960938v16h92.214844c20.265625 28.976562 53.816406 48 91.785156 48 37.800781 0 71.222656-18.878906 91.511719-47.648438 11.558593 1.71875 20.488281 11.617188 20.488281 23.648438v24h-241.0625c-5.265625-15.574219-30.570312-27.304688-70-31.945312l-1.875 15.890624c40.234375 4.734376 56.9375 16.824219 56.9375 22.230469 0 8.152344-31.0625 24-88 24s-88-15.847656-88-24c0-5.414062 16.703125-17.503906 56.9375-22.230469l-1.875-15.890624c-39.429688 4.640624-64.734375 16.371093-70 31.945312h-17.0625v-24c0-13.230469 10.769531-24 24-24h48v-16h-48c-22.054688 0-40 17.945312-40 40v194.742188c0 10.691406 4.167969 20.738281 11.71875 28.289062l61.25 61.25c7.550781 7.550781 17.597656 11.71875 28.289062 11.71875h293.484376c10.691406 0 20.738281-4.167969 28.289062-11.71875l61.25-61.25c7.550781-7.550781 11.71875-17.597656 11.71875-28.289062v-194.742188c0-17.832031-11.808594-32.792969-27.953125-37.945312zm-100.046875 45.945312c-35.441406 0-66.382812-19.351562-83.015625-48h27.015625v-16h-34.398438c-3.5625-10.023438-5.601562-20.769531-5.601562-32 0-17.496094 4.777344-33.863281 12.984375-48h43.015625v-16h-31.351562c17.582031-19.585938 43.015624-32 71.351562-32 52.9375 0 96 43.0625 96 96s-43.0625 96-96 96zm64 112h48v48h-48zm0-16v-64h48v64zm-16-64v176h-128v-176zm-336 24.351562c14.550781 3.335938 31.160156 5.234376 48 5.695313v49.953125h-48zm-16 103.648438h-48v-48h48zm16 0h48v48h-48zm96 64v48h-48v-48zm80-192h16v80h-16zm16 176h-96v-48h96zm-80 16h48v48h-48zm64 0h48v48h-48zm64 0h48v48h-48zm-82.726562-192h2.726562v96h32v16h-112v64h-16v-64h-64v-16h64v-65.953125c5.382812-.144531 10.71875-.460937 16-.902344v66.855469h64v-83.558594c6.007812-3.617187 10.609375-7.753906 13.273438-12.441406zm-61.273438 27.3125c11.695312-1.726562 22.617188-4.234375 32-7.519531v60.207031h-32zm-141.273438-27.3125c4.707032 8.265625 15.265626 14.886719 29.273438 19.792969v44.207031h-48v-64zm49.554688 232.96875-61.25-61.25c-4.535156-4.535156-7.03125-10.558594-7.03125-16.976562v-10.742188h48v32c0 8.824219 7.175781 16 16 16h32v48h-10.742188c-6.417968 0-12.441406-2.496094-16.976562-7.03125zm388.6875-61.25-61.25 61.25c-4.535156 4.535156-10.558594 7.03125-16.976562 7.03125h-10.742188v-48h32c8.824219 0 16-7.175781 16-16v-32h48v10.742188c0 6.417968-2.496094 12.441406-7.03125 16.976562zm0 0"/><path d="m32 272h16v16h-16zm0 0"/><path d="m32 336h16v16h-16zm0 0"/><path d="m208 448h16v16h-16zm0 0"/><path d="m144 448h16v16h-16zm0 0"/><path d="m272 448h16v16h-16zm0 0"/><path d="m336 448h16v16h-16zm0 0"/><path d="m136 240c-7.726562 0-15-4.121094-18.976562-10.742188l-56.488282-94.136718c-8.199218-13.664063-12.535156-29.320313-12.535156-45.28125v-1.839844c0-48.519531 39.480469-88 88-88s88 39.480469 88 88v1.839844c0 15.953125-4.335938 31.609375-12.535156 45.273437l-56.488282 94.144531c-3.976562 6.621094-11.25 10.742188-18.976562 10.742188zm0 0" fill="#f0bc5e"/><path d="m448 272h16v16h-16zm0 0"/><path d="m448 336h16v16h-16zm0 0"/><path d="m400 319.601562h-96v-47.601562h96zm0 0" fill="#f0bc5e"/><path d="m400 383.800781h-96v-47.59375h96zm0 0" fill="#f0bc5e"/><path d="m136 144c11.664062 0 22.871094-3.59375 32.425781-10.390625l-9.28125-13.035156c-6.824219 4.859375-14.824219 7.425781-23.144531 7.425781-22.054688 0-40-17.945312-40-40 0-8.320312 2.566406-16.320312 7.425781-23.144531l-13.035156-9.28125c-6.796875 9.554687-10.390625 20.761719-10.390625 32.425781 0 30.871094 25.128906 56 56 56zm0 0"/><path d="m136 48c22.054688 0 40 17.945312 40 40 0 8.320312-2.566406 16.320312-7.425781 23.144531l13.035156 9.28125c6.796875-9.554687 10.390625-20.761719 10.390625-32.425781 0-30.871094-25.128906-56-56-56-11.664062 0-22.871094 3.59375-32.425781 10.390625l9.28125 13.035156c6.824219-4.859375 14.824219-7.425781 23.144531-7.425781zm0 0"/></svg>