<svg id="Layer_35" enable-background="new 0 0 64 64" height="512" viewBox="0 0 64 64" width="512" xmlns="http://www.w3.org/2000/svg"><path d="m15.181 37-.638-3.821c-.403-2.422-2.478-4.179-4.932-4.179h-4.412c-.762 1.415-1.199 3.025-1.199 4.729v3.271z" fill="#f0bc5e"/><path d="m50.151 1c-3.548 0-6.982 1.475-9.424 4.046l-15.21 16.011-13.003 1.773c-5.424.739-9.514 5.424-9.514 10.899v7.456c-1.161.413-2 1.513-2 2.815v2c0 1.654 1.346 3 3 3h16v-2h-2.949c.522-8.908 7.913-16 16.949-16s16.427 7.092 16.949 16h-2.949v2h15v-48zm-46.151 46c-.552 0-1-.448-1-1v-2c0-.552.448-1 1-1h11.69c-.352 1.285-.567 2.622-.639 4zm57-22h-4v2h4v14h-5.22l-.173-.69c-2.17-8.689-9.742-14.852-18.607-15.286v-2.024h3 21zm-24-4v-3c0-.551.448-1 1-1h4c.552 0 1 .449 1 1 0 1.654-1.346 3-3 3zm24 0h-17.026c.635-.838 1.026-1.87 1.026-3 0-1.654-1.346-3-3-3h-1.893l5.848-6.379c.943-1.03 2.286-1.621 3.685-1.621h11.36zm0-16h-11.36c-1.958 0-3.839.828-5.16 2.27l-7.166 7.817c-1.324.312-2.314 1.496-2.314 2.913v9h1c8.372 0 15.638 5.672 17.668 13.795l.552 2.205h6.78v4h-8.051c-.525-10.011-8.81-18-18.949-18-8.003 0-14.852 4.981-17.647 12h-11.353v-7.271c0-4.479 3.346-8.312 7.783-8.917l13.7-1.868 15.694-16.52c2.066-2.176 4.972-3.424 7.974-3.424h10.849z"/><path d="m34 63c-8.271 0-15-6.729-15-15s6.729-15 15-15 15 6.729 15 15-6.729 15-15 15zm0-25c-5.514 0-10 4.486-10 10s4.486 10 10 10 10-4.486 10-10-4.486-10-10-10z" fill="#f0bc5e"/><path d="m34 37c-6.065 0-11 4.935-11 11s4.935 11 11 11 11-4.935 11-11-4.935-11-11-11zm8.941 10h-6.125c-.302-.847-.969-1.514-1.816-1.816v-6.125c4.165.463 7.478 3.776 7.941 7.941zm-8.941 2c-.552 0-1-.448-1-1s.448-1 1-1 1 .448 1 1-.448 1-1 1zm-1-9.941v6.125c-.847.302-1.514.969-1.816 1.816h-6.125c.463-4.165 3.776-7.478 7.941-7.941zm-7.941 9.941h6.125c.302.847.969 1.514 1.816 1.816v6.125c-4.165-.463-7.478-3.776-7.941-7.941zm9.941 7.941v-6.125c.847-.302 1.514-.969 1.816-1.816h6.125c-.463 4.165-3.776 7.478-7.941 7.941z"/></svg>