<?xml version="1.0" encoding="utf-8"?>
<!-- Generator: Adobe Illustrator 16.0.0, SVG Export Plug-In . SVG Version: 6.00 Build 0)  -->
<!DOCTYPE svg PUBLIC "-//W3C//DTD SVG 1.1//EN" "http://www.w3.org/Graphics/SVG/1.1/DTD/svg11.dtd">
<svg version="1.1" id="Capa_1" xmlns="http://www.w3.org/2000/svg" xmlns:xlink="http://www.w3.org/1999/xlink" x="0px" y="0px"
	 width="560px" height="560px" viewBox="200 0 560 560" enable-background="new 200 0 560 560" xml:space="preserve">
<g>
	<path d="M425.807,27.097h-28.244C393.552,11.525,379.381,0,362.581,0h-72.258c-16.8,0-30.972,11.525-34.982,27.097h-28.244
		c-14.94,0-27.097,12.157-27.097,27.096v54.194c0,14.939,12.157,27.097,27.097,27.097h28.244
		c4.01,15.572,18.182,27.097,34.982,27.097v225.806h18.064V162.581h36.129v225.806h18.064V162.581
		c16.8,0,30.972-11.525,34.982-27.097h28.244c14.939,0,27.098-12.157,27.098-27.097V54.193
		C452.903,39.254,440.746,27.097,425.807,27.097z M434.839,108.387c0,4.986-4.047,9.032-9.032,9.032h-45.162v9.032
		c0,9.962-8.102,18.064-18.064,18.064h-72.258c-9.963,0-18.065-8.102-18.065-18.064v-9.032h-45.161
		c-4.986,0-9.032-4.046-9.032-9.032V54.193c0-4.985,4.046-9.032,9.032-9.032h45.161v-9.032c0-9.962,8.102-18.064,18.065-18.064
		h72.258c9.962,0,18.064,8.102,18.064,18.064v9.032h45.162c4.985,0,9.032,4.047,9.032,9.032V108.387z"/>
	<path d="M741.366,38.532C695.997,13.323,644.586,0,592.695,0h-58.502c-14.939,0-27.098,12.157-27.098,27.097v72.258
		c0,14.939,12.157,27.097,27.098,27.097h27.097v280h18.064v-280h14.145c7.354,0,14.688-0.28,21.984-0.804v280.803h18.064V123.742
		c43.255-5.7,84.912-20.513,122.206-43.834L760,77.271V48.874L741.366,38.532z M741.936,67.2
		c-44.826,26.961-96.04,41.187-148.437,41.187h-59.306c-4.985,0-9.032-4.046-9.032-9.032V27.097c0-4.986,4.047-9.032,9.032-9.032
		h58.502c48.829,0,97.214,12.537,139.899,36.255l9.34,5.194L741.936,67.2L741.936,67.2z"/>
	<path d="M597.266,54.229c26.745,0.425,53.281,4.57,78.889,12.32l5.238-17.288c-27.215-8.237-55.422-12.645-83.847-13.097
		L597.266,54.229z"/>
	<rect x="561.29" y="36.129" width="18.064" height="18.064"/>
	<rect x="254.193" y="63.226" width="18.064" height="36.129"/>
	<rect x="380.645" y="63.226" width="18.064" height="36.129"/>
</g>
<g>
	<path fill="#F0BC5E" d="M353.548,560h-54.193c-14.939,0-27.097-12.157-27.097-27.097V406.451c0-14.938,12.158-27.098,27.097-27.098
		h54.193c14.939,0,27.097,12.158,27.097,27.098v126.452C380.645,547.843,368.488,560,353.548,560z"/>
	<path fill="#F0BC5E" d="M624.517,560h-54.193c-14.939,0-27.098-12.157-27.098-27.097V424.516c0-14.938,12.157-27.097,27.098-27.097
		h54.193c14.938,0,27.098,12.158,27.098,27.097v108.389C651.613,547.843,639.455,560,624.517,560z"/>
</g>
<g>
	<rect x="326.452" y="505.807" width="18.064" height="18.064"/>
	<rect x="326.452" y="415.483" width="18.064" height="72.259"/>
	<rect x="543.226" y="433.549" width="108.389" height="18.064"/>
	<rect x="543.226" y="469.678" width="108.389" height="18.064"/>
	<rect x="543.226" y="505.807" width="54.193" height="18.064"/>
	<rect x="615.483" y="505.807" width="36.13" height="18.064"/>
</g>
</svg>
