<svg height="496pt" viewBox="-72 0 496 496" width="496pt" xmlns="http://www.w3.org/2000/svg"><path d="m280 464h-88c-8.824219 0-16-7.175781-16-16v-73.375c0-2.105469-.847656-4.167969-2.34375-5.65625l-46.625-46.625c-4.535156-4.527344-7.03125-10.558594-7.03125-16.96875v-137.375c0-13.230469 10.769531-24 24-24h128c13.230469 0 24 10.769531 24 24v280c0 8.824219-7.175781 16-16 16zm0 0" fill="#f0bc5e"/><path d="m328 0h-240c-10.96875 0-20.136719 7.441406-22.992188 17.503906l-65.007812 16.25v44.492188l65.007812 16.25c2.855469 10.0625 12.023438 17.503906 22.992188 17.503906h25.191406l-4.175781 3.34375c-13.351563 10.679688-21.015625 26.625-21.015625 43.726562v172.242188l52.238281 52.238281c2.425781 2.425781 3.761719 5.648438 3.769531 9.082031v2.976563c0 3.300781-1.289062 6.414063-3.625 8.757813-5.109374 5.105468-15.503906 4.511718-19.910156-2.085938l-12.191406-18.28125h-20.28125v72c0 22.054688 17.945312 40 40 40h160c22.054688 0 40-17.945312 40-40v-296.929688c0-17.101562-7.664062-33.046874-21.015625-43.726562l-4.175781-3.34375h25.191406c13.230469 0 24-10.769531 24-24v-64c0-13.230469-10.769531-24-24-24zm-312 46.246094 48-12v43.507812l-48-12zm288 49.753906h-16v-32h8c4.414062 0 8 3.59375 8 8zm-32 0h-16v-32h16zm-32 0h-16v-32h16zm-32 0h-16v-32h16zm-32 0h-16v-32h16zm-32 0h-16v-24c0-4.40625 3.585938-8 8-8h8zm152.984375 31.832031c9.542969 7.640625 15.015625 19.015625 15.015625 31.238281v296.929688c0 13.230469-10.769531 24-24 24h-160c-13.230469 0-24-10.769531-24-24v-49.574219l3.160156 4.734375c5.351563 8.03125 14.351563 12.839844 24.449219 12.839844 7.582031 0 14.71875-2.953125 20.085937-8.320312 5.367188-5.359376 8.320313-12.496094 8.3125-20.078126v-2.976562c-.007812-7.703125-3.015624-14.945312-8.457031-20.386719l-47.550781-47.550781v-165.617188c0-12.214843 5.472656-23.597656 15.015625-31.230468l19.792969-15.839844h138.382812zm39.015625-39.832031c0 4.40625-3.585938 8-8 8h-8v-24c0-13.230469-10.769531-24-24-24h-160c-13.230469 0-24 10.769531-24 24v24h-24c-4.414062 0-8-3.59375-8-8v-64c0-4.40625 3.585938-8 8-8h240c4.414062 0 8 3.59375 8 8zm0 0"/><path d="m264 176h-112v64h112zm-16 48h-80v-32h80zm0 0"/><path d="m248 256h16v16h-16zm0 0"/><path d="m216 256h16v16h-16zm0 0"/><path d="m184 256h16v16h-16zm0 0"/><path d="m152 256h16v16h-16zm0 0"/><path d="m216 432h48v-144h-48zm16-16v-16h16v16zm16-48v16h-16v-16zm-16-16v-16h16v16zm16-48v16h-16v-16zm0 0"/></svg>