<?xml version="1.0" encoding="utf-8"?>
<!-- Generator: Adobe Illustrator 16.0.0, SVG Export Plug-In . SVG Version: 6.00 Build 0)  -->
<!DOCTYPE svg PUBLIC "-//W3C//DTD SVG 1.1//EN" "http://www.w3.org/Graphics/SVG/1.1/DTD/svg11.dtd">
<svg version="1.1" id="Capa_1" xmlns="http://www.w3.org/2000/svg" xmlns:xlink="http://www.w3.org/1999/xlink" x="0px" y="0px"
	 width="560px" height="560px" viewBox="200 0 560 560" enable-background="new 200 0 560 560" xml:space="preserve">
<g>
	<rect x="227.097" y="352.258" fill="#F0BC5E" width="54.194" height="18.064"/>
	<rect x="227.097" y="316.129" fill="#F0BC5E" width="54.194" height="18.064"/>
	<rect x="227.097" y="216.774" fill="#F0BC5E" width="54.194" height="18.064"/>
	<rect x="227.097" y="180.645" fill="#F0BC5E" width="54.194" height="18.064"/>
	<rect x="534.193" y="72.258" fill="#F0BC5E" width="54.192" height="18.065"/>
	<rect x="534.193" y="289.032" fill="#F0BC5E" width="54.192" height="18.063"/>
</g>
<g>
	<path d="M290.323,73.92V0h-72.258v73.92C207.578,77.659,200,87.595,200,99.355c0,6.964,2.719,13.259,7.045,18.064
		c-4.326,4.805-7.045,11.101-7.045,18.064c0,11.76,7.578,21.695,18.064,25.435v229.139C207.578,393.788,200,403.724,200,415.483
		c0,6.964,2.719,13.26,7.045,18.064c-4.326,4.805-7.045,11.102-7.045,18.064c0,11.76,7.578,21.694,18.064,25.435v21.189L238.649,560
		h31.08l20.594-61.763v-21.189c10.486-3.739,18.064-13.675,18.064-25.435c0-6.964-2.719-13.261-7.045-18.064
		c4.335-4.806,7.045-11.102,7.045-18.064c0-11.761-7.578-21.695-18.064-25.436v-229.13c10.486-3.74,18.064-13.675,18.064-25.435
		c0-6.964-2.719-13.259-7.045-18.064c4.335-4.805,7.045-11.101,7.045-18.064C308.387,87.595,300.809,77.659,290.323,73.92z
		 M272.258,18.064v54.193h-36.129V18.064H272.258z M227.097,90.323h54.194c4.977,0,9.032,4.046,9.032,9.032
		s-4.056,9.032-9.032,9.032h-54.194c-4.977,0-9.032-4.046-9.032-9.032S222.12,90.323,227.097,90.323z M236.129,388.387V162.581
		h36.129v225.806H236.129z M256.713,541.936h-5.04l-15.544-46.625V478.71h36.129v16.601L256.713,541.936z M281.291,460.646h-54.194
		c-4.977,0-9.032-4.048-9.032-9.032c0-4.986,4.056-9.032,9.032-9.032h18.064v-18.065h-18.064c-4.977,0-9.032-4.046-9.032-9.031
		s4.056-9.032,9.032-9.032h54.194c4.977,0,9.032,4.047,9.032,9.032s-4.056,9.031-9.032,9.031h-18.065v18.065h18.065
		c4.977,0,9.032,4.046,9.032,9.032C290.323,456.599,286.267,460.646,281.291,460.646z M281.291,144.516h-54.194
		c-4.977,0-9.032-4.046-9.032-9.032c0-4.986,4.056-9.032,9.032-9.032h54.194c4.977,0,9.032,4.046,9.032,9.032
		C290.323,140.47,286.267,144.516,281.291,144.516z"/>
	<path d="M597.419,0h-72.258v108.387h-18.064v54.193h18.064v164.243c-10.486,3.739-18.064,13.675-18.064,25.435
		s7.578,21.695,18.064,25.437v39.462c-10.486,3.738-18.064,13.675-18.064,25.435v36.129c0,11.761,7.578,21.695,18.064,25.436v28.75
		c0,14.938,12.157,27.097,27.097,27.097h18.064c14.938,0,27.097-12.157,27.097-27.097v-28.759
		c10.486-3.739,18.064-13.676,18.064-25.436v-36.129c0-11.761-7.578-21.696-18.064-25.436v-39.463
		c10.486-3.738,18.064-13.675,18.064-25.435s-7.578-21.695-18.064-25.435V162.581h18.064v-54.193h-18.064V0z M543.226,18.064h36.13
		v90.323h-36.13V18.064z M543.226,415.483v-36.13h36.13v36.13H543.226z M570.322,541.936h-18.064c-4.977,0-9.032-4.047-9.032-9.031
		v-27.098h36.13v27.098C579.354,537.889,575.3,541.936,570.322,541.936z M597.419,478.71c0,4.985-4.055,9.032-9.032,9.032h-54.192
		c-4.978,0-9.032-4.047-9.032-9.032v-36.129c0-4.986,4.056-9.032,9.032-9.032h54.192c4.979,0,9.032,4.046,9.032,9.032V478.71z
		 M588.387,361.29h-54.192c-4.978,0-9.032-4.046-9.032-9.032c0-4.984,4.056-9.032,9.032-9.032h54.192
		c4.979,0,9.032,4.048,9.032,9.032C597.419,357.244,593.364,361.29,588.387,361.29z M579.354,325.161h-36.13v-162.58h36.13V325.161z
		 M597.419,144.516h-72.258v-18.064h72.258V144.516z"/>
	<path d="M760,54.193h-18.064V27.097C741.936,12.157,729.778,0,714.839,0h-18.063c-14.939,0-27.098,12.157-27.098,27.097v27.097
		h-18.063v54.194h10.692c-1.011,2.836-1.661,5.853-1.661,9.032v81.29h9.032v162.58h-9.032v81.291c0,3.179,0.65,6.195,1.661,9.032
		h-10.692v54.192h18.063v27.098c0,14.938,12.157,27.097,27.098,27.097h18.063c14.939,0,27.097-12.157,27.097-27.097v-27.098H760
		v-54.192h-10.694c1.013-2.837,1.662-5.854,1.662-9.032V361.29h-9.031V198.709h9.031v-81.29c0-3.179-0.649-6.196-1.662-9.032H760
		V54.193z M669.678,72.258h27.098V54.193h-9.032V27.097c0-4.986,4.056-9.032,9.032-9.032h18.063c4.978,0,9.032,4.046,9.032,9.032
		v27.097h-9.032v18.064h27.097v18.065h-18.063h-36.129h-18.064L669.678,72.258L669.678,72.258z M723.871,532.903
		c0,4.984-4.056,9.031-9.032,9.031h-18.063c-4.978,0-9.032-4.047-9.032-9.031v-27.098h36.129L723.871,532.903L723.871,532.903z
		 M741.936,487.742h-72.258v-18.064h18.064h36.129h18.063L741.936,487.742L741.936,487.742z M687.742,451.613
		c-4.979,0-9.032-4.047-9.032-9.032v-63.228h54.193v63.228c0,4.985-4.057,9.032-9.032,9.032H687.742z M723.871,361.29h-36.129
		V198.709h36.129V361.29z M732.903,117.419v63.226H678.71v-63.226c0-4.986,4.055-9.032,9.032-9.032h36.129
		C728.848,108.387,732.903,112.434,732.903,117.419z"/>
	<path d="M443.871,27.097C443.871,12.157,431.714,0,416.774,0h-18.065c-14.939,0-27.097,12.157-27.097,27.097v27.097h-18.064v54.194
		h10.694c-1.012,2.836-1.662,5.853-1.662,9.032v81.29h9.032v162.58h-9.032v81.291c0,3.179,0.65,6.195,1.662,9.032h-10.694v54.192
		h20.584L392.197,560h31.081l18.063-54.193h20.594v-54.192h-10.693c1.012-2.837,1.662-5.854,1.662-9.032V361.29h-9.032V198.709
		h9.032v-81.29c0-3.179-0.65-6.196-1.662-9.032h10.693V54.193h-18.063V27.097L443.871,27.097z M389.677,27.097
		c0-4.986,4.056-9.032,9.032-9.032h18.065c4.977,0,9.032,4.046,9.032,9.032v27.097h-36.128L389.677,27.097L389.677,27.097z
		 M371.613,72.258h72.258v18.065h-18.064h-36.128h-18.064V72.258H371.613z M410.262,541.936h-5.049l-12.04-36.129h29.129
		L410.262,541.936z M443.871,487.742h-72.258v-18.064h18.064h36.129h18.064L443.871,487.742L443.871,487.742z M389.677,451.613
		c-4.977,0-9.032-4.047-9.032-9.032v-63.228h54.194v63.228c0,4.985-4.056,9.032-9.032,9.032H389.677z M425.807,361.29h-36.128
		V198.709h36.128V361.29z M434.839,117.419v63.226h-54.194v-63.226c0-4.986,4.056-9.032,9.032-9.032h36.129
		C430.783,108.387,434.839,112.434,434.839,117.419z"/>
</g>
<g>
	<rect x="380.645" y="144.516" fill="#F0BC5E" width="54.194" height="18.064"/>
	<rect x="678.71" y="397.419" fill="#F0BC5E" width="54.193" height="18.064"/>
	<rect x="678.71" y="144.516" fill="#F0BC5E" width="54.193" height="18.064"/>
	<rect x="380.645" y="397.419" fill="#F0BC5E" width="54.194" height="18.064"/>
</g>
</svg>
