<?xml version="1.0" encoding="utf-8"?>
<!-- Generator: Adobe Illustrator 16.0.0, SVG Export Plug-In . SVG Version: 6.00 Build 0)  -->
<!DOCTYPE svg PUBLIC "-//W3C//DTD SVG 1.1//EN" "http://www.w3.org/Graphics/SVG/1.1/DTD/svg11.dtd">
<svg version="1.1" id="Capa_1" xmlns="http://www.w3.org/2000/svg" xmlns:xlink="http://www.w3.org/1999/xlink" x="0px" y="0px"
	 width="512px" height="512px" viewBox="0 0 512 512" enable-background="new 0 0 512 512" xml:space="preserve">
<rect x="216.44" y="231.469" fill="#F0BC5E" stroke="#000000" stroke-miterlimit="10" width="44.06" height="32.531"/>
<g id="Out_line">
	<path d="M496,152v-16h-72c-2.122,0-4.156,0.843-5.657,2.343L340.687,216H248c-22.081,0.025-39.975,17.919-40,40v32h-16
		c-4.418,0-8,3.582-8,8v48c0,4.418,3.582,8,8,8h88c4.418,0,8-3.582,8-8v-16c0-39.765,32.235-72,72-72s72,32.235,72,72v16
		c0,4.418,3.582,8,8,8h56v-16h-48v-8c-0.057-45.479-34.715-83.443-80-87.633V232h128v-16h-80v-24c0-4.418-3.582-8-8-8h-12.686
		l31.999-32H496z M243.706,232.393l15.236,25.392L224,262.775V256C224.017,244.409,232.304,234.48,243.706,232.393z M248,336h-48
		v-32h48V336z M272,328v8h-8v-40c0-4.418-3.582-8-8-8h-32v-9.062l49.132-7.019c4.374-0.625,7.413-4.678,6.788-9.053
		c-0.15-1.055-0.512-2.069-1.06-2.983L262.13,232H352v8.367C306.715,244.557,272.057,282.521,272,328z M400,200v16h-36.686l16-16
		H400z"/>
	<path d="M360,264c-35.346,0-64,28.654-64,64c0,35.347,28.654,64,64,64s64-28.653,64-64C423.96,292.67,395.33,264.039,360,264z
		 M407.32,336c-1.204,7.134-4.015,13.899-8.219,19.787l-10.817-10.817l-11.314,11.314l10.817,10.817
		c-5.887,4.204-12.654,7.015-19.787,8.219V360h-16v15.32c-7.133-1.204-13.9-4.015-19.787-8.219l10.817-10.817l-11.314-11.314
		l-10.817,10.817c-4.204-5.888-7.015-12.653-8.219-19.787H328v-16h-15.32c1.204-7.134,4.015-13.899,8.219-19.787l10.817,10.817
		l11.314-11.314l-10.817-10.817c5.887-4.204,12.654-7.015,19.787-8.219V296h16v-15.32c7.133,1.204,13.9,4.015,19.787,8.219
		l-10.817,10.817l11.314,11.314l10.817-10.817c4.204,5.888,7.015,12.653,8.219,19.787H392v16H407.32z"/>
	<path d="M464,248h32v16h-32V248z"/>
	<path d="M360,304c-13.255,0-24,10.745-24,24s10.745,24,24,24s24-10.745,24-24C383.984,314.751,373.248,304.016,360,304z M360,336
		c-4.418,0-8-3.582-8-8s3.582-8,8-8s8,3.582,8,8C367.995,332.416,364.416,335.995,360,336z"/>
	<path d="M21.412,312.505l168.057-55.96l5.056,15.186L26.468,327.689L21.412,312.505z"/>
	<path d="M85.44,259.176l48.016-15.989l5.057,15.184L90.497,274.36L85.44,259.176z"/>
	<path d="M21.415,280.502l48.016-15.988l5.057,15.186l-48.016,15.988L21.415,280.502z"/>
	<path d="M20.369,135.184l7.152-14.304l175.916,87.958l-7.152,14.304L20.369,135.184z"/>
	<path d="M20.348,175.14l7.152-14.304l47.977,23.989l-7.152,14.304L20.348,175.14z"/>
	<path d="M84.653,207.48l7.152-14.304l47.978,23.989l-7.152,14.304L84.653,207.48z"/>
</g>
</svg>
