<?xml version="1.0" encoding="utf-8"?>
<!-- Generator: Adobe Illustrator 16.0.0, SVG Export Plug-In . SVG Version: 6.00 Build 0)  -->
<!DOCTYPE svg PUBLIC "-//W3C//DTD SVG 1.1//EN" "http://www.w3.org/Graphics/SVG/1.1/DTD/svg11.dtd">
<svg version="1.1" id="Capa_1" xmlns="http://www.w3.org/2000/svg" xmlns:xlink="http://www.w3.org/1999/xlink" x="0px" y="0px"
	 width="512px" height="512px" viewBox="0 0 512 512" enable-background="new 0 0 512 512" xml:space="preserve">
<polygon fill="#F0BC5E" points="399.806,163.016 443.733,185.351 415.289,230.4 68.6,229.287 112.32,179.2 235.268,172.473 "/>
<polygon fill="#F0BC5E" points="171.5,230.4 68.267,230.4 68.267,193.884 127.661,172.263 "/>
<polygon fill="#F0BC5E" points="420.978,225.252 443.733,208.186 449.422,180.203 380.531,172.303 "/>
<circle fill="#FFFFFF" stroke="#000000" stroke-miterlimit="10" cx="136.34" cy="239.643" r="32.457"/>
<circle fill="#FFFFFF" stroke="#000000" stroke-miterlimit="10" cx="367.34" cy="240.643" r="32.457"/>
<path d="M225.666,112.367l-74.649,49.766h-40.083c-0.917,0-1.829,0.148-2.699,0.438l-51.2,17.066
	c-3.484,1.162-5.834,4.422-5.834,8.095v51.2c0,4.712,3.821,8.533,8.533,8.533h34.992c4.704,23.09,27.235,37.994,50.324,33.291
	c16.769-3.416,29.875-16.521,33.292-33.291h146.795c0.023,0.121,0.042,0.241,0.067,0.361c4.197,19.66,21.54,33.73,41.644,33.787
	c3.018-0.002,6.028-0.321,8.98-0.953c16.592-3.545,29.513-16.574,32.918-33.195h9.387c1.847,0,3.644-0.599,5.12-1.707l34.134-25.6
	c2.148-1.612,3.413-4.141,3.413-6.827V179.2c0-3.673-2.35-6.934-5.834-8.095l-24.517-8.171l-75.849-50.566
	c-1.401-0.936-3.049-1.434-4.733-1.434H230.4C228.715,110.934,227.068,111.432,225.666,112.367z M136.533,264.533
	c-14.139,0-25.6-11.461-25.6-25.6s11.461-25.6,25.6-25.6s25.6,11.461,25.6,25.6C162.117,253.064,150.665,264.518,136.533,264.533z
	 M178.347,230.4c-4.704-23.09-27.235-37.995-50.324-33.292c-16.77,3.417-29.875,16.522-33.292,33.292H68.267v-17.066h17.067v-17.067
	H68.267v-2.383L112.32,179.2h160.747v22.755L251.733,230.4H178.347z M388.417,252.864c-7.694,11.861-23.548,15.239-35.409,7.546
	c-11.861-7.694-15.239-23.548-7.545-35.41c3.693-5.695,9.498-9.689,16.137-11.105c1.771-0.379,3.577-0.57,5.389-0.571
	c14.143,0.032,25.58,11.523,25.549,25.667c-0.012,4.925-1.443,9.741-4.122,13.873H388.417z M421.938,177.771
	c0.63,0.421,1.314,0.756,2.035,0.995l19.76,6.585v10.916h-17.066v17.067h11.378L415.289,230.4h-6.559
	c-0.024-0.121-0.043-0.241-0.068-0.361c-4.93-23.049-27.61-37.737-50.66-32.807c-16.574,3.546-29.48,16.563-32.882,33.168h-52.054
	l15.36-20.48c1.108-1.477,1.706-3.273,1.706-5.12v-25.6h59.734c0.917,0,1.828-0.148,2.698-0.438l47.24-15.746L421.938,177.771z
	 M315.733,128h31.55l34.532,23.022l-33.335,11.111h-32.747V128z M298.666,128v34.133H181.784l51.2-34.133H298.666z"/>
<path d="M506.493,94.421L259.026,0.555c-1.95-0.739-4.103-0.739-6.053,0L5.507,94.421C2.192,95.679,0,98.854,0,102.4v76.09
	c-0.051,155.513,103.804,291.896,253.731,333.203c1.484,0.41,3.053,0.41,4.538,0C408.196,470.386,512.05,334.003,512,178.49V102.4
	C512,98.854,509.808,95.679,506.493,94.421z M93.867,389.593c-3.296-3.935-6.508-7.946-9.635-12.036
	c-17.969-23.587-32.66-49.499-43.672-77.029l23.317,13.99c1.326,0.796,2.844,1.216,4.39,1.216h25.6V389.593z M494.934,178.49
	c0.05,146.96-97.534,276.068-238.934,316.116c-54.514-15.418-104.1-44.706-143.919-85.006h41.266l135.055,7.945
	c0.84,0.049,1.677,0.073,2.514,0.073c7.137,0.001,14.159-1.791,20.423-5.211l62.557-34.121c14.997-8.182,20.522-26.972,12.341-41.97
	c-0.712-1.304-1.516-2.555-2.408-3.742c-8.275-10.942-22.742-15.168-35.606-10.402l-32.533,12.201
	c0.031-0.52,0.047-1.044,0.047-1.571c-0.016-14.132-11.468-25.584-25.6-25.6H276.6l-23.1-23.101c-1.6-1.602-3.771-2.5-6.034-2.5
	h-59.733c-1.325,0-2.632,0.308-3.817,0.9l-32.33,16.165h-80.96l-38.998-23.401c-9.669-31.348-14.577-63.971-14.561-96.776v-70.201
	L256,17.66l238.934,90.629V178.49z M110.934,392.533v-76.8h34.133v76.8H110.934z M203.266,341.333h16.017l23.45,15.634
	c1.401,0.936,3.048,1.434,4.734,1.434h51.199c1.023,0,2.039-0.184,2.997-0.543l52.554-19.708c7.172-2.685,15.162,0.953,17.848,8.127
	c2.419,6.464-0.284,13.723-6.342,17.03l-62.556,34.122c-4.208,2.295-8.976,3.362-13.761,3.081l-127.273-7.489v-80.547l27.615-13.807
	h54.187l23.1,23.101c1.6,1.6,3.77,2.499,6.031,2.499h17.066c4.713,0,8.533,3.821,8.533,8.533c0,4.713-3.82,8.533-8.533,8.533H250.05
	l-23.45-15.633c-1.401-0.936-3.048-1.434-4.734-1.434h-18.601c-4.712,0-8.533,3.821-8.533,8.533
	C194.733,337.513,198.554,341.333,203.266,341.333L203.266,341.333z"/>
<path d="M256,459.793l-47.383-23.691l-7.633,15.264l51.2,25.601c2.402,1.2,5.23,1.2,7.633,0l51.2-25.601l-7.634-15.264L256,459.793z
	"/>
<path d="M252.831,43.277l-42.667,17.066l6.338,15.847L256,60.391l39.498,15.799l6.338-15.847l-42.667-17.066
	C257.135,42.464,254.865,42.464,252.831,43.277z"/>
<rect x="109.66" y="315.733" fill="#F0BC5E" width="35.407" height="76.8"/>
</svg>
