<svg height="496pt" viewBox="0 0 496 496" width="496pt" xmlns="http://www.w3.org/2000/svg"><path d="m152 0c-83.816406 0-152 68.183594-152 152s68.183594 152 152 152c2.257812 0 4.488281-.152344 6.710938-.296875l2.28125-.152344-.921876-15.964843-2.445312.15625c-1.863281.121093-3.730469.257812-5.625.257812-74.992188 0-136-61.007812-136-136s61.007812-136 136-136 136 61.007812 136 136c0 15.390625-2.710938 30.785156-8.0625 45.734375l15.0625 5.394531c5.96875-16.695312 9-33.898437 9-51.128906 0-83.816406-68.183594-152-152-152zm0 0"/><path d="m152 32c-66.167969 0-120 53.832031-120 120 0 28.808594 10.457031 56.710938 29.433594 78.566406l12.078125-10.488281c-14.679688-16.910156-23.433594-38-25.152344-60.078125h31.640625v-16h-31.59375c.433594-5.609375 1.320312-11.078125 2.609375-16.398438l30.039063 9.757813 4.9375-15.214844-30.105469-9.777343c2.136719-5.152344 4.738281-10.046876 7.632812-14.75l25.519531 18.535156 9.410157-12.9375-25.554688-18.558594c3.601563-4.222656 7.53125-8.144531 11.746094-11.746094l18.558594 25.554688 12.9375-9.410156-18.535157-25.519532c4.695313-2.902344 9.597657-5.503906 14.75-7.632812l9.777344 30.105468 15.214844-4.9375-9.757812-30.039062c5.324218-1.289062 10.789062-2.175781 16.398437-2.605469v31.574219h16v-31.59375c5.609375.433594 11.078125 1.320312 16.398437 2.609375l-9.757812 30.039063 15.214844 4.9375 9.777344-30.105469c5.152343 2.136719 10.046874 4.738281 14.75 7.632812l-18.535157 25.519531 12.9375 9.410157 18.558594-25.554688c4.222656 3.601563 8.144531 7.53125 11.742187 11.746094l-25.550781 18.558594 9.410157 12.9375 25.519531-18.535157c2.902343 4.695313 5.503906 9.597657 7.628906 14.75l-30.101563 9.777344 4.933594 15.214844 30.042969-9.757812c1.285156 5.324218 2.175781 10.789062 2.605469 16.398437h-31.558594v16h31.65625c-1.207031 15.429687-5.863281 30.511719-13.71875 44.039063l13.839844 8.03125c10.613281-18.277344 16.222656-39.054688 16.222656-60.054688 0-66.167969-53.832031-120-120-120zm0 0"/><path d="m160 193.472656v-81.472656h-16v81.472656c-9.289062 3.3125-16 12.113282-16 22.527344 0 13.230469 10.769531 24 24 24s24-10.769531 24-24c0-10.414062-6.710938-19.214844-16-22.527344zm-8 30.527344c-4.414062 0-8-3.585938-8-8s3.585938-8 8-8 8 3.585938 8 8-3.585938 8-8 8zm0 0"/><path d="m472 120h-16v-16h16c4.414062 0 8-3.585938 8-8v-25.375c0-2.105469-.847656-4.167969-2.34375-5.65625l-27.3125-27.3125 11.3125-11.3125 27.3125 27.3125c4.535156 4.527344 7.03125 10.558594 7.03125 16.96875v25.375c0 13.230469-10.769531 24-24 24zm0 0"/><path d="m152 272c-28.808594 0-56.710938-10.457031-78.566406-29.433594l10.488281-12.078125c18.941406 16.449219 43.125 25.511719 68.078125 25.511719 8.046875 0 16.390625-1.046875 24.800781-3.113281l3.816407 15.546875c-9.65625 2.367187-19.28125 3.566406-28.617188 3.566406zm0 0"/><path d="m296 496c-83.816406 0-152-68.183594-152-152s68.183594-152 152-152 152 68.183594 152 152-68.183594 152-152 152zm0 0" fill="#f0bc5e"/><path d="m440 0h-80c-13.230469 0-24 10.769531-24 24v112h128v-112c0-13.230469-10.769531-24-24-24zm0 0" fill="#f0bc5e"/><path d="m480 176h-160v-24c0-13.230469 10.769531-24 24-24h112c13.230469 0 24 10.769531 24 24zm-144-16h128v-8c0-4.414062-3.585938-8-8-8h-112c-4.414062 0-8 3.585938-8 8zm0 0"/><path d="m432 80h-64v-48h64zm-48-16h32v-16h-32zm0 0"/><path d="m296 224c-66.167969 0-120 53.832031-120 120v8h64v-8c0-30.871094 25.128906-56 56-56 14.390625 0 27.488281 5.503906 37.414062 14.457031l-37.855468 113.582031c-13.023438.25-23.558594 10.882813-23.558594 23.960938 0 13.230469 10.769531 24 24 24s24-10.769531 24-24c0-7.664062-3.679688-14.433594-9.296875-18.824219l34.578125-103.734375c4.277344 7.910156 6.71875 16.949219 6.71875 26.558594v8h64v-8c0-66.167969-53.832031-120-120-120zm0 224c-4.414062 0-8-3.585938-8-8s3.585938-8 8-8 8 3.585938 8 8-3.585938 8-8 8zm71.550781-112c-1.574219-14.175781-7.328125-27.089844-15.933593-37.574219l7.96875-23.898437-15.171876-5.0625-5.574218 16.71875c-11.976563-8.894532-26.800782-14.183594-42.839844-14.183594-37 0-67.558594 28.046875-71.550781 64h-32.144531c4.101562-53.625 49.039062-96 103.695312-96s99.59375 42.375 103.695312 96zm0 0"/></svg>