<?xml version="1.0" encoding="utf-8"?>
<!-- Generator: Adobe Illustrator 16.0.0, SVG Export Plug-In . SVG Version: 6.00 Build 0)  -->
<!DOCTYPE svg PUBLIC "-//W3C//DTD SVG 1.1//EN" "http://www.w3.org/Graphics/SVG/1.1/DTD/svg11.dtd">
<svg version="1.1" id="Capa_1" xmlns="http://www.w3.org/2000/svg" xmlns:xlink="http://www.w3.org/1999/xlink" x="0px" y="0px"
	 width="560px" height="560px" viewBox="200 0 560 560" enable-background="new 200 0 560 560" xml:space="preserve">
<path fill="#F0BC5E" d="M525.161,252.903h-90.322v-36.129h90.322V252.903z"/>
<g>
	<path d="M714.839,162.581H552.258v-36.129h27.097V54.193H561.29V27.097C561.29,12.157,549.133,0,534.193,0h-36.13
		c-14.938,0-27.097,12.157-27.097,27.097v27.097h-90.323v72.258h27.097v36.129h-90.323v54.194h57.644l23.646,47.292v142.384
		c0,11.761,7.578,21.696,18.065,25.436v28.76c0,14.938,12.157,27.097,27.097,27.097h1.057L453.96,560h52.08l9.032-72.258h1.057
		c14.939,0,27.097-12.157,27.097-27.098v-28.759c10.486-3.738,18.064-13.675,18.064-25.436V270.968v-9.032v-10.911l153.549-36.129
		V162.581z M489.032,27.097c0-4.986,4.047-9.032,9.032-9.032h36.129c4.985,0,9.031,4.046,9.031,9.032v27.097h-54.192V27.097
		L489.032,27.097z M425.807,126.452h18.064v-18.064h-45.162v-36.13H561.29v36.129h-99.354v18.064h72.259v36.129H425.807V126.452z
		 M490.089,541.936h-20.178l-6.774-54.192h33.735L490.089,541.936z M543.226,406.451c0,4.985-4.046,9.032-9.031,9.032h-63.227
		v18.064h54.193v27.097c0,4.985-4.046,9.032-9.032,9.032h-72.258c-4.986,0-9.032-4.047-9.032-9.032v-27.097h18.064v-18.064h-27.098
		c-4.986,0-9.032-4.046-9.032-9.032V270.968h126.451L543.226,406.451L543.226,406.451z M543.226,236.717v16.186H413.324
		l-27.097-54.194h-50.743v-18.064h307.097v32.697L543.226,236.717z M696.774,200.588l-36.13,8.5v-28.443h36.13V200.588z"/>
	<path d="M308.387,252.903H281.29v-36.129h-18.065v36.129h-27.097v54.193H200v72.258h18.064v9.032
		c0,11.762,7.578,21.696,18.064,25.437v112.785L258.394,560h27.729l22.265-33.393V413.822c10.486-3.739,18.064-13.675,18.064-25.437
		v-9.032h18.064v-72.258h-36.129V252.903z M254.193,270.968h36.129v36.129h-36.129V270.968z M276.458,541.936h-8.4l-13.865-20.802
		V415.484h36.129v105.649L276.458,541.936z M326.452,361.29h-54.194v18.063h36.129v9.032c0,4.986-4.046,9.032-9.032,9.032h-54.194
		c-4.986,0-9.032-4.046-9.032-9.032v-9.032h18.064V361.29h-36.129v-36.129h108.387L326.452,361.29L326.452,361.29z"/>
	<path d="M760,343.226h-36.129v-54.192h-27.097v-36.129H678.71v36.129h-27.097v54.192h-36.13v72.259h18.064v9.031
		c0,11.762,7.577,21.696,18.064,25.437v67.028L673.128,560h29.229l21.515-43.029v-67.027c10.486-3.74,18.064-13.676,18.064-25.437
		v-9.032H760V343.226z M669.678,307.097h36.129v36.129h-36.129V307.097z M691.192,541.936h-6.9l-14.614-29.229v-61.094h36.129
		v61.094L691.192,541.936z M741.936,397.419h-54.192v18.064h36.129v9.031c0,4.986-4.047,9.033-9.032,9.033h-54.192
		c-4.986,0-9.032-4.047-9.032-9.033v-9.031h18.063v-18.064H633.55V361.29h108.388v36.129H741.936z"/>
</g>
<g>
	<rect x="218.064" y="325.161" fill="#F0BC5E" width="108.387" height="18.063"/>
	<rect x="416.774" y="289.032" fill="#F0BC5E" width="126.451" height="18.063"/>
	<rect x="633.549" y="361.29" fill="#F0BC5E" width="108.388" height="18.063"/>
</g>
</svg>
