<?xml version="1.0" encoding="utf-8"?>
<!-- Generator: Adobe Illustrator 16.0.0, SVG Export Plug-In . SVG Version: 6.00 Build 0)  -->
<!DOCTYPE svg PUBLIC "-//W3C//DTD SVG 1.1//EN" "http://www.w3.org/Graphics/SVG/1.1/DTD/svg11.dtd">
<svg version="1.1" id="Capa_1" xmlns="http://www.w3.org/2000/svg" xmlns:xlink="http://www.w3.org/1999/xlink" x="0px" y="0px"
	 width="496px" height="496px" viewBox="0 0 496 496" enable-background="new 0 0 496 496" xml:space="preserve">
<g>
	<path fill="#F0BC5E" d="M201.713,138.814v88.842h-22.21v-88.842H201.713z"/>
	<path fill="#F0BC5E" d="M246.134,138.814v88.842h-22.21v-88.842H246.134z"/>
	<path fill="#F0BC5E" d="M268.344,138.814h22.211v88.842h-22.211V138.814z"/>
	<path fill="#F0BC5E" d="M312.765,138.814h22.21v88.842h-22.21V138.814z"/>
	<path fill="#F0BC5E" d="M357.186,138.814h22.21v88.842h-22.21V138.814z"/>
	<path fill="#F0BC5E" d="M423.816,138.814v88.842h-22.21v-88.842H423.816z"/>
	<path fill="#F0BC5E" d="M468.237,138.814v88.842h-22.211v-88.842H468.237z"/>
	<path fill="#F0BC5E" d="M468.237,68.518v48.086h-22.211V48.141L468.237,68.518z"/>
	<path fill="#F0BC5E" d="M423.816,28.707v87.898h-22.21V27.763h17.88C420.986,27.763,422.482,28.096,423.816,28.707z"/>
	<path fill="#F0BC5E" d="M357.186,27.763h22.21v88.842h-22.21V27.763z"/>
	<path fill="#F0BC5E" d="M312.765,27.763h22.21v88.842h-22.21V27.763z"/>
	<path fill="#F0BC5E" d="M268.344,27.763h22.211v88.842h-22.211V27.763z"/>
	<path fill="#F0BC5E" d="M246.134,27.763v88.842h-22.21V27.763H246.134z"/>
	<path fill="#F0BC5E" d="M201.713,27.763v88.842h-22.21V27.763H201.713z"/>
</g>
<path d="M490.591,81.472l-59.807-54.815c-1.47-1.383-3.147-2.438-4.652-3.004c-2.077-0.944-4.37-1.442-6.646-1.442H239.364
	L233.811,0h-41.986l-5.553,22.21h-17.875c-9.183,0-16.658,7.475-16.658,16.658v177.683c0,9.183,7.475,16.658,16.658,16.658h17.875
	l5.553,22.21h41.986l5.553-22.21h169.012l5.553,22.21h41.985l5.553-22.21h17.875c9.184,0,16.658-7.475,16.658-16.658V93.727
	C496,89.042,494.018,84.561,490.591,81.472z M200.496,11.105h24.645l2.776,11.105h-30.198L200.496,11.105z M168.397,33.315h251.089
	c0.681,0,1.399,0.155,2.348,0.578c0.483,0.184,0.928,0.461,1.395,0.905l59.891,54.886c1.108,1.006,1.775,2.511,1.775,4.037v17.33
	h-322.05V38.868C162.845,35.81,165.339,33.315,168.397,33.315z M484.895,122.157v11.105h-322.05v-11.105H484.895z M225.141,244.314
	h-24.645l-2.776-11.105h30.198L225.141,244.314z M447.244,244.314h-24.646l-2.776-11.105h30.198L447.244,244.314z M479.342,222.104
	H168.397c-3.058,0-5.553-2.495-5.553-5.553v-72.184h322.05v72.184C484.895,219.609,482.4,222.104,479.342,222.104z"/>
<g>
	<path fill="#F0BC5E" d="M26.436,275.193h115.646V360H26.436V275.193z"/>
	<path d="M149.79,402.403v-46.258h-23.129v-69.388h-7.71v69.388H95.822v-69.388h-7.709v69.388H64.984v-69.388h-7.71v69.388H18.726
		v46.258h-7.71v36.29l25.389,25.388h5.45V479.5h84.807v-15.419h5.451l25.388-25.388v-36.29H149.79z M26.436,379.274H133.6v-7.71
		H26.436v-7.71h115.646v23.129H34.917v7.71h107.164v7.71H26.436V379.274z M149.79,410.113v7.709H26.436v7.71H149.79v7.71H18.726
		v-23.129H149.79z M118.951,471.79H49.564v-7.709h69.387V471.79z M128.92,456.371H39.596l-15.419-15.42H144.34L128.92,456.371z"/>
	<path d="M26.436,279.049h15.419v69.387h7.71v-69.387h23.129v69.387h7.71v-69.387h23.129v69.387h7.71v-69.387h30.839
		c4.252,0,7.709-3.458,7.709-7.71v-7.71c0-4.252-3.457-7.71-7.709-7.71h-26.984v-3.854c0-6.375-5.189-11.564-11.564-11.564H64.984
		c-6.376,0-11.565,5.189-11.565,11.564v3.854H26.436c-4.252,0-7.71,3.458-7.71,7.71v7.71
		C18.726,275.591,22.184,279.049,26.436,279.049z M61.129,252.064c0-2.127,1.731-3.854,3.855-3.854h38.548
		c2.123,0,3.854,1.728,3.854,3.854v3.854H61.129V252.064z M26.436,263.629h115.646v7.71H26.436l-0.004-7.71H26.436z"/>
</g>
<g>
	<rect x="277.704" y="321.992" fill="#F0BC5E" width="124.798" height="124.799"/>
	<path d="M411.861,325.112v-24.959h-31.199v-24.96h-81.119v24.96h-31.199v24.959h6.24v118.559h-6.24v24.959h143.518v-24.959h-6.24
		V325.112H411.861z M305.783,293.913h56.159v-6.24h-56.159v-6.24h68.639v6.24h-6.24v6.239h6.24v6.24h-68.639V293.913z
		 M274.584,306.393h131.037v12.48H274.584V306.393z M368.182,443.671V325.112h6.24v118.559H368.182z M299.543,421.83v21.841h-6.239
		V325.112h6.239v90.479h6.24v-90.479h6.239v118.559h-6.239V421.83H299.543L299.543,421.83z M318.263,325.112h6.24v118.559h-6.24
		V325.112z M330.743,325.112h6.239v118.559h-6.239V325.112z M343.223,325.112h6.239v118.559h-6.239V325.112z M355.702,325.112h6.239
		v118.559h-6.239V325.112z M280.823,325.112h6.24v118.559h-6.24V325.112z M405.621,462.39H274.584V449.91h131.037V462.39z
		 M399.382,443.671h-6.24V337.592h-6.239v106.079h-6.24V325.112h6.24v6.24h6.239v-6.24h6.24V443.671z"/>
</g>
</svg>
