<?xml version="1.0" encoding="utf-8"?>
<!-- Generator: Adobe Illustrator 16.0.0, SVG Export Plug-In . SVG Version: 6.00 Build 0)  -->
<!DOCTYPE svg PUBLIC "-//W3C//DTD SVG 1.1//EN" "http://www.w3.org/Graphics/SVG/1.1/DTD/svg11.dtd">
<svg version="1.1" id="Capa_1" xmlns="http://www.w3.org/2000/svg" xmlns:xlink="http://www.w3.org/1999/xlink" x="0px" y="0px"
	 width="496px" height="496px" viewBox="0 0 496 496" enable-background="new 0 0 496 496" xml:space="preserve">
<g>
	<path fill="#F0BC5E" d="M363.977,300.258H136.023l15.375-69.2c2.465-11.074,12.098-18.801,23.434-18.801H325.16
		c11.336,0,20.969,7.727,23.434,18.801L363.977,300.258z"/>
	<path fill="#F0BC5E" d="M138,364.258c-13.23,0-24-10.77-24-24s10.77-24,24-24s24,10.77,24,24S151.23,364.258,138,364.258z"/>
	<path fill="#F0BC5E" d="M362,364.258c-13.23,0-24-10.77-24-24s10.77-24,24-24s24,10.77,24,24S375.23,364.258,362,364.258z"/>
	<path fill="#F0BC5E" d="M162,100.257c-13.23,0-24-10.77-24-24c0-6.816,2-13.414,5.785-19.098L162,29.832l18.215,27.328
		C184,62.843,186,69.441,186,76.257C186,89.488,175.23,100.257,162,100.257z"/>
	<path fill="#F0BC5E" d="M322,100.257c-13.23,0-24-10.77-24-24c0-6.816,2-13.414,5.785-19.098L322,29.832l18.215,27.328
		C344,62.843,346,69.441,346,76.257C346,89.488,335.23,100.257,322,100.257z"/>
</g>
<path d="M377.953,224.523c-1.105-5.152-3.082-9.914-5.48-14.402c8.449-7.512,13.527-18.344,13.527-29.863c0-22.055-17.945-40-40-40
	c-3.246,0-6.457,0.391-9.594,1.168c-5.926-5.816-13.949-9.168-22.406-9.168c-17.648,0-32,14.352-32,32h16c0-8.824,7.176-16,16-16
	c5.266,0,10.191,2.602,13.191,6.969l3.664,5.336l5.984-2.473c2.945-1.215,6.023-1.832,9.16-1.832c13.23,0,24,10.77,24,24
	c0,6.414-2.594,12.496-7.008,16.945c-10.289-10.441-24.441-16.945-39.801-16.945H176.809c-9.855,0-19.25,2.633-27.441,7.273
	C142.762,185.503,138,179.32,138,172.257c0-11.246,12.199-19.887,23.266-14.137l7.461,3.848l3.496-7.633
	c3.906-8.551,12.449-14.078,21.777-14.078c7.559,0,14.543,3.543,19.16,9.727l4.824,6.457l6.422-4.863
	c2.852-2.168,6.168-3.32,9.594-3.32v-16c-4.465,0-8.809,0.938-12.84,2.742c-7.344-6.895-16.93-10.742-27.16-10.742
	c-13.039,0-25.168,6.457-32.586,16.91c-2.43-0.605-4.91-0.91-7.414-0.91c-17.648,0-32,14.352-32,32
	c0,10.656,5.473,20.258,13.785,26.113c-6.672,7.191-11.586,16.094-13.738,26.152l-5.941,27.735H66v32c0,13.23,10.77,24,24,24h2.113
	c-6.352,9.078-10.113,20.105-10.113,32v32.008c-8.832,0.055-16,7.199-16,15.992v16c0,8.824,7.223,16,16.098,16H90v8
	c0,13.23,10.77,24,24,24h32c13.23,0,24-10.77,24-24v-8h160v8c0,13.23,10.77,24,24,24h32c13.23,0,24-10.77,24-24v-8h7.902
	c8.875,0,16.098-7.176,16.098-16v-16c0-8.785-7.168-15.938-16-15.992v-32.008c0-11.895-3.762-22.922-10.113-32H410
	c13.23,0,24-10.77,24-24v-32h-50.105L377.953,224.523z M402,372.258H98v-32c0-22.055,17.945-40,40-40h25.969l16,56h140.07l16-56H362
	c22.055,0,40,17.945,40,40V372.258z M180.609,300.258h138.789l-11.43,40H192.031L180.609,300.258z M137.695,227.882
	c3.93-18.328,20.367-31.625,39.113-31.625h146.391c18.738,0,35.184,13.297,39.113,31.625l12.406,57.887
	c-4.102-0.961-8.344-1.512-12.719-1.512H138c-4.375,0-8.617,0.551-12.711,1.512L137.695,227.882z M82,284.258v-16h30.672l-5.145,24
	H90C85.594,292.258,82,288.672,82,284.258z M154,428.258c0,4.414-3.594,8-8,8h-32c-4.406,0-8-3.586-8-8v-8h48V428.258z M394,428.258
	c0,4.414-3.594,8-8,8h-32c-4.406,0-8-3.586-8-8v-8h48V428.258z M417.902,404.258H82l0.098-16H418L417.902,404.258z M418,268.258v16
	c0,4.414-3.594,8-8,8h-17.527l-5.145-24H418z"/>
<path d="M91.539,79.554l26.203-36.035l12.938,9.406L104.473,88.96L91.539,79.554z"/>
<path d="M193.348,52.925l12.934-9.406l26.207,36.031l-12.934,9.41L193.348,52.925z"/>
<path d="M251.547,79.546l26.207-36.035l12.934,9.406L264.48,88.953L251.547,79.546z"/>
<path d="M353.355,52.917l12.934-9.406l26.207,36.031l-12.934,9.41L353.355,52.917z"/>
<path d="M34,236.257c-8.824,0-16-7.176-16-16s7.176-16,16-16h8v-8c0-13.23,10.77-24,24-24s24,10.77,24,24h16
	c0-22.055-17.945-40-40-40c-19.617,0-35.984,14.191-39.359,32.848C12.527,192.441,2,205.144,2,220.257c0,17.648,14.352,32,32,32
	V236.257z"/>
<path d="M462,252.258c17.648,0,32-14.352,32-32c0-15.113-10.527-27.816-24.641-31.152c-3.375-18.656-19.742-32.848-39.359-32.848
	c-22.055,0-40,17.945-40,40h16c0-13.23,10.77-24,24-24s24,10.77,24,24v8h8c8.824,0,16,7.176,16,16s-7.176,16-16,16V252.258z"/>
<path d="M58,196.257h16v16H58V196.257z"/>
<path d="M34,268.258h16v16H34V268.258z"/>
<path d="M426,196.257h16v16h-16V196.257z"/>
<path d="M258,116.257h16v16h-16V116.257z"/>
<path d="M98,116.257h16v16H98V116.257z"/>
<path d="M394,116.257h16v16h-16V116.257z"/>
<g>
	<rect x="305.038" y="308.951" fill="#FFFFFF" width="112.302" height="163.365"/>
	<path fill="#F0BC5E" stroke="#000000" stroke-miterlimit="10" d="M456.316,314.346c0.326-0.516,0.656-1.027,0.99-1.533V265.08
		c-0.391-0.234-0.711-0.543-0.968-0.895h-33.573c-0.756,0.346-1.493,0.703-2.115,1.119c-11.295,5.271-18.073,13.555-28.618,17.32
		c-18.826,8.283-39.911,4.52-59.491-1.506c-10.572-2.82-19.824-10.256-29.609-16.754c-4.768,1.881-9.506,3.004-11.057,0.939
		c-0.22-0.377-0.413-0.75-0.589-1.119h-28.063v42.541c2.61,5.689,6.261,10.75,9.072,15.811
		c16.222,30.232,13.659,66.227-9.072,91.045v44.457h43.114c-0.483-2.586-0.08-5.416,2.104-6.729
		c6.779-5.27,18.075-9.789,24.099-3.764c1.563,2.084,1.324,6.328,1.028,10.492h0.033c0.029-1.682,1.123-3.768,2.811-4.977
		c-0.838-18.939-25.465-24.477-33.995-39.404c-4.519-8.283-8.284-22.592,0-27.863c6.023-3.764,18.074,3.014,19.579-7.531
		c3.013-18.826-6.023-42.924,9.79-54.221c6.778-4.518,15.062-7.529,22.593-11.295c3.766-2.26,9.036-0.754,11.295,2.258
		c6.777,10.543,21.839,7.531,28.616,13.557c3.767,3.012,0,15.814,6.779,18.074c8.283,2.258,16.567,4.518,16.567,12.801
		c1.506,30.875,7.53,63.26-9.036,92.627c-1.095,1.457-1.13,3.621-1.044,5.977h49.749v-41.609
		c-11.446-14.873-16.395-33.813-15.814-52.801c-0.749-11.953,1.384-23.734,7.403-34.84
		C450.967,323.734,453.443,318.887,456.316,314.346z"/>
	<path d="M461.316,421.188c0.373-2.609,0.652-5.223,0.886-7.834l-3.805-5.713c-9.176-13.758-14.024-29.777-14.024-46.32
		c0-16.545,4.849-32.563,14.024-46.324l2.004-3.008c-0.372-0.66-0.766-1.313-1.167-1.961
		C436.366,341.77,433.976,391.631,461.316,421.188z"/>
	<path d="M462.801,414.252l-0.599-0.898c-0.233,2.611-0.513,5.225-0.886,7.834c-27.341-29.557-24.95-79.418-2.082-111.16
		c0.401,0.648,0.795,1.303,1.167,1.961l2.394-3.592c3.711-5.568,5.671-12.049,5.671-18.732c0.002-9.494-3.949-18.076-10.279-24.217
		c-1.114-0.299-1.866-1.064-2.26-1.998c-5.805-4.717-13.184-7.559-21.223-7.559c-6.687,0-13.171,1.965-18.73,5.668l-4.098,2.729
		c-8.62,5.748-18.042,9.918-27.905,12.533c0-0.004,0-0.008-0.001-0.01c-0.201,0.061-0.414,0.105-0.641,0.133
		c-0.152,0.043-0.313,0.078-0.479,0.107c-0.22,0.074-0.456,0.129-0.705,0.164c-0.276,0.107-0.571,0.193-0.898,0.232
		c-0.033,0.01-0.062,0.016-0.094,0.027c-0.682,0.203-1.321,0.35-1.972,0.402c-0.22,0.074-0.458,0.127-0.71,0.158
		c-0.142,0.037-0.286,0.064-0.436,0.088c-0.288,0.098-0.603,0.16-0.941,0.186c-1.453,0.414-2.913,0.775-4.394,0.783
		c-0.199,0.031-0.405,0.049-0.623,0.049c-0.013,0-0.023,0-0.036,0c0,0.01,0,0.02,0,0.029c-3.97,0.512-7.971,0.818-12.013,0.818
		c-18.514,0-36.443-5.428-51.841-15.693l-4.097-2.73c-5.566-3.709-12.044-5.674-18.736-5.674c-18.616,0-33.769,15.15-33.769,33.768
		c0,6.688,1.959,13.164,5.671,18.73l4.397,6.604c9.182,13.766,14.03,29.783,14.03,46.328c0,2.42-0.145,4.828-0.365,7.223
		c0.092,0.516,0.061,1.049-0.146,1.561c-0.116,0.291-0.201,0.578-0.253,0.887c-0.008,0.064-0.017,0.15-0.03,0.26
		c-0.077,0.684-0.138,1.377-0.281,2.047c0.03,0.496-0.026,0.994-0.162,1.467c0.052,0.922-0.107,1.857-0.341,2.746
		c-0.057,0.217-0.13,0.414-0.212,0.604c-0.103,1.365-0.318,2.678-0.864,3.934c-2.315,9.057-6.102,17.705-11.371,25.596l-4.397,6.604
		c-3.711,5.566-5.669,12.049-5.669,18.73c-0.007,18.619,15.146,33.771,33.762,33.771c6.686,0,13.17-1.963,18.729-5.67l4.098-2.727
		c6.753-4.502,14.061-8.031,21.718-10.646v19.043h12.049v-4.674c-2.397-0.434-4.783-0.992-7.147-1.727
		c-2.296-1.146-1.088-5.348,1.611-7.287c-0.835-18.938-25.463-24.475-33.994-39.402c-4.519-8.283-8.284-22.594,0-27.863
		c6.026-3.766,18.075,3.012,19.581-7.531c3.012-18.826-6.025-42.926,9.789-54.221c6.777-4.52,15.062-7.531,22.593-11.297
		c3.765-2.258,9.036-0.752,11.295,2.26c6.777,10.543,21.84,7.531,28.617,13.555c3.765,3.012,0,15.816,6.777,18.074
		c8.284,2.26,16.567,4.52,16.567,12.803c1.282,26.299,5.832,53.689-3.08,79.381l9.975-9.977c1.134-1.133,1.765-2.668,1.765-4.266
		v-66.27c0-9.963-8.107-18.072-18.073-18.072c-2.12,0-4.133,0.434-6.023,1.107v-7.133c0-9.965-8.108-18.072-18.074-18.072
		c-2.38,0-4.639,0.488-6.724,1.324c-2.077-7.68-9.041-13.373-17.374-13.373s-15.292,5.693-17.375,13.373
		c-2.084-0.836-4.343-1.324-6.724-1.324c-9.965,0-18.073,8.107-18.073,18.072v43.281c-1.892-0.676-3.903-1.109-6.024-1.109
		c-9.965,0-18.073,8.109-18.073,18.074v24.098c0,2.012,1.006,3.893,2.681,5.012l22.911,15.271
		c-6.217,2.602-12.212,5.725-17.851,9.482l-4.097,2.73c-3.583,2.387-7.747,3.646-12.049,3.646
		c-11.978,0.004-21.72-9.736-21.72-21.713c0-4.301,1.261-8.471,3.646-12.051l4.396-6.604c10.507-15.746,16.056-34.072,16.056-53.008
		s-5.549-37.264-16.05-53.012l-4.397-6.602c-2.386-3.58-3.646-7.748-3.646-12.051c-0.006-11.975,9.736-21.717,21.714-21.717
		c4.302,0,8.463,1.258,12.049,3.645l4.097,2.73c17.394,11.594,37.63,17.723,58.528,17.723s41.136-6.125,58.527-17.719l4.099-2.727
		c3.584-2.387,7.747-3.646,12.049-3.646c11.976-0.006,21.718,9.736,21.718,21.713c0,4.301-1.259,8.469-3.646,12.049l-4.397,6.602
		c-10.506,15.748-16.055,34.076-16.055,53.012s5.549,37.262,16.05,53.01l4.398,6.604c2.386,3.578,3.645,7.748,3.645,12.049
		c0.005,11.977-9.737,21.717-21.713,21.717c-4.302,0-8.465-1.258-12.049-3.645l-4.099-2.729c-1.401-0.936-2.867-1.76-4.307-2.621
		v-6.023c-1.501,4.178-3.35,8.309-5.647,12.383c-2.26,3.012,0,9.037-1.506,13.555c0,1.506-3.013,0.754-4.52,0.754
		c-0.126-0.037-0.25-0.07-0.376-0.105v0.48h12.049v-6.818l1.716,1.145c5.567,3.711,12.044,5.674,18.738,5.674
		c18.614,0,33.767-15.152,33.767-33.766C468.471,426.293,466.513,419.818,462.801,414.252z"/>
	<path d="M407.097,465.619c1.506-4.518-0.754-10.543,1.506-13.555c2.298-4.074,4.146-8.205,5.647-12.383v-0.555l0.309-0.309
		c8.912-25.691,4.362-53.082,3.08-79.381c0-8.283-8.283-10.543-16.567-12.801c-6.777-2.26-3.013-15.063-6.777-18.074
		c-6.777-6.025-21.84-3.014-28.617-13.557c-2.259-3.012-7.53-4.518-11.295-2.258c-7.531,3.766-15.815,6.777-22.593,11.295
		c-15.814,11.297-6.777,35.395-9.789,54.221c-1.506,10.545-13.555,3.768-19.581,7.531c-8.284,5.271-4.519,19.58,0,27.863
		c8.531,14.928,33.159,20.465,33.994,39.404c0.845-0.605,1.832-0.998,2.907-0.998c-1.075,0-2.063,0.393-2.907,0.998
		c0.051,1.127,0.021,2.295-0.105,3.521c0.127-1.227,0.156-2.395,0.105-3.521c-2.699,1.938-3.907,6.139-1.611,7.287
		c2.365,0.732,4.75,1.291,7.147,1.727V442.65c0-2.012-1.006-3.891-2.682-5.012l-33.459-22.309v-20.875
		c0-3.32,2.698-6.023,6.024-6.023c3.325,0,6.024,2.703,6.024,6.023v18.074h12.049v-18.074v-60.246c0-3.32,2.699-6.023,6.024-6.023
		s6.025,2.703,6.025,6.023v42.172h12.048v-42.172V322.16c0-3.32,2.699-6.023,6.025-6.023c3.325,0,6.025,2.703,6.025,6.023v12.049
		v42.172h12.049v-42.172c0-3.32,2.698-6.023,6.023-6.023c3.326,0,6.025,2.703,6.025,6.023v24.098v18.074h12.049v-18.074
		c0-3.318,2.699-6.025,6.023-6.025c3.326,0,6.025,2.707,6.025,6.025v63.775l-10.283,10.285c-1.134,1.127-1.766,2.662-1.766,4.258
		v29.643c0.126,0.035,0.25,0.068,0.376,0.105C404.084,466.373,407.097,467.125,407.097,465.619z"/>
</g>
</svg>
