<?xml version="1.0" encoding="utf-8"?>
<!-- Generator: Adobe Illustrator 16.0.0, SVG Export Plug-In . SVG Version: 6.00 Build 0)  -->
<!DOCTYPE svg PUBLIC "-//W3C//DTD SVG 1.1//EN" "http://www.w3.org/Graphics/SVG/1.1/DTD/svg11.dtd">
<svg version="1.1" id="Layer_3" xmlns="http://www.w3.org/2000/svg" xmlns:xlink="http://www.w3.org/1999/xlink" x="0px" y="0px"
	 width="512px" height="512px" viewBox="0 0 512 512" enable-background="new 0 0 512 512" xml:space="preserve">
<path d="M498.2,176.312l-109.112-31.176L321.632,40.88C308.313,20.296,285.712,8,261.184,8H130.856
	C101.568,8,75.44,25.504,64.28,52.584L26.64,144H8v16h24c3.24,0,6.168-1.96,7.4-4.952L79.08,58.68
	c8.672-21.064,29-34.68,51.776-34.68h130.328c19.08,0,36.656,9.56,47.017,25.576l69.088,106.768
	c1.048,1.624,2.655,2.816,4.512,3.344l74.2,21.208V224c0,4.416,3.584,8,8,8h24v48h-32.472c-4-35.944-34.536-64-71.528-64
	c-39.695,0-72,32.304-72,72c0,39.696,32.305,72,72,72c36.992,0,67.528-28.056,71.528-64H496c4.416,0,8-3.584,8-8V184
	C504,180.432,501.632,177.288,498.2,176.312z M384,344c-30.88,0-56-25.12-56-56s25.12-56,56-56s56,25.12,56,56S414.88,344,384,344z
	 M472,216v-30.536l16,4.568V216H472z"/>
<rect x="52.5" y="305.5" fill="#F0BC5E" stroke="#000000" stroke-miterlimit="10" width="203.5" height="27"/>
<path fill="#F0BC5E" stroke="#000000" stroke-miterlimit="10" d="M72.84,344v147.202h159.68V344H72.84z M185.854,442.326
	c-5.424,2.476-11.289,1.367-17.047,1.092c-8.873-0.424-17.695-0.668-26.579-0.668c-4.319,0-8.697-0.216-13.005,0.102
	c-2.149,0.158-4.273,0.279-6.332-0.194C122.337,442.873,121.71,443,121,443c-4.381,0-5.782-4.614-4.21-7.574
	c-0.134-2.054,0.183-4.264,0.48-6.295c-3.819-2.179-2.994-9.381,2.48-9.381c1.755,0,3.029,0.744,3.829,1.822
	c6.798-3.887,15.836-2.796,23.305-2.61c12.274,0.307,24.588,0.038,36.867,0.038c4.93,0,6.086,5.841,3.479,8.594
	c0.019,0.026,0.041,0.049,0.06,0.075C190.099,431.648,191.457,439.769,185.854,442.326z"/>
<path fill="#F0BC5E" stroke="#000000" stroke-miterlimit="10" d="M178.302,433.3c-2.592-0.444-5.299-0.241-7.98,0.152
	c1.014,0.07,2.028,0.134,3.038,0.22c1.882,0.16,4.265,0.621,6.219,0.292c-0.091-0.092-0.184-0.198-0.283-0.339
	C179.208,433.265,178.877,433.156,178.302,433.3z"/>
<rect x="441.5" y="40" fill="#F0BC5E" stroke="#000000" stroke-miterlimit="10" width="32.312" height="32.973"/>
<rect x="442.838" y="375.665" fill="#F0BC5E" stroke="#000000" stroke-miterlimit="10" width="30.974" height="29.835"/>
<circle fill="#F0BC5E" stroke="#000000" stroke-miterlimit="10" cx="382.966" cy="287.33" r="25.034"/>
<path d="M384,248c-22.057,0-40,17.943-40,40c0,22.056,17.943,40,40,40s40-17.944,40-40C424,265.943,406.057,248,384,248z M384,312
	c-13.232,0-24-10.768-24-24s10.768-24,24-24s24,10.768,24,24S397.232,312,384,312z"/>
<path d="M342.984,155.904c1.416-2.528,1.344-5.624-0.168-8.096L288.184,59.04C280.96,47.296,267.904,40,254.12,40H133.976
	c-16.432,0-31.432,10.304-37.336,25.64l-32.112,83.488c-0.944,2.464-0.616,5.224,0.872,7.4C66.896,158.704,69.36,160,72,160h264
	C338.896,160,341.568,158.432,342.984,155.904L342.984,155.904z M111.576,71.384C115.12,62.184,124.12,56,133.976,56H192v88H83.648
	L111.576,71.384z M208,144V56h46.12c8.272,0,16.104,4.376,20.44,11.424L321.68,144H208z"/>
<path d="M192,176h32v16h-32V176z"/>
<path d="M64,176h32v16H64V176z"/>
<path d="M496,384c-17.648,0-32-14.352-32-32c0-4.416-3.584-8-8-8s-8,3.584-8,8c0,17.648-14.352,32-32,32c-4.416,0-8,3.584-8,8
	s3.584,8,8,8c17.648,0,32,14.352,32,32c0,4.416,3.584,8,8,8s8-3.584,8-8c0-17.648,14.352-32,32-32c4.416,0,8-3.584,8-8
	S500.416,384,496,384z M456,405.496c-3.552-5.344-8.152-9.937-13.496-13.496c5.344-3.552,9.937-8.152,13.496-13.496
	c3.552,5.344,8.152,9.937,13.496,13.496C464.152,395.552,459.552,400.152,456,405.496z"/>
<path d="M416,64c17.648,0,32,14.352,32,32c0,4.416,3.584,8,8,8s8-3.584,8-8c0-17.648,14.352-32,32-32c4.416,0,8-3.584,8-8
	s-3.584-8-8-8c-17.648,0-32-14.352-32-32c0-4.416-3.584-8-8-8s-8,3.584-8,8c0,17.648-14.352,32-32,32c-4.416,0-8,3.584-8,8
	S411.584,64,416,64z M456,42.504c3.552,5.344,8.152,9.944,13.496,13.496c-5.344,3.552-9.944,8.152-13.496,13.496
	c-3.552-5.344-8.152-9.944-13.496-13.496C447.848,52.448,452.448,47.848,456,42.504z"/>
<path d="M296,336v-16c0-4.416-3.584-8-8-8h-24c17.648,0,32-14.352,32-32s-14.352-32-32-32c-3.496,0-6.904,0.656-10.16,1.752
	C247.76,230.216,229.512,216,208,216c-4.656,0-9.136,0.696-13.4,1.936C186.488,202.16,170.288,192,152,192
	c-18.528,0-34.6,10.568-42.6,25.976C105.072,216.712,100.608,216,96,216c-21.528,0-39.784,14.248-45.856,33.8
	C46.936,248.72,43.568,248,40,248c-17.648,0-32,14.352-32,32s14.352,32,32,32H16c-4.416,0-8,3.584-8,8v16
	c0,40.52,23.344,75.608,57.232,92.768l6.8,68.032c0.416,4.088,3.856,7.2,7.968,7.2h144c4.112,0,7.552-3.112,7.96-7.2l6.8-68.032
	C272.656,411.608,296,376.52,296,336z M280,328v8c0,30.512-15.624,57.432-39.28,73.224L247.24,344H256c4.416,0,8-3.584,8-8v-8H280z
	 M192,408h-80c-4.416,0-8,3.584-8,8v7.592c-8.312-0.752-16.272-2.704-23.76-5.616L72.84,344h158.32l-7.4,73.976
	c-7.488,2.912-15.448,4.864-23.76,5.616V416C200,411.584,196.416,408,192,408L192,408z M184,424v16h-64v-16H184z M56,312h192v16H56
	V312z M24,280c0-8.824,7.176-16,16-16s16,7.176,16,16h16c0-7.792-2.912-14.848-7.552-20.4C66.616,244.048,79.864,232,96,232
	c2.936,0,5.768,0.504,8.528,1.272C104.216,235.48,104,237.712,104,240c0,10.48,3.32,20.439,9.6,28.809l12.8-9.608
	c-4.192-5.568-6.4-12.208-6.4-19.2c0-17.648,14.352-32,32-32c12.056,0,22.728,6.632,28.2,16.944
	C167.992,233.656,160,247.896,160,264h16c0-17.648,14.352-32,32-32s32,14.352,32,32c0,4.456-0.896,8.76-2.664,12.8L252,283.208
	c2.352-5.392,3.616-11.097,3.88-16.976c2.448-1.44,5.24-2.232,8.12-2.232c8.824,0,16,7.176,16,16s-7.176,16-16,16h-8h-8H56h-8h-8
	C31.176,296,24,288.824,24,280L24,280z M24,336v-8h16v8c0,4.416,3.584,8,8,8h8.76l6.52,65.224C39.624,393.432,24,366.512,24,336z
	 M216.76,488H87.24l-5.248-52.456c7.048,2.128,14.416,3.464,22.008,4.048V448c0,4.416,3.584,8,8,8h80c4.416,0,8-3.584,8-8v-8.408
	c7.584-0.584,14.96-1.92,22.008-4.048L216.76,488z"/>
<path d="M480,456h-48c-4.408,0-8-3.592-8-8c0-13.232-10.768-24-24-24H288c-13.232,0-24,10.768-24,24s10.768,24,24,24h48
	c4.408,0,8,3.592,8,8c0,13.232,10.768,24,24,24h112c13.232,0,24-10.768,24-24S493.232,456,480,456z M480,488H368
	c-4.408,0-8-3.592-8-8c0-13.232-10.768-24-24-24h-48c-4.408,0-8-3.592-8-8s3.592-8,8-8h112c4.408,0,8,3.592,8,8
	c0,13.232,10.768,24,24,24h48c4.408,0,8,3.592,8,8S484.408,488,480,488z"/>
</svg>
