<?xml version="1.0" encoding="utf-8"?>
<!-- Generator: Adobe Illustrator 16.0.0, SVG Export Plug-In . SVG Version: 6.00 Build 0)  -->
<!DOCTYPE svg PUBLIC "-//W3C//DTD SVG 1.1//EN" "http://www.w3.org/Graphics/SVG/1.1/DTD/svg11.dtd">
<svg version="1.1" id="Layer_3" xmlns="http://www.w3.org/2000/svg" xmlns:xlink="http://www.w3.org/1999/xlink" x="0px" y="0px"
	 width="512px" height="512px" viewBox="0 0 512 512" enable-background="new 0 0 512 512" xml:space="preserve">
<path d="M136,216c-17.648,0-32,14.352-32,32c0,17.648,14.352,32,32,32s32-14.352,32-32C168,230.352,153.648,216,136,216z M136,264
	c-8.824,0-16-7.176-16-16s7.176-16,16-16s16,7.176,16,16S144.824,264,136,264z"/>
<path d="M439.448,256H480c13.232,0,24-10.768,24-24v-80c0-3.032-1.712-5.8-4.424-7.16l-62.353-31.176l-64.472-83.808
	C362.225,16.168,345.632,8,328.359,8H231.64c-17.264,0-33.856,8.168-44.384,21.856L123.448,112.8l-77.504,16.608
	C23.96,134.12,8,153.848,8,176.336V232c0,13.232,10.768,24,24,24h40.552c3.96,31.52,30.872,56,63.448,56s59.488-24.48,63.448-56
	h113.112c3.959,31.52,30.871,56,63.447,56S435.488,287.52,439.448,256z M488,208h-16v-59.056l16,8V208z M24.032,176H40v16H24
	v-15.664C24,176.224,24.032,176.112,24.032,176z M24,232v-24h24c4.416,0,8-3.576,8-8v-32c0-4.424-3.584-8-8-8H28.6
	c4.456-7.44,11.816-13.048,20.696-14.952l80.384-17.224c1.856-0.4,3.504-1.44,4.664-2.944l65.592-85.264
	C207.448,29.832,219.304,24,231.64,24h96.728c12.336,0,24.185,5.832,31.704,15.608l65.592,85.264c0.736,0.96,1.68,1.744,2.76,2.28
	L456,140.944V216c0,4.424,3.584,8,8,8h24v8c0,4.416-3.592,8-8,8h-40.552c-3.96-31.52-30.872-56-63.448-56s-59.488,24.48-63.447,56
	H199.448c-3.96-31.52-30.872-56-63.448-56s-59.488,24.48-63.448,56H32C27.592,240,24,236.416,24,232L24,232z M136,296
	c-26.472,0-48-21.527-48-48c0-26.472,21.528-48,48-48s48,21.528,48,48C184,274.473,162.472,296,136,296z M376,296
	c-26.473,0-48-21.527-48-48c0-26.472,21.527-48,48-48s48,21.528,48,48C424,274.473,402.473,296,376,296z"/>
<path d="M376,216c-17.648,0-32,14.352-32,32c0,17.648,14.352,32,32,32s32-14.352,32-32C408,230.352,393.648,216,376,216z M376,264
	c-8.824,0-16-7.176-16-16s7.176-16,16-16s16,7.176,16,16S384.824,264,376,264z"/>
<path d="M168,136h224c2.984,0,5.721-1.656,7.096-4.304c1.377-2.648,1.168-5.832-0.544-8.28l-48.831-69.768
	C343.736,45.104,333.936,40,323.504,40h-87.008c-10.432,0-20.232,5.104-26.216,13.648l-48.832,69.768
	c-1.712,2.448-1.92,5.632-0.544,8.28S165.016,136,168,136L168,136z M336.607,62.824L376.641,120H288V56h35.504
	C328.721,56,333.624,58.544,336.607,62.824z M223.392,62.824c2.984-4.28,7.888-6.824,13.104-6.824H272v64h-88.64L223.392,62.824z"/>
<path d="M256,152h32v16h-32V152z"/>
<path d="M368,152h32v16h-32V152z"/>
<path d="M8,312v16h224v160H8v16h496v-16H280V328h224v-16H376H136H8z M264,488h-16V328h16V488z"/>
<rect x="392" y="392" fill="#F0BC5E" stroke="#000000" stroke-miterlimit="10" width="30.5" height="31.999"/>
<path d="M413.656,378.344c-3.129-3.128-8.184-3.128-11.313,0l-24,24c-3.128,3.128-3.128,8.185,0,11.313l56,56
	C435.84,471.16,437.88,472,440,472h64v-16h-60.688l-23.999-24L432,419.313l18.344,18.344C451.84,439.16,453.88,440,456,440h48v-16
	h-44.688L413.656,378.344z M408,420.688L395.313,408L408,395.313L420.688,408L408,420.688z"/>
<path d="M346.268,357.659l11.313-11.312l23.998,23.998l-11.313,11.313L346.268,357.659z"/>
<path d="M392,344h16v24h-16V344z"/>
<path d="M344,392h24v16h-24V392z"/>
<path d="M176,344c-4.416,0-8,3.576-8,8v2.744c0,16.728-6.512,32.456-18.344,44.288C140.976,407.712,136,419.728,136,432
	c0,22.056,17.944,40,40,40s40-17.944,40-40c0-12.272-4.976-24.288-13.656-32.968C190.512,387.192,184,371.472,184,354.744V352
	C184,347.576,180.416,344,176,344z M191.032,410.344C196.728,416.048,200,423.936,200,432c0,13.232-10.768,24-24,24
	s-24-10.768-24-24c0-8.064,3.272-15.952,8.968-21.656c6.216-6.216,11.264-13.288,15.032-20.952
	C179.768,397.056,184.816,404.128,191.032,410.344z"/>
<path d="M80,344c-4.416,0-8,3.576-8,8v2.744c0,16.728-6.512,32.456-18.344,44.288C44.976,407.712,40,419.728,40,432
	c0,22.056,17.944,40,40,40s40-17.944,40-40c0-12.272-4.976-24.288-13.656-32.968C94.512,387.192,88,371.472,88,354.744V352
	C88,347.576,84.416,344,80,344z M95.032,410.344C100.728,416.048,104,423.936,104,432c0,13.232-10.768,24-24,24s-24-10.768-24-24
	c0-8.064,3.272-15.952,8.968-21.656c6.216-6.216,11.264-13.288,15.032-20.952C83.768,397.056,88.816,404.128,95.032,410.344z"/>
<rect x="808.5" y="387.5" fill="#F0BC5E" stroke="#000000" stroke-miterlimit="10" width="30.5" height="31.999"/>
<ellipse fill="#F0BC5E" stroke="#000000" stroke-miterlimit="10" cx="135.999" cy="250.072" rx="17.604" ry="18.092"/>
<ellipse fill="#F0BC5E" stroke="#000000" stroke-miterlimit="10" cx="375.998" cy="248" rx="17.604" ry="18.091"/>
</svg>
