<?xml version="1.0" encoding="utf-8"?>
<!-- Generator: Adobe Illustrator 16.0.0, SVG Export Plug-In . SVG Version: 6.00 Build 0)  -->
<!DOCTYPE svg PUBLIC "-//W3C//DTD SVG 1.1//EN" "http://www.w3.org/Graphics/SVG/1.1/DTD/svg11.dtd">
<svg version="1.1" id="Layer_3" xmlns="http://www.w3.org/2000/svg" xmlns:xlink="http://www.w3.org/1999/xlink" x="0px" y="0px"
	 width="512px" height="512px" viewBox="0 0 512 512" enable-background="new 0 0 512 512" xml:space="preserve">
<path fill="#F0BC5E" stroke="#000000" stroke-miterlimit="10" d="M282.292,242.641c0-6.627-5.372-12-12-12h-20.448
	c-9.859,16.416-34.385,23.873-52.344,29.859c-23,9-49,5-74,3c-14-1-26-9-39-14c-7.515-1.879-7.972-14.345-17.119-16.679
	c-0.12-0.733-0.197-1.463-0.22-2.181H31.487c-6.627,0-12,5.373-12,12v38.563C32.535,294.286,33.1,313.699,41.5,330.5c2,4,5,8,5,12
	c5.928,31.614,0.127,71.998-27.013,90.324v46.556c0,6.627,5.373,12,12,12h59.387c7.361-19.771-13.573-37.825-17.374-55.88
	c-5-28-16-66,4-88c4-4,17,2,20-7c3-7,3-18,9-21c8-4,20,3,27-5c9-8,15-20,27-12c4,2,7,8,10,9c10,3,23,4,27,14c7,22-6,47,5,68
	c3,6,15-3,19,3c10,15,15,41-3,51c-18.87,9.435-39.508,21.545-36.742,43.88h8.328c-0.678-3.244-1.154-6.433-3.621-8.845
	c-3.827-3.74,0.052-8.723,4.503-8.38c2.35-2.628,8.115-1.662,8.957,2.825c7.123,3.519,13.288,9.157,20.905,11.698
	c1.559,0.52,2.55,1.525,3.063,2.701h46.4c6.628,0,12-5.373,12-12v-43.897c-3.256-1.022-7.116-3.188-8.792-5.982
	c-20.718-43.41-20.974-97.516,8.792-136.412V242.641z"/>
<path d="M467.144,196.992l-123.096-44.76C332.768,148.128,324,139.28,320,127.952L290.848,45.36C282.96,23.016,261.744,8,238.04,8
	H96C65.128,8,40,33.12,40,64v161.896c-18.48,5.536-32,22.688-32,42.944c0,8.872,2.6,17.48,7.528,24.872l5.84,8.769
	C33.56,320.76,40,342.032,40,364s-6.44,43.24-18.624,61.512l-5.84,8.769C10.6,441.68,8,450.28,8,459.16
	C8,483.88,28.12,504,52.84,504c8.872,0,17.48-2.6,24.872-7.528L80,494.944V504h16v-40c0-2.128-0.84-4.16-2.344-5.656L80,444.688V360
	c0-4.416,3.584-8,8-8s8,3.584,8,8v24h16v-24v-32c0-4.416,3.584-8,8-8s8,3.584,8,8v56h16v-56v-16c0-4.416,3.584-8,8-8s8,3.584,8,8v16
	v56h16v-56c0-4.416,3.584-8,8-8s8,3.584,8,8v80v24h16v-24c0-4.416,3.584-8,8-8s8,3.584,8,8v27.72l-44.44,29.624
	c-2.224,1.488-3.56,3.984-3.56,6.656v32h16v-25.288c10.176,3.472,19.872,8.152,28.84,14.128l5.44,3.624
	c7.4,4.928,16,7.528,24.872,7.528C275.88,504,296,483.88,296,459.16c0-8.872-2.6-17.48-7.527-24.872l-5.841-8.769
	c-0.327-0.496-0.608-1.016-0.937-1.512H448c30.872,0,56-25.128,56-56V249.624C504,226.16,489.184,205.008,467.144,196.992
	L467.144,196.992z M251.16,488c-5.712,0-11.24-1.68-16-4.84l-5.44-3.624c-7.488-4.992-15.448-9.136-23.704-12.592l30.424-20.288
	c2.224-1.488,3.56-3.984,3.56-6.656v-32c0-13.232-10.768-24-24-24c-2.816,0-5.488,0.576-8,1.472V328c0-13.232-10.768-24-24-24
	c-3.16,0-6.16,0.648-8.928,1.76C172.312,295.561,163.064,288,152,288s-20.304,7.561-23.072,17.76C126.16,304.648,123.16,304,120,304
	c-13.232,0-24,10.768-24,24v9.472c-2.512-0.896-5.184-1.472-8-1.472c-13.232,0-24,10.768-24,24v88c0,2.128,0.84,4.16,2.344,5.656
	L80,467.313v8.735c-1.912,1.145-3.856,2.24-5.72,3.48l-5.44,3.624c-4.752,3.168-10.288,4.848-16,4.848
	C36.936,488,24,475.064,24,459.16c0-5.712,1.68-11.24,4.84-16l5.84-8.769C48.632,413.488,56,389.144,56,364
	s-7.368-49.488-21.312-70.393l-5.84-8.768c-3.168-4.752-4.848-10.288-4.848-16C24,252.936,36.936,240,52.84,240
	c5.712,0,11.24,1.672,16,4.84l5.44,3.624C97.376,263.863,124.248,272,152,272s54.624-8.136,77.72-23.528l5.44-3.624
	c4.76-3.168,10.288-4.84,16-4.84C267.064,240,280,252.936,280,268.84c0,5.713-1.68,11.24-4.84,16l-5.84,8.768
	C255.368,314.512,248,338.856,248,364c0,25.145,7.368,49.488,21.313,70.392l5.84,8.769c3.168,4.76,4.84,10.288,4.84,16
	C280,475.064,267.064,488,251.16,488L251.16,488z M120,144V56h32v48h16V56h32v120h16V56h15.024c6.768,0,12.832,4.288,15.08,10.672
	L248,72.056v152.176c-7.752,0.544-15.216,2.96-21.72,7.296l-5.44,3.624c-1.584,1.056-3.224,2-4.84,2.976V208h-16v38.272
	c-10.224,4.296-20.968,7.216-32,8.64V136h-16v120c-10.904,0-21.632-1.496-32-4.264V176h-16v70.272
	c-5.504-2.312-10.84-5.024-16-8.136V72c0-8.824,7.176-16,16-16v88H120z M312,224v-26.232l32,10.664V248h16v-34.232l32,10.664V304h16
	v-74.232l37.056,12.352C451.6,244.304,456,250.4,456,257.296V360c0,8.824-7.176,16-16,16h-32v-40h-16v40h-32v-96h-16v96h-32v-64h-16
	v64h-31.279c-0.433-3.968-0.721-7.968-0.721-12c0-21.968,6.439-43.24,18.624-61.512l5.84-8.768c4.929-7.4,7.528-16,7.528-24.873
	c0-20.264-13.52-37.408-32-42.944v-108.52l20.544,58.208c2.159,6.12,6.288,11.272,11.456,15.056V224H312z M488,368
	c0,22.056-17.944,40-40,40H273.168c-2.248-5.192-4.088-10.536-5.512-16H440c17.648,0,32-14.352,32-32V257.296
	c0-13.8-8.8-26-21.88-30.352L309.664,180.12c-4.648-1.544-8.4-5.232-10.023-9.856L261.191,61.352
	C256.688,48.584,244.56,40,231.024,40H104c-17.648,0-32,14.352-32,32v156.296c-5.016-2.376-10.44-3.672-16-4.064V64
	c0-22.056,17.944-40,40-40h142.04c16.928,0,32.088,10.72,37.72,26.688l29.152,82.592c5.6,15.856,17.872,28.248,33.672,33.992
	l123.096,44.76c15.744,5.728,26.32,20.832,26.32,37.592V368z"/>
</svg>
