<?xml version="1.0" encoding="utf-8"?>
<!-- Generator: Adobe Illustrator 16.0.0, SVG Export Plug-In . SVG Version: 6.00 Build 0)  -->
<!DOCTYPE svg PUBLIC "-//W3C//DTD SVG 1.1//EN" "http://www.w3.org/Graphics/SVG/1.1/DTD/svg11.dtd">
<svg version="1.1" id="Layer_3" xmlns="http://www.w3.org/2000/svg" xmlns:xlink="http://www.w3.org/1999/xlink" x="0px" y="0px"
	 width="512px" height="512px" viewBox="0 0 512 512" enable-background="new 0 0 512 512" xml:space="preserve">
<path d="M243.475,488H105.296c-21.248,0-40.048-13.544-46.768-33.704c-1.68-5.04-2.528-10.288-2.528-15.592v-20.688
	c0-22.512,17.392-41.352,38.768-41.99c10.896-0.36,21.256,3.672,29.088,11.264c7.832,7.6,12.144,17.8,12.144,28.712v16
	c0,22.056,17.944,40,40,40h16v-16h-16c-13.232,0-24-10.768-24-24v-3.808c18.688-13,41.224-20.192,64-20.192h49.743
	c0.408-5.34,0.597-10.667,0.507-16.001H216c-7.344,0-14.664,0.696-21.872,1.96c3.824-27.336,5.872-55.04,5.872-82.624V152h-16
	v159.336c0,28.977-2.304,58.096-6.64,86.744c-8.976,2.848-17.608,6.704-25.76,11.439c-1.464-12.801-7.208-24.601-16.608-33.713
	c-9.44-9.15-21.368-14.446-34.368-15.552C92.384,346.632,88,331.136,88,315.16c0-22.712,2.64-45.439,7.84-67.552l18.144-77.112
	c2.52-10.712,11.864-18.208,22.816-18.456c-0.52,2.576-0.8,5.24-0.8,7.96v40h16v-40c0-13.232,10.768-24,24-24h160
	c13.232,0,24,10.768,24,24v40h16v-40c0-2.72-0.279-5.384-0.809-7.952c10.961,0.248,20.297,7.744,22.815,18.464l18.146,77.112
	c1.289,5.479,2.419,10.998,3.393,16.544c3.926,0.121,7.94,0.225,11.955-0.668c1.316-0.376,2.631-0.844,3.94-1.355
	c-1.055-6.1-2.288-12.168-3.704-18.192l-18.146-77.104C409.32,148.68,393.313,136,374.656,136h-6.864
	c-7.312-9.656-18.784-16-31.792-16h-24v-16h8c13.232,0,24-10.768,24-24V32c0-13.232-10.768-24-24-24H192c-13.232,0-24,10.768-24,24
	v48c0,13.232,10.768,24,24,24h8v16h-24c-13.016,0-24.488,6.344-31.792,16h-6.864c-18.656,0-34.664,12.68-38.936,30.832
	l-18.144,77.112C74.784,267.248,72,291.208,72,315.16c0,16.248,3.848,32.063,11.088,46.424C58.512,367.696,40,390.92,40,418.016
	v20.688c0,7.022,1.128,13.968,3.352,20.646C52.256,486.056,77.152,504,105.296,504h150.341c-1.921-0.466-3.663-1.237-5.137-2.5
	C245.996,497.446,243.932,492.885,243.475,488z M296,120h-80v-16h80V120z M192,88c-4.416,0-8-3.584-8-8V32c0-4.416,3.584-8,8-8h128
	c4.416,0,8,3.584,8,8v48c0,4.416-3.584,8-8,8H192z"/>
<path d="M312,152v121.87c0.521,0.209,1.025,0.419,1.5,0.63c4.857,1.518,9.691,2.569,14.5,3.238V152H312z"/>
<ellipse fill="#F0BC5E" stroke="#000000" stroke-miterlimit="10" cx="55.95" cy="131.24" rx="15.95" ry="15.74"/>
<ellipse fill="#F0BC5E" stroke="#000000" stroke-miterlimit="10" cx="456" cy="56" rx="15.95" ry="15.74"/>
<path d="M496,48c-17.648,0-32-14.352-32-32c0-4.424-3.576-8-8-8s-8,3.576-8,8c0,17.648-14.352,32-32,32c-4.424,0-8,3.576-8,8
	s3.576,8,8,8c17.648,0,32,14.352,32,32c0,4.424,3.576,8,8,8s8-3.576,8-8c0-17.648,14.352-32,32-32c4.424,0,8-3.576,8-8
	S500.424,48,496,48z M456,69.496c-3.552-5.344-8.152-9.944-13.496-13.496c5.344-3.552,9.944-8.152,13.496-13.496
	c3.552,5.344,8.152,9.944,13.496,13.496C464.152,59.552,459.552,64.152,456,69.496z"/>
<path d="M56,176c4.424,0,8-3.576,8-8c0-17.648,14.352-32,32-32c4.424,0,8-3.576,8-8s-3.576-8-8-8c-17.648,0-32-14.352-32-32
	c0-4.424-3.576-8-8-8s-8,3.576-8,8c0,17.648-14.352,32-32,32c-4.424,0-8,3.576-8,8s3.576,8,8,8c17.648,0,32,14.352,32,32
	C48,172.424,51.576,176,56,176z M56,114.504c3.552,5.344,8.152,9.944,13.496,13.496c-5.344,3.552-9.944,8.152-13.496,13.496
	c-3.552-5.344-8.152-9.944-13.496-13.496C47.848,124.448,52.448,119.848,56,114.504z"/>
<g>
	<path fill="#F0BC5E" stroke="#000000" stroke-miterlimit="10" d="M495.859,309.624c0.433-0.685,0.871-1.364,1.316-2.038v-63.382
		c-0.519-0.313-0.945-0.721-1.286-1.19h-44.582c-1.004,0.461-1.981,0.936-2.809,1.487c-15,7-24,18-38,23c-25,11-53,6-79-2
		c-14.038-3.744-26.324-13.618-39.318-22.246c-6.331,2.498-12.624,3.989-14.682,1.246c-0.293-0.499-0.55-0.994-0.782-1.487h-37.265
		v56.492c3.466,7.555,8.313,14.273,12.047,20.995c21.54,40.144,18.138,87.942-12.047,120.897v59.037h57.25
		c-0.642-3.437-0.104-7.194,2.797-8.936c9-7,24-13,32-5c2.075,2.768,1.758,8.405,1.365,13.936h0.044
		c0.039-2.233,1.491-5.003,3.731-6.61c-1.11-25.15-33.813-32.502-45.142-52.324c-6-11-11-30,0-37c8-5,24,4,26-10c4-25-8-57,13-72
		c9-6,20-10,30-15c5-3,12-1,15,3c9,14,29,10,38,18c5,4,0,21,9,24c11,3,22,6,22,17c2,41,10,84-12,123
		c-1.451,1.935-1.497,4.808-1.385,7.936h66.062v-55.251c-15.198-19.752-21.771-44.902-21-70.115
		c-0.994-15.873,1.838-31.519,9.831-46.266C488.756,322.092,492.047,315.652,495.859,309.624z"/>
	<path d="M502.5,451.5c0.495-3.468,0.867-6.936,1.178-10.402l-5.054-7.586C486.44,415.24,480,393.968,480,372
		s6.44-43.24,18.624-61.512l2.661-3.996c-0.494-0.876-1.016-1.742-1.551-2.602C469.368,346.041,466.193,412.249,502.5,451.5z"/>
	<path d="M504.472,442.288l-0.794-1.19c-0.311,3.467-0.683,6.936-1.178,10.402c-36.307-39.251-33.132-105.459-2.766-147.609
		c0.535,0.859,1.057,1.727,1.551,2.603l3.179-4.771c4.928-7.394,7.528-16,7.528-24.873c0.004-12.609-5.244-24.002-13.648-32.158
		c-1.479-0.397-2.479-1.415-3-2.656C487.636,235.776,477.837,232,467.16,232c-8.88,0-17.488,2.608-24.872,7.528l-5.44,3.624
		c-11.446,7.632-23.959,13.168-37.056,16.64c0-0.004,0-0.008-0.001-0.013c-0.268,0.082-0.551,0.141-0.852,0.177
		c-0.202,0.06-0.415,0.104-0.636,0.142c-0.291,0.101-0.604,0.172-0.936,0.219c-0.366,0.144-0.758,0.258-1.193,0.31
		c-0.042,0.013-0.082,0.021-0.123,0.034c-0.905,0.271-1.755,0.467-2.619,0.537c-0.293,0.098-0.608,0.167-0.943,0.21
		c-0.188,0.047-0.379,0.086-0.578,0.116c-0.382,0.129-0.799,0.213-1.25,0.248c-1.93,0.549-3.868,1.026-5.834,1.039
		c-0.265,0.039-0.537,0.065-0.827,0.065c-0.017,0-0.032-0.002-0.049-0.002c0,0.013,0.001,0.026,0.001,0.04
		C378.68,263.592,373.368,264,368,264c-24.584,0-48.393-7.208-68.84-20.84l-5.439-3.624c-7.393-4.928-15.992-7.536-24.881-7.536
		c-24.72,0-44.84,20.12-44.84,44.84c0,8.881,2.6,17.48,7.528,24.872l5.84,8.769C249.56,328.76,256,350.032,256,372
		c0,3.215-0.193,6.412-0.484,9.59c0.122,0.688,0.079,1.395-0.193,2.073c-0.155,0.386-0.269,0.771-0.337,1.179
		c-0.01,0.086-0.022,0.197-0.04,0.344c-0.102,0.906-0.183,1.828-0.372,2.721c0.039,0.656-0.035,1.318-0.218,1.945
		c0.069,1.224-0.142,2.467-0.45,3.646c-0.076,0.289-0.173,0.553-0.281,0.804c-0.137,1.811-0.425,3.555-1.149,5.223
		c-3.074,12.025-8.104,23.51-15.099,33.989l-5.84,8.769c-4.928,7.393-7.528,16.001-7.528,24.873C224,491.88,244.12,512,268.84,512
		c8.88,0,17.488-2.608,24.872-7.528l5.44-3.624c8.968-5.976,18.672-10.664,28.84-14.136V512h16v-6.207
		c-3.186-0.577-6.352-1.318-9.492-2.293c-3.048-1.523-1.445-7.102,2.142-9.676c-1.11-25.15-33.813-32.502-45.142-52.324
		c-6-11-11-30,0-37c8-5,24,4,26-10c4-25-8-57,13-72c9-6,20-10,30-15c5-3,12-1,15,3c9,14,29,10,38,18c5,4,0,21,9,24c11,3,22,6,22,17
		c1.703,34.923,7.746,71.295-4.091,105.411l13.247-13.247C455.16,460.16,456,458.12,456,456v-88c0-13.232-10.768-24-24-24
		c-2.816,0-5.488,0.576-8,1.473V336c0-13.232-10.768-24-24-24c-3.16,0-6.16,0.648-8.928,1.76C388.313,303.561,379.064,296,368,296
		s-20.305,7.561-23.072,17.76C342.16,312.648,339.16,312,336,312c-13.232,0-24,10.768-24,24v57.473
		c-2.512-0.896-5.184-1.473-8-1.473c-13.232,0-24,10.768-24,24v32c0,2.672,1.336,5.168,3.561,6.656l30.425,20.278
		c-8.257,3.456-16.218,7.602-23.705,12.594l-5.439,3.624c-4.76,3.168-10.288,4.84-16,4.84C252.936,496,240,483.064,240,467.16
		c0-5.712,1.672-11.248,4.84-16l5.84-8.77C264.632,421.48,272,397.145,272,372s-7.368-49.48-21.313-70.393l-5.84-8.769
		c-3.168-4.752-4.84-10.288-4.84-16C240,260.936,252.936,248,268.84,248c5.713,0,11.24,1.672,16,4.84l5.44,3.624
		C313.376,271.863,340.248,280,368,280s54.624-8.136,77.72-23.527l5.44-3.625c4.76-3.168,10.288-4.84,16-4.84
		C483.064,248,496,260.936,496,276.84c0,5.713-1.672,11.248-4.84,16l-5.84,8.768C471.368,322.52,464,346.855,464,372
		s7.368,49.48,21.313,70.393l5.841,8.769c3.168,4.752,4.84,10.288,4.84,16C496,483.064,483.064,496,467.16,496
		c-5.712,0-11.24-1.672-16-4.84l-5.44-3.624c-1.862-1.24-3.808-2.336-5.72-3.48v-7.998c-1.993,5.547-4.449,11.034-7.5,16.442
		c-3,4,0,12-2,18c0,2-4,1-6,1c-0.166-0.05-0.333-0.092-0.5-0.141V512h16v-9.056l2.28,1.52c7.392,4.928,15.991,7.536,24.88,7.536
		c24.72,0,44.84-20.12,44.84-44.84C512,458.28,509.4,449.68,504.472,442.288z"/>
	<path d="M430.5,510.5c2-6-1-14,2-18c3.051-5.408,5.507-10.896,7.5-16.442v-0.736l0.409-0.409
		c11.837-34.116,5.794-70.488,4.091-105.411c0-11-11-14-22-17c-9-3-4-20-9-24c-9-8-29-4-38-18c-3-4-10-6-15-3c-10,5-21,9-30,15
		c-21,15-9,47-13,72c-2,14-18,5-26,10c-11,7-6,26,0,37c11.327,19.822,44.03,27.174,45.142,52.324
		c1.121-0.805,2.431-1.324,3.858-1.324c-1.429,0-2.737,0.52-3.858,1.324c0.065,1.495,0.026,3.049-0.142,4.676
		c0.168-1.627,0.207-3.181,0.142-4.676c-3.587,2.574-5.188,8.151-2.142,9.676c3.142,0.975,6.308,1.716,9.492,2.293V480
		c0-2.672-1.336-5.168-3.562-6.656L296,443.721V416c0-4.408,3.584-8,8-8s8,3.592,8,8v24h16v-24v-80c0-4.408,3.584-8,8-8s8,3.592,8,8
		v56h16v-56v-16c0-4.408,3.584-8,8-8s8,3.592,8,8v16v56h16v-56c0-4.408,3.584-8,8-8s8,3.592,8,8v32v24h16v-24c0-4.408,3.584-8,8-8
		s8,3.592,8,8v84.688l-13.656,13.656C424.84,467.84,424,469.88,424,472v39.359c0.167,0.049,0.334,0.091,0.5,0.141
		C426.5,511.5,430.5,512.5,430.5,510.5z"/>
</g>
</svg>
