<?xml version="1.0" encoding="utf-8"?>
<!-- Generator: Adobe Illustrator 16.0.0, SVG Export Plug-In . SVG Version: 6.00 Build 0)  -->
<!DOCTYPE svg PUBLIC "-//W3C//DTD SVG 1.1//EN" "http://www.w3.org/Graphics/SVG/1.1/DTD/svg11.dtd">
<svg version="1.1" id="Capa_1" xmlns="http://www.w3.org/2000/svg" xmlns:xlink="http://www.w3.org/1999/xlink" x="0px" y="0px"
	 width="496px" height="496px" viewBox="0 0 496 496" enable-background="new 0 0 496 496" xml:space="preserve">
<path fill="#F0BC5E" d="M237.941,420.445c-28.602,0-51.874-23.271-51.874-51.873c0-28.603,23.271-51.874,51.874-51.874
	s51.874,23.271,51.874,51.874C289.814,397.174,266.543,420.445,237.941,420.445z"/>
<path fill="#F0BC5E" d="M283.33,303.729h-90.778c-10.723,0-19.453-8.729-19.453-19.451v-32.785c0-5.006,1.188-10.018,3.423-14.498
	l16.03-32.057c5.525-11.055,16.638-17.923,28.998-17.923h61.78c10.724,0,19.453,8.729,19.453,19.453v77.811
	C302.783,295.001,294.054,303.729,283.33,303.729z"/>
<path d="M140.679,388.024h12.968v12.968h-12.968V388.024z"/>
<path d="M237.941,342.636c-3.799,0-7.548,0.867-11.131,2.574l5.582,11.711c8.855-4.243,18.517,2.644,18.517,11.651
	c0,1.855-0.438,3.724-1.316,5.544l11.712,5.581c1.707-3.577,2.574-7.326,2.574-11.125
	C263.878,354.268,252.246,342.636,237.941,342.636z"/>
<path d="M224.973,368.572c0-1.855,0.44-3.724,1.317-5.544l-11.711-5.582c-1.707,3.577-2.574,7.327-2.574,11.126
	c0,14.305,11.633,25.937,25.937,25.937c3.8,0,7.548-0.867,11.131-2.573l-5.581-11.712
	C234.643,384.473,224.973,377.58,224.973,368.572z"/>
<path d="M425.501,138.339l-117.64-47.058c-2.536-1.009-5.215-1.529-7.95-1.529c-8.799,0-16.6,5.278-19.86,13.449l-8.153,20.378
	c-1.016,2.536-1.537,5.214-1.537,7.95c0,4.398,1.318,8.549,3.658,12.003l-18.902,43.482h14.145l4.733-10.889l19.788,8.333
	l5.033-11.955l-19.654-8.277l5.439-12.513l113.317,45.323l-6.322,14.539L310.9,177.598l-5.03,11.958l80.558,33.913l-6.367,14.64
	l-77.376-32.576c0.02,0.317,0.099,0.618,0.099,0.934v13.184l72.104,30.356l-6.367,14.644l-65.737-27.682v1.919h-71.326
	c-10.723,0-19.453,8.729-19.453,19.452c0,10.724,8.729,19.452,19.453,19.452h71.326v3.886l18.876,7.95
	c-3.631,4.258-6.558,9.128-8.669,14.4l-15.485-6.517c-3.553,3.798-8.573,6.217-14.175,6.217h-7.677
	c-2.687,7.529-9.819,12.969-18.26,12.969h-38.905c-8.441,0-15.574-5.439-18.259-12.969h-7.678c-2.067,0-4.034-0.414-5.908-1.009
	c0.13,0.687,0.234,1.387,0.396,2.067l-30.683,12.914l-6.633-15.257l24.958-10.502c-1.014-2.361-1.583-4.948-1.583-7.664v-5.754
	l-28.542,12.022l-6.089-13.999l34.631-14.589v-10.467c0-1.232,0.08-2.47,0.216-3.695l-40.023,16.854l-6.367-14.644l54.577-22.979
	l8.916-17.825l-68.66,28.906l-6.367-14.64l112.435-47.343l4.733,10.889h14.143l-18.909-43.483c2.346-3.455,3.664-7.605,3.664-12.003
	c0-2.735-0.52-5.415-1.53-7.951l-8.153-20.377c-3.268-8.17-11.068-13.449-19.867-13.449c-2.735,0-5.415,0.52-7.951,1.529
	L76.324,138.339c-8.177,3.268-13.456,11.069-13.456,19.867c0,2.736,0.52,5.415,1.53,7.951l8.153,20.377
	c3.087,7.725,10.236,12.807,18.439,13.345l59.253,136.272h-16.049c-10.723,0-19.453,8.729-19.453,19.453
	c0,7.151,3.923,13.344,9.689,16.723c-0.728,0.75-1.44,1.51-2.096,2.334c-6.405,7.987-8.805,18.313-6.589,28.312l19.734,88.799
	H340.32l28.147-117.291c25.132-3.582,44.546-25.188,44.546-51.298c0-22.526-14.466-41.673-34.573-48.812l32.389-74.499
	c8.204-0.544,15.353-5.62,18.439-13.345l8.153-20.378c1.011-2.529,1.529-5.208,1.529-7.943
	C438.95,149.408,433.673,141.607,425.501,138.339z M103.901,197.039l84.58-33.827l-4.819-12.04l-88.119,35.241
	c-4.189,1.685-9.261-0.475-10.952-4.702l-8.153-20.386c-0.402-0.985-0.602-2.036-0.602-3.119c0-3.47,2.08-6.538,5.297-7.826
	l117.648-47.064c4.195-1.672,9.261,0.475,10.952,4.702l8.152,20.386c0.402,0.991,0.602,2.042,0.602,3.125
	c0,3.47-2.08,6.537-5.297,7.826l-16.632,6.652l4.815,12.037l15.844-6.334l5.439,12.519l-112.435,47.342L103.901,197.039z
	 M302.783,267.603v-2.777h-71.326c-3.572,0-6.484-2.913-6.484-6.484s2.913-6.483,6.484-6.483h71.326v-0.812l49.907,21.018
	c-7.415,1.226-14.324,3.973-20.326,7.994L302.783,267.603z M367.489,322.996l-37.402,155.807h-184.21l-17.474-78.64
	c-1.362-6.142,0.111-12.475,4.046-17.384c3.935-4.908,9.799-7.723,16.087-7.723c8.353,0,15.828,4.987,19.044,12.696l27.131,65.113
	h37.94c2.685,7.528,9.818,12.969,18.257,12.969c10.725,0,19.454-8.729,19.454-19.453c0-0.804-0.143-1.576-0.241-2.353l22.59-11.297
	l-5.803-11.602l-22.536,11.272c-3.495-3.371-8.229-5.474-13.464-5.474c-8.439,0-15.573,5.439-18.257,12.969h-29.296l-23.803-57.14
	c-5.233-12.559-17.404-20.671-31.016-20.671h-14.342c-3.571,0-6.484-2.913-6.484-6.483c0-3.572,2.913-6.485,6.484-6.485h55.691
	c1.912-4.708,4.486-9.063,7.627-12.968h-33.13l-2.846-6.558l31.041-13.069c5.914,7.928,15.283,13.143,25.912,13.143h38.905
	c14.244,0,26.24-9.299,30.578-22.1l21.748,9.156c-0.266,2.121-0.453,4.269-0.453,6.459c0,4.437,0.583,8.779,1.66,12.969h-32.558
	c3.141,3.904,5.715,8.26,7.628,12.968h30.306c2.938,5.072,6.692,9.67,11.235,13.539l-9.758,25.366h-31.783
	c-1.913,4.708-4.487,9.065-7.628,12.968h48.321l31.177-81.058c0.749-1.966,2.605-3.236,4.714-3.236c2.78,0,5.043,2.265,5.043,5.123
	C367.624,322.211,367.58,322.606,367.489,322.996z M244.425,446.382c0-3.571,2.913-6.483,6.483-6.483
	c3.573,0,6.485,2.912,6.485,6.483c0,3.572-2.912,6.484-6.485,6.484C247.338,452.866,244.425,449.954,244.425,446.382z
	 M400.046,323.183c0,17.753-11.965,32.731-28.238,37.383l8.285-34.536c0.333-1.374,0.5-2.796,0.5-4.287
	c0-9.926-8.086-18.013-18.012-18.013c-7.405,0-14.162,4.642-16.815,11.548l-13.181,34.275c-6.576-7.11-10.349-16.476-10.349-26.37
	c0-21.456,17.448-38.904,38.904-38.904S400.046,301.727,400.046,323.183z M425.381,161.338l-8.152,20.386
	c-1.685,4.22-6.744,6.386-10.953,4.695l-117.647-47.071c-3.218-1.282-5.298-4.35-5.298-7.819c0-1.083,0.199-2.134,0.603-3.125
	l8.152-20.386c1.288-3.217,4.356-5.297,7.826-5.297c1.083,0,2.135,0.199,3.125,0.601l117.648,47.058
	c3.217,1.289,5.297,4.356,5.297,7.827C425.982,159.29,425.783,160.341,425.381,161.338z"/>
<path d="M263.878,212.952h12.969v12.968h-12.969V212.952z"/>
<path d="M237.941,212.952h12.967v12.968h-12.967V212.952z"/>
<path d="M212.004,212.952h12.968v12.968h-12.968V212.952z"/>
<g>
	<ellipse fill="#F0BC5E" stroke="#000000" stroke-miterlimit="10" cx="250.908" cy="63.523" rx="12.97" ry="15.29"/>
	<ellipse fill="#F0BC5E" stroke="#000000" stroke-miterlimit="10" cx="40.984" cy="108.801" rx="12.968" ry="15.29"/>
	<ellipse fill="#F0BC5E" stroke="#000000" stroke-miterlimit="10" cx="454.087" cy="248.296" rx="12.968" ry="15.29"/>
	<ellipse fill="#F0BC5E" stroke="#000000" stroke-miterlimit="10" cx="417.067" cy="78.812" rx="12.968" ry="15.29"/>
	<ellipse fill="#F0BC5E" stroke="#000000" stroke-miterlimit="10" cx="359.925" cy="427.334" rx="12.968" ry="15.29"/>
	<ellipse fill="#F0BC5E" stroke="#000000" stroke-miterlimit="10" cx="165.399" cy="427.334" rx="12.968" ry="15.29"/>
	<path d="M359.925,401.398c-14.305,0-25.937,11.632-25.937,25.937s11.632,25.938,25.937,25.938
		c14.304,0,25.937-11.633,25.937-25.938S374.229,401.398,359.925,401.398z M359.925,440.304c-7.152,0-12.969-5.816-12.969-12.969
		s5.816-12.969,12.969-12.969c7.151,0,12.968,5.816,12.968,12.969S367.076,440.304,359.925,440.304z"/>
	<path d="M165.399,401.398c-14.304,0-25.937,11.632-25.937,25.937s11.633,25.938,25.937,25.938s25.937-11.633,25.937-25.938
		S179.703,401.398,165.399,401.398z M165.399,440.304c-7.152,0-12.968-5.816-12.968-12.969s5.816-12.969,12.968-12.969
		c7.152,0,12.968,5.816,12.968,12.969S172.551,440.304,165.399,440.304z"/>
	<path d="M423.551,254.484c14.305,0,25.937,11.633,25.937,25.938c0,3.584,2.905,6.482,6.485,6.482c3.579,0,6.483-2.898,6.483-6.482
		c0-14.305,11.632-25.938,25.937-25.938c3.579,0,6.484-2.898,6.484-6.484c0-3.586-2.905-6.484-6.484-6.484
		c-14.305,0-25.937-11.633-25.937-25.937c0-3.585-2.904-6.484-6.483-6.484c-3.58,0-6.485,2.898-6.485,6.484
		c0,14.304-11.632,25.937-25.937,25.937c-3.579,0-6.484,2.898-6.484,6.484C417.066,251.586,419.972,254.484,423.551,254.484z
		 M455.973,237.061c2.878,4.332,6.607,8.054,10.938,10.939c-4.331,2.878-8.055,6.607-10.938,10.939
		c-2.88-4.332-6.608-8.055-10.939-10.939C449.364,245.122,453.093,241.393,455.973,237.061z"/>
	<path d="M384.646,85.295c14.305,0,25.937,11.633,25.937,25.938c0,3.585,2.905,6.484,6.485,6.484c3.578,0,6.483-2.899,6.483-6.484
		c0-14.305,11.632-25.938,25.937-25.938c3.579,0,6.484-2.898,6.484-6.484s-2.905-6.484-6.484-6.484
		c-14.305,0-25.937-11.632-25.937-25.937c0-3.585-2.905-6.484-6.483-6.484c-3.58,0-6.485,2.898-6.485,6.484
		c0,14.304-11.632,25.937-25.937,25.937c-3.579,0-6.484,2.899-6.484,6.484S381.066,85.295,384.646,85.295z M417.067,67.872
		c2.878,4.332,6.606,8.061,10.938,10.939c-4.332,2.879-8.061,6.607-10.938,10.939c-2.88-4.332-6.608-8.06-10.939-10.939
		C410.459,75.933,414.188,72.204,417.067,67.872z"/>
	<path d="M8.563,115.284c14.304,0,25.937,11.633,25.937,25.937c0,3.586,2.905,6.484,6.484,6.484c3.579,0,6.484-2.898,6.484-6.484
		c0-14.304,11.632-25.937,25.937-25.937c3.579,0,6.484-2.898,6.484-6.483c0-3.586-2.905-6.485-6.484-6.485
		c-14.305,0-25.937-11.632-25.937-25.937c0-3.585-2.905-6.484-6.484-6.484c-3.58,0-6.484,2.898-6.484,6.484
		c0,14.304-11.633,25.937-25.937,25.937c-3.579,0-6.484,2.899-6.484,6.485C2.079,112.386,4.984,115.284,8.563,115.284z
		 M40.984,97.861c2.878,4.332,6.607,8.061,10.939,10.939c-4.332,2.878-8.061,6.607-10.939,10.938
		c-2.879-4.332-6.607-8.06-10.939-10.938C34.377,105.922,38.105,102.193,40.984,97.861z"/>
	<ellipse fill="#F0BC5E" stroke="#000000" stroke-miterlimit="10" cx="49.089" cy="275.472" rx="12.968" ry="15.29"/>
	<path d="M16.668,281.956c14.304,0,25.937,11.634,25.937,25.937c0,3.586,2.905,6.484,6.484,6.484s6.484-2.898,6.484-6.484
		c0-14.303,11.633-25.937,25.937-25.937c3.579,0,6.484-2.897,6.484-6.484c0-3.585-2.905-6.483-6.484-6.483
		c-14.304,0-25.937-11.633-25.937-25.937c0-3.586-2.905-6.485-6.484-6.485s-6.484,2.898-6.484,6.485
		c0,14.304-11.633,25.937-25.937,25.937c-3.58,0-6.484,2.898-6.484,6.483C10.185,279.059,13.089,281.956,16.668,281.956z
		 M49.089,264.533c2.879,4.331,6.607,8.061,10.939,10.938c-4.332,2.88-8.06,6.607-10.939,10.938
		c-2.878-4.331-6.607-8.059-10.939-10.938C42.482,272.594,46.211,268.864,49.089,264.533z"/>
	<path d="M218.489,70.006c14.304,0,25.936,11.633,25.936,25.937c0,3.585,2.906,6.484,6.483,6.484c3.58,0,6.485-2.899,6.485-6.484
		c0-14.304,11.632-25.937,25.937-25.937c3.58,0,6.484-2.898,6.484-6.484c0-3.586-2.904-6.484-6.484-6.484
		c-14.305,0-25.937-11.632-25.937-25.937c0-3.586-2.905-6.484-6.485-6.484c-3.577,0-6.483,2.898-6.483,6.484
		c0,14.304-11.632,25.937-25.936,25.937c-3.58,0-6.484,2.898-6.484,6.484C212.004,67.108,214.909,70.006,218.489,70.006z
		 M250.908,52.583c2.88,4.331,6.608,8.06,10.94,10.939c-4.332,2.879-8.061,6.607-10.94,10.938
		c-2.877-4.331-6.606-8.06-10.938-10.938C244.302,60.644,248.031,56.915,250.908,52.583z"/>
</g>
</svg>
