<?xml version="1.0" encoding="utf-8"?>
<!-- Generator: Adobe Illustrator 16.0.0, SVG Export Plug-In . SVG Version: 6.00 Build 0)  -->
<!DOCTYPE svg PUBLIC "-//W3C//DTD SVG 1.1//EN" "http://www.w3.org/Graphics/SVG/1.1/DTD/svg11.dtd">
<svg version="1.1" id="Layer_35" xmlns="http://www.w3.org/2000/svg" xmlns:xlink="http://www.w3.org/1999/xlink" x="0px" y="0px"
	 width="512px" height="512px" viewBox="0 0 512 512" enable-background="new 0 0 512 512" xml:space="preserve">
<path fill="#F0BC5E" d="M350.841,472.299h-192c-13.232,0-24-10.768-24-24v-144c0-13.232,10.768-24,24-24h192
	c13.232,0,24,10.768,24,24v144C374.841,461.531,364.073,472.299,350.841,472.299z"/>
<path d="M277.432,136c-5.695,0-11.24,1.12-16.479,3.328l-110.264,46.424c-8.92,3.752-14.688,12.432-14.688,22.12v2.872
	C136,240.112,159.888,264,189.256,264c14.216,0,27.584-5.536,37.656-15.6L304,171.312v-8.744C304,147.92,292.08,136,277.432,136z
	 M288,164.688l-72.4,72.4c-7.04,7.04-16.4,10.912-26.344,10.912C168.712,248,152,231.288,152,210.744v-2.872
	c0-3.224,1.92-6.12,4.888-7.368L267.16,154.08c3.271-1.384,6.72-2.08,10.271-2.08c5.823,0,10.567,4.744,10.567,10.568L288,164.688
	L288,164.688z"/>
<path d="M376,109.48V88c13.232,0,24-10.768,24-24V32c0-13.232-10.768-24-24-24h-96c-13.232,0-24,10.768-24,24v32
	c0,13.232,10.768,24,24,24v16h-6.305c-7.512,0-14.831,1.48-21.735,4.392l-113.688,47.864C117.456,165.016,104,185.28,104,207.872
	V448c0,30.872,25.128,56,56,56h192c30.872,0,56-25.128,56-56V160C408,137.72,394.889,118.488,376,109.48L376,109.48z M272,64V32
	c0-4.408,3.584-8,8-8h96c4.416,0,8,3.592,8,8v32c0,4.408-3.584,8-8,8h-96C275.584,72,272,68.408,272,64z M296,88h64v16.64
	c-2.624-0.376-5.279-0.64-8-0.64h-56V88z M392,448c0,22.056-17.943,40-40,40H160c-22.056,0-40-17.944-40-40V207.872
	c0-16.136,9.608-30.608,24.48-36.864l113.696-47.872h0.008c4.928-2.08,10.146-3.136,15.512-3.136H352c22.057,0,40,17.944,40,40V448z
	"/>
<path d="M360,152h16v16h-16V152z"/>
<path d="M360,184h16v16h-16V184z"/>
<path d="M360,216h16v16h-16V216z"/>
<circle fill="#FFFFFF" cx="254.841" cy="376.299" r="87.83"/>
<g>
	<g>
		<rect x="218.158" y="362.543" fill="#F0BC5E" width="13.756" height="27.513"/>
		<rect x="277.769" y="362.543" fill="#F0BC5E" width="13.756" height="27.513"/>
		<rect x="241.084" y="339.615" fill="#F0BC5E" width="27.513" height="13.757"/>
		<rect x="241.084" y="399.227" fill="#F0BC5E" width="27.513" height="13.755"/>
	</g>
	<g>
		<path d="M254.841,305.226c-39.191,0-71.074,31.884-71.074,71.073s31.882,71.074,71.074,71.074s71.074-31.885,71.074-71.074
			S294.032,305.226,254.841,305.226z M310.875,412.021c-4.32,0.549-14.577,1.416-22.427-1.309c2.771-2.707,5.19-5.756,7.249-9.061
			c0.704,0.058,1.412,0.092,2.126,0.092c7.295,0,15.025-2.79,20.345-5.199C316.403,402.051,313.934,407.238,310.875,412.021z
			 M254.841,419.86c-24.021,0-43.562-19.541-43.562-43.562s19.541-43.561,43.562-43.561s43.562,19.54,43.562,43.561
			S278.861,419.86,254.841,419.86z M222.789,412.126c-1.994,7.652-0.475,16.788,1.115,22.999c-5.081-2.683-9.776-5.995-13.974-9.847
			c0.206-4.345,1.132-14.582,5.175-21.841C217.302,406.644,219.902,409.541,222.789,412.126z M226.792,415.353
			c3.141,2.263,6.55,4.161,10.193,5.622c0.773,7.887,5.466,16.102,8.926,21.195c-5.769-0.777-11.305-2.288-16.51-4.452
			C228.113,433.575,225.462,423.577,226.792,415.353z M207.24,383.158c-6.452,4.608-11.228,12.791-13.912,18.342
			c-2.144-5.212-3.634-10.755-4.391-16.528c2.937-3.182,10.232-10.445,17.998-13.419c-0.153,1.563-0.241,3.144-0.241,4.746
			C206.694,378.633,206.919,380.912,207.24,383.158z M207.708,366.479c-7.619,2.139-14.877,8.176-19.289,12.461
			c-0.034-0.876-0.066-1.756-0.066-2.642c0-4.941,0.56-9.751,1.586-14.387c3.856-1.987,13.243-6.33,21.567-6.454
			C209.828,358.93,208.512,362.607,207.708,366.479z M219.368,320.104c4.782-3.03,9.968-5.475,15.469-7.215
			c3.643,2.339,12.104,8.288,16.379,15.446c-3.959,0.297-7.784,1.057-11.42,2.255C234.147,325.062,225.292,321.788,219.368,320.104z
			 M286.894,340.471c1.994-7.65,0.475-16.787-1.114-22.998c5.08,2.683,9.775,5.996,13.974,9.848
			c-0.205,4.345-1.133,14.581-5.175,21.839C292.38,345.955,289.779,343.058,286.894,340.471z M282.89,337.245
			c-3.141-2.263-6.551-4.161-10.193-5.621c-0.771-7.888-5.465-16.103-8.925-21.196c5.768,0.776,11.305,2.288,16.51,4.452
			C281.569,319.022,284.22,329.021,282.89,337.245z M302.442,369.438c6.451-4.608,11.228-12.79,13.912-18.341
			c2.144,5.211,3.635,10.755,4.391,16.527c-2.937,3.184-10.233,10.446-17.997,13.42c0.152-1.563,0.24-3.144,0.24-4.745
			C302.988,373.965,302.764,371.687,302.442,369.438z M301.975,386.118c7.618-2.139,14.878-8.175,19.289-12.46
			c0.033,0.875,0.066,1.756,0.066,2.641c0,4.94-0.56,9.751-1.588,14.387c-3.855,1.987-13.246,6.332-21.566,6.456
			C299.854,393.669,301.17,389.991,301.975,386.118z M313.801,345.623c-1.682,4.009-6.067,13.343-12.36,18.783
			c-0.977-3.819-2.361-7.474-4.191-10.869c4.465-6.53,6.147-15.813,6.772-21.938C307.854,335.814,311.141,340.53,313.801,345.623z
			 M257.739,309.884c2.625,3.448,8.531,11.92,10.102,20.101c-3.675-1.034-7.521-1.633-11.491-1.756
			c-3.421-7.158-10.654-13.283-15.652-16.889c4.56-0.992,9.29-1.529,14.143-1.529C255.813,309.811,256.775,309.843,257.739,309.884z
			 M214.409,323.569c4.251,0.961,14.181,3.656,20.621,8.897c-3.559,1.616-6.885,3.646-9.921,6.037
			c-1.917-0.874-4.081-1.58-6.481-2.082l-0.94,4.487c1.268,0.266,2.456,0.591,3.554,0.97c-2.776,2.71-5.2,5.766-7.261,9.074
			c-7.898-0.633-16.632,2.455-22.469,5.102c1.765-5.507,4.235-10.698,7.293-15.479c2.905-0.368,8.655-0.903,14.538-0.32l0.452-4.563
			c-4.193-0.416-8.292-0.3-11.5-0.064C205.805,331.109,209.874,327.055,214.409,323.569z M195.882,406.976
			c1.681-4.01,6.066-13.344,12.36-18.784c0.977,3.819,2.361,7.475,4.191,10.869c-4.463,6.529-6.146,15.813-6.772,21.937
			C201.827,416.783,198.542,412.066,195.882,406.976z M251.942,442.713c-2.624-3.447-8.531-11.919-10.101-20.1
			c3.67,1.032,7.516,1.631,11.482,1.757c0.846,1.77,1.951,3.567,3.324,5.359l3.642-2.786c-0.69-0.9-1.294-1.796-1.823-2.681
			c3.96-0.299,7.787-1.059,11.422-2.257c5.65,5.532,14.504,8.807,20.429,10.486c-4.783,3.029-9.967,5.475-15.467,7.215
			c-2.545-1.633-7.526-5.077-11.769-9.517l-3.313,3.168c3.067,3.213,6.481,5.93,9.222,7.901c-4.565,0.99-9.296,1.527-14.149,1.527
			C253.868,442.788,252.906,442.756,251.942,442.713z M295.273,429.029c-4.251-0.961-14.181-3.657-20.621-8.898
			c3.563-1.617,6.894-3.65,9.932-6.046c5.275,2.411,11.661,3.115,17.222,3.115c1.998,0,3.879-0.091,5.568-0.22
			C303.87,421.497,299.804,425.548,295.273,429.029z"/>
		<path d="M282.594,392.348h11.223v-32.099h-11.223c-2.819-4.878-6.827-8.883-11.703-11.705v-11.221h-32.099v11.221
			c-4.879,2.822-8.884,6.827-11.704,11.705h-11.223v32.099h11.223c2.82,4.878,6.827,8.885,11.704,11.707v11.22h32.099v-11.22
			C275.769,401.232,279.774,397.226,282.594,392.348z M280.06,374.006h9.172v4.586h-9.172V374.006z M280.06,387.762v-4.585h9.172
			v4.585H280.06z M289.231,369.42h-9.172v-4.585h9.172V369.42z M252.549,351.08v-9.171h4.585v9.171H252.549z M261.72,341.909h4.586
			v9.171h-4.586V341.909L261.72,341.909z M243.377,341.909h4.586v9.171h-4.586V341.909z M229.621,378.592h-9.171v-4.586h9.171
			V378.592z M229.621,364.835v4.585h-9.171v-4.585H229.621z M220.45,383.177h9.171v4.585h-9.171V383.177z M257.134,401.519v9.171
			h-4.585v-9.171H257.134z M247.964,410.689h-4.586v-9.171h4.586V410.689z M266.306,410.689h-4.586v-9.171h4.586V410.689z
			 M270.891,398.618v-1.686h-32.099v1.686c-2.421-1.737-4.533-3.849-6.271-6.271h1.686v-32.099h-1.686
			c1.738-2.42,3.85-4.531,6.271-6.27v1.685h32.099v-1.685c2.42,1.738,4.531,3.85,6.27,6.27h-1.685v32.099h1.685
			C275.422,394.77,273.311,396.881,270.891,398.618z"/>
		<path d="M254.841,364.835c-6.32,0-11.463,5.143-11.463,11.464s5.143,11.463,11.463,11.463c6.321,0,11.465-5.142,11.465-11.463
			S261.162,364.835,254.841,364.835z M254.841,383.177c-3.792,0-6.877-3.086-6.877-6.878s3.085-6.879,6.877-6.879
			s6.879,3.087,6.879,6.879S258.633,383.177,254.841,383.177z"/>
		<rect x="252.549" y="314.396" width="4.585" height="4.585"/>
		
			<rect x="232.162" y="317.993" transform="matrix(-0.9397 0.3421 -0.3421 -0.9397 564.3292 541.0417)" width="4.585" height="4.583"/>
		
			<rect x="214.229" y="328.338" transform="matrix(-0.7662 0.6426 -0.6426 -0.7662 594.881 444.834)" width="4.585" height="4.585"/>
		
			<rect x="200.925" y="344.201" transform="matrix(-0.4998 0.8661 -0.8661 -0.4998 604.8992 343.6681)" width="4.586" height="4.586"/>
		
			<rect x="193.839" y="363.666" transform="matrix(-0.1735 0.9848 -0.9848 -0.1735 590.5643 236.2835)" width="4.585" height="4.582"/>
		
			<rect x="193.849" y="384.361" transform="matrix(-0.9848 0.1734 -0.1734 -0.9848 456.3588 733.4374)" width="4.584" height="4.586"/>
		
			<rect x="200.915" y="403.814" transform="matrix(-0.8662 0.4998 -0.4998 -0.8662 582.1807 656.297)" width="4.586" height="4.586"/>
		
			<rect x="214.244" y="419.671" transform="matrix(-0.6426 0.7662 -0.7662 -0.6426 678.9873 527.226)" width="4.585" height="4.586"/>
		
			<rect x="232.154" y="430.019" transform="matrix(-0.3418 0.9398 -0.9398 -0.3418 720.8551 359.7576)" width="4.583" height="4.586"/>
		<rect x="252.549" y="433.617" width="4.585" height="4.585"/>
		
			<rect x="272.931" y="430.011" transform="matrix(-0.9398 0.3418 -0.3418 -0.9398 681.6303 744.4991)" width="4.586" height="4.582"/>
		
			<rect x="290.861" y="419.672" transform="matrix(-0.7663 0.6425 -0.6425 -0.7663 788.91 556.9396)" width="4.585" height="4.585"/>
		
			<rect x="304.177" y="403.802" transform="matrix(-0.4999 0.8661 -0.8661 -0.4999 811.3856 343.6833)" width="4.585" height="4.584"/>
		
			<rect x="311.236" y="384.362" transform="matrix(-0.1736 0.9848 -0.9848 -0.1736 748.7341 144.9992)" width="4.585" height="4.582"/>
		
			<rect x="311.251" y="363.655" transform="matrix(-0.9848 0.1736 -0.1736 -0.9848 685.8585 671.9032)" width="4.584" height="4.586"/>
		<rect x="304.184" y="344.205" transform="matrix(-0.866 0.5 -0.5 -0.866 745.1395 493.3417)" width="4.586" height="4.586"/>
		
			<rect x="290.855" y="328.333" transform="matrix(-0.6425 0.7663 -0.7663 -0.6425 734.8495 318.4332)" width="4.585" height="4.585"/>
		
			<rect x="272.934" y="317.999" transform="matrix(-0.3418 0.9398 -0.9398 -0.3418 670.3008 171.1225)" width="4.583" height="4.585"/>
	</g>
</g>
</svg>
