<?xml version="1.0" encoding="utf-8"?>
<!-- Generator: Adobe Illustrator 16.0.0, SVG Export Plug-In . SVG Version: 6.00 Build 0)  -->
<!DOCTYPE svg PUBLIC "-//W3C//DTD SVG 1.1//EN" "http://www.w3.org/Graphics/SVG/1.1/DTD/svg11.dtd">
<svg version="1.1" id="Capa_1" xmlns="http://www.w3.org/2000/svg" xmlns:xlink="http://www.w3.org/1999/xlink" x="0px" y="0px"
	 width="496px" height="496px" viewBox="0 0 496 496" enable-background="new 0 0 496 496" xml:space="preserve">
<path fill="#F0BC5E" d="M288,336H128c-8.824,0-16-7.176-16-16V176c0-8.824,7.176-16,16-16h160c8.824,0,16,7.176,16,16v144
	C304,328.824,296.824,336,288,336z"/>
<ellipse fill="#FFFFFF" stroke="#000000" stroke-miterlimit="10" cx="208" cy="256.514" rx="30.551" ry="34.088"/>
<path fill="#F0BC5E" d="M332.945,424H83.055l32-64h185.891L332.945,424z"/>
<path d="M248,265.297c0-7.664-2.246-15.098-6.496-21.473L208,193.574l-33.504,50.25c-4.25,6.375-6.496,13.809-6.496,21.473
	C168,286.641,185.359,304,206.703,304h2.594C230.641,304,248,286.641,248,265.297z M209.297,288h-2.594
	C194.184,288,184,277.816,184,265.297c0-4.496,1.32-8.848,3.816-12.594L208,222.426l20.184,30.277
	c2.496,3.746,3.816,8.098,3.816,12.594C232,277.816,221.816,288,209.297,288z"/>
<path d="M256,112c13.23,0,24-10.77,24-24V72c0-13.23-10.77-24-24-24H140.688l-31.031,31.031C106.008,82.68,104,87.527,104,92.688
	c0,10.648,8.664,19.313,19.313,19.313H256z M120,92.688c0-0.871,0.352-1.727,0.969-2.344L147.313,64H256c4.406,0,8,3.594,8,8v16
	c0,4.406-3.594,8-8,8H123.313C121.488,96,120,94.512,120,92.688z"/>
<path d="M424,139.313L459.313,104L376,20.688L340.688,56l16,16L336,92.688l-0.977-0.977C330.559,87.246,328,81.063,328,74.742V24
	c0-13.23-10.77-24-24-24H133.258c-10.684,0-20.73,4.16-28.281,11.711L100,16.688L91.313,8C81-2.32,63-2.32,52.688,8L8,52.688
	C2.84,57.84,0,64.703,0,72s2.84,14.16,8,19.313L16.688,100l-4.977,4.977C4.16,112.527,0,122.566,0,133.258V456
	c0,22.055,17.945,40,40,40h274.742c10.684,0,20.73-4.16,28.281-11.711l61.258-61.258C411.84,415.473,416,405.434,416,394.742
	V189.258c0-10.684-4.16-20.73-11.711-28.281L387.313,144L408,123.313L424,139.313z M376,43.313L436.688,104L424,116.688L363.313,56
	L376,43.313z M19.313,80C17.207,77.895,16,74.977,16,72s1.207-5.895,3.313-8L64,19.313c4.207-4.207,11.793-4.207,16,0L88.688,28
	L28,88.688L19.313,80z M16,408v-24h48v24H16z M64,368H16v-32h48V368z M64,320H16v-32h48V320z M64,272H16v-32h48V272z M64,224H16v-32
	h48V224z M16,176v-33.566l36.719,22.949c4.137,2.586,7.137,6.336,9.051,10.617H16z M331.711,472.977
	c-4.465,4.465-10.648,7.023-16.969,7.023H40c-13.23,0-24-10.77-24-24v-32h184v-16H80V185.734c0-13.879-7.023-26.559-18.801-33.918
	l-43.52-27.199c1.199-3.098,2.984-5.961,5.352-8.328l93.258-93.266C120.754,18.559,126.938,16,133.258,16H304c4.406,0,8,3.594,8,8
	v50.742c0,10.684,4.16,20.73,11.711,28.281L365.688,145l-10.895,6.809c-11.77,7.359-18.801,20.039-18.801,33.918V408H216v16h164.688
	L331.711,472.977z M352,336h48v32h-48V336z M352,320v-32h48v32H352z M352,272v-32h48v32H352z M352,224v-32h48v32H352z M395.992,408
	H352v-24h48v10.742C400,399.457,398.566,404.098,395.992,408z M395.992,176H354.23c1.914-4.281,4.914-8.031,9.051-10.617
	l14.023-8.766l15.664,15.664C394.105,173.426,395.113,174.672,395.992,176z M376,132.688L347.313,104L368,83.313L396.688,112
	L376,132.688z"/>
<path d="M112,128h88v16h-88V128z"/>
<path d="M216,128h88v16h-88V128z"/>
</svg>
