<?xml version="1.0" encoding="utf-8"?>
<!-- Generator: Adobe Illustrator 16.0.0, SVG Export Plug-In . SVG Version: 6.00 Build 0)  -->
<!DOCTYPE svg PUBLIC "-//W3C//DTD SVG 1.1//EN" "http://www.w3.org/Graphics/SVG/1.1/DTD/svg11.dtd">
<svg version="1.1" id="Layer_35" xmlns="http://www.w3.org/2000/svg" xmlns:xlink="http://www.w3.org/1999/xlink" x="0px" y="0px"
	 width="512px" height="512px" viewBox="0 0 512 512" enable-background="new 0 0 512 512" xml:space="preserve">
<path fill="#F0BC5E" d="M352,472H160c-13.232,0-24-10.768-24-24V304c0-13.232,10.768-24,24-24h192c13.232,0,24,10.768,24,24v144
	C376,461.232,365.232,472,352,472z"/>
<path d="M277.432,136c-5.695,0-11.24,1.12-16.479,3.328l-110.264,46.424c-8.92,3.752-14.688,12.432-14.688,22.12v2.872
	C136,240.112,159.888,264,189.256,264c14.216,0,27.584-5.536,37.656-15.6L304,171.312v-8.744C304,147.92,292.08,136,277.432,136z
	 M288,164.688l-72.4,72.4c-7.04,7.04-16.4,10.912-26.344,10.912C168.712,248,152,231.288,152,210.744v-2.872
	c0-3.224,1.92-6.12,4.888-7.368L267.16,154.08c3.271-1.384,6.72-2.08,10.271-2.08c5.824,0,10.568,4.744,10.568,10.568V164.688z"/>
<path d="M376,109.48V88c13.232,0,24-10.768,24-24V32c0-13.232-10.768-24-24-24h-96c-13.232,0-24,10.768-24,24v32
	c0,13.232,10.768,24,24,24v16h-6.305c-7.512,0-14.831,1.48-21.735,4.392l-113.688,47.864C117.456,165.016,104,185.28,104,207.872
	V448c0,30.872,25.128,56,56,56h192c30.872,0,56-25.128,56-56V160C408,137.72,394.889,118.488,376,109.48L376,109.48z M272,64V32
	c0-4.408,3.584-8,8-8h96c4.416,0,8,3.592,8,8v32c0,4.408-3.584,8-8,8h-96C275.584,72,272,68.408,272,64z M296,88h64v16.64
	c-2.624-0.376-5.279-0.64-8-0.64h-56V88z M392,448c0,22.056-17.943,40-40,40H160c-22.056,0-40-17.944-40-40V207.872
	c0-16.136,9.608-30.608,24.48-36.864l113.696-47.872h0.008c4.928-2.08,10.145-3.136,15.512-3.136H352c22.057,0,40,17.944,40,40V448z
	"/>
<path d="M360,152h16v16h-16V152z"/>
<path d="M360,184h16v16h-16V184z"/>
<path d="M360,216h16v16h-16V216z"/>
<circle fill="#FFFFFF" cx="256" cy="376" r="87.83"/>
<g>
	<path fill="#F0BC5E" d="M292.815,342.764c-5.802,0-10.52,4.717-10.52,10.519V363.8h-18.407v13.148h-15.777V363.8h-18.408v-10.518
		c0-5.802-4.718-10.519-10.518-10.519c-5.801,0-10.52,4.717-10.52,10.519v47.332c0,5.802,4.718,10.52,10.52,10.52
		c5.8,0,10.518-4.718,10.518-10.52v-10.519h15.778v10.519c0,5.802,4.717,10.52,10.518,10.52s10.519-4.718,10.519-10.52v-10.519
		h15.777v10.519c0,5.802,4.718,10.52,10.52,10.52c5.8,0,10.518-4.718,10.518-10.52v-47.332
		C303.333,347.48,298.615,342.764,292.815,342.764z"/>
	<path d="M273.45,302.762c-2.442-7.305-9.334-12.591-17.45-12.591c-8.115,0-15.007,5.286-17.45,12.591
		c-34.161,8.018-58.809,38.926-58.809,74.187c0,42.05,34.211,76.259,76.259,76.259c42.048,0,76.259-34.209,76.259-76.259
		C332.259,341.688,307.611,310.779,273.45,302.762z M256,295.43c7.251,0,13.148,5.898,13.148,13.148s-5.897,13.147-13.148,13.147
		c-7.25,0-13.148-5.897-13.148-13.147S248.75,295.43,256,295.43z M250.741,326.21c1.667,0.499,3.432,0.775,5.259,0.775
		c1.827,0,3.592-0.276,5.26-0.775v48.108h-10.519V326.21z M256,447.948c-39.15,0-71-31.851-71-71
		c0-32.084,21.92-60.281,52.601-68.515c0,0.05-0.009,0.097-0.009,0.145c0,1.775,0.265,3.487,0.739,5.115
		c-28.439,7.886-48.072,33.448-48.072,63.255c0,36.249,29.491,65.74,65.74,65.74c16.201,0,31.766-5.945,43.828-16.74l-3.508-3.918
		c-11.098,9.93-25.415,15.399-40.32,15.399c-33.352,0-60.481-27.133-60.481-60.481c0-27.703,18.429-51.423,45.022-58.414
		c1.302,2.014,2.979,3.758,4.941,5.128v55.916h21.037v-55.916c1.961-1.373,3.64-3.116,4.94-5.128
		c26.594,6.991,45.022,30.711,45.022,58.414c0,13.905-4.587,26.975-13.264,37.801l4.104,3.29
		c9.299-11.602,14.418-26.191,14.418-41.091c0-29.807-19.633-55.369-48.071-63.255c0.474-1.628,0.738-3.34,0.738-5.115
		c0-0.048-0.008-0.095-0.008-0.145C305.08,316.667,327,344.864,327,376.948C327,416.098,295.149,447.948,256,447.948z"/>
	<g>
	</g>
	<g>
	</g>
	<g>
	</g>
	<g>
	</g>
	<g>
	</g>
	<g>
	</g>
	<g>
	</g>
	<g>
	</g>
	<g>
	</g>
	<g>
	</g>
	<g>
	</g>
	<g>
	</g>
	<g>
	</g>
	<g>
	</g>
	<g>
	</g>
</g>
</svg>
