<?xml version="1.0" encoding="utf-8"?>
<!-- Generator: Adobe Illustrator 16.0.0, SVG Export Plug-In . SVG Version: 6.00 Build 0)  -->
<!DOCTYPE svg PUBLIC "-//W3C//DTD SVG 1.1//EN" "http://www.w3.org/Graphics/SVG/1.1/DTD/svg11.dtd">
<svg version="1.1" id="Layer_35" xmlns="http://www.w3.org/2000/svg" xmlns:xlink="http://www.w3.org/1999/xlink" x="0px" y="0px"
	 width="512px" height="512px" viewBox="0 0 512 512" enable-background="new 0 0 512 512" xml:space="preserve">
<path fill="#F0BC5E" d="M352,472H160c-13.232,0-24-10.768-24-24V304c0-13.232,10.768-24,24-24h192c13.232,0,24,10.768,24,24v144
	C376,461.232,365.232,472,352,472z"/>
<path d="M277.432,136c-5.695,0-11.24,1.12-16.479,3.328l-110.264,46.424c-8.92,3.752-14.688,12.432-14.688,22.12v2.872
	C136,240.112,159.888,264,189.256,264c14.216,0,27.584-5.536,37.656-15.6L304,171.312v-8.744C304,147.92,292.08,136,277.432,136z
	 M288,164.688l-72.4,72.4c-7.04,7.04-16.4,10.912-26.344,10.912C168.712,248,152,231.288,152,210.744v-2.872
	c0-3.224,1.92-6.12,4.888-7.368L267.16,154.08c3.271-1.384,6.72-2.08,10.271-2.08c5.824,0,10.568,4.744,10.568,10.568V164.688z"/>
<path d="M376,109.48V88c13.232,0,24-10.768,24-24V32c0-13.232-10.768-24-24-24h-96c-13.232,0-24,10.768-24,24v32
	c0,13.232,10.768,24,24,24v16h-6.305c-7.512,0-14.831,1.48-21.735,4.392l-113.688,47.864C117.456,165.016,104,185.28,104,207.872
	V448c0,30.872,25.128,56,56,56h192c30.872,0,56-25.128,56-56V160C408,137.72,394.889,118.488,376,109.48L376,109.48z M272,64V32
	c0-4.408,3.584-8,8-8h96c4.416,0,8,3.592,8,8v32c0,4.408-3.584,8-8,8h-96C275.584,72,272,68.408,272,64z M296,88h64v16.64
	c-2.624-0.376-5.279-0.64-8-0.64h-56V88z M392,448c0,22.056-17.943,40-40,40H160c-22.056,0-40-17.944-40-40V207.872
	c0-16.136,9.608-30.608,24.48-36.864l113.696-47.872h0.008c4.928-2.08,10.145-3.136,15.512-3.136H352c22.057,0,40,17.944,40,40V448z
	"/>
<path d="M360,152h16v16h-16V152z"/>
<path d="M360,184h16v16h-16V184z"/>
<path d="M360,216h16v16h-16V216z"/>
<circle fill="#FFFFFF" cx="256" cy="376" r="87.83"/>
<g>
	<path fill="#F0BC5E" d="M257,458c-44.663,0-81-36.335-81-81s36.337-81,81-81c44.662,0,81,36.335,81,81S301.662,458,257,458z
		 M257,314.29c-34.579,0-62.709,28.134-62.709,62.71s28.13,62.71,62.709,62.71s62.71-28.134,62.71-62.71S291.579,314.29,257,314.29z
		"/>
	<circle fill="#F0BC5E" stroke="#000000" stroke-miterlimit="10" cx="256.588" cy="377.205" r="14.292"/>
	<path d="M300.899,344.074c-1.444-1.92-3.031-3.765-4.714-5.486l-3.734,3.658c1.523,1.555,2.96,3.224,4.27,4.964L300.899,344.074z"
		/>
	<path d="M289.928,333.104c-9.555-7.181-20.942-10.975-32.928-10.975v5.226c10.844,0,21.146,3.431,29.79,9.93L289.928,333.104z"/>
	<path d="M257,311.678c-36.019,0-65.323,29.304-65.323,65.322s29.304,65.322,65.323,65.322c36.019,0,65.322-29.304,65.322-65.322
		S293.019,311.678,257,311.678z M315.649,390.064h-20.671c-1.631,0-3.237,0.159-4.805,0.465c0.509-2.717,0.794-5.492,0.794-8.304
		c0-10.281-3.499-19.946-9.542-27.174c17.153,2.15,29.873,5.897,33.823,7.154c1.202,4.734,1.848,9.691,1.848,14.794
		C317.097,381.486,316.588,385.854,315.649,390.064z M257,316.903c25.815,0,47.876,16.362,56.368,39.262
		c-9.216-2.679-30.5-7.907-56.368-7.907s-47.152,5.229-56.368,7.907C209.124,333.266,231.185,316.903,257,316.903z M196.903,377
		c0-5.103,0.646-10.06,1.847-14.794c3.948-1.257,16.66-5.007,33.827-7.157c-6.046,7.228-9.545,16.893-9.545,27.177
		c0,2.812,0.285,5.587,0.792,8.304c-1.565-0.306-3.172-0.465-4.805-0.465h-20.668C197.413,385.854,196.903,381.486,196.903,377z
		 M199.759,395.29h19.262c5.26,0,10.203,2.049,13.924,5.767c3.716,3.721,5.765,8.662,5.765,13.922v19.263
		C220.26,428.333,205.667,413.74,199.759,395.29z M243.936,435.649v-20.671c0-6.655-2.592-12.91-7.298-17.616
		c-2.069-2.069-4.455-3.705-7.029-4.918c-0.88-3.294-1.351-6.723-1.351-10.219c0-11.288,4.711-21.692,12.598-28.044
		c5.121-0.434,10.529-0.698,16.145-0.698s11.026,0.268,16.153,0.698c7.88,6.357,12.589,16.762,12.589,28.044
		c0,3.496-0.471,6.925-1.354,10.22c-2.574,1.212-4.957,2.845-7.029,4.917c-4.703,4.706-7.295,10.961-7.295,17.616v20.671
		c-4.21,0.938-8.578,1.447-13.064,1.447S248.145,436.587,243.936,435.649z M275.29,434.241v-19.263
		c0-5.26,2.049-10.201,5.767-13.922c3.719-3.718,8.665-5.767,13.925-5.767h19.262C308.333,413.74,293.74,428.333,275.29,434.241z"/>
	<path d="M275.29,377c0-10.083-8.204-18.29-18.29-18.29s-18.29,8.207-18.29,18.29s8.204,18.29,18.29,18.29
		S275.29,387.083,275.29,377z M243.936,377c0-7.204,5.86-13.064,13.064-13.064s13.064,5.86,13.064,13.064
		s-5.86,13.064-13.064,13.064S243.936,384.204,243.936,377z"/>
	<path d="M306.646,363.936h-5.227c-2.882,0-5.226,2.344-5.226,5.226v10.452c0,2.882,2.344,5.226,5.226,5.226h5.227
		c2.882,0,5.226-2.344,5.226-5.226v-10.452C311.871,366.279,309.527,363.936,306.646,363.936z M301.419,379.613v-10.452h5.227
		l0.002,10.452H301.419z"/>
	<path d="M212.581,363.936h-5.226c-2.882,0-5.226,2.344-5.226,5.226v10.452c0,2.882,2.344,5.226,5.226,5.226h5.226
		c2.882,0,5.226-2.344,5.226-5.226v-10.452C217.807,366.279,215.463,363.936,212.581,363.936z M207.355,379.613v-10.452h5.226
		l0.002,10.452H207.355z"/>
	<path d="M249.161,426.646h15.678v5.226h-15.678V426.646z"/>
	<path d="M249.161,416.193h15.678v5.226h-15.678V416.193z"/>
	<path d="M249.161,405.742h15.678v5.226h-15.678V405.742z"/>
</g>
</svg>
