<?xml version="1.0" encoding="utf-8"?>
<!-- Generator: Adobe Illustrator 16.0.0, SVG Export Plug-In . SVG Version: 6.00 Build 0)  -->
<!DOCTYPE svg PUBLIC "-//W3C//DTD SVG 1.1//EN" "http://www.w3.org/Graphics/SVG/1.1/DTD/svg11.dtd">
<svg version="1.1" id="Layer_35" xmlns="http://www.w3.org/2000/svg" xmlns:xlink="http://www.w3.org/1999/xlink" x="0px" y="0px"
	 width="512px" height="512px" viewBox="0 0 512 512" enable-background="new 0 0 512 512" xml:space="preserve">
<path fill="#F0BC5E" d="M352,472H160c-13.232,0-24-10.768-24-24V304c0-13.232,10.768-24,24-24h192c13.232,0,24,10.768,24,24v144
	C376,461.232,365.232,472,352,472z"/>
<path d="M277.432,136c-5.695,0-11.24,1.12-16.479,3.328l-110.264,46.424c-8.92,3.752-14.688,12.432-14.688,22.12v2.872
	C136,240.112,159.888,264,189.256,264c14.216,0,27.584-5.536,37.656-15.6L304,171.312v-8.744C304,147.92,292.08,136,277.432,136z
	 M288,164.688l-72.4,72.4c-7.04,7.04-16.4,10.912-26.344,10.912C168.712,248,152,231.288,152,210.744v-2.872
	c0-3.224,1.92-6.12,4.888-7.368L267.16,154.08c3.271-1.384,6.72-2.08,10.271-2.08c5.824,0,10.568,4.744,10.568,10.568V164.688z"/>
<path d="M376,109.48V88c13.232,0,24-10.768,24-24V32c0-13.232-10.768-24-24-24h-96c-13.232,0-24,10.768-24,24v32
	c0,13.232,10.768,24,24,24v16h-6.305c-7.512,0-14.831,1.48-21.735,4.392l-113.688,47.864C117.456,165.016,104,185.28,104,207.872
	V448c0,30.872,25.128,56,56,56h192c30.872,0,56-25.128,56-56V160C408,137.72,394.889,118.488,376,109.48L376,109.48z M272,64V32
	c0-4.408,3.584-8,8-8h96c4.416,0,8,3.592,8,8v32c0,4.408-3.584,8-8,8h-96C275.584,72,272,68.408,272,64z M296,88h64v16.64
	c-2.624-0.376-5.279-0.64-8-0.64h-56V88z M392,448c0,22.056-17.943,40-40,40H160c-22.056,0-40-17.944-40-40V207.872
	c0-16.136,9.608-30.608,24.48-36.864l113.696-47.872h0.008c4.928-2.08,10.145-3.136,15.512-3.136H352c22.057,0,40,17.944,40,40V448z
	"/>
<path d="M360,152h16v16h-16V152z"/>
<path d="M360,184h16v16h-16V184z"/>
<path d="M360,216h16v16h-16V216z"/>
<circle fill="#FFFFFF" cx="271.493" cy="376.993" r="87.83"/>
<path fill="#F0BC5E" d="M191.5,431.77c0,4.888,3.962,8.85,8.85,8.85l0,0c4.888,0,8.85-3.962,8.85-8.85V319.888
	c0-4.888-3.962-8.85-8.85-8.85l0,0c-4.888,0-8.85,3.962-8.85,8.85V431.77z"/>
<g>
	<g>
		<path fill="#F0BC5E" d="M311.189,359.066c-9.353,0-16.935,7.582-16.935,16.934c0,9.353,7.582,16.934,16.935,16.934
			c9.351,0,16.934-7.581,16.934-16.934C328.123,366.648,320.54,359.066,311.189,359.066z M311.189,382.772
			c-3.743,0-6.774-3.03-6.774-6.772c0-3.741,3.031-6.773,6.774-6.773c3.741,0,6.772,3.032,6.772,6.773
			C317.962,379.742,314.931,382.772,311.189,382.772z"/>
		<path fill="#F0BC5E" d="M229.906,359.066c-9.352,0-16.934,7.582-16.934,16.934c0,9.353,7.582,16.934,16.934,16.934
			S246.84,385.353,246.84,376C246.84,366.648,239.258,359.066,229.906,359.066z M229.906,382.772c-3.742,0-6.773-3.03-6.773-6.772
			c0-3.741,3.031-6.773,6.773-6.773s6.774,3.032,6.774,6.773C236.681,379.742,233.648,382.772,229.906,382.772z"/>
		<path fill="#F0BC5E" d="M270.548,318.425c-9.353,0-16.934,7.582-16.934,16.934c0,9.353,7.581,16.934,16.934,16.934
			c9.352,0,16.934-7.581,16.934-16.934C287.481,326.007,279.899,318.425,270.548,318.425z M270.548,342.133
			c-3.742,0-6.773-3.031-6.773-6.774c0-3.741,3.031-6.773,6.773-6.773c3.741,0,6.773,3.032,6.773,6.773
			C277.321,339.102,274.289,342.133,270.548,342.133z"/>
		<path fill="#F0BC5E" d="M270.548,399.708c-9.353,0-16.934,7.582-16.934,16.934c0,9.351,7.581,16.934,16.934,16.934
			c9.352,0,16.934-7.583,16.934-16.934C287.481,407.29,279.899,399.708,270.548,399.708z M270.548,423.414
			c-3.742,0-6.773-3.03-6.773-6.772c0-3.743,3.031-6.774,6.773-6.774c3.741,0,6.773,3.031,6.773,6.774
			C277.321,420.384,274.289,423.414,270.548,423.414z"/>
		<path fill="#F0BC5E" d="M202.813,325.198c-13.069,0-23.707,10.639-23.707,23.707v54.188c0,13.068,10.638,23.707,23.707,23.707
			h6.773V325.198H202.813z"/>
	</g>
	<path d="M192.652,372.613h6.772v6.773h-6.772V372.613z"/>
	<path d="M192.652,352.292h6.772v6.774h-6.772V352.292z"/>
	<path d="M192.652,392.934h6.772v6.774h-6.772V392.934z"/>
	<path d="M270.548,284.558c-22.819,0-44.496,8.413-61.356,23.707h-10.693c-2.042,0-4.04,0.362-5.947,1.076l-16.002,6.002
		c-6.574,2.466-10.991,8.838-10.991,15.857v14.318h-13.547v60.962h13.547V420.8c0,7.017,4.417,13.392,10.991,15.861l15.999,5.998
		c1.897,0.714,3.904,1.075,5.95,1.075h10.69c16.863,15.296,38.54,23.708,61.359,23.708c50.422,0,91.442-41.02,91.442-91.442
		C361.99,325.578,320.97,284.558,270.548,284.558z M158.785,399.708v-47.416h6.773v47.416H158.785z M349.865,405.604l-25.274,5.2
		c6.491-10.044,10.305-21.979,10.305-34.805c0-6.957-1.141-13.642-3.192-19.92l9.071-27.329
		c9.113,13.507,14.442,29.766,14.442,47.249C355.217,386.411,353.316,396.386,349.865,405.604z M212.973,376
		c0-31.747,25.826-57.575,57.575-57.575c31.748,0,57.575,25.828,57.575,57.575s-25.827,57.575-57.575,57.575
		C238.799,433.575,212.973,407.747,212.973,376z M212.973,313.982c12.25-11.383,27.33-18.764,43.556-21.469l17.154,19.297
		c-1.045-0.049-2.075-0.159-3.135-0.159c-25.214,0-47.03,14.613-57.575,35.785V313.982z M335.83,322.145l-8.118,24.447
		c-8.741-16.92-24.729-29.498-43.865-33.537l-19.109-21.5c1.93-0.137,3.861-0.225,5.811-0.225
		C296.795,291.33,320.288,303.337,335.83,322.145z M206.199,436.962h-7.701c-1.228,0-2.426-0.217-3.571-0.646l-16.002-5.998
		c-3.945-1.48-6.593-5.304-6.593-9.518v-89.6c0-4.214,2.647-8.034,6.593-9.514l16.006-6.002c1.142-0.431,2.34-0.646,3.567-0.646
		h7.701V436.962z M212.973,438.019v-33.454c8.639,17.34,24.825,30.276,44.276,34.385l19.105,21.499
		c-1.92,0.13-3.853,0.221-5.807,0.221C249.075,460.669,228.694,452.621,212.973,438.019z M284.563,459.487l-17.153-19.298
		c1.044,0.05,2.078,0.158,3.139,0.158c18.931,0,35.926-8.266,47.708-21.322l28.331-5.833
		C334.771,437.259,311.86,454.917,284.563,459.487z"/>
	<path d="M260.387,376c0,5.601,4.56,10.16,10.161,10.16c5.601,0,10.16-4.56,10.16-10.16s-4.56-10.161-10.16-10.161
		C264.946,365.839,260.387,370.399,260.387,376z M273.935,376c0,1.865-1.519,3.387-3.387,3.387c-1.869,0-3.387-1.521-3.387-3.387
		s1.518-3.387,3.387-3.387C272.416,372.613,273.935,374.135,273.935,376z"/>
	<path d="M270.548,345.519c5.601,0,10.16-4.558,10.16-10.16c0-5.601-4.56-10.16-10.16-10.16c-5.602,0-10.161,4.56-10.161,10.16
		C260.387,340.961,264.946,345.519,270.548,345.519z M270.548,331.972c1.868,0,3.387,1.521,3.387,3.387
		c0,1.866-1.519,3.388-3.387,3.388c-1.869,0-3.387-1.521-3.387-3.388C267.161,333.493,268.679,331.972,270.548,331.972z"/>
	<path d="M229.906,365.839c-5.602,0-10.16,4.561-10.16,10.161s4.559,10.16,10.16,10.16s10.16-4.56,10.16-10.16
		S235.508,365.839,229.906,365.839z M229.906,379.387c-1.868,0-3.387-1.521-3.387-3.387s1.519-3.387,3.387-3.387
		c1.869,0,3.388,1.521,3.388,3.387S231.775,379.387,229.906,379.387z"/>
	<path d="M280.708,416.642c0-5.602-4.56-10.161-10.16-10.161c-5.602,0-10.161,4.56-10.161,10.161c0,5.601,4.56,10.159,10.161,10.159
		C276.148,426.801,280.708,422.242,280.708,416.642z M267.161,416.642c0-1.869,1.518-3.388,3.387-3.388
		c1.868,0,3.387,1.519,3.387,3.388c0,1.868-1.519,3.386-3.387,3.386C268.679,420.027,267.161,418.51,267.161,416.642z"/>
	<path d="M311.189,386.16c5.6,0,10.159-4.56,10.159-10.16s-4.56-10.161-10.159-10.161c-5.603,0-10.161,4.561-10.161,10.161
		S305.587,386.16,311.189,386.16z M311.189,372.613c1.868,0,3.386,1.521,3.386,3.387s-1.518,3.387-3.386,3.387
		c-1.87,0-3.388-1.521-3.388-3.387S309.319,372.613,311.189,372.613z"/>
	<path d="M223.133,311.651h6.773v6.773h-6.773V311.651z"/>
	<path d="M243.453,301.491h6.774v6.773h-6.774V301.491z"/>
	<path d="M235.142,443.378l5.862-3.384l3.387,5.865l-5.863,3.386L235.142,443.378z"/>
	<path d="M216.178,430.858l5.867-3.386l3.385,5.866l-5.865,3.387L216.178,430.858z"/>
	<path d="M311.189,433.575h6.772v6.772h-6.772V433.575z"/>
	<path d="M290.868,443.734h6.773v6.774h-6.773V443.734z"/>
	<path d="M340.721,369.596l3.385-5.861l5.861,3.385l-3.385,5.863L340.721,369.596z"/>
	<path d="M339.366,392.262l3.385-5.867l5.867,3.387l-3.387,5.865L339.366,392.262z"/>
	<path d="M296.693,306.153l5.862-3.385l3.388,5.861l-5.862,3.385L296.693,306.153z"/>
	<path d="M315.663,318.675l5.866-3.387l3.387,5.867l-5.868,3.385L315.663,318.675z"/>
	<path d="M270.548,359.066c9.336,0,16.934,7.597,16.934,16.934c0,3.522-1.087,6.909-3.145,9.798l5.52,3.93
		c2.877-4.046,4.398-8.79,4.398-13.728c0-13.073-10.639-23.708-23.707-23.708c-4.938,0-9.683,1.522-13.728,4.399l3.93,5.519
		C263.639,360.152,267.025,359.066,270.548,359.066z"/>
	<path d="M284.274,395.309l-3.929-5.519c-2.889,2.057-6.275,3.144-9.798,3.144c-9.337,0-16.934-7.598-16.934-16.934
		c0-3.522,1.085-6.909,3.143-9.798l-5.518-3.929c-2.878,4.041-4.399,8.789-4.399,13.727c0,13.068,10.639,23.708,23.708,23.708
		C275.485,399.708,280.229,398.186,284.274,395.309z"/>
</g>
</svg>
