<?xml version="1.0" encoding="utf-8"?>
<!-- Generator: Adobe Illustrator 16.0.0, SVG Export Plug-In . SVG Version: 6.00 Build 0)  -->
<!DOCTYPE svg PUBLIC "-//W3C//DTD SVG 1.1//EN" "http://www.w3.org/Graphics/SVG/1.1/DTD/svg11.dtd">
<svg version="1.1" id="Capa_1" xmlns="http://www.w3.org/2000/svg" xmlns:xlink="http://www.w3.org/1999/xlink" x="0px" y="0px"
	 width="496px" height="496px" viewBox="0 0 496 496" enable-background="new 0 0 496 496" xml:space="preserve">
<path fill="#F0BC5E" d="M240.495,433.099h-208v-224h208V433.099z"/>
<path d="M266.09,138.289L240,86.113V62.527c9.289-3.313,16-12.113,16-22.527V24c0-13.23-10.77-24-24-24h-64c-13.23,0-24,10.77-24,24
	v16c0,10.414,6.711,19.215,16,22.527v20.059L35.199,132.504C13.816,141.055,0,161.473,0,184.504V440c0,30.879,25.121,56,56,56h160
	c30.879,0,56-25.121,56-56V163.336C272,154.68,269.961,146.023,266.09,138.289z M160,24c0-4.406,3.594-8,8-8h64c4.406,0,8,3.594,8,8
	v16c0,4.406-3.594,8-8,8h-64c-4.406,0-8-3.594-8-8V24z M41.145,147.359L176,93.414V64h48v25.887l27.777,55.555
	c2.758,5.527,4.223,11.719,4.223,17.895V176H64v16h192v248c0,2.734-0.281,5.414-0.809,8H16.809c-0.527-2.586-0.809-5.266-0.809-8
	V192.398L48.098,192l-0.195-16l-30.98,0.383C19.586,163.391,28.449,152.441,41.145,147.359z M216,480H56
	c-13.016,0-24.488-6.344-31.793-16h223.594C240.488,473.656,229.016,480,216,480z"/>
<circle fill="#FFFFFF" cx="136.495" cy="321.099" r="90.5"/>
<g>
	<path fill="#F0BC5E" d="M87.333,292.421v73.742h37.586c1.69-4.771,6.227-8.193,11.575-8.193c5.349,0,9.888,3.423,11.575,8.193h1.43
		c1.69-4.771,6.227-8.193,11.575-8.193s9.888,3.423,11.575,8.193h15.053v-73.742H87.333z"/>
	<g>
		<path d="M193.849,314.953c3.387,0,6.146-2.757,6.146-6.146v-12.289c0-3.389-2.757-6.146-6.146-6.146h-2.048v-6.146
			c0-3.388-2.757-6.146-6.146-6.146h-20.484v-14.338h-8.454c-0.91-3.529-4.124-6.146-7.934-6.146c-3.811,0-7.024,2.616-7.933,6.146
			h-8.453v14.339h-4.238c-1.014-8.07-7.905-14.339-16.246-14.339s-15.231,6.269-16.246,14.339h-6.286h-4.096h-0.719l-11.572,9.259
			v71.725l13.032,8.688l16.846,16.845h79.535l17.587-17.588v-33.05l-12.291-4.097v-14.911H193.849L193.849,314.953z M193.849,294.47
			c1.131,0,2.048,0.92,2.048,2.049v12.289c0,1.13-0.917,2.05-2.048,2.05h-6.146V294.47h2.048H193.849z M136.495,267.84h8.193v-2.048
			c0-2.26,1.838-4.096,4.097-4.096c2.26,0,4.097,1.836,4.097,4.096v2.048h8.193v10.243h-24.58V267.84z M165.172,282.179h20.484
			c1.131,0,2.048,0.92,2.048,2.049v6.146h-63.018c1.852-2.305,3.087-5.117,3.473-8.194h4.24H165.172L165.172,282.179z
			 M163.124,356.086V294.47h8.193v65.776C169.165,358.044,166.311,356.544,163.124,356.086z M163.124,380.295V370.26h-4.097v10.035
			c-4.668-0.952-8.193-5.089-8.193-10.035c0-5.647,4.595-10.241,10.242-10.241c5.647,0,10.242,4.594,10.242,10.241
			C171.317,375.205,167.792,379.343,163.124,380.295z M136.495,380.501c-5.647,0-10.242-4.594-10.242-10.24
			c0-5.648,4.594-10.242,10.242-10.242s10.242,4.594,10.242,10.242C146.737,375.907,142.142,380.501,136.495,380.501z
			 M97.575,302.663v61.451h-8.193V294.47h8.193v4.097h4.097v-4.097h2.327c1.78,0.988,3.763,1.644,5.867,1.907v67.737h-8.193v-61.451
			H97.575z M113.962,296.377c2.104-0.264,4.088-0.921,5.866-1.907h2.328v69.645h-8.193L113.962,296.377L113.962,296.377z
			 M159.026,356.086c-3.187,0.457-6.041,1.959-8.193,4.16V294.47h8.193V356.086z M146.737,360.246
			c-2.153-2.201-5.006-3.702-8.194-4.16V294.47h8.194V360.246z M134.447,356.086c-3.188,0.457-6.041,1.959-8.194,4.16V294.47h8.194
			V356.086z M111.914,267.84c6.778,0,12.291,5.513,12.291,12.291s-5.513,12.29-12.291,12.29s-12.29-5.512-12.29-12.29
			S105.136,267.84,111.914,267.84z M95.668,282.179c0.387,3.077,1.623,5.89,3.472,8.194h-9.758v-8.194H95.668L95.668,282.179z
			 M77.091,289.308l8.193-6.555v79.582l-8.193-5.463V289.308z M104.568,380.501l-12.29-12.289h30.042
			c-0.096,0.672-0.164,1.352-0.164,2.049c0,4.01,1.659,7.636,4.324,10.24H104.568z M146.509,380.501
			c0.878-0.859,1.639-1.835,2.275-2.894c0.637,1.059,1.397,2.036,2.276,2.894H146.509z M180.71,380.501h-9.62
			c2.665-2.604,4.324-6.23,4.324-10.24c0-0.697-0.068-1.377-0.164-2.049h17.751L180.71,380.501z M195.898,336.914v27.2h-8.195
			v-4.096h-4.096v4.096h-8.193V294.47h8.193v16.388v21.96v23.104h4.096v-21.739L195.898,336.914z"/>
		<path d="M111.914,288.324c4.519,0,8.193-3.675,8.193-8.193s-3.674-8.193-8.193-8.193s-8.193,3.675-8.193,8.193
			S107.395,288.324,111.914,288.324z M111.914,276.034c2.26,0,4.097,1.837,4.097,4.097c0,2.259-1.837,4.097-4.097,4.097
			s-4.097-1.838-4.097-4.097C107.817,277.871,109.654,276.034,111.914,276.034z"/>
		<path d="M136.495,364.114c-3.387,0-6.146,2.758-6.146,6.146c0,3.388,2.757,6.145,6.146,6.145s6.146-2.757,6.146-6.145
			C142.64,366.872,139.882,364.114,136.495,364.114z M136.495,372.308c-1.13,0-2.048-0.917-2.048-2.047
			c0-1.131,0.917-2.049,2.048-2.049s2.048,0.918,2.048,2.049C138.542,371.391,137.625,372.308,136.495,372.308z"/>
	</g>
</g>
</svg>
