<svg height="496pt" viewBox="0 0 496 495" width="496pt" xmlns="http://www.w3.org/2000/svg"><path d="m432.558594 301.234375c4.882812-16.796875 7.441406-34.476563 7.441406-52.796875s-2.558594-36-7.441406-52.800781l-92.238282 26.4375c-4.265624-15.101563-12.320312-29.0625-23.289062-40.398438l68.96875-66.679687c-24.558594-25.359375-56-44-91.441406-52.800782l-23.261719 93.128907c-14.847656-3.824219-31.90625-3.800781-46.570313-.007813-.007812 0-.015624.007813-.023437.007813l-23.261719-93.128907c-35.441406 8.800782-66.882812 27.441407-91.441406 52.800782l68.96875 66.679687c-10.96875 11.3125-19.023438 25.28125-23.296875 40.390625l-92.230469-26.429687c-4.882812 16.800781-7.441406 34.480469-7.441406 52.800781s2.558594 36 7.441406 52.796875l92.230469-26.4375c4.265625 15.101563 12.320313 29.0625 23.289063 40.398437l-68.960938 66.679688c24.558594 25.359375 56 44 91.441406 52.800781l23.261719-93.128906c7.410156 1.914063 15.25 2.890625 23.296875 2.890625 8.070312 0 15.929688-.976562 23.273438-2.875.007812 0 .015624-.007812.023437-.007812l23.261719 93.121093c35.441406-8.800781 66.882812-27.441406 91.441406-52.800781l-68.96875-66.679688c10.96875-11.3125 19.023438-25.28125 23.296875-40.390624zm-184.558594-28.796875c-13.257812 0-24-10.746094-24-24 0-13.257812 10.742188-24 24-24s24 10.742188 24 24c0 13.253906-10.742188 24-24 24zm0 0" fill="#f0bc5e"/><path d="m295.601562 208.835938c0 4.417968-3.582031 8-8 8-4.417968 0-8-3.582032-8-8 0-4.417969 3.582032-8 8-8 4.417969 0 8 3.582031 8 8zm0 0"/><path d="m295.601562 288.035156c0 4.417969-3.582031 8-8 8-4.417968 0-8-3.582031-8-8 0-4.417968 3.582032-8 8-8 4.417969 0 8 3.582032 8 8zm0 0"/><path d="m216.398438 208.835938c0 4.417968-3.582032 8-8 8-4.417969 0-8-3.582032-8-8 0-4.417969 3.582031-8 8-8 4.417968 0 8 3.582031 8 8zm0 0"/><path d="m216.398438 288.035156c0 4.417969-3.582032 8-8 8-4.417969 0-8-3.582031-8-8 0-4.417968 3.582031-8 8-8 4.417968 0 8 3.582032 8 8zm0 0"/><path d="m483.847656 171.8125c-7.984375-24.671875-19.832031-47.929688-35.214844-69.113281-15.304687-21.101563-33.777343-39.574219-54.890624-54.894531-21.175782-15.382813-44.4375-27.234376-69.085938-35.199219-49.082031-16.144531-104.273438-16.128907-153.273438-.015625-24.6875 7.980468-47.941406 19.832031-69.117187 35.214844-21.128906 15.328124-39.59375 33.800781-54.898437 54.894531-15.382813 21.183593-27.230469 44.441406-35.207032 69.082031-8.0625 24.535156-12.160156 50.328125-12.160156 76.65625s4.097656 52.117188 12.152344 76.621094c7.984375 24.671875 19.832031 47.929687 35.214844 69.113281 15.304687 21.105469 33.777343 39.574219 54.890624 54.894531 21.175782 15.386719 44.4375 27.234375 69.085938 35.203125 24.535156 8.070313 50.328125 12.167969 76.65625 12.167969s52.121094-4.097656 76.617188-12.152344c24.6875-7.984375 47.941406-19.832031 69.117187-35.21875 21.128906-15.328125 39.59375-33.796875 54.898437-54.894531 15.382813-21.183594 27.230469-44.441406 35.207032-69.078125 8.0625-24.539062 12.160156-50.328125 12.160156-76.65625s-4.097656-52.121094-12.152344-76.625zm-43.71875 206.3125-12.714844-9.210938-9.390624 12.960938 12.703124 9.199219c-11.671874 14.976562-25.101562 28.402343-40.085937 40.089843l-9.199219-12.703124-12.953125 9.382812 9.207031 12.71875c-15.792968 10.664062-32.703124 19.289062-50.503906 25.746094l-4.863281-14.914063-15.214844 4.960938 4.863281 14.898437c-18.121093 5.230469-36.96875 8.175782-55.96875 8.8125v-15.628906h-16v15.636719c-18.984374-.644531-37.832031-3.582031-55.96875-8.8125l4.855469-14.898438-15.214843-4.960937-4.863282 14.90625c-17.785156-6.449219-34.703125-15.066406-50.503906-25.738282l9.207031-12.71875-12.953125-9.382812-9.199218 12.703125c-14.984376-11.6875-28.414063-25.113281-40.085938-40.085937l12.695312-9.203126-9.390624-12.957031-12.714844 9.207031c-10.671875-15.792968-19.285156-32.703124-25.742188-50.496093l14.917969-4.863281-4.96875-15.226563-14.902344 4.863281c-5.246093-18.09375-8.214843-36.839844-8.863281-55.972656h15.6875v-16h-15.6875c.648438-19.128906 3.617188-37.875 8.855469-55.976562l14.902343 4.863281 4.96875-15.207031-14.917968-4.875c6.445312-17.773438 15.070312-34.6875 25.742187-50.496094l12.710938 9.210937 9.394531-12.960937-12.6875-9.199219c11.671875-14.976563 25.101562-28.402344 40.085938-40.089844l9.199218 12.703125 12.953125-9.382812-9.207031-12.71875c15.792969-10.664063 32.703125-19.289063 50.503906-25.746094l4.863282 14.914062 15.214843-4.960937-4.863281-14.902344c18.089844-5.25 36.839844-8.21875 55.96875-8.867187v15.691406h16v-15.691406c19.121094.648437 37.863281 3.617187 55.96875 8.867187l-4.855469 14.902344 15.214844 4.960937 4.863281-14.90625c17.785156 6.449219 34.703125 15.066407 50.503906 25.738282l-9.207031 12.71875 12.953125 9.382812 9.199219-12.703125c14.984375 11.6875 28.414063 25.113281 40.085937 40.089844l-12.695312 9.199219 9.394531 12.960937 12.710938-9.210937c10.671875 15.792968 19.289062 32.707031 25.742187 50.496094l-14.917968 4.867187 4.96875 15.207031 14.902343-4.863281c5.246094 18.09375 8.207031 36.839844 8.863281 55.976563h-15.695312v16h15.6875c-.648438 19.125-3.617188 37.871093-8.855469 55.972656l-14.902343-4.863282-4.96875 15.207032 14.917968 4.875c-6.453125 17.789062-15.078125 34.695312-25.75 50.503906zm0 0"/><path d="m248 216.4375c-17.648438 0-32 14.351562-32 32s14.351562 32 32 32 32-14.351562 32-32-14.351562-32-32-32zm0 48c-8.824219 0-16-7.175781-16-16s7.175781-16 16-16 16 7.175781 16 16-7.175781 16-16 16zm0 0"/><path d="m391.753906 109.429688c-26.160156-27-59.097656-46.019532-95.226562-54.992188-31.527344-7.96875-65.542969-7.960938-97.015625-.007812-36.167969 8.980468-69.105469 28-95.253907 55-22.832031 23.589843-39.601562 52.636718-48.496093 83.972656-5.152344 17.738281-7.761719 36.25-7.761719 55.035156 0 18.78125 2.609375 37.292969 7.742188 54.984375 8.90625 31.375 25.683593 60.429687 48.503906 84.023437 26.160156 27 59.097656 46.015626 95.226562 54.992188 15.765625 3.984375 32.09375 6 48.527344 6s32.761719-2.015625 48.496094-6c36.167968-8.984375 69.105468-28 95.257812-55 22.832032-23.59375 39.597656-52.640625 48.492188-83.976562 5.144531-17.730469 7.753906-36.242188 7.753906-55.023438 0-18.777344-2.609375-37.28125-7.753906-55-8.902344-31.371094-25.671875-60.417969-48.492188-84.007812zm33.109375 189.621093c-8.183593 28.839844-23.617187 55.5625-44.617187 77.257813-24.0625 24.847656-54.359375 42.34375-87.644532 50.605468-28.96875 7.328126-60.203124 7.339844-89.234374-.007812-33.253907-8.253906-63.550782-25.75-87.613282-50.589844-21-21.695312-36.433594-48.417968-44.632812-77.3125-4.722656-16.28125-7.121094-33.296875-7.121094-50.566406 0-17.273438 2.398438-34.289062 7.136719-50.617188 8.183593-28.839843 23.617187-55.558593 44.617187-77.257812 24.0625-24.847656 54.359375-42.34375 87.644532-50.605469 14.480468-3.664062 29.488281-5.519531 44.601562-5.519531s30.121094 1.855469 44.632812 5.527344c33.253907 8.253906 63.550782 25.75 87.613282 50.589844 21 21.699218 36.433594 48.417968 44.617187 77.265624l.015625.046876c4.722656 16.28125 7.121094 33.296874 7.121094 50.570312 0 17.269531-2.398438 34.285156-7.136719 50.613281zm0 0"/></svg>