<?xml version="1.0" encoding="utf-8"?>
<!-- Generator: Adobe Illustrator 16.0.0, SVG Export Plug-In . SVG Version: 6.00 Build 0)  -->
<!DOCTYPE svg PUBLIC "-//W3C//DTD SVG 1.1//EN" "http://www.w3.org/Graphics/SVG/1.1/DTD/svg11.dtd">
<svg version="1.1" id="Capa_1" xmlns="http://www.w3.org/2000/svg" xmlns:xlink="http://www.w3.org/1999/xlink" x="0px" y="0px"
	 width="559.979px" height="560px" viewBox="200.011 0 559.979 560" enable-background="new 200.011 0 559.979 560"
	 xml:space="preserve">
<g>
	<path d="M353.56,45.161C353.56,20.259,333.3,0,308.398,0H200.011v72.258h81.291v310.765c-18.76,25.047-25.76,56.938-19.203,87.54
		L281.256,560h68.799l19.167-89.429c6.106-28.506,0.307-58.077-15.662-82.247V45.161L353.56,45.161z M338.105,397.419
		c7.181,10.622,11.877,22.554,14.045,34.955c-15.725-3.911-27.458-18.037-27.458-34.955H338.105z M218.076,54.193V18.064h90.323
		c14.939,0,27.097,12.157,27.097,27.097v334.192h-36.129V72.258c0-9.962-8.102-18.064-18.064-18.064L218.076,54.193L218.076,54.193z
		 M306.628,397.419c0,16.918-11.733,31.044-27.449,34.955c2.167-12.401,6.864-24.333,14.045-34.955H306.628z M335.45,541.936
		h-39.588l-16.096-75.156c-1.12-5.222-1.671-10.479-1.861-15.734c15.734-2.168,29.337-11.063,37.755-23.737
		c8.418,12.674,22.021,21.569,37.755,23.737c-0.181,5.248-0.741,10.514-1.86,15.727L335.45,541.936z"/>
	<path d="M543.237,126.452c0-24.902-20.261-45.161-45.161-45.161H389.688v72.258h81.292v229.474
		c-18.762,25.047-25.762,56.938-19.203,87.541L470.934,560h68.8l19.167-89.429c6.104-28.506,0.307-58.077-15.662-82.247
		L543.237,126.452L543.237,126.452z M527.783,397.419c7.181,10.622,11.877,22.554,14.045,34.955
		c-15.727-3.911-27.458-18.037-27.458-34.955H527.783z M407.753,135.484V99.355h90.323c14.938,0,27.097,12.157,27.097,27.097
		v252.903h-36.129V153.548c0-9.962-8.103-18.064-18.064-18.064H407.753z M496.306,397.419c0,16.918-11.732,31.044-27.448,34.955
		c2.168-12.401,6.863-24.333,14.045-34.955H496.306z M525.128,541.936h-39.589l-16.104-75.156
		c-1.119-5.222-1.671-10.479-1.859-15.734c15.732-2.168,29.337-11.063,37.755-23.737c8.418,12.674,22.021,21.569,37.754,23.737
		c-0.18,5.248-0.74,10.514-1.86,15.727L525.128,541.936z"/>
	<path d="M741.946,388.324V207.742c0-24.902-20.26-45.162-45.161-45.162H588.398v72.258h81.29v148.184
		c-18.761,25.047-25.761,56.938-19.202,87.541L669.644,560h68.8l19.166-89.429C763.715,442.065,757.925,412.494,741.946,388.324z
		 M726.492,397.419c7.181,10.622,11.878,22.554,14.046,34.955c-15.727-3.911-27.458-18.037-27.458-34.955H726.492z M606.463,216.774
		v-36.129h90.322c14.938,0,27.097,12.158,27.097,27.097v171.611h-36.129V234.839c0-9.963-8.102-18.064-18.064-18.064
		L606.463,216.774L606.463,216.774z M695.015,397.419c0,16.918-11.731,31.044-27.447,34.955
		c2.167-12.401,6.863-24.333,14.045-34.955H695.015z M723.837,541.936h-39.588l-16.104-75.156
		c-1.119-5.222-1.671-10.479-1.86-15.734c15.733-2.168,29.337-11.063,37.755-23.737c8.418,12.674,22.021,21.569,37.755,23.737
		c-0.181,5.248-0.74,10.514-1.86,15.727L723.837,541.936z"/>
</g>
<g>
	<rect x="687.753" y="343.226" fill="#F0BC5E" width="36.129" height="18.064"/>
	<rect x="687.753" y="307.097" fill="#F0BC5E" width="36.129" height="18.064"/>
	<rect x="489.044" y="343.226" fill="#F0BC5E" width="36.129" height="18.064"/>
	<rect x="489.044" y="307.097" fill="#F0BC5E" width="36.129" height="18.064"/>
	<rect x="299.366" y="343.226" fill="#F0BC5E" width="36.129" height="18.064"/>
	<rect x="299.366" y="307.097" fill="#F0BC5E" width="36.129" height="18.064"/>
</g>
</svg>
