<?xml version="1.0" encoding="utf-8"?>
<!-- Generator: Adobe Illustrator 16.0.0, SVG Export Plug-In . SVG Version: 6.00 Build 0)  -->
<!DOCTYPE svg PUBLIC "-//W3C//DTD SVG 1.1//EN" "http://www.w3.org/Graphics/SVG/1.1/DTD/svg11.dtd">
<svg version="1.1" id="Capa_1" xmlns="http://www.w3.org/2000/svg" xmlns:xlink="http://www.w3.org/1999/xlink" x="0px" y="0px"
	 width="560px" height="560px" viewBox="200 0 560 560" enable-background="new 200 0 560 560" xml:space="preserve">
<g>
	<rect x="651.613" y="126.452" fill="#F0BC5E" width="36.129" height="307.097"/>
	<rect x="470.968" y="207.742" fill="#F0BC5E" width="18.064" height="252.901"/>
	<rect x="272.258" y="135.484" fill="#F0BC5E" width="36.129" height="289.032"/>
</g>
<g>
	<path d="M290.323,144.516c-29.888,0-54.194-24.306-54.194-54.193c0-29.888,24.306-54.194,54.194-54.194
		c29.888,0,54.193,24.306,54.193,54.194c0,7.894-1.662,15.49-4.932,22.599l-16.402-7.551c2.167-4.715,3.27-9.782,3.27-15.047
		c0-19.925-16.204-36.129-36.129-36.129c-19.925,0-36.129,16.204-36.129,36.129c0,19.925,16.204,36.129,36.129,36.129
		c10.197,0,19.97-4.335,26.816-11.905l13.386,12.122C320.265,138.004,305.614,144.516,290.323,144.516z"/>
	<path d="M290.323,523.871c-29.888,0-54.194-24.306-54.194-54.193c0-29.887,24.306-54.192,54.194-54.192
		c29.888,0,54.193,24.307,54.193,54.192C344.516,499.565,320.21,523.871,290.323,523.871z M290.323,433.549
		c-19.925,0-36.129,16.203-36.129,36.129c0,19.925,16.204,36.129,36.129,36.129c19.925,0,36.129-16.204,36.129-36.129
		C326.452,449.752,310.248,433.549,290.323,433.549z"/>
	<path d="M290.323,560C240.519,560,200,519.481,200,469.678c0-28.551,13.413-55.194,36.129-72.249V162.572
		C213.413,145.519,200,118.874,200,90.323C200,40.519,240.519,0,290.323,0c49.804,0,90.322,40.519,90.322,90.323
		c0,28.551-13.413,55.196-36.129,72.249v234.866c22.716,17.046,36.129,43.698,36.129,72.249
		C380.645,519.481,340.126,560,290.323,560z M290.323,18.064c-39.841,0-72.258,32.417-72.258,72.258
		c0,24.152,12.004,46.606,32.128,60.073l4.001,2.692V406.92l-4.001,2.684c-20.124,13.469-32.128,35.923-32.128,60.073
		c0,39.841,32.417,72.259,72.258,72.259c39.841,0,72.258-32.418,72.258-72.259c0-24.15-12.004-46.604-32.127-60.073l-4.001-2.69
		V153.088l4.001-2.683c20.124-13.476,32.127-35.931,32.127-60.083C362.581,50.481,330.164,18.064,290.323,18.064z"/>
	<path d="M669.678,560c-49.804,0-90.323-40.519-90.323-90.322c0-28.551,13.413-55.194,36.131-72.249V162.572
		c-22.718-17.044-36.131-43.698-36.131-72.249C579.354,40.519,619.874,0,669.678,0S760,40.519,760,90.323
		c0,28.551-13.413,55.196-36.129,72.249v234.866C746.587,414.481,760,441.136,760,469.688C760,519.481,719.481,560,669.678,560z
		 M669.678,18.064c-39.842,0-72.259,32.417-72.259,72.258c0,24.152,12.004,46.606,32.128,60.073l4.002,2.692V406.92l-4.002,2.684
		c-20.124,13.469-32.128,35.923-32.128,60.073c0,39.841,32.417,72.259,72.259,72.259c39.841,0,72.258-32.418,72.258-72.259
		c0-24.15-12.004-46.604-32.128-60.073l-4.001-2.69V153.088l4.001-2.683c20.124-13.476,32.128-35.931,32.128-60.083
		C741.936,50.481,709.519,18.064,669.678,18.064z"/>
	<rect x="281.291" y="162.581" width="18.064" height="18.064"/>
	<rect x="281.291" y="216.774" width="18.064" height="18.064"/>
	<rect x="281.291" y="270.968" width="18.064" height="18.064"/>
	<rect x="281.291" y="325.161" width="18.064" height="18.063"/>
	<rect x="281.291" y="379.354" width="18.064" height="18.064"/>
	<path d="M480,216.774c-19.925,0-36.129-16.204-36.129-36.129s16.204-36.129,36.129-36.129s36.129,16.204,36.129,36.129
		S499.925,216.774,480,216.774z M480,162.581c-9.963,0-18.063,8.102-18.063,18.064c0,9.963,8.103,18.064,18.063,18.064
		s18.063-8.102,18.063-18.064S489.963,162.581,480,162.581z"/>
	<path d="M480,523.871c-19.925,0-36.129-16.204-36.129-36.129c0-19.926,16.204-36.129,36.129-36.129s36.129,16.203,36.129,36.129
		C516.129,507.667,499.925,523.871,480,523.871z M480,469.678c-9.963,0-18.063,8.104-18.063,18.064s8.103,18.063,18.063,18.063
		s18.063-8.103,18.063-18.063C498.063,477.779,489.963,469.678,480,469.678z"/>
	<path d="M480,560c-39.841,0-72.258-32.417-72.258-72.258c0-25.742,14.009-49.678,36.129-62.504v-182.09
		c-22.12-12.826-36.129-36.761-36.129-62.503c0-39.841,32.417-72.258,72.258-72.258s72.258,32.417,72.258,72.258
		c0,25.742-14.009,49.678-36.129,62.503v182.09c22.12,12.826,36.129,36.762,36.129,62.504C552.258,527.583,519.841,560,480,560z
		 M480,126.452c-29.888,0-54.193,24.306-54.193,54.193c0,20.756,12.166,39.95,30.98,48.91l5.146,2.448v204.391l-5.146,2.447
		c-18.814,8.951-30.98,28.146-30.98,48.901c0,29.888,24.308,54.191,54.193,54.191s54.193-24.306,54.193-54.191
		c0-20.757-12.166-39.95-30.98-48.91l-5.146-2.447V232.002l5.146-2.448c18.814-8.96,30.98-28.153,30.98-48.91
		C534.193,150.757,509.888,126.452,480,126.452z"/>
	<path d="M695.754,135.484H643.61l-26.076-45.161l26.076-45.162h52.144l26.076,45.162L695.754,135.484z M654.033,117.419h31.297
		l15.645-27.097L685.33,63.226h-31.297L638.39,90.323L654.033,117.419z"/>
	<path d="M695.754,514.839H643.61l-26.076-45.161l26.076-45.162h52.144l26.076,45.162L695.754,514.839z M654.033,496.774h31.297
		l15.645-27.099L685.33,442.58h-31.297l-15.646,27.097L654.033,496.774z"/>
	<rect x="660.646" y="388.387" width="18.064" height="18.064"/>
	<rect x="660.646" y="153.548" width="18.064" height="18.064"/>
	<rect x="660.646" y="189.677" width="18.064" height="180.646"/>
</g>
</svg>
