<?xml version="1.0" encoding="utf-8"?>
<!-- Generator: Adobe Illustrator 16.0.0, SVG Export Plug-In . SVG Version: 6.00 Build 0)  -->
<!DOCTYPE svg PUBLIC "-//W3C//DTD SVG 1.1//EN" "http://www.w3.org/Graphics/SVG/1.1/DTD/svg11.dtd">
<svg version="1.1" id="Capa_1" xmlns="http://www.w3.org/2000/svg" xmlns:xlink="http://www.w3.org/1999/xlink" x="0px" y="0px"
	 width="480px" height="480px" viewBox="0 0 480 480" enable-background="new 0 0 480 480" xml:space="preserve">
<path d="M376,376c4.418,0,8-3.582,8-8V264c0-4.418-3.582-8-8-8s-8,3.582-8,8v104C368,372.418,371.582,376,376,376z"/>
<path d="M376,424c4.418,0,8-3.582,8-8v-16c0-4.418-3.582-8-8-8s-8,3.582-8,8v16C368,420.418,371.582,424,376,424z"/>
<path d="M352,168c0,4.418,3.582,8,8,8h64c4.418,0,8-3.582,8-8v-56c0-4.418-3.582-8-8-8s-8,3.582-8,8v48h-56
	C355.582,160,352,163.582,352,168z"/>
<path d="M328,160h-16c-4.418,0-8,3.582-8,8s3.582,8,8,8h16c4.418,0,8-3.582,8-8S332.418,160,328,160z"/>
<rect x="266.961" y="49.79" fill="#F0BC5E" stroke="#000000" stroke-miterlimit="10" width="185.539" height="143.71"/>
<path fill="#FFFFFF" stroke="#000000" stroke-miterlimit="10" d="M392,104.072c0,9.705-7.867,17.573-17.572,17.573h-61.125
	c-9.705,0-17.572-7.868-17.572-17.573l0,0c0-9.705,7.867-17.572,17.572-17.572h61.125C384.133,86.5,392,94.368,392,104.072
	L392,104.072z"/>
<path d="M56,480h128c30.914-0.035,55.965-25.086,56-56V56c0.012-9.051-2.188-17.965-6.398-25.977
	c83.469-19.047,112-7.199,120.992,6.457c0.695,1.121,1.305,2.301,1.813,3.52H280c-13.254,0-24,10.746-24,24v120
	c0,13.254,10.746,24,24,24v24c0,4.418,3.582,8,8,8h16v28c-0.016,3.047,1.699,5.84,4.426,7.199l9.688,4.801l-9.688,4.801
	c-2.727,1.359-4.441,4.152-4.426,7.199v16c-0.016,3.047,1.699,5.84,4.426,7.199l9.688,4.801l-9.688,4.801
	c-2.727,1.359-4.441,4.152-4.426,7.199v16c-0.016,3.047,1.699,5.84,4.426,7.199l9.688,4.801l-9.688,4.801
	c-2.727,1.359-4.441,4.152-4.426,7.199v52c0,2.121,0.844,4.156,2.344,5.656l48,48c3.125,3.121,8.188,3.121,11.313,0l48-48
	c1.5-1.5,2.344-3.535,2.344-5.656V240h16c4.418,0,8-3.582,8-8v-24c13.254,0,24-10.746,24-24V64c0-13.254-10.746-24-24-24h-66.824
	c-1.059-4.363-2.828-8.523-5.238-12.313C350.176,0.695,302.762-3.105,223.113,16C212.676,5.746,198.629,0,184,0H56
	C25.086,0.035,0.035,25.086,0,56v368C0.035,454.914,25.086,479.965,56,480z M400,420.688l-40,40l-40-40v-43.742l19.574-9.746
	c2.719-1.352,4.434-4.125,4.434-7.16c0-3.031-1.715-5.805-4.434-7.16L320,343.055v-6.109l19.574-9.746
	c2.719-1.352,4.434-4.125,4.434-7.16c0-3.031-1.715-5.805-4.434-7.16L320,303.055v-6.109l19.574-9.746
	c2.719-1.352,4.434-4.125,4.434-7.16c0-3.031-1.715-5.805-4.434-7.16L320,263.055V240h80V420.688z M424,224H296v-16h128V224z
	 M448,64v120c0,4.418-3.582,8-8,8H280c-4.418,0-8-3.582-8-8V64c0-4.418,3.582-8,8-8h78.887c-0.363,5.426-1.344,10.793-2.918,16H312
	c-13.254,0-24,10.746-24,24v16c0,13.254,10.746,24,24,24h64c13.254,0,24-10.746,24-24V96c0-13.254-10.746-24-24-24h-3.625
	c1.316-5.242,2.117-10.602,2.402-16H440C444.418,56,448,59.582,448,64z M331.91,120H312c-4.418,0-8-3.582-8-8V96
	c0-4.418,3.582-8,8-8h38.055C345.008,99.203,338.938,109.918,331.91,120z M367.281,88H376c4.418,0,8,3.582,8,8v16
	c0,4.418-3.582,8-8,8h-24.984C357.379,109.84,362.82,99.129,367.281,88z M16,56c0.027-22.082,17.918-39.973,40-40h128
	c22.082,0.027,39.973,17.918,40,40v368c-0.027,22.082-17.918,39.973-40,40H56c-22.082-0.027-39.973-17.918-40-40V56z"/>
<path d="M192,432h-16c-4.418,0-8,3.582-8,8s3.582,8,8,8h16c4.418,0,8-3.582,8-8S196.418,432,192,432z"/>
<path d="M144,432h-8c-4.418,0-8,3.582-8,8s3.582,8,8,8h8c4.418,0,8-3.582,8-8S148.418,432,144,432z"/>
<path d="M96,416h48c35.328-0.039,63.961-28.672,64-64V128.664c-0.039-35.328-28.672-63.961-64-64H96
	c-35.328,0.039-63.961,28.672-64,64V352C32.039,387.328,60.672,415.961,96,416z M48,128.664c0.031-26.496,21.504-47.969,48-48h48
	c26.496,0.031,47.969,21.504,48,48V232H48V128.664z M48,248.664h144V352c-0.027,26.5-21.5,47.973-48,48H96
	c-26.5-0.027-47.973-21.5-48-48V248.664z"/>
<path d="M80,376h80c4.418,0,8-3.582,8-8v-64c-0.027-22.082-17.918-39.973-40-40h-16c-22.082,0.027-39.973,17.918-40,40v64
	C72,372.418,75.582,376,80,376z M152,360H88v-32h64V360z M88,304c0-13.254,10.746-24,24-24h16c13.254,0,24,10.746,24,24v8H88V304z"
	/>
<path d="M159.199,100.426C157.84,97.699,155.047,95.984,152,96H96c-2.121,0-4.156,0.844-5.656,2.344l-16,16
	c-3.031,3.141-2.988,8.129,0.098,11.215s8.074,3.129,11.215,0.098L99.313,112h47.742l4.945,9.887V152H80c-4.418,0-8,3.582-8,8v48
	c0,4.418,3.582,8,8,8h80c4.418,0,8-3.582,8-8v-88c0-1.242-0.285-2.465-0.84-3.574L159.199,100.426z M152,200H88v-32h64V200z"/>
<rect x="296" y="208" fill="#F0BC5E" stroke="#000000" stroke-miterlimit="10" width="128" height="16"/>
<rect x="88" y="168" fill="#F0BC5E" stroke="#000000" stroke-miterlimit="10" width="64" height="32"/>
<rect x="88" y="328" fill="#F0BC5E" stroke="#000000" stroke-miterlimit="10" width="64" height="32"/>
</svg>
