<?xml version="1.0" encoding="utf-8"?>
<!-- Generator: Adobe Illustrator 16.0.0, SVG Export Plug-In . SVG Version: 6.00 Build 0)  -->
<!DOCTYPE svg PUBLIC "-//W3C//DTD SVG 1.1//EN" "http://www.w3.org/Graphics/SVG/1.1/DTD/svg11.dtd">
<svg version="1.1" id="Capa_1" xmlns="http://www.w3.org/2000/svg" xmlns:xlink="http://www.w3.org/1999/xlink" x="0px" y="0px"
	 width="560.001px" height="560px" viewBox="199.999 0 560.001 560" enable-background="new 199.999 0 560.001 560"
	 xml:space="preserve">
<g>
	<path d="M325.44,458.756l-24.315-24.313l111.079-111.079l-12.781-12.78L284.605,425.4h-24.73l-52.107,52.098
		c-5.004,5.013-7.768,11.67-7.768,18.76c0,7.091,2.764,13.747,7.768,18.751l37.078,37.087c5.022,5.014,11.679,7.776,18.769,7.776
		c7.09,0,13.747-2.764,18.751-7.769l52.107-52.105v-24.73L449.29,360.449l-12.771-12.771L325.44,458.756z M269.584,539.333
		c-3.179,3.206-8.761,3.206-11.95,0l-37.086-37.096c-1.608-1.6-2.484-3.722-2.484-5.979s0.876-4.38,2.475-5.979l46.814-46.814
		h17.251l31.803,31.803v17.251L269.584,539.333z"/>
	
		<rect x="549.871" y="223.255" transform="matrix(-0.7073 0.707 -0.707 -0.7073 1128.364 -2.6586)" width="29.722" height="18.068"/>
	<path d="M634.56,100.989l24.315,24.313l-75.916,75.917l12.771,12.771l79.655-79.656h24.73l52.106-52.098
		c5.015-5.003,7.778-11.66,7.778-18.751c0-7.09-2.764-13.747-7.768-18.75L715.146,7.64c-10.017-10.017-27.512-10.017-37.511,0
		l-52.106,52.107v24.73L510.71,199.296l12.771,12.771L634.56,100.989z M690.415,20.412c3.18-3.207,8.762-3.207,11.95,0
		l37.086,37.096c1.607,1.599,2.483,3.721,2.483,5.979c0,2.258-0.876,4.38-2.475,5.979l-46.814,46.814h-17.252l-31.802-31.803V67.226
		L690.415,20.412z"/>
	<path d="M334.472,59.747L282.374,7.64c-10.017-10.017-27.512-10.017-37.511,0l-37.096,37.086c-5.004,5.013-7.768,11.67-7.768,18.76
		c0,7.09,2.764,13.747,7.768,18.751l52.107,52.107h24.73l114.818,114.818l12.771-12.771L301.116,125.313l24.315-24.315
		L436.51,212.076l12.771-12.771L334.472,84.478V59.747z M220.54,69.457c-1.599-1.59-2.475-3.712-2.475-5.97
		c0-2.258,0.876-4.381,2.475-5.979l37.095-37.086c3.179-3.207,8.761-3.207,11.95,0l46.814,46.814v17.252l-31.803,31.802h-17.251
		L220.54,69.457z"/>
	<path d="M700.125,425.4h-24.729L560.577,310.582l-12.771,12.771l111.078,111.079l-24.313,24.314L523.481,347.678l-12.771,12.771
		l114.817,114.817v24.73l52.099,52.106c5.013,5.013,11.67,7.768,18.76,7.768c7.092,0,13.747-2.764,18.751-7.768l37.087-37.077
		c5.014-5.014,7.769-11.67,7.769-18.761s-2.765-13.747-7.769-18.751L700.125,425.4z M739.461,502.237l-37.096,37.087
		c-3.181,3.206-8.763,3.206-11.95,0l-46.813-46.814v-17.252l31.804-31.802h17.251l46.813,46.823c1.59,1.599,2.466,3.721,2.466,5.979
		C741.936,498.517,741.06,500.639,739.461,502.237z"/>
</g>
<path fill="#F0BC5E" d="M542.232,279.873l12.156-12.167c10.343-10.342,10.343-27.16,0-37.493l-24.729-24.73
	c-10.333-10.333-27.15-10.351-37.493,0L480,217.64l-12.166-12.157c-10.352-10.351-27.17-10.342-37.493,0l-24.73,24.73
	c-10.342,10.342-10.342,27.16,0,37.493l12.157,12.167l-12.157,12.167c-10.342,10.342-10.342,27.16,0,37.493l24.73,24.729
	c5.166,5.167,11.959,7.75,18.751,7.75c6.783,0,13.575-2.583,18.742-7.75L480,342.104l12.166,12.157
	c5.167,5.167,11.959,7.75,18.742,7.75c6.792,0,13.585-2.583,18.751-7.75l24.729-24.729c10.343-10.343,10.343-27.16,0-37.493
	L542.232,279.873z"/>
</svg>
