<?xml version="1.0" encoding="utf-8"?>
<!-- Generator: Adobe Illustrator 16.0.0, SVG Export Plug-In . SVG Version: 6.00 Build 0)  -->
<!DOCTYPE svg PUBLIC "-//W3C//DTD SVG 1.1//EN" "http://www.w3.org/Graphics/SVG/1.1/DTD/svg11.dtd">
<svg version="1.1" id="Capa_1" xmlns="http://www.w3.org/2000/svg" xmlns:xlink="http://www.w3.org/1999/xlink" x="0px" y="0px"
	 width="480px" height="480px" viewBox="0 0 480 480" enable-background="new 0 0 480 480" xml:space="preserve">
<path d="M472,0H248c-2.758,0-5.32,1.422-6.785,3.762l-40,64C200.422,69.031,200,70.5,200,72v40h-40c-4.418,0-8,3.582-8,8v7.672
	c-14.258-0.047-42.641,2.223-61.602,19.391C77.973,158.617,71.246,175.047,72,192v128c-11.43,0.004-21.992,6.105-27.707,16.004
	S38.582,358.102,44.297,368H32c-17.672,0-32,14.328-32,32s14.328,32,32,32h28.297c-5.715,9.898-5.719,22.098-0.004,31.996
	S76.57,479.996,88,480h80c11.473-0.004,22.063-6.148,27.762-16.105s5.629-22.203-0.176-32.094
	c16.871-1.895,29.328-16.641,28.375-33.594C223.008,381.25,208.98,367.992,192,368h-12.297c5.715-9.898,5.719-22.098,0.004-31.996
	S163.43,320.004,152,320h-16V192.449c0.328-2.402,4.32-6.617,16-8V200c0,4.418,3.582,8,8,8h40v8c0,4.418,3.582,8,8,8h264
	c4.418,0,8-3.582,8-8V8C480,3.582,476.418,0,472,0z M120,192v136c0,4.418,3.582,8,8,8h24c8.836,0,16,7.164,16,16s-7.164,16-16,16
	c-4.418,0-8,3.582-8,8s3.582,8,8,8h40c8.836,0,16,7.164,16,16s-7.164,16-16,16h-24c-4.418,0-8,3.582-8,8s3.582,8,8,8
	c8.836,0,16,7.164,16,16s-7.164,16-16,16H88c-8.836,0-16-7.164-16-16s7.164-16,16-16c4.418,0,8-3.582,8-8s-3.582-8-8-8H32
	c-8.836,0-16-7.164-16-16s7.164-16,16-16h40c4.418,0,8-3.582,8-8s-3.582-8-8-8c-8.836,0-16-7.164-16-16s7.164-16,16-16h8
	c4.418,0,8-3.582,8-8V192c-0.742-12.406,4.051-24.5,13.09-33.031c14.789-13.426,38.629-15.281,50.672-15.281H152v24.656
	C120.391,171.199,120,191.09,120,192z M168,192v-64h32v64H168z M464,208H216V74.297L252.441,16H464V208z"/>
<path d="M248.801,75.574c1.359,2.727,4.152,4.441,7.199,4.426h184c4.418,0,8-3.582,8-8V40c0-4.418-3.582-8-8-8H280
	c-2.52,0-4.891,1.188-6.398,3.199l-24,32C247.77,69.613,247.457,72.859,248.801,75.574z M284,48h148v16H272L284,48z"/>
<rect x="256" y="112" fill="#F0BC5E" stroke="#000000" stroke-miterlimit="10" width="176" height="64"/>
<path d="M440,96H248c-4.418,0-8,3.582-8,8v80c0,4.418,3.582,8,8,8h192c4.418,0,8-3.582,8-8v-80C448,99.582,444.418,96,440,96z
	 M432,176h-16v-32c0-4.418-3.582-8-8-8s-8,3.582-8,8v32h-16v-32c0-4.418-3.582-8-8-8s-8,3.582-8,8v32h-16v-32c0-4.418-3.582-8-8-8
	s-8,3.582-8,8v32h-16v-32c0-4.418-3.582-8-8-8s-8,3.582-8,8v32h-16v-32c0-4.418-3.582-8-8-8s-8,3.582-8,8v32h-16v-64h176V176z"/>
<path fill="#F0BC5E" d="M120,360c0-4.418-3.582-8-8-8h-8c-4.418,0-8,3.582-8,8s3.582,8,8,8h8C116.418,368,120,364.418,120,360z"/>
<path fill="#F0BC5E" d="M112,400c0,4.418,3.582,8,8,8h8c4.418,0,8-3.582,8-8s-3.582-8-8-8h-8C115.582,392,112,395.582,112,400z"/>
<path fill="#F0BC5E" d="M128,432h-8c-4.418,0-8,3.582-8,8s3.582,8,8,8h8c4.418,0,8-3.582,8-8S132.418,432,128,432z"/>
</svg>
