<?xml version="1.0" encoding="iso-8859-1"?>
<!-- Generator: Adobe Illustrator 19.0.0, SVG Export Plug-In . SVG Version: 6.00 Build 0)  -->
<svg version="1.1" id="Capa_1" xmlns="http://www.w3.org/2000/svg" xmlns:xlink="http://www.w3.org/1999/xlink" x="0px" y="0px"
	 viewBox="0 0 496 496" style="enable-background:new 0 0 496 496;" xml:space="preserve">
<path style="fill:#F0BC5E;" d="M328,448H168c-13.232,0-24-10.768-24-24V216c0-13.232,10.768-24,24-24h160c13.232,0,24,10.768,24,24
	v208C352,437.232,341.232,448,328,448z"/>
<path d="M248,224.904l-41.112,65.784c-4.504,7.2-6.888,15.504-6.888,24.008C200,339.68,220.32,360,245.304,360h5.4
	C275.68,360,296,339.68,296,314.696c0-8.504-2.384-16.808-6.888-24.008L248,224.904z M250.696,344h-5.4
	C229.144,344,216,330.856,216,314.696c0-5.504,1.536-10.864,4.456-15.528L248,255.096l27.544,44.08
	c2.92,4.656,4.456,10.024,4.456,15.52C280,330.856,266.856,344,250.696,344z"/>
<path d="M376.792,166.336L280,99.792V64h-16V24c0-13.232-10.768-24-24-24H128c-13.232,0-24,10.768-24,24v40H88v40v8v352
	c0,17.648,14.352,32,32,32h256c17.648,0,32-14.352,32-32V225.664C408,201.952,396.336,179.768,376.792,166.336z M120,24
	c0-4.408,3.592-8,8-8h16v32h16V16h16v32h16V16h16v32h16V16h16c4.408,0,8,3.592,8,8v40H120V24z M392,464c0,8.824-7.176,16-16,16H120
	c-8.824,0-16-7.176-16-16V112h128V96H104V80h160v16h-16v16h21.512l98.216,67.52c15.2,10.448,24.272,27.704,24.272,46.152V464z"/>
<rect x="208" y="392" width="16" height="16"/>
<rect x="240" y="392" width="16" height="16"/>
<rect x="272" y="392" width="16" height="16"/>
<g>
</g>
<g>
</g>
<g>
</g>
<g>
</g>
<g>
</g>
<g>
</g>
<g>
</g>
<g>
</g>
<g>
</g>
<g>
</g>
<g>
</g>
<g>
</g>
<g>
</g>
<g>
</g>
<g>
</g>
</svg>
