<?xml version="1.0" encoding="utf-8"?>
<!-- Generator: Adobe Illustrator 16.0.0, SVG Export Plug-In . SVG Version: 6.00 Build 0)  -->
<!DOCTYPE svg PUBLIC "-//W3C//DTD SVG 1.1//EN" "http://www.w3.org/Graphics/SVG/1.1/DTD/svg11.dtd">
<svg version="1.1" id="Layer_3" xmlns="http://www.w3.org/2000/svg" xmlns:xlink="http://www.w3.org/1999/xlink" x="0px" y="0px"
	 width="512px" height="512px" viewBox="0 0 512 512" enable-background="new 0 0 512 512" xml:space="preserve">
<path d="M8,488v16h496v-16H376H136H8z"/>
<circle fill="#F0BC5E" stroke="#000000" stroke-miterlimit="10" cx="136.82" cy="424" r="16.82"/>
<circle fill="#F0BC5E" stroke="#000000" stroke-miterlimit="10" cx="376" cy="424" r="16.82"/>
<ellipse fill="#F0BC5E" stroke="#000000" stroke-miterlimit="10" cx="89.34" cy="158.159" rx="20.16" ry="30.659"/>
<path fill="#F0BC5E" stroke="#000000" stroke-miterlimit="10" d="M399.587,102.356H307.5c-6.627,0-12,5.373-12,12V221.5
	c0,6.627,5.373,12,12,12h110c6.627,0,12-5.373,12-12v-88.596C418.441,123.788,408.376,113.677,399.587,102.356z M388.87,179.088
	c-3.851,0.789-7.58,0.412-10.837-0.909c-2.803,0.432-5.613,0.073-8.078-1.669c-3.32-2.347-4.951-5.387-5.771-9.355
	c-1.818-8.799-2.147-19.423,0.774-28.032c0.693-2.042,1.65-3.805,2.797-5.224c0.612-1.879,2.254-2.937,4.021-3.177
	c3.391-1.472,7.43-0.689,11.26,3.243c1.6,1.643,1.733,3.595,1.044,5.222c5.817,6.645,12.032,16.688,10.464,25.171
	C396.159,170.169,396.104,177.605,388.87,179.088z"/>
<path d="M136,392c-17.648,0-32,14.352-32,32s14.352,32,32,32s32-14.352,32-32S153.648,392,136,392z M136,440
	c-8.824,0-16-7.176-16-16s7.176-16,16-16s16,7.176,16,16S144.824,440,136,440z"/>
<path d="M376,392c-17.648,0-32,14.352-32,32s14.352,32,32,32s32-14.352,32-32S393.648,392,376,392z M376,440
	c-8.824,0-16-7.176-16-16s7.176-16,16-16s16,7.176,16,16S384.824,440,376,440z"/>
<path d="M499.576,320.84l-62.353-31.176l-8.56-11.12C473.504,254.112,504,206.552,504,152C504,72.6,439.4,8,360,8S216,72.6,216,152
	c0,11.48,1.496,22.584,4.04,33.296c-12.944,2.728-24.576,9.88-32.792,20.56l-59.84,77.785L21.848,170.536l-11.696,10.92
	l51.952,55.664l-20.936,69.752C21.728,313.256,8,331.544,8,352.336V408c0,13.232,10.768,24,24,24h40.552
	c3.96,31.52,30.872,56,63.448,56s59.488-24.48,63.448-56h113.112c3.959,31.52,30.871,56,63.447,56s59.488-24.48,63.448-56H480
	c13.232,0,24-10.768,24-24v-80C504,324.968,502.288,322.2,499.576,320.84z M488,384h-16v-59.056l16,8V384z M360,24
	c70.576,0,128,57.424,128,128s-57.424,128-128,128s-128-57.424-128-128S289.424,24,360,24z M376.641,296H360h-72v-19.488
	C309.208,288.832,333.76,296,360,296c5.408,0,10.729-0.359,15.977-0.943L376.641,296z M240.352,232
	c8.648,12.896,19.4,24.232,31.648,33.729V296h-88.64l40.024-57.176c2.992-4.28,7.896-6.824,13.112-6.824H240.352z M112.52,291.136
	l-53.352,11.433l15.576-51.904L112.52,291.136z M24.032,352H40v16H24v-15.664C24,352.224,24.032,352.112,24.032,352z M136,472
	c-26.472,0-48-21.528-48-48s21.528-48,48-48s48,21.528,48,48S162.472,472,136,472z M376,472c-26.473,0-48-21.528-48-48
	s21.527-48,48-48s48,21.528,48,48S402.473,472,376,472z M480,416h-40.552c-3.96-31.52-30.872-56-63.448-56s-59.488,24.48-63.447,56
	H199.448c-3.96-31.52-30.872-56-63.448-56s-59.488,24.48-63.448,56H32c-4.408,0-8-3.584-8-8v-24h24c4.416,0,8-3.576,8-8v-32
	c0-4.424-3.584-8-8-8H28.6c4.456-7.44,11.816-13.048,20.696-14.952l80.384-17.224c1.856-0.4,3.504-1.44,4.664-2.944l65.592-85.264
	c6.144-7.984,14.952-13.224,24.712-14.952c1.96,5.424,4.208,10.696,6.768,15.8c-8.464,1.368-16.136,6.056-21.136,13.192
	l-48.832,69.768c-1.712,2.448-1.92,5.632-0.544,8.28c1.376,2.64,4.112,4.296,7.096,4.296h224c2.984,0,5.721-1.656,7.096-4.304
	c1.377-2.648,1.168-5.832-0.535-8.28l-5.225-7.464c7.032-1.681,13.889-3.815,20.48-6.479l11.848,15.407
	c0.736,0.96,1.68,1.744,2.76,2.28L456,316.944V392c0,4.424,3.584,8,8,8h24v8C488,412.416,484.408,416,480,416z"/>
<path d="M256,328h32v16h-32V328z"/>
<path d="M368,328h32v16h-32V328z"/>
<path d="M304,248h112c13.232,0,24-10.768,24-24v-88c0-2.128-0.84-4.16-2.344-5.656l-40-40C396.16,88.84,394.12,88,392,88h-40V48
	c0-4.424-3.584-8-8-8h-32c-4.416,0-8,3.576-8,8v43.392c-14.104,6.192-24,20.248-24,36.608v96C280,237.232,290.768,248,304,248z
	 M320,56h16v32h-16V56z M296,128c0-13.232,10.768-24,24-24h68.688L424,139.312V224c0,4.416-3.592,8-8,8H304c-4.408,0-8-3.584-8-8
	V128z"/>
<path d="M360,192h40c4.416,0,8-3.576,8-8v-32c0-2.128-0.84-4.16-2.344-5.656l-24-24C380.16,120.84,378.12,120,376,120h-16
	c-4.416,0-8,3.576-8,8v56C352,188.424,355.584,192,360,192z M368,136h4.688L392,155.312V176h-24V136z"/>
<path d="M88,200c17.648,0,32-14.352,32-32v-8c0-1.24-0.288-2.472-0.84-3.576l-24-48c-2.712-5.424-11.6-5.424-14.312,0l-24,48
	C56.288,157.528,56,158.76,56,160v8C56,185.648,70.352,200,88,200z M72,161.888l16-32l16,32V168c0,8.824-7.176,16-16,16
	s-16-7.176-16-16V161.888z"/>
</svg>
