<svg height="496pt" viewBox="0 0 496 496" width="496pt" xmlns="http://www.w3.org/2000/svg"><g fill="#f0bc5e"><path d="m368 392v80c0 13.230469 10.769531 24 24 24h48c13.230469 0 24-10.769531 24-24v-80zm0 0"/><path d="m32 392v80c0 13.230469 10.769531 24 24 24h48c13.230469 0 24-10.769531 24-24v-80zm0 0"/><path d="m399.015625 208h-302.03125c-12.410156 0-23.894531-5.609375-31.527344-15.382812-7.632812-9.777344-10.28125-22.28125-7.273437-34.3125l24-96c4.457031-17.839844 20.410156-30.304688 38.800781-30.304688h254.03125c18.390625 0 34.34375 12.464844 38.808594 30.304688l24 96c3.007812 12.03125.359375 24.535156-7.273438 34.3125-7.628906 9.773437-19.125 15.382812-31.535156 15.382812zm0 0"/></g><path d="m467.609375 136h4.390625c13.230469 0 24-10.769531 24-24 0-22.054688-17.945312-40-40-40h-6.046875l-5.28125-19.152344c-8.582031-31.113281-37.128906-52.847656-69.40625-52.847656h-254.53125c-32.277344 0-60.824219 21.734375-69.40625 52.847656l-5.28125 19.152344h-6.046875c-22.054688 0-40 17.945312-40 40 0 13.230469 10.769531 24 24 24h4.390625l-26.375 95.609375c-1.335937 4.839844-2.015625 9.855469-2.015625 14.886719v113.503906c0 22.054688 17.945312 40 40 40h75.457031c11.878907 19.800781 32.933594 32 56.320313 32h152.453125c23.386719 0 44.441406-12.199219 56.320312-32h75.449219c22.054688 0 40-17.945312 40-40v-113.503906c0-5.039063-.679688-10.046875-2.015625-14.894532zm-11.609375-48c13.230469 0 24 10.769531 24 24 0 4.40625-3.585938 8-8 8h-8.808594l-8.824218-32zm-216-24v-16h16v16zm-32-32v-16h80v16zm-87.265625-16h71.265625v32h32v32h11.054688l-23.320313 46.640625-23.765625-13.585937-7.9375 13.890624 56 32 7.9375-13.890624-18.320312-10.460938 27.296874-54.59375h19.054688v-32h32v-32h71.265625c25.109375 0 47.300781 16.902344 53.980469 41.113281l40.9375 148.390625-55.480469 18.496094h-333.40625l-55.488281-18.496094 40.945312-148.390625c6.679688-24.210937 28.871094-41.113281 53.980469-41.113281zm-33.574219 277.574219c.910156 3.664062 2.273438 7.113281 3.839844 10.425781h-27c-1.878906 0-3.574219-1.046875-4.425781-2.734375l-11.054688-22.113281c-.34375-.679688-.519531-1.449219-.519531-2.207032 0-2.730468 2.214844-4.945312 4.945312-4.945312h28.816407zm15.511719-3.878907-12.433594-49.695312h94.570313c3.71875 18.230469 19.871094 32 39.191406 32h48c19.3125 0 35.472656-13.769531 39.191406-32h94.570313l-12.433594 49.703125c-4.464844 17.839844-20.417969 30.296875-38.808594 30.296875h-213.039062c-18.390625 0-34.34375-12.457031-38.808594-30.304688zm98.800781-49.695312h93.046875c-3.3125 9.289062-12.113281 16-22.527343 16h-48c-10.40625 0-19.207032-6.710938-22.519532-16zm212.765625 32h28.816407c2.730468 0 4.945312 2.214844 4.945312 4.945312 0 .757813-.175781 1.527344-.519531 2.207032l-11.054688 22.105468c-.851562 1.695313-2.546875 2.742188-4.425781 2.742188h-27c1.566406-3.3125 2.929688-6.753906 3.839844-10.414062zm-390.238281-152c-4.414062 0-8-3.59375-8-8 0-13.230469 10.769531-24 24-24h1.632812l-8.824218 32zm300.222656 296h-152.445312c-14.21875 0-27.351563-5.910156-36.640625-16h225.726562c-9.277343 10.089844-22.421875 16-36.640625 16zm-12.222656-32h-128v-16h128zm168-24c0 13.230469-10.769531 24-24 24h-128v-32h-160v32h-128c-13.230469 0-24-10.769531-24-24v-113.503906c0-3.601563.488281-7.175782 1.441406-10.640625l4.109375-14.910157 51.761719 17.246094 4.449219 17.808594h-24.816407c-11.546874 0-20.945312 9.390625-20.945312 20.945312 0 3.230469.769531 6.46875 2.207031 9.367188l11.058594 22.113281c3.574219 7.132813 10.75 11.574219 18.734375 11.574219h38.488281c10.183594 9.929688 23.945313 16 38.984375 16h213.046875c15.039063 0 28.808594-6.070312 38.992188-16h38.488281c7.984375 0 15.160156-4.441406 18.734375-11.574219l11.058594-22.113281c1.4375-2.898438 2.207031-6.136719 2.207031-9.367188 0-11.554687-9.398438-20.945312-20.945312-20.945312h-24.816407l4.449219-17.800781 51.761719-17.246094 4.109375 14.910156c.953125 3.457031 1.441406 7.03125 1.441406 10.640625zm0 0"/><path d="m56 328c-13.230469 0-24 10.769531-24 24s10.769531 24 24 24 24-10.769531 24-24-10.769531-24-24-24zm0 32c-4.414062 0-8-3.59375-8-8s3.585938-8 8-8 8 3.59375 8 8-3.585938 8-8 8zm0 0"/><path d="m440 328c-13.230469 0-24 10.769531-24 24s10.769531 24 24 24 24-10.769531 24-24-10.769531-24-24-24zm0 32c-4.414062 0-8-3.59375-8-8s3.585938-8 8-8 8 3.59375 8 8-3.585938 8-8 8zm0 0"/><path d="m368 448h64v16h-64zm0 0"/><path d="m400 416h64v16h-64zm0 0"/><path d="m32 448h64v16h-64zm0 0"/><path d="m64 416h64v16h-64zm0 0"/></svg>