<?xml version="1.0" encoding="utf-8"?>
<!-- Generator: Adobe Illustrator 16.0.0, SVG Export Plug-In . SVG Version: 6.00 Build 0)  -->
<!DOCTYPE svg PUBLIC "-//W3C//DTD SVG 1.1//EN" "http://www.w3.org/Graphics/SVG/1.1/DTD/svg11.dtd">
<svg version="1.1" id="Layer_3" xmlns="http://www.w3.org/2000/svg" xmlns:xlink="http://www.w3.org/1999/xlink" x="0px" y="0px"
	 width="512px" height="512px" viewBox="0 0 512 512" enable-background="new 0 0 512 512" xml:space="preserve">
<ellipse fill="#F0BC5E" stroke="#000000" stroke-miterlimit="10" cx="456.01" cy="56.672" rx="24.01" ry="24.676"/>
<ellipse fill="#F0BC5E" stroke="#000000" stroke-miterlimit="10" cx="384" cy="288" rx="24.01" ry="24.677"/>
<ellipse fill="#F0BC5E" stroke="#000000" stroke-miterlimit="10" cx="456" cy="400.001" rx="24.01" ry="24.676"/>
<ellipse fill="#F0BC5E" stroke="#000000" stroke-miterlimit="10" cx="360" cy="456" rx="24.01" ry="24.677"/>
<path fill="#F0BC5E" stroke="#000000" stroke-miterlimit="10" d="M54.5,482.5c4.054-0.716,8.065-1.169,12.042-1.421
	C63.226,467.834,52.196,457.523,50.5,446.5c-6-34-9-72,7-102c2-5,12,4,19,1s7-12,8-20c0-2,2-4,4-4
	c15.675,0.506,31.606-0.265,47.535-0.506c-16.968-2.62-33.879-5.325-50.535-6.494c7.8-20.475-6.257-39.048-6.966-58.5H24.5v232
	h42.986c-0.003-0.193-0.018-0.382-0.025-0.574c-4.366-0.14-8.891-0.569-12.961-1.926V482.5z"/>
<path fill="#F0BC5E" stroke="#000000" stroke-miterlimit="10" d="M54.5,482.5v3c4.07,1.356,8.595,1.786,12.961,1.926
	c-0.082-2.194-0.407-4.306-0.918-6.347C62.565,481.331,58.554,481.784,54.5,482.5z"/>
<path fill="#F0BC5E" stroke="#000000" stroke-miterlimit="10" d="M181.5,408.5c0.171-1.595,0.317-3.193,0.451-4.793
	C181.502,405.25,181.319,406.874,181.5,408.5z"/>
<path fill="#F0BC5E" stroke="#000000" stroke-miterlimit="10" d="M232,323.888c-16.278,3.517-32.872,3.934-49.587,2.827
	c-0.642,25.403,1.664,51.559-0.462,76.992c2.036-7,9.633-12.304,14.549-8.207c14,12,12,36,6,51c-4,10-17,10-27,14c-9,5-17,14-20,23
	c-0.64,1.28-1.174,2.867-1.446,4.5H232V323.888z"/>
<path d="M498.2,176.312l-109.112-31.176L321.632,40.88C308.313,20.296,285.712,8,261.184,8H130.856
	C101.568,8,75.44,25.504,64.28,52.584L26.64,144H8v16h24c3.24,0,6.168-1.96,7.4-4.952L79.08,58.68
	c8.672-21.064,29-34.68,51.776-34.68h130.328c19.08,0,36.656,9.56,47.017,25.576l69.088,106.768
	c1.048,1.624,2.655,2.816,4.512,3.344l74.2,21.208V224c0,4.416,3.584,8,8,8h24v48h-32.472c-4-35.944-34.536-64-71.528-64
	s-67.527,28.056-71.527,64H280c0-22.057-17.943-40-40-40H48c-22.056,0-40,17.943-40,40v216c0,4.416,3.584,8,8,8h40h16h80h16h72
	c4.416,0,8-3.584,8-8V328h24c4.416,0,8-3.584,8-8v-24h32.473c4,35.944,34.535,64,71.527,64s67.528-28.056,71.528-64H496
	c4.416,0,8-3.584,8-8V184C504,180.432,501.632,177.288,498.2,176.312z M155.5,483.5c-2,4-3,11,2,13
	C152.5,494.5,153.5,487.5,155.5,483.5c3-9,11-18,20-23c10-4,23-4,27-14c6-15,8-39-6-51c-4.916-4.097-12.514,1.207-14.549,8.207
	c-0.134,1.6-0.28,3.198-0.451,4.793c-0.181-1.626,0.002-3.25,0.451-4.793c2.215-26.508-0.394-53.802,0.549-80.207c-31-5-63-1-94-2
	c-2,0-4,2-4,4c-1,8-1,17-8,20s-17-6-19-1c-16,30-13,68-7,102c1.696,11.024,12.738,21.332,16.056,34.578
	c1.822-0.116,3.636-0.186,5.444-0.219V464c0-2.12-0.84-4.16-2.344-5.656L56,444.688V360c0-4.408,3.592-8,8-8s8,3.592,8,8v24h16v-24
	v-32h16v56h16v-56h16v56h16v-56h16v80v24h16v-24c0-4.408,3.592-8,8-8s8,3.592,8,8v27.72l-44.44,29.624
	c-2.224,1.488-3.56,3.984-3.56,6.656v16h-17.624c5.994,0.753,12.025,1.315,18.124,1.5c-6.099-0.185-12.13-0.747-18.124-1.5H72
	v-0.503c-1.473-0.003-2.988-0.021-4.529-0.07c0.013,0.356,0.029,0.712,0.029,1.073c0-0.361-0.016-0.717-0.029-1.073
	c-3.842-0.124-7.799-0.488-11.471-1.495V488H24V280c0-13.232,10.768-24,24-24s24,10.768,24,24v40v17.472
	c-2.512-0.896-5.184-1.472-8-1.472c-13.232,0-24,10.768-24,24v88c0,2.12,0.84,4.16,2.344,5.656L56,467.313v14.946
	c3.548-0.572,7.065-0.96,10.556-1.181C63.238,467.832,52.196,457.524,50.5,446.5c-6-34-9-72,7-102c2-5,12,4,19,1s7-12,8-20
	c0-2,2-4,4-4c31,1,63-3,94,2c-0.943,26.405,1.666,53.699-0.549,80.207c2.036-7,9.633-12.304,14.549-8.207c14,12,12,36,6,51
	c-4,10-17,10-27,14C166.5,465.5,158.5,474.5,155.5,483.5z M232,488h-64v-11.72l44.44-29.624c2.224-1.488,3.56-3.984,3.56-6.656v-32
	c0-13.232-10.768-24-24-24c-2.816,0-5.488,0.576-8,1.472V328h48V488z M264,312h-32H88v-32c0-9-2.992-17.313-8.016-24H240
	c13.232,0,24,10.768,24,24V312z M384,344c-30.88,0-56-25.12-56-56s25.12-56,56-56s56,25.12,56,56S414.88,344,384,344z M488,216h-16
	v-30.536l16,4.568V216z"/>
<path d="M72,487.497v-6.638c-1.809,0.033-3.623,0.103-5.444,0.219c0.511,2.041,0.833,4.154,0.915,6.349
	C69.012,487.476,70.527,487.494,72,487.497z"/>
<path d="M56,485.932c3.672,1.007,7.628,1.371,11.471,1.495c-0.082-2.194-0.404-4.308-0.915-6.349
	c-3.49,0.221-7.007,0.608-10.556,1.181V485.932z"/>
<path d="M181.5,408.5c0.171-1.595,0.317-3.193,0.451-4.793C181.502,405.25,181.319,406.874,181.5,408.5z"/>
<path d="M384,248c-22.057,0-40,17.943-40,40c0,22.056,17.943,40,40,40s40-17.944,40-40C424,265.943,406.057,248,384,248z M384,312
	c-13.232,0-24-10.768-24-24s10.768-24,24-24s24,10.768,24,24S397.232,312,384,312z"/>
<path d="M342.984,155.904c1.416-2.528,1.344-5.624-0.168-8.096L288.184,59.04C280.96,47.296,267.904,40,254.12,40H133.976
	c-16.432,0-31.432,10.304-37.336,25.64l-32.112,83.488c-0.944,2.464-0.616,5.224,0.872,7.4C66.896,158.704,69.36,160,72,160h264
	C338.896,160,341.568,158.432,342.984,155.904L342.984,155.904z M111.576,71.384C115.12,62.184,124.12,56,133.976,56H192v88H83.648
	L111.576,71.384z M208,144V56h46.12c8.272,0,16.104,4.376,20.44,11.424L321.68,144H208z"/>
<path d="M192,176h32v16h-32V176z"/>
<path d="M64,176h32v16H64V176z"/>
<path d="M400,448c-17.648,0-32-14.352-32-32c0-4.416-3.584-8-8-8s-8,3.584-8,8c0,17.648-14.352,32-32,32c-4.416,0-8,3.584-8,8
	s3.584,8,8,8c17.648,0,32,14.352,32,32c0,4.416,3.584,8,8,8s8-3.584,8-8c0-17.648,14.352-32,32-32c4.416,0,8-3.584,8-8
	S404.416,448,400,448z M360,469.496c-3.552-5.344-8.152-9.937-13.496-13.496c5.344-3.552,9.936-8.152,13.496-13.496
	c3.552,5.344,8.152,9.937,13.496,13.496C368.152,459.552,363.552,464.152,360,469.496z"/>
<path d="M496,392c-17.648,0-32-14.352-32-32c0-4.416-3.584-8-8-8s-8,3.584-8,8c0,17.648-14.352,32-32,32c-4.416,0-8,3.584-8,8
	s3.584,8,8,8c17.648,0,32,14.352,32,32c0,4.416,3.584,8,8,8s8-3.584,8-8c0-17.648,14.352-32,32-32c4.416,0,8-3.584,8-8
	S500.416,392,496,392z M456,413.496c-3.552-5.344-8.152-9.937-13.496-13.496c5.344-3.552,9.937-8.152,13.496-13.496
	c3.552,5.344,8.152,9.937,13.496,13.496C464.152,403.552,459.552,408.152,456,413.496z"/>
<path d="M416,64c17.648,0,32,14.352,32,32c0,4.416,3.584,8,8,8s8-3.584,8-8c0-17.648,14.352-32,32-32c4.416,0,8-3.584,8-8
	s-3.584-8-8-8c-17.648,0-32-14.352-32-32c0-4.416-3.584-8-8-8s-8,3.584-8,8c0,17.648-14.352,32-32,32c-4.416,0-8,3.584-8,8
	S411.584,64,416,64z M456,42.504c3.552,5.344,8.152,9.944,13.496,13.496c-5.344,3.552-9.944,8.152-13.496,13.496
	c-3.552-5.344-8.152-9.944-13.496-13.496C447.848,52.448,452.448,47.848,456,42.504z"/>
</svg>
