<?xml version="1.0" encoding="utf-8"?>
<!-- Generator: Adobe Illustrator 19.2.0, SVG Export Plug-In . SVG Version: 6.00 Build 0)  -->
<svg version="1.1" id="Capa_1" xmlns="http://www.w3.org/2000/svg" xmlns:xlink="http://www.w3.org/1999/xlink" x="0px" y="0px"
	 viewBox="0 0 496 496" style="enable-background:new 0 0 496 496;" xml:space="preserve">
<style type="text/css">
	.st0{fill:#F0BC5E;}
</style>
<g>
	<g>
		<path class="st0" d="M380.7,293.7H129.3l15.2-89.5c1.9-11.3,11.7-19.5,23.3-19.5h174.4c11.6,0,21.4,8.2,23.3,19.5L380.7,293.7z"/>
		<path class="st0" d="M146.3,464.9H99.6c-12.9,0-23.4-10.5-23.4-23.4v-38.9h93.4v38.9C169.6,454.5,159.1,464.9,146.3,464.9z"/>
		<path class="st0" d="M411,464.9h-46.7c-12.9,0-23.4-10.5-23.4-23.4v-38.9h93.4v38.9C434.3,454.5,423.9,464.9,411,464.9z"/>
	</g>
	<path d="M442.1,371.5v-23.4c0-18-6.9-34.3-18.2-46.7h14.3c15,0,27.3-12.2,27.3-27.3s-12.2-27.3-27.3-27.3h-28.6l-8.1-47.9
		c-4.5-26.4-27.4-45.5-54.5-45.5H163.5c-27.1,0-50,19.1-54.5,45.5l-8.1,47.9H72.3c-15,0-27.3,12.2-27.3,27.3s12.2,27.3,27.3,27.3
		h14.3c-11.3,12.4-18.2,28.8-18.2,46.7v23.4c-8.6,0.1-15.6,7-15.6,15.6v15.6c0,8.6,7,15.6,15.7,15.6H193c0,8.6,7,15.6,15.6,15.6H302
		c8.6,0,15.6-7,15.6-15.6H442c8.6,0,15.7-7,15.7-15.6v-15.6C457.7,378.5,450.7,371.6,442.1,371.5z M184.6,371.5l-7-13.9
		c-5.3-10.6-16-17.2-27.8-17.2H84.6c1.7-11.8,7.3-22.5,15.4-30.6c13.6,4.3,71.9,21.5,147.3,22.7l0.2-15.6
		c-58.7-0.9-107.6-12.1-130.8-18.5c6.9-3,14.5-4.8,22.6-4.8h231.9c8,0,15.7,1.7,22.6,4.8c-23.3,6.4-72.2,17.6-130.8,18.5l0.2,15.6
		c75.4-1.2,133.7-18.4,147.3-22.7c8.2,8.1,13.7,18.7,15.4,30.6h-60.4c-11.9,0-22.5,6.6-27.9,17.2l-7,13.9H184.6z M149.8,355.9
		c5.9,0,11.3,3.3,13.9,8.6l3.5,7H84v-15.6H149.8z M351.6,364.5c2.7-5.3,8-8.6,13.9-8.6h61v15.6h-78.5L351.6,364.5z M438.2,262.5
		c6.4,0,11.7,5.2,11.7,11.7s-5.2,11.7-11.7,11.7h-22l-4-23.4H438.2z M124.3,201.6c3.2-18.9,19.6-32.6,39.1-32.6h183.6
		c19.5,0,35.9,13.7,39.1,32.6l14,82.6c-8.9-3.9-18.6-6.2-29-6.2H139.3c-10.3,0-20.1,2.2-29,6.2L124.3,201.6z M60.6,274.2
		c0-6.4,5.2-11.7,11.7-11.7h25.9l-4,23.4h-22C65.9,285.9,60.6,280.6,60.6,274.2z M68.4,402.7l0.1-15.6H193v15.6H68.4z M208.6,418.2
		v-31.1H302v31.1H208.6z M442,402.7H317.6v-15.6h124.6L442,402.7z"/>
</g>
<g>
	<g>
		<path d="M245.1,59.6l-23.8-13l-13-23.8c-1.9-3.6-7.8-3.6-9.8,0l-13,23.8l-23.8,13c-1.8,1-2.9,2.8-2.9,4.9s1.1,3.9,2.9,4.9l23.8,13
			l13,23.8c1,1.8,2.9,2.9,4.9,2.9c2,0,3.9-1.1,4.9-2.9l13-23.8l23.8-13c1.8-1,2.9-2.8,2.9-4.9C248,62.5,246.9,60.6,245.1,59.6z
			 M214.6,73.4c-0.9,0.5-1.7,1.3-2.2,2.2l-8.9,16.3l-8.9-16.3c-0.5-0.9-1.3-1.7-2.2-2.2l-16.3-8.9l16.3-8.9c0.9-0.5,1.7-1.3,2.2-2.2
			l8.9-16.3l8.9,16.3c0.5,0.9,1.3,1.7,2.2,2.2l16.3,8.9L214.6,73.4z"/>
	</g>
</g>
<g>
	<g>
		<path d="M448.2,93.8l-14.7-19.2l-2-24.2c-0.3-3.6-5.1-5.7-8-3.5l-19.2,14.7l-24.1,2c-1.8,0.2-3.4,1.3-4.1,2.9
			c-0.7,1.7-0.5,3.6,0.6,5l14.7,19.2l2,24.1c0.1,1.8,1.3,3.4,2.9,4.1c1.7,0.7,3.6,0.5,5-0.6l19.2-14.7l24.1-2
			c1.8-0.2,3.4-1.3,4.1-2.9C449.5,97.2,449.3,95.3,448.2,93.8z M418.2,94c-0.9,0.1-1.9,0.4-2.6,1l-13.2,10.1L401,88.6
			c-0.1-0.9-0.4-1.9-1-2.6l-10.1-13.2l16.5-1.4c1-0.1,1.9-0.4,2.6-1l13.2-10.1l1.4,16.5c0.1,0.9,0.4,1.9,1,2.6l10.1,13.2L418.2,94z"
			/>
	</g>
</g>
<g>
	<g>
		<path d="M77.1,135l-14.5-8l-8-14.5c-1.7-3.2-7-3.2-8.7,0l-8,14.5l-14.5,8c-1.6,0.9-2.6,2.6-2.6,4.4c0,1.8,1,3.5,2.6,4.4l14.5,8
			l8,14.5c0.9,1.6,2.5,2.6,4.4,2.6s3.5-1,4.4-2.6l8-14.5l14.5-8c1.6-0.9,2.6-2.5,2.6-4.4C79.7,137.6,78.7,135.9,77.1,135z
			 M56.5,143.7c-0.8,0.5-1.5,1.1-2,2l-4.3,7.8l-4.3-7.8c-0.5-0.8-1.1-1.5-2-2l-7.8-4.3l7.8-4.3c0.8-0.5,1.5-1.1,2-2l4.3-7.8l4.3,7.8
			c0.5,0.8,1.1,1.5,2,2l7.8,4.3L56.5,143.7z"/>
	</g>
</g>
<g>
	<g>
		<path d="M95.8,195.4c0-2.8-2.2-5-5-5h-2.9l2.1-2.3c1.9-1.9,1.9-5.2,0-7.2c-1.9-1.9-5.4-2-7.3-0.1l-2.3,2v-2.9c0-2.8-2.2-5-5-5
			s-5,2.2-5,5v2.9l-1.8-2.1c-1.9-1.9-5-1.9-6.9,0s-1.9,5.4,0.1,7.3l2.1,2.3h-2.9c-2.8,0-5,2.2-5,5s2.2,5,5,5h2.9l-2.1,1.8
			c-1.9,1.9-1.9,5,0,6.9c1,1,2.2,1.4,3.5,1.4c1.3,0,2.3-0.5,3.2-1.5l1.8-2.1v2.9c0,2.8,2.2,5,5,5s5-2.2,5-5v-2.9l2.3,2.1
			c1,1,2.4,1.5,3.7,1.5c1.3,0,2.6-0.5,3.6-1.5c1.9-1.9,2-4.8,0-6.8l-2-1.8h2.9C93.5,200.3,95.8,198.1,95.8,195.4z"/>
	</g>
</g>
<g>
	<g>
		<path d="M351.2,122.9c0-1.4-1.1-2.6-2.6-2.6h-1.5l1.1-1.2c1-1,1-2.7,0-3.7c-1-1-2.8-1-3.8,0l-1.2,1v-1.5c0-1.4-1.1-2.6-2.6-2.6
			s-2.6,1.1-2.6,2.6v1.5l-0.9-1.1c-1-1-2.6-1-3.6,0s-1,2.8,0,3.8l1.1,1.2h-1.5c-1.4,0-2.6,1.1-2.6,2.6c0,1.4,1.1,2.6,2.6,2.6h1.5
			l-1.1,0.9c-1,1-1,2.6,0,3.6c0.5,0.5,1.2,0.7,1.8,0.7c0.7,0,1.2-0.3,1.7-0.8l0.9-1.1v1.5c0,1.4,1.1,2.6,2.6,2.6s2.6-1.1,2.6-2.6
			v-1.5l1.2,1.1c0.5,0.5,1.2,0.8,1.9,0.8s1.3-0.3,1.9-0.8c1-1,1-2.5,0-3.5l-1-0.9h1.5C350,125.4,351.2,124.3,351.2,122.9z"/>
	</g>
</g>
<g>
	<g>
		<path d="M436.5,155.5H431V150c0-2.8-2.2-5-5-5s-5,2.2-5,5v5.5h-4.4c-2.8,0-5,2.2-5,5c0,2.8,2.2,5,5,5h4.4v4.5c0,2.8,2.2,5,5,5
			s5-2.2,5-5v-4.5h5.5c2.8,0,5-2.2,5-5C441.5,157.7,439.3,155.5,436.5,155.5z"/>
	</g>
</g>
<g>
	<g>
		<path d="M291.5,55.5H286V50c0-2.8-2.2-5-5-5c-2.8,0-5,2.2-5,5v5.5h-4.4c-2.8,0-5,2.2-5,5s2.2,5,5,5h4.4v4.5c0,2.8,2.2,5,5,5
			c2.8,0,5-2.2,5-5v-4.5h5.5c2.8,0,5-2.2,5-5S294.3,55.5,291.5,55.5z"/>
	</g>
</g>
<g>
	<g>
		<path d="M135.2,122.6l4-4c1.9-1.9,1.9-5.1,0-7c-1.9-1.9-5.1-1.9-7,0l-3.9,4l-4-4c-1.9-1.9-5.1-1.9-7,0c-1.9,1.9-1.9,5.1,0,7l4,4
			l-4,3.9c-1.9,1.9-1.9,5.1,0,7c1,1,2.2,1.5,3.5,1.5c1.3,0,2.5-0.5,3.5-1.5l4-4l3.9,4c1,1,2.2,1.5,3.5,1.5c1.3,0,2.5-0.5,3.5-1.5
			c1.9-1.9,1.9-5.1,0-7L135.2,122.6z"/>
	</g>
</g>
</svg>
