<?xml version="1.0" encoding="utf-8"?>
<!-- Generator: Adobe Illustrator 16.0.0, SVG Export Plug-In . SVG Version: 6.00 Build 0)  -->
<!DOCTYPE svg PUBLIC "-//W3C//DTD SVG 1.1//EN" "http://www.w3.org/Graphics/SVG/1.1/DTD/svg11.dtd">
<svg version="1.1" id="Capa_1" xmlns="http://www.w3.org/2000/svg" xmlns:xlink="http://www.w3.org/1999/xlink" x="0px" y="0px"
	 width="475.78px" height="560px" viewBox="242.11 0 475.78 560" enable-background="new 242.11 0 475.78 560" xml:space="preserve"
	>
<circle fill="#F0BC5E" stroke="#000000" stroke-miterlimit="10" cx="482" cy="238" r="223.5"/>
<rect x="258.516" y="325.019" fill="#F0BC5E" width="27.344" height="178.126"/>
<rect x="666.5" y="284.5" fill="#F0BC5E" width="41.766" height="225"/>
<circle fill="#FFFFFF" stroke="#000000" stroke-miterlimit="10" cx="480.771" cy="236.243" r="96.258"/>
<g>
	<g>
		<path d="M648.214,69.677C603.282,24.745,543.544,0,480,0c-63.543,0-123.282,24.745-168.214,69.677
			c-44.931,44.931-69.676,104.671-69.676,168.213v292.031c0,16.586,13.494,30.078,30.078,30.078s30.078-13.492,30.078-30.078
			v-133.92c3.069,3.441,6.233,6.815,9.52,10.103c44.932,44.933,104.671,69.678,168.214,69.678c38.183,0,76.146-9.267,109.784-26.794
			c25.574-13.326,48.712-31.445,67.95-53.026v133.961c0,16.586,13.492,30.078,30.077,30.078c16.586,0,30.078-13.492,30.078-30.078
			V237.891C717.891,174.348,693.146,114.608,648.214,69.677z M272.188,543.594c-7.539,0-13.672-6.133-13.672-13.672
			s6.133-13.672,13.672-13.672s13.672,6.133,13.672,13.672S279.727,543.594,272.188,543.594z M285.859,503.145
			c-4.105-2.104-8.75-3.301-13.672-3.301s-9.567,1.195-13.672,3.301V325.019c6.994,17.791,16.151,34.714,27.344,50.438V503.145z
			 M687.813,543.594c-7.539,0-13.673-6.133-13.673-13.672s6.134-13.672,13.673-13.672c7.538,0,13.672,6.133,13.672,13.672
			S695.352,543.594,687.813,543.594z M701.484,503.145c-4.104-2.104-8.75-3.301-13.673-3.301c-4.922,0-9.566,1.195-13.672,3.301
			V237.891C674.141,130.841,587.05,43.75,480,43.75c-45.52,0-89.78,16.086-124.627,45.293c-3.473,2.91-3.929,8.083-1.018,11.556
			c2.91,3.473,8.085,3.929,11.555,1.018C397.809,74.88,438.327,60.156,480,60.156c98.003,0,177.734,79.731,177.734,177.734
			c0,98.002-79.731,177.734-177.734,177.734S302.266,335.893,302.266,237.89c0-41.673,14.724-82.19,41.459-114.09
			c2.911-3.471,2.455-8.646-1.018-11.555c-3.472-2.91-8.645-2.455-11.556,1.017c-29.208,34.849-45.292,79.109-45.292,124.628
			c0,107.05,87.091,194.141,194.141,194.141c79.295,0,147.624-47.79,177.734-116.075v54.077
			C616.029,426.016,549.802,459.375,480,459.375c-122.127,0-221.484-99.357-221.484-221.484
			c0-122.127,99.357-221.485,221.484-221.485s221.484,99.357,221.484,221.484V503.145z"/>
	</g>
</g>
<g>
	<g>
		<path d="M480,87.5c-82.925,0-150.391,67.465-150.391,150.391S397.075,388.281,480,388.281s150.391-67.465,150.391-150.391
			S562.925,87.5,480,87.5z M480,371.875c-73.879,0-133.984-60.104-133.984-133.984c0-73.879,60.105-133.984,133.984-133.984
			c73.88,0,133.984,60.105,133.984,133.984C613.984,311.771,553.88,371.875,480,371.875z"/>
	</g>
</g>
<g>
	<g>
		<path d="M480,131.25c-58.802,0-106.641,47.838-106.641,106.641c0,58.802,47.839,106.641,106.641,106.641
			s106.641-47.839,106.641-106.641C586.641,179.088,538.802,131.25,480,131.25z M480,328.125c-49.755,0-90.234-40.479-90.234-90.234
			s40.479-90.234,90.234-90.234s90.234,40.479,90.234,90.234S529.755,328.125,480,328.125z"/>
	</g>
</g>
</svg>
