<?xml version="1.0" encoding="utf-8"?>
<!-- Generator: Adobe Illustrator 16.0.0, SVG Export Plug-In . SVG Version: 6.00 Build 0)  -->
<!DOCTYPE svg PUBLIC "-//W3C//DTD SVG 1.1//EN" "http://www.w3.org/Graphics/SVG/1.1/DTD/svg11.dtd">
<svg version="1.1" id="Capa_1" xmlns="http://www.w3.org/2000/svg" xmlns:xlink="http://www.w3.org/1999/xlink" x="0px" y="0px"
	 width="560px" height="560px" viewBox="200 0 560 560" enable-background="new 200 0 560 560" xml:space="preserve">
<g>
	<rect x="218.064" y="54.193" fill="#F0BC5E" width="523.871" height="36.129"/>
	<polygon fill="#F0BC5E" points="642.581,469.678 317.419,469.678 335.484,505.807 624.517,505.807 	"/>
</g>
<path d="M651.613,0h-18.064h-90.323h-18.063H434.84h-18.064h-90.323h-18.064H200v99.355v9.032v18.064
	c0,14.939,12.157,27.097,27.097,27.097h33.239l140.28,54.907l-77.551,31.649l0.136,0.334c-7.208-3.549-15.283-5.6-23.845-5.6
	c-29.888,0-54.194,24.306-54.194,54.193c0,29.887,24.306,54.192,54.194,54.192c10.802,0,20.864-3.215,29.328-8.688l76.611,31.27
	l-143.838,58.709h-20.034L200,465.938v48.9h36.942C241.259,540.427,263.515,560,290.323,560c26.808,0,49.054-19.573,53.38-45.161
	h272.594C620.614,540.427,642.87,560,669.678,560c26.809,0,49.055-19.573,53.38-45.161H760v-48.899l-41.422-41.424h-11.001
	l-143.839-58.709l76.61-31.27c8.464,5.474,18.525,8.688,29.328,8.688c29.889,0,54.193-24.306,54.193-54.192
	c0-29.887-24.306-54.193-54.193-54.193c-8.563,0-16.638,2.05-23.846,5.6l0.136-0.334l-77.551-31.649l140.279-54.907h24.207
	c14.938,0,27.097-12.157,27.097-27.097v-18.064v-9.032V0H651.613z M651.613,18.064h90.321v72.258h-90.321V18.064z M543.226,18.064
	h90.323v72.258h-90.323V18.064z M434.839,18.064h90.322v72.258h-90.322V18.064L434.839,18.064z M326.452,18.064h90.323v72.258
	h-90.323V18.064z M433.899,153.548h101.225l-50.607,20.657L433.899,153.548z M386.101,153.548l243.329,99.319
	c-5.393,5.997-9.475,13.178-11.777,21.126L309.914,153.548H386.101z M369.219,286.413l115.297-45.125l115.296,45.125
	l-115.296,47.058L369.219,286.413z M459.723,231.587l-108.342,42.407c-2.304-7.949-6.386-15.129-11.778-21.126l85.417-34.865
	L459.723,231.587z M263.226,289.032c0-19.925,16.204-36.129,36.129-36.129s36.129,16.204,36.129,36.129
	c0,19.925-16.204,36.129-36.129,36.129S263.226,308.957,263.226,289.032z M429.193,375.563l31.424,12.824L372.1,424.516h-62.837
	L429.193,375.563z M549.133,424.516H419.899l64.617-26.374L549.133,424.516z M290.323,541.936
	c-19.925,0-36.129-16.203-36.129-36.129s16.204-36.129,36.129-36.129c19.925,0,36.129,16.203,36.129,36.129
	C326.452,525.731,310.248,541.936,290.323,541.936z M669.678,541.936c-19.926,0-36.129-16.203-36.129-36.129
	s16.203-36.129,36.129-36.129c19.925,0,36.129,16.203,36.129,36.129C705.807,525.731,689.603,541.936,669.678,541.936z
	 M741.936,473.417v23.357h-18.878c-4.316-25.59-26.571-45.161-53.38-45.161c-26.808,0-49.055,19.571-53.381,45.161H343.703
	c-4.317-25.59-26.573-45.161-53.38-45.161c-26.808,0-49.054,19.571-53.381,45.161h-18.877v-23.357l30.836-30.836H711.1
	L741.936,473.417z M596.94,424.516L343.089,320.907c4.652-6.358,7.967-13.747,9.484-21.777l307.206,125.386H596.94z
	 M508.415,343.226l108.044-44.096c1.518,8.03,4.833,15.419,9.484,21.777l-86.104,35.145L508.415,343.226z M705.807,289.032
	c0,19.925-16.204,36.129-36.129,36.129c-19.926,0-36.129-16.204-36.129-36.129c0-19.925,16.203-36.129,36.129-36.129
	C689.603,252.903,705.807,269.107,705.807,289.032z M544.147,198.547l-35.732-14.587l74.517-30.412h76.188L544.147,198.547z
	 M741.936,126.452c0,4.986-4.056,9.032-9.031,9.032H227.097c-4.977,0-9.032-4.046-9.032-9.032v-18.064h54.193V90.323h-54.193V18.064
	h90.323v72.258h-18.064v18.063h18.064h18.064h90.323h18.064h90.322h18.063h90.323h18.064h90.322L741.936,126.452L741.936,126.452z"
	/>
<g>
	<circle fill="#F0BC5E" cx="669.678" cy="289.032" r="18.064"/>
	<circle fill="#F0BC5E" cx="299.355" cy="289.032" r="18.064"/>
</g>
</svg>
