<?xml version="1.0" encoding="utf-8"?>
<!-- Generator: Adobe Illustrator 16.0.0, SVG Export Plug-In . SVG Version: 6.00 Build 0)  -->
<!DOCTYPE svg PUBLIC "-//W3C//DTD SVG 1.1//EN" "http://www.w3.org/Graphics/SVG/1.1/DTD/svg11.dtd">
<svg version="1.1" id="Capa_1" xmlns="http://www.w3.org/2000/svg" xmlns:xlink="http://www.w3.org/1999/xlink" x="0px" y="0px"
	 width="560px" height="560px" viewBox="194.5 0 560 560" enable-background="new 194.5 0 560 560" xml:space="preserve">
<g>
	<g>
		<path d="M666.667,0H508c-25.761,0.031-46.637,20.906-46.667,46.667c0.035,10.13,3.398,19.969,9.572,28H424
			c-87.588,0.097-158.568,71.079-158.667,158.667V428.4l-18.042,88.187c-1.803,8.658,0.342,17.668,5.852,24.586
			c4.736,5.946,11.903,9.435,19.505,9.493h41.371c7.602-0.061,14.769-3.547,19.505-9.493c5.505-6.914,7.649-15.919,5.852-24.573
			L321.332,428.4V242.667c0.085-58.029,44.439-106.401,102.242-111.505c-23.227,17.589-36.884,45.036-36.908,74.171v345.333
			c0,5.154,4.179,9.333,9.333,9.333H620c5.155,0,9.333-4.179,9.333-9.333V205.333c-0.052-40.742-26.483-76.759-65.333-89.029
			v-13.637c-0.043-12.286-8.104-23.102-19.867-26.653c2.986-3.628,5.407-7.686,7.181-12.038l67.594,71.235
			c10.89,10.954,28.596,11.009,39.554,0.124c10.957-10.885,11.021-28.59,0.14-39.553L620.893,56H704
			c5.155,0,9.333-4.178,9.333-9.333C713.304,20.906,692.427,0.031,666.667,0z M284,373.333h18.667V420H284V373.333z
			 M319.059,529.375c-1.191,1.598-3.047,2.564-5.04,2.625h-41.371c-1.993-0.061-3.849-1.027-5.04-2.625
			c-1.985-2.563-2.73-5.872-2.032-9.036l16.707-81.672h22.103l16.707,81.672v0.014C321.787,523.513,321.043,526.817,319.059,529.375
			z M302.667,242.667v112H284V233.333c0.087-77.283,62.717-139.913,140-140h28V112h-18.667
			C361.201,112.081,302.748,170.535,302.667,242.667z M610.667,541.333H405.333v-46.667h205.333L610.667,541.333L610.667,541.333z
			 M610.667,476H405.333V224h205.333L610.667,476L610.667,476z M610.667,205.333H405.333c0.047-41.218,33.449-74.62,74.667-74.667
			h56C577.218,130.714,610.62,164.116,610.667,205.333z M545.333,102.667V112h-74.667V93.333H536
			C541.151,93.339,545.326,97.514,545.333,102.667z M645.271,108.847c1.771,1.736,2.766,4.112,2.758,6.592
			c-0.008,2.479-1.019,4.85-2.798,6.574c-3.649,3.33-9.215,3.404-12.952,0.173L569.481,56h25.692L645.271,108.847z M545.333,37.333
			c-5.155,0-9.333,4.178-9.333,9.333c0,15.463-12.535,28-28,28c-15.464,0-28-12.536-28-28c0.017-15.457,12.543-27.983,28-28h158.667
			c11.861,0.013,22.433,7.488,26.4,18.667H545.333z"/>
	</g>
</g>
<rect x="405.333" y="223.5" fill="#F0BC5E" stroke="#000000" stroke-miterlimit="10" width="205.333" height="252.5"/>
<rect x="284" y="373.333" fill="#F0BC5E" stroke="#000000" stroke-miterlimit="10" width="18.667" height="46.667"/>
</svg>
