<?xml version="1.0" encoding="iso-8859-1"?>
<!-- Generator: Adobe Illustrator 19.0.0, SVG Export Plug-In . SVG Version: 6.00 Build 0)  -->
<svg version="1.1" id="Capa_1" xmlns="http://www.w3.org/2000/svg" xmlns:xlink="http://www.w3.org/1999/xlink" x="0px" y="0px"
	 viewBox="0 0 496 496" style="enable-background:new 0 0 496 496;" xml:space="preserve">
<g>
	<path style="fill:#F0BC5E;" d="M304,160v-3.184c0-44.752-13.984-88.392-40-124.816l0,0h-32l0,0
		c-26.016,36.424-40,80.064-40,124.816V160H304z"/>
	<polygon style="fill:#F0BC5E;" points="224,432 192,432 192,400 168,416 168,448 184,464 184,488 232,488 232,464 248,448 248,416 
		224,400 	"/>
	<polygon style="fill:#F0BC5E;" points="312,384 296,384 280,424 280,440 288,448 288,488 320,488 320,448 328,440 328,424 	"/>
</g>
<path d="M424.504,411.608c-11.152-35.696-42.24-62.432-79.192-68.12L304,337.136v-8.288c26.92-15.624,46.784-42.072,53.488-73.4
	C376.928,252.736,392,236.176,392,216v-64h-0.408C387.88,88.624,340.688,36.856,279.408,26.16C276.648,11.304,263.648,0,248,0
	s-28.648,11.304-31.408,26.16C155.312,36.856,108.12,88.624,104.408,152H104v64c0,20.176,15.072,36.736,34.512,39.448
	c6.704,31.328,26.568,57.776,53.488,73.4v8.288l-41.312,6.352c-36.952,5.688-68.048,32.424-79.192,68.12L45.12,496h405.76
	L424.504,411.608z M409.24,416.376L429.12,480h-46.056l-7.128-56.992l-20.024-60.464C380.984,370.8,401.24,390.8,409.24,416.376z
	 M288,436.688v-11.152L301.416,392h5.168L320,425.536v11.152l-8,8V480h-16v-35.312L288,436.688z M317.416,376h-26.832L272,422.464
	v20.848l8,8V480h-40v-12.688l16-16V411.72l-40-26.664V424h-16v-38.944l-40,26.664v39.592l16,16V480h-38.936l6.784-54.216
	l22.848-68.56l28.072-4.32C201.056,366.336,217.184,384,248,384s46.944-17.664,53.232-31.104l36.504,5.616l22.416,67.264
	L366.936,480H328v-28.688l8-8v-20.848L317.416,376z M176,444.688V420.28l8-5.336V440h48v-25.056l8,5.336v24.408l-16,16V480h-32
	v-19.312L176,444.688z M288,342.832C286.624,347,278.216,368,248,368c-30.208,0-38.6-20.904-40-25.168v-6.344
	c12.44,4.784,25.896,7.512,40,7.512s27.56-2.728,40-7.512V342.832z M136,176.808c-5.944,1.216-11.328,3.856-16,7.392V168h16V176.808
	z M376,184.208c-4.672-3.536-10.056-6.184-16-7.392V168h16V184.208z M359.664,238.632C359.792,236.424,360,234.24,360,232v-38.528
	c9.288,3.312,16,12.112,16,22.528C376,226.536,369.128,235.416,359.664,238.632z M248,16c6.016,0,11.208,3.376,13.936,8.304
	C259.952,24.216,258,24,256,24h-16c-2,0-3.952,0.216-5.936,0.304C236.792,19.376,241.984,16,248,16z M240,40h16
	c63.472,0,115.448,49.56,119.592,112H120.408C124.552,89.56,176.528,40,240,40z M343.36,168c-3.904,27.088-27.208,48-55.36,48h-80
	c-28.152,0-51.456-20.912-55.36-48H343.36z M120,216c0-10.416,6.712-19.216,16-22.528V232c0,2.24,0.208,4.424,0.336,6.632
	C126.872,235.416,120,226.536,120,216z M152,232v-26.84c13.208,16.344,33.392,26.84,56,26.84h80c22.608,0,42.792-10.496,56-26.84
	V232c0,52.936-43.064,96-96,96S152,284.936,152,232z M86.76,416.376c8.904-28.48,33.024-49.968,62.048-56.08l-20.392,61.176
	L120.952,480H66.88L86.76,416.376z"/>
<g>
</g>
<g>
</g>
<g>
</g>
<g>
</g>
<g>
</g>
<g>
</g>
<g>
</g>
<g>
</g>
<g>
</g>
<g>
</g>
<g>
</g>
<g>
</g>
<g>
</g>
<g>
</g>
<g>
</g>
</svg>
