<?xml version="1.0" encoding="utf-8"?>
<!-- Generator: Adobe Illustrator 16.0.0, SVG Export Plug-In . SVG Version: 6.00 Build 0)  -->
<!DOCTYPE svg PUBLIC "-//W3C//DTD SVG 1.1//EN" "http://www.w3.org/Graphics/SVG/1.1/DTD/svg11.dtd">
<svg version="1.1" id="Layer_5" xmlns="http://www.w3.org/2000/svg" xmlns:xlink="http://www.w3.org/1999/xlink" x="0px" y="0px"
	 width="512px" height="512px" viewBox="0 0 512 512" enable-background="new 0 0 512 512" xml:space="preserve">
<rect x="368" y="376" fill="#F0BC5E" stroke="#000000" stroke-miterlimit="10" width="48" height="112"/>
<circle fill="#F0BC5E" stroke="#000000" stroke-miterlimit="10" cx="142.922" cy="108.922" r="11.078"/>
<circle fill="#F0BC5E" stroke="#000000" stroke-miterlimit="10" cx="88.5" cy="209.5" r="12"/>
<circle fill="#F0BC5E" stroke="#000000" stroke-miterlimit="10" cx="140.422" cy="176.5" r="13"/>
<circle fill="#F0BC5E" stroke="#000000" stroke-miterlimit="10" cx="196.5" cy="209.5" r="12"/>
<rect x="312" y="24" fill="#F0BC5E" stroke="#000000" stroke-miterlimit="10" width="176" height="146.5"/>
<path d="M456,136h16v16h-16V136z"/>
<path d="M456,40h-16v16h16v64h16V56C472,47.176,464.824,40,456,40z"/>
<path d="M464,8H296v16h-48v16h-56v-8c0-13.232-10.768-24-24-24h-48c-13.232,0-24,10.768-24,24v8H80h-8H40C22.352,40,8,54.352,8,72
	s14.352,32,32,32h8.328C32.848,124.552,24,149.688,24,176v136c0,17.648,14.352,32,32,32h112c8.824,0,16,7.176,16,16s-7.176,16-16,16
	H40c-17.648,0-32,14.352-32,32s14.352,32,32,32h190.112L304,476.944V488h48v16h80V360h-80v16h-48v11.056L230.112,424H40
	c-8.824,0-16-7.176-16-16s7.176-16,16-16h128c17.648,0,32-14.352,32-32s-14.352-32-32-32H56c-8.824,0-16-7.176-16-16v-76.384
	C60.728,271.641,99.536,296,144,296c66.168,0,120-53.832,120-120v-8h32v16h168c22.056,0,40-17.944,40-40V48
	C504,25.944,486.056,8,464,8z M265.889,440H304v19.056L265.889,440z M368,376h48v16h-32v16h32v16h-32v16h32v16h-32v16h32v16h-48V376
	z M320,392h32v80h-32V392z M304,404.944V424h-38.111L304,404.944z M248,72h-32v16h-41.888l-13.496,6.752
	c-2.432-2.344-5.368-4.12-8.616-5.272V56h96V72z M248,104h-16V88h16V104z M123.408,124.136c2.84,4.8,7.264,8.496,12.592,10.392
	v18.952c-2.776,0.992-5.288,2.472-7.488,4.344l-28.472-16.44C106.048,133.768,114.08,127.824,123.408,124.136z M144,104
	c4.416,0,8,3.584,8,8s-3.584,8-8,8s-8-3.584-8-8S139.584,104,144,104z M144,184c-4.416,0-8-3.584-8-8s3.584-8,8-8s8,3.584,8,8
	S148.416,184,144,184z M88,176c0-7.288,1.544-14.248,4.128-20.712l28.312,16.352c-0.264,1.416-0.44,2.864-0.44,4.36
	s0.176,2.944,0.44,4.36l-16.712,9.648c-4.232-3.688-9.552-5.76-15.072-5.928C88.248,181.376,88,178.672,88,176z M84,201.072
	c3.832-2.224,8.736-0.88,10.928,2.92c2.2,3.832,0.888,8.736-2.92,10.936c-3.824,2.208-8.736,0.88-10.936-2.92
	C78.864,208.176,80.176,203.272,84,201.072z M111.576,203.96l16.936-9.784c2.2,1.88,4.712,3.352,7.488,4.344v32.84
	c-9.944-1.416-19.224-5.456-27.072-11.816C111.528,214.832,112.488,209.352,111.576,203.96L111.576,203.96z M152,198.528
	c2.776-0.992,5.288-2.472,7.488-4.344l16.936,9.784c-0.912,5.384,0.048,10.864,2.64,15.592c-7.84,6.36-17.12,10.392-27.072,11.816
	v-32.848H152z M193.072,204c2.192-3.832,7.104-5.144,10.928-2.928c3.824,2.2,5.136,7.112,2.928,10.928
	c-2.192,3.816-7.088,5.152-10.928,2.928C192.176,212.728,190.864,207.824,193.072,204z M184.272,190.016l-16.712-9.656
	c0.264-1.416,0.44-2.864,0.44-4.36s-0.176-2.944-0.44-4.36l28.312-16.352C198.456,161.752,200,168.712,200,176
	c0,2.672-0.248,5.376-0.656,8.088C193.824,184.256,188.504,186.328,184.272,190.016L184.272,190.016z M159.488,157.816
	c-2.2-1.88-4.712-3.352-7.488-4.344V134.52c5.328-1.896,9.752-5.592,12.592-10.392c9.336,3.688,17.368,9.632,23.376,17.24
	L159.488,157.816z M112,32c0-4.416,3.584-8,8-8h48c4.416,0,8,3.584,8,8v8h-64V32z M24,72c0-8.824,7.176-16,16-16h32v24.08
	c-3.288,2.472-6.36,5.152-9.352,7.92H40C31.176,88,24,80.824,24,72z M248,176c0,57.344-46.656,104-104,104S40,233.344,40,176
	c0-33.912,16.664-65.8,44.576-85.28L88,88.328V56h48v33.472c-8.08,2.88-14.152,9.912-15.6,18.568C91.624,117.992,72,145.12,72,176
	c0,4.336,0.568,8.712,1.392,13.088c-9.344,7.224-12.248,20.392-6.184,30.912c4.448,7.688,12.52,11.992,20.832,11.992
	c2.912,0,5.816-0.736,8.64-1.84C109.8,241.68,126.368,248,144,248s34.2-6.32,47.32-17.848c2.824,1.104,5.72,1.84,8.64,1.84
	c8.304,0,16.392-4.304,20.832-12c6.064-10.512,3.168-23.672-6.184-30.896C215.432,184.72,216,180.336,216,176
	c0-30.424-19.072-57.176-47.16-67.472l9.048-4.528H216v16h32v48V176z M264,152v-32V72V40h32v112H264z M488,144
	c0,13.232-10.768,24-24,24H312V24h152c13.232,0,24,10.768,24,24V144z"/>
<rect x="232" y="88" fill="#F0BC5E" stroke="#000000" stroke-miterlimit="10" width="16" height="16"/>
</svg>
