<svg height="496pt" viewBox="-47 0 496 496.984" width="496pt" xmlns="http://www.w3.org/2000/svg"><path d="m48.492188 96.984375h16v16h-16zm0 0"/><path d="m104.492188 80.984375h16v16h-16zm0 0"/><path d="m338.492188 96.984375h16v16h-16zm0 0"/><path d="m282.492188 80.984375h16v16h-16zm0 0"/><path d="m328.492188 352.984375h16v16h-16zm0 0"/><path d="m312.492188 424.984375h16v16h-16zm0 0"/><path d="m384.429688 69.855469-7.042969-35.222657-121.222657-34.632812-25.816406 25.816406c-2.0625-.527344-4.167968-.832031-6.289062-.832031-9.734375 0-18.328125 5.542969-22.566406 13.925781-4.25-8.382812-12.839844-13.925781-22.566407-13.925781-2.113281 0-4.21875.304687-6.289062.832031l-25.816407-25.816406-121.214843 34.632812-7.042969 35.222657c-10.671875 3.402343-18.070312 13.382812-18.070312 24.625 0 2.390625.335937 4.777343.992187 7.113281l11.601563 40.613281c2.828124 9.890625 11.324218 17.066407 21.398437 18.480469l.222656.738281c18.695313 60.726563 47.554688 116.964844 85.625 167.558594h-55.839843v16h-16v-16h-16v48h16v-16h16v16h16v120h48v-16h184c26.472656 0 48-21.527344 48-48v-32h16v-64c0-26.472656-21.527344-48-48-48h-18.433594c24.722656-39.746094 44.3125-82.398437 58.21875-127.570313l.214844-.71875c10.023437-1.382812 18.566406-8.566406 21.398437-18.488281l11.601563-40.632812c.65625-2.316407.992187-4.703125.992187-7.09375.007813-11.242188-7.390625-21.222657-18.054687-24.625zm-123.609376-51.886719 102.785157 29.367188 3.503906 17.503906-119.121094-34.039063zm-221.441406 29.367188 102.785156-29.367188 12.832032 12.832031-119.121094 34.039063zm43.050782 190.089843 46.351562-19.867187 9.125 25.546875-42.726562 18.308593c-4.464844-7.878906-8.710938-15.878906-12.75-23.988281zm20.847656 37.917969 40.007812-17.152344 10.183594 28.519532-33.511719 14.359374c-5.800781-8.421874-11.386719-16.992187-16.679687-25.726562zm-6.785156 205.640625v-104h16v104zm32-16v-104h-48v-16h56v-8l6.246093-5c-4.597656-5.753906-9.023437-11.625-13.367187-17.535156l29.496094-12.640625 2.097656 5.863281 15.0625-5.382813-11.71875-32.816406 28.183594-9.382812v36.894531h16v-37.570313l30.183593 10.066407-11.71875 32.816406 15.0625 5.382813 2.097657-5.863282 29.496093 12.640625c-1.617187 2.199219-3.335937 4.34375-4.984375 6.535157h-12.136718v16h10l6.246093 5c1.3125-1.640626 2.523438-3.34375 3.808594-5h19.945313v32c0 52.9375-43.0625 96-96 96h-72zm121.015624-178.265625 10.183594-28.519531 40.015625 17.152343c-5.296875 8.738282-10.878906 17.296876-16.6875 25.738282zm94.984376 146.265625c0 17.648437-14.351563 32-32 32h-54.609376c23.738282-14.25 41.808594-36.953125 49.898438-64h36.710938zm-16-128c17.648437 0 32 14.351563 32 32v48h-49.28125c.753906-5.242187 1.28125-10.550781 1.28125-16v-48h-23.777344c3.808594-5.257813 7.441406-10.625 11.058594-16zm-20.679688-43.558594-42.726562-18.3125 9.117187-25.546875 46.351563 19.867188c-4.039063 8.101562-8.285157 16.101562-12.742188 23.992187zm78.296875-164.234375-11.601563 40.617188c-1.441406 5.054687-7.03125 8.230468-12.222656 6.832031l-53.6875-14.648437-4.203125 15.441406 47.984375 13.085937c-2.589844 8.320313-5.398437 16.550781-8.375 24.695313l-50.351562-21.582032-6.296875 14.703126 50.878906 21.808593c-3.359375 8.390625-6.902344 16.695313-10.679687 24.878907l-47.949219-20.550782 4.046875-11.335937-15.0625-5.382813-24.523438 68.652344-35.574218-11.855469v-25.566406h-16v26.230469l-33.566407 11.191406-23.785156-66.597656-15.066406 5.382812 3.3125 9.28125-47.949219 20.550782c-3.777344-8.183594-7.320312-16.488282-10.679688-24.878907l50.878907-21.808593-6.296875-14.703126-50.351563 21.582032c-2.984375-8.144532-5.785156-16.375-8.382812-24.695313l47.984375-13.085937-4.203125-15.441406-53.679688 14.648437c-.855469.222656-1.726562.34375-2.71875.34375-4.390625 0-8.304687-2.953125-9.503906-7.175781l-11.601563-40.601563c-.253906-.894531-.390624-1.816406-.390624-2.726562 0-4.390625 2.953124-8.304688 7.167968-9.511719l8.542969-2.441406.128906.023437.015625-.0625 143.984375-41.144531c5.0625-1.449219 10.433594 1.710938 11.6875 6.734375l5.234375 20.90625-.523437 2.054687 1.097656.273438.902344 3.609375 6.761719-1.691406 6.761718 1.691406.902344-3.609375 1.097656-.273438-.515625-2.054687 5.234375-20.90625c1.238282-5.015625 6.640625-8.175781 11.671875-6.734375l143.992188 41.144531.015625.0625.128906-.023437 8.542969 2.441406c4.214843 1.207031 7.167969 5.121094 7.167969 9.511719 0 .910156-.136719 1.832031-.382813 2.710937zm0 0"/><path d="m200.492188 224.984375c-38.070313 0-73.320313-17.230469-96.695313-47.289063l-25.441406-32.710937 25.441406-32.710937c23.375-30.058594 58.625-47.289063 96.695313-47.289063 38.070312 0 73.320312 17.230469 96.695312 47.289063l25.441406 32.710937-25.441406 32.710937c-23.375 30.058594-58.625 47.289063-96.695312 47.289063zm0 0" fill="#f0bc5e"/><path d="m200.492188 448.984375c-44.113282 0-80-35.886719-80-80s35.886718-80 80-80c44.113281 0 80 35.886719 80 80s-35.886719 80-80 80zm0-120c-22.054688 0-40 17.945313-40 40s17.945312 40 40 40c22.054687 0 40-17.945313 40-40s-17.945313-40-40-40zm0 0" fill="#f0bc5e"/><path d="m200.492188 192.984375c-26.472657 0-48-21.527344-48-48s21.527343-48 48-48c26.472656 0 48 21.527344 48 48s-21.527344 48-48 48zm0-80c-17.648438 0-32 14.351563-32 32s14.351562 32 32 32c17.648437 0 32-14.351563 32-32s-14.351563-32-32-32zm0 0"/><path d="m264.492188 136.984375h16v16h-16zm0 0"/><path d="m120.492188 136.984375h16v16h-16zm0 0"/><path d="m192.492188 136.984375h16v16h-16zm0 0"/><path d="m240.507812 395.441406-13.34375-8.832031c3.488282-5.273437 5.328126-11.363281 5.328126-17.625 0-17.648437-14.351563-32-32-32-6.265626 0-12.351563 1.839844-17.617188 5.328125l-8.832031-13.34375c7.890625-5.226562 17.03125-7.984375 26.449219-7.984375 26.472656 0 48 21.527344 48 48 0 9.414063-2.761719 18.558594-7.984376 26.457031zm0 0"/><path d="m200.492188 416.984375c-26.472657 0-48-21.527344-48-48 0-9.417969 2.761718-18.558594 7.984374-26.457031l13.34375 8.832031c-3.488281 5.273437-5.328124 11.359375-5.328124 17.625 0 17.648437 14.351562 32 32 32 6.265624 0 12.351562-1.839844 17.617187-5.328125l8.832031 13.34375c-7.890625 5.222656-17.035156 7.984375-26.449218 7.984375zm0 0"/></svg>