<?xml version="1.0" encoding="iso-8859-1"?>
<!-- Generator: Adobe Illustrator 19.0.0, SVG Export Plug-In . SVG Version: 6.00 Build 0)  -->
<svg version="1.1" id="Capa_1" xmlns="http://www.w3.org/2000/svg" xmlns:xlink="http://www.w3.org/1999/xlink" x="0px" y="0px"
	 viewBox="0 0 496 496" style="enable-background:new 0 0 496 496;" xml:space="preserve">
<g>
	<path style="fill:#F0BC5E;" d="M312,72c-61.856,0-112,50.144-112,112s50.144,112,112,112s112-50.144,112-112S373.856,72,312,72z
		 M312,232c-26.512,0-48-21.488-48-48s21.488-48,48-48s48,21.488,48,48S338.512,232,312,232z"/>
	<rect x="168" y="408" style="fill:#F0BC5E;" width="320" height="32"/>
	<rect x="88" y="104" style="fill:#F0BC5E;" width="32" height="384"/>
</g>
<path d="M464,352h-77.096C451.128,323.256,496,258.792,496,184C496,82.536,413.464,0,312,0c-68.2,0-129.608,36.912-161.84,96.624
	c-2-0.392-4.048-0.624-6.16-0.624H64c-17.648,0-32,14.352-32,32v67.056l-18.736,9.368C5.088,208.512,0,216.744,0,225.888v140.216
	c0,9.152,5.088,17.376,13.264,21.472L32,396.944V464c0,17.648,14.352,32,32,32h80h320c17.648,0,32-14.352,32-32v-80
	C496,366.352,481.648,352,464,352z M376.008,368l-12.8,9.6l9.592,12.8l29.864-22.4H464c8.824,0,16,7.176,16,16v16h-21.336
	L428.8,377.6l-9.6,12.8L432,400h-85.336L316.8,377.6l-9.6,12.8L320,400h-93.336l-24.416-18.312
	c3.248-3.792,5.224-8.552,5.624-13.688h48.136l-12.8,9.6l9.592,12.8l29.864-22.4H376.008z M237.176,352H208v-16.224
	C217.224,342.096,227.016,347.48,237.176,352z M192,366.112c0,3.056-1.696,5.8-4.424,7.16L176,379.056V212.944l11.576,5.792
	c2.728,1.36,4.424,4.096,4.424,7.152V366.112z M176,396.944l11.96-5.976L200.008,400H176V396.944z M218.608,44.272l40.104,10.744
	l4.144-15.456l-24.576-6.584c19.336-9.408,40.568-15.184,62.792-16.6l29.28,29.28l11.312-11.312L323.92,16.608
	c22.32,1.576,43.4,7.52,62.488,17l10.648,39.76l15.456-4.144l-6.536-24.408c18.048,12.224,33.576,27.88,45.704,46l-10.688,39.904
	l15.456,4.144l6.48-24.184c9.336,19.128,15.112,40.24,16.536,62.56l-29.112,29.112l11.312,11.312l17.736-17.736
	c-1.576,22.32-7.52,43.4-17,62.488l-39.76,10.648l4.144,15.456l24.408-6.536c-12.224,18.048-27.88,33.576-46,45.704L365.288,313
	l-4.144,15.456l24.184,6.48c-19.128,9.336-40.24,15.112-62.56,16.536l-29.112-29.112l-11.312,11.312l17.832,17.832
	c-21.824-1.552-43.064-7.384-62.552-17.008l-10.672-39.84l-15.456,4.144l6.544,24.416c-3.44-2.32-6.768-4.824-10.032-7.4v-89.928
	c0-9.152-5.088-17.376-13.264-21.472L176,195.056V128c0-7.728-2.864-14.728-7.44-20.264l32.8-8.784l-4.144-15.456l-24.496,6.56
	C185.072,71.68,200.704,56.248,218.608,44.272z M20.424,373.264c-2.728-1.36-4.424-4.096-4.424-7.152V225.888
	c0-3.056,1.696-5.8,4.424-7.16L32,212.944v166.112L20.424,373.264z M48,464v-72.008l9.6,12.8l12.8-9.592L48,365.336v-90.024
	l10.344,10.344l11.312-11.312L48,252.688v-89.376l10.344,10.344l11.312-11.312L48,140.688V128c0-8.824,7.176-16,16-16h16v32h16v-32
	h16v368H96V160H80v36.688l-21.656,21.656l11.312,11.312L80,219.312v90.024L57.6,339.2l12.8,9.6L80,336v85.344L57.6,451.2l12.8,9.6
	L80,448v32H64C55.176,480,48,472.824,48,464z M128,480v-32.008l9.6,12.8l12.8-9.592L128,421.336v-85.344l9.6,12.8l12.8-9.592
	L128,309.336v-93.344l9.6,12.8l12.8-9.592L128,189.336V112h16c8.824,0,16,7.176,16,16v5.336L137.6,163.2l12.8,9.592l9.6-12.8v85.344
	L137.6,275.2l12.8,9.592l9.6-12.8v93.344L137.6,395.2l12.8,9.592l9.6-12.8V464c0,8.824-7.176,16-16,16H128z M464,480h-61.336
	L372.8,457.6l-9.6,12.8L376,480h-93.336L252.8,457.6l-9.6,12.8L256,480h-84.448c2.752-4.728,4.448-10.144,4.448-16v-16h24.008
	l-12.8,9.6l9.592,12.8l29.864-22.4H256v-16h-80v-16h304v16H272v16h48.008l-12.8,9.6l9.592,12.8l29.864-22.4h85.344l-12.8,9.6
	l9.592,12.8l29.864-22.4H480v16C480,472.824,472.824,480,464,480z"/>
<path d="M312,240c30.872,0,56-25.128,56-56s-25.128-56-56-56s-56,25.128-56,56S281.128,240,312,240z M312,144
	c22.056,0,40,17.944,40,40s-17.944,40-40,40s-40-17.944-40-40S289.944,144,312,144z"/>
<rect x="304" y="96" width="16" height="16"/>
<rect x="227.918" y="151.286" transform="matrix(-0.3086 0.9512 -0.9512 -0.3086 460.2339 -15.9628)" width="16" height="16"/>
<rect x="256.966" y="240.727" transform="matrix(-0.5878 0.809 -0.809 -0.5878 621.9283 180.5735)" width="15.992" height="16"/>
<rect x="351.017" y="240.674" transform="matrix(-0.8088 0.5881 -0.5881 -0.8088 795.6288 238.656)" width="16" height="15.992"/>
<rect x="380.042" y="151.287" transform="matrix(-0.9511 0.309 -0.309 -0.9511 806.3134 190.8651)" width="15.999" height="15.999"/>
<g>
</g>
<g>
</g>
<g>
</g>
<g>
</g>
<g>
</g>
<g>
</g>
<g>
</g>
<g>
</g>
<g>
</g>
<g>
</g>
<g>
</g>
<g>
</g>
<g>
</g>
<g>
</g>
<g>
</g>
</svg>
