<svg height="496pt" viewBox="0 -112 496 496" width="496pt" xmlns="http://www.w3.org/2000/svg"><path d="m304 120c-79.398438 0-144 64.601562-144 144h40c0-57.441406 46.558594-104 104-104s104 46.558594 104 104h40c0-79.398438-64.601562-144-144-144zm0 0" fill="#f0bc5e"/><path d="m456 80h-80c-4.414062 0-8-3.585938-8-8v-32c0-4.414062 3.585938-8 8-8h80c4.414062 0 8 3.585938 8 8v32c0 4.414062-3.585938 8-8 8zm0 0" fill="#f0bc5e"/><path d="m131.039062 61.328125c-48.214843 27.558594-82.679687 74.566406-94.542968 128.96875l15.632812 3.40625c10.902344-49.984375 42.550782-93.167969 86.847656-118.488281l32.992188-18.847656-7.9375-13.886719zm0 0"/><path d="m472 0h-190.113281c-12.933594 0-25.886719 3.054688-37.460938 8.839844-9.371093 4.6875-19.851562 7.160156-30.3125 7.160156h-14.113281c-4.40625 0-8-3.59375-8-8v-8h-18.128906l-58.703125 33.550781c-71.039063 40.59375-115.167969 116.625-115.167969 198.449219v8h20l24 32h164v-8c0-52.9375 43.0625-96 96-96s96 43.0625 96 96v8h72c13.230469 0 24-10.769531 24-24v-224c0-13.230469-10.769531-24-24-24zm-432 240h20l12 16h-20zm60 0 12 16h-20l-12-16zm32 16-12-16h20l12 16zm348-8c0 4.414062-3.59375 8-8 8h-56.28125c-4.117188-58.039062-52.65625-104-111.71875-104s-107.601562 45.960938-111.71875 104h-20.28125l-24-32h-131.847656c2.769531-73.015625 43.207031-140.136719 106.953125-176.558594l54.390625-31.089844c3.40625 9.128907 12.207031 15.648438 22.503906 15.648438h14.113281c12.933594 0 25.886719-3.054688 37.460938-8.839844 9.363281-4.679687 19.839843-7.160156 30.3125-7.160156h190.113281c4.40625 0 8 3.59375 8 8zm0 0"/></svg>