<?xml version="1.0" encoding="utf-8"?>
<!-- Generator: Adobe Illustrator 16.0.0, SVG Export Plug-In . SVG Version: 6.00 Build 0)  -->
<!DOCTYPE svg PUBLIC "-//W3C//DTD SVG 1.1//EN" "http://www.w3.org/Graphics/SVG/1.1/DTD/svg11.dtd">
<svg version="1.1" id="Layer_3" xmlns="http://www.w3.org/2000/svg" xmlns:xlink="http://www.w3.org/1999/xlink" x="0px" y="0px"
	 width="512px" height="512px" viewBox="0 0 512 512" enable-background="new 0 0 512 512" xml:space="preserve">
<path d="M168,216h16v32h-16V216z"/>
<path d="M168,168h16v32h-16V168z"/>
<path d="M168,120h16v32h-16V120z"/>
<path d="M168,72h16v32h-16V72z"/>
<path d="M456,328h16v32h-16V328z"/>
<path d="M456,280h16v32h-16V280z"/>
<path d="M456,232h16v32h-16V232z"/>
<path d="M456,184h16v32h-16V184z"/>
<path d="M456,136h16v32h-16V136z"/>
<path d="M168,40h32v16h-32V40z"/>
<path d="M216,40h32v16h-32V40z"/>
<path d="M264,40h32v16h-32V40z"/>
<path d="M312,40h32v16h-32V40z"/>
<path fill="#F0BC5E" stroke="#000000" stroke-miterlimit="10" d="M280,396.582V312H31.944c-1.925,4.331-4.933,8.043-7.944,11.75
	v56.589c1.288,0.905,2.063,2.447,2.25,4.161c0.034,0.309,0.116,0.643,0.216,0.986C27.388,384.572,28.653,384,30,384
	c2.765,0,4.948,2.275,5,5c0.057,2.94-1.23,5.468-3.111,7.642c-0.663,0.765-1.383,1.468-2.093,2.189
	c-0.284,0.289-0.567,0.581-0.839,0.884c-0.09,0.131-0.324,0.447-0.39,0.559c-1.123,1.903-2.878,2.562-4.567,2.381V494.5h243.578
	c0.237-1.439,1.111-2.717,2.398-3.567c2.701-1.785,5.477-3.368,7.488-5.968c0.438-0.566,1.016-0.952,1.656-1.187
	c0.285-0.221,0.579-0.432,0.879-0.635v-68.923c-4.252-0.286-8.982-0.933-10.746-4.917C265.91,401.753,274.45,398.597,280,396.582z"
	/>
<path d="M360,40h32v16h-32V40z"/>
<path d="M456,376h16v32h-16V376z"/>
<path d="M408,392h32v16h-32V392z"/>
<path d="M360,392h32v16h-32V392z"/>
<path d="M312,392h32v16h-32V392z"/>
<path d="M484.112,76.832L454.2,40.272C437.416,19.76,412.592,8,386.088,8H376H160c-13.232,0-24,10.768-24,24v264H64
	c-30.88,0-56,25.128-56,56c0,16.992,7.64,32.216,19.632,42.496C16.112,399.344,8,410.736,8,424c0,9.544,4.2,18.136,10.856,24
	C12.2,453.864,8,462.456,8,472c0,17.648,14.352,32,32,32h200c30.88,0,56-25.128,56-56c0-2.72-0.264-5.376-0.641-8H480
	c13.232,0,24-10.768,24-24V152v-19.44C504,112.304,496.937,92.512,484.112,76.832z M441.816,50.408l29.911,36.56
	c6.576,8.04,11.297,17.4,13.912,27.352C477.464,107.88,467.184,104,456,104h-32V56c0-9.224-2.664-17.816-7.184-25.144
	C426.368,35.368,434.92,41.984,441.816,50.408z M24,352c0-22.056,17.944-40,40-40h200c8.824,0,16,7.176,16,16s-7.176,16-16,16H56v16
	h208c8.824,0,16,7.176,16,16s-7.176,16-16,16h-24H64C41.944,392,24,374.056,24,352z M240,488H40c-8.824,0-16-7.176-16-16
	s7.176-16,16-16h208v-16H40c-8.824,0-16-7.176-16-16s7.176-16,16-16h24h176c22.057,0,40,17.944,40,40S262.057,488,240,488z M488,416
	c0,4.416-3.592,8-8,8H290.52c-3.399-7.12-8.224-13.416-14.144-18.496C287.889,400.656,296,389.264,296,376
	c0-9.544-4.2-18.136-10.855-24C291.8,346.136,296,337.544,296,328c0-17.648-14.352-32-32-32h-80v-32h-16v32h-16V32
	c0-4.408,3.592-8,8-8h216c17.648,0,32,14.352,32,32v56c0,4.416,3.584,8,8,8h40c17.648,0,32,14.352,32,32V416z"/>
</svg>
