<?xml version="1.0" encoding="utf-8"?>
<!-- Generator: Adobe Illustrator 16.0.0, SVG Export Plug-In . SVG Version: 6.00 Build 0)  -->
<!DOCTYPE svg PUBLIC "-//W3C//DTD SVG 1.1//EN" "http://www.w3.org/Graphics/SVG/1.1/DTD/svg11.dtd">
<svg version="1.1" id="Capa_1" xmlns="http://www.w3.org/2000/svg" xmlns:xlink="http://www.w3.org/1999/xlink" x="0px" y="0px"
	 width="496px" height="496px" viewBox="0 0 496 496" enable-background="new 0 0 496 496" xml:space="preserve">
<path display="none" fill="#F0BC5E" d="M384,216v32l88,16l-8-48H384z"/>
<path display="none" fill="#F0BC5E" d="M184,408c-30.879,0-56-25.121-56-56s25.121-56,56-56s56,25.121,56,56S214.879,408,184,408z"
	/>
<rect x="309.664" y="328" fill="#F0BC5E" width="170.336" height="32"/>
<path d="M493.566,279.816c0-9.535-5.469-17.824-13.566-21.672v-19.57c0-35.574-25.504-65.477-60.625-71.094l-84.984-13.602
	l-0.09-0.271c-0.322-0.025-0.64-0.083-0.951-0.167c-0.925,0.103-1.873-0.054-2.744-0.489c-10.478-1.007-20.768-2.23-30.638-4.579
	l-22.847-3.654l0.271-0.185c-0.982-0.182-1.939-0.636-2.76-1.331c-2.938-2.491-6.149-4.896-8.569-7.923
	c-0.555-0.389-1.045-0.849-1.445-1.395l-0.066,0.045L144.016,19.727C130.586,7.008,113,0,94.496,0H0v376h72v-24
	c0-61.762,50.238-112,112-112s112,50.238,112,112v24h184c8.824,0,16-7.176,16-16.238L493.566,279.816z M462.113,224
	c1.23,4.656,1.887,9.543,1.887,14.574v15.84l-72-13.086V224H462.113z M16,16h78.496c14.391,0,28.063,5.449,38.512,15.344L251.93,144
	h-25.266l-29.406-22.055l-78.227-78.227C111.48,36.16,101.434,32,90.742,32H16V16z M200.078,144H148c-6.617,0-12-5.383-12-12
	s5.383-12,12-12h24.688l13.656,13.656L200.078,144z M16,48h74.742c6.418,0,12.449,2.496,16.977,7.023L156.688,104H148
	c-15.441,0-28,12.559-28,28c0,1.367,0.215,2.68,0.406,4H16V48z M56,352v8H16v-32h42.336C56.848,335.785,56,343.793,56,352z
	 M202.176,225.441C196.223,224.594,190.184,224,184,224c-56.602,0-104.664,36.969-121.512,88H16V152h112.465
	c5.047,4.938,11.934,8,19.535,8h67.809C214.938,182.48,210.344,204.441,202.176,225.441z M218.047,228.734
	c8.289-22.102,12.914-45.148,13.762-68.734h39.566l145.473,23.281c16.215,2.59,29.809,11.84,38.168,24.719H376v46.672l94.785,17.23
	c3.934,0.609,6.789,3.93,6.789,8.152L478.543,312H305.512C292.176,271.609,259.266,240.145,218.047,228.734z M312,360v-8
	c0-8.207-0.848-16.215-2.336-24h169.359L480,360H312z"/>
<path d="M184,256c-52.938,0-96,43.063-96,96s43.063,96,96,96s96-43.063,96-96S236.938,256,184,256z M230.672,416.84l-7.742-13.414
	l-13.859,8l7.762,13.445c-7.719,3.496-16.055,5.848-24.832,6.723V416h-16v15.594c-8.785-0.875-17.113-3.234-24.832-6.723
	l7.762-13.445l-13.859-8l-7.742,13.414c-6.992-5.047-13.121-11.176-18.168-18.168l13.414-7.742l-8-13.859l-13.445,7.762
	c-3.496-7.719-5.848-16.055-6.723-24.832H120v-16h-15.594c0.875-8.785,3.234-17.113,6.723-24.832l13.445,7.762l8-13.859
	l-13.414-7.742c5.047-6.992,11.176-13.121,18.168-18.168l7.742,13.414l13.859-8l-7.762-13.445
	c7.719-3.496,16.055-5.848,24.832-6.723V288h16v-15.594c8.785,0.875,17.113,3.234,24.832,6.723l-7.762,13.445l13.859,8l7.742-13.414
	c6.992,5.047,13.121,11.176,18.168,18.168l-13.414,7.742l8,13.859l13.445-7.762c3.496,7.719,5.848,16.055,6.723,24.832H248v16
	h15.594c-0.875,8.785-3.234,17.121-6.723,24.832l-13.445-7.762l-8,13.859l13.414,7.742
	C243.793,405.664,237.664,411.793,230.672,416.84z"/>
<path d="M184,312c-22.055,0-40,17.945-40,40s17.945,40,40,40s40-17.945,40-40S206.055,312,184,312z M184,376
	c-13.23,0-24-10.77-24-24s10.77-24,24-24s24,10.77,24,24S197.23,376,184,376z"/>
<path d="M176,344h16v16h-16V344z"/>
</svg>
