<svg height="496pt" viewBox="0 -112 496 496" width="496pt" xmlns="http://www.w3.org/2000/svg"><g fill="#f0bc5e"><path d="m316.6875 64h-44.6875c0 13.257812-10.742188 24-24 24s-24-10.742188-24-24h-44.6875c-19.472656 0-35.3125 15.839844-35.3125 35.3125 0 16.28125 11.0625 30.382812 26.902344 34.296875 19.144531 4.742187 48.050781 10.390625 77.097656 10.390625s57.953125-5.648438 77.097656-10.390625c15.839844-3.914063 26.902344-18.015625 26.902344-34.296875 0-19.472656-15.839844-35.3125-35.3125-35.3125zm0 0"/><path d="m8 160 20 64h4c30.871094 0 56-25.128906 56-56v-8zm0 0"/><path d="m408 160v8c0 30.871094 25.128906 56 56 56h4l20-64zm0 0"/></g><path d="m248 96c17.648438 0 32-14.351562 32-32s-14.351562-32-32-32-32 14.351562-32 32 14.351562 32 32 32zm0-48c8.824219 0 16 7.175781 16 16s-7.175781 16-16 16-16-7.175781-16-16 7.175781-16 16-16zm0 0"/><path d="m104 177.640625 12.175781 28.414063c8.839844 20.625 29.046875 33.945312 51.480469 33.945312h160.695312c22.433594 0 42.632813-13.320312 51.472657-33.945312l12.175781-28.414063v-17.640625h-288zm31.769531 30.359375h32.230469v16h-.34375c-12.761719 0-24.441406-6.105469-31.886719-16zm144.230469 0h32v16h-32zm-16 16h-32v-16h32zm16-32v-16h32v16zm-16 0h-32v-16h32zm-48 0h-32v-16h32zm0 16v16h-32v-16zm112.34375 16h-.34375v-16h32.230469c-7.445313 9.894531-19.125 16-31.886719 16zm40.097656-32h-40.441406v-16h47.296875zm-200.441406-16v16h-40.441406l-6.855469-16zm0 0"/><path d="m411.800781 128c-6.503906 0-11.800781-5.289062-11.800781-11.800781 0-1.65625.34375-3.269531 1.015625-4.792969l33.222656-74.773438-6.277343-3.585937c-2.351563-1.34375-59.226563-33.046875-179.960938-33.046875s-177.609375 31.703125-179.96875 33.054688l-6.277344 3.585937 33.230469 74.773437c.671875 1.515626 1.015625 3.128907 1.015625 4.785157 0 6.511719-5.296875 11.800781-11.800781 11.800781h-84.199219v41.601562l24.207031 58.09375c11.21875 26.914063 37.304688 44.304688 66.457031 44.304688h314.664063c29.160156 0 55.246094-17.390625 66.464844-44.304688l24.207031-58.09375v-41.601562zm68.199219 38.398438-22.976562 55.144531c-8.71875 20.9375-29.015626 34.457031-51.6875 34.457031h-314.671876c-22.679687 0-42.96875-13.519531-51.695312-34.464844l-22.96875-55.136718v-22.398438h68.199219c15.328125 0 27.800781-12.472656 27.800781-27.800781 0-3.910157-.808594-7.710938-2.390625-11.289063l-27.152344-61.09375c17.726563-7.855468 71.949219-27.816406 165.542969-27.816406 93.609375 0 147.832031 19.960938 165.542969 27.824219l-27.144531 61.085937c-1.589844 3.578125-2.398438 7.378906-2.398438 11.289063 0 15.328125 12.472656 27.800781 27.800781 27.800781h68.199219zm0 0"/></svg>