<svg height="496pt" viewBox="0 0 496 496" width="496pt" xmlns="http://www.w3.org/2000/svg"><g fill="#f0bc5e"><path d="m374.238281 84.679688c-1.703125-20.566407-19.207031-36.679688-39.847656-36.679688h-172.78125c-20.640625 0-38.152344 16.113281-39.847656 36.679688l-9.554688 114.65625h271.59375zm0 0"/><path d="m32 392v80c0 13.230469 10.769531 24 24 24h48c13.230469 0 24-10.769531 24-24v-80zm0 0"/><path d="m368 392v80c0 13.230469 10.769531 24 24 24h48c13.230469 0 24-10.769531 24-24v-80zm0 0"/></g><path d="m48 288h32c8.824219 0 16-7.175781 16-16v-16c0-8.824219-7.175781-16-16-16h-32c-8.824219 0-16 7.175781-16 16v16c0 8.824219 7.175781 16 16 16zm0-32h32l.007812 16h-32.007812zm0 0"/><path d="m448 240h-32c-8.824219 0-16 7.175781-16 16v16c0 8.824219 7.175781 16 16 16h32c8.824219 0 16-7.175781 16-16v-16c0-8.824219-7.175781-16-16-16zm-32 32v-16h32l.007812 16zm0 0"/><path d="m496 192v-16c0-13.230469-10.769531-24-24-24h-43.96875l-5.941406-71.3125c-3.777344-45.238281-42.296875-80.6875-87.699219-80.6875h-172.78125c-45.402344 0-83.921875 35.449219-87.699219 80.6875l-5.941406 71.3125h-43.96875c-13.230469 0-24 10.769531-24 24v16c0 11.511719 8.152344 21.136719 18.984375 23.457031-11.746094 12.816407-18.984375 29.832031-18.984375 48.542969v112c0 13.230469 10.769531 24 24 24h448c13.230469 0 24-10.769531 24-24v-112c0-18.710938-7.238281-35.726562-18.984375-48.542969 10.832031-2.320312 18.984375-11.945312 18.984375-23.457031zm-334.390625-176h172.78125c37.152344 0 68.664063 29 71.753906 66.015625l9.160157 109.984375h-334.609376l9.167969-109.984375c3.082031-37.015625 34.601563-66.015625 71.746094-66.015625zm203.191406 227.585938 10.261719 92.414062h-16.101562l-10.074219-90.648438c-1.34375-12.175781-11.597657-21.351562-23.847657-21.351562h-154.078124c-12.25 0-22.496094 9.175781-23.847657 21.34375l-10.074219 90.65625h-16.101562l10.261719-92.414062c2.265625-20.289063 19.351562-35.585938 39.761719-35.585938h154.078124c20.410157 0 37.496094 15.296875 39.761719 35.585938zm-46.273437 92.414062c-2.414063-6.777344-7.75-12.113281-14.527344-14.527344v-81.472656h21.039062c4.082032 0 7.503907 3.054688 7.953126 7.121094l9.878906 88.878906zm-30.527344-16h-16v-80h16zm-32 0h-16v-80h16zm-32 0h-16v-80h16zm-32 1.472656c-6.777344 2.414063-12.113281 7.75-14.527344 14.527344h-24.34375l9.878906-88.886719c.457032-4.058593 3.871094-7.113281 7.953126-7.113281h21.039062zm0 22.527344c0-4.40625 3.59375-8 8-8h96c4.40625 0 8 3.59375 8 8v40h-112zm-176-152v-16c0-4.40625 3.59375-8 8-8h42.640625l-2.03125 24.375c-9.097656.9375-17.664063 3.617188-25.441406 7.625h-15.167969c-4.40625 0-8-3.59375-8-8zm56 16h59.824219c-8.953125 8.761719-15.039063 20.496094-16.519531 33.816406l-10.464844 94.183594h-28.105469c-11.863281-19.855469-33.085937-32-56.511719-32h-4.222656v-40c0-30.878906 25.121094-56 56-56zm-56 168v-56h4.222656c19.015625 0 36.121094 10.566406 44.625 27.574219l2.207032 4.425781h108.945312v32h-152c-4.40625 0-8-3.59375-8-8zm456 8h-152v-32h108.945312l2.207032-4.425781c8.503906-17.007813 25.601562-27.574219 44.625-27.574219h4.222656v56c0 4.40625-3.59375 8-8 8zm8-80h-4.222656c-23.425782 0-44.648438 12.144531-56.511719 32h-28.105469l-10.464844-94.183594c-1.480468-13.320312-7.566406-25.054687-16.519531-33.816406h59.824219c30.878906 0 56 25.121094 56 56zm0-112c0 4.40625-3.59375 8-8 8h-15.167969c-7.777343-4.007812-16.34375-6.6875-25.441406-7.625l-2.03125-24.375h42.640625c4.40625 0 8 3.59375 8 8zm0 0"/><path d="m145.351562 171.554688 63.996094-96.003907 13.316406 8.875-64 96.003907zm0 0"/><path d="m209.351562 171.550781 63.996094-96.003906 13.316406 8.875-64 96.003906zm0 0"/><path d="m273.351562 171.546875 63.996094-96.003906 13.316406 8.875-64 96.003906zm0 0"/><path d="m368 448h32v16h-32zm0 0"/><path d="m368 416h32v16h-32zm0 0"/><path d="m432 416h32v16h-32zm0 0"/><path d="m432 448h32v16h-32zm0 0"/><path d="m96 448h32v16h-32zm0 0"/><path d="m96 416h32v16h-32zm0 0"/><path d="m32 416h32v16h-32zm0 0"/><path d="m32 448h32v16h-32zm0 0"/><path d="m208 352h16v16h-16zm0 0"/><path d="m240 352h48v16h-48zm0 0"/></svg>