<svg height="496pt" viewBox="0 -56 496 496" width="496pt" xmlns="http://www.w3.org/2000/svg"><g fill="#f0bc5e"><path d="m402.609375 160h-309.21875l31.601563-110.59375c2.929687-10.246094 12.414062-17.40625 23.078124-17.40625h199.859376c10.664062 0 20.148437 7.160156 23.078124 17.40625zm0 0"/><path d="m96 272c-22.054688 0-40-17.945312-40-40s17.945312-40 40-40 40 17.945312 40 40-17.945312 40-40 40zm0 0"/><path d="m400 272c-22.054688 0-40-17.945312-40-40s17.945312-40 40-40 40 17.945312 40 40-17.945312 40-40 40zm0 0"/></g><path d="m64 288h64v16h-64zm0 0"/><path d="m368 288h64v16h-64zm0 0"/><path d="m448 160c26.472656 0 48-21.527344 48-48 0-8.824219-7.175781-16-16-16h-61.246094l-16.824218-56.097656c-7.160157-23.863282-28.722657-39.902344-53.640626-39.902344h-200.578124c-24.917969 0-46.480469 16.039062-53.640626 39.910156l-16.824218 56.089844h-61.246094c-8.824219 0-16 7.175781-16 16 0 26.472656 21.527344 48 48 48h10.046875l-1.015625 3.390625c-20.109375 16.144531-33.03125 40.882813-33.03125 68.609375v80c0 13.230469 10.769531 24 24 24h16v24c0 13.230469 10.769531 24 24 24h48c13.230469 0 24-10.769531 24-24v-24h176v24c0 13.230469 10.769531 24 24 24h48c13.230469 0 24-10.769531 24-24v-24h16c13.230469 0 24-10.769531 24-24v-80c0-27.726562-12.921875-52.464844-33.03125-68.609375l-1.015625-3.390625zm32-48c0 17.648438-14.351562 32-32 32h-14.847656l-9.601563-32zm-370.601562-67.496094c5.113281-17.046875 20.511718-28.503906 38.3125-28.503906h200.578124c17.800782 0 33.191407 11.457031 38.3125 28.503906l31.972657 106.59375c-10.621094-4.554687-22.300781-7.097656-34.574219-7.097656h-272c-12.273438 0-23.953125 2.542969-34.574219 7.097656zm66.601562 275.496094h-16v-24c0-10.414062 6.710938-19.214844 16-22.527344zm16-48h16v48h-16zm32 0h16v48h-16zm48-112h16v32h-16zm-16 32h-92.222656c-9.152344 0-17.371094-5.078125-21.464844-13.265625l-9.367188-18.734375h123.054688zm64-32v32h-16v-32zm-32 48v48h-16v-48zm-32 64h16v48h-16zm32 0h16v48h-16zm32 1.472656c9.289062 3.3125 16 12.113282 16 22.527344v24h-16zm-8-17.472656h-8v-48h16v48.808594c-2.585938-.527344-5.265625-.808594-8-.808594zm24-96h27.054688l-9.367188 18.734375c-3.519531 7.042969-10.09375 11.761719-17.6875 12.953125zm-288-16c-17.648438 0-32-14.351562-32-32h56.449219l-9.601563 32zm-8 168v-80c0-39.695312 32.296875-72 72-72h3.054688l12.945312 25.886719c6.824219 13.640625 20.527344 22.113281 35.777344 22.113281h92.222656v48h-72c-22.054688 0-40 17.945312-40 40v24h-96c-4.414062 0-8-3.59375-8-8zm104 48c0 4.40625-3.585938 8-8 8h-48c-4.414062 0-8-3.59375-8-8v-24h64zm272 0c0 4.40625-3.585938 8-8 8h-48c-4.414062 0-8-3.59375-8-8v-24h64zm40-128v80c0 4.40625-3.585938 8-8 8h-96v-24c0-13.015625-6.34375-24.488281-16-31.792969v-56.464843c13.695312-1.277344 25.753906-9.351563 32-21.847657l12.945312-25.894531h3.054688c39.703125 0 72 32.304688 72 72zm0 0"/><path d="m266.339844 114.347656 47.996094-48 11.3125 11.3125-47.996094 48zm0 0"/><path d="m218.339844 114.347656 47.996094-48 11.3125 11.3125-47.996094 48zm0 0"/><path d="m170.339844 114.34375 47.996094-47.996094 11.316406 11.3125-48 48zm0 0"/></svg>