<?xml version="1.0" encoding="utf-8"?>
<!-- Generator: Adobe Illustrator 16.0.0, SVG Export Plug-In . SVG Version: 6.00 Build 0)  -->
<!DOCTYPE svg PUBLIC "-//W3C//DTD SVG 1.1//EN" "http://www.w3.org/Graphics/SVG/1.1/DTD/svg11.dtd">
<svg version="1.1" id="Capa_1" xmlns="http://www.w3.org/2000/svg" xmlns:xlink="http://www.w3.org/1999/xlink" x="0px" y="0px"
	 width="560px" height="560px" viewBox="200 0 560 560" enable-background="new 200 0 560 560" xml:space="preserve">
<circle fill="#F0BC5E" stroke="#000000" stroke-miterlimit="10" cx="480.679" cy="280.391" r="205.109"/>
<ellipse fill="#FFFFFF" stroke="#000000" stroke-miterlimit="10" cx="482.267" cy="282.275" rx="76.999" ry="77.113"/>
<circle fill="#F0BC5E" stroke="#000000" stroke-miterlimit="10" cx="479.39" cy="280.458" r="38.042"/>
<g>
	<g>
		<path d="M315.018,75.507c-8.965-8.965-22.851-10.824-33.784-4.482c-10.933,6.342-16.291,19.352-13.011,31.597
			c3.28,12.245,14.432,20.664,27.005,20.664c11.371,0,21.539-6.778,25.912-17.274C325.514,95.516,323.108,83.489,315.018,75.507z
			 M298.836,103.935c-3.499,1.421-7.544,0.656-10.168-1.968c-1.75-1.75-2.733-4.155-2.733-6.56c0-2.515,0.984-4.92,2.733-6.669
			c2.624-2.624,6.669-3.499,10.168-2.077s5.794,4.811,5.794,8.637C304.63,99.124,302.335,102.512,298.836,103.935z"/>
	</g>
</g>
<g>
	<g>
		<path d="M718.017,133.017c18.367-25.912,15.308-61.335-7.105-83.858c-22.522-22.522-57.946-25.475-83.858-7.106
			c-90.09-55.979-204.014-55.979-294.104,0c-25.912-18.368-61.335-15.416-83.858,7.106s-25.475,57.946-7.107,83.858
			c-55.978,90.09-55.978,204.014,0,294.104c-18.586,25.802-15.744,61.335,6.779,83.856c22.523,22.522,57.946,25.476,83.858,6.889
			c90.199,56.088,204.451,56.088,294.649,0c25.912,18.368,61.228,15.416,83.75-6.997c22.412-22.413,25.363-57.837,6.996-83.748
			C773.994,337.03,773.994,223.105,718.017,133.017z M704.896,412.688l-27.332-27.332c35.096-65.817,35.096-144.756,0-210.464
			l27.332-27.333C753.331,229.229,753.331,330.908,704.896,412.688z M480,485.285c-113.377,0-205.217-91.948-205.217-205.216
			S366.623,74.852,480,74.852c113.378,0,205.217,91.839,205.217,205.217C685.107,393.336,593.269,485.175,480,485.285z
			 M631.753,62.498c0.438-0.437,0.875-0.875,1.422-1.312c0.328-0.219,0.547-0.438,0.874-0.656
			c18.368-16.4,46.248-15.525,63.632,1.858c17.385,17.383,18.26,45.264,1.969,63.741c-0.22,0.219-0.438,0.547-0.656,0.875
			c-0.438,0.546-0.874,0.984-1.313,1.421l-29.957,29.957c-17.165-26.349-39.578-48.762-65.928-65.927L631.753,62.498z
			 M612.62,55.172l-27.333,27.333c-65.818-35.096-144.756-35.096-210.465,0l-27.333-27.333C429.16,6.738,530.84,6.738,612.62,55.172
			z M262.319,62.388c17.384-17.493,45.264-18.368,63.741-1.968c0.219,0.219,0.547,0.437,0.875,0.656
			c0.547,0.438,0.984,0.875,1.421,1.312l29.957,29.957c-26.349,17.166-48.762,39.579-65.927,65.927l-29.957-29.957
			c-0.438-0.437-0.875-0.875-1.312-1.421c-0.219-0.328-0.438-0.547-0.656-0.875C244.061,107.652,244.936,79.772,262.319,62.388z
			 M255.104,147.449l27.333,27.333c-35.096,65.818-35.096,144.756,0,210.464l-27.333,27.334
			C206.669,330.908,206.669,229.229,255.104,147.449z M328.247,497.64c-0.437,0.438-0.875,0.875-1.421,1.313
			c-0.328,0.219-0.546,0.438-0.875,0.656c-18.368,16.398-46.248,15.523-63.631-1.859c-17.493-17.384-18.368-45.263-1.968-63.74
			c0.219-0.219,0.437-0.547,0.656-0.875c0.438-0.546,0.875-0.982,1.312-1.421l29.957-29.957
			c17.165,26.35,39.578,48.762,65.927,65.928L328.247,497.64z M347.38,504.966l27.333-27.333
			c65.818,35.096,144.756,35.096,210.465,0l27.333,27.333C530.84,553.399,429.16,553.399,347.38,504.966z M697.681,497.748
			c-17.384,17.384-45.264,18.259-63.74,1.969c-0.219-0.219-0.547-0.438-0.874-0.656c-0.548-0.438-0.984-0.875-1.423-1.313
			l-29.957-29.957c26.351-17.165,48.764-39.578,65.929-65.927l29.957,29.957c0.438,0.437,0.875,0.874,1.313,1.421
			c0.218,0.328,0.438,0.547,0.655,0.875C715.939,452.486,715.064,480.365,697.681,497.748z"/>
	</g>
</g>
<g>
	<g>
		<path d="M315.018,444.94c-10.933-10.823-28.645-10.823-39.578,0c-10.934,10.934-10.934,28.646,0,39.578
			c10.933,10.934,28.645,10.934,39.578,0C325.951,473.586,325.951,455.874,315.018,444.94z M301.897,471.4
			c-2.624,2.624-6.669,3.499-10.167,2.076c-3.499-1.421-5.795-4.811-5.795-8.637c0-3.827,2.296-7.217,5.795-8.638
			s7.544-0.656,10.167,2.077C305.506,461.888,305.506,467.792,301.897,471.4z"/>
	</g>
</g>
<g>
	<g>
		<path d="M678.767,71.025c-10.934-6.341-24.818-4.482-33.783,4.483c-7.981,7.981-10.388,20.008-6.123,30.503
			c4.374,10.496,14.542,17.274,25.912,17.274c12.683,0,23.726-8.528,27.005-20.773C695.057,90.268,689.699,77.366,678.767,71.025z
			 M668.271,103.935c-3.498,1.421-7.544,0.656-10.168-2.077c-3.607-3.608-3.607-9.512,0-13.12c2.624-2.624,6.67-3.499,10.168-2.077
			c3.498,1.421,5.795,4.811,5.795,8.637C674.065,99.124,671.769,102.512,668.271,103.935z"/>
	</g>
</g>
<g>
	<g>
		<path d="M545.928,214.142C528.544,196.539,504.709,186.7,480,186.809c-44.498,0-82.874,31.487-91.511,75.111
			c-8.637,43.623,14.651,87.356,55.759,104.412c41.108,17.056,88.56,2.624,113.269-34.33
			C582.226,294.938,577.415,245.629,545.928,214.142z M532.808,332.875c-25.146,25.146-64.614,29.083-94.244,9.294
			c-29.628-19.79-41.108-57.728-27.442-90.637s48.543-51.605,83.53-44.608c34.877,6.998,60.022,37.61,60.022,73.253
			C554.674,299.856,546.802,318.882,532.808,332.875z"/>
	</g>
</g>
<g>
	<g>
		<path d="M519.578,240.381C509.082,229.994,494.869,224.09,480,224.09c-26.677,0-49.746,18.915-54.885,45.045
			c-5.139,26.131,8.854,52.479,33.456,62.647c24.6,10.168,53.135,1.64,68.004-20.664
			C541.444,288.924,538.493,259.296,519.578,240.381z M506.349,306.417c-14.76,14.104-38.047,14.104-52.807,0
			c-10.715-10.715-13.886-26.677-8.091-40.672c5.794-13.995,19.352-23.069,34.438-23.069s28.756,9.074,34.439,23.069
			C520.234,279.741,517.063,295.813,506.349,306.417z"/>
	</g>
</g>
<g>
	<g>
		<path d="M480,429.308c-82.437-0.108-149.129-66.91-149.239-149.239c0-5.139-4.154-9.293-9.293-9.293
			c-5.139,0-9.293,4.155-9.293,9.293c0.109,92.713,75.221,167.826,167.936,167.934c5.139,0,9.293-4.154,9.293-9.293
			S485.139,429.308,480,429.308z"/>
	</g>
</g>
<g>
	<g>
		<path d="M480,112.134c-5.139,0-9.293,4.155-9.293,9.293c0,5.138,4.154,9.293,9.293,9.293
			c82.437,0.109,149.129,66.912,149.238,149.239c0,5.139,4.155,9.293,9.294,9.293s9.293-4.154,9.293-9.293
			C647.825,187.355,572.714,112.244,480,112.134z"/>
	</g>
</g>
<g>
	<g>
		<path d="M678.767,440.459c-10.934-6.341-24.818-4.482-33.783,4.483c-7.981,7.979-10.388,20.008-6.123,30.503
			c4.374,10.496,14.542,17.384,25.912,17.273c12.683,0,23.726-8.526,27.005-20.771S689.699,446.801,678.767,440.459z
			 M668.271,473.367c-3.498,1.422-7.544,0.656-10.168-2.077c-3.607-3.499-3.607-9.402,0-13.12c2.624-2.624,6.67-3.498,10.168-2.077
			s5.795,4.812,5.795,8.639C674.064,468.557,671.769,471.947,668.271,473.367z"/>
	</g>
</g>
</svg>
