<svg height="496pt" viewBox="0 -128 496 496" width="496pt" xmlns="http://www.w3.org/2000/svg"><path d="m466.328125 16h-167.015625l-16-16h-70.625l-16 16h-167.015625c-16.359375 0-29.671875 13.3125-29.671875 29.671875 0 2.128906.222656 4.238281.671875 6.304687l25.816406 118.710938c8.726563 40.160156 44.894531 69.3125 85.992188 69.3125h271.039062c41.097657 0 77.257813-29.152344 85.992188-69.304688l25.816406-118.71875c.449219-2.066406.671875-4.175781.671875-6.304687 0-16.359375-13.3125-29.671875-29.671875-29.671875zm-35.894531 146.191406c-4.769532 21.914063-24.496094 37.808594-46.914063 37.808594h-271.039062c-22.417969 0-42.144531-15.894531-46.894531-37.808594l-23.097657-106.191406h173.511719l16 16h32l16-16h173.511719zm0 0" fill="#f0bc5e"/><path d="m276.6875 48-16 16h-25.375l-16-16h-186.761719l25.203125 115.886719c5.558594 25.570312 28.566406 44.113281 54.726563 44.113281h271.039062c26.152344 0 49.167969-18.542969 54.726563-44.105469l25.203125-115.894531zm123.3125 140.246094c-4.945312 2.273437-10.335938 3.640625-16 3.714844v-31.90625h16zm-192-92.246094h-16v-32h16zm80-32h16v32h-16zm80 32h-16v-32h16zm16-32h16v32h-16zm-32 48h16v32.054688h-16zm-16 32.054688h-16v-32.054688h16zm0-48.054688h-16v-32h16zm-32 16v32.054688h-16v-32.054688zm-32 32.054688h-16v-32.054688h16zm-32 0h-16v-32.054688h16zm-32 0h-16v-32.054688h16zm-48-32.054688h16v32.054688h-16zm-16 32.054688h-16v-32.054688h16zm32-48.054688h-16v-32h16zm-32 0h-16v-32h16zm-32 0h-16v-32h16zm0 16v32.054688h-16v-32.054688zm-16 48.054688h16v31.90625c-5.664062-.074219-11.054688-1.441407-16-3.714844zm32 0h16v31.945312h-16zm32 0h16v31.945312h-16zm32 0h16v31.945312h-16zm32 0h16v31.945312h-16zm32 0h16v31.945312h-16zm32 0h16v31.945312h-16zm32 0h16v31.945312h-16zm32 0h16v31.945312h-16zm32-16v-32.054688h16v32.054688zm32-32.054688h17.152344l-6.96875 32.054688h-10.183594zm0-16v-32h27.585938l-6.960938 32zm-148.6875-16 4.6875-4.6875v20.6875h-16v-16zm-27.3125 0v16h-16v-20.6875l4.6875 4.6875zm-160-16v32h-20.625l-6.960938-32zm-17.144531 48h17.144531v63.046875c-3.078125-4.304687-5.433594-9.175781-6.601562-14.558594zm353.144531 63.054688v-15h6.703125l-.09375.441406c-1.167969 5.382812-3.53125 10.257812-6.609375 14.558594zm0 0"/></svg>