<?xml version="1.0" encoding="utf-8"?>
<!-- Generator: Adobe Illustrator 16.0.0, SVG Export Plug-In . SVG Version: 6.00 Build 0)  -->
<!DOCTYPE svg PUBLIC "-//W3C//DTD SVG 1.1//EN" "http://www.w3.org/Graphics/SVG/1.1/DTD/svg11.dtd">
<svg version="1.1" id="Layer_1" xmlns="http://www.w3.org/2000/svg" xmlns:xlink="http://www.w3.org/1999/xlink" x="0px" y="0px"
	 width="560px" height="560px" viewBox="200 0 560 560" enable-background="new 200 0 560 560" xml:space="preserve">
<g>
	<g>
		<path d="M341.498,337.963H240.21c-5.165,0-9.352,4.188-9.352,9.353c0,5.166,4.187,9.352,9.352,9.352h101.288
			c5.165,0,9.352-4.186,9.352-9.352S346.662,337.963,341.498,337.963z"/>
	</g>
	<rect x="630.5" y="180.5" fill="#F0BC5E" stroke="#000000" stroke-miterlimit="10" width="116" height="265"/>
	<polygon fill="#F0BC5E" stroke="#000000" stroke-miterlimit="10" points="552.237,445.5 429.015,445.5 410.751,249.698 
		567.456,249.698 	"/>
	<rect x="213.5" y="249.698" fill="#F0BC5E" stroke="#000000" stroke-miterlimit="10" width="154" height="195.802"/>
</g>
<g>
	<g>
		<path d="M341.498,306.643H240.21c-5.165,0-9.352,4.187-9.352,9.353s4.187,9.352,9.352,9.352h101.288
			c5.165,0,9.352-4.186,9.352-9.352S346.662,306.643,341.498,306.643z"/>
	</g>
</g>
<g>
	<g>
		<path d="M341.498,275.321H240.21c-5.165,0-9.352,4.186-9.352,9.351c0,5.166,4.187,9.352,9.352,9.352h101.288
			c5.165,0,9.352-4.186,9.352-9.352C350.849,279.507,346.662,275.321,341.498,275.321z"/>
	</g>
</g>
<g>
	<g>
		<path d="M341.498,369.286H240.21c-5.165,0-9.352,4.186-9.352,9.352s4.187,9.353,9.352,9.353h101.288
			c5.165,0,9.352-4.187,9.352-9.353S346.662,369.286,341.498,369.286z"/>
	</g>
</g>
<g>
	<g>
		<path d="M341.498,400.607H240.21c-5.165,0-9.352,4.187-9.352,9.352c0,5.166,4.187,9.352,9.352,9.352h101.288
			c5.165,0,9.352-4.186,9.352-9.352C350.85,404.794,346.662,400.607,341.498,400.607z"/>
	</g>
</g>
<g>
	<g>
		<path d="M531.045,337.963h-80.077c-5.165,0-9.352,4.188-9.352,9.353c0,5.166,4.187,9.352,9.352,9.352h80.077
			c5.165,0,9.353-4.186,9.353-9.352C540.396,342.149,536.21,337.963,531.045,337.963z"/>
	</g>
</g>
<g>
	<g>
		<path d="M531.045,306.643h-80.077c-5.165,0-9.352,4.187-9.352,9.353s4.187,9.352,9.352,9.352h80.077
			c5.165,0,9.353-4.186,9.353-9.352S536.21,306.643,531.045,306.643z"/>
	</g>
</g>
<g>
	<g>
		<path d="M531.045,275.321h-80.077c-5.165,0-9.352,4.186-9.352,9.351c0,5.166,4.187,9.352,9.352,9.352h80.077
			c5.165,0,9.353-4.186,9.353-9.352C540.397,279.507,536.21,275.321,531.045,275.321z"/>
	</g>
</g>
<g>
	<g>
		<path d="M531.045,369.286h-80.077c-5.165,0-9.352,4.186-9.352,9.352s4.187,9.353,9.352,9.353h80.077
			c5.165,0,9.353-4.187,9.353-9.353S536.21,369.286,531.045,369.286z"/>
	</g>
</g>
<g>
	<g>
		<path d="M531.045,400.607h-80.077c-5.165,0-9.352,4.187-9.352,9.352c0,5.166,4.187,9.352,9.352,9.352h80.077
			c5.165,0,9.353-4.186,9.353-9.352C540.396,404.794,536.21,400.607,531.045,400.607z"/>
	</g>
</g>
<g>
	<g>
		<path d="M728.562,334.313h-80.077c-5.165,0-9.353,4.187-9.353,9.353s4.188,9.352,9.353,9.352h80.077
			c5.164,0,9.353-4.186,9.353-9.352S733.726,334.313,728.562,334.313z"/>
	</g>
</g>
<g>
	<g>
		<path d="M728.562,302.989h-80.077c-5.165,0-9.353,4.187-9.353,9.352c0,5.166,4.188,9.353,9.353,9.353h80.077
			c5.164,0,9.353-4.187,9.353-9.353C737.913,307.176,733.726,302.989,728.562,302.989z"/>
	</g>
</g>
<g>
	<g>
		<path d="M728.562,271.667h-80.077c-5.165,0-9.353,4.186-9.353,9.351c0,5.166,4.188,9.353,9.353,9.353h80.077
			c5.164,0,9.353-4.187,9.353-9.353C737.914,275.853,733.726,271.667,728.562,271.667z"/>
	</g>
</g>
<g>
	<g>
		<path d="M728.562,240.346h-80.077c-5.165,0-9.353,4.186-9.353,9.352s4.188,9.352,9.353,9.352h80.077
			c5.164,0,9.353-4.186,9.353-9.352C737.913,244.532,733.726,240.346,728.562,240.346z"/>
	</g>
</g>
<g>
	<g>
		<path d="M728.562,209.023h-80.077c-5.165,0-9.353,4.186-9.353,9.352s4.188,9.352,9.353,9.352h80.077
			c5.164,0,9.353-4.186,9.353-9.352C737.913,213.209,733.726,209.023,728.562,209.023z"/>
	</g>
</g>
<g>
	<g>
		<path d="M728.562,365.634h-80.077c-5.165,0-9.353,4.188-9.353,9.353c0,5.166,4.188,9.352,9.353,9.352h80.077
			c5.164,0,9.353-4.186,9.353-9.352C737.913,369.82,733.726,365.634,728.562,365.634z"/>
	</g>
</g>
<g>
	<g>
		<path d="M728.562,396.956h-80.077c-5.165,0-9.353,4.186-9.353,9.352c0,5.165,4.188,9.353,9.353,9.353h80.077
			c5.164,0,9.353-4.188,9.353-9.353C737.913,401.142,733.726,396.956,728.562,396.956z"/>
	</g>
</g>
<g>
	<g>
		<path d="M356.084,237.883h-24.707v-39.911c0-5.166-4.187-9.352-9.352-9.352s-9.352,4.186-9.352,9.352v39.911h-43.642V136.537
			h43.642v24.029c0,5.165,4.187,9.352,9.352,9.352s9.352-4.186,9.352-9.352v-33.381c0-5.166-4.187-9.352-9.352-9.352H259.68
			c-5.165,0-9.352,4.186-9.352,9.352v110.697h-24.706C211.495,237.885,200,249.378,200,263.507v23.224
			c0,5.166,4.187,9.352,9.352,9.352s9.352-4.186,9.352-9.352v-23.224c0-3.817,3.104-6.92,6.92-6.92h34.059h62.345h34.058
			c3.817,0,6.92,3.104,6.92,6.92v167.616c0,3.817-3.104,6.921-6.92,6.921h-130.46c-3.817,0-6.92-3.104-6.92-6.921V324.139
			c0-5.166-4.187-9.352-9.352-9.352s-9.352,4.186-9.352,9.352v106.984c0,14.13,11.496,25.625,25.625,25.625h130.461
			c14.129,0,25.625-11.495,25.625-25.625V263.507C381.709,249.378,370.214,237.883,356.084,237.883z"/>
	</g>
</g>
<g>
	<g>
		<path d="M573.699,246.136c-4.837-5.244-11.702-8.252-18.835-8.252H531.53v-12.5c0-6.587-1.629-13.144-4.71-18.96l-14.615-27.606
			c-2.416-4.566-8.077-6.308-12.642-3.891c-4.564,2.416-6.306,8.077-3.89,12.642l14.614,27.607c1.658,3.132,2.535,6.662,2.535,10.21
			v12.5h-43.643v-4.758c0-1.526-0.373-3.027-1.087-4.375l-43.985-83.09l38.569-20.418l14.718,27.803
			c2.418,4.565,8.077,6.306,12.641,3.891c4.564-2.416,6.307-8.078,3.891-12.642l-19.094-36.07c-1.16-2.192-3.145-3.833-5.514-4.562
			c-2.37-0.73-4.935-0.488-7.126,0.673l-55.1,29.17c-4.565,2.416-6.307,8.077-3.891,12.642l47.274,89.3v2.437h-23.333v-0.001
			c-7.132,0-13.999,3.008-18.834,8.252c-4.836,5.243-7.28,12.33-6.705,19.44l8.458,104.439c0.417,5.148,4.926,8.972,10.077,8.566
			c5.147-0.416,8.984-4.927,8.566-10.076l-8.458-104.441c-0.158-1.949,0.484-3.814,1.81-5.251c1.326-1.436,3.134-2.228,5.088-2.228
			h32.687h62.346h32.688c1.955,0,3.761,0.792,5.087,2.228c1.325,1.436,1.969,3.302,1.811,5.251l-13.574,167.616
			c-0.288,3.565-3.319,6.361-6.896,6.361h-100.57c-3.58,0-6.608-2.795-6.897-6.361l-2.086-25.769
			c-0.417-5.148-4.937-8.991-10.077-8.566c-5.148,0.417-8.984,4.929-8.567,10.076l2.085,25.771
			c1.07,13.208,12.288,23.555,25.54,23.555h100.57c13.251,0,24.471-10.347,25.539-23.555l13.575-167.616
			C580.979,258.466,578.537,251.38,573.699,246.136z"/>
	</g>
</g>
<g>
	<g>
		<path d="M734.376,167.936h-5.328v-40.75c0-5.165-4.187-9.352-9.352-9.352h-62.346c-5.165,0-9.352,4.186-9.352,9.352v40.75h-5.327
			c-14.131,0-25.625,11.494-25.625,25.622V276.5c0,5.166,4.188,9.352,9.353,9.352s9.352-4.186,9.352-9.352v-82.942
			c0-3.816,3.104-6.919,6.92-6.919h14.681h62.346h14.681c3.814,0,6.92,3.104,6.92,6.919V370.35c0,5.165,4.188,9.353,9.352,9.353
			c5.165,0,9.351-4.188,9.351-9.353V193.559C760,179.43,748.506,167.936,734.376,167.936z M710.345,167.936h-43.642v-31.398h43.642
			V167.936z"/>
	</g>
</g>
<g>
	<g>
		<path d="M750.648,398.405c-5.165,0-9.353,4.186-9.353,9.352v23.366c0,3.817-3.104,6.921-6.92,6.921H642.67
			c-3.813,0-6.92-3.104-6.92-6.921V313.907c0-5.166-4.187-9.353-9.352-9.353s-9.353,4.187-9.353,9.353v117.216
			c0,14.13,11.494,25.625,25.624,25.625h91.707c14.13,0,25.624-11.495,25.624-25.625v-23.366
			C760,402.591,755.813,398.405,750.648,398.405z"/>
	</g>
</g>
</svg>
