<?xml version="1.0" encoding="utf-8"?>
<!-- Generator: Adobe Illustrator 16.0.0, SVG Export Plug-In . SVG Version: 6.00 Build 0)  -->
<!DOCTYPE svg PUBLIC "-//W3C//DTD SVG 1.1//EN" "http://www.w3.org/Graphics/SVG/1.1/DTD/svg11.dtd">
<svg version="1.1" id="Capa_1" xmlns="http://www.w3.org/2000/svg" xmlns:xlink="http://www.w3.org/1999/xlink" x="0px" y="0px"
	 width="512px" height="512px" viewBox="0 0 512 512" enable-background="new 0 0 512 512" xml:space="preserve">
<polygon fill="#F0BC5E" stroke="#000000" stroke-miterlimit="10" points="436.729,196.016 42.7,265.5 60.5,70.5 355.7,12.519 "/>
<g id="Page-1">
	<g id="_x30_63---Scrap-Car" transform="translate(-1)">
		<path id="Shape" d="M82.067,357.862c1.794,0.001,3.584-0.159,5.35-0.478c15.75-2.849,26.47-17.586,24.332-33.447
			c-2.139-15.861-16.379-27.232-32.32-25.81c-15.942,1.424-27.941,15.139-27.235,31.129
			C52.899,345.246,66.062,357.85,82.067,357.862L82.067,357.862z M71.494,320.854c1.93-2.801,4.903-4.709,8.252-5.3
			c0.76-0.142,1.531-0.213,2.304-0.213c6.178-0.014,11.483,4.388,12.612,10.462c0.601,3.33-0.149,6.762-2.083,9.538
			s-4.894,4.668-8.226,5.259c-6.946,1.287-13.622-3.296-14.916-10.24C68.821,327.043,69.563,323.618,71.494,320.854L71.494,320.854z
			"/>
		<path id="Shape_1_" d="M423.647,294.307c1.794-0.004,3.584-0.164,5.351-0.479c15.745-2.848,26.462-17.58,24.323-33.438
			c-2.138-15.857-16.374-27.225-32.312-25.802c-15.937,1.424-27.933,15.134-27.227,31.119
			C394.489,281.693,407.646,294.293,423.647,294.307L423.647,294.307z M413.109,257.263c1.939-2.789,4.908-4.691,8.251-5.291
			c0.761-0.135,1.531-0.204,2.305-0.205c6.172-0.01,11.472,4.386,12.604,10.453c0.603,3.331-0.146,6.766-2.08,9.543
			c-1.934,2.779-4.895,4.672-8.229,5.263c-6.942,1.282-13.613-3.3-14.907-10.24C410.433,263.465,411.174,260.033,413.109,257.263z"
			/>
		<path id="Shape_2_" d="M138.429,319.309c2.256,12.149,12.851,20.965,25.208,20.976c1.534-0.002,3.064-0.139,4.574-0.41
			l184.849-33.527c6.679-1.202,12.604-5.011,16.471-10.587c3.867-5.574,5.358-12.459,4.146-19.135l-3.055-16.742
			c-2.587-13.871-15.885-23.052-29.772-20.557l-184.858,33.528c-13.889,2.525-23.112,15.818-20.616,29.713L138.429,319.309z
			 M249.184,307.849l-33.622,6.093l-6.101-33.426l33.613-6.092L249.184,307.849z M259.876,271.359l33.612-6.092l6.11,33.425
			l-33.622,6.093L259.876,271.359z M343.895,256.137c0.506-0.099,1.021-0.148,1.537-0.146c4.113-0.008,7.647,2.92,8.404,6.964
			l3.055,16.742c0.4,2.221-0.101,4.509-1.391,6.359c-1.291,1.852-3.265,3.112-5.486,3.505l-33.621,6.093l-6.11-33.434
			L343.895,256.137z M153.533,293.172c1.291-1.865,3.271-3.141,5.504-3.542l33.63-6.093l6.102,33.434l-33.596,6.084
			c-4.633,0.862-9.087-2.194-9.95-6.826l-3.055-16.709c-0.417-2.208,0.076-4.491,1.365-6.331V293.172z"/>
		<path id="Shape_3_" d="M221.783,131.055l-24.132-10.624c-5.193-2.3-11.194-1.838-15.975,1.229l-24.371,15.582l-5.786-32.871
			l18.278-10.24c4.109-2.312,5.567-7.517,3.255-11.627c-2.312-4.109-7.517-5.567-11.626-3.255l-18.27,10.24
			c-6.422,3.608-9.849,10.894-8.533,18.142l5.052,28.331l-18.876-9.668c-5.038-2.567-11.025-2.449-15.957,0.315L85.087,137.66
			c-2.662,1.488-4.327,4.282-4.369,7.331c-0.042,3.049,1.545,5.889,4.164,7.45s5.872,1.606,8.534,0.119l19.626-11.093l19.959,10.171
			l-30.285,16.999c-3.977,2.208-6.907,5.913-8.141,10.291l-9.703,33.912c-0.626,2.178-0.36,4.517,0.74,6.499
			c1.1,1.981,2.943,3.444,5.123,4.066c0.765,0.212,1.554,0.321,2.347,0.324c3.808-0.002,7.154-2.526,8.201-6.187l9.796-34.005
			l36.087-20.182l9.387,21.077c1.726,3.904,4.844,7.026,8.747,8.755l25.233,11.093c2.801,1.298,6.085,0.982,8.588-0.827
			c2.502-1.809,3.832-4.828,3.478-7.896c-0.354-3.067-2.338-5.704-5.188-6.894l-25.335-11.17l-10.18-22.946l28.86-18.526
			l24.141,10.632c2.79,1.23,6.023,0.878,8.483-0.922c2.46-1.801,3.773-4.777,3.443-7.808s-2.251-5.656-5.041-6.886V131.055z"/>
		<path id="Shape_4_" d="M487.4,426.667h-0.913c5.691-5.878,8.203-14.136,6.75-22.187l-7.425-40.414l6.665-1.212
			c13.753-2.716,22.731-16.029,20.096-29.799l-21.76-120.405c-2.127-12.604-13.261-21.683-26.035-21.231
			c-2.398,0.111-4.787,0.333-7.186,0.46L372.994,14.694C368.023,4.246,356.689-1.599,345.295,0.41L68.354,51.789
			c-11.335,2.207-19.851,11.633-20.898,23.134l-17.843,194.73c-3.746,1.194-7.535,2.244-11.272,3.465
			c-12.063,4.126-19.266,16.483-16.913,29.013l17.152,94.823v0.281c0,0.103,0.077,0.179,0.103,0.281l4.505,25.021
			c0.283,1.482,0.691,2.938,1.221,4.352C11.203,427.995,1.038,439.017,1,452.267V486.4C1,500.538,12.461,512,26.6,512h460.8
			c14.138,0,25.6-11.462,25.6-25.6v-34.134C513,438.128,501.538,426.667,487.4,426.667L487.4,426.667z M385.051,382.489
			l7.348,40.252c0.27,1.338,0.648,2.65,1.135,3.926H143.558L385.051,382.489z M476.452,407.561c0.799,4.597-2.242,8.983-6.827,9.848
			l-50.347,9.122c-2.236,0.437-4.554-0.039-6.438-1.321c-1.884-1.283-3.176-3.265-3.589-5.506l-7.348-40.251l67.191-12.297
			L476.452,407.561z M64.454,76.45c0.304-3.919,3.195-7.15,7.057-7.885l276.855-51.362c3.819-0.695,7.62,1.296,9.225,4.83
			l8.636,18.073l-53.76,44.928c-1.105,0.928-2.431,1.557-3.849,1.826l-37.598,7.006c-4.329,0.809-7.332,4.778-6.932,9.164
			c0.4,4.385,4.072,7.746,8.476,7.757c0.523,0,1.047-0.045,1.563-0.136l37.666-6.989c4.305-0.81,8.33-2.711,11.69-5.521
			L373.83,56.03l27.631,57.89l-52.139,9.66c-3.43,0.642-6.691,1.981-9.583,3.934l-51.312,34.62
			c-3.911,2.632-4.948,7.937-2.316,11.849c2.633,3.912,7.938,4.949,11.849,2.317l51.337-34.646c0.945-0.644,2.015-1.083,3.141-1.289
			l56.627-10.496l30.156,63.147c-132.994,8.329-264.552,32.227-391.979,71.202L64.454,76.45z M23.613,289.28
			c143.055-46.511,291.685-73.688,441.941-80.811c4.209-0.009,7.796,3.053,8.448,7.211l15.676,86.665L80.002,377.336
			c-4.286,0.845-7.241,4.789-6.848,9.14s4.008,7.701,8.375,7.765c0.518,0.001,1.035-0.045,1.544-0.137l409.643-74.957l3.063,16.938
			c0.979,4.513-1.869,8.969-6.375,9.976L49.427,426.539c-2.015,0.334-4.08-0.128-5.76-1.289c-1.932-1.355-3.243-3.426-3.644-5.751
			l-3.072-16.981l12.493-2.305c3.059-0.489,5.612-2.599,6.67-5.511c1.058-2.911,0.455-6.168-1.575-8.508
			c-2.031-2.34-5.17-3.396-8.201-2.758l-12.45,2.271L18.22,299.11C17.311,294.947,19.613,290.75,23.613,289.28L23.613,289.28z
			 M495.934,486.4c0,4.713-3.82,8.533-8.533,8.533H26.6c-4.713,0-8.533-3.82-8.533-8.533v-34.134c0-4.713,3.82-8.533,8.533-8.533
			h460.8c4.713,0,8.533,3.82,8.533,8.533V486.4z"/>
	</g>
</g>
</svg>
