<?xml version="1.0" encoding="utf-8"?>
<!-- Generator: Adobe Illustrator 16.0.0, SVG Export Plug-In . SVG Version: 6.00 Build 0)  -->
<!DOCTYPE svg PUBLIC "-//W3C//DTD SVG 1.1//EN" "http://www.w3.org/Graphics/SVG/1.1/DTD/svg11.dtd">
<svg version="1.1" id="Capa_1" xmlns="http://www.w3.org/2000/svg" xmlns:xlink="http://www.w3.org/1999/xlink" x="0px" y="0px"
	 width="512px" height="512px" viewBox="0 0 512 512" enable-background="new 0 0 512 512" xml:space="preserve">
<path fill="#F0BC5E" d="M371.021,506.134C450.341,464.757,504.5,381.762,504.5,286.106c0-136.978-111.043-248.021-248.021-248.021
	S8.458,149.128,8.458,286.106c0,93.964,52.256,175.718,129.288,217.801C215.935,500.123,293.507,504.601,371.021,506.134z"/>
<circle fill="#F0BC5E" cx="415.02" cy="100.271" r="19.521"/>
<circle fill="#F0BC5E" cx="96.503" cy="473.437" r="35.107"/>
<circle fill="#F0BC5E" cx="416.549" cy="473.437" r="35.107"/>
<circle fill="#FFFFFF" cx="253.946" cy="283.054" r="174.554"/>
<path d="M255.998,438.331c-85.777,0-155.56-69.784-155.56-155.562c0-85.776,69.784-155.561,155.56-155.561
	c85.775,0,155.561,69.784,155.561,155.561C411.559,368.547,341.775,438.331,255.998,438.331z M255.998,142.209
	c-77.505,0-140.56,63.055-140.56,140.561c0,77.507,63.055,140.562,140.56,140.562s140.561-63.055,140.561-140.562
	C396.559,205.264,333.503,142.209,255.998,142.209z"/>
<path d="M255.998,465.269c-100.63,0-182.499-81.868-182.499-182.499c0-100.629,81.869-182.499,182.499-182.499
	S438.497,182.14,438.497,282.77c0,19.715-3.127,39.106-9.294,57.639c-1.309,3.93-5.554,6.055-9.484,4.748
	c-3.931-1.309-6.056-5.555-4.748-9.484c5.657-17.002,8.526-34.801,8.526-52.9c0-92.359-75.14-167.5-167.499-167.5
	c-92.359,0-167.499,75.139-167.499,167.498c0,92.359,75.14,167.499,167.499,167.499c61.752,0,118.313-33.813,147.604-88.242
	c1.963-3.647,6.51-5.015,10.16-3.051c3.646,1.964,5.012,6.512,3.049,10.158C384.898,428.432,323.279,465.269,255.998,465.269z"/>
<path d="M255.998,310.225c-15.14,0-27.456-12.315-27.456-27.455c0-15.139,12.316-27.456,27.456-27.456
	c15.141,0,27.456,12.317,27.456,27.456C283.454,297.909,271.139,310.225,255.998,310.225L255.998,310.225z M255.998,270.314
	c-6.868,0-12.456,5.588-12.456,12.455c0,6.869,5.588,12.455,12.456,12.455s12.456-5.588,12.456-12.455
	S262.866,270.314,255.998,270.314L255.998,270.314z"/>
<path d="M255.998,228.693c-21.005,0-38.093-17.089-38.093-38.093s17.089-38.093,38.093-38.093s38.093,17.089,38.093,38.093
	S277.003,228.693,255.998,228.693z M255.998,167.506c-12.734,0-23.094,10.36-23.094,23.094s10.359,23.094,23.094,23.094
	c12.734,0,23.094-10.36,23.094-23.094S268.732,167.506,255.998,167.506L255.998,167.506z"/>
<path d="M255.998,413.034c-21.005,0-38.093-17.089-38.093-38.093c0-21.006,17.089-38.094,38.093-38.094s38.093,17.09,38.093,38.094
	C294.092,395.945,277.003,413.034,255.998,413.034z M255.998,351.847c-12.734,0-23.094,10.36-23.094,23.095
	c0,12.733,10.359,23.094,23.094,23.094c12.734,0,23.094-10.36,23.094-23.094C279.092,362.206,268.732,351.847,255.998,351.847
	L255.998,351.847z"/>
<path d="M176.115,274.795c-6.602,0-13.115-1.73-18.985-5.12c-8.812-5.088-15.115-13.302-17.749-23.131
	c-2.634-9.828-1.282-20.094,3.806-28.906s13.302-15.115,23.131-17.749c9.829-2.634,20.095-1.282,28.906,3.806
	c8.812,5.088,15.115,13.302,17.749,23.13c2.634,9.828,1.282,20.094-3.806,28.906s-13.302,15.115-23.131,17.75
	C182.755,274.359,179.423,274.795,176.115,274.795L176.115,274.795z M176.214,213.581c-2.006,0-4.024,0.264-6.015,0.797
	c-5.958,1.597-10.938,5.418-14.022,10.76c-3.084,5.342-3.903,11.566-2.307,17.524c1.597,5.958,5.418,10.938,10.76,14.023
	c5.343,3.084,11.564,3.904,17.524,2.307c5.958-1.596,10.938-5.418,14.022-10.76c3.084-5.342,3.903-11.566,2.307-17.524
	c-1.597-5.958-5.418-10.938-10.76-14.023C184.165,214.631,180.215,213.581,176.214,213.581z"/>
<path d="M335.758,366.965c-6.602,0-13.115-1.73-18.984-5.12c-8.813-5.088-15.115-13.302-17.75-23.13
	c-2.633-9.828-1.281-20.094,3.807-28.906c5.088-8.812,13.302-15.115,23.131-17.748c9.829-2.635,20.096-1.283,28.906,3.806
	c8.813,5.088,15.115,13.302,17.749,23.13c2.634,9.829,1.282,20.094-3.806,28.906c-5.088,8.812-13.303,15.114-23.131,17.749
	C342.398,366.53,339.066,366.965,335.758,366.965L335.758,366.965z M335.857,305.751c-2.006,0-4.024,0.264-6.016,0.797
	c-5.958,1.596-10.938,5.418-14.021,10.76c-3.084,5.343-3.903,11.566-2.307,17.524c1.596,5.958,5.418,10.938,10.76,14.023
	c5.343,3.084,11.563,3.903,17.523,2.307c5.958-1.597,10.938-5.418,14.021-10.76c3.084-5.343,3.904-11.566,2.308-17.524
	s-5.418-10.938-10.76-14.022C343.809,306.801,339.859,305.751,335.857,305.751z"/>
<path d="M176.238,366.965c-3.309,0-6.639-0.435-9.921-1.313c-9.829-2.635-18.043-8.938-23.131-17.749
	c-5.088-8.813-6.439-19.078-3.806-28.906c2.634-9.828,8.936-18.043,17.749-23.13c8.81-5.087,19.075-6.44,28.906-3.806
	c9.829,2.633,18.043,8.937,23.131,17.748c5.088,8.813,6.439,19.078,3.806,28.906c-2.634,9.828-8.936,18.043-17.749,23.13
	C189.354,365.234,182.838,366.965,176.238,366.965L176.238,366.965z M176.138,305.751c-4.001,0-7.95,1.049-11.509,3.104
	c-5.342,3.084-9.163,8.063-10.76,14.022c-1.597,5.958-0.777,12.182,2.307,17.524c3.084,5.342,8.064,9.163,14.022,10.76
	s12.183,0.777,17.524-2.307c5.342-3.084,9.163-8.064,10.76-14.023c1.597-5.958,0.777-12.182-2.307-17.524
	c-3.084-5.342-8.064-9.164-14.022-10.76C180.165,306.015,178.144,305.751,176.138,305.751z"/>
<path d="M335.881,274.795c-3.309,0-6.639-0.436-9.921-1.314c-9.829-2.633-18.043-8.937-23.131-17.749s-6.438-19.078-3.806-28.906
	c2.634-9.828,8.936-18.043,17.748-23.13c8.812-5.088,19.076-6.439,28.906-3.806c9.829,2.634,18.043,8.937,23.131,17.749
	s6.439,19.078,3.807,28.906c-2.635,9.829-8.936,18.043-17.749,23.131C348.997,273.063,342.482,274.795,335.881,274.795
	L335.881,274.795z M335.783,213.581c-4.002,0-7.951,1.049-11.51,3.104c-5.342,3.084-9.164,8.064-10.76,14.023
	c-1.598,5.958-0.777,12.182,2.307,17.524c3.084,5.342,8.063,9.163,14.021,10.76c5.959,1.598,12.184,0.777,17.524-2.307
	c5.342-3.084,9.163-8.064,10.76-14.023c1.597-5.958,0.776-12.182-2.308-17.524c-3.084-5.342-8.063-9.163-14.021-10.76
	C339.809,213.845,337.788,213.581,335.783,213.581L335.783,213.581z"/>
<path d="M447.885,71.613c-1.919,0-3.839-0.732-5.304-2.197c-2.929-2.929-2.929-7.677,0-10.606l56.611-56.611
	c2.93-2.929,7.678-2.929,10.606,0c2.929,2.929,2.929,7.677,0,10.606l-56.61,56.611C451.724,70.881,449.804,71.613,447.885,71.613z"
	/>
<path d="M414.564,54.26c-0.939,0-1.896-0.178-2.821-0.554c-3.837-1.56-5.683-5.936-4.122-9.773l15.962-39.257
	c1.56-3.837,5.934-5.683,9.772-4.123c3.837,1.56,5.683,5.937,4.121,9.773l-15.962,39.257
	C420.332,52.495,417.525,54.26,414.564,54.26z"/>
<path d="M469.104,99.486c-3.129,0-6.047-1.972-7.104-5.099c-1.327-3.924,0.777-8.18,4.701-9.507l35.391-11.971
	c3.928-1.327,8.182,0.778,9.508,4.701c1.327,3.924-0.776,8.18-4.7,9.507l-35.392,11.971
	C470.711,99.358,469.901,99.486,469.104,99.486L469.104,99.486z"/>
<path d="M429.117,511.998H82.879c-9.477,0-18.394-3.691-25.108-10.392c-6.717-6.73-10.411-15.651-10.411-25.129
	c0-11.158,5.104-21.333,13.557-27.937C21.564,402.28,0,343.777,0,282.77c0-42.783,10.767-85.126,31.136-122.452
	c1.984-3.636,6.541-4.975,10.176-2.991c3.636,1.984,4.975,6.54,2.99,10.176C25.133,202.631,15,242.49,15,282.77
	c0,60.347,22.415,118.092,63.115,162.598c1.664,1.821,2.327,4.343,1.772,6.747c-0.555,2.403-2.256,4.381-4.55,5.288
	c-7.884,3.116-12.977,10.604-12.977,19.074c0,5.477,2.138,10.634,6.019,14.522c3.871,3.864,9.024,5.998,14.501,5.998h346.238
	c11.313,0,20.519-9.205,20.519-20.521c0-4.187-1.257-8.215-3.636-11.649c-2.326-3.36-5.558-5.927-9.344-7.426
	c-2.294-0.908-3.994-2.886-4.549-5.289c-0.555-2.404,0.108-4.927,1.772-6.746c40.7-44.506,63.115-102.251,63.115-162.597
	c0-63.972-24.808-124.228-69.856-169.668c-2.846-2.871-2.904-7.48-0.134-10.422c1.722-1.828,2.67-4.207,2.67-6.698
	c0-5.404-4.392-9.8-9.789-9.8c-2.947,0-5.713,1.313-7.589,3.603c-2.559,3.125-7.133,3.663-10.349,1.212
	c-42.245-32.203-92.715-49.224-145.952-49.224c-39.045,0-77.817,9.551-112.126,27.619c-33.218,17.495-62.33,42.934-84.187,73.566
	c-2.406,3.371-7.087,4.155-10.462,1.749c-3.371-2.406-4.154-7.09-1.749-10.461c23.211-32.529,54.128-59.545,89.408-78.126
	c36.455-19.199,77.645-29.347,119.115-29.347c54.48,0,106.236,16.785,150.083,48.603c4.036-2.711,8.815-4.194,13.806-4.194
	c13.669,0,24.79,11.125,24.79,24.8c0,3.864-0.894,7.616-2.58,11.005c45.126,47.719,69.9,109.896,69.9,175.784
	c0,61.012-21.573,119.525-60.93,165.789c2.773,2.183,5.224,4.78,7.267,7.731c4.124,5.955,6.304,12.937,6.304,20.188
	C464.636,496.064,448.703,511.998,429.117,511.998L429.117,511.998z"/>
</svg>
