<?xml version="1.0" encoding="utf-8"?>
<!-- Generator: Adobe Illustrator 16.0.0, SVG Export Plug-In . SVG Version: 6.00 Build 0)  -->
<!DOCTYPE svg PUBLIC "-//W3C//DTD SVG 1.1//EN" "http://www.w3.org/Graphics/SVG/1.1/DTD/svg11.dtd">
<svg version="1.1" id="Capa_1" xmlns="http://www.w3.org/2000/svg" xmlns:xlink="http://www.w3.org/1999/xlink" x="0px" y="0px"
	 width="560px" height="560px" viewBox="206.5 0 560 560" enable-background="new 206.5 0 560 560" xml:space="preserve">
<g>
	<g>
		<circle cx="452.001" cy="345.333" r="9.333"/>
	</g>
</g>
<g>
	<g>
		<path d="M713.335,0h-65.334c-36.351,0.066-67.382,26.277-73.527,62.104l-16.855-5.6c-4.891-1.631-10.175,1.01-11.807,5.899
			l-74.668,224c-1.623,4.891,1.021,10.171,5.908,11.799l1.447,0.484h-71.662l1.446-0.484c4.887-1.628,7.532-6.908,5.908-11.799
			l-74.667-224c-1.632-4.889-6.917-7.53-11.807-5.899l-84,28c-4.887,1.627-7.532,6.908-5.908,11.797l74.667,224
			c1.632,4.889,6.917,7.529,11.807,5.898l10.043-3.342L398.176,560h88.984l63.849-237.16l10.043,3.342
			c4.891,1.632,10.176-1.011,11.808-5.898l74.667-224c1.624-4.89-1.021-10.17-5.908-11.797L629.69,80.51
			c1.729-13.965,13.572-24.466,27.646-24.509h56c5.154,0,9.333-4.179,9.333-9.333V9.333C722.668,4.179,718.489,0,713.335,0z
			 M327.233,305.508L258.475,99.241l66.267-22.101L393.5,283.406L327.233,305.508z M412.493,541.333l-60.424-224.41l33.357-11.116
			l3.846,11.526h62.729c15.418-0.046,27.953,12.415,28,27.832c0.031,10.595-5.938,20.294-15.409,25.042l-0.42,0.205
			c-3.781,1.889-7.944,2.889-12.171,2.921h-48.356l28,168H412.493L412.493,541.333z M425.69,392h26.311
			c2.604,0.002,5.202-0.227,7.766-0.682l-17.099,102.572L425.69,392z M472.843,541.333H453.69l26.507-159.067
			c20.349-15.196,24.523-44.013,9.329-64.359c-0.146-0.191-0.289-0.383-0.436-0.572h6.973l3.846-11.526l33.356,11.116
			L472.843,541.333z M558.103,305.526l-66.267-22.102l68.759-206.267l66.268,22.101L558.103,305.526z M704.001,37.333h-46.666
			c-22.096,0.03-41.15,15.529-45.678,37.156l-19.236-6.356c3.336-28.18,27.203-49.422,55.58-49.467h56V37.333L704.001,37.333z"/>
	</g>
</g>
<polygon fill="#F0BC5E" stroke="#000000" stroke-miterlimit="10" points="393.5,283.406 327.233,305.508 258.475,99.241 
	324.741,77.14 "/>
<polygon fill="#F0BC5E" stroke="#000000" stroke-miterlimit="10" points="491.475,283.406 557.741,305.508 626.5,99.241 
	560.233,77.14 "/>
</svg>
