<?xml version="1.0" encoding="utf-8"?>
<!-- Generator: Adobe Illustrator 16.0.0, SVG Export Plug-In . SVG Version: 6.00 Build 0)  -->
<!DOCTYPE svg PUBLIC "-//W3C//DTD SVG 1.1//EN" "http://www.w3.org/Graphics/SVG/1.1/DTD/svg11.dtd">
<svg version="1.1" id="Capa_1" xmlns="http://www.w3.org/2000/svg" xmlns:xlink="http://www.w3.org/1999/xlink" x="0px" y="0px"
	 width="496px" height="496px" viewBox="0 0 496 496" enable-background="new 0 0 496 496" xml:space="preserve">
<path fill="#F0BC5E" stroke="#000000" stroke-width="6" stroke-miterlimit="10" d="M271.336,32
	C229.063,32,188.559,52.105,163,85.785l-70.871,93.383l-0.297,5.457C93.168,184.258,94.551,184,96,184h80v32
	c0,17.672-14.328,32-32,32h-16v8h336V77.5V32h-58.5H271.336z"/>
<path d="M472,0H270.945c-51.906,0-101.746,24.594-133.32,65.785L34.672,200.055C12.313,229.223,0,265.52,0,302.281V424
	c0,13.23,10.77,24,24,24h448c13.23,0,24-10.77,24-24V24C496,10.77,485.23,0,472,0z M47.367,209.793L150.32,75.52
	C178.887,38.246,223.984,16,270.945,16H472c4.406,0,8,3.594,8,8v328H16v-49.719C16,269.023,27.145,236.176,47.367,209.793z M472,432
	H24c-4.406,0-8-3.594-8-8v-24h32v-16H16v-16h464v16H56v16h424v24C480,428.406,476.406,432,472,432z"/>
<path d="M384,320h64c8.824,0,16-7.176,16-16v-16c0-8.824-7.176-16-16-16h-64c-8.824,0-16,7.176-16,16v16
	C368,312.824,375.176,320,384,320z M448,304h-16v-16h16V304z M384,288h32v16h-32V288z"/>
<path d="M96,256h48c22.055,0,40-17.945,40-40v-40H96c-13.23,0-24,10.77-24,24v32C72,245.23,82.77,256,96,256z M88,200
	c0-4.406,3.594-8,8-8h72v24c0,13.23-10.77,24-24,24H96c-4.406,0-8-3.594-8-8V200z"/>
<path fill="#F0BC5E" d="M134.188,96.561"/>
<polygon fill="#FFFFFF" points="395.5,32 464,72.5 464,32 "/>
<path fill="#F0BC5E" stroke="#000000" stroke-width="5" stroke-miterlimit="10" d="M395.5,32l63,40.5h-63
	C395.5,72.5,431.368,64,395.5,32z"/>
</svg>
