<svg height="496pt" viewBox="-15 0 495 496" width="496pt" xmlns="http://www.w3.org/2000/svg"><g fill="#f0bc5e"><path d="m363.460938 375.734375c-.015626.097656-.058594.175781-.074219.265625h53.113281v-45.113281c0-1.917969-.175781-3.832031-.519531-5.726563l-3.839844-21.160156h-35.640625zm0 0"/><path d="m101.539062 375.734375c.015626.097656.058594.175781.074219.265625h-53.113281v-45.113281c0-1.917969.175781-3.832031.519531-5.726563l3.839844-21.160156h35.640625zm0 0"/><path d="m339.699219 128h-214.398438c-11.472656 0-20.800781-9.328125-20.800781-20.800781 0-3.40625.839844-6.800781 2.457031-9.800781l17.832031-33.390626 3.839844-.671874c14.855469-2.59375 27.160156-12.464844 32.886719-26.390626l2.046875-4.945312h137.875l2.046875 4.945312c5.75 13.933594 18.039063 23.808594 32.878906 26.398438l3.839844.671875 17.832031 33.390625c1.625 3 2.464844 6.394531 2.464844 9.792969 0 11.472656-9.328125 20.800781-20.800781 20.800781zm0 0"/></g><path d="m360.5 408h16v16h-16zm0 0"/><path d="m88.5 408h16v16h-16zm0 0"/><path d="m440.5 208h-37.6875l-5.664062-31.160156c-1.769532-9.703125-6.960938-18.015625-14.160157-23.863282 3.160157-2.359374 5.960938-5.234374 8.214844-8.617187 6.457031-9.664063 7.695313-21.871094 3.328125-32.648437l-23.375-57.75c-2.753906-12.777344-14.046875-21.960938-27.183594-21.960938-5.433594 0-10.144531-3.671875-11.464844-8.953125l-.496093-1.984375c-3.097657-12.398438-14.191407-21.0625-26.984375-21.0625h-145.054688c-12.792968 0-23.878906 8.664062-26.976562 21.054688l-.496094 2c-1.328125 5.273437-6.039062 8.945312-11.472656 8.945312-13.144532 0-24.4375 9.183594-27.183594 21.960938l-23.375 57.75c-4.367188 10.777343-3.128906 22.984374 3.328125 32.648437 2.253906 3.382813 5.054687 6.257813 8.214844 8.625-7.199219 5.847656-12.390625 14.167969-14.160157 23.863281l-5.664062 31.152344h-37.6875c-13.230469 0-24 10.769531-24 24v32c0 13.230469 10.769531 24 24 24h23.144531l-6.496093 35.726562c-.433594 2.351563-.648438 4.761719-.648438 7.160157v77.113281c0 22.28125 13.113281 41.511719 32 50.519531v21.480469c0 8.824219 7.175781 16 16 16h48c8.824219 0 16-7.175781 16-16v-16h160v16c0 8.824219 7.175781 16 16 16h48c8.824219 0 16-7.175781 16-16v-21.480469c18.886719-9.007812 32-28.238281 32-50.519531v-77.113281c0-2.398438-.214844-4.808594-.648438-7.160157l-6.496093-35.726562h23.144531c13.230469 0 24-10.769531 24-24v-32c0-13.230469-10.769531-24-24-24zm-37.945312 88h-19.054688l-12.296875-92.222656c-2.109375-15.832032-15.742187-27.777344-31.71875-27.777344h-17.007813l3.550782-16h31.769531c11.597656 0 21.527344 8.289062 23.613281 19.703125zm-305.957032 7.808594 13.0625-97.929688c1.046875-7.910156 7.871094-13.878906 15.855469-13.878906h66.984375v16h-16v48h112v-48h-16v-16h66.984375c7.984375 0 14.808594 5.96875 15.855469 13.878906l13.0625 97.929688-2.941406 16.191406h-5.839844c.519531-1.847656.878906-3.761719.878906-5.769531 0-2.320313-.367188-4.613281-1.121094-6.886719l-4.160156-12.464844c-2.957031-8.894531-11.253906-14.878906-20.640625-14.878906h-28.15625c-9.386719 0-17.683594 5.984375-20.648437 14.878906l-4.167969 12.503906c-.738281 2.234376-1.105469 4.539063-1.105469 6.847657 0 2.007812.359375 3.921875.871094 5.769531h-9.75c.519531-1.847656.878906-3.761719.878906-5.769531 0-2.320313-.367188-4.613281-1.121094-6.886719l-4.160156-12.464844c-2.957031-8.894531-11.253906-14.878906-20.640625-14.878906h-28.15625c-9.386719 0-17.683594 5.984375-20.648437 14.878906l-4.167969 12.503906c-.738281 2.234376-1.105469 4.539063-1.105469 6.847657 0 2.007812.359375 3.921875.871094 5.769531h-9.75c.519531-1.847656.878906-3.761719.878906-5.769531 0-2.320313-.367188-4.613281-1.121094-6.886719l-4.160156-12.464844c-2.957031-8.894531-11.253906-14.878906-20.640625-14.878906h-28.15625c-9.386719 0-17.683594 5.984375-20.648437 14.878906l-4.167969 12.503906c-.738281 2.234376-1.105469 4.539063-1.105469 6.847657 0 2.007812.359375 3.921875.871094 5.769531h-5.839844zm62.316406-127.808594-3.550781-16h154.273438l-3.550781 16zm65.585938 16v16h-16v-16zm48 32v16h-80v-16zm-32-16v-16h16v16zm56 106.230469c0-.613281.105469-1.246094.289062-1.824219l4.160157-12.460938c.78125-2.359374 2.992187-3.945312 5.472656-3.945312h28.15625c2.488281 0 4.691406 1.585938 5.480469 3.945312l4.144531 12.421876c.191406.625.296875 1.25.296875 1.863281 0 3.183593-2.585938 5.769531-5.769531 5.769531h-36.46875c-3.175781 0-5.761719-2.585938-5.761719-5.769531zm-88 0c0-.613281.105469-1.246094.289062-1.824219l4.160157-12.460938c.78125-2.359374 2.992187-3.945312 5.472656-3.945312h28.15625c2.488281 0 4.691406 1.585938 5.480469 3.945312l4.144531 12.421876c.191406.625.296875 1.25.296875 1.863281 0 3.183593-2.585938 5.769531-5.769531 5.769531h-36.46875c-3.175781 0-5.761719-2.585938-5.761719-5.769531zm-88 0c0-.613281.105469-1.246094.289062-1.824219l4.160157-12.460938c.78125-2.359374 2.992187-3.945312 5.472656-3.945312h28.15625c2.488281 0 4.691406 1.585938 5.480469 3.945312l4.144531 12.421876c.191406.625.296875 1.25.296875 1.863281 0 3.183593-2.585938 5.769531-5.769531 5.769531h-36.46875c-3.175781 0-5.761719-2.585938-5.761719-5.769531zm242.054688 21.769531-6.957032 38.296875c-1.035156 5.625-5.921875 9.703125-11.625 9.703125-12.792968 0-23.878906 8.664062-26.976562 21.054688l-.496094 2c-1.328125 5.273437-6.039062 8.945312-11.472656 8.945312h-145.054688c-5.433594 0-10.144531-3.671875-11.464844-8.953125l-.496093-1.984375c-3.097657-12.398438-14.191407-21.0625-26.984375-21.0625-5.710938 0-10.589844-4.078125-11.625-9.695312l-6.957032-38.304688zm17.144531-218.28125c2.375 5.867188 1.695312 12.503906-1.816407 17.777344-3.542968 5.328125-9.488281 8.503906-15.886718 8.503906h-32.40625l20.863281-93.886719c2.582031 1.726563 4.542969 4.335938 5.144531 7.582031zm-231.695313-90.773438.496094-2c1.328125-5.273437 6.039062-8.945312 11.472656-8.945312h145.0625c5.433594 0 10.144532 3.671875 11.464844 8.953125l.496094 1.984375c2.328125 9.328125 9.175781 16.527344 17.871094 19.535156l-21.679688 97.527344h-161.375l-21.679688-97.527344c8.695313-3 15.550782-10.207031 17.871094-19.527344zm-45 117.054688c-6.40625 0-12.351562-3.175781-15.894531-8.511719-3.503906-5.265625-4.183594-11.902343-1.816406-17.777343l23.65625-58.445313.453125-1.5625c.59375-3.246094 2.5625-5.855469 5.144531-7.582031l20.863281 93.878906zm-19.414062 35.710938c2.078125-11.421876 12.015625-19.710938 23.613281-19.710938h31.769531l3.550782 16h-17.007813c-15.976563 0-29.609375 11.945312-31.71875 27.769531l-12.296875 92.230469h-19.054688zm-59.089844 92.289062c-4.414062 0-8-3.59375-8-8v-32c0-4.40625 3.585938-8 8-8h34.777344l-8.730469 48zm112 208h-48v-16.640625c2.625.375 5.28125.640625 8 .640625h40zm240 0h-48v-16h40c2.71875 0 5.375-.265625 8-.640625zm32-72c0 22.054688-17.945312 40-40 40h-272c-22.054688 0-40-17.945312-40-40v-77.113281c0-1.4375.128906-2.878907.382812-4.292969l2.648438-14.59375h22.289062l11.847657 65.167969c2.417969 13.230469 13.929687 22.832031 27.359375 22.832031 5.433594 0 10.144531 3.671875 11.464844 8.953125l.496093 1.984375c3.097657 12.398438 14.191407 21.0625 26.984375 21.0625h145.0625c12.792969 0 23.878906-8.664062 26.976563-21.054688l.496093-2c1.320313-5.273437 6.03125-8.945312 11.464844-8.945312 13.4375 0 24.941406-9.601562 27.359375-22.832031l11.839844-65.167969h22.289063l2.65625 14.59375c.253906 1.414062.382812 2.855469.382812 4.292969zm40-144c0 4.40625-3.585938 8-8 8h-26.054688l-8.730468-48h34.785156c4.414062 0 8 3.59375 8 8zm0 0"/></svg>