<?xml version="1.0" encoding="utf-8"?>
<!-- Generator: Adobe Illustrator 16.0.0, SVG Export Plug-In . SVG Version: 6.00 Build 0)  -->
<!DOCTYPE svg PUBLIC "-//W3C//DTD SVG 1.1//EN" "http://www.w3.org/Graphics/SVG/1.1/DTD/svg11.dtd">
<svg version="1.1" id="Capa_1" xmlns="http://www.w3.org/2000/svg" xmlns:xlink="http://www.w3.org/1999/xlink" x="0px" y="0px"
	 width="512px" height="512px" viewBox="0 0 512 512" enable-background="new 0 0 512 512" xml:space="preserve">
<path d="M111.049,307.243c-14.137,0-25.595,11.458-25.595,25.591c0,14.137,11.458,25.595,25.595,25.595
	c14.133,0,25.591-11.458,25.591-25.595C136.64,318.701,125.182,307.243,111.049,307.243z M111.049,341.367
	c-4.714,0-8.533-3.819-8.533-8.533c0-4.709,3.819-8.528,8.533-8.528c4.709,0,8.529,3.819,8.529,8.528
	C119.578,337.548,115.758,341.367,111.049,341.367z"/>
<rect x="332.863" y="252.378" fill="#F0BC5E" stroke="#000000" stroke-miterlimit="10" width="102.367" height="43.122"/>
<path d="M12.461,268.074c2.562,2.016,4.089,3.226,4.624,4.787c0.941,2.68-0.418,5.476-3.812,10.74
	c-6.752,10.028-4.456,23.587,5.221,30.831c5.76,3.987,12.192,6.9,18.991,8.6c1.347,0.41,2.675,0.855,3.983,1.262l10.126,3.413
	c-0.156,1.706-0.266,3.413-0.266,5.119c-0.023,24.033,14.375,45.734,36.529,55.052c22.154,9.318,47.737,4.429,64.897-12.395h244.56
	c6.018,10.552,17.233,17.062,29.383,17.062c12.146,0,23.361-6.51,29.379-17.062h38.868c5.573-0.004,10.79-2.727,13.98-7.295
	c3.191-4.569,3.948-10.407,2.031-15.637c-3.913-10.915-8.389-21.619-13.41-32.069c-3.593-7.182-24.307-14.375-53.744-21.167v-34.729
	c-0.082-14.102-11.493-25.513-25.595-25.595c-6.322,0.027-12.402,2.409-17.062,6.682c-4.651-4.312-10.763-6.701-17.104-6.682
	c-6.323,0.027-12.403,2.409-17.063,6.682c-4.639-4.304-10.735-6.689-17.062-6.682c-14.138,0-25.595,11.458-25.595,25.595v14.109
	c-13.059-1.823-26.071-3.558-38.713-5.171c-12.813-12.941-27.184-24.239-42.785-33.635c-17.667-6.717-36.275-10.642-55.153-11.629
	c-23.244-2.375-46.703-1.574-69.731,2.382c-8.712,1.933-17.269,4.526-25.595,7.744c-25.005,9.001-37.674,12.379-52.143-8.58
	c-3.245-4.819-8.658-7.732-14.469-7.791h-8.298c-4.562-0.176-8.986,1.589-12.173,4.854c-3.292,3.21-5.135,7.615-5.12,12.208v1.375
	c-0.652,6.928,0.914,13.887,4.471,19.87C6.795,263.313,9.447,265.93,12.461,268.074z M68.392,332.834
	c0-23.556,19.096-42.652,42.657-42.652c23.556,0,42.652,19.097,42.652,42.652c0,23.561-19.096,42.657-42.652,42.657
	C87.5,375.464,68.419,356.383,68.392,332.834z M426.699,375.491c-9.424,0-17.066-7.639-17.066-17.063
	c0-9.423,7.643-17.062,17.066-17.062c9.419,0,17.062,7.639,17.062,17.062C443.761,367.853,436.118,375.491,426.699,375.491z
	 M418.166,256.054c2.297,0,4.495,0.941,6.073,2.612c1.593,1.555,2.479,3.695,2.46,5.921v31.042
	c-5.495-1.124-11.196-2.233-17.066-3.334v-27.708C409.633,259.873,413.453,256.054,418.166,256.054z M384.043,256.054
	c2.296,0,4.494,0.941,6.072,2.612c1.594,1.555,2.479,3.695,2.456,5.921v24.646c-5.597-0.973-11.282-1.926-17.062-2.858v-21.787
	C375.51,259.873,379.329,256.054,384.043,256.054z M341.386,264.587c0-4.714,3.819-8.533,8.533-8.533
	c2.296,0,4.495,0.941,6.072,2.612c1.593,1.555,2.479,3.695,2.456,5.921v19.093c-5.65-0.859-11.34-1.711-17.062-2.559V264.587z
	 M259.865,273.115h-52.1c-6.327-7.541-9.974-16.968-10.376-26.801c12.958,1.187,25.685,4.179,37.81,8.888
	C244.06,260.24,252.332,266.25,259.865,273.115z M17.292,239.078l8.845,0.417c22.564,32.691,48.807,23.264,71.95,14.938
	c7.541-2.921,15.281-5.288,23.162-7.08c19.428-3.401,39.208-4.311,58.867-2.702c2.406,24.228,10.767,35.931,15.882,40.809
	c3.156,3.038,7.369,4.729,11.747,4.722h74.777c0.324,0.059,0.59,0.23,0.922,0.27c87.188,11.134,187.399,28.863,199.225,38.392
	c3.565,7.244,7.611,16.961,12.313,29.602h-34.158c0-18.847-15.281-34.123-34.124-34.123c-18.847,0-34.128,15.276-34.128,34.123
	h-227.65c9.361-19.689,7.236-42.922-5.549-60.585c-12.782-17.664-34.182-26.95-55.813-24.213
	c-21.631,2.734-40.048,17.051-48.03,37.342l-8.67-2.894c-1.421-0.469-2.874-0.922-4.331-1.383
	c-4.846-1.151-9.462-3.116-13.653-5.807c-1.257-0.887-2.105-2.245-2.347-3.765c-0.242-1.523,0.144-3.077,1.07-4.308
	c5.897-7.123,7.979-16.659,5.588-25.595c-2.062-5.17-5.651-9.587-10.29-12.661c-1.578-1.078-3-2.378-4.214-3.854
	c-1.39-3.202-1.898-6.713-1.476-10.177L17.292,239.078z"/>
<path d="M196.358,341.367h8.533c4.71,0,8.529-3.819,8.529-8.533c0-4.709-3.819-8.528-8.529-8.528h-8.533
	c-4.709,0-8.529,3.819-8.529,8.528C187.829,337.548,191.648,341.367,196.358,341.367z"/>
<path d="M230.482,341.367H290.2c4.71,0,8.532-3.819,8.532-8.533c0-4.709-3.822-8.528-8.532-8.528h-59.718
	c-4.71,0-8.529,3.819-8.529,8.528C221.953,337.548,225.772,341.367,230.482,341.367z"/>
<path d="M494.946,418.147c4.71,0,8.529-3.823,8.529-8.533c0-4.709-3.819-8.532-8.529-8.532H59.863c-4.713,0-8.533,3.823-8.533,8.532
	c0,4.71,3.819,8.533,8.533,8.533H494.946z"/>
<path d="M8.673,418.147h17.062c4.713,0,8.533-3.823,8.533-8.533c0-4.709-3.819-8.532-8.533-8.532H8.673
	c-4.709,0-8.529,3.823-8.529,8.532C0.145,414.324,3.964,418.147,8.673,418.147z"/>
<path d="M279.324,26.041c-4.526,1.296-7.146,6.018-5.854,10.544l51.186,179.151c1.047,3.663,4.389,6.194,8.201,6.194
	c0.792-0.004,1.581-0.113,2.343-0.324c4.526-1.296,7.146-6.014,5.854-10.544L289.868,31.91c-0.62-2.175-2.077-4.018-4.058-5.12
	C283.835,25.689,281.5,25.42,279.324,26.041z"/>
<path d="M432.881,221.606c0.766,0.211,1.555,0.32,2.348,0.324c3.808,0,7.154-2.531,8.196-6.194l51.189-179.151
	c0.969-2.968,0.234-6.233-1.909-8.502c-2.147-2.272-5.362-3.19-8.381-2.39c-3.022,0.796-5.365,3.183-6.107,6.217l-51.186,179.152
	C425.734,215.592,428.354,220.31,432.881,221.606z"/>
<path d="M375.51,213.401c0,4.709,3.819,8.529,8.533,8.529c4.709,0,8.528-3.819,8.528-8.529V59.84c0-4.709-3.819-8.529-8.528-8.529
	c-4.714,0-8.533,3.819-8.533,8.529V213.401z"/>
<path d="M358.447,221.93c2.477,0.004,4.831-1.07,6.455-2.937c1.621-1.871,2.352-4.354,2-6.803L349.841,92.753
	c-0.668-4.663-4.991-7.904-9.657-7.232c-4.664,0.668-7.904,4.991-7.232,9.654l17.062,119.437
	C350.613,218.81,354.207,221.926,358.447,221.93z"/>
<path d="M427.91,85.521c-2.242-0.324-4.519,0.258-6.327,1.617c-1.812,1.355-3.011,3.374-3.331,5.616L401.19,212.19
	c-0.672,4.663,2.569,8.986,7.232,9.654c4.667,0.672,8.989-2.57,9.657-7.232l17.063-119.437c0.323-2.238-0.258-4.515-1.617-6.327
	C432.17,87.04,430.147,85.841,427.91,85.521z"/>
<path d="M384.043,34.25c4.709,0,8.528-3.823,8.528-8.533V8.655c0-4.713-3.819-8.533-8.528-8.533c-4.714,0-8.533,3.819-8.533,8.533
	v17.062C375.51,30.426,379.329,34.25,384.043,34.25z"/>
</svg>
