<?xml version="1.0" encoding="utf-8"?>
<!-- Generator: Adobe Illustrator 16.0.0, SVG Export Plug-In . SVG Version: 6.00 Build 0)  -->
<!DOCTYPE svg PUBLIC "-//W3C//DTD SVG 1.1//EN" "http://www.w3.org/Graphics/SVG/1.1/DTD/svg11.dtd">
<svg version="1.1" id="Capa_1" xmlns="http://www.w3.org/2000/svg" xmlns:xlink="http://www.w3.org/1999/xlink" x="0px" y="0px"
	 width="560px" height="560px" viewBox="200 0 560 560" enable-background="new 200 0 560 560" xml:space="preserve">
<rect x="265.333" y="214.666" fill="#F0BC5E" stroke="#000000" stroke-miterlimit="10" width="168.009" height="74.667"/>
<rect x="265.333" y="429.333" fill="#F0BC5E" stroke="#000000" stroke-miterlimit="10" width="56" height="18.667"/>
<rect x="377.333" y="458.333" fill="#F0BC5E" stroke="#000000" stroke-miterlimit="10" width="56" height="18.667"/>
<rect x="489.333" y="410.666" fill="#F0BC5E" stroke="#000000" stroke-miterlimit="10" width="56" height="18.667"/>
<rect x="601.333" y="449" fill="#F0BC5E" stroke="#000000" stroke-miterlimit="10" width="56" height="18.667"/>
<g>
	<g>
		<g>
			<path d="M760,9.333c-0.001-2.95-1.396-5.725-3.763-7.486c-2.365-1.761-5.426-2.3-8.251-1.456l-186.667,56
				c-3.947,1.186-6.651,4.819-6.653,8.941v84h-315C217.769,149.358,200.024,167.103,200,189v331.333
				c0.024,21.896,17.769,39.642,39.667,39.667H683c21.896-0.024,39.642-17.77,39.667-39.667V260.39
				c21.711-4.462,37.303-23.558,37.333-45.723c-0.067-2.084-0.278-4.162-0.629-6.217c0.39-0.994,0.603-2.049,0.629-3.116V9.333z
				 M704,336h-74.667c-5.155,0-9.333,4.178-9.333,9.333s4.179,9.333,9.333,9.333H704v165.667c-0.015,11.592-9.408,20.985-21,21
				H239.667c-11.591-0.015-20.986-9.408-21-21V354.667H592c5.155,0,9.333-4.178,9.333-9.333c0-5.154-4.178-9.333-9.333-9.333
				H218.667V189c0.014-11.592,9.409-20.986,21-21h315v56.238c-8.031-6.173-17.869-9.536-28-9.572
				c-25.773,0-46.667,20.894-46.667,46.667C480,287.105,500.894,308,526.667,308s46.667-20.895,46.667-46.667V168H683
				c4.276,0.015,8.446,1.344,11.942,3.806c-18.753,8.035-30.108,27.325-28.033,47.622c2.074,20.296,17.1,36.889,37.091,40.962V336z
				 M554.667,261.333c0,15.463-12.535,28-28,28s-28-12.536-28-28c0-15.465,12.535-28,28-28
				C542.124,233.351,554.649,245.876,554.667,261.333z M713.333,242.667c-15.464,0-28-12.537-28-28s12.536-28,28-28
				c15.463,0,28,12.536,28,28C741.316,230.124,728.79,242.649,713.333,242.667z M741.333,177.571
				c-7.094-5.362-15.586-8.562-24.454-9.214c-7.216-11.802-20.045-19.007-33.879-19.024H573.333v-39.722l168-50.4V177.571z
				 M741.333,39.722l-168,50.4V72.278l168-50.399V39.722z"/>
			<path d="M321.333,410.667h-18.666v-28c0-5.155-4.179-9.333-9.333-9.333s-9.333,4.178-9.333,9.333v28h-18.668
				c-10.304,0.012-18.655,8.363-18.667,18.667V448c0.012,10.305,8.362,18.655,18.667,18.667H284v46.667
				c0,5.155,4.178,9.333,9.333,9.333s9.333-4.178,9.333-9.333v-46.667h18.667c10.304-0.012,18.655-8.361,18.667-18.667v-18.667
				C339.988,419.028,331.638,410.678,321.333,410.667z M265.333,448v-18.667h56l0.01,18.667H265.333z"/>
			<path d="M433.333,438.667h-18.667v-56c0-5.155-4.178-9.333-9.333-9.333S396,377.512,396,382.667v56h-18.667
				c-10.304,0.012-18.655,8.361-18.667,18.667V476c0.012,10.305,8.363,18.655,18.667,18.667H396v18.667
				c0,5.155,4.178,9.333,9.333,9.333s9.333-4.178,9.333-9.333v-18.667h18.667c10.305-0.012,18.655-8.361,18.667-18.667v-18.667
				C451.988,447.028,443.639,438.678,433.333,438.667z M377.333,476v-18.667h56L433.342,476H377.333z"/>
			<path d="M545.333,392h-18.667v-9.333c0-5.155-4.179-9.333-9.333-9.333c-5.155,0-9.333,4.178-9.333,9.333V392h-18.667
				c-10.305,0.012-18.655,8.361-18.667,18.667v18.667c0.012,10.305,8.362,18.655,18.667,18.667H508v65.333
				c0,5.155,4.178,9.333,9.333,9.333c5.154,0,9.333-4.178,9.333-9.333V448h18.667c10.304-0.012,18.655-8.363,18.667-18.667v-18.667
				C563.988,400.361,555.639,392.012,545.333,392z M489.333,429.333v-18.667h56l0.01,18.667H489.333z"/>
			<path d="M620,429.333h-18.667c-10.305,0.012-18.655,8.362-18.667,18.667v18.667c0.012,10.304,8.361,18.655,18.667,18.667H620v28
				c0,5.155,4.179,9.333,9.333,9.333s9.333-4.178,9.333-9.333v-28h18.667c10.304-0.012,18.655-8.361,18.667-18.667V448
				c-0.012-10.305-8.361-18.655-18.667-18.667h-18.667v-46.667c0-5.155-4.18-9.333-9.333-9.333c-5.155,0-9.333,4.178-9.333,9.333
				V429.333z M657.333,448l0.01,18.667h-56.01V448H657.333z"/>
			<path d="M433.333,196h-168c-10.304,0.012-18.655,8.362-18.667,18.667v74.667c0.012,10.305,8.362,18.655,18.667,18.667h168
				c10.305-0.012,18.655-8.362,18.667-18.667v-74.667C451.988,204.362,443.639,196.012,433.333,196z M265.333,289.333v-74.667h168
				l0.009,74.667H265.333z"/>
			<path d="M302.667,233.333h-9.333c-5.155,0-9.333,4.178-9.333,9.333c0,5.155,4.178,9.333,9.333,9.333h9.333
				c5.155,0,9.333-4.178,9.333-9.333C312,237.511,307.821,233.333,302.667,233.333z"/>
			<path d="M349.333,233.333H340c-5.155,0-9.333,4.178-9.333,9.333c0,5.155,4.178,9.333,9.333,9.333h9.333
				c5.155,0,9.333-4.178,9.333-9.333C358.666,237.511,354.488,233.333,349.333,233.333z"/>
		</g>
	</g>
</g>
</svg>
