<?xml version="1.0" encoding="utf-8"?>
<!-- Generator: Adobe Illustrator 16.0.0, SVG Export Plug-In . SVG Version: 6.00 Build 0)  -->
<!DOCTYPE svg PUBLIC "-//W3C//DTD SVG 1.1//EN" "http://www.w3.org/Graphics/SVG/1.1/DTD/svg11.dtd">
<svg version="1.1" id="Capa_1" xmlns="http://www.w3.org/2000/svg" xmlns:xlink="http://www.w3.org/1999/xlink" x="0px" y="0px"
	 width="960px" height="560px" viewBox="0 0 960 560" enable-background="new 0 0 960 560" xml:space="preserve">
<rect x="330.667" y="214.667" fill="#F0BC5E" stroke="#000000" stroke-miterlimit="10" width="131.614" height="224"/>
<polygon fill="#F0BC5E" points="363.52,84 316.48,84 294.08,112 386.327,112 "/>
<rect x="480" y="93.333" fill="#F0BC5E" width="37.333" height="18.667"/>
<rect x="582.667" y="18.667" fill="#F0BC5E" width="18.666" height="18.667"/>
<rect x="517.333" y="410.5" fill="#F0BC5E" width="205.334" height="79.127"/>
<rect x="465.004" y="257.437" transform="matrix(0.492 -0.8706 0.8706 0.492 -25.3469 579.4344)" fill="#F0BC5E" width="37.68" height="108"/>
<g>
	<g>
		<path d="M685.333,392h-14.615c-10.251,0.01-20.358,2.396-29.531,6.972c-13.346,6.634-29.027,6.634-42.373,0
			c-5.323-2.612-10.974-4.496-16.8-5.6L600.204,252H620c5.154,0,9.333-4.179,9.333-9.333v-37.333c0-5.154-4.179-9.333-9.333-9.333
			h-37.333v-28c0-2.476-0.985-4.849-2.735-6.599L536,117.469V88.48l14.149-11.312l24.164,48.337l16.707-8.344L565.055,65.24
			L576.6,56h34.067c5.154,0,9.333-4.179,9.333-9.333V9.333C620,4.179,615.821,0,610.667,0h-93.334
			c-46.367,0.056-83.943,37.632-84,84c0,5.154,4.18,9.333,9.334,9.333h18.666v24.136l-25.265,25.266
			c-1.75,1.75-2.735,4.123-2.735,6.599V196h-18.667v-74.667c-0.014-1.156-0.245-2.298-0.681-3.37
			c-0.17-0.363-0.364-0.715-0.579-1.055c-0.224-0.489-0.487-0.96-0.784-1.409l-35.289-44.1V9.333C377.333,4.179,373.154,0,368,0h-56
			c-5.154,0-9.333,4.179-9.333,9.333V71.4l-35.289,44.1c-0.297,0.449-0.56,0.92-0.784,1.409c-0.214,0.34-0.408,0.692-0.579,1.055
			c-0.437,1.071-0.667,2.213-0.681,3.37V196H228c-5.154,0-9.333,4.179-9.333,9.333v37.333c0,5.154,4.179,9.333,9.333,9.333h19.796
			l36.279,281.194c0.601,4.655,4.565,8.14,9.259,8.139H513.04c10.585,11.865,25.727,18.655,41.627,18.667h14.615
			c10.251-0.01,20.358-2.396,29.531-6.972c13.346-6.634,29.027-6.634,42.373,0c9.173,4.576,19.28,6.962,29.531,6.972h14.615
			c30.916-0.03,55.97-25.085,56-56v-56C741.303,417.085,716.249,392.03,685.333,392z M582.667,18.667h18.666v18.667h-18.666V18.667z
			 M610.667,214.667v18.667H480v-18.667H610.667z M452.663,74.667c4.682-32.124,32.207-55.959,64.67-56H564v23.52l-40.609,32.48
			H452.663z M517.333,93.333V112H480V93.333H517.333z M452,153.197l22.53-22.531h48.272L564,171.864V196H452V153.197z
			 M442.667,214.667h18.666V280c-0.02,3.555,1.982,6.811,5.162,8.4l56,28c2.73,1.346,4.801,3.738,5.739,6.636
			c0.968,3.109,0.632,6.478-0.933,9.333c-2.686,5.389-9.231,7.58-14.62,4.894c-0.008-0.004-0.017-0.009-0.024-0.012l-37.894-18.947
			c-4.632-2.263-10.22-0.343-12.483,4.289c-0.619,1.27-0.943,2.662-0.947,4.074V420c0,10.31-8.356,18.667-18.666,18.667v-84H424v84
			h-18.667v-84h-18.667v84H368v-84h-18.667v84c-10.31,0-18.667-8.357-18.667-18.667V214.667H442.667z M321.333,18.667h37.333v46.667
			h-37.333V18.667z M316.48,84h47.04l22.4,28h-91.84L316.48,84z M284,130.667h112V196H284V130.667z M237.333,233.333v-18.667H312
			v18.667H237.333z M498.667,448v56c0.016,6.363,1.121,12.676,3.267,18.667H301.537L266.612,252H312v168
			c0,20.618,16.715,37.333,37.333,37.333h93.333C463.285,457.333,480,440.618,480,420v-78.232l24.379,12.189
			c14.731,7.271,32.567,1.223,39.838-13.509c0.03-0.061,0.06-0.122,0.09-0.183c3.615-7.167,4.23-15.479,1.708-23.101
			c-2.487-7.624-7.936-13.926-15.12-17.49L480,274.232V252h101.388l-18.069,140h-8.651C523.751,392.03,498.697,417.085,498.667,448z
			 M722.667,504c0,20.618-16.715,37.333-37.334,37.333h-14.615c-7.352-0.01-14.601-1.722-21.178-5.002
			c-18.608-9.246-40.472-9.246-59.08,0c-6.578,3.28-13.826,4.992-21.178,5.002h-14.615c-20.619,0-37.334-16.715-37.334-37.333
			v-14.373c10.235,9.248,23.539,14.369,37.334,14.373h14.615c10.251-0.01,20.358-2.396,29.531-6.972
			c13.346-6.634,29.027-6.634,42.373,0c9.173,4.576,19.28,6.962,29.531,6.972h14.615c13.795-0.004,27.099-5.125,37.334-14.373V504z
			 M685.333,485.333h-14.615c-7.352-0.01-14.601-1.722-21.178-5.002c-18.608-9.246-40.472-9.246-59.08,0
			c-6.578,3.28-13.826,4.992-21.178,5.002h-14.615c-20.619,0-37.334-16.715-37.334-37.333s16.715-37.333,37.334-37.333h14.615
			c7.352,0.01,14.6,1.722,21.178,5.002c18.609,9.24,40.471,9.24,59.08,0c6.578-3.28,13.826-4.992,21.178-5.002h14.615
			c20.619,0,37.334,16.715,37.334,37.333S705.952,485.333,685.333,485.333z"/>
	</g>
</g>
<g>
	<g>
		<rect x="676" y="429.333" width="18.667" height="18.667"/>
	</g>
</g>
<g>
	<g>
		<rect x="582.667" y="429.333" width="18.666" height="18.667"/>
	</g>
</g>
<g>
	<g>
		<rect x="545.333" y="438.667" width="18.667" height="18.666"/>
	</g>
</g>
<g>
	<g>
		<rect x="638.667" y="438.667" width="18.666" height="18.666"/>
	</g>
</g>
</svg>
