<svg height="496pt" viewBox="0 -24 496 496" width="496pt" xmlns="http://www.w3.org/2000/svg"><path d="m271.335938 32c-42.273438 0-82.777344 20.105469-108.335938 53.785156l-70.871094 93.382813-.296875 5.457031c1.335938-.367188 2.71875-.625 4.167969-.625h80v32c0 17.671875-14.328125 32-32 32h-16v8h336v-224zm0 0" fill="#f0bc5e"/><path d="m472 0h-201.054688c-51.90625 0-101.746093 24.59375-133.320312 65.785156l-102.953125 134.269532c-22.359375 29.167968-34.671875 65.464843-34.671875 102.226562v121.71875c0 13.230469 10.769531 24 24 24h448c13.230469 0 24-10.769531 24-24v-400c0-13.230469-10.769531-24-24-24zm-424.632812 209.792969 102.953124-134.273438c28.566407-37.273437 73.664063-59.519531 120.625-59.519531h201.054688c4.40625 0 8 3.59375 8 8v328h-464v-49.71875c0-33.257812 11.144531-66.105469 31.367188-92.488281zm424.632812 222.207031h-448c-4.40625 0-8-3.59375-8-8v-24h32v-16h-32v-16h464v16h-424v16h424v24c0 4.40625-3.59375 8-8 8zm0 0"/><path d="m384 320h64c8.824219 0 16-7.175781 16-16v-16c0-8.824219-7.175781-16-16-16h-64c-8.824219 0-16 7.175781-16 16v16c0 8.824219 7.175781 16 16 16zm64-16h-16v-16h16zm-64-16h32v16h-32zm0 0"/><path d="m96 256h48c22.054688 0 40-17.945312 40-40v-40h-88c-13.230469 0-24 10.769531-24 24v32c0 13.230469 10.769531 24 24 24zm-8-56c0-4.40625 3.59375-8 8-8h72v24c0 13.230469-10.769531 24-24 24h-48c-4.40625 0-8-3.59375-8-8zm0 0"/></svg>