<svg id="Layer_35" enable-background="new 0 0 64 64" height="512" viewBox="0 0 64 64" width="512" xmlns="http://www.w3.org/2000/svg"><g fill="#f0bc5e"><path d="m40 11c-1.654 0-3-1.346-3-3s1.346-3 3-3 3 1.346 3 3-1.346 3-3 3z"/><path d="m32 11c-1.654 0-3-1.346-3-3s1.346-3 3-3 3 1.346 3 3-1.346 3-3 3z"/><path d="m24 11c-1.654 0-3-1.346-3-3s1.346-3 3-3 3 1.346 3 3-1.346 3-3 3z"/></g><path d="m63 12v-4c0-1.654-1.346-3-3-3h-13.382l-1.171-2.342c-.511-1.023-1.54-1.658-2.683-1.658h-21.528c-1.144 0-2.172.635-2.684 1.658l-1.17 2.342h-13.382c-1.654 0-3 1.346-3 3v4c0 1.302.839 2.402 2 2.816v36.369c-1.161.413-2 1.513-2 2.815v2c0 1.654 1.346 3 3 3h1v1c0 1.654 1.346 3 3 3h6c1.654 0 3-1.346 3-3v-1h30v1c0 1.654 1.346 3 3 3h6c1.654 0 3-1.346 3-3v-1h1c1.654 0 3-1.346 3-3v-2c0-1.302-.839-2.402-2-2.816v-36.368c1.161-.414 2-1.514 2-2.816zm-48 48c0 .551-.448 1-1 1h-6c-.552 0-1-.449-1-1v-1h8zm42 0c0 .551-.448 1-1 1h-6c-.552 0-1-.449-1-1v-1h8zm4-4c0 .551-.448 1-1 1h-56c-.552 0-1-.449-1-1v-2c0-.551.448-1 1-1h56c.552 0 1 .449 1 1zm-56-5v-36h2v36zm4 0v-36h2v36zm4 0v-36h2v36zm8-26v-10h2v10h2v-10h2v10h2v-10h2v10h2v-10h2v10h2v-10h2v10h2v-10h2v10h2v-10h2v36h-2v-10h-2v10h-2v-10h-2v10h-2v-10h-2v10h-2v-10h-2v10h-2v-10h-2v10h-2v-10h-2v10h-2v-10h-2v10h-2v-36h2v10zm28 26v-36h2v36zm4 0v-36h2v36zm4 0v-36h2v36zm3-38h-56c-.552 0-1-.449-1-1v-4c0-.551.448-1 1-1h14.618l1.724-3.447c.171-.341.513-.553.894-.553h21.527c.381 0 .724.212.895.553l1.724 3.447h14.618c.552 0 1 .449 1 1v4c0 .551-.448 1-1 1z"/><path d="m44 42h-24c-2.757 0-5-2.243-5-5v-8c0-2.757 2.243-5 5-5h24c2.757 0 5 2.243 5 5v8c0 2.757-2.243 5-5 5z" fill="#f0bc5e"/><path d="m19 28h2v2h-2z"/><path d="m23 28h22v2h-22z"/><path d="m19 32h26v2h-26z"/><path d="m19 36h22v2h-22z"/><path d="m43 36h2v2h-2z"/></svg>