<svg height="496pt" viewBox="0 0 496 496" width="496pt" xmlns="http://www.w3.org/2000/svg"><path d="m264 136h-32c-22.054688 0-40 17.945312-40 40v96h112v-96c0-22.054688-17.945312-40-40-40zm0 0" fill="#f0bc5e"/><path d="m224.078125 353.136719 6.867187 48.078125c1.207032 8.425781 8.542969 14.785156 17.054688 14.785156s15.847656-6.359375 17.054688-14.792969l6.867187-48.078125h-47.84375zm0 0" fill="#f0bc5e"/><path d="m248 480c-30.871094 0-56-25.121094-56-56h-16c0 39.695312 32.296875 72 72 72s72-32.304688 72-72h-16c0 30.878906-25.128906 56-56 56zm0 0"/><path d="m248 464c22.054688 0 40-17.945312 40-40h-16c0 13.230469-10.769531 24-24 24s-24-10.769531-24-24h-16c0 22.054688 17.945312 40 40 40zm0 0"/><path d="m472 40h-64c-13.230469 0-24 10.769531-24 24v57.753906l-50.230469 12.558594c-4.457031-22.578125-15.472656-43.335938-32.113281-59.96875l-2.34375-2.34375h-11.3125v-16h-16v16h-16v-32h-16v32h-16v-16h-16v16h-11.3125l-2.34375 2.34375c-16.640625 16.632812-27.65625 37.390625-32.113281 59.96875l-50.230469-12.558594v-57.753906c0-13.230469-10.769531-24-24-24h-64c-13.230469 0-24 10.769531-24 24v208c0 13.230469 10.769531 24 24 24h64c13.230469 0 24-10.769531 24-24v-57.753906l48.359375-12.085938c1.625 26.085938 11.738281 50.480469 29.046875 70.054688l-37.40625 44.890625v42.894531h192v-42.894531l-37.40625-44.890625c17.308594-19.574219 27.421875-43.976563 29.046875-70.054688l48.359375 12.085938v57.753906c0 13.230469 10.769531 24 24 24h64c13.230469 0 24-10.769531 24-24v-208c0-13.230469-10.769531-24-24-24zm8 24v24h-32v-32h24c4.414062 0 8 3.59375 8 8zm-80 88h32v32h-32zm0-16v-32h32v32zm0 64h32v32h-32zm48 0h32v32h-32zm0-16v-32h32v32zm0-48v-32h32v32zm-40-80h24v32h-32v-24c0-4.40625 3.585938-8 8-8zm-204.617188 32h89.234376c4.65625 4.960938 8.71875 10.335938 12.238281 16h-113.710938c3.511719-5.664062 7.582031-11.039062 12.238281-16zm-107.382812 48h-32v-32h32zm0 48h-32v-32h32zm-48-48h-32v-32h32zm0 16v32h-32v-32zm0 48v32h-32v-32zm16 0h32v32h-32zm32-136v24h-32v-32h24c4.414062 0 8 3.59375 8 8zm-72-8h24v32h-32v-24c0-4.40625 3.585938-8 8-8zm-8 216v-24h32v32h-24c-4.414062 0-8-3.59375-8-8zm72 8h-24v-32h32v24c0 4.40625-3.585938 8-8 8zm24-141.753906 48.335938 12.089844c-.136719 2.296874-.335938 4.59375-.335938 6.921874v28.496094l-48 12zm180.246094 141.753906 26.675781 32h-141.84375l26.675781-32zm-124.246094 64v-16h160v16zm152-149.257812c0 25.960937-9.703125 50.425781-27.382812 69.257812h-89.234376c-17.679687-18.832031-27.382812-43.296875-27.382812-69.257812v-37.496094c0-12.957032 2.425781-25.550782 7.046875-37.253906h129.914063c4.613281 11.710937 7.039062 24.296874 7.039062 37.265624zm16-8.988282v-28.496094c0-2.328124-.199219-4.617187-.335938-6.921874l48.335938-12.089844v59.507812zm64 86.246094v-24h32v32h-24c-4.414062 0-8-3.59375-8-8zm72 8h-24v-32h32v24c0 4.40625-3.585938 8-8 8zm0 0"/><path d="m248 168c-13.230469 0-24 10.769531-24 24s10.769531 24 24 24 24-10.769531 24-24-10.769531-24-24-24zm0 32c-4.414062 0-8-3.59375-8-8s3.585938-8 8-8 8 3.59375 8 8-3.585938 8-8 8zm0 0"/><path d="m224 232h16v16h-16zm0 0"/><path d="m256 232h16v16h-16zm0 0"/><path d="m248 48c-13.230469 0-24-10.769531-24-24s10.769531-24 24-24 24 10.769531 24 24-10.769531 24-24 24zm0 0" fill="#f0bc5e"/></svg>