<?xml version="1.0" encoding="utf-8"?>
<!-- Generator: Adobe Illustrator 16.0.0, SVG Export Plug-In . SVG Version: 6.00 Build 0)  -->
<!DOCTYPE svg PUBLIC "-//W3C//DTD SVG 1.1//EN" "http://www.w3.org/Graphics/SVG/1.1/DTD/svg11.dtd">
<svg version="1.1" id="Capa_1" xmlns="http://www.w3.org/2000/svg" xmlns:xlink="http://www.w3.org/1999/xlink" x="0px" y="0px"
	 width="960px" height="560px" viewBox="0 0 960 560" enable-background="new 0 0 960 560" xml:space="preserve">
<path fill="#F0BC5E" d="M752.449,234.965l-27.413-4.57c-2.736-8.581-6.151-16.863-10.206-24.758l16.122-22.571
	c2.565-3.586,2.159-8.508-0.957-11.634l-51.096-51.095c-3.125-3.134-8.057-3.532-11.634-0.958l-22.571,16.123
	c-7.895-4.056-16.177-7.47-24.758-10.207l-4.57-27.413c-0.731-4.363-4.498-7.56-8.915-7.56h-72.258
	c-4.417,0-8.183,3.197-8.905,7.551l-4.57,27.413c-8.581,2.737-16.863,6.151-24.758,10.207l-22.571-16.123
	c-3.577-2.565-8.518-2.167-11.634,0.958l-51.096,51.096c-3.125,3.125-3.531,8.048-0.957,11.633l16.122,22.572
	c-4.056,7.894-7.469,16.177-10.206,24.757l-27.413,4.57c-4.362,0.731-7.56,4.498-7.56,8.915v72.258c0,4.417,3.198,8.184,7.551,8.906
	l27.413,4.57c2.737,8.58,6.151,16.863,10.207,24.757l-16.123,22.572c-2.565,3.585-2.159,8.508,0.958,11.633l51.096,51.096
	c3.116,3.116,8.057,3.522,11.634,0.958l22.571-16.123c7.885,4.047,16.177,7.47,24.757,10.206l4.57,27.413
	c0.732,4.363,4.498,7.561,8.915,7.561h72.258c4.417,0,8.184-3.197,8.906-7.551l4.57-27.413c8.581-2.737,16.872-6.16,24.758-10.207
	l22.571,16.123c3.577,2.556,8.509,2.149,11.634-0.958l51.095-51.095c3.126-3.126,3.532-8.048,0.958-11.634l-16.123-22.571
	c4.056-7.895,7.47-16.177,10.207-24.758l27.413-4.57c4.362-0.731,7.56-4.498,7.56-8.915v-72.258
	C760,239.454,756.803,235.688,752.449,234.965z M570.322,370.322C520.438,370.322,480,329.885,480,280
	c0-49.885,40.438-90.323,90.322-90.323c49.886,0,90.323,40.438,90.323,90.323C660.646,329.885,620.208,370.322,570.322,370.322z"/>
<path d="M326.452,86.583L313.68,99.355h-46.715l-12.772-12.772V0L200,40.645v89.546l27.097,27.097v245.424L200,429.809v89.546
	L254.193,560v-77.551l12.772-12.771h46.715l12.771,12.771V560l54.193-40.646v-89.546l-27.097-27.097V157.288l27.097-27.097V40.645
	L326.452,0V86.583z M344.516,36.129l18.064,13.548v73.035l-27.097,27.097v260.382l27.097,27.097v73.034l-18.064,13.549v-48.9
	l-23.357-23.357h-61.672l-23.357,23.357v48.9l-18.064-13.549v-73.034l27.097-27.097V149.809l-27.097-27.097V49.677l18.064-13.548
	v57.933l23.357,23.357h61.672l23.357-23.357V36.129z"/>
<path d="M290.323,162.581c-14.939,0-27.097,12.158-27.097,27.097v189.677c0,14.939,12.158,27.097,27.097,27.097
	c14.939,0,27.097-12.157,27.097-27.097V189.677C317.419,174.738,305.262,162.581,290.323,162.581z M290.323,180.645
	c4.977,0,9.032,4.046,9.032,9.032v18.065h-18.064v-18.065C281.291,184.691,285.346,180.645,290.323,180.645z M281.291,316.129
	v-18.064h18.064v18.064H281.291z M299.355,334.193v18.064h-18.064v-18.064H299.355z M281.291,280v-18.064h18.064V280H281.291z
	 M281.291,243.871v-18.064h18.064v18.064H281.291z M290.323,388.387c-4.977,0-9.032-4.046-9.032-9.032v-9.032h18.064v9.032
	C299.355,384.341,295.299,388.387,290.323,388.387z"/>
<path d="M669.678,280c0-54.781-44.574-99.355-99.355-99.355c-54.78,0-99.354,44.574-99.354,99.355
	c0,54.78,44.574,99.354,99.354,99.354c21.705,0,42.316-6.873,59.622-19.871l-10.848-14.451
	c-14.153,10.64-31.017,16.258-48.774,16.258c-44.817,0-81.29-36.463-81.29-81.29s36.473-81.291,81.29-81.291
	c44.818,0,81.291,36.463,81.291,81.291c0,20.802-7.85,40.582-22.094,55.711l13.151,12.383
	C660.085,329.605,669.678,305.417,669.678,280z"/>
<rect x="561.29" y="126.452" width="18.064" height="18.064"/>
<rect x="459.101" y="168.783" transform="matrix(0.7071 -0.7071 0.7071 0.7071 11.3748 383.092)" width="18.064" height="18.064"/>
<rect x="416.774" y="270.968" width="18.064" height="18.064"/>
<rect x="459.075" y="373.151" transform="matrix(0.707 -0.7072 0.7072 0.707 -133.1298 443.0329)" width="18.064" height="18.064"/>
<rect x="561.29" y="415.483" width="18.064" height="18.065"/>
<rect x="663.451" y="373.113" transform="matrix(0.7071 -0.7071 0.7071 0.7071 -73.2518 587.4454)" width="18.064" height="18.064"/>
<rect x="705.807" y="270.968" width="18.064" height="18.064"/>
<rect x="663.461" y="168.822" transform="matrix(0.707 -0.7072 0.7072 0.707 71.2601 527.7087)" width="18.064" height="18.064"/>
</svg>
