<svg id="Layer_5" enable-background="new 0 0 64 64" height="512" viewBox="0 0 64 64" width="512" xmlns="http://www.w3.org/2000/svg"><path d="m52.053 17c-3.48 0-6.791 1.673-8.854 4.476l-7.417 10.064-10.661-10.661c-1.133-1.133-3.109-1.133-4.242 0-.567.566-.879 1.32-.879 2.121s.312 1.555.879 2.121l11.017 11.017-5.349.714c-5.443.725-9.547 5.413-9.547 10.903v3.429c-1.161.414-2 1.514-2 2.816v2c0 1.654 1.346 3 3 3h9.075v-2h-9.075c-.552 0-1-.448-1-1v-2c0-.552.448-1 1-1h8.257v-2h-7.257v-3.245c0-.516.049-1.022.134-1.517.875.482 1.848.762 2.866.762 3.309 0 6-2.691 6-6 0-.785-.173-1.544-.473-2.261l6.026-.803 11.255-15.274c1.689-2.293 4.397-3.662 7.245-3.662h8.947v2h-8.466c-1.904 0-3.713.917-4.839 2.451l-5.129 6.994c-2.661.992-4.566 3.552-4.566 6.555v1 9.756h2v-9.756h4 2 15v19h-20.075v2h22.075v-42zm-30.053 28c-.826 0-1.613-.263-2.282-.734 1.045-2.463 3.157-4.387 5.791-5.149.321.583.491 1.223.491 1.883 0 2.206-1.794 4-4 4zm11.382-10.204-11.089-11.089c-.191-.191-.293-.436-.293-.707s.102-.516.293-.707c.383-.383 1.031-.383 1.414 0l10.875 10.875zm12.618 1.204h-2-3.899c.465-2.279 2.484-4 4.899-4h1c1.103 0 2 .897 2 2s-.897 2-2 2zm15 0h-11.556c.344-.591.556-1.268.556-2 0-2.206-1.794-4-4-4h-.626l3.935-5.366c.75-1.023 1.956-1.634 3.225-1.634h8.466z"/><path d="m34 63c-4.963 0-9-4.037-9-9s4.037-9 9-9 9 4.037 9 9-4.037 9-9 9zm0-13c-2.205 0-4 1.795-4 4s1.795 4 4 4 4-1.795 4-4-1.795-4-4-4z" fill="#f0bc5e"/><path d="m34 59c-2.757 0-5-2.243-5-5s2.243-5 5-5 5 2.243 5 5-2.243 5-5 5zm0-8c-1.654 0-3 1.346-3 3s1.346 3 3 3 3-1.346 3-3-1.346-3-3-3z"/><path d="m56 46h-2c-1.654 0-3-1.346-3-3v-3h8v3c0 1.654-1.346 3-3 3z" fill="#f0bc5e"/><path d="m9.979 42.998c-.333 0-.667-.018-1.002-.055-3.947-.438-7.256-3.595-7.865-7.507-.55-3.528.968-6.962 3.888-8.912v-20.524c0-2.757 2.243-5 5-5s5 2.243 5 5v20.525c2.481 1.663 4 4.476 4 7.475 0 2.556-1.093 5-2.998 6.706-1.655 1.482-3.807 2.292-6.023 2.292zm.021-39.998c-1.654 0-3 1.346-3 3v21.655l-.499.289c-2.524 1.462-3.864 4.282-3.413 7.185.473 3.036 3.042 5.486 6.109 5.826 2.029.228 3.969-.394 5.471-1.738 1.482-1.327 2.332-3.229 2.332-5.217 0-2.484-1.342-4.805-3.501-6.056l-.499-.289v-21.655c0-1.654-1.346-3-3-3z"/><path d="m9 5h2v25h-2z"/><path d="m10 39c-2.757 0-5-2.243-5-5s2.243-5 5-5 5 2.243 5 5-2.243 5-5 5z" fill="#f0bc5e"/><path d="m19 18h-2c0-1.313.813-2.006 1.353-2.464.489-.416.647-.581.647-.939s-.158-.523-.648-.94c-.539-.459-1.352-1.151-1.352-2.465 0-1.312.813-2.004 1.353-2.461.489-.416.647-.58.647-.937 0-.356-.158-.521-.647-.936-.539-.458-1.353-1.149-1.353-2.462 0-1.312.814-2.003 1.353-2.461.489-.414.647-.579.647-.935h2c0 1.312-.814 2.003-1.353 2.461-.489.415-.647.579-.647.935 0 .357.158.521.647.938.54.457 1.353 1.148 1.353 2.46s-.813 2.004-1.353 2.461c-.489.416-.647.58-.647.937 0 .358.158.523.648.94.539.459 1.352 1.151 1.352 2.465 0 1.312-.813 2.005-1.352 2.463-.49.417-.648.582-.648.94z"/><path d="m24 18h-2c0-1.313.813-2.006 1.353-2.464.489-.416.647-.581.647-.939s-.158-.523-.648-.94c-.539-.459-1.352-1.151-1.352-2.465 0-1.312.813-2.004 1.353-2.461.489-.416.647-.58.647-.937 0-.356-.158-.521-.647-.936-.539-.458-1.353-1.149-1.353-2.462 0-1.312.814-2.003 1.353-2.461.489-.414.647-.579.647-.935h2c0 1.312-.814 2.003-1.353 2.461-.489.415-.647.579-.647.935 0 .357.158.521.647.938.54.457 1.353 1.148 1.353 2.46s-.813 2.004-1.353 2.461c-.489.416-.647.58-.647.937 0 .358.158.523.648.94.539.459 1.352 1.151 1.352 2.465 0 1.312-.813 2.005-1.352 2.463-.49.417-.648.582-.648.94z"/><path d="m29 18h-2c0-1.313.813-2.006 1.353-2.464.489-.416.647-.581.647-.939s-.158-.523-.648-.94c-.539-.459-1.352-1.151-1.352-2.465 0-1.312.813-2.004 1.353-2.461.489-.416.647-.58.647-.937 0-.356-.158-.521-.647-.936-.539-.458-1.353-1.149-1.353-2.462 0-1.312.814-2.003 1.353-2.461.489-.414.647-.579.647-.935h2c0 1.312-.814 2.003-1.353 2.461-.489.415-.647.579-.647.935 0 .357.158.521.647.938.54.457 1.353 1.148 1.353 2.46s-.813 2.004-1.353 2.461c-.489.416-.647.58-.647.937 0 .358.158.523.648.94.539.459 1.352 1.151 1.352 2.465 0 1.312-.813 2.005-1.352 2.463-.49.417-.648.582-.648.94z"/></svg>