<?xml version="1.0" encoding="utf-8"?>
<!-- Generator: Adobe Illustrator 16.0.0, SVG Export Plug-In . SVG Version: 6.00 Build 0)  -->
<!DOCTYPE svg PUBLIC "-//W3C//DTD SVG 1.1//EN" "http://www.w3.org/Graphics/SVG/1.1/DTD/svg11.dtd">
<svg version="1.1" id="Capa_1" xmlns="http://www.w3.org/2000/svg" xmlns:xlink="http://www.w3.org/1999/xlink" x="0px" y="0px"
	 width="512px" height="512px" viewBox="0 0 512 512" enable-background="new 0 0 512 512" xml:space="preserve">
<circle fill="#F0BC5E" stroke="#000000" stroke-miterlimit="10" cx="256.014" cy="106.834" r="85.334"/>
<g id="_x30_16---Autopilot" transform="translate(-1 -1)">
	<path id="Shape" d="M72.851,471.989c2.094,2.288,5.266,3.259,8.282,2.537c3.017-0.723,5.403-3.025,6.234-6.014
		c0.831-2.988-0.026-6.192-2.237-8.368C2.105,374.46-4.676,240.554,69.267,146.92v20.48c0,4.713,3.821,8.534,8.533,8.534
		c4.713,0,8.534-3.821,8.534-8.534v-42.667c0-4.713-3.821-8.533-8.534-8.533H35.133c-4.713,0-8.533,3.82-8.533,8.533
		s3.82,8.533,8.533,8.533h22.98C-23.344,233.653-17.018,379.057,72.851,471.989z"/>
	<path id="Shape_1_" d="M431.285,118.53c-1.646,1.554-2.606,3.699-2.671,5.962c-0.064,2.263,0.773,4.458,2.329,6.104
		c81.164,86.534,87.021,219.354,13.79,312.695V423.4c0-4.713-3.82-8.533-8.533-8.533s-8.533,3.82-8.533,8.533v42.666
		c0,4.713,3.82,8.533,8.533,8.533h42.666c4.713,0,8.534-3.82,8.534-8.533s-3.821-8.533-8.534-8.533h-23.662
		c81.396-99.935,76.327-244.667-11.861-338.662C440.106,115.449,434.71,115.296,431.285,118.53L431.285,118.53z"/>
	<path id="Shape_2_" d="M52.2,295.4c-0.082,99.484,71.342,184.639,169.323,201.872c97.98,17.232,194.174-38.439,228.043-131.982
		c33.869-93.542-4.385-197.894-90.688-247.383c3.934-38.857-14.579-76.568-47.727-97.222s-75.157-20.654-108.305,0
		s-51.66,58.365-47.727,97.222C91.438,154.305,52.156,222.049,52.2,295.4z M112.531,307.262
		c38.537,15.539,102.562,87.244,97.041,125.081C155.344,413.496,117.31,364.472,112.531,307.262z M401.854,289.128
		c-36.48,10.624-83.055,60.135-102.4,96.623c-28.154,4.403-56.821,4.403-84.975,0c-19.226-36.326-65.963-86.024-102.4-96.623
		c0.407-9.292,1.713-18.522,3.899-27.563c14.217-1.612,27.75-3.669,40.218-6.178c33.21-6.664,66.941-10.407,100.804-11.187
		c33.826,0.785,67.52,4.528,100.693,11.187c12.484,2.509,26.018,4.566,40.234,6.178
		C400.123,270.604,401.438,279.836,401.854,289.128z M222.551,404.089c22.882,2.782,46.017,2.782,68.898,0
		c-4.042,10.493-5.243,21.867-3.482,32.973c-20.395,4.541-41.539,4.541-61.934,0C227.794,425.956,226.593,414.582,222.551,404.089z
		 M304.428,432.343c-5.512-37.751,58.181-109.405,97.041-125.081C396.689,364.472,358.656,413.496,304.428,432.343z
		 M361.106,238.653c-123.136-24.567-178.961-2.68-239.462,5.069c11.072-28.883,31.071-53.48,57.088-70.212
		c19.409,23.172,48.083,36.558,78.31,36.558c30.227,0,58.901-13.386,78.311-36.558c25.979,16.708,45.959,41.26,57.036,70.093
		C381.424,242.203,370.826,240.616,361.106,238.653z M257,22.333c47.129,0,85.334,38.205,85.334,85.333
		C342.334,154.795,304.129,193,257,193c-47.128,0-85.333-38.205-85.333-85.333C171.718,60.56,209.893,22.385,257,22.333z
		 M158.577,135.622c2.38,8.368,5.822,16.398,10.24,23.893c-53.415,34.524-81.66,97.13-72.196,160.022
		c9.464,62.893,54.883,114.414,116.092,131.69c97.579,29.857,206.421-45.099,206.421-155.827
		c-0.146-54.876-27.973-105.974-73.992-135.868c4.418-7.495,7.859-15.525,10.24-23.893c71.517,44.03,105.089,130.204,82.208,211.01
		c-22.88,80.808-96.647,136.587-180.631,136.587c-83.984,0-157.751-55.779-180.632-136.587
		c-22.881-80.807,10.691-166.98,82.208-211.011L158.577,135.622z"/>
	<path id="Shape_3_" d="M163.133,269.8c-4.713,0-8.533,3.821-8.533,8.534V295.4c0,4.713,3.82,8.533,8.533,8.533
		s8.533-3.82,8.533-8.533v-17.066C171.667,273.621,167.846,269.8,163.133,269.8z"/>
	<path id="Shape_4_" d="M197.267,269.8c-4.713,0-8.533,3.821-8.533,8.534V295.4c0,4.713,3.82,8.533,8.533,8.533
		s8.533-3.82,8.533-8.533v-17.066C205.8,273.621,201.979,269.8,197.267,269.8z"/>
	<path id="Shape_5_" d="M316.733,269.8c-4.713,0-8.533,3.821-8.533,8.534V295.4c0,4.713,3.82,8.533,8.533,8.533
		s8.533-3.82,8.533-8.533v-17.066C325.267,273.621,321.446,269.8,316.733,269.8z"/>
	<path id="Shape_6_" d="M350.867,269.8c-4.713,0-8.533,3.821-8.533,8.534V295.4c0,4.713,3.82,8.533,8.533,8.533
		s8.533-3.82,8.533-8.533v-17.066C359.4,273.621,355.58,269.8,350.867,269.8z"/>
	<path id="Shape_7_" d="M234.813,157.16c3.548,2.662,8.544,2.161,11.494-1.152l68.267-76.8c2.027-2.277,2.686-5.463,1.728-8.358
		c-0.958-2.894-3.389-5.058-6.374-5.674c-2.986-0.617-6.074,0.405-8.102,2.683l-63.053,70.938l-27.853-20.89
		c-3.77-2.828-9.119-2.063-11.947,1.707c-2.828,3.771-2.063,9.119,1.707,11.947L234.813,157.16z"/>
</g>
</svg>
