<?xml version="1.0" encoding="utf-8"?>
<!-- Generator: Adobe Illustrator 16.0.0, SVG Export Plug-In . SVG Version: 6.00 Build 0)  -->
<!DOCTYPE svg PUBLIC "-//W3C//DTD SVG 1.1//EN" "http://www.w3.org/Graphics/SVG/1.1/DTD/svg11.dtd">
<svg version="1.1" id="Capa_1" xmlns="http://www.w3.org/2000/svg" xmlns:xlink="http://www.w3.org/1999/xlink" x="0px" y="0px"
	 width="560.003px" height="560px" viewBox="199.998 0 560.003 560" enable-background="new 199.998 0 560.003 560"
	 xml:space="preserve">
<polygon fill="#F0BC5E" points="736.633,414.132 222.513,414.132 251.43,184.24 702.801,183.978 "/>
<path fill="#F0BC5E" d="M701.408,184.109H250.503C250.503,184.109,453.522,98.61,701.408,184.109z"/>
<g>
	<g>
		<path d="M759.741,410.834l-34.872-237.097c-0.618-4.214-3.485-7.755-7.479-9.24c-11.76-4.375-23.752-8.47-35.616-12.132
			c-36.411-11.258-108.987-29.167-200.44-29.586c-0.44-0.117-0.889-0.207-1.342-0.268c-0.412,0.058-0.821,0.14-1.226,0.245
			c-67.974-0.299-135.604,9.684-200.593,29.609c-11.864,3.663-23.846,7.757-35.617,12.132c-3.975,1.48-6.834,5-7.467,9.193
			c-2.427,16.064-8.772,59.499-15.517,105.604c-7.595,52.277-15.75,108.078-19.308,131.515c-1.074,6.987,1.125,14.081,5.962,19.237
			c4.421,4.755,10.623,7.451,17.115,7.442c0.653,0,1.307,0,1.96-0.082c169.51-13.763,339.856-13.763,509.366,0
			c7.146,0.554,14.155-2.152,19.075-7.361C758.588,424.903,760.799,417.819,759.741,410.834z M526.67,192.497v34.999h-93.33v-34.999
			H526.67z M581.432,405.536l9.813-14.711h87.09c6.443,0,11.667-5.225,11.667-11.667c0-6.443-5.224-11.667-11.667-11.667H538.337
			c-6.443,0-11.667,5.224-11.667,11.667c0,6.442,5.224,11.667,11.667,11.667h24.873l-9.252,13.883
			c-72.876-1.688-145.757-0.845-218.64,2.531l10.942-16.414h87.079c6.442,0,11.666-5.225,11.666-11.667
			c0-6.443-5.224-11.667-11.666-11.667H293.342c-6.443,0-11.667,5.224-11.667,11.667c0,6.442,5.224,11.667,11.667,11.667h24.872
			l-11.247,16.916c-0.158,0.335-0.297,0.678-0.42,1.026c-27.777,1.54-55.532,3.303-83.205,5.577
			c3.5-23.448,11.667-79.331,19.367-131.633c5.927-40.633,11.562-79.132,14.467-98.709c9.274-3.348,18.667-6.487,27.941-9.333
			c5.39-1.668,10.698-2.987,16.042-4.492l30.811,30.811l-55.521,27.767c-5.76,2.888-8.088,9.898-5.201,15.658
			c0.558,1.112,1.29,2.127,2.167,3.009l23.555,23.555l-32.187,16.1c-5.189,2.604-7.674,8.622-5.833,14.127l11.667,34.999
			c2.04,6.121,8.655,9.431,14.775,7.391c6.12-2.04,9.43-8.653,7.39-14.774l-8.47-25.397l30.029-15.062l29.049,29.05
			c4.477,4.634,11.861,4.763,16.497,0.286c4.634-4.478,4.763-11.861,0.287-16.497c-0.094-0.097-0.189-0.192-0.287-0.286
			l-34.999-34.999l-23.521-23.556l55.521-27.767c5.76-2.887,8.088-9.898,5.201-15.658c-0.558-1.112-1.29-2.127-2.167-3.009
			l-32.562-32.561c46.229-10.846,93.497-16.654,140.977-17.325v23.123h-46.666c-6.443,0-11.667,5.224-11.667,11.667v58.332
			c0,6.443,5.224,11.667,11.667,11.667h116.664c6.443,0,11.667-5.224,11.667-11.667v-58.332c0-6.443-5.224-11.667-11.667-11.667
			H491.67v-23.007c44.17,0.881,88.155,5.959,131.364,15.167l-11.293,11.292c-4.549,4.563-4.538,11.95,0.024,16.499
			c0.88,0.878,1.896,1.61,3.01,2.167l29.783,14.887l-31.558,23.66c-5.153,3.866-6.196,11.179-2.33,16.333
			c0.33,0.441,0.692,0.859,1.083,1.248l21.407,21.408c-0.241,0.326-0.463,0.665-0.665,1.015l-23.333,58.332
			c-2.296,6.021,0.723,12.762,6.742,15.059c5.888,2.245,12.492-0.589,14.923-6.4l20.09-50.236l19.156,19.157
			c4.634,4.477,12.02,4.349,16.496-0.287c4.367-4.521,4.367-11.688,0-16.21l-48.823-48.824l35.921-26.926
			c5.152-3.869,6.192-11.183,2.324-16.334c-1.086-1.446-2.492-2.62-4.109-3.429l-32.187-16.1l10.078-10.08
			c9.638,2.497,18.107,4.923,25.106,7.093c9.333,2.882,18.667,6.02,27.918,9.333l33.832,230.154
			C685.053,409.959,633.276,407.193,581.432,405.536z"/>
	</g>
</g>
<rect x="434.072" y="192.978" fill="#FFFFFF" stroke="#000000" stroke-miterlimit="10" width="92.598" height="34.518"/>
</svg>
