<?xml version="1.0" encoding="utf-8"?>
<!-- Generator: Adobe Illustrator 16.0.0, SVG Export Plug-In . SVG Version: 6.00 Build 0)  -->
<!DOCTYPE svg PUBLIC "-//W3C//DTD SVG 1.1//EN" "http://www.w3.org/Graphics/SVG/1.1/DTD/svg11.dtd">
<svg version="1.1" id="Capa_1" xmlns="http://www.w3.org/2000/svg" xmlns:xlink="http://www.w3.org/1999/xlink" x="0px" y="0px"
	 width="512px" height="512px" viewBox="0 0 512 512" enable-background="new 0 0 512 512" xml:space="preserve">
<circle fill="#F0BC5E" stroke="#000000" stroke-miterlimit="10" cx="255" cy="257" r="86.5"/>
<g id="_x30_12---Regenerative-Breaking-Issue">
	<path id="Shape" d="M119.467,341.333H59.733c-14.139,0-25.6,11.462-25.6,25.601V486.4c0,14.138,11.461,25.6,25.6,25.6h59.733
		c14.138,0,25.6-11.462,25.6-25.6v-34.134h77.022c7.965,10.737,20.543,17.067,33.912,17.067s25.947-6.33,33.912-17.067h77.021V486.4
		c0,14.138,11.461,25.6,25.6,25.6h59.733c14.139,0,25.6-11.462,25.6-25.6V366.934c0-14.139-11.461-25.601-25.6-25.601h-59.733
		c-14.139,0-25.6,11.462-25.6,25.601v34.133h-77.021c-2.374-3.141-5.171-5.938-8.313-8.312v-37.726
		c45.16-11.645,76.718-52.371,76.718-99.008s-31.558-87.364-76.718-99.008v-37.769c3.142-2.373,5.938-5.17,8.313-8.312h77.021
		v34.133c0,14.139,11.461,25.6,25.6,25.6h59.733c14.139,0,25.6-11.461,25.6-25.6V25.6c0-14.139-11.461-25.6-25.6-25.6h-59.733
		c-14.139,0-25.6,11.461-25.6,25.6v34.133h-77.021C281.947,48.997,269.368,42.666,256,42.666s-25.947,6.331-33.912,17.068h-77.021
		V25.6c0-14.139-11.462-25.6-25.6-25.6H59.733c-14.139,0-25.6,11.461-25.6,25.6v119.466c0,14.139,11.461,25.6,25.6,25.6h59.733
		c14.138,0,25.6-11.461,25.6-25.6v-34.133h77.021c2.374,3.141,5.17,5.938,8.312,8.312v37.769c-45.2,11.615-76.8,52.361-76.8,99.029
		s31.6,87.415,76.8,99.03v37.726c-3.141,2.373-5.938,5.17-8.312,8.312h-77.021v-34.176
		C145.067,352.795,133.605,341.333,119.467,341.333L119.467,341.333z M93.867,358.4v136.533h-8.533V358.4H93.867z M51.2,486.4
		V366.934c0-4.713,3.82-8.533,8.533-8.533h8.533v136.533h-8.533C55.021,494.934,51.2,491.113,51.2,486.4z M128,486.4
		c0,4.713-3.82,8.533-8.533,8.533h-8.534V358.4h8.534c4.713,0,8.533,3.82,8.533,8.533V486.4z M256,452.267
		c-14.139,0-25.6-11.462-25.6-25.6c0-14.139,11.461-25.601,25.6-25.601s25.6,11.462,25.6,25.601
		C281.6,440.805,270.139,452.267,256,452.267z M418.133,494.934V358.4h8.534v136.533H418.133z M460.8,366.934V486.4
		c0,4.713-3.82,8.533-8.533,8.533h-8.533V358.4h8.533C456.979,358.4,460.8,362.221,460.8,366.934z M384,366.934
		c0-4.713,3.82-8.533,8.533-8.533h8.533v136.533h-8.533c-4.713,0-8.533-3.82-8.533-8.533V366.934z M366.934,418.134V435.2h-69.12
		c1.147-5.631,1.147-11.436,0-17.066H366.934z M418.133,153.6V17.066h8.534V153.6H418.133z M460.8,25.6v119.467
		c0,4.712-3.82,8.533-8.533,8.533h-8.533V17.066h8.533C456.979,17.066,460.8,20.887,460.8,25.6z M384,25.6
		c0-4.713,3.82-8.534,8.533-8.534h8.533V153.6h-8.533c-4.713,0-8.533-3.821-8.533-8.533V25.6z M366.934,76.8v17.067h-69.12
		c1.147-5.631,1.147-11.436,0-17.067H366.934z M256,59.733c14.139,0,25.6,11.461,25.6,25.6c0,14.138-11.461,25.6-25.6,25.6
		s-25.6-11.462-25.6-25.6C230.4,71.195,241.861,59.733,256,59.733z M93.867,17.066V153.6h-8.533V17.066H93.867z M51.2,145.067V25.6
		c0-4.713,3.82-8.534,8.533-8.534h8.533V153.6h-8.533C55.021,153.6,51.2,149.779,51.2,145.067z M128,145.067
		c0,4.712-3.82,8.533-8.533,8.533h-8.534V17.066h8.534c4.713,0,8.533,3.821,8.533,8.534V145.067z M145.066,93.867V76.8h69.12
		c-1.147,5.631-1.147,11.436,0,17.067H145.066z M247.467,127.146c5.631,1.148,11.436,1.148,17.066,0v26.897
		c-5.674-0.581-11.393-0.581-17.066,0V127.146z M170.667,256c0-47.128,38.205-85.333,85.333-85.333
		c47.129,0,85.334,38.205,85.334,85.333c0,47.128-38.205,85.333-85.334,85.333C208.893,341.281,170.718,303.106,170.667,256z
		 M247.467,357.965c5.674,0.58,11.393,0.58,17.066,0v26.889c-5.631-1.147-11.436-1.147-17.066,0V357.965z M214.187,418.134
		c-1.147,5.631-1.147,11.436,0,17.066h-69.12v-17.066H214.187z"/>
	<path id="Shape_1_" d="M256,281.6c4.713,0,8.533-3.82,8.533-8.533v-76.8c0-4.713-3.82-8.533-8.533-8.533s-8.533,3.82-8.533,8.533
		v76.8C247.467,277.779,251.287,281.6,256,281.6z"/>
	<circle id="Oval" cx="256" cy="307.2" r="8.533"/>
</g>
</svg>
