<svg id="Layer_35" enable-background="new 0 0 64 64" height="512" viewBox="0 0 64 64" width="512" xmlns="http://www.w3.org/2000/svg"><g fill="#f0bc5e"><path d="m55 38c-2.761 0-5 2.239-5 5v2h3.966c3.572 0 6.711-2.368 7.692-5.802l.342-1.198z"/><path d="m9 38c2.761 0 5 2.239 5 5v2h-3.966c-3.572 0-6.711-2.368-7.692-5.802l-.342-1.198z"/><path d="m47 33v6.343c0 1.061-.421 2.078-1.172 2.828l-2.828 2.829h-22l-2.828-2.828c-.751-.751-1.172-1.768-1.172-2.829v-6.343z"/></g><path d="m13.27 16.712c.141-.976.993-1.712 1.979-1.712h6.751v-2h-6.751c-1.974 0-3.675 1.473-3.958 3.424l-.356 2.448 1.979.289z"/><path d="m63 25c0-1.654-1.346-3-3-3h-2.732l-.709-6.732c-.375-3.574-3.368-6.268-6.96-6.268h-.98l-2-4h-29.237l-2 4h-.98c-3.593 0-6.585 2.694-6.961 6.268l-.709 6.732h-2.732c-1.654 0-3 1.346-3 3 0 2.555 1.934 4.645 4.412 4.94l-4.412 8.824v4.236c0 3.525 2.042 6.574 5 8.05v5.95c0 1.654 1.346 3 3 3h6c1.654 0 3-1.346 3-3v-5h28v5c0 1.654 1.346 3 3 3h6c1.654 0 3-1.346 3-3v-5.95c2.958-1.476 5-4.526 5-8.05v-4.236l-4.412-8.823c2.478-.296 4.412-2.386 4.412-4.941zm-52.719 19c-2.346 0-4.523-1.165-5.824-3.117l-1.303-1.955 4.12-8.24.676.676c1.699 1.7 3.959 2.636 6.363 2.636h35.373c2.404 0 4.664-.936 6.363-2.636l.676-.676 4.12 8.24-1.303 1.955c-1.3 1.952-3.478 3.117-5.823 3.117zm17.305-18c.228 0 .414.186.414.414 0 .109-.044.216-.121.293l-5.293 5.293h-2.172l6-6zm-10 6h-3.172l13-13h.465c.618 0 1.121.503 1.121 1.121 0 .295-.119.584-.328.793zm32-6c.228 0 .414.186.414.414 0 .109-.044.216-.121.293l-5.293 5.293h-2.172l6-6zm-10 6h-3.172l13-13h.465c.618 0 1.121.503 1.121 1.121 0 .295-.119.584-.328.793zm20.414-8c.552 0 1 .448 1 1 0 1.654-1.346 3-3 3h-.1l-.421-4zm-41.382-17h26.764l1 2h-28.764zm-9.189 8.477c.268-2.552 2.406-4.477 4.972-4.477h35.197c2.566 0 4.704 1.925 4.973 4.477l1.384 13.154-1.32 1.32c-1.322 1.322-3.08 2.05-4.949 2.05h-2.272l3.879-3.879c.449-.45.707-1.072.707-1.708 0-1.083-.721-1.99-1.705-2.295l1.791-1.791c.581-.581.914-1.385.914-2.207 0-1.721-1.4-3.121-3.121-3.121h-1.293l-15 15h-8.172l3.879-3.879c.449-.449.707-1.071.707-1.707 0-1.083-.721-1.99-1.705-2.295l1.791-1.791c.581-.581.914-1.385.914-2.207 0-1.721-1.4-3.121-3.121-3.121h-1.293l-14.598 14.598c-.975-.343-1.871-.895-2.624-1.647l-1.32-1.32zm-6.429 9.523c0-.552.448-1 1-1h2.521l-.421 4h-.1c-1.654 0-3-1.346-3-3zm0 18v-.735c1.69 2.339 4.38 3.735 7.281 3.735h12.903c-.112.314-.184.648-.184 1v2c0 .352.072.686.184 1h-13.184c-3.859 0-7-3.141-7-7zm13 14c0 .552-.448 1-1 1h-6c-.552 0-1-.448-1-1v-5.232c.644.147 1.312.232 2 .232h6zm10-7c-.552 0-1-.448-1-1v-2c0-.552.448-1 1-1h12c.552 0 1 .448 1 1v2c0 .552-.448 1-1 1zm30 7c0 .552-.448 1-1 1h-6c-.552 0-1-.448-1-1v-5h6c.688 0 1.356-.085 2-.232zm-2-7h-13.184c.112-.314.184-.648.184-1v-2c0-.352-.072-.686-.184-1h12.903c2.901 0 5.591-1.396 7.281-3.735v.735c0 3.859-3.141 7-7 7z"/><path d="m24 13h2v2h-2z"/><path d="m28 13h2v2h-2z"/></svg>