<svg height="496pt" viewBox="0 -43 496 495" width="496pt" xmlns="http://www.w3.org/2000/svg"><path d="m344 280.5c-1.503906 0-2.984375.121094-4.464844.222656l-32.222656-32.222656 50.34375-50.34375-11.3125-11.3125-50.34375 50.34375-12.6875-12.6875 50.34375-50.34375-11.3125-11.3125-50.34375 50.34375-12.6875-12.6875 50.34375-50.34375-11.3125-11.3125-50.34375 50.34375-50.34375-50.34375-11.3125 11.3125 134.679688 134.679688c-5.871094 2.273437-11.3125 5.367187-16.207032 9.167968l-59.160156-59.160156-11.3125 11.3125 59.160156 59.160156c-3.800781 4.886719-6.902344 10.335938-9.167968 16.207032l-134.679688-134.679688-11.3125 11.3125 50.34375 50.34375-32.222656 32.222656c-1.480469-.101562-2.960938-.222656-4.464844-.222656-35.289062 0-64 28.710938-64 64s28.710938 64 64 64 64-28.710938 64-64c0-1.503906-.121094-2.984375-.222656-4.464844l32.222656-32.222656 32.222656 32.222656c-.101562 1.480469-.222656 2.960938-.222656 4.464844 0 35.289062 28.710938 64 64 64s64-28.710938 64-64-28.710938-64-64-64zm-144-20.6875 12.6875 12.6875-21.503906 21.503906c-4.886719-3.800781-10.335938-6.902344-16.207032-9.167968zm-48 132.6875c-26.472656 0-48-21.527344-48-48s21.527344-48 48-48 48 21.527344 48 48-21.527344 48-48 48zm59.664062-70.976562c-2.273437-5.871094-5.367187-11.3125-9.167968-16.207032l21.503906-21.503906 12.6875 12.6875zm132.335938 70.976562c-26.472656 0-48-21.527344-48-48s21.527344-48 48-48 48 21.527344 48 48-21.527344 48-48 48zm0 0"/><path d="m162.339844 174.15625 11.3125-11.3125 64 64-11.3125 11.3125zm0 0"/><path d="m152 312.5c-4.6875 0-9.304688 1.070312-13.726562 3.175781l6.871093 14.449219c10.96875-5.210938 22.855469 3.261719 22.855469 14.375 0 2.289062-.542969 4.59375-1.617188 6.839844l14.441407 6.886718c2.105469-4.414062 3.175781-9.039062 3.175781-13.726562 0-17.648438-14.351562-32-32-32zm0 0"/><path d="m136 344.5c0-2.289062.542969-4.59375 1.617188-6.839844l-14.441407-6.886718c-2.105469 4.414062-3.175781 9.039062-3.175781 13.726562 0 17.648438 14.351562 32 32 32 4.6875 0 9.304688-1.070312 13.726562-3.175781l-6.871093-14.449219c-10.960938 5.234375-22.855469-3.261719-22.855469-14.375zm0 0"/><path d="m350.847656 330.125 6.871094-14.449219c-4.414062-2.105469-9.03125-3.175781-13.71875-3.175781-17.648438 0-32 14.351562-32 32 0 4.6875 1.070312 9.3125 3.175781 13.734375l14.441407-6.886719c-1.074219-2.253906-1.617188-4.558594-1.617188-6.847656 0-11.113281 11.902344-19.585938 22.847656-14.375zm0 0"/><path d="m358.382812 337.660156c1.074219 2.246094 1.617188 4.550782 1.617188 6.839844 0 11.113281-11.878906 19.609375-22.847656 14.375l-6.871094 14.449219c4.414062 2.105469 9.03125 3.175781 13.71875 3.175781 17.648438 0 32-14.351562 32-32 0-4.6875-1.070312-9.3125-3.175781-13.734375zm0 0"/><path d="m136 240.5h-39.3125l-92-92c-2.976562-2.976562-4.6875-7.105469-4.6875-11.3125v-21.375c0-4.207031 1.710938-8.335938 4.6875-11.3125l99.3125-99.3125c2.976562-2.976562 7.105469-4.6875 11.3125-4.6875h21.375c4.207031 0 8.335938 1.710938 11.3125 4.6875l92 92v39.3125h-28.6875l-75.3125 75.3125zm0 0" fill="#f0bc5e"/><path d="m10.34375 154.84375 143.996094-144 11.316406 11.3125-144 144zm0 0"/><path d="m34.34375 178.84375 143.996094-144 11.316406 11.3125-144 144zm0 0"/><path d="m144 168.5c-13.230469 0-24-10.769531-24-24s10.769531-24 24-24 24 10.769531 24 24-10.769531 24-24 24zm0-32c-4.414062 0-8 3.59375-8 8s3.585938 8 8 8 8-3.59375 8-8-3.585938-8-8-8zm0 0"/><path d="m399.3125 240.5h-39.3125v-28.6875l-75.3125-75.3125h-28.6875v-39.3125l92-92c2.976562-2.976562 7.105469-4.6875 11.3125-4.6875h21.375c4.207031 0 8.335938 1.710938 11.3125 4.6875l99.3125 99.3125c2.976562 2.976562 4.6875 7.105469 4.6875 11.3125v21.375c0 4.207031-1.710938 8.335938-4.6875 11.3125zm0 0" fill="#f0bc5e"/><path d="m330.339844 22.160156 11.3125-11.316406 144 144-11.3125 11.3125zm0 0"/><path d="m306.339844 46.160156 11.3125-11.316406 144 144-11.3125 11.3125zm0 0"/><path d="m352 168.5c-13.230469 0-24-10.769531-24-24s10.769531-24 24-24 24 10.769531 24 24-10.769531 24-24 24zm0-32c-4.414062 0-8 3.59375-8 8s3.585938 8 8 8 8-3.59375 8-8-3.585938-8-8-8zm0 0"/></svg>