<?xml version="1.0" encoding="utf-8"?>
<!-- Generator: Adobe Illustrator 16.0.0, SVG Export Plug-In . SVG Version: 6.00 Build 0)  -->
<!DOCTYPE svg PUBLIC "-//W3C//DTD SVG 1.1//EN" "http://www.w3.org/Graphics/SVG/1.1/DTD/svg11.dtd">
<svg version="1.1" id="Capa_1" xmlns="http://www.w3.org/2000/svg" xmlns:xlink="http://www.w3.org/1999/xlink" x="0px" y="0px"
	 width="496px" height="496px" viewBox="0 0 496 496" enable-background="new 0 0 496 496" xml:space="preserve">
<path d="M240,16h16v24h16V0h-48v40h16V16z"/>
<path fill="#F0BC5E" d="M152,352h192v40H152V352z"/>
<path fill="#F0BC5E" d="M264,32h-32c-39.703,0-72,32.297-72,72v96h176v-96C336,64.297,303.703,32,264,32z"/>
<path d="M368,272v-8c0-10.414-6.711-19.215-16-22.527V216c0-13.23-10.77-24-24-24h-56v-48h8c13.23,0,24-10.77,24-24s-10.77-24-24-24
	s-24,10.77-24,24v8h-16v-8c0-13.23-10.77-24-24-24s-24,10.77-24,24s10.77,24,24,24h8v48h-56c-13.23,0-24,10.77-24,24v25.473
	c-9.289,3.313-16,12.113-16,22.527v8c-8.824,0-16,7.176-16,16v16c0,8.824,7.176,16,16,16h16v80h32v96h48v-96h32v96h80v-96h16v-80h16
	c8.824,0,16-7.176,16-16v-16C384,279.176,376.824,272,368,272z M272,120c0-4.414,3.586-8,8-8s8,3.586,8,8s-3.586,8-8,8h-8V120z
	 M216,128c-4.414,0-8-3.586-8-8s3.586-8,8-8s8,3.586,8,8v8H216z M240,144h16v48h-16V144z M168,208h160c4.414,0,8,3.586,8,8v24H160
	v-24C160,211.586,163.586,208,168,208z M144,264c0-4.414,3.586-8,8-8h192c4.414,0,8,3.586,8,8v8H144V264z M208,480h-16v-80h16V480z
	 M320,480h-16v-32h-16v32h-16v-80h48V480z M336,384H160v-64h176V384z M368,304H128l-0.016-16H368V304z"/>
<path d="M192.008,64H304v16H192.008V64z"/>
</svg>
