<svg height="496pt" viewBox="-120 0 496 496" width="496pt" xmlns="http://www.w3.org/2000/svg"><path d="m152 384h-32v-32h-16v32h-16v-40h-16v40h-32c-8.824219 0-16 7.175781-16 16v16c0 8.824219 7.175781 16 16 16v32h33.472656c-.898437 2.511719-1.472656 5.183594-1.472656 8 0 13.230469 10.769531 24 24 24s24-10.769531 24-24c0-2.816406-.574219-5.488281-1.472656-8h33.472656v-32c8.824219 0 16-7.175781 16-16v-16c0-8.824219-7.175781-16-16-16zm-48 88c0 4.414062-3.59375 8-8 8s-8-3.585938-8-8 3.59375-8 8-8 8 3.585938 8 8zm32-24h-80v-16h80zm-96-32v-16h112l.007812 16zm0 0"/><path d="m32 272h16v32h-16zm0 0"/><path d="m144 304h16v32h-16zm0 0"/><path d="m32 208h16v32h-16zm0 0"/><path d="m144 240h16v32h-16zm0 0"/><path d="m154.167969 376c-2.289063 0-4.488281-.335938-6.59375-1.007812l-116.253907-36.328126c-9.160156-2.855468-15.320312-11.230468-15.320312-20.832031 0-12.039062 9.792969-21.832031 21.832031-21.832031h.0625c2.226563 0 4.425781.335938 6.53125 1.007812l116.253907 36.328126c9.160156 2.855468 15.320312 11.230468 15.320312 20.832031 0 12.039062-9.792969 21.832031-21.832031 21.832031zm0 0" fill="#f0bc5e"/><path d="m154.167969 312c-2.289063 0-4.488281-.335938-6.59375-1.007812l-116.253907-36.328126c-9.160156-2.855468-15.320312-11.230468-15.320312-20.832031 0-12.039062 9.792969-21.832031 21.832031-21.832031h.0625c2.226563 0 4.425781.335938 6.53125 1.007812l116.253907 36.328126c9.160156 2.855468 15.320312 11.230468 15.320312 20.832031 0 12.039062-9.792969 21.832031-21.832031 21.832031zm0 0" fill="#f0bc5e"/><path d="m256 56c0-8.824219-7.175781-16-16-16h-8v-16h-16v16h-16v-16h-16v14.566406l-57.800781-36.117187c-2.542969-1.609375-5.488281-2.449219-8.496094-2.449219h-37.703125c-8.824219 0-16 7.175781-16 16v32h-30.246094l-8 32h-25.753906v48h16v32h16v16h16v-16h96v48h16v-16h96zm-176-40h32v32h-32zm-33.753906 48h99.507812l4 16h-107.507812zm-30.246094 32h160v16h-160zm144 32v16h-128v-16zm80 48h-80v-16h16v-32h16v-48h-25.753906l-8-32h-30.246094v-25.566406l49.800781 31.117187c2.542969 1.609375 5.488281 2.449219 8.496094 2.449219h53.703125zm0 0"/><path d="m154.167969 248c-2.289063 0-4.488281-.335938-6.59375-1.007812l-116.253907-36.328126c-9.160156-2.855468-15.320312-11.230468-15.320312-20.832031 0-12.039062 9.792969-21.832031 21.832031-21.832031h.0625c2.226563 0 4.425781.335938 6.53125 1.007812l116.253907 36.328126c9.160156 2.855468 15.320312 11.230468 15.320312 20.832031 0 12.039062-9.792969 21.832031-21.832031 21.832031zm0 0" fill="#f0bc5e"/></svg>