<svg height="496pt" viewBox="0 -8 496 496" width="496pt" xmlns="http://www.w3.org/2000/svg"><path d="m379.886719 248h-83.886719v32l88 16-3.792969-47.054688c-.109375-.3125-.199219-.632812-.320312-.945312zm0 0" fill="#f0bc5e"/><path d="m96 440c-30.878906 0-56-25.121094-56-56s25.121094-56 56-56 56 25.121094 56 56-25.121094 56-56 56zm0 0" fill="#f0bc5e"/><path d="m96 288c-52.9375 0-96 43.0625-96 96s43.0625 96 96 96 96-43.0625 96-96-43.0625-96-96-96zm46.671875 160.839844-7.742187-13.414063-13.859376 8 7.761719 13.445313c-7.71875 3.496094-16.054687 5.847656-24.832031 6.722656v-15.59375h-16v15.59375c-8.785156-.875-17.113281-3.234375-24.832031-6.722656l7.761719-13.445313-13.859376-8-7.742187 13.414063c-6.992187-5.046875-13.121094-11.175782-18.167969-18.167969l13.414063-7.742187-8-13.859376-13.445313 7.761719c-3.488281-7.71875-5.847656-16.046875-6.722656-24.832031h15.59375v-16h-15.59375c.875-8.785156 3.234375-17.113281 6.722656-24.832031l13.445313 7.761719 8-13.859376-13.414063-7.742187c5.046875-6.992187 11.175782-13.121094 18.167969-18.167969l7.742187 13.414063 13.859376-8-7.761719-13.445313c7.71875-3.496094 16.054687-5.847656 24.832031-6.722656v15.59375h16v-15.59375c8.785156.875 17.121094 3.234375 24.832031 6.722656l-7.761719 13.445313 13.859376 8 7.742187-13.414063c6.992187 5.046875 13.121094 11.175782 18.167969 18.167969l-13.414063 7.742187 8 13.859376 13.445313-7.761719c3.496094 7.71875 5.847656 16.054687 6.722656 24.832031h-15.59375v16h15.59375c-.875 8.785156-3.234375 17.113281-6.722656 24.832031l-13.445313-7.761719-8 13.859376 13.414063 7.742187c-5.046875 6.992187-11.175782 13.121094-18.167969 18.167969zm0 0"/><path d="m96 344c-22.054688 0-40 17.945312-40 40s17.945312 40 40 40 40-17.945312 40-40-17.945312-40-40-40zm0 64c-13.230469 0-24-10.769531-24-24s10.769531-24 24-24 24 10.769531 24 24-10.769531 24-24 24zm0 0"/><path d="m88 376h16v16h-16zm0 0"/><path d="m494.894531 233.695312-15.207031-76.039062c-4.128906-20.664062-19.382812-36.761719-38.703125-42.878906 9.222656-8.753906 15.015625-21.089844 15.015625-34.777344v-32c0-26.472656-21.527344-48-48-48s-48 21.527344-48 48h-24v16h24v16c0 20.710938 13.207031 38.34375 31.625 45.0625l-72.457031 72.464844-73.160157-11.703125-27.863281-62.695313 39.183594-63.296875c16.984375-27.449219 46.398437-43.832031 78.671875-43.832031v-16c-37.855469 0-72.351562 19.214844-92.28125 51.40625l-69.519531 112.296875-118.183594-111.96875c-13.816406-13.09375-29.976563-19.734375-48.015625-19.734375h-8v290.808594l13.863281-14.953125c21.136719-22.785157 51.074219-35.855469 82.136719-35.855469 61.761719 0 112 50.238281 112 112v24h174.238281l-5.132812 25.6875c-.113281.570312-.496094 1.066406-1.007813 1.320312l-22.21875 11.113282c-6.09375 3.046875-9.878906 9.175781-9.878906 15.992187 0 9.863281 8.023438 17.886719 17.886719 17.886719h118.113281c8.824219 0 16-7.175781 16-16v-219.167969c0-3.742187-.367188-7.488281-1.105469-11.136719zm-99.535156 190.304688 3.527344-17.625c5.371093-2.597656 9.113281-8.09375 9.113281-14.613281l-2.433594-79.945313c0-9.527344-5.460937-17.816406-13.566406-21.664062v-18.351563c8.953125-.289062 17.839844-1.046875 26.632812-2.3125 8.839844 43.496094 13.367188 87.917969 13.367188 132.273438v22.238281zm39.03125-157.320312c15.304687-3.265626 30.304687-7.992188 44.882813-14.238282l.726562-.304687v171.863281h-32v-22.238281c0-45.296875-4.617188-90.664063-13.609375-135.082031zm29.609375-105.878907 14.878906 74.40625-5.910156 2.535157c-26.28125 11.265624-54.015625 17.296874-82.511719 18.097656-2.25-10.902344-6.945312-20.910156-13.546875-29.433594l62.121094-62.125c5.785156-5.785156 8.96875-13.464844 8.96875-21.65625 0-2.527344-.390625-4.945312-.976562-7.296875 8.503906 5.863281 14.839843 14.785156 16.976562 25.472656zm-88 109.765625v15.839844l-72-13.09375v-17.3125h70.105469c1.238281 4.65625 1.894531 9.535156 1.894531 14.566406zm56-127.941406c0 3.847656-1.558594 7.613281-4.289062 10.34375l-61.925782 61.933594c-7.847656-6.4375-17.144531-11.253906-27.433594-13.941406l68.671876-68.679688c2.769531-2.761719 6.441406-4.28125 10.34375-4.28125 8.074218 0 14.632812 6.558594 14.632812 14.625zm-24-126.625c17.648438 0 32 14.351562 32 32h-64c0-17.648438 14.351562-32 32-32zm-32 64v-16h64v16c0 17.648438-14.351562 32-32 32s-32-14.351562-32-32zm-168.046875 59.585938 19.207031 43.214843-39.457031-6.3125-1.640625-1.550781zm-162.945313-76.242188 118.914063 112.65625h-25.257813l-29.40625-22.0625-78.226562-78.21875c-4.289062-4.285156-9.40625-7.445312-15.03125-9.414062v-17.703126c10.65625 1.621094 20.382812 6.566407 29.007812 14.742188zm-13.007812 100.65625c0 1.367188.214844 2.679688.40625 4h-16.40625v-83.945312c1.3125.875 2.574219 1.839843 3.710938 2.976562l48.976562 48.96875h-8.6875c-15.441406 0-28 12.558594-28 28zm28-12h24.6875l13.65625 13.65625 13.734375 10.34375h-52.078125c-6.617188 0-12-5.382812-12-12s5.382812-12 12-12zm-44 132.097656v-100.097656h24.464844c5.054687 4.9375 11.933594 8 19.535156 8h67.808594c-.871094 22.480469-5.464844 44.433594-13.632813 65.441406-5.953125-.847656-11.992187-1.441406-18.175781-1.441406-29.160156 0-57.441406 10.070312-80 28.097656zm114.046875-23.355468c8.289063-22.101563 12.90625-45.148438 13.761719-68.742188h39.558594l145.480468 23.273438c16.222656 2.589843 29.800782 11.839843 38.160156 24.726562h-79.007812v46.679688l94.785156 17.222656c3.925782.609375 6.78125 3.929687 6.789063 8.152344l.96875 31.945312h-173.03125c-13.335938-40.390625-46.246094-71.855469-87.464844-83.257812zm91.617187 99.257812h169.359376l.976562 32h-168v-8c0-8.207031-.847656-16.214844-2.335938-24zm138.335938 102.113281c0-.722656.398438-1.371093 1.039062-1.6875l22.21875-11.113281c3.957032-1.984375 6.902344-5.304688 8.511719-9.3125h30.335938l-12.234375 6.121094c-6.085938 3.046875-9.871094 9.175781-9.871094 15.992187v1.886719h-38.113281c-1.039063 0-1.886719-.847656-1.886719-1.886719zm56 1.886719v-1.886719c0-.722656.398438-1.371093 1.039062-1.6875l21.082032-10.539062c4.175781-2.085938 7.144531-5.679688 8.679687-9.878907h33.199219v24h-64zm0 0"/></svg>