<?xml version="1.0" encoding="iso-8859-1"?>
<!-- Generator: Adobe Illustrator 19.0.0, SVG Export Plug-In . SVG Version: 6.00 Build 0)  -->
<svg version="1.1" id="Capa_1" xmlns="http://www.w3.org/2000/svg" xmlns:xlink="http://www.w3.org/1999/xlink" x="0px" y="0px"
	 viewBox="0 0 496 496" style="enable-background:new 0 0 496 496;" xml:space="preserve">
<g>
	<path style="fill:#F0BC5E;" d="M104,144H40c-4.424,0-8-3.576-8-8V8c0-4.424,3.576-8,8-8h64c4.424,0,8,3.576,8,8v128
		C112,140.424,108.424,144,104,144z"/>
	<path style="fill:#F0BC5E;" d="M456,144h-64c-4.424,0-8-3.576-8-8V8c0-4.424,3.576-8,8-8h64c4.424,0,8,3.576,8,8v128
		C464,140.424,460.424,144,456,144z"/>
	<path style="fill:#F0BC5E;" d="M104,496H40c-4.424,0-8-3.576-8-8V360c0-4.424,3.576-8,8-8h64c4.424,0,8,3.576,8,8v128
		C112,492.424,108.424,496,104,496z"/>
	<path style="fill:#F0BC5E;" d="M456,496h-64c-4.424,0-8-3.576-8-8V360c0-4.424,3.576-8,8-8h64c4.424,0,8,3.576,8,8v128
		C464,492.424,460.424,496,456,496z"/>
</g>
<rect x="80" y="32" width="32" height="16"/>
<rect x="80" y="64" width="32" height="16"/>
<rect x="80" y="96" width="32" height="16"/>
<rect x="32" y="32" width="32" height="16"/>
<rect x="32" y="64" width="32" height="16"/>
<rect x="32" y="96" width="32" height="16"/>
<rect x="432" y="32" width="32" height="16"/>
<rect x="432" y="64" width="32" height="16"/>
<rect x="432" y="96" width="32" height="16"/>
<rect x="384" y="32" width="32" height="16"/>
<rect x="384" y="64" width="32" height="16"/>
<rect x="384" y="96" width="32" height="16"/>
<rect x="80" y="384" width="32" height="16"/>
<rect x="80" y="416" width="32" height="16"/>
<rect x="80" y="448" width="32" height="16"/>
<rect x="32" y="384" width="32" height="16"/>
<rect x="32" y="416" width="32" height="16"/>
<rect x="32" y="448" width="32" height="16"/>
<rect x="432" y="384" width="32" height="16"/>
<rect x="432" y="416" width="32" height="16"/>
<rect x="432" y="448" width="32" height="16"/>
<rect x="384" y="384" width="32" height="16"/>
<rect x="384" y="416" width="32" height="16"/>
<rect x="384" y="448" width="32" height="16"/>
<path d="M277.296,436.792C272.184,448.464,260.688,456,248,456s-24.184-7.536-29.296-19.208L216.608,432H112v16h94.472
	c8.512,14.736,24.288,24,41.528,24s33.016-9.264,41.528-24H384v-16H279.392L277.296,436.792z"/>
<path d="M298.736,28.424L273.888,16h-51.776l-24.848,12.424c-7.608,3.808-12.48,11.2-13.136,19.576H112v16h72v16h-72v16h40v94.112
	l-24,48V400h-16v16h104.608l2.096-4.792C223.816,399.536,235.312,392,248,392c12.688,0,24.184,7.536,29.296,19.208l2.096,4.792H384
	v-16h-16V238.112l-24-48V96h40V80h-72V64h72V48h-72.128C311.216,39.624,306.344,32.232,298.736,28.424z M232,32h32v32h-32V32z
	 M200,49.888c0-3.048,1.696-5.792,4.424-7.152L216,36.944V80h64V36.944l11.576,5.792c2.728,1.36,4.424,4.104,4.424,7.152V120
	c0,4.408-3.592,8-8,8h-80c-4.408,0-8-3.592-8-8V49.888z M206.472,400H144V241.888l24-48V96h16v24c0,13.232,10.768,24,24,24h16
	v238.456C216.816,386.616,210.728,392.616,206.472,400z M328,96v97.888l24,48V400h-62.472c-4.264-7.384-10.352-13.384-17.528-17.544
	V352h-16v24.752c-2.624-0.448-5.28-0.752-8-0.752s-5.376,0.304-8,0.752V144h16v192h16V144h16c13.232,0,24-10.768,24-24V96H328z"/>
<g>
</g>
<g>
</g>
<g>
</g>
<g>
</g>
<g>
</g>
<g>
</g>
<g>
</g>
<g>
</g>
<g>
</g>
<g>
</g>
<g>
</g>
<g>
</g>
<g>
</g>
<g>
</g>
<g>
</g>
</svg>
