<svg id="Layer_35" enable-background="new 0 0 64 64" height="512" viewBox="0 0 64 64" width="512" xmlns="http://www.w3.org/2000/svg"><path d="m32 53c-11.58 0-21-9.421-21-21s9.42-21 21-21 21 9.421 21 21-9.42 21-21 21zm0-35c-7.72 0-14 6.28-14 14s6.28 14 14 14 14-6.28 14-14-6.28-14-14-14z" fill="#f0bc5e"/><path d="m27 32c0 2.757 2.243 5 5 5s5-2.243 5-5-2.243-5-5-5-5 2.243-5 5zm8 0c0 1.654-1.346 3-3 3s-3-1.346-3-3 1.346-3 3-3 3 1.346 3 3z"/><path d="m32 17c-8.271 0-15 6.729-15 15s6.729 15 15 15 15-6.729 15-15-6.729-15-15-15zm11.085 8.243-3.949 1.283c-1.062-1.384-2.494-2.425-4.136-3.004v-4.159c3.414.811 6.303 2.967 8.085 5.88zm-10.085-6.192v5.985l.75.193c1.718.444 3.192 1.515 4.15 3.015l.416.652 5.698-1.852c.253.612.452 1.25.61 1.905l-5.693 1.85.055.9c.007.101.014.199.014.301 0 1.623-.568 3.205-1.6 4.454l-.494.598 3.513 4.835c-.507.433-1.051.821-1.621 1.172l-3.514-4.837-.721.285c-1.652.652-3.476.652-5.128 0l-.721-.285-3.514 4.837c-.57-.352-1.113-.74-1.621-1.172l3.513-4.835-.492-.598c-1.032-1.249-1.6-2.831-1.6-4.454 0-.102.007-.2.014-.3l.055-.9-5.693-1.85c.158-.654.357-1.293.61-1.905l5.698 1.852.416-.652c.958-1.5 2.432-2.57 4.15-3.015l.75-.194v-5.985c.331-.026.662-.051 1-.051s.669.025 1 .051zm-4 .312v4.159c-1.643.579-3.075 1.62-4.136 3.004l-3.949-1.283c1.782-2.913 4.671-5.069 8.085-5.88zm-10 12.637c0-.355.025-.704.053-1.052l3.95 1.283c.045 1.743.599 3.44 1.583 4.87l-2.438 3.355c-1.957-2.275-3.148-5.227-3.148-8.456zm7.994 11.995 2.448-3.37c1.666.498 3.45.498 5.116 0l2.448 3.37c-1.542.646-3.232 1.005-5.006 1.005s-3.464-.359-5.006-1.005zm14.859-3.538-2.438-3.355c.983-1.43 1.537-3.127 1.583-4.87l3.95-1.283c.027.347.052.696.052 1.051 0 3.229-1.191 6.181-3.147 8.457z"/><path d="m32 1c-17.093 0-31 13.906-31 31s13.907 31 31 31 31-13.906 31-31-13.907-31-31-31zm29 31c0 .57-.021 1.135-.054 1.697l-3.946-.564v-2.266l3.946-.564c.033.562.054 1.127.054 1.697zm-26.133 23h-5.734l-.822 5.757c-5.239-.669-10.044-2.738-14.029-5.823l3.482-4.643-4.055-4.055-4.643 3.482c-3.085-3.984-5.154-8.789-5.823-14.028l5.757-.823v-5.734l-5.757-.823c.669-5.239 2.738-10.043 5.823-14.028l4.643 3.482 4.055-4.055-3.482-4.643c3.985-3.086 8.79-5.155 14.029-5.823l.822 5.757h5.734l.822-5.757c5.239.669 10.044 2.738 14.029 5.823l-3.482 4.643 4.055 4.055 4.643-3.482c3.085 3.984 5.154 8.789 5.823 14.028l-5.757.823v5.734l5.757.823c-.669 5.239-2.738 10.043-5.823 14.028l-4.643-3.482-4.055 4.055 3.482 4.643c-3.985 3.086-8.79 5.155-14.029 5.823zm-31.867-23c0-.57.021-1.135.054-1.697l3.946.564v2.266l-3.946.564c-.033-.562-.054-1.127-.054-1.697zm50.656-19.26-3.177 2.383-1.602-1.602 2.383-3.178c.844.753 1.644 1.553 2.396 2.397zm-19.959-9.686-.564 3.946h-2.266l-.564-3.946c.562-.033 1.127-.054 1.697-.054s1.135.021 1.697.054zm-20.956 7.29 2.383 3.178-1.602 1.602-3.177-2.383c.751-.845 1.551-1.645 2.396-2.397zm-2.397 40.916 3.177-2.383 1.602 1.602-2.383 3.178c-.844-.753-1.644-1.553-2.396-2.397zm19.959 9.686.564-3.946h2.266l.564 3.946c-.562.033-1.127.054-1.697.054s-1.135-.021-1.697-.054zm20.956-7.29-2.383-3.178 1.602-1.602 3.177 2.383c-.751.845-1.551 1.645-2.396 2.397z"/></svg>