<?xml version="1.0" encoding="utf-8"?>
<!-- Generator: Adobe Illustrator 16.0.0, SVG Export Plug-In . SVG Version: 6.00 Build 0)  -->
<!DOCTYPE svg PUBLIC "-//W3C//DTD SVG 1.1//EN" "http://www.w3.org/Graphics/SVG/1.1/DTD/svg11.dtd">
<svg version="1.1" id="Capa_1" xmlns="http://www.w3.org/2000/svg" xmlns:xlink="http://www.w3.org/1999/xlink" x="0px" y="0px"
	 width="560px" height="560px" viewBox="200 0 560 560" enable-background="new 200 0 560 560" xml:space="preserve">
<path d="M200,0v451.613h72.258v-18.064h36.129v-18.064h-36.129V361.29c0-78.589,43.861-147.108,108.387-182.397v37.881h18.064
	v-46.643c24.984-10.667,52.459-16.583,81.291-16.583s56.308,5.916,81.29,16.583v46.643h18.064v-37.881
	c64.525,35.289,108.388,103.808,108.388,182.397v18.064h18.063V361.29c0-124.509-101.297-225.806-225.807-225.806
	S254.193,236.781,254.193,361.29v72.259h-36.129V135.023C284.903,60.688,380.148,18.064,480,18.064
	c99.852,0,195.097,42.623,261.937,116.959v298.525h-36.13v-36.13h-18.063v18.064h-36.129v18.064h36.129v18.064H760V0H200z
	 M218.064,108.775V18.064h148.012C310.69,36.021,259.857,66.947,218.064,108.775z M593.924,18.064h148.013v90.711
	C700.144,66.947,649.31,36.021,593.924,18.064z"/>
<path fill="#F0BC5E" d="M480,560c-104.584,0-189.677-85.093-189.677-189.678c0-104.584,85.093-189.677,189.677-189.677
	c104.585,0,189.678,85.093,189.678,189.677C669.678,474.907,584.585,560,480,560z"/>
<g>
	<path d="M480,289.032c-44.827,0-81.291,36.463-81.291,81.29s36.463,81.291,81.291,81.291s81.29-36.464,81.29-81.291
		S524.827,289.032,480,289.032z M480,433.549c-34.855,0-63.226-28.371-63.226-63.227c0-34.856,28.37-63.227,63.226-63.227
		s63.226,28.37,63.226,63.227C543.226,405.178,514.854,433.549,480,433.549z"/>
	<path d="M507.097,243.871c0-14.939-12.156-27.097-27.097-27.097s-27.097,12.157-27.097,27.097S465.06,270.968,480,270.968
		S507.097,258.811,507.097,243.871z M470.968,243.871c0-4.986,4.047-9.032,9.032-9.032s9.032,4.046,9.032,9.032
		c0,4.986-4.047,9.032-9.032,9.032S470.968,248.857,470.968,243.871z"/>
	<path d="M409.747,300.069c10.568-10.567,10.568-27.748,0-38.314s-27.747-10.568-38.315,0c-10.568,10.568-10.568,27.747,0,38.314
		c5.284,5.283,12.221,7.922,19.158,7.922C397.526,307.991,404.463,305.354,409.747,300.069z M384.204,274.526
		c1.761-1.761,4.073-2.637,6.386-2.637c2.312,0,4.625,0.876,6.386,2.637c3.522,3.522,3.522,9.25,0,12.771
		c-3.532,3.532-9.24,3.532-12.771,0C380.681,283.775,380.681,278.04,384.204,274.526z"/>
	<path d="M380.645,370.322c0-14.939-12.157-27.098-27.097-27.098s-27.097,12.157-27.097,27.098
		c0,14.939,12.157,27.097,27.097,27.097S380.645,385.262,380.645,370.322z M353.548,379.354c-4.986,0-9.032-4.046-9.032-9.031
		s4.046-9.032,9.032-9.032c4.986,0,9.032,4.047,9.032,9.032C362.581,375.309,358.534,379.354,353.548,379.354z"/>
	<path d="M371.423,440.575c-10.568,10.567-10.568,27.747,0,38.314c5.284,5.283,12.221,7.921,19.157,7.921
		c6.937,0,13.874-2.638,19.158-7.921c10.567-10.567,10.567-27.747,0-38.314C399.17,430.008,381.991,430.008,371.423,440.575z
		 M396.976,466.119c-3.532,3.531-9.24,3.531-12.771,0c-3.523-3.523-3.523-9.249,0-12.772c1.761-1.761,4.073-2.637,6.386-2.637
		c2.312,0,4.625,0.876,6.386,2.637C400.489,456.87,400.489,462.605,396.976,466.119z"/>
	<path d="M480,469.678c-14.938,0-27.097,12.157-27.097,27.098c0,14.939,12.156,27.097,27.097,27.097s27.097-12.157,27.097-27.097
		C507.097,481.835,494.938,469.678,480,469.678z M480,505.807c-4.985,0-9.032-4.047-9.032-9.031c0-4.986,4.047-9.032,9.032-9.032
		s9.032,4.046,9.032,9.032C489.032,501.76,484.985,505.807,480,505.807z"/>
	<path d="M550.253,440.575c-10.567,10.567-10.567,27.747,0,38.314c5.284,5.283,12.221,7.921,19.157,7.921
		c6.936,0,13.874-2.638,19.157-7.921c10.567-10.567,10.567-27.747,0-38.314S560.82,430.008,550.253,440.575z M575.796,466.119
		c-3.531,3.531-9.24,3.531-12.771,0c-3.522-3.523-3.522-9.249,0-12.772c1.762-1.761,4.072-2.637,6.386-2.637
		c2.313,0,4.625,0.876,6.386,2.637C579.318,456.87,579.318,462.605,575.796,466.119z"/>
	<path d="M606.451,343.226c-14.938,0-27.097,12.157-27.097,27.098c0,14.939,12.157,27.097,27.097,27.097
		c14.938,0,27.098-12.157,27.098-27.097C633.549,355.383,621.391,343.226,606.451,343.226z M606.451,379.354
		c-4.985,0-9.032-4.046-9.032-9.031s4.047-9.032,9.032-9.032s9.032,4.047,9.032,9.032
		C615.483,375.309,611.438,379.354,606.451,379.354z"/>
	<path d="M588.577,300.069c10.566-10.567,10.566-27.748,0-38.314c-10.568-10.568-27.747-10.568-38.315,0
		c-10.566,10.568-10.566,27.747,0,38.314c5.284,5.283,12.222,7.922,19.157,7.922C576.356,307.991,583.293,305.354,588.577,300.069z
		 M563.024,274.526c1.762-1.761,4.072-2.637,6.386-2.637c2.313,0,4.625,0.876,6.386,2.637c3.522,3.522,3.522,9.25,0,12.771
		c-3.531,3.532-9.24,3.532-12.771,0C559.511,283.775,559.511,278.04,563.024,274.526z"/>
	<path d="M480,54.193V36.129c-78.581,0-154.912,27.801-214.95,78.292l11.625,13.828C333.46,80.496,405.673,54.193,480,54.193z"/>
	<path d="M252.532,150.785c3.992-4.146,8.111-8.184,12.329-12.104l-12.311-13.223c-4.444,4.146-8.797,8.418-13.016,12.79
		L252.532,150.785z"/>
</g>
</svg>
