<?xml version="1.0" encoding="iso-8859-1"?>
<!-- Generator: Adobe Illustrator 19.0.0, SVG Export Plug-In . SVG Version: 6.00 Build 0)  -->
<svg version="1.1" id="Capa_1" xmlns="http://www.w3.org/2000/svg" xmlns:xlink="http://www.w3.org/1999/xlink" x="0px" y="0px"
	 viewBox="0 0 496 496" style="enable-background:new 0 0 496 496;" xml:space="preserve">
<g>
	<path style="fill:#F0BC5E;" d="M248,88c-17.648,0-32-14.352-32-32v-1.352c0-5.808,1.576-11.504,4.56-16.472L241.136,3.88
		c2.888-4.816,10.832-4.816,13.72,0l20.576,34.296C278.424,43.152,280,48.84,280,54.648V56C280,73.648,265.648,88,248,88z"/>
	<path style="fill:#F0BC5E;" d="M64,264c-17.648,0-32-14.352-32-32v-1.352c0-5.808,1.576-11.504,4.56-16.472l20.576-34.296
		c2.888-4.816,10.832-4.816,13.72,0l20.576,34.296c2.984,4.968,4.56,10.664,4.56,16.472V232C96,249.648,81.648,264,64,264z"/>
	<path style="fill:#F0BC5E;" d="M432,184c-17.648,0-32-14.352-32-32v-1.352c0-5.808,1.576-11.504,4.56-16.472l20.576-34.296
		c2.888-4.816,10.832-4.816,13.72,0l20.576,34.296c2.984,4.968,4.56,10.664,4.56,16.472V152C464,169.648,449.648,184,432,184z"/>
</g>
<path d="M48,352H32c0-22.056,17.944-40,40-40v16C58.768,328,48,338.768,48,352z"/>
<path d="M493.8,305.456l-33.664-72.92c-9.12-19.768-29.08-32.536-50.848-32.536H226.504c-19.232,0-37.312,7.488-50.904,21.088
	L116.688,280H72c-39.704,0-72,32.304-72,72v56c0,13.232,10.768,24,24,24h24v-16H24c-4.416,0-8-3.592-8-8v-56
	c0-30.88,25.128-56,56-56h51.312l63.6-63.6c10.576-10.576,24.632-16.4,39.592-16.4h182.784c15.544,0,29.8,9.12,36.312,23.24
	l33.664,72.92c0.488,1.04,0.736,2.2,0.736,3.352V328h-16v16h16v16h-16v16h16v32c0,4.408-3.584,8-8,8h-24v16h24
	c13.232,0,24-10.768,24-24v-92.488C496,312.064,495.232,308.584,493.8,305.456z"/>
<rect x="216" y="320" width="32" height="16"/>
<polygon points="296,416 296,320 280,320 280,416 176,416 176,432 320,432 320,416 "/>
<path style="fill:#F0BC5E;" d="M112,496c-39.704,0-72-32.304-72-72s32.296-72,72-72s72,32.304,72,72S151.704,496,112,496z"/>
<path d="M112,456c-17.648,0-32-14.352-32-32s14.352-32,32-32s32,14.352,32,32S129.648,456,112,456z M112,408
	c-8.824,0-16,7.176-16,16s7.176,16,16,16s16-7.176,16-16S120.824,408,112,408z"/>
<path style="fill:#F0BC5E;" d="M384,496c-39.704,0-72-32.304-72-72s32.296-72,72-72s72,32.304,72,72S423.704,496,384,496z"/>
<path d="M384,456c-17.648,0-32-14.352-32-32s14.352-32,32-32s32,14.352,32,32S401.648,456,384,456z M384,408
	c-8.824,0-16,7.176-16,16s7.176,16,16,16s16-7.176,16-16S392.824,408,384,408z"/>
<path d="M457.88,304H137.936l60.288-60.288c7.448-7.44,17.752-11.712,28.28-11.712H360v16H226.504c-6.32,0-12.504,2.56-16.968,7.024
	L176.56,288h256.304l-16.32-35.352c-1.296-2.824-4.144-4.648-7.256-4.648H376v-16h33.288c9.336,0,17.88,5.48,21.792,13.952
	L457.88,304z"/>
<rect width="16" height="16"/>
<rect x="56" y="96" width="16" height="16"/>
<rect x="152" y="40" width="16" height="16"/>
<rect x="120" y="208" width="16" height="16"/>
<rect x="240" y="136" width="16" height="16"/>
<rect x="344" y="104" width="16" height="16"/>
<rect x="376" width="16" height="16"/>
<rect x="480" y="56" width="16" height="16"/>
<g>
</g>
<g>
</g>
<g>
</g>
<g>
</g>
<g>
</g>
<g>
</g>
<g>
</g>
<g>
</g>
<g>
</g>
<g>
</g>
<g>
</g>
<g>
</g>
<g>
</g>
<g>
</g>
<g>
</g>
</svg>
