<svg id="_x33_0" enable-background="new 0 0 64 64" height="512" viewBox="0 0 64 64" width="512" xmlns="http://www.w3.org/2000/svg"><g><g><path d="m60 41h3v2h-3z"/></g><g><path d="m55 35h2v3h-2z"/></g><g><path d="m55 46h2v3h-2z"/></g><g><path d="m58.378 37.086h3.071v2h-3.071z" transform="matrix(.707 -.707 .707 .707 -9.382 53.521)"/></g><g><path d="m51.086 36.55h2v3.071h-2z" transform="matrix(.707 -.707 .707 .707 -11.675 47.985)"/></g><g><path d="m58.914 44.378h2v3.071h-2z" transform="matrix(.707 -.707 .707 .707 -14.918 55.814)"/></g><g><path d="m21.599 23.489h6.092v2h-6.092z" transform="matrix(.868 -.496 .496 .868 -8.903 15.454)"/></g><g><path d="m21.693 31.845h4.659v2h-4.659z" transform="matrix(.868 -.496 .496 .868 -13.13 16.246)"/></g><g><path d="m38.356 21.443h2v6.092h-2z" transform="matrix(.496 -.868 .868 .496 -1.433 46.508)"/></g><g><path d="m38.978 30.515h2v4.659h-2z" transform="matrix(.496 -.868 .868 .496 -8.373 51.262)"/></g><g><path d="m56 47c-2.757 0-5-2.243-5-5s2.243-5 5-5 5 2.243 5 5-2.243 5-5 5z" fill="#f0bc5e"/></g><path d="m26 15c-.552 0-1 .448-1 1s.448 1 1 1 1-.448 1-1-.448-1-1-1z"/><path d="m38 15c-.552 0-1 .448-1 1s.448 1 1 1 1-.448 1-1-.448-1-1-1z"/><g><path d="m47.998 24.516-1.945-.465c.629-2.632.947-5.341.947-8.051 0-7.168-5.832-13-13-13h-4c-7.168 0-13 5.832-13 13 0 2.709.318 5.418.947 8.051l-1.945.465c-.665-2.786-1.002-5.65-1.002-8.516 0-8.271 6.729-15 15-15h4c8.271 0 15 6.729 15 15 0 2.866-.337 5.731-1.002 8.516z"/></g><path d="m36 9h-8c-4.963 0-9 4.038-9 9v6h2v-3h6.714v-2h-6.714v-1c0-3.86 3.141-7 7-7h8c3.859 0 7 3.14 7 7v1h-6.714v2h6.714v3h2v-6c0-4.962-4.037-9-9-9z"/><g><path d="m43 49h-6v-6h6zm-4-2h2v-2h-2z"/></g><g><path d="m37 51h2v2h-2z"/></g><g><path d="m41 51h2v2h-2z"/></g><g><path d="m12 7h3v2h-3z"/></g><g><path d="m7 1h2v3h-2z"/></g><g><path d="m1 7h3v2h-3z"/></g><g><path d="m7 12h2v3h-2z"/></g><g><path d="m10.378 3.086h3.071v2h-3.071z" transform="matrix(.707 -.707 .707 .707 .601 9.621)"/></g><g><path d="m3.086 2.55h2v3.071h-2z" transform="matrix(.707 -.707 .707 .707 -1.692 4.087)"/></g><g><path d="m2.55 10.914h3.071v2h-3.071z" transform="matrix(.707 -.707 .707 .707 -7.228 6.379)"/></g><g><path d="m10.914 10.379h2v3.071h-2z" transform="matrix(.707 -.707 .707 .707 -4.935 11.916)"/></g><g><path d="m57 5h2v3h-2z"/></g><g><path d="m53 9h3v2h-3z"/></g><g><path d="m57 12h2v3h-2z"/></g><g><path d="m60 9h3v2h-3z"/></g><g><g><path d="m6 27c-.801 0-1.555-.312-2.121-.879l-2-2c-.567-.566-.879-1.32-.879-2.121s.312-1.555.879-2.121c1.133-1.134 3.109-1.134 4.242 0l2 2c.566.566.879 1.32.879 2.121s-.313 1.555-.879 2.121c-.566.567-1.32.879-2.121.879zm-2-6c-.271 0-.516.102-.707.293-.191.192-.293.436-.293.707s.102.515.293.707l2 2c.383.383 1.031.383 1.414 0 .191-.192.293-.436.293-.707s-.102-.515-.293-.707l-2-2c-.191-.191-.436-.293-.707-.293z"/></g></g><g><path d="m8 13c-2.757 0-5-2.243-5-5s2.243-5 5-5 5 2.243 5 5-2.243 5-5 5z" fill="#f0bc5e"/></g><path d="m46.534 35.253-1.328 1.494c4.953 4.403 7.794 10.725 7.794 17.344v6.909h-6v-11.172c0-1.534.622-3.036 1.707-4.121l-1.414-1.414c-1.457 1.457-2.293 3.475-2.293 5.535v11.172h-10v-27h-2v27h-2v-27h-2v27h-10v-11.172c0-2.061-.836-4.078-2.293-5.535l-1.414 1.414c1.085 1.085 1.707 2.587 1.707 4.121v11.172h-6v-6.909c0-6.619 2.841-12.94 7.794-17.344l-1.328-1.494c-.163.144-.306.305-.465.453l-.647-.647-1.647 1.647c-.383.383-1.031.383-1.414 0-.191-.19-.293-.435-.293-.706s.102-.516.293-.707l3.437-3.437-1.414-1.414-3.437 3.437c-.567.566-.879 1.32-.879 2.121s.312 1.555.879 2.121c.566.567 1.32.879 2.121.879.016 0 .031-.004.047-.005-2.675 3.574-4.376 7.802-4.883 12.259-1.092-.438-2.429-.232-3.286.625l-4 4c-.566.566-.878 1.32-.878 2.121s.312 1.555.879 2.121c.566.567 1.32.879 2.121.879s1.555-.312 2.121-.879l2.879-2.879v5.758h46v-8.909c0-7.191-3.086-14.057-8.466-18.838zm-37.827 19.454-4 4c-.383.383-1.031.383-1.414 0-.191-.191-.293-.436-.293-.707s.102-.516.293-.707l4-4c.191-.191.436-.293.707-.293s.516.102.707.293.293.436.293.707-.102.516-.293.707z"/><g><g><path d="m58 33c-.801 0-1.555-.312-2.121-.879-.567-.566-.879-1.32-.879-2.121s.312-1.555.879-2.121l2-2c1.133-1.134 3.109-1.134 4.242 0 .566.566.879 1.32.879 2.121s-.313 1.555-.879 2.121l-2 2c-.566.567-1.32.879-2.121.879zm2-6c-.271 0-.516.102-.707.293l-2 2c-.191.192-.293.436-.293.707s.102.515.293.707c.383.383 1.031.383 1.414 0l2-2c.191-.192.293-.436.293-.707s-.102-.515-.293-.707c-.191-.191-.436-.293-.707-.293z"/></g></g><g><path d="m3 31h2v2h-2z"/></g><g><path d="m11 17h2v2h-2z"/></g><g><path d="m7 43h2v2h-2z"/></g><g><path d="m49 3h2v2h-2z"/></g><g><path d="m61 19h2v2h-2z"/></g><g><path d="m51 29h2v2h-2z"/></g><g><path d="m59 53h2v2h-2z"/></g><g><g><path d="m36.133 35h-8.266c-1.581 0-2.867-1.286-2.867-2.867 0-.136.01-.273.029-.408l1.735-12.149c.21-1.468 1.486-2.576 2.97-2.576h4.531c1.483 0 2.76 1.107 2.97 2.576l1.736 12.151c.019.133.029.27.029.406 0 1.581-1.286 2.867-2.867 2.867z" fill="#f0bc5e"/></g></g><path d="m32 25c-.552 0-1 .448-1 1s.448 1 1 1 1-.448 1-1-.448-1-1-1z"/><g><path d="m32 31c-2.757 0-5-2.243-5-5s2.243-5 5-5 5 2.243 5 5-2.243 5-5 5zm0-8c-1.654 0-3 1.346-3 3s1.346 3 3 3 3-1.346 3-3-1.346-3-3-3z"/></g><g><path d="m20 37h-2c-1.654 0-3-1.346-3-3v-8c0-1.654 1.346-3 3-3h2c1.654 0 3 1.346 3 3v8c0 1.654-1.346 3-3 3z" fill="#f0bc5e"/></g><g><path d="m58 13c-1.654 0-3-1.346-3-3s1.346-3 3-3 3 1.346 3 3-1.346 3-3 3z" fill="#f0bc5e"/></g><g><path d="m57 61h2v2h-2z"/></g><g><path d="m54 24c-1.654 0-3-1.346-3-3v-2c0-1.654 1.346-3 3-3s3 1.346 3 3v2c0 1.654-1.346 3-3 3zm0-6c-.552 0-1 .449-1 1v2c0 .551.448 1 1 1s1-.449 1-1v-2c0-.551-.448-1-1-1z"/></g><g><path d="m46 37h-2c-1.654 0-3-1.346-3-3v-8c0-1.654 1.346-3 3-3h2c1.654 0 3 1.346 3 3v8c0 1.654-1.346 3-3 3z" fill="#f0bc5e"/></g></g></svg>