<?xml version="1.0" encoding="utf-8"?>
<!-- Generator: Adobe Illustrator 16.0.0, SVG Export Plug-In . SVG Version: 6.00 Build 0)  -->
<!DOCTYPE svg PUBLIC "-//W3C//DTD SVG 1.1//EN" "http://www.w3.org/Graphics/SVG/1.1/DTD/svg11.dtd">
<svg version="1.1" id="Capa_1" xmlns="http://www.w3.org/2000/svg" xmlns:xlink="http://www.w3.org/1999/xlink" x="0px" y="0px"
	 width="960px" height="560px" viewBox="0 0 960 560" enable-background="new 0 0 960 560" xml:space="preserve">
<rect x="317.419" y="117.419" fill="#F0BC5E" width="198.709" height="162.581"/>
<g>
	<path d="M373.727,361.29h86.096l-43.048-71.743L373.727,361.29z M405.628,343.226l11.146-18.579l11.146,18.579H405.628z"/>
	<path d="M416.774,523.356l43.048-71.743h-86.096L416.774,523.356z M416.774,488.257l-11.146-18.579h22.292L416.774,488.257z"/>
	<path d="M371.613,449.509v-86.104l-71.752,43.047L371.613,449.509z M353.548,417.589l-18.57-11.138l18.57-11.137V417.589z"/>
	<path d="M461.936,449.509l71.752-43.058l-71.752-43.057V449.509z M480,395.314l18.57,11.137L480,417.589V395.314z"/>
	<rect x="470.968" y="234.839" width="18.064" height="18.064"/>
	<rect x="344.516" y="234.839" width="108.387" height="18.064"/>
	<rect x="344.516" y="198.709" width="144.516" height="18.065"/>
	<path d="M687.742,72.258h-72.259v108.387h27.098v49.678c0,12.456-10.135,22.581-22.581,22.581s-22.581-10.125-22.581-22.581V40.645
		C597.419,18.236,579.184,0,556.774,0H448.387c-22.408,0-40.645,18.236-40.645,40.645v31.613h-90.323
		c-24.902,0-45.162,20.26-45.162,45.162v179.354c0,1.065,0.036,2.149,0.118,3.215l15.581,218.066
		C289.627,541.574,309.417,560,333,560h167.558c23.583,0,43.363-18.426,45.044-41.945l15.58-218.058
		c0.072-1.065,0.108-2.149,0.108-3.224V117.419c0-24.902-20.259-45.162-45.161-45.162h-90.322V40.645
		c0-12.456,10.134-22.581,22.58-22.581h108.388c12.446,0,22.58,10.125,22.58,22.581v189.678c0,22.409,18.236,40.645,40.646,40.645
		s40.646-18.236,40.646-40.645v-49.678h27.097V72.258z M543.226,117.419v179.354c0,0.641-0.018,1.291-0.072,1.933l-15.58,218.065
		c-1.003,14.108-12.871,25.164-27.024,25.164H333c-14.145,0-26.022-11.056-27.024-25.164l-15.581-218.074
		c-0.054-0.633-0.072-1.273-0.072-1.924V117.419c0-14.939,12.157-27.097,27.097-27.097h198.709
		C531.068,90.323,543.226,102.48,543.226,117.419z M669.678,162.581h-36.129V90.323h36.129V162.581z"/>
</g>
<rect x="633.549" y="108.387" fill="#F0BC5E" width="36.129" height="18.064"/>
</svg>
