<svg height="496pt" viewBox="-15 0 495 496" width="496pt" xmlns="http://www.w3.org/2000/svg"><path d="m408.5 392h-64l-8 32h80zm0 0" fill="#f0bc5e"/><path d="m40.5 408h64v80h-64zm0 0" fill="#f0bc5e"/><path d="m226.707031 186.296875-15.328125-4.59375c3.554688-11.886719 8.042969-23.671875 13.304688-35.015625l14.511718 6.753906c-4.941406 10.636719-9.152343 21.695313-12.488281 32.855469zm0 0"/><path d="m304.234375 123.183594-6.199219 14.753906c46.96875 19.726562 77.488282 65 78.386719 115.773438-11.746094-13.277344-28.851563-21.710938-47.921875-21.710938-11.625 0-22.734375 3.121094-32.480469 8.894531-1.925781-32.46875-10.007812-64.742187-23.710937-94.191406l-14.496094 6.753906c12.632812 27.144531 20.136719 56.863281 22.113281 86.789063-9.480469-5.375-20.226562-8.246094-31.425781-8.246094-11.207031 0-21.953125 2.878906-31.441406 8.257812.839844-12.953124 2.671875-25.832031 5.5625-38.464843l-15.59375-3.578125c-3.207032 14.007812-5.230469 28.304687-6.070313 42.671875-9.738281-5.765625-20.839843-8.886719-32.457031-8.886719-19.070312 0-36.183594 8.433594-47.910156 21.71875.886718-50 30.773437-95.007812 76.742187-115.085938l-6.40625-14.65625c-52.503906 22.925782-86.425781 74.75-86.425781 132.023438v40h16c0-26.472656 21.527344-48 48-48 12.992188 0 25.167969 5.128906 34.28125 14.441406l5.71875 5.839844 5.71875-5.839844c7.21875-7.371094 16.351562-12.066406 26.28125-13.730468v143.289062c0 8.824219-7.175781 16-16 16s-16-7.175781-16-16v-16h-16v16c0 17.648438 14.351562 32 32 32s32-14.351562 32-32v-143.289062c9.929688 1.664062 19.070312 6.359374 26.28125 13.730468l5.71875 5.839844 5.71875-5.839844c9.113281-9.3125 21.289062-14.441406 34.28125-14.441406 26.472656 0 48 21.527344 48 48h16v-40c0-58.160156-34.648438-110.289062-88.265625-132.816406zm0 0"/><path d="m248.5 160c-44.113281 0-80-35.886719-80-80s35.886719-80 80-80 80 35.886719 80 80-35.886719 80-80 80zm0 0" fill="#f0bc5e"/><path d="m144.5 496h-144v-107.3125l72-72 72 72zm-128-16h112v-84.6875l-56-56-56 56zm0 0"/><path d="m256.5 72h-16c-4.414062 0-8-3.585938-8-8s3.585938-8 8-8h16c4.414062 0 8 3.585938 8 8h16c0-13.230469-10.769531-24-24-24v-16h-16v16c-13.230469 0-24 10.769531-24 24s10.769531 24 24 24h16c4.414062 0 8 3.585938 8 8s-3.585938 8-8 8h-16c-4.414062 0-8-3.585938-8-8h-16c0 13.230469 10.769531 24 24 24v16h16v-16c13.230469 0 24-10.769531 24-24s-10.769531-24-24-24zm0 0"/><path d="m454.253906 417.113281-20.3125-47.402343c-2.53125-5.894532-8.296875-9.710938-14.714844-9.710938h-85.453124c-6.417969 0-12.183594 3.816406-14.707032 9.703125l-20.320312 47.410156c-5.972656 2.320313-10.246094 8.09375-10.246094 14.886719v16c0 8.824219 7.175781 16 16 16v8c0 13.230469 10.769531 24 24 24s24-10.769531 24-24v-8h48v8c0 13.230469 10.769531 24 24 24s24-10.769531 24-24v-8c8.824219 0 16-7.175781 16-16v-16c0-6.792969-4.273438-12.566406-10.246094-14.886719zm-120.480468-41.113281h85.453124l17.144532 40h-119.742188zm2.726562 96c0 4.414062-3.585938 8-8 8s-8-3.585938-8-8v-8h16zm96 0c0 4.414062-3.585938 8-8 8s-8-3.585938-8-8v-8h16zm-128-24v-16h144l.015625 16zm0 0"/></svg>