<?xml version="1.0" encoding="utf-8"?>
<!-- Generator: Adobe Illustrator 16.0.0, SVG Export Plug-In . SVG Version: 6.00 Build 0)  -->
<!DOCTYPE svg PUBLIC "-//W3C//DTD SVG 1.1//EN" "http://www.w3.org/Graphics/SVG/1.1/DTD/svg11.dtd">
<svg version="1.1" id="Capa_1" xmlns="http://www.w3.org/2000/svg" xmlns:xlink="http://www.w3.org/1999/xlink" x="0px" y="0px"
	 width="512px" height="512px" viewBox="0 0 512 512" enable-background="new 0 0 512 512" xml:space="preserve">
<title>015 - Car Insurance</title>
<desc>Created with Sketch.</desc>
<circle fill="#F0BC5E" stroke="#000000" stroke-miterlimit="10" cx="152.577" cy="178.725" r="37.359"/>
<circle fill="#F0BC5E" stroke="#000000" stroke-miterlimit="10" cx="349.868" cy="178.725" r="37.359"/>
<rect x="119.467" y="426.667" fill="#F0BC5E" stroke="#000000" stroke-miterlimit="10" width="93.867" height="68.267"/>
<rect x="298.666" y="426.667" fill="#F0BC5E" stroke="#000000" stroke-miterlimit="10" width="93.867" height="68.267"/>
<g id="Page-1">
	<g id="_x30_15---Car-Insurance">
		<path id="Shape" d="M27.23,223.684c-9.25,0.001-17.865,4.704-22.869,12.482c-5.004,7.779-5.711,17.568-1.877,25.986l33.442,73.566
			c4.512,9.959,10.788,19.02,18.526,26.743l52.591,52.6c-2.968,3.137-4.628,7.287-4.642,11.605v68.267
			c0,9.426,7.641,17.066,17.067,17.066h93.867c9.425,0,17.066-7.641,17.066-17.066v-68.267c0-9.426-7.641-17.067-17.066-17.067
			v-15.88c0.261-20.21-6.332-39.912-18.705-55.894c-7.254-9.541-17.141-16.752-28.442-20.744
			c-17.973-7.552-34.501-18.159-48.853-31.352c-13.322-10.973-32.248-11.955-46.635-2.424l-18.458-43.127
			C47.957,230.17,38.117,223.681,27.23,223.684z M213.333,494.934h-93.867v-68.267h93.867V494.934z M77.158,323.209l38.98,38.988
			c2.143,2.219,5.315,3.108,8.299,2.327s5.313-3.111,6.094-6.095s-0.109-6.156-2.327-8.299l-38.98-38.988
			c-3.92-3.91-7.444-8.198-10.521-12.8c8.195-6.306,19.659-6.115,27.639,0.46c15.952,14.64,34.389,26.314,54.443,34.476
			c8.172,2.974,15.302,8.26,20.522,15.215c9.945,12.956,15.217,28.896,14.959,45.227v15.88h-70.562L66.5,350.396
			c-6.288-6.278-11.391-13.642-15.062-21.734l-33.442-73.565c-1.427-3.14-1.161-6.79,0.706-9.69c1.867-2.9,5.079-4.654,8.528-4.655
			c4.059-0.003,7.727,2.418,9.318,6.152l19.089,44.519C60.707,303.3,68.013,314.091,77.158,323.209z"/>
		<path id="Shape_1_" d="M187.733,452.267H179.2c-4.713,0-8.534,3.82-8.534,8.533s3.821,8.533,8.534,8.533h8.533
			c4.713,0,8.533-3.82,8.533-8.533S192.446,452.267,187.733,452.267z"/>
		<path id="Shape_2_" d="M476.092,335.727l33.45-73.574c6.068-13.745-0.155-29.806-13.9-35.874s-29.807,0.156-35.874,13.901
			l-18.415,42.965c-14.435-9.493-33.376-8.455-46.687,2.561c-14.352,13.192-30.88,23.8-48.853,31.351
			c-11.302,3.993-21.188,11.204-28.442,20.745c-12.378,15.988-18.972,35.7-18.705,55.919v15.88c-9.425,0-17.066,7.642-17.066,17.067
			v68.267c0,9.426,7.642,17.066,17.066,17.066h93.867c9.426,0,17.066-7.641,17.066-17.066v-68.267
			c-0.009-4.318-1.666-8.469-4.633-11.605l52.599-52.6C465.298,354.736,471.574,345.68,476.092,335.727z M392.533,494.934h-93.867
			v-68.267h93.867V494.934z M386.295,409.6h-70.562v-15.88c-0.258-16.331,5.015-32.271,14.959-45.227
			c5.21-6.947,12.324-12.233,20.479-15.215c20.061-8.159,38.5-19.837,54.451-34.483c7.982-6.566,19.442-6.75,27.632-0.444
			c-3.071,4.603-6.59,8.891-10.505,12.801l-38.988,38.988c-3.234,3.349-3.188,8.671,0.104,11.962
			c3.291,3.292,8.613,3.338,11.962,0.104l38.989-38.989c9.138-9.121,16.44-19.912,21.513-31.786l19.089-44.527
			c1.597-3.731,5.268-6.15,9.326-6.144c3.447,0.003,6.657,1.755,8.522,4.652c1.867,2.898,2.135,6.545,0.711,9.684l-33.45,73.574
			c-3.674,8.091-8.775,15.454-15.062,21.734L386.295,409.6z"/>
		<path id="Shape_3_" d="M332.8,452.267h-8.533c-4.713,0-8.533,3.82-8.533,8.533s3.82,8.533,8.533,8.533h8.533
			c4.713,0,8.534-3.82,8.534-8.533S337.513,452.267,332.8,452.267z"/>
		<path id="Shape_4_" d="M418.133,85.333h-28.355l-27.691-69.24C358.224,6.352,348.792-0.033,338.313,0H190.754
			c-10.479-0.033-19.911,6.352-23.773,16.094l-27.691,69.24H93.867c-18.852,0-34.133,15.282-34.133,34.133v42.667
			c0,14.139,11.461,25.6,25.6,25.6h17.834c4.142,24.625,25.461,42.658,50.432,42.658c24.971,0,46.291-18.033,50.432-42.658h95.402
			c4.142,24.625,25.462,42.658,50.433,42.658s46.29-18.033,50.432-42.658h26.368c14.139,0,25.6-11.461,25.6-25.6v-42.667
			C452.267,100.615,436.984,85.333,418.133,85.333z M435.2,119.467h-8.533c-4.713,0-8.534-3.821-8.534-8.533V102.4
			C427.559,102.4,435.2,110.041,435.2,119.467z M346.231,22.434l25.165,62.899H264.533V17.066h73.779
			C341.806,17.055,344.949,19.185,346.231,22.434z M182.835,22.434c1.282-3.249,4.426-5.379,7.918-5.368h56.713v68.267H157.67
			L182.835,22.434z M93.867,102.4v8.534c0,4.712-3.82,8.533-8.533,8.533H76.8C76.8,110.041,84.441,102.4,93.867,102.4z
			 M153.6,213.333c-18.852,0-34.133-15.282-34.133-34.133c0-18.852,15.282-34.133,34.133-34.133
			c18.851,0,34.133,15.282,34.133,34.133C187.733,198.051,172.451,213.333,153.6,213.333z M349.867,213.333
			c-18.852,0-34.134-15.282-34.134-34.133c0-18.852,15.282-34.133,34.134-34.133c18.851,0,34.133,15.282,34.133,34.133
			C384,198.051,368.718,213.333,349.867,213.333z M426.667,170.667h-26.368c-4.142-24.625-25.461-42.658-50.432-42.658
			s-46.291,18.033-50.433,42.658h-34.901V128c0-4.713-3.82-8.533-8.533-8.533s-8.533,3.82-8.533,8.533v42.667h-43.435
			c-4.142-24.625-25.461-42.658-50.432-42.658c-24.971,0-46.291,18.033-50.432,42.658H85.333c-4.713,0-8.534-3.82-8.534-8.533v-25.6
			h8.534c14.138,0,25.6-11.461,25.6-25.6V102.4h290.133v8.534c0,14.138,11.462,25.6,25.601,25.6h8.533v25.6
			C435.2,166.846,431.38,170.667,426.667,170.667z"/>
		<circle id="Oval" cx="153.6" cy="179.2" r="8.533"/>
		<circle id="Oval_1_" cx="349.867" cy="179.2" r="8.533"/>
	</g>
</g>
</svg>
