<svg height="496pt" viewBox="0 0 496 496" width="496pt" xmlns="http://www.w3.org/2000/svg"><g fill="#f0bc5e"><path d="m64 392h-56v-56zm0 0"/><path d="m72 296v56l-56-56zm0 0"/><path d="m64 200h-56v-56zm0 0"/><path d="m72 104v56l-56-56zm0 0"/><path d="m424 112v40h-176v-40c0-8.800781 7.199219-16 16-16h144c8.800781 0 16 7.199219 16 16zm0 0"/><path d="m416 360-8 40c0 4.398438-3.601562 8-8 8h-128c-4.398438 0-8-3.601562-8-8l-8-40zm0 0"/></g><path d="m0 496h80v-496h-80zm16-16v-80h48v80zm48-272v80h-48v-80zm-48-16v-80h48v80zm48 112v80h-48v-80zm0-288v80h-48v-80zm0 0"/><path d="m480 320h-16.128906l.128906-225.367188c0-6.410156-2.496094-12.441406-7.03125-16.976562l-14.625-14.625c-4.527344-4.535156-10.558594-7.03125-16.96875-7.03125h-178.75c-6.410156 0-12.441406 2.496094-16.96875 7.03125l-14.625 14.625c-4.535156 4.527344-7.03125 10.558594-7.03125 16.976562v225.367188h-16c-8.824219 0-16 7.175781-16 16v16c0 8.824219 7.175781 16 16 16h24.953125l15.757813 84.527344 34.488281 25.871094 43.257812 17.601562h51.078125l42.039063-16.839844 35.601562-17.800781 16.472657-93.359375h24.351562c8.824219 0 16-7.175781 16-16v-16c0-8.824219-7.175781-16-16-16zm-288 32v-16h18.984375l2.984375 16zm208.160156 46.433594-.152344 1.566406h-128.007812l-16-80.792969v-207.207031c0-4.40625 3.585938-8 8-8h144c4.414062 0 8 3.59375 8 8v207.207031zm-41.695312 81.566406h-44.921875l-25.765625-10.304688-6.714844-53.695312h109.882812l-6.714843 53.695312zm66.359375-29.351562-23.566407 11.808593 6.039063-48.296875c4.886719-2.527344 8.351563-7.449218 8.6875-13.238281l15.863281-79.355469.152344-209.566406c0-13.230469-10.769531-24-24-24h-144c-13.230469 0-24 10.769531-24 24v208l16.023438 80.929688c.335937 5.789062 3.792968 10.703124 8.6875 13.230468l5.847656 46.75-23.261719-17.445312-23.296875-124.207032v-224.625c0-2.136718.832031-4.152343 2.34375-5.664062l14.625-14.625c1.496094-1.488281 3.550781-2.34375 5.65625-2.34375h178.75c2.105469 0 4.167969.855469 5.65625 2.34375l14.625 14.625c1.511719 1.511719 2.34375 3.527344 2.34375 5.664062v224.671876zm55.175781-98.648438h-21.527344l2.824219-16h18.703125zm0 0"/><path d="m184 16v-16c-48.519531 0-88 39.480469-88 88h16c0-39.695312 32.296875-72 72-72zm0 0"/><path d="m184 32c-30.871094 0-56 25.121094-56 56h16c0-22.054688 17.945312-40 40-40zm0 0"/><path d="m184 80v-16c-13.230469 0-24 10.769531-24 24h16c0-4.40625 3.585938-8 8-8zm0 0"/></svg>