<?xml version="1.0" encoding="utf-8"?>
<!-- Generator: Adobe Illustrator 16.0.0, SVG Export Plug-In . SVG Version: 6.00 Build 0)  -->
<!DOCTYPE svg PUBLIC "-//W3C//DTD SVG 1.1//EN" "http://www.w3.org/Graphics/SVG/1.1/DTD/svg11.dtd">
<svg version="1.1" id="Layer_1" xmlns="http://www.w3.org/2000/svg" xmlns:xlink="http://www.w3.org/1999/xlink" x="0px" y="0px"
	 width="560px" height="560px" viewBox="200 0 560 560" enable-background="new 200 0 560 560" xml:space="preserve">
<circle fill="#F0BC5E" stroke="#000000" stroke-miterlimit="10" cx="353.507" cy="151.987" r="144.554"/>
<g>
	<g>
		<g>
			<path d="M326.452,469.678c-14.939,0-27.097,12.158-27.097,27.099c0,14.938,12.158,27.097,27.097,27.097
				s27.097-12.158,27.097-27.097C353.547,481.836,341.391,469.678,326.452,469.678z M326.452,505.808
				c-4.986,0-9.032-4.046-9.032-9.031c0-4.987,4.046-9.033,9.032-9.033c4.987,0,9.033,4.046,9.033,9.033
				C335.484,501.762,331.437,505.808,326.452,505.808z"/>
			<path d="M732.902,505.808c22.392,0,27.098-14.739,27.098-27.098v-72.257c0-22.941-12.293-43.346-32.092-53.244l-1.834-0.678
				c-0.324-0.081-32.624-8.509-48.584-31.929l-26.835-53.668c-11.021-22.058-35.325-32.091-53.236-32.091h-113.4
				c14.668-24.063,23.078-52.106,23.078-81.29h-18.064c0,50.843-28.569,97.883-72.257,121.204v-30.881H398.71v54.192h54.192v-18.064
				H442.45c10.74-7.758,20.351-16.908,28.731-27.097h126.234c12.943,0,29.834,7.596,37.078,22.101l27.097,54.192l0.569,0.968
				c18.182,27.268,51.862,37.765,58.438,39.597c13.188,6.964,21.335,20.938,21.335,36.689v72.257c0,7.758-1.272,9.032-9.032,9.032
				h-36.853c-4.408-30.583-30.719-54.192-62.503-54.192s-58.096,23.611-62.502,54.192h-182.09
				c-4.408-30.583-30.718-54.192-62.502-54.192c-31.784,0-58.096,23.611-62.502,54.192h-27.82c-9.619,0-18.065-8.444-18.065-18.064
				v-63.225c0-22.346,14.948-33.41,28.579-36.255l54.482-9.086c11.796-2.367,21.397-8.645,32.553-21.505l37.935-50.572h-18.065
				c-50.843,0-97.882-28.569-121.203-72.257h30.881v-18.065h-54.195v54.193h18.065v-10.514
				c25.354,35.1,65.239,58.755,109.127,63.731l-16.593,22.146c-8.11,9.341-14.298,13.586-21.758,15.084l-54.555,9.096
				C217.414,357.841,200,379.543,200,406.453v63.225c0,19.582,16.547,36.13,36.13,36.13h27.82
				C268.357,536.391,294.668,560,326.452,560h171.611v-18.064H370.61c9.7-9.493,16.322-22.074,18.344-36.13h182.09
				c2.023,14.056,8.644,26.637,18.344,36.13h-37.131V560h207.741v-18.064h-82.293c9.709-9.491,16.321-22.074,18.346-36.128H732.902
				L732.902,505.808z M326.452,541.936c-24.902,0-45.162-20.26-45.162-45.161c0-24.903,20.259-45.162,45.162-45.162
				c24.903,0,45.162,20.259,45.162,45.162C371.614,521.674,351.353,541.936,326.452,541.936z M633.548,541.936
				c-24.902,0-45.162-20.262-45.162-45.161c0-24.903,20.26-45.162,45.162-45.162c24.903,0,45.162,20.259,45.162,45.162
				S658.451,541.936,633.548,541.936z"/>
			<path d="M633.546,469.678c-14.938,0-27.097,12.158-27.097,27.099c0,14.938,12.158,27.097,27.097,27.097
				c14.939,0,27.098-12.158,27.098-27.097C660.644,481.836,648.487,469.678,633.546,469.678z M633.546,505.808
				c-4.986,0-9.032-4.046-9.032-9.031c0-4.987,4.046-9.033,9.032-9.033c4.987,0,9.033,4.046,9.033,9.033
				C642.579,501.762,638.533,505.808,633.546,505.808z"/>
			<rect x="516.129" y="541.936" width="18.064" height="18.064"/>
			<rect x="245.162" y="541.936" width="18.065" height="18.064"/>
			<rect x="209.032" y="541.936" width="18.065" height="18.064"/>
			<path d="M624.516,370.321v-9.032c0-24.903-20.259-45.162-45.161-45.162h-117.42c-24.902,0-45.163,20.259-45.163,45.162h18.065
				c0-14.939,12.158-27.098,27.098-27.098h117.42c14.938,0,27.098,12.157,27.098,27.098v9.032c0,14.938-12.158,27.098-27.098,27.098
				h-86.584l20.711-20.711l-12.771-12.771l-42.515,42.515l42.515,42.514l12.771-12.771l-20.711-20.711h86.584
				C604.257,415.483,624.516,395.226,624.516,370.321z"/>
			<path d="M290.322,32.346v30.881h18.065V9.034h-54.195v18.065h10.451C224.992,55.757,200,103.016,200,153.549h18.065
				C218.065,102.708,246.634,55.668,290.322,32.346z"/>
			<path d="M474.751,90.324h-30.882v18.064h54.192V54.194h-18.064v10.451c-28.656-39.652-75.914-64.644-126.45-64.644v18.065
				C404.39,18.067,451.43,46.636,474.751,90.324z"/>
			<polygon points="299.354,99.356 299.354,109.03 286.077,100.728 276.502,116.046 288.524,123.554 278.435,126.922 
				284.145,144.048 308.387,135.972 336.505,153.549 308.387,171.126 284.145,163.05 278.435,180.176 288.524,183.544 
				276.502,191.052 286.077,206.37 299.354,198.07 299.354,207.744 317.419,207.744 317.419,186.778 344.515,169.842 
				344.515,186.67 319.225,220.387 333.677,231.226 344.515,216.767 344.515,243.871 362.58,243.871 362.58,216.767 
				373.419,231.226 387.871,220.387 362.58,186.67 362.58,169.842 389.677,186.778 389.677,207.744 407.742,207.744 407.742,198.07 
				421.019,206.37 430.592,191.052 418.57,183.544 428.659,180.176 422.952,163.05 398.709,171.126 370.592,153.549 
				398.709,135.972 422.952,144.048 428.659,126.922 418.57,123.554 430.592,116.046 421.019,100.728 407.742,109.03 
				407.742,99.356 389.677,99.356 389.677,120.319 362.58,137.256 362.58,120.428 387.871,86.711 373.419,75.873 362.58,90.333 
				362.58,63.227 344.515,63.227 344.515,90.333 333.677,75.873 319.225,86.711 344.515,120.428 344.515,137.256 317.419,120.319 
				317.419,99.356 			"/>
		</g>
	</g>
</g>
</svg>
