<?xml version="1.0" encoding="utf-8"?>
<!-- Generator: Adobe Illustrator 16.0.0, SVG Export Plug-In . SVG Version: 6.00 Build 0)  -->
<!DOCTYPE svg PUBLIC "-//W3C//DTD SVG 1.1//EN" "http://www.w3.org/Graphics/SVG/1.1/DTD/svg11.dtd">
<svg version="1.1" id="Capa_1" xmlns="http://www.w3.org/2000/svg" xmlns:xlink="http://www.w3.org/1999/xlink" x="0px" y="0px"
	 width="560px" height="560px" viewBox="200 0 560 560" enable-background="new 200 0 560 560" xml:space="preserve">
<circle fill="#F0BC5E" cx="480" cy="280" r="153.549"/>
<g>
	<path d="M760,265.269l-3.062-29.075l-25.635-9.61l19.501-19.202l-9.032-27.802l-27.062-4.073l15.075-22.843l-14.614-25.317
		l-27.313,1.644l10.008-25.48l-19.573-21.723l-26.383,7.289L656.4,62.07l-23.646-17.18L608.457,57.5l-1.22-27.341l-26.69-11.886
		L559.394,35.65l-6.883-26.492l-28.596-6.07l-17.053,21.389L494.614,0h-29.229l-12.237,24.478L436.085,3.08l-28.596,6.069
		l-6.883,26.501l-21.153-17.387l-26.682,11.886l-1.237,27.341l-24.288-12.609L303.6,62.07l4.489,27.006l-26.383-7.289
		l-19.573,21.723l10.008,25.48l-27.313-1.644l-14.614,25.317l15.075,22.843l-27.061,4.073l-9.032,27.802l19.5,19.202l-25.633,9.61
		L200,265.269L223.078,280L200,294.73l3.062,29.075l25.633,9.61l-19.5,19.202l9.032,27.802l27.061,4.073l-15.075,22.843
		l14.614,25.317l27.313-1.645l-10.008,25.479l19.573,21.723l26.383-7.289l-4.489,27.007l23.646,17.179l24.288-12.607l1.237,27.341
		l26.682,11.886l21.153-17.387l6.883,26.491l28.596,6.069l17.063-21.396L465.386,560h29.229l12.237-24.479l17.063,21.397
		l28.596-6.069l6.884-26.491l21.152,17.388l26.69-11.887l1.22-27.342l24.297,12.609l23.646-17.18l-4.489-27.006l26.383,7.287
		l19.573-21.722l-10.008-25.479l27.313,1.644l14.614-25.317l-15.075-22.842l27.061-4.074l9.033-27.801l-19.501-19.203l25.634-9.609
		L760,294.73L736.923,280L760,265.269z M740.147,249.191l0.713,6.865l-17.333,11.073c-0.442-8.508-1.336-16.899-2.638-25.155
		L740.147,249.191z M728.053,195.774l2.132,6.566l-14.678,14.442c-2.203-8.21-4.841-16.231-7.856-24.08L728.053,195.774z
		 M480,505.807c-124.51,0-225.807-101.297-225.807-225.807S355.49,54.193,480,54.193S705.807,155.49,705.807,280
		S604.51,505.807,480,505.807z M705.12,146.042l3.45,5.979l-11.398,17.251c-3.875-7.569-8.12-14.903-12.735-21.984L705.12,146.042z
		 M676.967,107.294l-7.578,19.293c-5.348-6.584-11.002-12.916-16.989-18.914l19.951-5.509L676.967,107.294z M636.746,70.117
		l-3.396,20.449c-6.585-5.338-13.458-10.315-20.574-14.958l18.39-9.547L636.746,70.117z M583.383,39.309l6.296,2.809l0.921,20.648
		c-7.506-3.839-15.228-7.298-23.157-10.36L583.383,39.309z M531.077,23.068l6.757,1.436l5.175,19.925
		c-8.093-2.168-16.348-3.947-24.748-5.275L531.077,23.068z M483.45,18.064l9.195,18.39c-4.184-0.217-8.4-0.325-12.646-0.325
		s-8.463,0.108-12.646,0.325l9.195-18.39H483.45z M428.923,23.068l12.816,16.086c-8.4,1.328-16.655,3.107-24.748,5.275l5.175-19.925
		L428.923,23.068z M376.617,39.309l15.933,13.097c-7.931,3.062-15.662,6.521-23.168,10.369l0.931-20.657L376.617,39.309z
		 M328.836,66.062l18.39,9.547c-7.117,4.643-13.991,9.62-20.575,14.958l-3.396-20.449L328.836,66.062z M287.649,102.173l19.952,5.51
		c-5.988,5.998-11.643,12.32-16.989,18.914l-7.578-19.293L287.649,102.173z M254.88,146.042l20.684,1.247
		c-4.616,7.081-8.861,14.424-12.735,21.994l-11.39-17.252L254.88,146.042z M231.947,195.774l20.395-3.071
		c-3.017,7.84-5.654,15.87-7.858,24.08l-14.677-14.442L231.947,195.774z M219.139,256.056l0.714-6.865l19.257-7.226
		c-1.301,8.255-2.195,16.646-2.638,25.155L219.139,256.056z M219.853,310.809l-0.714-6.863l17.333-11.073
		c0.443,8.508,1.337,16.898,2.638,25.154L219.853,310.809z M231.947,364.226l-2.132-6.565l14.677-14.442
		c2.204,8.21,4.841,16.23,7.858,24.08L231.947,364.226z M254.88,413.957l-3.45-5.979l11.399-17.252
		c3.875,7.569,8.12,14.903,12.735,21.984L254.88,413.957z M283.034,452.706l7.578-19.293c5.347,6.584,11.001,12.916,16.989,18.913
		l-19.952,5.51L283.034,452.706z M323.254,489.883l3.396-20.449c6.584,5.339,13.458,10.314,20.575,14.957l-18.39,9.549
		L323.254,489.883z M376.617,520.691l-6.304-2.81l-0.931-20.657c7.515,3.839,15.237,7.309,23.168,10.369L376.617,520.691z
		 M428.923,536.932l-6.757-1.437l-5.175-19.925c8.093,2.168,16.348,3.946,24.748,5.273L428.923,536.932z M476.55,541.936
		l-9.195-18.39c4.184,0.217,8.4,0.325,12.646,0.325s8.463-0.108,12.646-0.325l-9.195,18.39H476.55z M531.077,536.932l-12.816-16.087
		c8.4-1.327,16.655-3.105,24.748-5.273l-5.175,19.925L531.077,536.932z M583.383,520.691l-15.933-13.098
		c7.931-3.053,15.652-6.521,23.159-10.359l-0.923,20.647L583.383,520.691z M631.164,493.938l-18.39-9.548
		c7.116-4.643,13.989-9.618,20.574-14.957l3.396,20.449L631.164,493.938z M672.351,457.827l-19.951-5.51
		c5.987-5.997,11.643-12.32,16.989-18.913l7.578,19.293L672.351,457.827z M705.12,413.957l-20.685-1.237
		c4.615-7.09,8.869-14.424,12.735-21.993l11.39,17.252L705.12,413.957z M728.053,364.226l-20.395,3.071
		c3.017-7.84,5.653-15.87,7.857-24.08l14.678,14.442L728.053,364.226z M740.86,303.944l-0.713,6.863l-19.258,7.228
		c1.302-8.256,2.194-16.646,2.638-25.155L740.86,303.944z"/>
	<path d="M525.161,280c0-24.902-20.259-45.161-45.161-45.161S434.839,255.098,434.839,280c0,24.902,20.259,45.161,45.161,45.161
		S525.161,304.902,525.161,280z M480,307.097c-14.938,0-27.097-12.157-27.097-27.097c0-14.94,12.156-27.097,27.097-27.097
		S507.097,265.06,507.097,280C507.097,294.939,494.938,307.097,480,307.097z"/>
	<path d="M480,216.774c14.938,0,27.097-12.158,27.097-27.097c0-14.939-12.156-27.097-27.097-27.097s-27.097,12.158-27.097,27.097
		C452.903,204.617,465.062,216.774,480,216.774z M480,180.645c4.985,0,9.032,4.056,9.032,9.032c0,4.977-4.047,9.032-9.032,9.032
		s-9.032-4.055-9.032-9.032C470.968,184.701,475.015,180.645,480,180.645z"/>
	<path d="M419.872,260.454c4.615-14.208-3.197-29.526-17.405-34.142c-14.208-4.606-29.527,3.197-34.142,17.405
		c-4.616,14.208,3.197,29.526,17.405,34.142c2.773,0.903,5.582,1.328,8.346,1.328C405.493,279.187,416.151,271.898,419.872,260.454z
		 M402.684,254.881c-1.536,4.733-6.684,7.325-11.381,5.799c-4.733-1.536-7.334-6.648-5.808-11.381
		c1.237-3.812,4.787-6.241,8.599-6.241c0.93,0,1.861,0.145,2.791,0.442C401.618,245.036,404.219,250.139,402.684,254.881z"/>
	<path d="M442.841,331.149c-5.86-4.255-13.042-5.952-20.159-4.842c-7.154,1.129-13.431,4.978-17.686,10.839
		c-4.263,5.854-5.979,13.016-4.841,20.17c1.129,7.152,4.977,13.431,10.83,17.685c4.688,3.396,10.197,5.185,15.87,5.185
		c1.428,0,2.863-0.116,4.3-0.343c7.152-1.129,13.432-4.977,17.686-10.839c4.263-5.853,5.979-13.016,4.841-20.16
		C452.542,341.69,448.694,335.404,442.841,331.149z M434.225,358.382c-2.943,4.028-8.599,4.933-12.617,1.996
		c-1.951-1.418-3.233-3.514-3.613-5.889c-0.371-2.386,0.199-4.771,1.617-6.721c1.418-1.95,3.522-3.233,5.898-3.612
		c0.479-0.072,0.948-0.117,1.427-0.117c1.896,0,3.73,0.596,5.294,1.725C436.248,348.69,437.142,354.354,434.225,358.382z"/>
	<path d="M537.328,326.309c-7.101-1.11-14.299,0.588-20.16,4.842c-5.854,4.255-9.701,10.541-10.83,17.686
		c-1.138,7.153,0.578,14.307,4.842,20.16c4.255,5.853,10.531,9.7,17.686,10.839c1.428,0.226,2.862,0.343,4.3,0.343
		c5.672,0,11.182-1.778,15.869-5.185c5.854-4.254,9.701-10.531,10.83-17.687c1.138-7.152-0.578-14.307-4.841-20.169
		C550.759,331.285,544.481,327.438,537.328,326.309z M538.402,360.378c-4.021,2.927-9.684,2.023-12.618-1.996
		c-2.917-4.028-2.032-9.683,2.006-12.608c1.563-1.13,3.396-1.726,5.293-1.726c0.479,0,0.948,0.036,1.427,0.117
		c2.386,0.38,4.479,1.662,5.897,3.613c1.409,1.949,1.986,4.335,1.617,6.72C541.636,356.864,540.354,358.96,538.402,360.378z"/>
	<path d="M557.533,226.321c-14.208,4.615-22.021,19.934-17.405,34.142c3.721,11.444,14.379,18.724,25.796,18.724
		c2.765,0,5.573-0.424,8.347-1.328h0.009c14.198-4.616,22.012-19.934,17.396-34.142C587.06,229.51,571.74,221.688,557.533,226.321z
		 M568.688,260.68c-4.696,1.535-9.846-1.057-11.381-5.799c-1.535-4.742,1.065-9.845,5.799-11.381
		c0.931-0.298,1.86-0.442,2.791-0.442c3.812,0,7.36,2.43,8.599,6.241C576.031,254.032,573.43,259.136,568.688,260.68z"/>
</g>
</svg>
