<?xml version="1.0" encoding="utf-8"?>
<!-- Generator: Adobe Illustrator 16.0.0, SVG Export Plug-In . SVG Version: 6.00 Build 0)  -->
<!DOCTYPE svg PUBLIC "-//W3C//DTD SVG 1.1//EN" "http://www.w3.org/Graphics/SVG/1.1/DTD/svg11.dtd">
<svg version="1.1" id="Capa_1" xmlns="http://www.w3.org/2000/svg" xmlns:xlink="http://www.w3.org/1999/xlink" x="0px" y="0px"
	 width="560px" height="560px" viewBox="200 0 560 560" enable-background="new 200 0 560 560" xml:space="preserve">
<path fill="#F0BC5E" d="M543.226,189.677h-6.205c-16.148,11.345-35.784,18.065-57.021,18.065s-40.871-6.72-57.021-18.065h-6.206
	l-45.162,99.355h18.064c4.986,0,9.032,4.046,9.032,9.032v108.387c0,24.902,20.26,45.162,45.162,45.162h72.258
	c24.902,0,45.161-20.261,45.161-45.162V298.064c0-4.986,4.047-9.032,9.032-9.032h18.063L543.226,189.677z"/>
<g>
	<path d="M480,162.581c12.563,0,24.803-4.39,34.477-12.374l-11.497-13.937c-6.449,5.32-14.605,8.247-22.979,8.247
		c-19.925,0-36.129-16.204-36.129-36.129c0-19.925,16.204-36.13,36.129-36.13s36.129,16.204,36.129,36.129
		c0,6.241-1.616,12.392-4.679,17.793l15.716,8.906c4.598-8.111,7.027-17.342,7.027-26.699c0-29.888-24.307-54.194-54.193-54.194
		s-54.193,24.306-54.193,54.194C425.807,138.275,450.112,162.581,480,162.581z"/>
	<path d="M299.355,180.645c-24.902,0-45.162,20.259-45.162,45.162c0,24.902,20.26,45.161,45.162,45.161s45.161-20.259,45.161-45.161
		C344.516,200.904,324.257,180.645,299.355,180.645z M324.79,216.774h-16.402v-16.403C316.038,203.1,322.062,209.124,324.79,216.774
		z M290.323,200.372v16.403H273.92C276.648,209.124,282.672,203.1,290.323,200.372z M273.92,234.839h16.403v16.402
		C282.672,248.514,276.648,242.489,273.92,234.839z M308.387,251.241v-16.402h16.402
		C322.062,242.489,316.038,248.514,308.387,251.241z"/>
	<path d="M660.646,180.645c-24.901,0-45.161,20.259-45.161,45.162c0,24.902,20.26,45.161,45.161,45.161s45.161-20.259,45.161-45.161
		C705.807,200.904,685.547,180.645,660.646,180.645z M686.08,216.774h-16.402v-16.403C677.328,203.1,683.353,209.124,686.08,216.774
		z M651.613,200.372v16.403H635.21C637.938,209.124,643.963,203.1,651.613,200.372z M635.21,234.839h16.403v16.402
		C643.963,248.514,637.938,242.489,635.21,234.839z M669.678,251.241v-16.402h16.402
		C683.353,242.489,677.328,248.514,669.678,251.241z"/>
	<path d="M480,280c-24.902,0-45.161,20.26-45.161,45.161c0,24.902,20.259,45.161,45.161,45.161s45.161-20.259,45.161-45.161
		C525.161,300.26,504.902,280,480,280z M480,352.258c-14.938,0-27.097-12.157-27.097-27.097c0-14.94,12.156-27.097,27.097-27.097
		s27.097,12.156,27.097,27.097C507.097,340.101,494.938,352.258,480,352.258z"/>
	<path d="M760,298.064c0-127.219-85.49-238.108-208.14-270.598C532.712,10.441,507.585,0,480,0s-52.712,10.441-71.861,27.467
		C285.49,59.956,200,170.845,200,298.064v9.031h18.291C223.078,447.35,338.6,560,480,560c141.4,0,256.923-112.65,261.71-252.903H760
		V298.064z M480,18.064c49.804,0,90.322,40.519,90.322,90.323c0,49.804-40.52,90.322-90.322,90.322s-90.323-40.519-90.323-90.322
		C389.677,58.583,430.196,18.064,480,18.064z M386.751,53.408c-9.556,16.141-15.138,34.901-15.138,54.979
		c0,30.366,12.591,57.815,32.778,77.515L356.8,289.032H218.218C221.831,182.994,288.94,90.576,386.751,53.408z M480,541.936
		c-131.438,0-238.867-104.539-243.645-234.839h132.006l50.454-109.326c17.423,11.968,38.495,19.004,61.185,19.004
		s43.762-7.036,61.185-19.004l50.454,109.326h96.104v-18.063H603.2l-47.591-103.13c20.187-19.699,32.776-47.148,32.776-77.515
		c0-20.079-5.581-38.839-15.138-54.979c97.811,37.168,164.92,129.586,168.533,235.625h-35.977v18.063h17.839
		C718.867,437.396,611.438,541.936,480,541.936z"/>
</g>
</svg>
