<?xml version="1.0" encoding="utf-8"?>
<!-- Generator: Adobe Illustrator 16.0.0, SVG Export Plug-In . SVG Version: 6.00 Build 0)  -->
<!DOCTYPE svg PUBLIC "-//W3C//DTD SVG 1.1//EN" "http://www.w3.org/Graphics/SVG/1.1/DTD/svg11.dtd">
<svg version="1.1" id="Capa_1" xmlns="http://www.w3.org/2000/svg" xmlns:xlink="http://www.w3.org/1999/xlink" x="0px" y="0px"
	 width="560px" height="560px" viewBox="200 0 560 560" enable-background="new 200 0 560 560" xml:space="preserve">
<g>
	<rect x="642.581" y="442.581" fill="#F0BC5E" width="72.258" height="72.258"/>
	<rect x="443.871" y="406.451" fill="#F0BC5E" width="36.129" height="144.517"/>
	<rect x="254.193" y="18.064" fill="#F0BC5E" width="36.129" height="126.452"/>
</g>
<g>
	<path d="M544.96,415.483h-55.928v-18.064h-54.193v18.064h-54.194v36.13h-54.193c-39.841,0-72.258-32.417-72.258-72.26
		c0-39.841,32.417-72.258,72.258-72.258h307.097c69.729,0,126.451-56.723,126.451-126.452S703.277,54.193,633.549,54.193H489.032
		v-9.032c0-14.939-12.157-27.097-27.098-27.097H344.516V0H200v162.581h144.516v-18.064h117.418
		c14.939,0,27.098-12.157,27.098-27.097v-9.032h144.517c39.841,0,72.258,32.417,72.258,72.258s-32.417,72.258-72.258,72.258H326.452
		C256.723,252.903,200,309.626,200,379.354c0,69.729,56.723,126.452,126.452,126.452h54.193v36.129h54.194V560h54.193v-18.064
		h55.928l45.17-18.063H760V433.55H590.13L544.96,415.483z M470.968,469.678h-18.063v-18.063h18.063V469.678z M452.903,487.742
		h18.063v18.063h-18.063V487.742z M470.968,415.483v18.064h-18.063v-18.064H470.968z M326.452,144.516H218.064V18.064h108.387
		L326.452,144.516L326.452,144.516z M470.968,117.419c0,4.977-4.056,9.032-9.032,9.032H344.516V36.129h117.418
		c4.978,0,9.032,4.056,9.032,9.032L470.968,117.419L470.968,117.419z M326.452,487.742c-59.767,0-108.387-48.621-108.387-108.389
		c0-59.767,48.621-108.387,108.387-108.387h307.097c49.804,0,90.322-40.519,90.322-90.323s-40.52-90.322-90.322-90.322H489.032
		V72.258h144.517c59.767,0,108.388,48.621,108.388,108.387c0,59.767-48.621,108.387-108.388,108.387H326.452
		c-49.804,0-90.323,40.519-90.323,90.321c0,49.806,40.519,90.323,90.323,90.323h54.193v18.064L326.452,487.742L326.452,487.742z
		 M398.709,523.871v-90.322h36.129v90.322H398.709z M452.903,541.936v-18.063h18.063v18.063H452.903z M489.032,433.549h45.161
		v54.193h18.063v-49.886l27.098,10.839v60.027l-27.098,10.84v-13.757h-18.063v18.064h-45.161V433.549z M633.549,505.807h-36.13
		v-54.192h36.13V505.807z M651.613,451.613h54.192v54.192h-54.192V451.613z M741.936,505.807h-18.063v-54.192h18.063V505.807z"/>
	<rect x="236.129" y="108.387" width="72.258" height="18.064"/>
	<rect x="236.129" y="36.129" width="72.258" height="18.064"/>
	<rect x="236.129" y="72.258" width="72.258" height="18.065"/>
</g>
</svg>
