<?xml version="1.0" encoding="utf-8"?>
<!-- Generator: Adobe Illustrator 16.0.0, SVG Export Plug-In . SVG Version: 6.00 Build 0)  -->
<!DOCTYPE svg PUBLIC "-//W3C//DTD SVG 1.1//EN" "http://www.w3.org/Graphics/SVG/1.1/DTD/svg11.dtd">
<svg version="1.1" id="Capa_1" xmlns="http://www.w3.org/2000/svg" xmlns:xlink="http://www.w3.org/1999/xlink" x="0px" y="0px"
	 width="560px" height="560px" viewBox="200 0 560 560" enable-background="new 200 0 560 560" xml:space="preserve">
<rect x="570.322" y="9.032" fill="#F0BC5E" width="36.129" height="108.387"/>
<g>
	<path d="M434.839,117.419h-37.791c-3.739-10.486-13.675-18.064-25.435-18.064H263.226c-11.76,0-21.695,7.578-25.435,18.064H200
		v72.258h37.791c3.739,10.487,13.675,18.065,25.435,18.065h9.032v18.064h-18.064v18.064l18.064,64.337v44.05h18.065v45.161h18.064
		v-45.161h18.064v45.161h18.064v-45.161h18.064v-43.905l17.721-61.998l0.343-20.548h-18.064v-18.064h9.032
		c11.76,0,21.696-7.578,25.435-18.065h37.791v-72.258H434.839z M218.064,135.484h18.064v36.129h-18.064V135.484z M362.219,243.871
		l-15.481,54.193H288.1l-15.481-54.193H362.219z M290.323,334.193v-18.064h54.193v18.064H290.323z M344.516,225.807h-54.193v-18.064
		h54.193V225.807z M380.645,180.645c0,4.977-4.046,9.032-9.032,9.032H263.226c-4.985,0-9.032-4.055-9.032-9.032v-54.193
		c0-4.977,4.047-9.032,9.032-9.032h108.387c4.986,0,9.032,4.055,9.032,9.032V180.645L380.645,180.645z M416.774,171.613h-18.065
		v-36.129h18.065V171.613z"/>
	<path d="M760,27.097h-87.314L636.556,0h-30.104h-9.032h-54.192c-14.939,0-27.098,12.157-27.098,27.097v90.323v9.032v54.193h18.064
		v280c0,24.901-20.259,45.161-45.161,45.161h-99.355c-24.902,0-45.161-20.26-45.161-45.161v-9.031h-18.064v9.031
		c0,34.864,28.37,63.227,63.226,63.227h99.355c34.854,0,63.226-28.361,63.226-63.227v-280h18.064v280
		c0,44.817-36.463,81.29-81.29,81.29h-99.355c-44.827,0-81.29-36.473-81.29-81.29v-9.031h-18.064v9.031
		c0,54.78,44.574,99.354,99.354,99.354h99.355c54.78,0,99.354-44.574,99.354-99.354v-280h18.064v-54.193h30.104l36.131-27.097H760
		V27.097z M534.193,162.581v-36.129h54.192v36.129H534.193z M630.541,108.387h-24.09V90.323h-18.064v18.064h-54.192v-81.29
		c0-4.977,4.047-9.032,9.031-9.032h45.161v54.193h18.064V18.064h24.09l30.104,22.581v45.162L630.541,108.387z M741.936,81.291
		H678.71v-36.13h63.227L741.936,81.291L741.936,81.291z"/>
</g>
<path fill="#F0BC5E" d="M326.452,460.646h-18.064c-14.939,0-27.097-12.158-27.097-27.098v-45.162h72.258v45.162
	C353.548,448.487,341.391,460.646,326.452,460.646z"/>
</svg>
