<?xml version="1.0" encoding="utf-8"?>
<!-- Generator: Adobe Illustrator 16.0.0, SVG Export Plug-In . SVG Version: 6.00 Build 0)  -->
<!DOCTYPE svg PUBLIC "-//W3C//DTD SVG 1.1//EN" "http://www.w3.org/Graphics/SVG/1.1/DTD/svg11.dtd">
<svg version="1.1" id="Capa_1" xmlns="http://www.w3.org/2000/svg" xmlns:xlink="http://www.w3.org/1999/xlink" x="0px" y="0px"
	 width="960px" height="560px" viewBox="0 0 960 560" enable-background="new 0 0 960 560" xml:space="preserve">
<rect x="239.061" y="16.406" fill="#F0BC5E" stroke="#000000" stroke-miterlimit="10" width="90.363" height="20.449"/>
<rect x="346.5" y="256.245" fill="#F0BC5E" stroke="#000000" stroke-miterlimit="10" width="59.043" height="48.255"/>
<rect x="239.059" y="201.857" fill="#F0BC5E" stroke="#000000" stroke-miterlimit="10" width="90.363" height="19.141"/>
<ellipse fill="#F0BC5E" stroke="#000000" stroke-miterlimit="10" cx="283.5" cy="280.372" rx="27" ry="24.128"/>
<g>
	<g>
		<g>
			<path d="M284.243,239.637c-22.256,0-40.362,18.107-40.362,40.363s18.107,40.362,40.362,40.362
				c22.256,0,40.364-18.106,40.364-40.362S306.5,239.637,284.243,239.637z M284.243,303.956c-13.21,0-23.956-10.747-23.956-23.956
				c0-13.209,10.747-23.957,23.956-23.957c13.209,0,23.958,10.746,23.958,23.957C308.2,293.211,297.452,303.956,284.243,303.956z"/>
			<path d="M283.601,374.163c-15.12,0-29.732-4.406-42.261-12.744l-9.09,13.657c15.229,10.136,32.987,15.493,51.351,15.493
				c20.85,0,40.549-6.76,56.964-19.548l-10.083-12.942C316.975,368.602,300.764,374.163,283.601,374.163z"/>
			<path d="M283.783,408.121c-13.933,0-27.399-4.062-38.944-11.744l-9.09,13.658c14.246,9.48,30.856,14.492,48.034,14.492
				c19.504,0,37.928-6.323,53.283-18.285L326.983,393.3C314.538,402.996,299.599,408.121,283.783,408.121z"/>
			<path d="M678.183,0H665.13H488.35h-10.904c-39.647,0-71.902,32.255-71.902,71.901v167.938h-58.774
				c-0.307-0.478-0.62-0.951-0.938-1.422v-52.969h-13.146v-7.244l7.377,1.762l3.811-15.958l-11.188-2.672v-21.98l7.377,1.762
				l3.811-15.958l-11.188-2.672v-21.979l7.377,1.762l3.811-15.958l-11.188-2.672V54.652h13.147V0H222.655v54.652h13.148v5.854
				l-7.377-1.762l-3.811,15.958l11.188,2.672v21.98l-7.377-1.762l-3.811,15.958l11.188,2.672v21.98l-7.377-1.762l-3.811,15.958
				l11.188,2.672v30.38h-13.148v52.934c-8.282,12.167-12.74,26.495-12.74,41.616c0,40.985,33.343,74.328,74.328,74.328
				c25.384,0,48.915-12.975,62.54-34.167h58.762v167.938c0,39.646,32.255,71.901,71.902,71.901h10.904h176.781h13.053
				c39.646,0,71.901-32.255,71.901-71.901V71.901C750.085,32.255,717.83,0,678.183,0z M239.061,16.406h90.363v20.449h-90.363V16.406
				z M252.208,142.119v-21.98l64.07,15.3v21.98L252.208,142.119z M316.278,174.287v11.162h-64.07v-26.462L316.278,174.287z
				 M252.208,103.271V81.292l64.07,15.3v21.98L252.208,103.271z M252.208,64.424v-9.771h64.07v25.071L252.208,64.424z
				 M239.059,201.857h90.363v19.141c-0.747-0.574-1.506-1.128-2.272-1.672c-0.057-0.041-0.11-0.083-0.167-0.124
				c-0.899-0.637-1.813-1.247-2.739-1.84c-0.288-0.184-0.581-0.356-0.871-0.537c-0.645-0.4-1.292-0.797-1.947-1.177
				c-0.354-0.205-0.711-0.4-1.068-0.599c-0.604-0.338-1.213-0.669-1.828-0.99c-0.379-0.198-0.76-0.391-1.142-0.581
				c-0.609-0.304-1.223-0.599-1.841-0.887c-0.383-0.178-0.765-0.355-1.149-0.527c-0.649-0.289-1.302-0.563-1.958-0.833
				c-0.358-0.146-0.712-0.298-1.072-0.439c-0.775-0.304-1.558-0.59-2.343-0.868c-0.245-0.086-0.486-0.181-0.732-0.266
				c-1.036-0.354-2.079-0.686-3.13-0.994c-0.232-0.068-0.467-0.125-0.7-0.19c-0.819-0.231-1.641-0.454-2.469-0.657
				c-0.375-0.092-0.755-0.173-1.132-0.259c-0.694-0.159-1.388-0.312-2.087-0.451c-0.418-0.083-0.838-0.159-1.258-0.234
				c-0.669-0.122-1.341-0.234-2.015-0.337c-0.431-0.065-0.862-0.129-1.294-0.187c-0.683-0.092-1.369-0.171-2.055-0.244
				c-0.418-0.045-0.834-0.092-1.255-0.129c-0.747-0.067-1.496-0.116-2.247-0.16c-0.36-0.021-0.717-0.05-1.077-0.067
				c-1.109-0.049-2.221-0.079-3.337-0.079s-2.228,0.029-3.337,0.079c-0.359,0.017-0.718,0.045-1.077,0.067
				c-0.75,0.044-1.5,0.093-2.247,0.16c-0.419,0.037-0.836,0.084-1.254,0.129c-0.687,0.073-1.372,0.152-2.055,0.244
				c-0.432,0.058-0.864,0.121-1.294,0.187c-0.674,0.103-1.344,0.215-2.014,0.337c-0.42,0.075-0.84,0.151-1.259,0.234
				c-0.699,0.139-1.394,0.292-2.087,0.451c-0.377,0.086-0.756,0.167-1.132,0.259c-0.828,0.204-1.649,0.425-2.469,0.657
				c-0.233,0.066-0.468,0.123-0.7,0.19c-1.051,0.309-2.094,0.64-3.13,0.994c-0.245,0.084-0.486,0.179-0.731,0.266
				c-0.785,0.278-1.567,0.563-2.343,0.868c-0.36,0.141-0.714,0.293-1.072,0.439c-0.656,0.269-1.31,0.543-1.958,0.833
				c-0.385,0.171-0.768,0.349-1.149,0.527c-0.617,0.288-1.23,0.582-1.84,0.887c-0.383,0.191-0.763,0.384-1.143,0.582
				c-0.613,0.319-1.221,0.651-1.825,0.989c-0.356,0.199-0.715,0.395-1.069,0.601c-0.655,0.379-1.303,0.776-1.947,1.177
				c-0.29,0.18-0.583,0.352-0.871,0.537c-0.925,0.593-1.84,1.203-2.74,1.838c-0.057,0.04-0.112,0.083-0.167,0.124
				c-0.766,0.543-1.525,1.098-2.271,1.672V201.857z M334.956,307.988c-10.214,18.463-29.646,29.934-50.713,29.934
				c-31.938,0-57.921-25.983-57.921-57.922c0-16.101,6.465-31.064,18.204-42.135c10.795-10.18,24.9-15.787,39.717-15.787
				c14.817,0,28.922,5.607,39.717,15.787c4.396,4.146,8.095,8.906,10.996,14.149c4.716,8.523,7.208,18.201,7.208,27.987
				C342.164,289.787,339.671,299.465,334.956,307.988z M405.543,303.755h-50.87c0.032-0.095,0.059-0.192,0.091-0.287
				c0.269-0.81,0.526-1.622,0.767-2.44c0.018-0.058,0.036-0.115,0.054-0.173c0.256-0.876,0.491-1.758,0.714-2.643
				c0.066-0.26,0.126-0.521,0.188-0.782c0.155-0.643,0.302-1.287,0.439-1.935c0.063-0.292,0.124-0.584,0.183-0.877
				c0.138-0.687,0.265-1.376,0.383-2.067c0.037-0.218,0.079-0.434,0.115-0.652c0.146-0.9,0.277-1.803,0.39-2.707
				c0.025-0.201,0.043-0.404,0.068-0.606c0.083-0.712,0.157-1.427,0.22-2.142c0.026-0.297,0.048-0.596,0.071-0.893
				c0.049-0.654,0.089-1.309,0.121-1.965c0.013-0.279,0.029-0.56,0.041-0.84c0.034-0.915,0.057-1.832,0.057-2.748
				c0-0.917-0.022-1.833-0.057-2.749c-0.011-0.28-0.026-0.56-0.041-0.84c-0.032-0.655-0.072-1.311-0.121-1.964
				c-0.021-0.297-0.044-0.595-0.071-0.892c-0.063-0.716-0.137-1.431-0.22-2.144c-0.023-0.201-0.042-0.402-0.067-0.603
				c-0.113-0.906-0.243-1.809-0.389-2.71c-0.035-0.217-0.077-0.431-0.114-0.646c-0.119-0.692-0.246-1.383-0.384-2.071
				c-0.058-0.292-0.119-0.583-0.182-0.873c-0.138-0.648-0.285-1.295-0.44-1.939c-0.063-0.259-0.123-0.52-0.188-0.779
				c-0.223-0.885-0.459-1.768-0.715-2.644c-0.017-0.057-0.035-0.113-0.053-0.168c-0.241-0.818-0.499-1.632-0.768-2.441
				c-0.032-0.096-0.06-0.194-0.091-0.29h50.87V303.755z M444.387,532.642c-13.605-10.122-22.437-26.319-22.437-44.543V320.161
				v-80.323V71.901c0-18.223,8.831-34.42,22.437-44.544V532.642z M469.492,543.016c-2.982-0.431-5.89-1.092-8.699-1.978V18.962
				c2.81-0.886,5.718-1.548,8.699-1.978c-0.067,0.65-0.104,1.309-0.104,1.977v522.077
				C469.389,541.706,469.425,542.365,469.492,543.016z M535.335,16.406h82.942V62.93l-41.513-18.323l-41.43,18.289V16.406z
				 M518.929,543.594H488.35c-1.409,0-2.555-1.146-2.555-2.555v-43.928l33.134,14.626V543.594z M518.929,493.803l-33.134-14.627
				v-68.261l33.134,14.626V493.803z M518.929,407.607l-33.134-14.626V324.72l33.134,14.626V407.607z M518.929,321.413
				l-33.134-14.627v-68.261l33.134,14.625V321.413z M518.929,235.217l-33.134-14.626v-68.262l33.134,14.626V235.217z
				 M518.929,149.022l-33.134-14.627V66.135l33.134,14.625V149.022z M518.929,62.827l-33.134-14.625v-29.24
				c0-1.41,1.146-2.555,2.555-2.555h30.579V62.827z M618.278,543.594h-82.942v-31.788h-0.001l41.43-18.288l41.514,18.322V543.594z
				 M618.278,493.906l-41.514-18.323l-41.43,18.289v-68.263l41.43-18.288l41.514,18.322V493.906z M618.278,407.711l-41.514-18.323
				l-41.43,18.289v-68.262l41.43-18.289l41.514,18.322V407.711z M618.278,321.516l-41.514-18.322l-41.43,18.288v-68.261
				l41.43-18.289l41.514,18.322V321.516z M618.278,235.32l-41.514-18.322l-41.43,18.288v-68.262l41.43-18.289l41.514,18.322V235.32z
				 M618.278,149.125l-41.514-18.322l-41.43,18.289V80.829l41.43-18.289l41.514,18.323V149.125z M667.687,541.039
				c0,1.409-1.146,2.555-2.555,2.555h-30.447v-31.891l33.002-14.565V541.039z M667.687,479.205l-33.002,14.565v-68.263
				l33.002-14.565V479.205z M667.687,393.01l-33.002,14.565v-68.263l33.002-14.565V393.01z M667.687,306.814l-33.002,14.565v-68.261
				l33.002-14.566V306.814z M667.687,220.619l-33.002,14.565v-68.262l33.002-14.565V220.619z M667.687,134.424l-33.002,14.566
				V80.728l33.002-14.565V134.424z M667.687,48.228l-33.002,14.566V16.406h30.445c1.41,0,2.557,1.146,2.557,2.555V48.228z
				 M692.688,541.658c-2.833,0.768-5.751,1.326-8.742,1.636c0.088-0.741,0.146-1.492,0.146-2.256V18.961
				c0.001-0.765-0.059-1.515-0.146-2.255c2.992,0.311,5.909,0.868,8.742,1.636V541.658z M733.679,488.099
				c0,19.166-9.767,36.092-24.585,46.065V25.835c14.817,9.975,24.585,26.9,24.585,46.065V488.099z"/>
		</g>
	</g>
</g>
</svg>
