<?xml version="1.0" encoding="utf-8"?>
<!-- Generator: Adobe Illustrator 16.0.0, SVG Export Plug-In . SVG Version: 6.00 Build 0)  -->
<!DOCTYPE svg PUBLIC "-//W3C//DTD SVG 1.1//EN" "http://www.w3.org/Graphics/SVG/1.1/DTD/svg11.dtd">
<svg version="1.1" id="Capa_1" xmlns="http://www.w3.org/2000/svg" xmlns:xlink="http://www.w3.org/1999/xlink" x="0px" y="0px"
	 width="560px" height="560px" viewBox="197.5 0 560 560" enable-background="new 197.5 0 560 560" xml:space="preserve">
<g>
	<path fill="#F0BC5E" d="M644.048,293.098v26.983l74.291,13.548l-6.773-40.531H644.048z"/>
	<path fill="#F0BC5E" d="M475.146,455.113c-26.08,0-47.307-21.228-47.307-47.308c0-26.081,21.227-47.307,47.307-47.307
		s47.307,21.226,47.307,47.307S501.226,455.113,475.146,455.113z"/>
	<path d="M475.146,326.854c-44.71,0-81.064,36.355-81.064,81.064c0,44.71,36.354,81.064,81.064,81.064
		c44.709,0,81.064-36.354,81.064-81.064C556.21,363.21,519.854,326.854,475.146,326.854z M514.549,462.564L508,451.274
		l-11.742,6.773l6.549,11.402c-6.549,2.936-13.549,4.968-21,5.646v-13.21h-13.549v13.21c-7.451-0.79-14.451-2.71-21-5.646
		l6.549-11.402l-11.741-6.773l-6.549,11.29c-5.871-4.29-11.064-9.483-15.354-15.354l11.29-6.549l-6.773-11.742l-11.403,6.549
		c-2.936-6.549-4.968-13.549-5.646-21h13.21v-13.549h-13.21c0.791-7.451,2.71-14.451,5.646-21l11.403,6.549l6.773-11.742
		l-11.29-6.548c4.29-5.871,9.484-11.063,15.354-15.354l6.549,11.291l11.741-6.774l-6.549-11.403c6.549-2.936,13.549-4.968,21-5.646
		v13.21h13.549v-13.21c7.451,0.791,14.451,2.71,21,5.646l-6.549,11.403L508,364.113l6.549-11.291
		c5.87,4.291,11.064,9.483,15.354,15.354l-11.29,6.548l6.772,11.742l11.403-6.549c2.936,6.549,4.968,13.549,5.646,21h-13.21v13.549
		h13.21c-0.789,7.451-2.71,14.451-5.646,21l-11.403-6.549l-6.772,11.742l11.29,6.549
		C525.613,453.193,520.532,458.274,514.549,462.564z"/>
	<path d="M475.146,374.049c-18.629,0-33.759,15.129-33.759,33.758s15.13,33.759,33.759,33.759c18.63,0,33.759-15.13,33.759-33.759
		C509.017,389.29,493.774,374.049,475.146,374.049z M475.146,428.129c-11.178,0-20.209-9.145-20.209-20.21
		c0-11.177,9.146-20.209,20.209-20.209c11.178,0,20.209,9.146,20.209,20.209C495.468,418.984,486.322,428.129,475.146,428.129z"/>
	<path d="M468.483,401.146h13.549v13.548h-13.549V401.146z"/>
	<path fill="none" d="M333.452,135.145L333.452,135.145c0.113,0,0.226,0,0.339,0v-10.952h-0.339V135.145z"/>
	<path fill="none" d="M260.855,144.855c-14.452,0-26.307,11.742-26.307,26.306v93.71h85.355V144.855H260.855z"/>
	<path fill="none" d="M333.452,225.581h26.306v-54.419c0-7.903-3.5-15.016-9.145-19.871h-17.161V225.581z"/>
	<path fill="none" d="M333.452,374.049h25.629c0.452-1.92,0.677-3.839,0.677-5.871v-93.71h-15.919c-2.71,0-4.855-2.145-4.855-4.855
		c0-2.709,2.145-4.855,4.855-4.855h15.919v-25.742h-26.306V374.049z"/>
	<path fill="none" d="M333.452,394.483L333.452,394.483c6.774,0,12.984-2.598,17.726-6.888h-17.726V394.483z"/>
	<path fill="none" d="M292.242,135.145v-10.952h-8.129c-2.709,0-4.855-2.145-4.855-4.854c0-2.71,2.146-4.855,4.855-4.855h25.968
		c2.71,0,4.855,2.145,4.855,4.855c0,2.709-2.145,4.854-4.855,4.854h-8.129v11.064h17.952v-24.5h13.887v-7.338h-73.274v31.838
		c0.113,0,0.226,0,0.339,0h31.387L292.242,135.145L292.242,135.145z"/>
	<path fill="none" d="M346.661,137.742h49.791c9.032,0,17.5,3.5,23.823,9.935l66.048,66.048l24.839,18.629H532.5L432.129,137.29
		c-8.807-8.355-20.322-12.984-32.516-12.984h-56.226v12.419C344.516,136.952,345.645,137.291,346.661,137.742z"/>
	<path fill="none" d="M339.436,403.629l2.709,10.952h24.952v-6.774c0-6.888,0.678-13.66,1.919-20.21h-5.307
		C358.291,395.951,349.597,401.936,339.436,403.629z"/>
	<path fill="none" d="M369.355,225.581h52.162c-0.112-1.129-0.339-2.258-0.339-3.387c0-12.984,10.612-23.597,23.598-23.597h7.339
		l-41.323-41.322c-3.838-3.839-8.919-5.984-14.338-5.984h-33.194c3.839,5.645,5.984,12.532,5.984,19.871v54.419H369.355z"/>
	<path fill="none" d="M368.903,374.049h3.726c14.226-43.13,54.758-74.291,102.517-74.291c5.193,0,10.273,0.452,15.354,1.242
		c6.887-17.727,10.726-36.242,11.517-55.209h-57.241c-6.437,0-12.193-2.597-16.484-6.774h-58.935v129.162
		C369.355,370.21,369.242,372.129,368.903,374.049z"/>
	<polygon fill="none" points="579.468,215.307 553.839,232.919 587.146,238.226 	"/>
	<path fill="none" d="M722.968,347.178c0-3.612-2.371-6.322-5.758-6.888l-80.049-14.564v-39.402h66.726
		c-7-10.838-18.516-18.629-32.177-20.887l-122.839-19.645h-33.42c-0.677,19.871-4.629,39.402-11.629,58.032
		c34.773,9.597,62.549,36.242,73.839,70.227h146.097L722.968,347.178z"/>
	<path fill="none" d="M465.661,212.032h-20.887c-5.532,0-10.161,4.516-10.161,10.161c0,5.646,4.516,10.162,10.161,10.162h43.919
		l-11.629-8.694L465.661,212.032z"/>
	<path fill="none" d="M650.71,314.436l60.741,11.064v-13.322c0-4.291-0.564-8.354-1.58-12.307H650.71V314.436z"/>
	<path fill="none" d="M581.274,387.597c1.241,6.55,1.919,13.322,1.919,20.21v6.774H725l-0.79-26.984H581.274L581.274,387.597z"/>
	<path fill="none" d="M291.903,404.193c-2.71,0-4.855-2.146-4.855-4.854s2.145-4.854,4.855-4.854h28V274.468h-85.355v93.71
		c0,14.451,11.742,26.307,26.307,26.307h10.274c2.71,0,4.855,2.146,4.855,4.854s-2.145,4.854-4.855,4.854h-6.548l-2.709,11.063
		h58.032v-11.063H291.903z"/>
	<path d="M736.517,346.049c0-8.017-4.63-15.017-11.402-18.291v-16.482c0-30.032-21.565-55.323-51.146-59.952l-71.692-11.516
		l-11.064-33.194l44.709-30.597c24.388-16.709,52.952-25.516,82.42-25.516v-13.548c-32.29,0-63.452,9.597-90.097,27.887
		l-85.018,58.145L441.5,126.564c-11.29-10.726-26.193-16.597-41.774-16.597h-56.338v13.548h56.226
		c12.194,0,23.709,4.629,32.516,12.984l100.37,95.065h-21.339l-24.839-18.629l-65.935-66.161
		c-6.323-6.436-14.903-9.936-23.823-9.936l-52.048,0.113c6.774,2.709,14.903,7.452,18.855,13.436h33.081
		c5.419,0,10.5,2.145,14.339,5.984l41.323,41.322h-7.339c-12.984,0-23.598,10.613-23.598,23.597c0,1.129,0.227,2.258,0.339,3.387
		h-52.162v13.548h58.935c4.291,4.178,10.049,6.774,16.484,6.774h57.241c-0.79,18.968-4.63,37.483-11.517,55.21
		c-5.081-0.678-10.161-1.242-15.354-1.242c-47.76,0-88.292,31.161-102.518,74.29h-3.726c-0.791,4.855-2.597,9.484-5.194,13.549
		h5.419c-1.242,6.548-1.919,13.322-1.919,20.209v6.774h-24.952l1.017,4.291c0.338,1.467,0,2.935-0.903,4.177
		c-0.903,1.129-2.371,1.92-3.839,1.92h-18.742v3.161h60.854v-20.21c0-52.161,42.452-94.5,94.5-94.5c52.048,0,94.5,42.452,94.5,94.5
		v20.21H725c7.451,0,13.549-6.097,13.549-13.661L736.517,346.049z M444.774,231.452c-5.532,0-10.161-4.516-10.161-10.161
		c0-5.646,4.516-10.162,10.161-10.162h20.887l11.517,11.516l11.629,8.694h-44.031L444.774,231.452L444.774,231.452z
		 M709.983,298.968c1.017,3.951,1.58,8.017,1.58,12.308v13.321l-60.741-11.063v-14.678h59.161V298.968z M579.468,214.516
		l7.678,22.919l-33.307-5.307L579.468,214.516z M503.937,302.919c7-18.628,10.95-38.161,11.629-58.032h33.419l122.839,19.645
		C685.483,266.677,697,274.581,704,285.42h-66.726v39.402l80.048,14.563c3.273,0.564,5.759,3.274,5.759,6.889l0.79,26.982H577.774
		C566.483,339.161,538.71,312.629,503.937,302.919z M583.193,413.79v-6.774c0-6.887-0.678-13.66-1.919-20.209H724.21L725,413.79
		H583.193z"/>
	<path stroke="#000000" stroke-width="3" stroke-miterlimit="10" d="M342.387,425.758c0.903-1.242,1.242-2.709,0.903-4.177
		l-1.129-4.291l-2.822-11.064c10.161-1.692,18.968-7.79,24.387-16.145c2.597-4.064,4.403-8.694,5.307-13.662
		c0.339-1.919,0.452-3.951,0.452-5.983V240.258v-13.661v-54.871c0-7.451-2.258-14.338-6.097-20.097
		c-4.064-6.097-9.936-10.838-16.71-13.661c-1.129-0.452-2.145-0.791-3.274-1.129V124.42v-13.548v-7.452h5.532
		c2.709,0,4.855-2.145,4.855-4.855c0-2.709-2.146-4.855-4.855-4.855H244.387c-2.71,0-4.855,2.146-4.855,4.855
		c0,2.71,2.145,4.855,4.855,4.855h5.532v33.532c-15.016,4.403-26.081,18.403-26.081,34.887v198.71
		c0,17.951,13.097,32.854,30.145,35.79l-3.839,15.354c-0.338,1.468,0,3.049,0.903,4.178c0.903,1.242,2.371,1.919,3.839,1.919h64.806
		h18.855C340.016,427.678,341.484,427,342.387,425.758z M301.629,135.484v-11.177h8.129c2.71,0,4.855-2.146,4.855-4.855
		s-2.145-4.855-4.855-4.855h-26.081c-2.709,0-4.854,2.146-4.854,4.855s2.145,4.855,4.854,4.855h8.129v11.177 M291.807,135.484
		h-31.726c-0.113,0-0.226,0-0.338,0v-31.952h73.838v7.452v13.661v11.064c-0.113,0-0.226,0-0.338,0l0,0h-13.662h-18.064
		 M319.693,417.854h-58.597l2.823-11.177h6.661c2.71,0,4.855-2.146,4.855-4.854s-2.145-4.854-4.855-4.854h-10.5
		c-14.564,0-26.532-11.854-26.532-26.532v-94.5h86.032h3.162c2.709,0,4.854-2.145,4.854-4.855c0-2.709-2.145-4.855-4.854-4.855
		h-3.162h-85.919v-94.5c0-14.564,11.855-26.532,26.532-26.532h59.613h13.548c6.548,0,12.645,2.371,17.274,6.436
		c5.646,4.855,9.258,12.081,9.258,20.097v54.871v13.662v25.968h-16.032c-2.71,0-4.855,2.145-4.855,4.854
		c0,2.71,2.145,4.855,4.855,4.855h16.032v94.5c0,2.032-0.226,4.064-0.678,5.983c-1.242,5.307-4.064,10.049-8.016,13.662
		c-4.742,4.29-10.951,6.887-17.838,6.887l0,0h-13.662h-28.226c-2.71,0-4.855,2.146-4.855,4.854c0,2.71,2.145,4.854,4.855,4.854
		h28.226h9.823l2.823,11.178h-12.645V417.854z"/>
	<path fill="#F0BC5E" d="M301.629,135.484v-11.177h8.129c2.71,0,4.855-2.146,4.855-4.855s-2.145-4.855-4.855-4.855h-26.081
		c-2.709,0-4.854,2.146-4.854,4.855s2.145,4.855,4.854,4.855h8.129v11.177"/>
	<g>
		<path stroke="#000000" stroke-width="3" stroke-miterlimit="10" d="M273.291,344.468h5.419v10.388
			c-1.354,1.017-3.048,1.807-4.854,2.37c-1.807,0.564-3.726,0.791-5.532,0.791c-2.71,0-5.081-0.564-7.226-1.693
			s-3.839-2.709-4.968-4.741c-1.242-2.032-1.806-4.291-1.806-6.888c0-2.598,0.564-4.854,1.806-6.888
			c1.242-2.031,2.936-3.612,5.081-4.741c2.146-1.13,4.516-1.693,7.226-1.693c2.258,0,4.29,0.339,6.097,1.129
			c1.807,0.79,3.387,1.807,4.629,3.274l-3.838,3.5c-1.807-1.921-4.065-2.937-6.662-2.937c-1.693,0-3.048,0.339-4.403,1.016
			c-1.242,0.679-2.258,1.694-2.935,2.937c-0.678,1.242-1.016,2.71-1.016,4.291c0,1.58,0.338,3.048,1.016,4.29
			c0.677,1.242,1.693,2.258,2.935,2.936c1.242,0.678,2.71,1.017,4.291,1.017c1.694,0,3.274-0.339,4.629-1.129v-7.227
			L273.291,344.468L273.291,344.468z"/>
		<path stroke="#000000" stroke-width="3" stroke-miterlimit="10" d="M307.839,332.049v25.629h-4.855l-12.871-15.581v15.581h-5.871
			v-25.629h4.967l12.758,15.58v-15.58H307.839L307.839,332.049z"/>
		<path stroke="#000000" stroke-width="3" stroke-miterlimit="10" d="M319.129,356.436c-2.145-1.129-3.726-2.71-4.968-4.741
			c-1.242-2.032-1.806-4.29-1.806-6.888c0-2.597,0.564-4.854,1.806-6.888c1.242-2.032,2.823-3.612,4.968-4.741
			c2.146-1.129,4.516-1.693,7.113-1.693c2.258,0,4.29,0.339,5.983,1.13c1.807,0.79,3.274,1.919,4.517,3.387l-3.839,3.5
			c-1.694-2.032-3.839-3.049-6.436-3.049c-1.581,0-3.048,0.339-4.291,1.017c-1.242,0.679-2.258,1.693-2.935,2.937
			c-0.678,1.242-1.017,2.71-1.017,4.29c0,1.581,0.339,3.049,1.017,4.29c0.677,1.241,1.693,2.259,2.935,2.936
			c1.242,0.678,2.71,1.018,4.291,1.018c2.597,0,4.742-1.018,6.436-3.05l3.839,3.5c-1.242,1.469-2.71,2.598-4.517,3.389
			c-1.806,0.79-3.838,1.129-6.097,1.129C323.532,358.129,321.161,357.564,319.129,356.436z"/>
	</g>
</g>
</svg>
