<?xml version="1.0" encoding="utf-8"?>
<!-- Generator: Adobe Illustrator 16.0.0, SVG Export Plug-In . SVG Version: 6.00 Build 0)  -->
<!DOCTYPE svg PUBLIC "-//W3C//DTD SVG 1.1//EN" "http://www.w3.org/Graphics/SVG/1.1/DTD/svg11.dtd">
<svg version="1.1" id="Capa_1" xmlns="http://www.w3.org/2000/svg" xmlns:xlink="http://www.w3.org/1999/xlink" x="0px" y="0px"
	 width="560px" height="560px" viewBox="200 0 560 560" enable-background="new 200 0 560 560" xml:space="preserve">
<g>
	<g>
		<rect x="375" y="455.092" width="35" height="17.5"/>
	</g>
</g>
<rect x="349.187" y="256.497" fill="#F0BC5E" width="70.313" height="23.503"/>
<rect x="348.663" y="332.767" fill="#F0BC5E" width="78.837" height="16.594"/>
<rect x="388.081" y="279.908" fill="#F0BC5E" width="166.419" height="52.684"/>
<circle fill="#F0BC5E" stroke="#000000" stroke-miterlimit="10" cx="574.857" cy="302.928" r="46.431"/>
<g>
	<g>
		<rect x="427.5" y="455.092" width="17.5" height="17.5"/>
	</g>
</g>
<g>
	<g>
		<rect x="392.5" y="140.092" width="17.5" height="17.5"/>
	</g>
</g>
<g>
	<g>
		<rect x="558.75" y="140.092" width="17.5" height="17.5"/>
	</g>
</g>
<g>
	<g>
		<path d="M751.25,192.592H725c-4.278,0-7.928,3.098-8.628,7.306l-7.533,45.194H690v-26.25c0-1.356-0.315-2.704-0.919-3.911
			l-17.5-35c-1.487-2.966-4.515-4.839-7.831-4.839h-11.437l-24.123-64.321c-1.278-3.413-4.542-5.679-8.19-5.679h-26.066v-35
			c0-9.748-7.928-17.684-17.684-17.684h-192.5c-9.748,0-17.684,7.927-17.684,17.684v35H348.75c-3.649,0-6.913,2.266-8.199,5.679
			l-24.115,64.321H305c-2.756,0-5.346,1.295-7,3.5l-26.25,35c-1.138,1.514-1.75,3.352-1.75,5.25v43.75h-17.5v-87.5H235v96.25h-17.5
			c-9.651,0-17.5,7.849-17.5,17.5v35c0,9.651,7.849,17.5,17.5,17.5H235v96.25h17.5v-87.5H270v43.75c0,2.66,1.208,5.171,3.281,6.834
			l40.469,32.366v30.8c0,2.923,1.461,5.652,3.894,7.28l52.5,35c1.435,0.953,3.133,1.47,4.856,1.47h96.25h35h52.5h35h52.5h26.25
			c9.651,0,17.5-7.849,17.5-17.5v-61.25v-43.75h18.839l7.525,45.193c0.708,4.209,4.356,7.307,8.636,7.307h26.25
			c4.839,0,8.75-3.92,8.75-8.75v-227.5C760,196.512,756.089,192.592,751.25,192.592z M235,323.842h-17.5v-35H235V323.842z
			 M270,332.592h-17.5v-52.5H270V332.592z M418.566,70.241v17.351h17.858V70.223l34.643-0.035v17.404h17.857V70.17l34.643-0.035
			v17.456h17.857V70.127l34.643-0.035v34.816H383.899l-0.149-34.633L418.566,70.241z M462.5,490.092h-84.849L331.25,459.16v-21.568
			H462.5V490.092z M497.5,490.092H480v-52.5h17.5V490.092z M550,490.092h-35v-52.5h35V490.092z M585,490.092h-17.5v-52.5H585
			V490.092z M637.5,490.092h-35v-52.5h35V490.092z M655,490.092v-52.5h17.5l0.009,52.5H655z M742.5,420.092h-10.089l-7.525-45.192
			c-0.708-4.209-4.356-7.308-8.636-7.308H690v-8.75h-17.5v61.25h-26.25h-52.5h-35h-52.5h-35H325.571l-38.071-30.45v-48.3v-70
			v-49.586l21.875-29.164H488.75v-17.5H335.126l19.688-52.5h19.302c0.306,0.035,0.578,0.184,0.893,0.184h210
			c0.314,0,0.586-0.148,0.894-0.184h28.044l19.688,52.5H602.5v17.5h55.843l14.157,28.315v50.435H690v-8.75h26.25
			c4.278,0,7.928-3.098,8.628-7.306l7.533-45.194H742.5V420.092z"/>
	</g>
</g>
<g>
	<g>
		<rect x="681.25" y="288.842" width="35" height="17.5"/>
	</g>
</g>
<g>
	<g>
		<rect x="681.25" y="323.842" width="35" height="17.5"/>
	</g>
</g>
<g>
	<g>
		<path d="M576.25,245.092c-20.677,0-38.964,10.325-50.059,26.066h-92.155c-11.121-15.846-29.496-26.25-50.286-26.25
			c-25.462,0-51.249,20.79-60.541,40.049c-1.33,2.766-1.155,6.02,0.481,8.627c1.636,2.607,4.489,4.183,7.56,4.183h43.566v17.143
			H331.25c-3.071,0-5.933,1.575-7.56,4.183c-1.636,2.6-1.82,5.862-0.481,8.627c9.292,19.26,35.087,40.049,60.541,40.049
			c20.79,0,39.165-10.402,50.286-26.25H526.2c11.086,15.75,29.373,26.075,50.05,26.075c33.767,0,61.25-27.475,61.25-61.25
			C637.5,272.567,610.017,245.092,576.25,245.092z M383.75,349.908c-12.337,0-25.769-7.684-35.087-17.143h35.087
			c4.926,0,8.934-3.998,8.934-8.934v-35c0-4.928-3.999-8.934-8.934-8.934h-35.087c9.319-9.459,22.75-17.141,35.087-17.141
			c24.027,0,43.566,19.548,43.566,43.566S407.777,349.908,383.75,349.908z M517.537,323.658h-74.882
			c1.618-5.504,2.527-11.306,2.527-17.316s-0.909-11.82-2.527-17.316h74.882c-1.627,5.496-2.537,11.298-2.537,17.316
			C515,312.362,515.91,318.163,517.537,323.658z M576.25,350.092c-24.124,0-43.75-19.626-43.75-43.75
			c0-24.123,19.626-43.75,43.75-43.75S620,282.219,620,306.342C620,330.466,600.374,350.092,576.25,350.092z"/>
	</g>
</g>
<g>
	<g>
		<path d="M576.25,279.908c-14.577,0-26.434,11.855-26.434,26.434c0,14.577,11.848,26.435,26.434,26.435
			s26.434-11.856,26.434-26.435S590.827,279.908,576.25,279.908z M576.25,314.908c-4.725,0-8.566-3.842-8.566-8.566
			c0-4.724,3.843-8.565,8.566-8.565s8.566,3.842,8.566,8.565C584.816,311.066,580.975,314.908,576.25,314.908z"/>
	</g>
</g>
<circle fill="#FFFFFF" stroke="#FFFFFF" stroke-miterlimit="10" cx="575.564" cy="305.656" r="13.936"/>
</svg>
