<svg id="Layer_35" enable-background="new 0 0 64 64" height="512" viewBox="0 0 64 64" width="512" xmlns="http://www.w3.org/2000/svg"><path d="m18 59c-2.206 0-4-1.794-4-4s1.794-4 4-4 4 1.794 4 4-1.794 4-4 4zm0-6c-1.103 0-2 .897-2 2s.897 2 2 2 2-.897 2-2-.897-2-2-2z"/><path d="m20 38h2v4h-2z"/><path d="m18 63c-4.411 0-8-3.589-8-8 0-2.85 1.551-5.5 4-6.92v-2.08h2v3.314l-.57.271c-2.084.992-3.43 3.117-3.43 5.415 0 3.309 2.691 6 6 6s6-2.691 6-6c0-2.298-1.346-4.423-3.43-5.414l-.57-.272v-3.314h2v2.08c2.449 1.42 4 4.07 4 6.92 0 4.411-3.589 8-8 8z"/><path d="m46 59c-2.206 0-4-1.794-4-4s1.794-4 4-4 4 1.794 4 4-1.794 4-4 4zm0-6c-1.103 0-2 .897-2 2s.897 2 2 2 2-.897 2-2-.897-2-2-2z"/><path d="m46 63c-4.411 0-8-3.589-8-8 0-2.85 1.551-5.5 4-6.92v-7.08h2v8.314l-.57.271c-2.084.992-3.43 3.117-3.43 5.415 0 3.309 2.691 6 6 6s6-2.691 6-6c0-2.298-1.346-4.423-3.43-5.414l-.57-.272v-8.314h2v7.08c2.449 1.42 4 4.07 4 6.92 0 4.411-3.589 8-8 8z"/><path d="m14 38h2v4h-2z"/><g fill="#f0bc5e"><path d="m23 46h-10c-1.105 0-2-.895-2-2 0-1.105.895-2 2-2h10c1.105 0 2 .895 2 2 0 1.105-.895 2-2 2z"/><path d="m23 38h-10c-1.105 0-2-.895-2-2 0-1.105.895-2 2-2h10c1.105 0 2 .895 2 2 0 1.105-.895 2-2 2z"/><path d="m16 22h4v4h-4z"/></g><path d="m18 13c2.206 0 4-1.794 4-4s-1.794-4-4-4-4 1.794-4 4 1.794 4 4 4zm0-6c1.103 0 2 .897 2 2s-.897 2-2 2-2-.897-2-2 .897-2 2-2z"/><path d="m22 17.184v-1.264c2.449-1.42 4-4.07 4-6.92 0-4.411-3.589-8-8-8s-8 3.589-8 8c0 2.85 1.551 5.5 4 6.92v1.264c-1.161.414-2 1.514-2 2.816v8c0 1.302.839 2.402 2 2.816v3.184h2v-3h4v3h2v-3.184c1.161-.414 2-1.514 2-2.816v-8c0-1.302-.839-2.402-2-2.816zm-10-8.184c0-3.309 2.691-6 6-6s6 2.691 6 6c0 2.298-1.346 4.423-3.43 5.414l-.57.272v2.314h-4v-2.314l-.57-.271c-2.084-.992-3.43-3.117-3.43-5.415zm10 19c0 .552-.449 1-1 1h-6c-.551 0-1-.448-1-1v-8c0-.552.449-1 1-1h6c.551 0 1 .448 1 1z"/><path d="m46 13c-2.206 0-4-1.794-4-4s1.794-4 4-4 4 1.794 4 4-1.794 4-4 4zm0-6c-1.103 0-2 .897-2 2s.897 2 2 2 2-.897 2-2-.897-2-2-2z"/><path d="m50 18h-2v-3.314l.57-.271c2.084-.992 3.43-3.117 3.43-5.415 0-3.309-2.691-6-6-6s-6 2.691-6 6c0 2.298 1.346 4.423 3.43 5.414l.57.272v3.314h-2v-2.08c-2.449-1.42-4-4.07-4-6.92 0-4.411 3.589-8 8-8s8 3.589 8 8c0 2.85-1.551 5.5-4 6.92z"/><path d="m49 42h-6c-1.654 0-3-1.346-3-3v-19c0-1.654 1.346-3 3-3h6c1.654 0 3 1.346 3 3v19c0 1.654-1.346 3-3 3z" fill="#f0bc5e"/><path d="m16 21h4v2h-4z"/><path d="m16 25h4v2h-4z"/></svg>