<?xml version="1.0" encoding="utf-8"?>
<!-- Generator: Adobe Illustrator 24.0.1, SVG Export Plug-In . SVG Version: 6.00 Build 0)  -->
<svg version="1.1" id="Capa_1" xmlns="http://www.w3.org/2000/svg" xmlns:xlink="http://www.w3.org/1999/xlink" x="0px" y="0px"
	 viewBox="0 0 496 496" style="enable-background:new 0 0 496 496;" xml:space="preserve">
<style type="text/css">
	.st0{fill:#F0BC5E;}
	.st1{fill:none;}
</style>
<g>
	<path class="st0" d="M393.3,259.6v23.9l65.8,12l-6-35.9H393.3z"/>
	<path class="st0" d="M243.7,403.1c-23.1,0-41.9-18.8-41.9-41.9s18.8-41.9,41.9-41.9s41.9,18.8,41.9,41.9
		C285.6,384.3,266.8,403.1,243.7,403.1z"/>
	<path d="M243.7,289.5c-39.6,0-71.8,32.2-71.8,71.8s32.2,71.8,71.8,71.8s71.8-32.2,71.8-71.8S283.3,289.5,243.7,289.5z M278.6,409.7
		l-5.8-10l-10.4,6l5.8,10.1c-5.8,2.6-12,4.4-18.6,5v-11.7h-12v11.7c-6.6-0.7-12.8-2.4-18.6-5l5.8-10.1l-10.4-6l-5.8,10
		c-5.2-3.8-9.8-8.4-13.6-13.6l10-5.8l-6-10.4l-10.1,5.8c-2.6-5.8-4.4-12-5-18.6h11.7v-12h-11.7c0.7-6.6,2.4-12.8,5-18.6l10.1,5.8
		l6-10.4l-10-5.8c3.8-5.2,8.4-9.8,13.6-13.6l5.8,10l10.4-6l-5.8-10.1c5.8-2.6,12-4.4,18.6-5v11.7h12v-11.7c6.6,0.7,12.8,2.4,18.6,5
		l-5.8,10.1l10.4,6l5.8-10c5.2,3.8,9.8,8.4,13.6,13.6l-10,5.8l6,10.4l10.1-5.8c2.6,5.8,4.4,12,5,18.6h-11.7v12h11.7
		c-0.7,6.6-2.4,12.8-5,18.6l-10.1-5.8l-6,10.4l10,5.8C288.4,401.4,283.9,405.9,278.6,409.7z"/>
	<path d="M243.7,331.3c-16.5,0-29.9,13.4-29.9,29.9s13.4,29.9,29.9,29.9s29.9-13.4,29.9-29.9C273.7,344.8,260.2,331.3,243.7,331.3z
		 M243.7,379.2c-9.9,0-17.9-8.1-17.9-17.9c0-9.9,8.1-17.9,17.9-17.9c9.9,0,17.9,8.1,17.9,17.9C261.7,371.1,253.6,379.2,243.7,379.2z
		"/>
	<path d="M237.8,355.3h12v12h-12V355.3z"/>
	<path class="st1" d="M118.2,119.7L118.2,119.7c0.1,0,0.2,0,0.3,0V110h-0.3V119.7z"/>
	<path class="st1" d="M53.9,128.3c-12.8,0-23.3,10.4-23.3,23.3v83h75.6V128.3H53.9z"/>
	<path class="st1" d="M118.2,199.8h23.3v-48.2c0-7-3.1-13.3-8.1-17.6h-15.2V199.8z"/>
	<path class="st1" d="M118.2,331.3h22.7c0.4-1.7,0.6-3.4,0.6-5.2v-83h-14.1c-2.4,0-4.3-1.9-4.3-4.3s1.9-4.3,4.3-4.3h14.1v-22.8
		h-23.3V331.3z"/>
	<path class="st1" d="M118.2,349.4L118.2,349.4c6,0,11.5-2.3,15.7-6.1h-15.7V349.4z"/>
	<path class="st1" d="M81.7,119.7V110h-7.2c-2.4,0-4.3-1.9-4.3-4.3s1.9-4.3,4.3-4.3h23c2.4,0,4.3,1.9,4.3,4.3s-1.9,4.3-4.3,4.3h-7.2
		v9.8h15.9V98.1h12.3v-6.5H53.6v28.2c0.1,0,0.2,0,0.3,0h27.8V119.7z"/>
	<path class="st1" d="M129.9,122H174c8,0,15.5,3.1,21.1,8.8l58.5,58.5l22,16.5h18.9l-88.9-84.2c-7.8-7.4-18-11.5-28.8-11.5H127v11
		C128,121.3,129,121.6,129.9,122z"/>
	<path class="st1" d="M123.5,357.5l2.4,9.7H148v-6c0-6.1,0.6-12.1,1.7-17.9H145C140.2,350.7,132.5,356,123.5,357.5z"/>
	<path class="st1" d="M150,199.8h46.2c-0.1-1-0.3-2-0.3-3c0-11.5,9.4-20.9,20.9-20.9h6.5l-36.6-36.6c-3.4-3.4-7.9-5.3-12.7-5.3
		h-29.4c3.4,5,5.3,11.1,5.3,17.6v48.2H150z"/>
	<path class="st1" d="M149.6,331.3h3.3c12.6-38.2,48.5-65.8,90.8-65.8c4.6,0,9.1,0.4,13.6,1.1c6.1-15.7,9.5-32.1,10.2-48.9h-50.7
		c-5.7,0-10.8-2.3-14.6-6H150v114.4C150,327.9,149.9,329.6,149.6,331.3z"/>
	<polygon class="st1" points="336.1,190.7 313.4,206.3 342.9,211 	"/>
	<path class="st1" d="M463.2,307.5c0-3.2-2.1-5.6-5.1-6.1l-70.9-12.9v-34.9h59.1c-6.2-9.6-16.4-16.5-28.5-18.5L309,217.7h-29.6
		c-0.6,17.6-4.1,34.9-10.3,51.4c30.8,8.5,55.4,32.1,65.4,62.2h129.4L463.2,307.5z"/>
	<path class="st1" d="M235.3,187.8h-18.5c-4.9,0-9,4-9,9s4,9,9,9h38.9l-10.3-7.7L235.3,187.8z"/>
	<path class="st1" d="M399.2,278.5l53.8,9.8v-11.8c0-3.8-0.5-7.4-1.4-10.9h-52.4V278.5z"/>
	<path class="st1" d="M337.7,343.3c1.1,5.8,1.7,11.8,1.7,17.9v6H465l-0.7-23.9H337.7z"/>
	<path class="st1" d="M81.4,358c-2.4,0-4.3-1.9-4.3-4.3s1.9-4.3,4.3-4.3h24.8V243.1H30.6v83c0,12.8,10.4,23.3,23.3,23.3H63
		c2.4,0,4.3,1.9,4.3,4.3S65.4,358,63,358h-5.8l-2.4,9.8h51.4V358H81.4z"/>
	<path d="M475.2,306.5c0-7.1-4.1-13.3-10.1-16.2v-14.6c0-26.6-19.1-49-45.3-53.1l-63.5-10.2l-9.8-29.4l39.6-27.1
		c21.6-14.8,46.9-22.6,73-22.6v-12c-28.6,0-56.2,8.5-79.8,24.7L304,197.5l-90.1-85.4c-10-9.5-23.2-14.7-37-14.7H127v12h49.8
		c10.8,0,21,4.1,28.8,11.5l88.9,84.2h-18.9l-22-16.5L195.2,130c-5.6-5.7-13.2-8.8-21.1-8.8l-46.1,0.1c6,2.4,13.2,6.6,16.7,11.9H174
		c4.8,0,9.3,1.9,12.7,5.3l36.6,36.6h-6.5c-11.5,0-20.9,9.4-20.9,20.9c0,1,0.2,2,0.3,3H150v12h52.2c3.8,3.7,8.9,6,14.6,6h50.7
		c-0.7,16.8-4.1,33.2-10.2,48.9c-4.5-0.6-9-1.1-13.6-1.1c-42.3,0-78.2,27.6-90.8,65.8h-3.3c-0.7,4.3-2.3,8.4-4.6,12h4.8
		c-1.1,5.8-1.7,11.8-1.7,17.9v6H126l0.9,3.8c0.3,1.3,0,2.6-0.8,3.7c-0.8,1-2.1,1.7-3.4,1.7h-16.6l-5.8,4.2H160v-19.3
		c0-46.2,37.6-83.7,83.7-83.7s83.7,37.6,83.7,83.7v17.9H465c6.6,0,12-5.4,12-12.1L475.2,306.5z M216.8,205c-4.9,0-9-4-9-9s4-9,9-9
		h18.5l10.2,10.2l10.3,7.7h-39V205z M451.7,264.8c0.9,3.5,1.4,7.1,1.4,10.9v11.8l-53.8-9.8v-13h52.4V264.8z M336.1,190l6.8,20.3
		l-29.5-4.7L336.1,190z M269.2,268.3c6.2-16.5,9.7-33.8,10.3-51.4h29.6l108.8,17.4c12.1,1.9,22.3,8.9,28.5,18.5h-59.1v34.9
		l70.9,12.9c2.9,0.5,5.1,2.9,5.1,6.1l0.7,23.9H334.6C324.6,300.4,300,276.9,269.2,268.3z M339.4,366.5v-6c0-6.1-0.6-12.1-1.7-17.9
		h126.6l0.7,23.9H339.4z"/>
	<path d="M49.5,379.9c-1.7,0-3.2-0.8-4.2-2.1c-1-1.2-1.3-2.9-1-4.5l3.1-12.6C32.1,357.5,21,344,21,328.2v-176
		c0-14.4,9.5-27.3,23.1-31.6v-28h-3.9c-3,0-5.3-2.3-5.3-5.3c0-3,2.3-5.3,5.3-5.3h92.6c3,0,5.3,2.3,5.3,5.3c0,3-2.3,5.3-5.3,5.3h-3.9
		v27.9c0.8,0.3,1.5,0.5,2.3,0.8c6.3,2.6,11.6,6.9,15.3,12.5c3.6,5.5,5.6,11.8,5.6,18.4v176c0,2.1-0.1,3.9-0.4,5.5
		c-0.8,4.5-2.5,8.7-4.8,12.5c-4.9,7.6-12.6,12.8-21.2,14.6l2.2,8.8l1,3.8c0.4,1.6,0,3.2-1,4.5c-0.9,1.3-2.4,2.1-4.1,2.2l0,0H49.5z
		 M116.8,369.1l-2-7.9H81.9c-3,0-5.3-2.3-5.3-5.3c0-3,2.3-5.3,5.3-5.3H119c5.6,0,11-2.1,15.1-5.8c3.4-3.1,5.8-7.1,6.8-11.6
		c0.4-1.6,0.6-3.3,0.6-5.1v-82.7h-13.2c-3,0-5.3-2.3-5.3-5.3c0-3,2.3-5.3,5.3-5.3h13.2v-82.7c0-6.5-2.9-12.8-7.9-17
		c-4-3.5-9.2-5.5-14.6-5.5H54.2c-12.4,0-22.5,10.1-22.5,22.5v82.7h77.9c3,0,5.3,2.3,5.3,5.3c0,3-2.3,5.3-5.3,5.3h-78v82.7
		c0,12.4,10.1,22.5,22.5,22.5h9.3c3,0,5.3,2.3,5.3,5.3c0,3-2.3,5.3-5.3,5.3h-5.1l-2,7.9H116.8z M91.9,119.2l26.3,0V92.7H54.8V119
		h26.4v-7.9H75c-3,0-5.3-2.3-5.3-5.3c0-3,2.3-5.3,5.3-5.3h23.1c3,0,5.3,2.3,5.3,5.3c0,3-2.3,5.3-5.3,5.3h-6.2V119.2z"/>
	<path d="M127,377.1c0.8-1.1,1.1-2.4,0.8-3.7l-1-3.8l-2.5-9.8c9-1.5,16.8-6.9,21.6-14.3c2.3-3.6,3.9-7.7,4.7-12.1
		c0.3-1.7,0.4-3.5,0.4-5.3V212.8v-12.1v-48.6c0-6.6-2-12.7-5.4-17.8c-3.6-5.4-8.8-9.6-14.8-12.1c-1-0.4-1.9-0.7-2.9-1v-11v-12v-6.6
		h4.9c2.4,0,4.3-1.9,4.3-4.3s-1.9-4.3-4.3-4.3H40.2c-2.4,0-4.3,1.9-4.3,4.3s1.9,4.3,4.3,4.3h4.9v29.7C31.8,125.2,22,137.6,22,152.2
		v176c0,15.9,11.6,29.1,26.7,31.7l-3.4,13.6c-0.3,1.3,0,2.7,0.8,3.7c0.8,1.1,2.1,1.7,3.4,1.7h57.4h16.7
		C124.9,378.8,126.2,378.2,127,377.1z M90.9,120v-9.9h7.2c2.4,0,4.3-1.9,4.3-4.3s-1.9-4.3-4.3-4.3H75c-2.4,0-4.3,1.9-4.3,4.3
		s1.9,4.3,4.3,4.3h7.2v9.9 M82.2,120H54.1c-0.1,0-0.2,0-0.3,0V91.7h65.4v6.6v12.1v9.8c-0.1,0-0.2,0-0.3,0l0,0h-12.1h-16
		 M106.9,370.1H55l2.5-9.9h5.9c2.4,0,4.3-1.9,4.3-4.3s-1.9-4.3-4.3-4.3h-9.3c-12.9,0-23.5-10.5-23.5-23.5v-83.7h76.2h2.8
		c2.4,0,4.3-1.9,4.3-4.3s-1.9-4.3-4.3-4.3h-2.8H30.7v-83.7c0-12.9,10.5-23.5,23.5-23.5H107h12c5.8,0,11.2,2.1,15.3,5.7
		c5,4.3,8.2,10.7,8.2,17.8v48.6v12.1v23h-14.2c-2.4,0-4.3,1.9-4.3,4.3s1.9,4.3,4.3,4.3h14.2v83.7c0,1.8-0.2,3.6-0.6,5.3
		c-1.1,4.7-3.6,8.9-7.1,12.1c-4.2,3.8-9.7,6.1-15.8,6.1l0,0h-12.1h-25c-2.4,0-4.3,1.9-4.3,4.3s1.9,4.3,4.3,4.3h25h8.7l2.5,9.9H106.9
		z"/>
	<g>
		<path class="st0" d="M65.8,299.1h4.8v9.2c-1.2,0.9-2.7,1.6-4.3,2.1c-1.6,0.5-3.3,0.7-4.9,0.7c-2.4,0-4.5-0.5-6.4-1.5
			s-3.4-2.4-4.4-4.2c-1.1-1.8-1.6-3.8-1.6-6.1c0-2.3,0.5-4.3,1.6-6.1c1.1-1.8,2.6-3.2,4.5-4.2s4-1.5,6.4-1.5c2,0,3.8,0.3,5.4,1
			s3,1.6,4.1,2.9l-3.4,3.1c-1.6-1.7-3.6-2.6-5.9-2.6c-1.5,0-2.7,0.3-3.9,0.9c-1.1,0.6-2,1.5-2.6,2.6s-0.9,2.4-0.9,3.8
			s0.3,2.7,0.9,3.8c0.6,1.1,1.5,2,2.6,2.6s2.4,0.9,3.8,0.9c1.5,0,2.9-0.3,4.1-1v-6.4H65.8z"/>
		<path class="st0" d="M96.4,288.1v22.7h-4.3L80.7,297v13.8h-5.2v-22.7h4.4l11.3,13.8v-13.8L96.4,288.1L96.4,288.1z"/>
		<path class="st0" d="M106.4,309.7c-1.9-1-3.3-2.4-4.4-4.2c-1.1-1.8-1.6-3.8-1.6-6.1c0-2.3,0.5-4.3,1.6-6.1
			c1.1-1.8,2.5-3.2,4.4-4.2s4-1.5,6.3-1.5c2,0,3.8,0.3,5.3,1c1.6,0.7,2.9,1.7,4,3l-3.4,3.1c-1.5-1.8-3.4-2.7-5.7-2.7
			c-1.4,0-2.7,0.3-3.8,0.9c-1.1,0.6-2,1.5-2.6,2.6s-0.9,2.4-0.9,3.8s0.3,2.7,0.9,3.8c0.6,1.1,1.5,2,2.6,2.6s2.4,0.9,3.8,0.9
			c2.3,0,4.2-0.9,5.7-2.7l3.4,3.1c-1.1,1.3-2.4,2.3-4,3s-3.4,1-5.4,1C110.3,311.2,108.2,310.7,106.4,309.7z"/>
	</g>
</g>
</svg>
