<?xml version="1.0" encoding="utf-8"?>
<!-- Generator: Adobe Illustrator 16.0.0, SVG Export Plug-In . SVG Version: 6.00 Build 0)  -->
<!DOCTYPE svg PUBLIC "-//W3C//DTD SVG 1.1//EN" "http://www.w3.org/Graphics/SVG/1.1/DTD/svg11.dtd">
<svg version="1.1" id="Capa_1" xmlns="http://www.w3.org/2000/svg" xmlns:xlink="http://www.w3.org/1999/xlink" x="0px" y="0px"
	 width="512px" height="512px" viewBox="0 0 512 512" enable-background="new 0 0 512 512" xml:space="preserve">
<polygon fill="#F0BC5E" stroke="#000000" stroke-miterlimit="10" points="336.332,247.465 281.602,221.867 281.602,162.133 
	409.602,162.133 426.645,187.719 426.668,247.465 "/>
<rect x="307.199" y="128" fill="#F0BC5E" stroke="#000000" stroke-miterlimit="10" width="76.801" height="17.066"/>
<rect x="443.734" y="213.332" fill="#F0BC5E" stroke="#000000" stroke-miterlimit="10" width="17.066" height="17.066"/>
<rect x="477.867" y="187.734" fill="#F0BC5E" stroke="#000000" stroke-miterlimit="10" width="17.633" height="59.73"/>
<path d="M486.398,170.668h-17.066c-4.711,0-8.531,3.82-8.531,8.531v17.066h-17.066v-8.531c-0.012-9.422-7.645-17.059-17.066-17.066
	v-8.535c-0.012-9.422-7.645-17.059-17.066-17.066h-8.535V128c-0.008-9.422-7.645-17.059-17.066-17.066h-3.258l-14.84-29.68
	c2.113-1.094,4.102-2.406,5.938-3.918c7.723-6.48,12.176-16.055,12.16-26.137c0-4.711-3.82-8.531-8.535-8.531
	c-4.711,0-8.531,3.82-8.531,8.531c0.102,6.164-3.234,11.871-8.656,14.805l-0.777-1.555c-1.602-2.688-4.504-4.336-7.633-4.336
	c-3.133,0-6.031,1.648-7.633,4.336l-0.77,1.535c-5.398-3.023-8.727-8.746-8.691-14.934c0.039-6.191,3.438-11.871,8.875-14.828
	c10.336-5.355,16.805-16.047,16.75-27.688c-0.016-2.227-0.93-4.348-2.539-5.883s-3.77-2.355-5.992-2.27
	c-4.785,0.184-8.563,4.129-8.535,8.918c-0.23,5.137-3.262,9.734-7.895,11.969c-10.996,6.023-17.801,17.594-17.723,30.129
	c0.074,12.539,7.02,24.023,18.086,29.918l-14.809,29.617h-11.793c-9.422,0.008-17.055,7.645-17.066,17.066v17.066h-8.531
	c-9.422,0.008-17.059,7.645-17.066,17.066v25.602h-17.07v-25.602c0-4.711-3.82-8.531-8.531-8.531c-4.715,0-8.535,3.82-8.535,8.531
	v68.266c0,4.715,3.82,8.535,8.535,8.535c4.711,0,8.531-3.82,8.531-8.535v-25.598h17.07v17.066
	c0.008,9.422,7.645,17.059,17.066,17.066h22.066l20.598,20.602c3.195,3.211,7.539,5.012,12.066,5h90.336
	c9.422-0.012,17.055-7.648,17.066-17.07h17.066V256c0,4.711,3.82,8.535,8.531,8.535h17.066
	c14.133-0.016,25.586-11.469,25.602-25.602v-42.668C511.984,182.133,500.531,170.684,486.398,170.668z M349.867,87.344l11.793,23.59
	h-23.586L349.867,87.344z M307.199,128H384v17.066h-76.801V128z M426.668,247.465h-90.336l-20.598-20.598
	c-3.195-3.211-7.539-5.012-12.066-5h-22.066v-59.734h128v8.535c0.004,9.41,7.633,17.043,17.043,17.051h0.023V247.465z
	 M443.734,230.398v-17.066h17.066v17.066H443.734z M494.934,238.934c-0.008,4.711-3.824,8.527-8.535,8.531h-8.531v-59.73h8.531
	c4.711,0.004,8.527,3.82,8.535,8.531V238.934z"/>
<path d="M417.723,295.766l-128.461-18.348c-18.074-2.516-35.129-9.891-49.344-21.332l-84.773-67.867
	c-21.258-16.832-47.563-26.02-74.676-26.086H17.066C7.645,162.145,0.008,169.777,0,179.199v315.734
	c0.008,9.422,7.645,17.059,17.066,17.066h167.426c12.363,0.012,22.402-9.992,22.441-22.355c-0.066-11.742,2.73-23.324,8.145-33.738
	c0.586-1.25,1.242-2.461,1.973-3.629c15.059-26.188,44.449-40.684,74.391-36.684c22.762,3.117,42.758,16.699,54.047,36.711
	c7.09,12.223,10.813,26.109,10.777,40.238c0,1.566,0.43,3.102,1.242,4.438c3.164,9,11.664,15.02,21.203,15.02h45.824
	c20.02-0.023,36.242-16.246,36.266-36.266V345.344C460.688,320.434,442.371,299.352,417.723,295.766z M443.734,384h-42.668
	c-4.711-0.008-8.527-3.824-8.531-8.535v-8.531c0.004-4.711,3.82-8.527,8.531-8.535h42.668V384z M234.129,273.066H125.012
	l-26.547-59.734h60.75l70.016,56.055C230.828,270.672,232.473,271.871,234.129,273.066z M17.066,213.246l28.059-0.285l19.387,60.105
	H17.066V213.246z M184.492,494.934H17.066v-34.133h177.586c-3.137,9.293-4.754,19.031-4.785,28.844
	C189.84,492.586,187.434,494.953,184.492,494.934z M293.633,398.664c-36.676-4.898-72.684,12.801-91.215,44.828
	c-0.051,0.086-0.078,0.16-0.129,0.242H17.066v-93.867h34.133c4.715,0,8.535-3.82,8.535-8.535c0-4.711-3.82-8.531-8.535-8.531H17.066
	v-42.668h47.445c5.613,0,10.867-2.762,14.047-7.387c3.113-4.465,3.863-10.16,2.016-15.277l-19.293-60.008
	c-2.438-6.719-8.82-11.191-15.969-11.195H17.066v-17.066h63.402c20.156,0.051,39.855,5.984,56.688,17.066H98.461
	c-5.777,0-11.16,2.922-14.309,7.77c-3.148,4.844-3.633,10.953-1.285,16.23l26.551,59.738c2.746,6.156,8.855,10.125,15.594,10.129
	h143.379c6.039,1.887,12.223,3.285,18.484,4.184l128.438,18.344c14.73,2.168,26.203,13.898,28.047,28.672h-42.293
	c-14.133,0.016-25.586,11.469-25.602,25.602v8.531c0.016,14.133,11.469,25.586,25.602,25.602h42.668v42.668h-83.492l-0.02-0.043
	C346.281,419.102,321.645,402.441,293.633,398.664z M424.535,494.934h-45.824c-2.945,0.02-5.352-2.348-5.379-5.289
	c0.004-0.41-0.027-0.816-0.086-1.219c-0.441-9.422-2.254-18.727-5.375-27.625h75.863v14.934
	C443.723,486.332,435.133,494.922,424.535,494.934z"/>
<path d="M452.266,0c-4.711,0-8.531,3.82-8.531,8.535V88.66l-9.75-16.25c-2.441-4.004-7.656-5.285-11.676-2.875
	c-4.023,2.414-5.344,7.617-2.957,11.656l25.598,42.668c0.094,0.156,0.234,0.27,0.336,0.422c0.508,0.703,1.109,1.336,1.789,1.875
	c0.215,0.18,0.441,0.344,0.676,0.496c0.598,0.375,1.242,0.676,1.914,0.891c0.113,0.039,0.207,0.117,0.324,0.152l0.086,0.008
	c0.672,0.18,1.367,0.273,2.066,0.281l0.125,0.016h0.008c0.078,0,0.156-0.027,0.234-0.031c0.66-0.012,1.316-0.098,1.957-0.258
	c0.203-0.055,0.391-0.168,0.594-0.238c0.516-0.164,1.016-0.379,1.488-0.637l0.113-0.047c0.086-0.055,0.129-0.141,0.211-0.191
	c0.75-0.492,1.414-1.102,1.973-1.805c0.152-0.188,0.309-0.355,0.445-0.555c0.09-0.137,0.215-0.234,0.297-0.375l25.602-42.668
	c1.594-2.613,1.664-5.883,0.184-8.566s-4.281-4.367-7.348-4.41c-3.063-0.043-5.914,1.555-7.469,4.195l-9.754,16.246V8.535
	C460.801,3.82,456.98,0,452.266,0z"/>
<path d="M238.934,0c-4.715,0-8.535,3.82-8.535,8.535V88.66l-9.75-16.25c-1.555-2.641-4.406-4.238-7.473-4.195
	c-3.063,0.043-5.867,1.727-7.344,4.41c-1.48,2.68-1.41,5.949,0.184,8.566l25.602,42.668c0.094,0.156,0.23,0.27,0.336,0.422
	c0.508,0.703,1.109,1.336,1.793,1.875c0.215,0.18,0.441,0.344,0.672,0.496c0.602,0.375,1.242,0.676,1.918,0.891
	c0.113,0.039,0.203,0.117,0.324,0.152l0.082,0.008c0.676,0.18,1.371,0.273,2.066,0.281l0.125,0.016h0.008
	c0.078,0,0.156-0.027,0.234-0.031c0.66-0.012,1.313-0.098,1.953-0.258c0.203-0.055,0.395-0.168,0.598-0.238
	c0.516-0.164,1.012-0.379,1.488-0.637l0.113-0.047c0.086-0.055,0.129-0.141,0.211-0.191c0.75-0.492,1.414-1.102,1.973-1.805
	c0.152-0.188,0.309-0.355,0.445-0.555c0.09-0.137,0.211-0.234,0.297-0.375l25.598-42.668c2.383-4.039,1.063-9.242-2.957-11.656
	c-4.02-2.41-9.234-1.129-11.676,2.875l-9.754,16.246V8.535C247.465,3.82,243.645,0,238.934,0z"/>
</svg>
