<svg id="Layer_35" enable-background="new 0 0 64 64" height="512" viewBox="0 0 64 64" width="512" xmlns="http://www.w3.org/2000/svg"><path d="m6 52h20v5h-20z" fill="#f0bc5e"/><path d="m32 2h8v28h-8z" fill="#f0bc5e"/><path d="m51.417 38.656c1.596-.731 3.583-1.64 3.583-3.656h-2c0 .679-1.001 1.19-2.416 1.838-1.597.731-3.584 1.641-3.584 3.657 0 2.017 1.987 2.927 3.583 3.659 1.415.648 2.417 1.16 2.417 1.84 0 .682-1.002 1.194-2.417 1.843-1.597.732-3.583 1.643-3.583 3.66s1.986 2.928 3.583 3.661c1.415.649 2.417 1.16 2.417 1.842h2c0-2.017-1.986-2.928-3.583-3.661-1.415-.649-2.417-1.16-2.417-1.842s1.002-1.193 2.417-1.842c1.596-.733 3.583-1.644 3.583-3.661s-1.987-2.927-3.583-3.659c-1.415-.648-2.417-1.16-2.417-1.84s1.002-1.191 2.417-1.839z"/><path d="m43.417 53.339c-1.415-.649-2.417-1.16-2.417-1.842s1.002-1.193 2.417-1.842c1.596-.733 3.583-1.644 3.583-3.661s-1.987-2.927-3.583-3.659c-1.415-.648-2.417-1.16-2.417-1.84 0-.679 1.002-1.19 2.417-1.838 1.596-.732 3.583-1.641 3.583-3.657h-2c0 .679-1.001 1.19-2.416 1.838-1.597.731-3.584 1.641-3.584 3.657 0 2.017 1.987 2.927 3.583 3.659 1.415.648 2.417 1.16 2.417 1.84 0 .682-1.002 1.194-2.417 1.843-1.597.732-3.583 1.643-3.583 3.66s1.986 2.928 3.583 3.661c1.415.649 2.417 1.16 2.417 1.842h2c0-2.017-1.986-2.928-3.583-3.661z"/><path d="m35.417 53.339c-1.415-.649-2.417-1.16-2.417-1.842s1.002-1.193 2.417-1.842c1.596-.733 3.583-1.644 3.583-3.661s-1.987-2.927-3.583-3.659c-1.415-.648-2.417-1.16-2.417-1.84 0-.679 1.002-1.19 2.417-1.838 1.596-.732 3.583-1.641 3.583-3.657h-2c0 .679-1.001 1.19-2.416 1.838-1.597.731-3.584 1.641-3.584 3.657 0 2.017 1.987 2.927 3.583 3.659 1.415.648 2.417 1.16 2.417 1.84 0 .682-1.002 1.194-2.417 1.843-1.597.732-3.583 1.643-3.583 3.66s1.986 2.928 3.583 3.661c1.415.649 2.417 1.16 2.417 1.842h2c0-2.017-1.986-2.928-3.583-3.661z"/><path d="m35 25h2v2h-2z"/><path d="m35 21h2v2h-2z"/><path d="m35 17h2v2h-2z"/><path d="m35 13h2v2h-2z"/><path d="m35 9h2v2h-2z"/><path d="m35 5h2v2h-2z"/><path d="m40 9h15v2h-15z"/><path d="m27 5h5v2h-5z"/><path d="m40 17h5v2h-5z"/><path d="m17 13h15v2h-15z"/><path d="m40 25h11v2h-11z"/><path d="m25 21h7v2h-7z"/><path d="m58.16 1h-44.32c-2.669 0-4.84 2.171-4.84 4.84 0 .134.006.268.018.402l1.593 19.115c-.953.504-1.611 1.493-1.611 2.643v5.379c-1.362-1.462-3.304-2.379-5.456-2.379-1.402 0-2.544 1.137-2.544 2.535 0 .502.147.988.426 1.406l1.029 1.543c.381.572.627 1.234.712 1.916l.644 5.143c.15 1.207.615 2.359 1.346 3.333l1.843 2.457v1.667h-2v12h22v-12h-2v-1.764l1.261-2.521c.483-.967.739-2.05.739-3.132v-12.583h29.467c2.498 0 4.616-1.95 4.822-4.438l1.693-20.32c.012-.134.018-.267.018-.402 0-2.669-2.171-4.84-4.84-4.84zm-33.16 60h-18v-8h18zm0-17.417c0 .772-.183 1.545-.528 2.236l-1.472 2.945v2.236h-14v-2.333l-2.244-2.992c-.521-.695-.854-1.518-.961-2.38l-.644-5.143c-.123-.987-.479-1.948-1.032-2.777l-1.029-1.543c-.059-.088-.09-.191-.09-.297 0-.3.239-.535.544-.535 3.009 0 5.456 2.448 5.456 5.457v1.543h2v-12c0-.551.448-1 1-1s1 .449 1 1v6h2v-6-4c0-.551.448-1 1-1s1 .449 1 1v3 7h2v-7c0-.551.448-1 1-1s1 .449 1 1v3 4h2v-4c0-.551.448-1 1-1s1 .449 1 1zm31.467-14.583h-29.651c-.414-1.161-1.514-2-2.816-2-.352 0-.686.072-1 .184v-.184h1 8v-2h-9.78c-.549-.609-1.337-1-2.22-1-.352 0-.686.072-1 .184v-.184c0-.352-.072-.686-.184-1h4.184v-2h-7c-1.654 0-3 1.346-3 3v1.184c-.134-.048-.267-.096-.409-.125l-.505-6.059h19.914v-2h-20.08l-.167-2h3.247v-2h-3.413l-.167-2h20.58v-2h-20.747l-.167-2h13.914v-2h-13.859c.361-1.154 1.427-2 2.698-2h44.32c1.271 0 2.337.846 2.698 2h-20.857v2h20.913l-.167 2h-3.746v2h3.58l-.167 2h-20.413v2h20.247l-.167 2h-13.08v2h12.913l-.167 2h-19.746v2h19.58l-.167 2h-6.413v2h6.172c-.363 1.158-1.45 2-2.705 2z"/></svg>