<?xml version="1.0" encoding="utf-8"?>
<!-- Generator: Adobe Illustrator 16.0.0, SVG Export Plug-In . SVG Version: 6.00 Build 0)  -->
<!DOCTYPE svg PUBLIC "-//W3C//DTD SVG 1.1//EN" "http://www.w3.org/Graphics/SVG/1.1/DTD/svg11.dtd">
<svg version="1.1" id="Capa_1" xmlns="http://www.w3.org/2000/svg" xmlns:xlink="http://www.w3.org/1999/xlink" x="0px" y="0px"
	 width="560px" height="560px" viewBox="200 0 560 560" enable-background="new 200 0 560 560" xml:space="preserve">
<g>
	<path fill="#F0BC5E" d="M398.709,171.613c-19.925,0-36.129,16.204-36.129,36.129c0,3.08,0.515,6.087,1.273,9.032h7.759
		c9.981,0,18.064,8.083,18.064,18.064v7.75c2.945,0.768,5.953,1.283,9.032,1.283c19.925,0,36.129-16.204,36.129-36.129
		C434.839,187.817,418.635,171.613,398.709,171.613z"/>
	<path fill="#F0BC5E" d="M669.678,243.871c-19.926,0-36.129-16.204-36.129-36.129c0-19.925,16.203-36.129,36.129-36.129
		c19.925,0,36.129,16.204,36.129,36.129C705.807,227.667,689.603,243.871,669.678,243.871z"/>
	<rect x="209.032" y="252.903" fill="#F0BC5E" width="180.645" height="45.162"/>
</g>
<g>
	<path d="M732.903,90.323h-43.97l-6.341-50.761C679.775,17.008,660.51,0,637.784,0H430.603c-22.733,0-41.991,17.008-44.809,39.562
		l-6.34,50.761h-43.969c-14.939,0-27.097,12.157-27.097,27.097v36.129c0,14.939,12.157,27.097,27.097,27.097h0.912
		c-0.596,2.917-0.912,5.943-0.912,9.032v18.065H227.097C212.158,207.743,200,219.9,200,234.84v126.45h22.897l18.064-27.097h31.296
		V458.92c-14.009,8.093-23.556,22.029-26.248,37.854h-18.914v18.063h18.877c4.32,25.589,26.575,45.162,53.383,45.162
		s49.054-19.573,53.38-45.161h18.877v-18.063h-18.914c-2.691-15.825-12.229-29.763-26.248-37.854V334.193h27.097v36.129
		c0,14.938,12.158,27.097,27.097,27.097h36.129c14.939,0,27.097-12.157,27.097-27.097v-45.161h180.646v45.161
		c0,14.938,12.157,27.097,27.098,27.097h36.129c14.938,0,27.097-12.157,27.097-27.097v-45.161c9.963,0,18.064-8.103,18.064-18.064
		v-117.42c0-3.089-0.316-6.115-0.912-9.032h0.912c14.938,0,27.097-12.157,27.097-27.097v-36.129
		C760,102.48,747.843,90.323,732.903,90.323z M403.723,41.801c1.689-13.53,13.241-23.737,26.879-23.737h207.183
		c13.639,0,25.19,10.207,26.89,23.737l12.835,102.715h-18.2L645.76,36.129H422.627l-13.548,108.387h-18.2L403.723,41.801z
		 M427.288,144.516l11.299-90.323h191.231l11.299,90.323H427.288z M611.988,162.581l-21.081,63.226H477.479l-21.081-63.226H611.988z
		 M335.484,162.581c-4.986,0-9.032-4.055-9.032-9.032V117.42c0-4.977,4.046-9.032,9.032-9.032h41.702l-4.615,36.942
		c-11.345,2.059-21.126,8.4-27.819,17.251H335.484z M227.097,225.807h144.516c4.986,0,9.032,4.055,9.032,9.032v9.032H218.064v-9.032
		C218.064,229.862,222.111,225.807,227.097,225.807z M231.297,316.129l-13.232,19.844v-37.907h126.452V280H218.064v-18.064h162.581
		V280h-18.064v18.064h18.064v37.907l-13.232-19.844L231.297,316.129L231.297,316.129z M313.797,472.73
		c13.178,5.771,21.687,18.751,21.687,33.075c0,19.926-16.204,36.129-36.129,36.129s-36.129-16.203-36.129-36.129
		c0-14.324,8.509-27.305,21.687-33.075l5.411-2.366V334.193h18.064v136.171L313.797,472.73z M425.807,370.322
		c0,4.978-4.047,9.031-9.032,9.031h-36.129c-4.986,0-9.032-4.055-9.032-9.031v-15.327l4.2,6.295h22.896v-36.129h27.097V370.322z
		 M696.774,370.322c0,4.978-4.048,9.031-9.032,9.031h-36.129c-4.986,0-9.032-4.055-9.032-9.031v-45.161h54.193V370.322z
		 M398.709,307.097v-18.063h280v-18.064h-280V234.84c0-14.939-12.157-27.097-27.097-27.097h-18.064v-18.065
		c0-14.938,12.158-27.097,27.097-27.097h56.723l27.097,81.291h139.467l27.098-81.291h56.714c14.938,0,27.097,12.158,27.097,27.097
		v81.291h-18.063v18.064h18.063v18.063H398.709z M741.936,153.548c0,4.977-4.047,9.032-9.031,9.032h-9.269
		c-6.701-8.852-16.482-15.183-27.818-17.251l-4.615-36.942h41.702c4.984,0,9.032,4.055,9.032,9.032L741.936,153.548L741.936,153.548
		z"/>
	
		<rect x="498.058" y="61.006" transform="matrix(-0.7071 0.7071 -0.7071 -0.7071 935.8943 -189.0027)" width="18.064" height="76.635"/>
	
		<rect x="552.247" y="61.037" transform="matrix(-0.7071 0.7071 -0.7071 -0.7071 1028.4242 -227.2668)" width="18.064" height="76.636"/>
	<path d="M272.258,505.807c0,14.939,12.158,27.098,27.097,27.098s27.097-12.157,27.097-27.098c0-14.939-12.158-27.097-27.097-27.097
		S272.258,490.867,272.258,505.807z M308.387,505.807c0,4.978-4.046,9.032-9.032,9.032s-9.032-4.056-9.032-9.032
		c0-4.976,4.046-9.031,9.032-9.031S308.387,500.83,308.387,505.807z"/>
</g>
</svg>
