<svg height="496pt" viewBox="-4 0 496 496" width="496pt" xmlns="http://www.w3.org/2000/svg"><g fill="#f0bc5e"><path d="m368.847656 144h-258.320312l15.609375-91.96875c1.96875-11.605469 12.039062-20.03125 23.953125-20.03125h179.199218c11.910157 0 21.984376 8.425781 23.949219 20.03125zm0 0"/><path d="m128 320h-48c-13.230469 0-24-10.769531-24-24v-40h96v40c0 13.230469-10.769531 24-24 24zm0 0"/><path d="m400 320h-48c-13.230469 0-24-10.769531-24-24v-40h96v40c0 13.230469-10.769531 24-24 24zm0 0"/></g><path d="m432 224.007812v-24.007812c0-18.449219-7.121094-35.246094-18.710938-48h14.710938c15.441406 0 28-12.558594 28-28s-12.558594-28-28-28h-29.367188l-8.335937-49.222656c-4.578125-27.105469-28.121094-46.777344-55.960937-46.777344h-188.671876c-27.839843 0-51.382812 19.671875-55.96875 46.777344l-8.328124 49.222656h-29.367188c-15.441406 0-28 12.558594-28 28s12.558594 28 28 28h14.710938c-11.589844 12.753906-18.710938 29.550781-18.710938 48v24.007812c-8.832031.054688-16 7.199219-16 15.992188v16c0 8.824219 7.222656 16 16.097656 16h127.902344c0 8.824219 7.175781 16 16 16h96c8.824219 0 16-7.175781 16-16h127.902344c8.875 0 16.097656-7.175781 16.097656-16v-16c0-8.792969-7.167969-15.9375-16-15.992188zm-264.609375-.007812-7.160156-14.3125c-5.445313-10.910156-16.414063-17.6875-28.613281-17.6875h-66.96875c1.777343-12.160156 7.480468-23.078125 15.871093-31.414062 13.96875 4.460937 73.921875 22.140624 151.359375 23.351562l.25-16c-60.304687-.9375-110.527344-12.472656-134.441406-19.027344 7.089844-3.125 14.921875-4.910156 23.175781-4.910156h238.273438c8.253906 0 16.085937 1.785156 23.175781 4.910156-23.914062 6.554688-74.136719 18.089844-134.441406 19.027344l.25 16c77.4375-1.203125 137.390625-18.882812 151.359375-23.351562 8.390625 8.335937 14.085937 19.253906 15.871093 31.414062h-62.070312c-12.191406 0-23.167969 6.777344-28.625 17.6875l-7.152344 14.3125zm-35.773437-16c6.101562 0 11.582031 3.382812 14.3125 8.839844l3.574218 7.160156h-85.503906v-16zm207.351562 8.839844c2.726562-5.449219 8.207031-8.839844 14.3125-8.839844h62.71875v16h-80.609375zm89.03125-104.839844c6.617188 0 12 5.382812 12 12s-5.382812 12-12 12h-22.59375l-4.0625-24zm-322.527344-62.550781c3.28125-19.386719 20.183594-33.449219 40.191406-33.449219h188.671876c20.007812 0 36.910156 14.0625 40.191406 33.449219l14.375 84.902343c-9.101563-4.046874-19.160156-6.351562-29.765625-6.351562h-238.273438c-10.605469 0-20.664062 2.304688-29.757812 6.351562zm-65.472656 74.550781c0-6.617188 5.382812-12 12-12h26.65625l-4.0625 24h-22.59375c-6.617188 0-12-5.382812-12-12zm8 132 .097656-16h127.902344v16zm144 16v-32h96v32zm239.902344-16h-127.902344v-16h128zm0 0"/><path d="m240 304c-52.9375 0-96 43.0625-96 96s43.0625 96 96 96 96-43.0625 96-96-43.0625-96-96-96zm61.648438 112 9.144531 16h-144.066407c-2.230468-5.089844-3.972656-10.433594-5.109374-16h54.382812v-16h-56c0-5.480469.558594-10.832031 1.617188-16h98.535156c12.640625 0 24.480468 6.03125 31.976562 16h-60.128906v16zm-61.648438 64c-26.097656 0-49.230469-12.617188-63.847656-32h127.695312c-14.617187 19.382812-37.75 32-63.847656 32zm78.742188-66.320312-9.972657-17.464844c-9.945312-17.398438-28.585937-28.214844-48.625-28.214844h-93.417969c12.378907-28.214844 40.546876-48 73.273438-48 44.113281 0 80 35.886719 80 80 0 4.671875-.488281 9.222656-1.257812 13.679688zm0 0"/><path d="m121.945312 353.367188-11.3125-11.3125-14.632812 14.632812v-20.6875h-16v20.6875l-14.632812-14.632812-11.3125 11.3125 14.632812 14.632812h-20.6875v16h20.6875l-14.632812 14.632812 11.3125 11.3125 14.632812-14.632812v20.6875h16v-20.6875l14.632812 14.632812 11.3125-11.3125-14.632812-14.632812h20.6875v-16h-20.6875zm-17.945312 16.007812v13.25l-9.375 9.375h-13.25l-9.375-9.375v-13.25l9.375-9.375h13.25zm0 0"/><path d="m417.945312 433.367188-11.3125-11.3125-14.632812 14.632812v-20.6875h-16v20.6875l-14.632812-14.632812-11.3125 11.3125 14.632812 14.632812h-20.6875v16h20.6875l-14.632812 14.632812 11.3125 11.3125 14.632812-14.632812v20.6875h16v-20.6875l14.632812 14.632812 11.3125-11.3125-14.632812-14.632812h20.6875v-16h-20.6875zm-17.945312 16.007812v13.25l-9.375 9.375h-13.25l-9.375-9.375v-13.25l9.375-9.375h13.25zm0 0"/><path d="m24 198.625v-13.25l10.34375-10.34375-16.976562-16.976562-11.3125 11.3125 14.632812 14.632812h-20.6875v16h20.6875l-14.632812 14.632812 11.3125 11.3125 16.976562-16.976562zm0 0"/><path d="m488 192h-20.6875l14.632812-14.632812-11.3125-11.3125-16.976562 16.976562 10.34375 10.34375v13.25l-10.34375 10.34375 16.976562 16.976562 11.3125-11.3125-14.632812-14.632812h20.6875zm0 0"/></svg>