<?xml version="1.0" encoding="utf-8"?>
<!-- Generator: Adobe Illustrator 16.0.0, SVG Export Plug-In . SVG Version: 6.00 Build 0)  -->
<!DOCTYPE svg PUBLIC "-//W3C//DTD SVG 1.1//EN" "http://www.w3.org/Graphics/SVG/1.1/DTD/svg11.dtd">
<svg version="1.1" id="Capa_1" xmlns="http://www.w3.org/2000/svg" xmlns:xlink="http://www.w3.org/1999/xlink" x="0px" y="0px"
	 width="512px" height="512px" viewBox="0 0 512 512" enable-background="new 0 0 512 512" xml:space="preserve">
<rect x="151.5" y="384" fill="#F0BC5E" stroke="#000000" stroke-miterlimit="10" width="44.767" height="17.066"/>
<rect x="315.733" y="385.306" fill="#F0BC5E" stroke="#000000" stroke-miterlimit="10" width="42.667" height="15.761"/>
<ellipse fill="#F0BC5E" stroke="#000000" stroke-miterlimit="10" cx="102.236" cy="42.291" rx="9.264" ry="9.209"/>
<ellipse fill="#F0BC5E" stroke="#000000" stroke-miterlimit="10" cx="177.617" cy="69" rx="10.117" ry="9.5"/>
<ellipse fill="#F0BC5E" stroke="#000000" stroke-miterlimit="10" cx="255.884" cy="23.999" rx="8.616" ry="9.501"/>
<ellipse fill="#F0BC5E" stroke="#000000" stroke-miterlimit="10" cx="332" cy="65" rx="11.5" ry="13.5"/>
<ellipse fill="#F0BC5E" stroke="#000000" stroke-miterlimit="10" cx="416.544" cy="42.291" rx="17.044" ry="9.209"/>
<g id="_x30_06---AI-Car" transform="translate(0 -1)">
	<path id="Shape" d="M198.682,375.511l-42.667-6.102c-4.898-0.699-9.859,0.761-13.597,4.002c-3.738,3.242-5.885,7.946-5.885,12.895
		v15.761c0,9.426,7.641,17.067,17.067,17.067h42.667c9.426,0,17.067-7.642,17.067-17.067v-9.668
		C213.3,383.92,207.071,376.739,198.682,375.511z M153.6,402.066v-15.761l42.667,6.093v9.668H153.6z"/>
	<path id="Shape_1_" d="M355.984,369.409l-42.666,6.102c-8.39,1.229-14.619,8.409-14.652,16.888v9.668
		c0,9.426,7.642,17.067,17.067,17.067H358.4c9.426,0,17.066-7.642,17.066-17.067v-15.761c0-4.948-2.146-9.652-5.885-12.895
		C365.844,370.17,360.883,368.71,355.984,369.409z M358.4,402.066h-42.667v-9.668l42.667-6.093V402.066z"/>
	<path id="Shape_2_" d="M273.066,367.934h-34.133c-4.713,0-8.534,3.82-8.534,8.533s3.821,8.533,8.534,8.533h34.133
		c4.713,0,8.533-3.82,8.533-8.533S277.779,367.934,273.066,367.934z"/>
	<path id="Shape_3_" d="M273.066,402.066h-34.133c-4.713,0-8.534,3.82-8.534,8.533s3.821,8.534,8.534,8.534h34.133
		c4.713,0,8.533-3.821,8.533-8.534S277.779,402.066,273.066,402.066z"/>
	<path id="Shape_4_" d="M196.267,282.6c4.634,0,4.821-1.288,23.1-19.566c3.234-3.349,3.188-8.671-0.104-11.962
		c-3.292-3.292-8.614-3.338-11.962-0.104l-17.067,17.066c-2.439,2.441-3.169,6.11-1.849,9.299
		C189.705,280.52,192.816,282.6,196.267,282.6L196.267,282.6z"/>
	<path id="Shape_5_" d="M207.3,314.233c3.332,3.331,8.734,3.331,12.066,0l51.2-51.2c3.234-3.349,3.188-8.671-0.104-11.962
		c-3.292-3.292-8.614-3.338-11.963-0.104l-51.2,51.2C203.969,305.499,203.969,310.9,207.3,314.233L207.3,314.233z"/>
	<path id="Shape_6_" d="M503.467,495.934H390.963c2.091-5.88,1.57-5.197,1.57-44.237c10.191-3.603,17.021-13.22,17.066-24.029v-51.2
		c-0.01-11.041-4.318-21.644-12.015-29.56c9.62-6.079,14.071-17.779,10.927-28.716S395.38,299.707,384,299.667h-20.377
		l-13.756-48.197c-2.927-10.066-8.887-18.985-17.067-25.54v-57.958l76.877-46.183c5.271-3.02,8.503-8.646,8.456-14.72V67.696
		c11.756-4.156,18.807-16.176,16.698-28.465S422.068,17.96,409.6,17.96c-12.468,0-23.123,8.982-25.23,21.271
		c-2.109,12.289,4.942,24.309,16.697,28.465v39.407l-76.877,46.182c-5.267,3.019-8.499,8.641-8.456,14.711v48.734
		c-5.513-1.76-11.283-2.57-17.067-2.398v-80.495l34.211-20.583c5.27-3.02,8.502-8.646,8.457-14.72v-5.24
		c11.746-4.165,18.787-16.185,16.674-28.468c-2.113-12.284-12.766-21.26-25.229-21.26c-12.465,0-23.117,8.976-25.23,21.26
		c-2.113,12.283,4.928,24.303,16.676,28.468v5.274l-34.193,20.582c-5.258,3.025-8.479,8.646-8.432,14.711v80.47h-17.066V50.63
		c11.756-4.156,18.807-16.176,16.698-28.465S268.469,0.894,256,0.894c-12.468,0-23.123,8.982-25.231,21.271
		s4.943,24.309,16.698,28.465v163.704H230.4v-80.47c0.062-6.024-3.115-11.618-8.32-14.651l-34.347-20.676v-5.24
		c11.755-4.156,18.806-16.176,16.698-28.465S191.668,43.561,179.2,43.561c-12.468,0-23.123,8.982-25.231,21.271
		s4.943,24.309,16.698,28.465v5.24c-0.062,6.024,3.115,11.618,8.32,14.651l34.347,20.676v80.47
		c-5.784-0.17-11.554,0.641-17.067,2.398v-48.734c0.062-6.026-3.119-11.622-8.329-14.651l-77.004-46.276V67.696
		c11.755-4.156,18.806-16.176,16.698-28.465S114.868,17.96,102.4,17.96c-12.468,0-23.123,8.982-25.231,21.271
		s4.943,24.309,16.698,28.465v39.373c-0.062,6.026,3.119,11.622,8.329,14.652l77.005,46.276v57.933
		c-8.182,6.554-14.142,15.473-17.067,25.54l-13.756,48.197H128c-11.366,0.06-21.331,7.606-24.47,18.53s1.301,22.609,10.902,28.693
		c-7.706,7.918-12.022,18.527-12.032,29.576v51.2c0.045,10.81,6.875,20.427,17.067,24.029c0,39.254-0.512,38.4,1.57,44.237H8.533
		c-4.713,0-8.533,3.82-8.533,8.533S3.82,513,8.533,513h494.934c4.713,0,8.533-3.82,8.533-8.533S508.18,495.934,503.467,495.934
		L503.467,495.934z M409.6,35.133c4.713,0,8.533,3.821,8.533,8.533c0,4.713-3.82,8.534-8.533,8.534s-8.533-3.821-8.533-8.534
		C401.066,38.954,404.887,35.133,409.6,35.133z M332.8,60.733c4.713,0,8.534,3.82,8.534,8.533S337.513,77.8,332.8,77.8
		c-4.712,0-8.533-3.82-8.533-8.533S328.088,60.733,332.8,60.733z M256,18.066c4.713,0,8.533,3.821,8.533,8.534
		s-3.82,8.533-8.533,8.533s-8.533-3.82-8.533-8.533S251.287,18.066,256,18.066z M179.2,60.733c4.713,0,8.533,3.82,8.533,8.533
		s-3.82,8.533-8.533,8.533s-8.534-3.82-8.534-8.533S174.487,60.733,179.2,60.733z M102.4,35.133c4.713,0,8.534,3.821,8.534,8.533
		c0,4.713-3.821,8.534-8.534,8.534s-8.533-3.821-8.533-8.534C93.867,38.954,97.687,35.133,102.4,35.133z M392.533,427.667
		c0,4.713-3.82,8.533-8.533,8.533H128c-4.713,0-8.533-3.82-8.533-8.533v-51.2c0-14.139,11.461-25.6,25.6-25.6h221.867
		c14.139,0,25.6,11.461,25.6,25.6V427.667z M179.2,453.267h153.6c0,37.035-0.528,36.762,1.57,42.667H177.63
		C179.721,490.071,179.2,490.686,179.2,453.267L179.2,453.267z M384,316.733c3.449,0.028,6.543,2.13,7.839,5.327
		s0.54,6.859-1.917,9.282c-3.242,3.327-6.725,2.457-16.546,2.457l-4.881-17.066H384z M178.568,256.146
		c4.227-14.621,17.591-24.701,32.811-24.747h89.242c15.219,0.046,28.584,10.126,32.811,24.747l22.187,77.653H156.382
		L178.568,256.146z M128,316.733h15.505l-4.881,17.066c-10.735,0-13.406,0.76-16.708-2.611c-2.368-2.456-3.045-6.087-1.721-9.232
		C121.518,318.812,124.588,316.757,128,316.733z M145.067,495.934c-4.713,0-8.534-3.82-8.534-8.533v-34.134h25.6V487.4
		c0,4.713-3.82,8.533-8.533,8.533H145.067z M358.4,495.934c-4.713,0-8.533-3.82-8.533-8.533v-34.134h25.6V487.4
		c0,4.713-3.82,8.533-8.533,8.533H358.4z"/>
</g>
</svg>
