<svg height="496pt" viewBox="-75 0 495 496" width="496pt" xmlns="http://www.w3.org/2000/svg"><path d="m128.5 231.902344v-71.046875c0-7.96875 5.449219-15.359375 13.3125-16.640625 10.023438-1.628906 18.6875 6.066406 18.6875 15.785156v48c0-9.71875 8.664062-17.414062 18.6875-15.785156 7.863281 1.28125 13.3125 8.664062 13.3125 16.640625v15.144531c0-9.71875 8.664062-17.414062 18.6875-15.785156 7.863281 1.28125 13.3125 8.664062 13.3125 16.640625v.167969l2.398438-.167969c38-21.207031 61.601562-61.375 61.601562-104.855469 0-66.167969-53.832031-120-120-120s-120 53.832031-120 120c0 49.40625 31 94.464844 77.136719 112.113281zm0 0" fill="#f0bc5e"/><path d="m244.46875 232.328125c-4.082031-.664063-8.183594-.28125-11.96875 1.046875v-8.519531c0-12.128907-8.609375-22.671875-20.03125-24.527344-2.960938-.488281-5.921875-.367187-8.777344.214844 7.304688-3.191407 14.199219-7.261719 20.496094-12.414063l-10.144531-12.386718c-7.101563 5.816406-15.101563 10.042968-23.75 12.785156-2.871094-2.121094-6.199219-3.617188-9.832031-4.199219-4.082032-.664063-8.183594-.273437-11.96875 1.046875v-25.375c0-5.992188-2.328126-11.617188-6.289063-16h38.296875c13.230469 0 24-10.769531 24-24s-10.769531-24-24-24h-64c-13.230469 0-24 10.769531-24 24 0 10.382812 6.664062 19.160156 15.902344 22.496094-4.832032 4.601562-7.902344 11.175781-7.902344 18.359375v12.59375c-15-13.519531-24-32.882813-24-53.449219 0-16.558594 5.777344-32.742188 16.257812-45.550781l-12.378906-10.136719c-12.816406 15.664062-19.878906 35.441406-19.878906 55.6875 0 29.703125 15.289062 57.367188 40 73.542969v54.664062c-6.703125-5.078125-14.960938-8.207031-24-8.207031-8.824219 0-16 7.175781-16 16v103.136719c0 7.246093 1.96875 14.359375 5.703125 20.582031l18.296875 30.496094v37.785156h-16v48h160v-48h-16v-37.191406l23.230469-29.039063c5.648437-7.082031 8.769531-15.953125 8.769531-24.992187v-99.921875c0-12.128907-8.609375-22.671875-20.03125-24.527344zm-107.96875-120.328125h64c4.414062 0 8 3.59375 8 8s-3.585938 8-8 8h-64c-4.414062 0-8-3.59375-8-8s3.585938-8 8-8zm96 368h-128v-16h128zm16-123.222656c0 5.421875-1.863281 10.75-5.265625 15l-26.734375 33.414062v42.808594h-96v-42.214844l-20.574219-34.304687c-2.242187-3.726563-3.425781-8-3.425781-12.34375v-103.136719c13.230469 0 24 10.769531 24 24v40h16v-159.144531c0-4.296875 2.894531-8.136719 6.59375-8.742188 2.421875-.371093 4.765625.246094 6.582031 1.789063 1.792969 1.523437 2.824219 3.746094 2.824219 6.097656v160h16v-112c0-2.351562 1.03125-4.574219 2.824219-6.097656 1.824219-1.550782 4.152343-2.183594 6.574219-1.789063 3.707031.605469 6.601562 4.445313 6.601562 8.742188v111.144531h16v-96c0-2.351562 1.03125-4.574219 2.824219-6.097656 1.824219-1.550782 4.152343-2.183594 6.574219-1.789063 3.707031.605469 6.601562 4.445313 6.601562 8.742188v95.144531h16v-64c0-2.351562 1.03125-4.574219 2.824219-6.097656 1.824219-1.542969 4.160156-2.183594 6.574219-1.789063 3.707031.605469 6.601562 4.445313 6.601562 8.742188zm0 0"/><path d="m168.5 48c39.703125 0 72 32.304688 72 72 0 16.558594-5.777344 32.742188-16.257812 45.550781l12.378906 10.136719c12.816406-15.664062 19.878906-35.441406 19.878906-55.6875 0-48.519531-39.480469-88-88-88-20.246094 0-40.023438 7.054688-55.6875 19.871094l10.144531 12.386718c12.800781-10.480468 28.984375-16.257812 45.542969-16.257812zm0 0"/><path d="m46.5625 318.054688c-9.070312 9.066406-14.0625 21.121093-14.0625 33.945312s4.992188 24.878906 14.0625 33.945312l11.3125-11.320312c-6.046875-6.039062-9.375-14.074219-9.375-22.625s3.328125-16.585938 9.375-22.625zm0 0"/><path d="m35.242188 306.742188-11.308594-11.308594c-15.113282 15.109375-23.433594 35.207031-23.433594 56.566406s8.320312 41.457031 23.433594 56.566406l11.308594-11.308594c-12.085938-12.089843-18.742188-28.160156-18.742188-45.257812s6.65625-33.167969 18.742188-45.257812zm0 0"/><path d="m298.4375 318.054688-11.3125 11.320312c6.046875 6.039062 9.375 14.074219 9.375 22.625s-3.328125 16.585938-9.375 22.625l11.3125 11.320312c9.070312-9.066406 14.0625-21.121093 14.0625-33.945312s-4.992188-24.878906-14.0625-33.945312zm0 0"/><path d="m321.066406 295.433594-11.308594 11.308594c12.085938 12.089843 18.742188 28.160156 18.742188 45.257812s-6.65625 33.167969-18.742188 45.257812l11.308594 11.308594c15.113282-15.109375 23.433594-35.207031 23.433594-56.566406s-8.320312-41.457031-23.433594-56.566406zm0 0"/></svg>