<?xml version="1.0" encoding="utf-8"?>
<!-- Generator: Adobe Illustrator 16.0.0, SVG Export Plug-In . SVG Version: 6.00 Build 0)  -->
<!DOCTYPE svg PUBLIC "-//W3C//DTD SVG 1.1//EN" "http://www.w3.org/Graphics/SVG/1.1/DTD/svg11.dtd">
<svg version="1.1" id="Capa_1" xmlns="http://www.w3.org/2000/svg" xmlns:xlink="http://www.w3.org/1999/xlink" x="0px" y="0px"
	 width="560px" height="560px" viewBox="200 0 560 560" enable-background="new 200 0 560 560" xml:space="preserve">
<rect x="229.5" y="301.771" fill="#F0BC5E" width="500" height="174.729"/>
<g>
	<g>
		<path d="M741.333,340.667v-93.333c0-15.464-12.535-28-28-28H340v-40.441l-28-37.333V126c10.31,0,18.667-8.357,18.667-18.667
			V88.667C330.667,78.357,322.31,70,312,70h-84c-10.31,0-18.667,8.357-18.667,18.667v18.667c0,10.31,8.356,18.667,18.667,18.667
			v31.108l28,37.333v24.892h-9.333c-15.464,0-28,12.536-28,28v93.333H200v18.666h18.667V462c0,15.464,12.536,28,28,28h466.667
			c15.465,0,28-12.536,28-28V359.333H760v-18.666H741.333z M228,88.667h84v18.667h-84V88.667z M246.667,150.892V126h46.667v21.774
			l28,37.333v34.226h-46.667v-31.108L246.667,150.892z M722.667,462c0,5.154-4.18,9.333-9.334,9.333H246.667
			c-5.154,0-9.333-4.179-9.333-9.333V247.333c0-5.154,4.179-9.333,9.333-9.333h466.667c5.154,0,9.334,4.179,9.334,9.333L722.667,462
			L722.667,462z"/>
	</g>
</g>
<g>
	<g>
		<path d="M676.522,294.477c-9.104,9.173-23.918,9.229-33.091,0.127c-0.042-0.043-0.085-0.084-0.127-0.127
			c-15.977-14.659-40.51-14.659-56.484,0c-9.072,9.152-23.847,9.217-32.998,0.146c-0.05-0.05-0.098-0.099-0.146-0.146
			c-15.957-14.669-40.492-14.669-56.448,0c-9.077,9.146-23.852,9.203-32.997,0.125c-0.043-0.041-0.084-0.084-0.127-0.125
			c-15.96-14.671-40.496-14.671-56.458,0c-9.074,9.148-23.849,9.209-32.998,0.135c-0.045-0.045-0.091-0.09-0.135-0.135
			c-15.959-14.667-40.49-14.667-56.448,0c-9.042,9.14-23.779,9.22-32.919,0.178c-0.06-0.059-0.119-0.118-0.177-0.178
			c-7.642-7.151-17.74-11.092-28.206-11.004v18.666c6.226-0.054,12.201,2.441,16.539,6.906c7.645,7.16,17.75,11.105,28.224,11.023
			c10.465,0.085,20.563-3.854,28.206-11.004c9.08-9.146,23.854-9.197,32.998-0.117c0.039,0.038,0.078,0.077,0.117,0.117
			c15.962,14.673,40.504,14.673,56.466,0c9.078-9.147,23.852-9.204,32.998-0.127c0.042,0.043,0.084,0.085,0.126,0.127
			c15.96,14.672,40.498,14.672,56.457,0c9.081-9.146,23.854-9.197,32.998-0.117c0.039,0.038,0.078,0.077,0.117,0.117
			c15.961,14.667,40.496,14.667,56.457,0c9.061-9.166,23.833-9.252,32.998-0.191c0.064,0.063,0.129,0.127,0.191,0.191
			c15.984,14.66,40.528,14.66,56.514,0c4.354-4.476,10.351-6.975,16.595-6.916V283.48
			C694.291,283.395,684.182,287.329,676.522,294.477z"/>
	</g>
</g>
</svg>
