<?xml version="1.0" encoding="utf-8"?>
<!-- Generator: Adobe Illustrator 16.0.0, SVG Export Plug-In . SVG Version: 6.00 Build 0)  -->
<!DOCTYPE svg PUBLIC "-//W3C//DTD SVG 1.1//EN" "http://www.w3.org/Graphics/SVG/1.1/DTD/svg11.dtd">
<svg version="1.1" id="Capa_1" xmlns="http://www.w3.org/2000/svg" xmlns:xlink="http://www.w3.org/1999/xlink" x="0px" y="0px"
	 width="559.999px" height="560px" viewBox="200 0 559.999 560" enable-background="new 200 0 559.999 560" xml:space="preserve">
<g>
	<g>
		<path d="M702.598,198.408l-49.605-49.597c-13.244-13.528-33.431-17.549-50.849-10.126c-6.22,2.56-11.817,6.424-16.417,11.331
			c-14.73-40.563-53.238-67.599-96.395-67.676H302.666c-56.673,0.067-102.6,45.994-102.666,102.667v74.666
			c0.066,56.673,45.993,102.601,102.666,102.666h186.666c35.809-0.045,69.002-18.754,87.584-49.363
			c7.354,38.407,26.106,73.708,53.815,101.305l49.605,49.597c8.611,8.773,20.373,13.737,32.667,13.785
			c6.233-0.02,12.401-1.266,18.152-3.668c17.58-7.054,29.028-24.17,28.841-43.11V337
			C760.134,284.991,739.467,235.089,702.598,198.408z M573.332,259.672c-0.052,46.37-37.63,83.948-84,84H302.666
			c-46.37-0.052-83.948-37.63-84-84v-74.666c0.051-46.37,37.629-83.948,84-84h186.666c46.37,0.052,83.948,37.63,84,84V259.672z
			 M741.331,430.882c-0.004,15.464-12.542,27.998-28.006,27.994c-7.422-0.001-14.54-2.95-19.79-8.198l-49.606-49.597
			c-33.357-33.188-52.057-78.338-51.931-125.393v-93.884c-0.104-11.358,6.758-21.622,17.295-25.862
			c3.479-1.438,7.203-2.179,10.967-2.184c7.36-0.012,14.41,2.966,19.534,8.25l49.606,49.597
			c33.357,33.188,52.057,78.338,51.931,125.393V430.882L741.331,430.882z"/>
	</g>
</g>
<circle fill="#F0BC5E" stroke="#000000" stroke-miterlimit="10" cx="398.762" cy="218.945" r="91.555"/>
<g>
	<g>
		<path d="M395.999,119.673c-56.701,0-102.666,45.965-102.666,102.666c0,56.701,45.965,102.666,102.666,102.666
			s102.666-45.965,102.666-102.666C498.599,165.666,452.672,119.739,395.999,119.673z M395.999,138.339
			c32.564,0.041,62.17,18.9,75.973,48.393c-3.441-1.094-7.026-1.675-10.64-1.727H330.666c-3.612,0.051-7.197,0.632-10.64,1.727
			C333.83,157.239,363.436,138.38,395.999,138.339z M395.999,306.339c-32.563-0.041-62.169-18.899-75.973-48.394
			c3.442,1.094,7.028,1.675,10.64,1.727h130.666c3.612-0.051,7.197-0.632,10.64-1.727
			C458.169,287.438,428.563,306.298,395.999,306.339z M461.332,241.005H330.666c-10.31,0-18.667-8.357-18.667-18.667
			s8.357-18.667,18.667-18.667h130.666c10.31,0,18.667,8.357,18.667,18.667S471.642,241.005,461.332,241.005z"/>
	</g>
</g>
<g>
	<g>
		<path d="M663.93,215.74L663.93,215.74l-22.119-22.12c-5.997-5.989-14.384-8.941-22.811-8.026
			c-5.138,0.435-8.947,4.953-8.513,10.088c0.436,5.137,4.953,8.947,10.089,8.512c0.14-0.012,0.28-0.027,0.421-0.045
			c2.814-0.301,5.616,0.683,7.625,2.679l22.11,22.11c3.708,3.581,9.615,3.479,13.196-0.229
			C667.423,225.091,667.423,219.357,663.93,215.74z"/>
	</g>
</g>
<g>
	<g>
		<path d="M691.93,243.74l-9.333-9.333c-3.645-3.644-9.553-3.644-13.196,0c-3.645,3.645-3.645,9.553,0,13.197l9.333,9.333
			c3.708,3.582,9.615,3.479,13.196-0.229C695.424,253.092,695.424,247.357,691.93,243.74z"/>
	</g>
</g>
</svg>
