<?xml version="1.0" encoding="utf-8"?>
<!-- Generator: Adobe Illustrator 16.0.0, SVG Export Plug-In . SVG Version: 6.00 Build 0)  -->
<!DOCTYPE svg PUBLIC "-//W3C//DTD SVG 1.1//EN" "http://www.w3.org/Graphics/SVG/1.1/DTD/svg11.dtd">
<svg version="1.1" id="Capa_1" xmlns="http://www.w3.org/2000/svg" xmlns:xlink="http://www.w3.org/1999/xlink" x="0px" y="0px"
	 width="512px" height="512px" viewBox="0 0 512 512" enable-background="new 0 0 512 512" xml:space="preserve">
<path fill="#F0BC5E" d="M155.856,484.278c-4.3,4.304-11.84,3.737-16.838-1.261L24.77,368.771
	c-4.998-4.998-5.562-12.536-1.261-16.839L351.932,23.51c4.303-4.301,11.842-3.737,16.84,1.26l114.246,114.249
	c4.999,4.998,5.563,12.537,1.261,16.838L155.856,484.278z"/>
<path fill="#F0BC5E" d="M386.915,183.085c-1.058,1.059-3.679,0.152-5.853-2.021l-49.701-49.701
	c-2.175-2.175-3.079-4.795-2.021-5.853l80.769-80.768c1.058-1.058,3.678-0.153,5.853,2.021l49.701,49.702
	c2.175,2.175,3.079,4.794,2.021,5.853L386.915,183.085z"/>
<path fill="#F0BC5E" d="M100.403,466.785c-1.058,1.059-3.679,0.152-5.853-2.021L44.85,415.063c-2.175-2.174-3.079-4.795-2.021-5.852
	l80.769-80.769c1.058-1.058,3.678-0.153,5.853,2.021l49.701,49.702c2.175,2.175,3.079,4.794,2.021,5.853L100.403,466.785z"/>
<circle fill="#F0BC5E" cx="192.006" cy="190.966" r="31.994"/>
<circle fill="#F0BC5E" cx="320" cy="319" r="31.994"/>
<circle fill="#FFFFFF" cx="376.03" cy="136.499" r="37.971"/>
<circle fill="#FFFFFF" cx="136" cy="376.001" r="37.971"/>
<circle fill="#FFFFFF" cx="216" cy="296.001" r="37.971"/>
<circle fill="#FFFFFF" cx="296" cy="214.441" r="37.971"/>
<g id="Out_line">
	<circle cx="56" cy="360" r="8"/>
	<circle cx="128" cy="288" r="8"/>
	<circle cx="192" cy="192" r="8"/>
	<circle cx="324" cy="324" r="8"/>
	<circle cx="152" cy="456" r="8"/>
	<circle cx="112" cy="440" r="8"/>
	<circle cx="72" cy="400" r="8"/>
	<circle cx="360" cy="56" r="8"/>
	<circle cx="288" cy="128" r="8"/>
	<circle cx="456" cy="152" r="8"/>
	<circle cx="384" cy="224" r="8"/>
	<circle cx="224" cy="384" r="8"/>
	<circle cx="440" cy="112" r="8"/>
	<circle cx="400" cy="72" r="8"/>
	<path d="M152,494.058c-8.491,0.023-16.639-3.351-22.626-9.371l-6.54-6.539c-3.925-3.948-9.266-6.162-14.833-6.147
		c-9.809,0.003-19.215-3.895-26.147-10.834l-31.019-31.019C43.875,423.229,39.974,413.813,40,404
		c0.002-5.564-2.209-10.902-6.147-14.834l-6.54-6.539c-12.473-12.504-12.47-32.746,0-45.253l128.435-128.436
		c-9.339-20.038-0.666-43.853,19.372-53.191c10.719-4.996,23.1-4.996,33.819,0L337.373,27.313
		c12.498-12.494,32.756-12.493,45.254,0.001l6.539,6.539c3.926,3.948,9.267,6.162,14.834,6.147
		c9.809-0.003,19.215,3.895,26.147,10.834l31.02,31.019C468.125,88.771,472.026,98.187,472,108
		c-0.003,5.565,2.209,10.902,6.147,14.834l6.539,6.539c12.477,12.505,12.478,32.748,0.001,45.253l-0.001,0.001L356.252,303.062
		c9.34,20.038,0.666,43.853-19.371,53.191c-10.72,4.996-23.1,4.996-33.82,0L174.626,484.688
		C168.638,490.707,160.491,494.081,152,494.058z M192,168c-13.265,0.01-24.01,10.771-24,24.035c0.003,4.891,1.5,9.664,4.29,13.681
		c2.209,3.179,1.825,7.484-0.913,10.222l-132.75,132.75c-6.237,6.252-6.237,16.374,0,22.626l6.54,6.539
		C52.105,384.785,56.003,394.191,56,404c-0.014,5.566,2.199,10.908,6.147,14.833l31.02,31.02c3.932,3.938,9.269,6.15,14.833,6.147
		c9.813-0.025,19.228,3.875,26.147,10.833l6.54,6.54c6.249,6.246,16.376,6.246,22.625,0.001l132.75-132.751
		c2.738-2.737,7.043-3.122,10.223-0.912c10.895,7.565,25.86,4.865,33.426-6.03c5.719-8.237,5.719-19.16,0-27.396
		c-2.209-3.18-1.825-7.484,0.912-10.222l132.751-132.75c6.236-6.252,6.236-16.374,0-22.626l-6.541-6.539
		C459.895,127.215,455.997,117.808,456,108c0.015-5.567-2.199-10.908-6.147-14.833l-31.019-31.02
		c-3.932-3.938-9.27-6.15-14.834-6.147c-9.813,0.026-19.228-3.875-26.146-10.833l-6.541-6.54
		c-6.248-6.246-16.376-6.246-22.625-0.001l-132.75,132.751c-2.738,2.738-7.042,3.122-10.222,0.912
		C201.691,169.488,196.903,167.991,192,168z"/>
	<path d="M376,184c-26.51,0-48-21.49-48-48s21.49-48,48-48s48,21.49,48,48C423.97,162.497,402.497,183.97,376,184z M376,104
		c-17.674,0-32,14.327-32,32s14.326,32,32,32s32-14.327,32-32C407.98,118.335,393.665,104.02,376,104z"/>
	<path d="M296,264c-26.51,0-48-21.49-48-48s21.49-48,48-48s48,21.49,48,48C343.971,242.497,322.497,263.971,296,264z M296,184
		c-17.674,0-32,14.327-32,32s14.326,32,32,32s32-14.327,32-32C327.98,198.335,313.665,184.02,296,184z"/>
	<path d="M216,344c-26.51,0-48-21.49-48-48s21.49-48,48-48s48,21.49,48,48C263.971,322.497,242.497,343.971,216,344z M216,264
		c-17.673,0-32,14.326-32,32c0,17.673,14.327,32,32,32s32-14.327,32-32C247.98,278.335,233.665,264.02,216,264z"/>
	<path d="M136,424c-26.51,0-48-21.49-48-48s21.49-48,48-48s48,21.49,48,48C183.97,402.497,162.497,423.971,136,424z M136,344
		c-17.673,0-32,14.327-32,32s14.327,32,32,32s32-14.327,32-32C167.98,358.335,153.665,344.02,136,344z"/>
</g>
</svg>
