<svg id="Layer_35" enable-background="new 0 0 64 64" height="512" viewBox="0 0 64 64" width="512" xmlns="http://www.w3.org/2000/svg"><path d="m16.398 46.293c1.443-1.417 3.42-2.293 5.602-2.293h20c2.182 0 4.158.876 5.602 2.293l.125-.449c.181-.653.273-1.322.273-1.99 0-.337-.023-.679-.07-1.017l-2.402-17.415c-.505-3.661-3.673-6.422-7.369-6.422h-12.318c-3.696 0-6.864 2.761-7.369 6.422l-2.402 17.415c-.046.338-.07.68-.07 1.017 0 .667.092 1.336.273 1.988z" fill="#f0bc5e"/><path d="m39.584 26.242 1.502 10.895 1.981-.273-1.502-10.895c-.229-1.665-1.726-2.969-3.406-2.969h-2.159v2h2.159c.692 0 1.331.557 1.425 1.242z"/><path d="m41.491 38.991h2v2.019h-2z" transform="matrix(.991 -.137 .137 .991 -5.069 6.184)"/><path d="m51.94 51c1.334-2.13 2.06-4.629 2.06-7.146 0-.611-.042-1.229-.126-1.836l-2.402-17.416c-.574-4.16-3.052-7.673-6.472-9.711v-3.891h1c1.654 0 3-1.346 3-3v-2c0-2.757-2.243-5-5-5h-24c-2.757 0-5 2.243-5 5v2c0 1.654 1.346 3 3 3h1v3.892c-3.42 2.037-5.898 5.551-6.472 9.711l-2.402 17.416c-.084.606-.126 1.223-.126 1.835 0 2.517.726 5.016 2.06 7.146h-4.06v3c0 4.963 4.038 9 9 9h30c4.962 0 9-4.037 9-9v-3zm-34.94-43v-2c0-1.654 1.346-3 3-3h24c1.654 0 3 1.346 3 3v2c0 .551-.449 1-1 1h-28c-.551 0-1-.449-1-1zm4 3h22v2.914c-1.51-.589-3.144-.914-4.841-.914h-12.318c-1.697 0-3.331.325-4.841.914zm-8.893 31.291 2.402-17.416c.777-5.629 5.649-9.875 11.332-9.875h12.318c5.683 0 10.555 4.246 11.332 9.875l2.402 17.416c.071.517.107 1.043.107 1.563 0 1.909-.495 3.802-1.405 5.476-1.14-3.664-4.562-6.33-8.595-6.33h-20c-4.033 0-7.455 2.667-8.595 6.329-.91-1.673-1.405-3.566-1.405-5.475 0-.52.036-1.046.107-1.563zm36.813 8.709h-33.84c.488-3.386 3.401-6 6.92-6h20c3.519 0 6.432 2.614 6.92 6zm5.08 3c0 3.859-3.14 7-7 7h-30c-3.86 0-7-3.141-7-7v-1h44z"/></svg>