<?xml version="1.0" encoding="utf-8"?>
<!-- Generator: Adobe Illustrator 16.0.0, SVG Export Plug-In . SVG Version: 6.00 Build 0)  -->
<!DOCTYPE svg PUBLIC "-//W3C//DTD SVG 1.1//EN" "http://www.w3.org/Graphics/SVG/1.1/DTD/svg11.dtd">
<svg version="1.1" id="Capa_1" xmlns="http://www.w3.org/2000/svg" xmlns:xlink="http://www.w3.org/1999/xlink" x="0px" y="0px"
	 width="560px" height="560px" viewBox="200 0 560 560" enable-background="new 200 0 560 560" xml:space="preserve">
<path fill="#F0BC5E" d="M519.931,261.012c-0.521-0.942-1.08-1.865-1.659-2.772c-1.628-2.304-3.508-4.444-5.652-6.363
	c-6.057-5.412-14.244-11.549-22.357-13.119c-7.316-1.416-14.872,1.439-21.931,3.063c-2.463,0.567-4.403-0.458-5.409-2.137
	c-2.403,2.104-4.8,4.217-7.186,6.343c-1.522,1.356-3.025,2.743-4.527,4.133c-5.055,10.206-9.111,20.814-9.613,32.164
	c-0.143,3.236-0.094,6.465,0.146,9.677c0.15,0.306,0.291,0.627,0.397,0.99c1.155,3.87,2.727,7.574,4.652,11.036
	c0.353,0.27,0.713,0.524,1.067,0.792c9.225,3.352,18.59,10.462,25.973,12.857c1.789,0.581,2.874,1.786,3.322,3.166
	c4.949-0.184,9.852-0.771,14.615-1.93c5.024-1.219,9.979-3.033,14.28-5.854c2.425-3.483,4.528-7.258,6.278-11.305
	c4.963-11.479,7.563-23.839,10.084-36.096c-0.221-0.513-0.464-1.015-0.705-1.519C521.092,263.072,520.493,262.025,519.931,261.012z"
	/>
<path fill="#F0BC5E" d="M480,0C325.36,0,200,125.36,200,280c0,154.64,125.36,280,280,280c154.64,0,280-125.36,280-280
	C760,125.36,634.64,0,480,0z M445.673,131.896c3.379-4.731,9.313-6.498,14.813-7.439c7.438-1.273,15.021-1.676,22.56-1.408
	c7.445,0.265,15.167,0.844,22.377,2.839c4.899,1.356,9.872,3.27,11.9,8.283c1.104,2.728-1.202,5.233-3.492,6.15
	c-0.342,0.137-0.688,0.256-1.03,0.378c2.843,2.649,1.741,8.77-3.299,8.801c-13.235,0.082-26.392,1.503-39.64,0.452
	c-6.396-0.508-14.094-0.999-19.679-4.557C445.975,142.714,442.21,136.747,445.673,131.896z M357.12,222.934
	c-0.443,7.067-2.744,14.408-4.735,19.789c-2.366,6.393-5.152,12.909-9.198,18.442c-2.749,3.759-6.392,8.442-11.357,9.157
	c-3.238,0.466-6.221-1.275-6.329-4.821c-0.203-6.656,0.875-12.892,2.732-18.874c-0.583-0.771-0.888-1.809-0.732-3.126
	c1.079-9.115,1.686-23.629,11.742-27.951c0.191-0.082,0.385-0.142,0.577-0.214c0.969-2.934,2.431-5.676,4.363-8.358
	c1.722-2.39,4.853-3.29,7.258-1.515c0.663,0.057,1.322,0.254,1.934,0.564c3.02-1.137,5.709,0.057,6.947,3.145
	C362.81,215.376,361.579,220.578,357.12,222.934z M427.829,420.321c-3.778,1.205-7.869,1.189-12.002,0.413
	c-8.994,4.938-22.343-0.068-29.935-6.075c-8.97-7.097-17.325-18.031-19.14-29.767c-0.486-1.319-0.856-2.676-1.074-4.063
	c-0.243-1.549,0.157-2.879,0.91-3.913c0.029-0.248,0.054-0.497,0.09-0.745c0.608-4.158,4.935-4.438,7.601-2.372
	c0.68-1.099,1.715-1.955,2.891-2.12c11.052-1.55,23.191,7.304,31.243,13.866c6.001,4.893,14.599,13.152,15.126,21.773
	c2.216,1.467,4.392,2.998,6.496,4.646C433.187,414.433,431.038,419.298,427.829,420.321z M524.144,338.084
	c-3.421,2.749-7.034,3.875-10.813,4.466c-6.684,3.011-14.08,3.807-21.645,3.69c-18.614-0.282-40.726-4.563-55.313-17.318
	c-0.873-0.205-1.738-0.435-2.591-0.695c-2.229,0.508-4.807-0.204-5.786-2.385c-7.206-3.966-11.81-12.178-15.314-19.316
	c-4.24-8.644-5.931-16.264-4.504-25.854c0.4-2.69,2.354-3.752,4.406-3.611c1.324-16.264,8.065-32.99,18.077-45.785
	c12.082-15.439,31.287-20.43,50.339-18.775c2.198,0.191,4.178,1.871,4.859,3.857c9.678,1.29,19.351,4.577,28.021,8.592
	c10.887,5.04,21.424,11.969,26.826,23.099c10.032,20.672,6.119,44.328-2.534,64.75c-2.137,5.043-4.674,10.021-7.797,14.564
	C529.245,331.457,527.368,335.492,524.144,338.084z M581.093,399.582c-4.682,6.809-11.247,12.656-17.562,16.527
	c-10.729,6.571-28.627,8.879-34.352-5.626c-4.44-11.26,9.752-20.056,17.731-24.552c5.84-3.291,11.893-6.163,17.929-9.068
	c2.486-1.197,4.985-2.381,7.412-3.695c0.938-0.507,1.878-1.014,2.775-1.589c0.182-0.116,1.806-1.341,0.936-0.614
	c3.2-2.67,7.332-0.616,8.456,2.283c2.314,0.133,4.479,2.379,4.758,4.966c2.603,1.187,4.923,3.163,5.428,5.831
	C596.059,391.741,587.777,396.489,581.093,399.582z M629.817,267.023c-1.108,2.567-4.668,2.96-6.843,1.794
	c-10.047-5.394-15.667-17.57-19.173-27.863c-3.495-10.262-6.216-21.944-4.125-32.783c0.896-4.647,6.328-4.429,8.671-1.492
	c1.84-3.299,6.61-2.437,8.47,0.297C627.739,223.059,638.078,247.896,629.817,267.023z"/>
<g>
	<path d="M480,36.129c-134.472,0-243.871,109.399-243.871,243.871c0,134.473,109.399,243.871,243.871,243.871
		c56.858,0,112.198-19.988,155.833-56.28l-11.552-13.883C583.889,487.3,532.649,505.807,480,505.807
		c-124.51,0-225.807-101.297-225.807-225.807S355.49,54.193,480,54.193S705.807,155.49,705.807,280
		c0,62.069-24.677,119.939-69.477,162.942l12.51,13.031c48.386-46.442,75.031-108.938,75.031-175.976
		C723.871,145.528,614.473,36.129,480,36.129z"/>
	<path d="M308.387,280c0,94.631,76.982,171.613,171.613,171.613S651.613,374.631,651.613,280S574.631,108.387,480,108.387
		S308.387,185.369,308.387,280z M346.178,204.951l13.666,6.413l-17.405,53.552l-14.858-2.854
		C330.001,241.514,336.459,222.211,346.178,204.951z M367.35,383.988l10.233-10.931l45.55,33.104l-7.262,13.179
		C397.427,410.805,380.988,398.747,367.35,383.988z M544.12,419.332l-7.262-13.179l45.549-33.104l10.232,10.929
		C579.012,398.747,562.573,410.805,544.12,419.332z M632.41,262.062l-14.858,2.854l-17.402-53.561l13.664-6.413
		C623.541,222.211,629.999,241.514,632.41,262.062z M510.041,129.441l-1.888,15.075h-56.309l-1.888-15.075
		c9.719-1.933,19.763-2.99,30.041-2.99S500.322,127.508,510.041,129.441z M432.337,134.12l3.559,28.46h88.209l3.561-28.46
		c30.898,10.125,57.409,29.815,76.224,55.539l-25.842,12.112l27.26,83.892l28.234-5.419c-0.054,33.5-11.001,64.427-29.327,89.672
		l-19.52-20.837l-71.354,51.854l13.855,25.128c-14.876,4.814-30.721,7.488-47.193,7.488s-32.317-2.674-47.202-7.497l13.855-25.128
		L375.3,349.07l-19.519,20.838c-18.326-25.245-29.273-56.172-29.328-89.672l28.235,5.418l27.259-83.891l-25.841-12.112
		C374.928,163.936,401.446,144.236,432.337,134.12z"/>
	<path d="M480,361.29c44.818,0,81.29-36.463,81.29-81.29c0-44.818-36.472-81.291-81.29-81.291S398.709,235.182,398.709,280
		C398.709,324.827,435.182,361.29,480,361.29z M480,216.774c34.864,0,63.226,28.361,63.226,63.226
		c0,34.855-28.359,63.226-63.226,63.226S416.774,314.856,416.774,280C416.774,245.136,445.136,216.774,480,216.774z"/>
	<path d="M480,325.161c24.902,0,45.161-20.259,45.161-45.161c0-24.902-20.259-45.161-45.161-45.161S434.839,255.098,434.839,280
		C434.839,304.902,455.098,325.161,480,325.161z M480,252.903c14.938,0,27.097,12.157,27.097,27.097
		c0,14.939-12.158,27.097-27.097,27.097S452.903,294.939,452.903,280C452.903,265.061,465.062,252.903,480,252.903z"/>
	<rect x="452.903" y="72.258" width="18.063" height="18.065"/>
	<rect x="489.032" y="72.258" width="18.063" height="18.065"/>
	<rect x="416.774" y="72.258" width="18.064" height="18.065"/>
	<rect x="525.161" y="72.258" width="18.063" height="18.065"/>
</g>
</svg>
