<?xml version="1.0" encoding="utf-8"?>
<!-- Generator: Adobe Illustrator 16.0.0, SVG Export Plug-In . SVG Version: 6.00 Build 0)  -->
<!DOCTYPE svg PUBLIC "-//W3C//DTD SVG 1.1//EN" "http://www.w3.org/Graphics/SVG/1.1/DTD/svg11.dtd">
<svg version="1.1" id="taxi_x5F_light" xmlns="http://www.w3.org/2000/svg" xmlns:xlink="http://www.w3.org/1999/xlink" x="0px"
	 y="0px" width="512px" height="512px" viewBox="0 0 512 512" enable-background="new 0 0 512 512" xml:space="preserve">
<polygon fill="#F0BC5E" stroke="#000000" stroke-miterlimit="10" points="390.5,266.5 150.747,266.5 130.122,372.479 
	423.342,372.479 "/>
<g>
	<path d="M92.16,166.827c3.77,0,6.827-3.057,6.827-6.827v-13.653c0-3.77-3.057-6.827-6.827-6.827s-6.827,3.057-6.827,6.827V160
		C85.333,163.77,88.39,166.827,92.16,166.827z"/>
	<path d="M98.987,200.96v-13.653c0-3.77-3.057-6.827-6.827-6.827s-6.827,3.057-6.827,6.827v13.653c0,3.77,3.057,6.827,6.827,6.827
		S98.987,204.73,98.987,200.96z"/>
	<path d="M78.507,167.68H64.854c-3.77,0-6.827,3.057-6.827,6.827s3.057,6.827,6.827,6.827h13.653c3.77,0,6.827-3.057,6.827-6.827
		S82.277,167.68,78.507,167.68z"/>
	<path d="M105.813,181.333h13.653c3.77,0,6.827-3.057,6.827-6.827s-3.057-6.827-6.827-6.827h-13.653
		c-3.77,0-6.827,3.057-6.827,6.827S102.043,181.333,105.813,181.333z"/>
	<path d="M406.187,91.733c3.773,0,6.827-3.057,6.827-6.827V71.253c0-3.77-3.054-6.827-6.827-6.827s-6.827,3.057-6.827,6.827v13.653
		C399.359,88.677,402.413,91.733,406.187,91.733z"/>
	<path d="M406.187,105.387c-3.773,0-6.827,3.057-6.827,6.827v13.653c0,3.77,3.054,6.827,6.827,6.827s6.827-3.057,6.827-6.827
		v-13.653C413.014,108.443,409.96,105.387,406.187,105.387z"/>
	<path d="M378.88,106.24h13.653c3.773,0,6.826-3.057,6.826-6.827c0-3.77-3.053-6.826-6.826-6.826H378.88
		c-3.773,0-6.827,3.057-6.827,6.826C372.053,103.184,375.106,106.24,378.88,106.24z"/>
	<path d="M419.84,106.24h13.653c3.773,0,6.827-3.057,6.827-6.827c0-3.77-3.054-6.826-6.827-6.826H419.84
		c-3.773,0-6.826,3.057-6.826,6.826C413.014,103.184,416.066,106.24,419.84,106.24z"/>
	<path d="M279.894,174.507c13.173,0,23.894-10.72,23.894-23.894s-10.721-23.893-23.894-23.893
		c-13.174,0-23.894,10.719-23.894,23.893S266.72,174.507,279.894,174.507z M279.894,140.374c5.647,0,10.239,4.592,10.239,10.24
		s-4.592,10.24-10.239,10.24s-10.24-4.593-10.24-10.24S274.246,140.374,279.894,140.374z"/>
	<path d="M150.747,93.628c4.031,0,7.299-3.269,7.299-7.3c0-4.031-3.268-7.297-7.299-7.297s-7.298,3.268-7.298,7.297
		C143.449,90.358,146.717,93.628,150.747,93.628z"/>
	<path d="M423.342,236.517c0,4.031,3.269,7.299,7.298,7.299s7.3-3.268,7.3-7.299s-3.269-7.298-7.3-7.298
		S423.342,232.485,423.342,236.517L423.342,236.517z"/>
	<path d="M430.947,375.407l-26.281-97.413c-3.434-12.699-15.014-21.567-28.16-21.567H169.627c-13.153,0-24.73,8.87-28.157,21.57
		l-26.276,97.406c-13.519,5.687-23.035,19.063-23.035,34.623c0,20.704,16.843,37.547,37.546,37.547h286.72
		c20.7,0,37.547-16.843,37.547-37.547C453.974,394.471,444.459,381.096,430.947,375.407z M154.649,281.554
		c1.823-6.757,7.984-11.474,14.976-11.474h206.88c6.994,0,13.153,4.717,14.973,11.471l24.531,90.929H130.122L154.649,281.554z
		 M416.427,433.92h-286.72c-13.174,0-23.893-10.72-23.893-23.894s10.719-23.893,23.893-23.893h286.72
		c13.174,0,23.894,10.719,23.894,23.893S429.601,433.92,416.427,433.92L416.427,433.92z"/>
	<path d="M194.56,311.04h6.827V352c0,3.77,3.057,6.826,6.827,6.826s6.827-3.057,6.827-6.826v-40.96h6.827
		c3.77,0,6.827-3.057,6.827-6.827c0-3.77-3.057-6.826-6.827-6.826H194.56c-3.77,0-6.827,3.057-6.827,6.826
		C187.733,307.983,190.79,311.04,194.56,311.04z"/>
	<path d="M344.746,358.826c3.773,0,6.827-3.057,6.827-6.826v-47.787c0-3.77-3.054-6.826-6.827-6.826s-6.826,3.057-6.826,6.826V352
		C337.92,355.77,340.973,358.826,344.746,358.826z"/>
	<path d="M240.469,358.563c3.603,1.031,7.404-1.06,8.443-4.687L256,329.064l7.086,24.813c0.86,2.997,3.593,4.953,6.561,4.953
		c0.627,0,1.253-0.087,1.881-0.267c3.627-1.035,5.726-4.813,4.693-8.439l-13.653-47.786c-0.84-2.931-3.52-4.949-6.567-4.949
		c-3.048,0-5.726,2.021-6.567,4.949l-13.65,47.786C234.747,353.749,236.846,357.526,240.469,358.563L240.469,358.563z"/>
	<path d="M288.881,358.134c0.959,0.473,1.979,0.692,2.986,0.692c2.525,0,4.96-1.406,6.141-3.833l5.781-11.841l5.779,11.841
		c1.18,2.427,3.613,3.833,6.141,3.833c1,0,2.027-0.22,2.987-0.692c3.386-1.653,4.794-5.739,3.14-9.127l-10.451-21.412l9.951-20.388
		c1.654-3.387,0.248-7.474-3.14-9.128c-3.36-1.653-7.474-0.252-9.128,3.141l-5.281,10.817l-5.281-10.817
		c-1.646-3.383-5.732-4.798-9.127-3.141c-3.386,1.654-4.794,5.74-3.141,9.128l9.952,20.388l-10.452,21.412
		C284.086,352.393,285.493,356.48,288.881,358.134z"/>
	<path d="M317.439,399.787h20.48v20.479h-20.48V399.787z"/>
	<path d="M351.573,399.787h20.479v20.479h-20.479V399.787z"/>
	<path d="M385.707,399.787h20.479v20.479h-20.479V399.787z"/>
</g>
</svg>
