<?xml version="1.0" encoding="iso-8859-1"?>
<!-- Generator: Adobe Illustrator 19.0.0, SVG Export Plug-In . SVG Version: 6.00 Build 0)  -->
<svg version="1.1" id="Capa_1" xmlns="http://www.w3.org/2000/svg" xmlns:xlink="http://www.w3.org/1999/xlink" x="0px" y="0px"
	 viewBox="0 0 496 496" style="enable-background:new 0 0 496 496;" xml:space="preserve">
<g>
	<path style="fill:#F0BC5E;" d="M360,320H136c-4.424,0-8-3.576-8-8V192c0-22.056,17.944-40,40-40h160c22.056,0,40,17.944,40,40v120
		C368,316.424,364.424,320,360,320z"/>
	<path style="fill:#F0BC5E;" d="M344,432H152c-13.232,0-24-10.768-24-24v-64c0-4.424,3.576-8,8-8h224c4.424,0,8,3.576,8,8v64
		C368,421.232,357.232,432,344,432z"/>
</g>
<path d="M280,216c0-8.824,7.176-16,16-16s16,7.176,16,16h16c0-17.648-14.352-32-32-32s-32,14.352-32,32v16h-8v56h80v-56h-56V216z
	 M320,272h-48v-24h48V272z"/>
<path d="M232,216c0-17.648-14.352-32-32-32s-32,14.352-32,32v16h-8v56h80v-56h-8V216z M184,216c0-8.824,7.176-16,16-16
	s16,7.176,16,16v16h-32V216z M224,272h-48v-24h48V272z"/>
<path d="M208,360c-13.232,0-24,10.768-24,24s10.768,24,24,24s24-10.768,24-24S221.232,360,208,360z M208,392c-4.408,0-8-3.584-8-8
	s3.592-8,8-8s8,3.584,8,8S212.408,392,208,392z"/>
<path d="M288,360c-13.232,0-24,10.768-24,24s10.768,24,24,24s24-10.768,24-24S301.232,360,288,360z M288,392c-4.408,0-8-3.584-8-8
	s3.592-8,8-8s8,3.584,8,8S292.408,392,288,392z"/>
<path d="M360,0H136C96.304,0,64,32.296,64,72v352c0,39.704,32.304,72,72,72h224c39.696,0,72-32.296,72-72V72
	C432,32.296,399.696,0,360,0z M360,480H136c-30.88,0-56-25.128-56-56V112h288V96H80V72c0-30.872,25.12-56,56-56h224
	c30.88,0,56,25.128,56,56v24h-32v16h32v312C416,454.872,390.88,480,360,480z"/>
<path d="M304,32H192c-13.232,0-24,10.768-24,24s10.768,24,24,24h112c13.232,0,24-10.768,24-24S317.232,32,304,32z M304,64H192
	c-4.408,0-8-3.584-8-8s3.592-8,8-8h112c4.408,0,8,3.584,8,8S308.408,64,304,64z"/>
<g>
</g>
<g>
</g>
<g>
</g>
<g>
</g>
<g>
</g>
<g>
</g>
<g>
</g>
<g>
</g>
<g>
</g>
<g>
</g>
<g>
</g>
<g>
</g>
<g>
</g>
<g>
</g>
<g>
</g>
</svg>
