<?xml version="1.0" encoding="utf-8"?>
<!-- Generator: Adobe Illustrator 16.0.0, SVG Export Plug-In . SVG Version: 6.00 Build 0)  -->
<!DOCTYPE svg PUBLIC "-//W3C//DTD SVG 1.1//EN" "http://www.w3.org/Graphics/SVG/1.1/DTD/svg11.dtd">
<svg version="1.1" id="Capa_1" xmlns="http://www.w3.org/2000/svg" xmlns:xlink="http://www.w3.org/1999/xlink" x="0px" y="0px"
	 width="560px" height="560px" viewBox="200 0 560 560" enable-background="new 200 0 560 560" xml:space="preserve">
<g>
	<path fill="#F0BC5E" d="M687.742,523.871c-19.926,0-36.129-16.204-36.129-36.129c0-19.926,16.203-36.129,36.129-36.129
		c19.925,0,36.129,16.203,36.129,36.129C723.871,507.667,707.667,523.871,687.742,523.871z"/>
	<path fill="#F0BC5E" d="M687.742,234.839c-19.926,0-36.129-16.204-36.129-36.129s16.203-36.129,36.129-36.129
		c19.925,0,36.129,16.204,36.129,36.129S707.667,234.839,687.742,234.839z"/>
	<path fill="#F0BC5E" d="M480,523.871c-19.925,0-36.129-16.204-36.129-36.129c0-19.926,16.204-36.129,36.129-36.129
		s36.129,16.203,36.129,36.129C516.129,507.667,499.925,523.871,480,523.871z"/>
	<path fill="#F0BC5E" d="M480,180.645c-19.925,0-36.129-16.204-36.129-36.129c0-19.925,16.204-36.129,36.129-36.129
		s36.129,16.204,36.129,36.129C516.129,164.441,499.925,180.645,480,180.645z"/>
	<path fill="#F0BC5E" d="M272.258,523.871c-19.925,0-36.129-16.204-36.129-36.129c0-19.926,16.204-36.129,36.129-36.129
		c19.925,0,36.129,16.203,36.129,36.129C308.387,507.667,292.183,523.871,272.258,523.871z"/>
	<path fill="#F0BC5E" d="M272.258,108.387c-19.925,0-36.129-16.204-36.129-36.129c0-19.925,16.204-36.129,36.129-36.129
		c19.925,0,36.129,16.204,36.129,36.129C308.387,92.183,292.183,108.387,272.258,108.387z"/>
</g>
<g>
	<path d="M760,243.871v-90.323c0-14.939-12.157-27.097-27.097-27.097h-90.322c-14.939,0-27.098,12.157-27.098,27.097v90.323
		c0,14.939,12.157,27.097,27.098,27.097v144.517c-14.939,0-27.098,12.157-27.098,27.098v90.322
		c0,14.938,12.157,27.097,27.098,27.097h90.322C747.843,560,760,547.843,760,532.903v-90.322c0-14.939-12.157-27.098-27.097-27.098
		V270.968C747.843,270.968,760,258.811,760,243.871z M633.549,243.871v-90.323c0-4.986,4.046-9.032,9.032-9.032h90.322
		c4.984,0,9.031,4.046,9.031,9.032v90.323c0,4.986-4.047,9.032-9.031,9.032h-90.322
		C637.595,252.903,633.549,248.857,633.549,243.871z M741.936,442.581v90.322c0,4.984-4.047,9.031-9.031,9.031h-90.322
		c-4.986,0-9.032-4.047-9.032-9.031v-90.322c0-4.986,4.046-9.032,9.032-9.032h90.322
		C737.889,433.549,741.936,437.595,741.936,442.581z M714.839,415.483h-54.193V270.968h54.193V415.483z"/>
	<path d="M525.161,72.258h-90.322c-14.939,0-27.097,12.158-27.097,27.097v90.322c0,14.939,12.157,27.097,27.097,27.097v198.709
		c-14.939,0-27.097,12.157-27.097,27.098v90.322c0,14.938,12.157,27.097,27.097,27.097h90.322c14.938,0,27.097-12.157,27.097-27.097
		v-90.322c0-14.939-12.157-27.098-27.097-27.098V216.774c14.938,0,27.097-12.158,27.097-27.097V99.355
		C552.258,84.416,540.101,72.258,525.161,72.258z M534.193,442.581v90.322c0,4.984-4.046,9.031-9.032,9.031h-90.322
		c-4.986,0-9.032-4.047-9.032-9.031v-90.322c0-4.986,4.046-9.032,9.032-9.032h90.322
		C530.147,433.549,534.193,437.595,534.193,442.581z M507.097,415.483h-54.192V216.774h54.192V415.483z M534.193,189.677
		c0,4.986-4.046,9.032-9.032,9.032h-90.322c-4.986,0-9.032-4.046-9.032-9.032V99.355c0-4.986,4.046-9.032,9.032-9.032h90.322
		c4.986,0,9.032,4.046,9.032,9.032V189.677z"/>
	<path d="M317.419,0h-90.323C212.157,0,200,12.157,200,27.097v90.323c0,14.939,12.157,27.097,27.097,27.097v270.967
		c-14.939,0-27.097,12.157-27.097,27.098v90.322C200,547.843,212.157,560,227.097,560h90.323c14.939,0,27.097-12.157,27.097-27.097
		v-90.322c0-14.939-12.157-27.098-27.097-27.098V144.516c14.939,0,27.097-12.157,27.097-27.097V27.097
		C344.516,12.157,332.359,0,317.419,0z M326.452,442.581v90.322c0,4.984-4.046,9.031-9.032,9.031h-90.323
		c-4.986,0-9.032-4.047-9.032-9.031v-90.322c0-4.986,4.046-9.032,9.032-9.032h90.323
		C322.405,433.549,326.452,437.595,326.452,442.581z M299.355,415.483h-54.194V144.516h54.194V415.483z M326.452,117.419
		c0,4.986-4.046,9.032-9.032,9.032h-90.323c-4.986,0-9.032-4.046-9.032-9.032V27.097c0-4.986,4.046-9.032,9.032-9.032h90.323
		c4.986,0,9.032,4.046,9.032,9.032V117.419z"/>
	<rect x="263.226" y="162.581" width="18.065" height="18.064"/>
	<rect x="263.226" y="198.709" width="18.065" height="162.581"/>
	<rect x="470.968" y="379.354" width="18.064" height="18.064"/>
	<rect x="470.968" y="270.968" width="18.064" height="90.322"/>
	<rect x="678.71" y="379.354" width="18.064" height="18.064"/>
	<rect x="678.71" y="289.032" width="18.064" height="72.258"/>
	<rect x="470.968" y="234.839" width="18.064" height="18.064"/>
	<rect x="263.226" y="379.354" width="18.065" height="18.064"/>
</g>
</svg>
