<svg height="496pt" viewBox="0 -80 496 496" width="496pt" xmlns="http://www.w3.org/2000/svg"><g fill="#f0bc5e"><path d="m416 88h-48v-48h48zm0 0"/><path d="m336 88h-48v-48h48zm0 0"/><path d="m256 88h-48v-48h48zm0 0"/><path d="m256 168h-48v-48h48zm0 0"/><path d="m416 168h-48v-48h48zm0 0"/><path d="m336 168h-48v-48h48zm0 0"/></g><path d="m472 0h-288c-13.230469 0-24 10.769531-24 24v216h-64v-40h-16v40h-16v-40h-16v40h-24c-13.230469 0-24 10.769531-24 24s10.769531 24 24 24h24v8c0 13.230469 10.769531 24 24 24s24-10.769531 24-24v-8h200v-16h-272c-4.414062 0-8-3.585938-8-8s3.585938-8 8-8h252.945312l4.742188-9.496094c11.871094-23.742187 35.753906-38.503906 62.3125-38.503906s50.441406 14.761719 62.3125 38.503906l20.742188 41.496094h28.945312c22.054688 0 40-17.945312 40-40v-224c0-13.230469-10.769531-24-24-24zm-392 296c0 4.414062-3.585938 8-8 8s-8-3.585938-8-8v-8h16zm104-280h288c4.414062 0 8 3.585938 8 8v8h-304v-8c0-4.414062 3.585938-8 8-8zm264 32v24c0 4.414062-3.585938 8-8 8h-264v-32zm-272 80h272v24c0 4.414062-3.585938 8-8 8h-264zm280 144h-19.054688l-16.320312-32.648438c-14.601562-29.207031-43.96875-47.351562-76.625-47.351562s-62.023438 18.144531-76.625 47.359375l-.320312.640625h-91.054688v-64h264c13.230469 0 24-10.769531 24-24v-40h-288v-16h264c13.230469 0 24-10.769531 24-24v-24h16v200c0 13.230469-10.769531 24-24 24zm0 0"/><path d="m128 208h-112v-24c0-13.230469 10.769531-24 24-24h64c13.230469 0 24 10.769531 24 24zm0 0" fill="#f0bc5e"/><path d="m192 192h16v16h-16zm0 0"/><path d="m224 192h16v16h-16zm0 0"/><path d="m256 192h16v16h-16zm0 0"/><path d="m344 336c-30.871094 0-56-25.128906-56-56s25.128906-56 56-56 56 25.128906 56 56-25.128906 56-56 56zm0-72c-8.824219 0-16 7.175781-16 16s7.175781 16 16 16 16-7.175781 16-16-7.175781-16-16-16zm0 0" fill="#f0bc5e"/><path d="m344 304c-13.230469 0-24-10.769531-24-24s10.769531-24 24-24 24 10.769531 24 24-10.769531 24-24 24zm0-32c-4.414062 0-8 3.585938-8 8s3.585938 8 8 8 8-3.585938 8-8-3.585938-8-8-8zm0 0"/></svg>