<svg id="Layer_5" enable-background="new 0 0 64 64" height="512" viewBox="0 0 64 64" width="512" xmlns="http://www.w3.org/2000/svg"><path d="m57.414 27h-27.414v9 4c0 1.105.895 2 2 2h2c1.105 0 2-.895 2-2v-2c0-1.105.895-2 2-2h2c1.105 0 2 .895 2 2v2c0 1.105.895 2 2 2h8c1.105 0 2 .895 2 2v8c0 1.105-.895 2-2 2h-2c-1.105 0-2-.895-2-2v-2c0-1.105-.895-2-2-2h-2c-1.105 0-2 .895-2 2v2c0 1.105-.895 2-2 2h-2c-1.105 0-2-.895-2-2v-2c0-1.105-.895-2-2-2h-2c-1.105 0-2 .895-2 2v2c0 1.105-.895 2-2 2h-2c-1.105 0-2-.895-2-2v-2c0-1.105-.895-2-2-2h-2c-1.105 0-2 .895-2 2v2c0 1.105-.895 2-2 2h-2c-1.105 0-2-.895-2-2v-14c0-1.105.895-2 2-2h2c1.105 0 2 .895 2 2v2c0 1.105.895 2 2 2h2c1.105 0 2-.895 2-2v-4-9h-17.414l-5.586 5.586v24.828l5.586 5.586h50.828l5.586-5.586v-24.828z" fill="#f0bc5e"/><path d="m14 57h2v2h-2z"/><path d="m26 57h2v2h-2z"/><path d="m38 57h2v2h-2z"/><path d="m50 57h2v2h-2z"/><path d="m38 31h2v2h-2z"/><path d="m14 31h2v2h-2z"/><path d="m5 55h2v2h-2z"/><path d="m5 51h2v2h-2z"/><path d="m5 47h2v2h-2z"/><path d="m57 33h2v2h-2z"/><path d="m57 37h2v2h-2z"/><path d="m57 41h2v2h-2z"/><path d="m52 41h-8c-.552 0-1-.449-1-1v-2c0-1.654-1.346-3-3-3h-2c-1.654 0-3 1.346-3 3v2c0 .551-.448 1-1 1h-2c-.552 0-1-.449-1-1v-4-11.649l5.835-7.293c1.396-1.746 2.165-3.938 2.165-6.174 0-5.45-4.434-9.884-9.884-9.884h-4.232c-5.45 0-9.884 4.434-9.884 9.884 0 2.236.769 4.428 2.165 6.174l5.835 7.293v11.649 4c0 .551-.448 1-1 1h-2c-.552 0-1-.449-1-1v-2c0-1.654-1.346-3-3-3h-2c-1.654 0-3 1.346-3 3v14c0 1.654 1.346 3 3 3h2c1.654 0 3-1.346 3-3v-2c0-.551.448-1 1-1h2c.552 0 1 .449 1 1v2c0 1.654 1.346 3 3 3h2c1.654 0 3-1.346 3-3v-2c0-.551.448-1 1-1h2c.552 0 1 .449 1 1v2c0 1.654 1.346 3 3 3h2c1.654 0 3-1.346 3-3v-2c0-.551.448-1 1-1h2c.552 0 1 .449 1 1v2c0 1.654 1.346 3 3 3h2c1.654 0 3-1.346 3-3v-8c0-1.654-1.346-3-3-3zm-27.52-18-3.2-4h11.44l-3.2 4zm4.636-20c1.413 0 2.736.378 3.884 1.031v2.969c0 1.654-1.346 3-3 3h-6c-1.654 0-3-1.346-3-3v-2.969c1.148-.653 2.471-1.031 3.884-1.031zm-12.116 7.884c0-2.007.76-3.836 2-5.229v1.345c0 2.757 2.243 5 5 5h6c2.757 0 5-2.243 5-5v-1.345c1.24 1.393 2 3.222 2 5.229 0 1.783-.613 3.533-1.728 4.925l-.952 1.191h-14.64l-.953-1.191c-1.114-1.392-1.727-3.142-1.727-4.925zm5 36.116h-2c-1.654 0-3 1.346-3 3v2c0 .551-.448 1-1 1h-2c-.552 0-1-.449-1-1v-14c0-.551.448-1 1-1h2c.552 0 1 .449 1 1v2c0 1.654 1.346 3 3 3h2c.352 0 .686-.072 1-.184v4.369c-.314-.113-.648-.185-1-.185zm7 5c0 .551-.448 1-1 1h-2c-.552 0-1-.449-1-1v-2-10-4-11h4v11 4 10zm24 0c0 .551-.448 1-1 1h-2c-.552 0-1-.449-1-1v-2c0-1.654-1.346-3-3-3h-2c-1.654 0-3 1.346-3 3v2c0 .551-.448 1-1 1h-2c-.552 0-1-.449-1-1v-2c0-1.654-1.346-3-3-3h-2c-.352 0-.686.072-1 .184v-4.369c.314.113.648.185 1 .185h2c1.654 0 3-1.346 3-3v-2c0-.551.448-1 1-1h2c.552 0 1 .449 1 1v2c0 1.654 1.346 3 3 3h8c.552 0 1 .449 1 1z"/></svg>