<svg height="496pt" viewBox="-48 0 496 496" width="496pt" xmlns="http://www.w3.org/2000/svg"><g fill="#f0bc5e"><path d="m72 328v48l-32 32-32-32v-48l32 32zm0 0"/><path d="m72 424v48c0 8.800781-7.199219 16-16 16h-32c-8.800781 0-16-7.199219-16-16v-48l32 32zm0 0"/><path d="m152 360h96v40h-96zm0 0"/><path d="m392 424v48c0 8.800781-7.199219 16-16 16h-32c-8.800781 0-16-7.199219-16-16v-48l32 32zm0 0"/><path d="m392 328v48l-32 32-32-32v-48l32 32zm0 0"/><path d="m392 120v48c0 8.800781-7.199219 16-16 16h-32c-8.800781 0-16-7.199219-16-16v-48l32 32zm0 0"/><path d="m392 24v48l-32 32-32-32v-48l32 32zm0 0"/><path d="m72 120v48c0 8.800781-7.199219 16-16 16h-32c-8.800781 0-16-7.199219-16-16v-48l32 32zm0 0"/><path d="m72 24v48l-32 32-32-32v-48l32 32zm0 0"/></g><path d="m144 80v-16h-64v-40c0-13.230469-10.769531-24-24-24h-32c-13.230469 0-24 10.769531-24 24v144c0 13.230469 10.769531 24 24 24h32c13.230469 0 24-10.769531 24-24v-56h64v-16h-64v-16zm-80 88c0 4.414062-3.585938 8-8 8h-32c-4.414062 0-8-3.585938-8-8v-144c0-4.414062 3.585938-8 8-8h32c4.414062 0 8 3.585938 8 8zm0 0"/><path d="m376 304h-32c-13.230469 0-24 10.769531-24 24v56h-64v-27.753906l-48-40v-132.246094h17.222656c7.839844 0 14.480469-5.617188 15.785156-13.375l6.878907-41.3125-15.78125-2.625-6.882813 41.3125h-50.445312l-6.882813-41.3125-15.78125 2.625 6.878907 41.328125c1.304687 7.742187 7.9375 13.359375 15.785156 13.359375h17.222656v132.257812l-48 40v27.742188h-64v-56c0-13.230469-10.769531-24-24-24h-32c-13.230469 0-24 10.769531-24 24v144c0 13.230469 10.769531 24 24 24h32c13.230469 0 24-10.769531 24-24v-40h64v64h112v-64h64v40c0 13.230469 10.769531 24 24 24h32c13.230469 0 24-10.769531 24-24v-144c0-13.230469-10.769531-24-24-24zm-176 26.414062 25.902344 21.585938h-51.796875zm-136 141.585938c0 4.414062-3.585938 8-8 8h-32c-4.414062 0-8-3.585938-8-8v-144c0-4.414062 3.585938-8 8-8h32c4.414062 0 8 3.585938 8 8zm16-56v-16h64v16zm160 64h-80v-112h80zm16-64v-16h64v16zm128 56c0 4.414062-3.585938 8-8 8h-32c-4.414062 0-8-3.585938-8-8v-144c0-4.414062 3.585938-8 8-8h32c4.414062 0 8 3.585938 8 8zm0 0"/><path d="m376 0h-32c-13.230469 0-24 10.769531-24 24v40h-64v16h64v16h-64v16h64v56c0 13.230469 10.769531 24 24 24h32c13.230469 0 24-10.769531 24-24v-144c0-13.230469-10.769531-24-24-24zm8 168c0 4.414062-3.585938 8-8 8h-32c-4.414062 0-8-3.585938-8-8v-144c0-4.414062 3.585938-8 8-8h32c4.414062 0 8 3.585938 8 8zm0 0"/><path d="m200 152c-35.289062 0-64-28.710938-64-64s28.710938-64 64-64 64 28.710938 64 64-28.710938 64-64 64zm0-88c-13.230469 0-24 10.769531-24 24s10.769531 24 24 24 24-10.769531 24-24-10.769531-24-24-24zm0 0" fill="#f0bc5e"/><path d="m200 120c-17.648438 0-32-14.351562-32-32s14.351562-32 32-32 32 14.351562 32 32-14.351562 32-32 32zm0-48c-8.824219 0-16 7.175781-16 16s7.175781 16 16 16 16-7.175781 16-16-7.175781-16-16-16zm0 0"/><path d="m200 464c-13.230469 0-24-10.769531-24-24s10.769531-24 24-24 24 10.769531 24 24-10.769531 24-24 24zm0-32c-4.414062 0-8 3.585938-8 8s3.585938 8 8 8 8-3.585938 8-8-3.585938-8-8-8zm0 0"/></svg>