<svg height="496pt" viewBox="0 0 496 496" width="496pt" xmlns="http://www.w3.org/2000/svg"><path d="m216 368c-66.167969 0-120-53.832031-120-120s53.832031-120 120-120 120 53.832031 120 120-53.832031 120-120 120zm0 0" fill="#f0bc5e"/><path d="m216 160c-48.519531 0-88 39.480469-88 88s39.480469 88 88 88 88-39.480469 88-88-39.480469-88-88-88zm0 96c-4.414062 0-8-3.59375-8-8s3.585938-8 8-8 8 3.59375 8 8-3.585938 8-8 8zm10.28125-29.59375c-.746094-.351562-1.503906-.652344-2.28125-.925781v-49c13.863281 1.542969 26.527344 7.039062 36.886719 15.328125zm-18.28125-.933594c-.785156.28125-1.542969.574219-2.28125.925782l-34.605469-34.605469c10.359375-8.289063 23.023438-13.785157 36.886719-15.328125zm-13.59375 12.246094c-.351562.746094-.652344 1.503906-.925781 2.28125h-49c1.542969-13.863281 7.039062-26.527344 15.328125-36.886719zm-.933594 18.28125c.28125.785156.574219 1.542969.925782 2.28125l-34.605469 34.605469c-8.289063-10.359375-13.785157-23.023438-15.328125-36.886719zm12.246094 13.59375c.746094.351562 1.503906.644531 2.28125.925781v49c-13.863281-1.542969-26.527344-7.039062-36.886719-15.328125zm18.28125.933594c.785156-.28125 1.542969-.574219 2.28125-.925782l34.605469 34.605469c-10.359375 8.289063-23.023438 13.785157-36.886719 15.328125zm13.59375-12.246094c.351562-.746094.652344-1.503906.925781-2.28125h49c-1.542969 13.863281-7.039062 26.527344-15.328125 36.886719zm.933594-18.28125c-.28125-.785156-.574219-1.542969-.925782-2.28125l34.605469-34.605469c8.289063 10.359375 13.785157 23.023438 15.328125 36.886719zm0 0"/><path d="m384.246094 39.425781 72.570312-7.472656-1.640625-15.914063-72.320312 7.449219c-8.335938.601563-14.855469 7.609375-14.855469 15.960938v.550781h-153.28125c-36.566406 0-71.414062 9.425781-102.09375 25.753906l-22.6875-15.128906c-9.488281-6.320312-22.21875-5.058594-30.28125 3l-38.023438 38.015625c-8.066406 8.0625-9.320312 20.800781-2.992187 30.28125l12.679687 19.015625c-14.128906 22.421875-24.160156 47.550781-28.609374 74.566406-1.808594 10.871094-2.710938 21.808594-2.710938 32.496094 0 38.625 10.566406 76.375 29.832031 109.273438l-11.199219 16.796874c-6.328124 9.488282-5.074218 22.21875 2.992188 30.28125l38.023438 38.023438c4.625 4.625 10.792968 7.007812 16.992187 7.007812 4.605469 0 9.238281-1.3125 13.289063-4.015624l16.621093-11.078126c17.265625 10.199219 35.777344 17.863282 55.113281 22.847657l3.921876 19.566406c2.230468 11.175781 12.125 19.296875 23.535156 19.296875h53.765625c11.410156 0 21.304687-8.121094 23.527343-19.289062l3.9375-19.679688c19.441407-5.101562 37.847657-12.894531 54.792969-22.953125l16.925781 11.28125c4.042969 2.695313 8.683594 4.015625 13.296876 4.015625 6.199218 0 12.359374-2.382812 16.984374-7.007812l38.023438-38.023438c8.066406-8.0625 9.320312-20.800781 2.992188-30.28125l-11.34375-17.015625c18.03125-30.472656 28.839843-65.574219 29.886718-102.816406.800782-28.4375-3.855468-55.957031-13.710937-82.078125l36.976562 3.808594 1.640625-15.914063-72.816406-7.496094zm-352.300782 73.621094c-2.113281-3.160156-1.699218-7.398437.992188-10.085937l38.023438-38.015626c2.695312-2.6875 6.917968-3.105468 10.09375-1l16.21875 10.808594c-21.722657 13.933594-40.816407 31.519532-56.203126 51.988282zm49.109376 319.007813c-3.160157 2.105468-7.40625 1.699218-10.09375-.992188l-38.023438-38.023438c-2.691406-2.6875-3.105469-6.925781-.992188-10.09375l7.269532-10.914062c8.402344 12 18.042968 23.191406 28.839844 33.34375 7.5625 7.105469 15.511718 13.59375 23.824218 19.457031zm169.671874 41.519531c-.742187 3.722656-4.039062 6.425781-7.847656 6.425781h-53.757812c-3.808594 0-7.105469-2.703125-7.839844-6.433594l-2.5625-12.773437c12.144531 2.09375 24.539062 3.207031 37.113281 3.207031 4.574219 0 9.183594-.144531 13.808594-.425781 8.015625-.496094 15.902344-1.484375 23.664063-2.855469zm149.328126-90.628907c2.113281 3.167969 1.699218 7.40625-.992188 10.09375l-38.023438 38.023438c-2.6875 2.679688-6.933593 3.097656-10.09375.992188l-11.210937-7.46875c20.480469-14.480469 38.363281-32.417969 52.800781-52.914063zm.183593-212.640624c11.1875 26.382812 16.503907 54.414062 15.671875 83.480468-2.886718 102.414063-85.148437 187.542969-187.261718 193.832032-55.847657 3.445312-109.03125-15.695313-149.632813-53.882813-40.632813-38.230469-63.015625-89.972656-63.015625-145.734375 0-9.824219.832031-19.871094 2.488281-29.878906 15.214844-92.425782 99.574219-162.121094 196.230469-162.121094h121.28125v32h16v-32h16v80h-16v-32h-16v32h-77.273438c10.441407 4 20.160157 9.398438 28.96875 16h80.304688v.550781c0 8.351563 6.519531 15.359375 14.609375 15.9375zm0 0"/><path d="m352 248c0 13.230469 10.769531 24 24 24s24-10.769531 24-24-10.769531-24-24-24-24 10.769531-24 24zm32 0c0 4.40625-3.585938 8-8 8s-8-3.59375-8-8 3.585938-8 8-8 8 3.59375 8 8zm0 0"/><path d="m75.167969 156.367188-13.40625-8.734376c-3.136719 4.800782-6.074219 9.808594-8.738281 14.878907l14.167968 7.441406c2.433594-4.632813 5.113282-9.199219 7.976563-13.585937zm0 0"/><path d="m48 248c0-22.753906 4.472656-44.824219 13.289062-65.59375l-14.738281-6.246094c-9.65625 22.75-14.550781 46.929688-14.550781 71.839844 0 101.464844 82.535156 184 184 184v-16c-92.632812 0-168-75.367188-168-168zm0 0"/><path d="m480 192h-16c-8.824219 0-16-7.175781-16-16v-160c0-8.824219 7.175781-16 16-16h16c8.824219 0 16 7.175781 16 16v160c0 8.824219-7.175781 16-16 16zm0 0" fill="#f0bc5e"/></svg>