<?xml version="1.0" encoding="utf-8"?>
<!-- Generator: Adobe Illustrator 16.0.0, SVG Export Plug-In . SVG Version: 6.00 Build 0)  -->
<!DOCTYPE svg PUBLIC "-//W3C//DTD SVG 1.1//EN" "http://www.w3.org/Graphics/SVG/1.1/DTD/svg11.dtd">
<svg version="1.1" id="Capa_1" xmlns="http://www.w3.org/2000/svg" xmlns:xlink="http://www.w3.org/1999/xlink" x="0px" y="0px"
	 width="560px" height="560px" viewBox="190.5 0 560 560" enable-background="new 190.5 0 560 560" xml:space="preserve">
<rect x="465.621" y="198.251" fill="#F0BC5E" stroke="#000000" stroke-miterlimit="10" width="23.879" height="30.249"/>
<g>
	<g>
		<path d="M480.103,0c-118.537-0.057-214.673,95.99-214.73,214.524c-0.041,86.116,51.394,163.918,130.643,197.616v82.538
			c0,5.153,4.178,9.331,9.332,9.331h18.663v46.658c0,5.154,4.18,9.332,9.332,9.332h93.316c5.153,0,9.331-4.178,9.331-9.332V504.01
			h18.663c5.153,0,9.332-4.178,9.332-9.331v-82.538c79.422-33.378,130.964-111.261,130.643-197.411
			C694.684,96.195,598.638,0.057,480.103,0z M517.325,541.337h-74.653V504.01h74.653V541.337z M545.32,485.347H414.677v-66.104
			c1.148,0.363,2.333,0.615,3.49,0.933c2.258,0.683,4.544,1.278,6.822,1.866c3.589,0.952,7.207,1.807,10.853,2.566
			c2.594,0.541,5.188,1.063,7.801,1.512c3.436,0.579,6.888,1.026,10.341,1.438c2.695,0.326,5.384,0.709,8.1,0.934
			c4.236,0.346,8.492,0.484,12.737,0.588c1.735,0,3.442,0.233,5.18,0.233c1.735,0,3.443-0.196,5.179-0.233
			c4.246-0.104,8.501-0.242,12.737-0.588c2.716-0.225,5.403-0.606,8.101-0.934c3.452-0.411,6.905-0.857,10.34-1.438
			c2.612-0.448,5.206-0.934,7.802-1.512c3.647-0.757,7.26-1.614,10.861-2.566c2.276-0.606,4.544-1.203,6.804-1.866
			c1.155-0.354,2.342-0.597,3.499-0.933v66.104H545.32z M551.265,397.331h-0.01c-5.664,2.221-11.439,4.162-17.282,5.823
			c-29.352,8.296-60.219,9.717-90.209,4.151c-11.963-2.21-23.688-5.551-35.021-9.976
			c-100.819-39.355-150.644-152.99-111.287-253.808C336.813,42.705,450.446-7.121,551.265,32.235
			c100.819,39.356,150.645,152.991,111.286,253.808C642.636,337.061,602.281,377.416,551.265,397.331z"/>
	</g>
</g>
<g>
	<g>
		<path d="M617.649,136.195c-0.121-0.261-0.121-0.532-0.262-0.784c-0.215-0.274-0.445-0.535-0.689-0.784
			c-13.754-23.369-33.235-42.846-56.606-56.596c-0.245-0.245-0.504-0.475-0.773-0.691c-0.252-0.14-0.522-0.14-0.783-0.261
			c-48.618-27.983-108.452-27.983-157.07,0c-0.252,0.122-0.532,0.122-0.784,0.261c-0.271,0.216-0.53,0.446-0.775,0.691
			c-23.375,13.749-42.856,33.231-56.605,56.605c-0.245,0.245-0.475,0.504-0.69,0.774c-0.14,0.252-0.14,0.522-0.261,0.784
			c-28.07,48.841-27.992,108.938,0.205,157.705c0,0.065,0,0.132,0.056,0.188c0.609,1.001,1.399,1.877,2.333,2.585l0.392,0.3
			c1.564,1.136,3.442,1.759,5.375,1.781c0.28,0,0.569-0.084,0.849-0.112c0.28-0.026,0.429-0.046,0.644-0.084
			c1.109-0.155,2.181-0.514,3.164-1.054l32.325-18.664c4.48-2.548,6.047-8.245,3.5-12.725c-2.548-4.48-8.245-6.047-12.725-3.499
			c-0.036,0.02-0.071,0.041-0.107,0.062l-23.954,13.83c-8.071-16.395-12.849-34.211-14.063-52.444h27.677
			c5.153,0,9.332-4.178,9.332-9.332s-4.178-9.332-9.332-9.332h-27.519c1.183-18.194,5.94-35.977,13.998-52.332l23.833,13.755
			c4.447,2.606,10.164,1.115,12.769-3.331c2.606-4.447,1.115-10.164-3.331-12.77c-0.035-0.021-0.071-0.041-0.107-0.062
			l-23.926-13.811c10.182-15.146,23.207-28.171,38.353-38.353l13.811,23.917c2.548,4.48,8.244,6.047,12.725,3.5
			s6.047-8.245,3.5-12.725c-0.021-0.036-0.041-0.071-0.063-0.107l-13.752-23.823c16.361-8.072,34.153-12.838,52.359-14.025v27.519
			c0,5.153,4.179,9.332,9.332,9.332s9.331-4.178,9.331-9.332V75.231c18.194,1.183,35.978,5.939,52.332,13.998l-13.755,23.824
			c-2.606,4.445-1.116,10.163,3.329,12.77c4.444,2.607,10.163,1.117,12.771-3.329c0.021-0.036,0.042-0.072,0.063-0.108
			l13.812-23.917c15.146,10.182,28.171,23.207,38.354,38.353l-23.926,13.811c-4.48,2.547-6.048,8.244-3.5,12.725
			c2.548,4.48,8.244,6.047,12.725,3.5c0.037-0.02,0.071-0.041,0.106-0.062l23.833-13.755c8.072,16.362,12.839,34.154,14.025,52.36
			h-27.519c-5.153,0-9.332,4.178-9.332,9.332c0,5.154,4.179,9.332,9.332,9.332h27.678c-1.219,18.22-5.997,36.024-14.063,52.407
			l-23.955-13.83c-4.479-2.547-10.177-0.981-12.725,3.5c-2.523,4.438-1.012,10.081,3.395,12.663l32.323,18.663
			c4.461,2.581,10.169,1.059,12.751-3.403c0.002-0.004,0.005-0.008,0.006-0.012c0-0.056,0-0.121,0.057-0.187
			c13.882-24.062,21.19-51.353,21.191-79.132C638.634,187.167,631.397,160.086,617.649,136.195z"/>
	</g>
</g>
<g>
	<g>
		<path d="M479.999,186.735c-15.462,0-27.995,12.533-27.995,27.995c0.016,1.706,0.193,3.405,0.532,5.076l-41.853,24.169
			c-4.48,2.548-6.047,8.245-3.5,12.725s8.245,6.047,12.725,3.499c0.036-0.02,0.071-0.041,0.107-0.062l42.04-24.262
			c4.972,4.354,11.336,6.784,17.944,6.849c15.461,0,27.995-12.533,27.995-27.995S495.46,186.735,479.999,186.735z M479.999,224.062
			c-5.153,0-9.332-4.178-9.332-9.332c0.127-5.1,4.232-9.205,9.332-9.332c5.153,0,9.331,4.178,9.331,9.332
			S485.153,224.062,479.999,224.062z"/>
	</g>
</g>
<g>
	<g>
		<path d="M535.988,280.051H424.009c-5.153,0-9.332,4.178-9.332,9.332v55.99c0,5.153,4.178,9.331,9.332,9.331h111.979
			c5.152,0,9.332-4.178,9.332-9.331v-55.99C545.32,284.229,541.144,280.051,535.988,280.051z M526.657,336.041h-93.316v-37.326
			h93.316V336.041z"/>
	</g>
</g>
<g>
	<g>
		<path d="M479.999,28.098c-103.075,0-186.633,83.558-186.633,186.632s83.558,186.632,186.633,186.632
			c103.074,0,186.632-83.559,186.632-186.632C666.514,111.706,583.024,28.215,479.999,28.098z M479.999,382.699
			c-92.767,0-167.969-75.202-167.969-167.969S387.232,46.761,479.999,46.761c92.767,0,167.969,75.202,167.969,167.969
			C647.86,307.452,572.722,382.591,479.999,382.699z"/>
	</g>
</g>
<rect x="433.341" y="298.715" fill="#F0BC5E" stroke="#000000" stroke-miterlimit="10" width="93.316" height="37.326"/>
<rect x="442.672" y="504.01" fill="#F0BC5E" stroke="#000000" stroke-miterlimit="10" width="74.653" height="37.327"/>
</svg>
