<svg height="496pt" viewBox="0 -27 496 495" width="496pt" xmlns="http://www.w3.org/2000/svg"><path d="m480 344.5v-160c0-36.992188-28.054688-67.527344-64-71.527344v-16.472656h56v-56c0-22.054688-17.945312-40-40-40h-64c-13.128906 0-24.703125 6.449219-32 16.246094-7.296875-9.796875-18.871094-16.246094-32-16.246094h-64c-13.128906 0-24.703125 6.449219-32 16.246094-7.296875-9.796875-18.871094-16.246094-32-16.246094h-64c-22.054688 0-40 17.945312-40 40v56h40v16h-.832031c-12.046875 0-23.328125 5.34375-30.960938 14.671875l-55.167969 67.417969c-5.832031 7.125-9.039062 16.117187-9.039062 25.335937v92.574219c-8.824219 0-16 7.175781-16 16v64c0 8.824219 7.175781 16 16 16h88v-16h-88v-64h32v32h56v-16h-40v-16c0-8.824219-7.175781-16-16-16h-16v-92.574219c0-5.53125 1.929688-10.921875 5.425781-15.195312l55.167969-67.421875c4.574219-5.601563 11.34375-8.808594 18.574219-8.808594h296.832031c30.878906 0 56 25.121094 56 56v160h-72v16h88v32h-88v16h88c8.824219 0 16-7.175781 16-16v-32c0-8.824219-7.175781-16-16-16zm-80-232h-16v-16h16zm-32-16v16h-208v-16zm-152-32v16h-16v-16zm128 0v16h-16v-16zm24-48h64c13.230469 0 24 10.769531 24 24v40h-96v-32h-16v-8c0-13.230469 10.769531-24 24-24zm-128 0h64c13.230469 0 24 10.769531 24 24v8h-16v32h-80v-32h-16v-8c0-13.230469 10.769531-24 24-24zm-152 24c0-13.230469 10.769531-24 24-24h64c13.230469 0 24 10.769531 24 24v8h-16v32h-96zm40 56h16v16h-16zm0 0"/><path d="m200 392.5h96v16h-96zm0 0"/><path d="m200 344.5h96v16h-96zm0 0"/><path d="m192 272.5h-144v-42.503906c0-5.304688 1.792969-10.527344 5.046875-14.726563l47.832031-61.503906c4.585938-5.890625 11.488282-9.265625 18.953125-9.265625h72.167969zm0 0" fill="#f0bc5e"/><path d="m448 272.5h-240v-128h200c22.054688 0 40 17.945312 40 40zm0 0" fill="#f0bc5e"/><path d="m304 144.5h16v128h-16zm0 0"/><path d="m336 144.5h16v128h-16zm0 0"/><path d="m344 440.5c-35.289062 0-64-28.710938-64-64s28.710938-64 64-64 64 28.710938 64 64-28.710938 64-64 64zm0 0" fill="#f0bc5e"/><path d="m344 408.5c-17.648438 0-32-14.351562-32-32s14.351562-32 32-32 32 14.351562 32 32-14.351562 32-32 32zm0-48c-8.824219 0-16 7.175781-16 16s7.175781 16 16 16 16-7.175781 16-16-7.175781-16-16-16zm0 0"/><path d="m152 440.5c-35.289062 0-64-28.710938-64-64s28.710938-64 64-64 64 28.710938 64 64-28.710938 64-64 64zm0 0" fill="#f0bc5e"/><path d="m152 408.5c-17.648438 0-32-14.351562-32-32s14.351562-32 32-32 32 14.351562 32 32-14.351562 32-32 32zm0-48c-8.824219 0-16 7.175781-16 16s7.175781 16 16 16 16-7.175781 16-16-7.175781-16-16-16zm0 0"/></svg>