<?xml version="1.0" encoding="utf-8"?>
<!-- Generator: Adobe Illustrator 16.0.0, SVG Export Plug-In . SVG Version: 6.00 Build 0)  -->
<!DOCTYPE svg PUBLIC "-//W3C//DTD SVG 1.1//EN" "http://www.w3.org/Graphics/SVG/1.1/DTD/svg11.dtd">
<svg version="1.1" id="Capa_1" xmlns="http://www.w3.org/2000/svg" xmlns:xlink="http://www.w3.org/1999/xlink" x="0px" y="0px"
	 width="560px" height="560px" viewBox="200 0 560 560" enable-background="new 200 0 560 560" xml:space="preserve">
<path fill="#F0BC5E" d="M263.226,153.548V478.71h165.733c7.451-21.036,27.458-36.129,51.041-36.129s43.599,15.093,51.041,36.129
	h6.305c7.452-21.036,27.458-36.129,51.041-36.129c23.584,0,43.601,15.093,51.042,36.129h66.378V153.548H263.226z"/>
<g>
	<path d="M732.903,252.903c14.938,0,27.097-12.158,27.097-27.097v-54.194c0-14.939-12.157-27.097-27.097-27.097h-9.032v-27.097
		c0-14.939-12.157-27.097-27.097-27.097h-90.323V27.097h-37.275C565.165,11.534,550.993,0,534.193,0
		c-16.802,0-30.974,11.534-34.981,27.097h-37.275v63.226h-18.688c-4.472-35.587-34.856-63.226-71.635-63.226
		c-36.779,0-67.164,27.639-71.635,63.226h-27.72h-18.064h-3.17L200,131.148v316.273l57.463,38.306L331.745,560H682.45L760,482.449
		V336.714l-54.193-18.063v-65.748L732.903,252.903L732.903,252.903z M732.903,162.581c4.983,0,9.03,4.056,9.03,9.032v54.194
		c0,4.977-4.047,9.032-9.03,9.032h-27.099v-72.258h9.032H732.903z M480,45.161h36.129v-9.032c0-9.962,8.104-18.064,18.064-18.064
		c9.963,0,18.063,8.102,18.063,18.064v9.032h36.129v45.162H480V45.161z M606.451,108.387h90.323c4.983,0,9.03,4.055,9.03,9.032
		v27.097H427.929c8.165-10.161,13.612-22.563,15.312-36.129h18.695H606.451z M597.419,434.271v-271.69h36.13v290.035
		C624.056,442.906,611.474,436.294,597.419,434.271z M597.419,541.023v-44.249h-18.064v44.249
		c-20.584-4.2-36.129-22.438-36.129-44.249c0-24.902,20.262-45.161,45.161-45.161c24.902,0,45.162,20.259,45.162,45.161
		C633.549,518.578,618.004,536.823,597.419,541.023z M480,541.936c-24.902,0-45.161-20.26-45.161-45.159
		c0-24.902,20.259-45.161,45.161-45.161s45.161,20.259,45.161,45.161C525.161,521.676,504.902,541.936,480,541.936z
		 M308.387,198.709v270.968h-36.129V162.581h36.129v18.064h18.064v-18.064h10.261c7.849,4.354,16.592,7.244,25.868,8.409v298.688
		h-36.129V198.709H308.387z M380.645,170.99c9.276-1.165,18.028-4.056,25.869-8.409h10.261v307.097h-36.129L380.645,170.99
		L380.645,170.99z M579.354,434.271c-14.056,2.021-26.638,8.644-36.131,18.344V162.581h36.131V434.271z M525.161,452.615
		c-9.493-9.7-22.074-16.321-36.129-18.344v-271.69h36.129V452.615z M470.968,434.271c-14.055,2.021-26.636,8.644-36.129,18.344
		V162.581h36.129V434.271z M371.613,45.161c29.888,0,54.194,24.306,54.194,54.194s-24.306,54.193-54.194,54.193
		c-29.888,0-54.193-24.306-54.193-54.193S341.725,45.161,371.613,45.161z M299.978,108.387c1.707,13.566,7.154,25.968,15.31,36.129
		h-43.03v-36.129H299.978L299.978,108.387z M218.064,139.819l36.129-28.903v350.912l-36.129-24.089V139.819z M339.223,541.936
		l-54.193-54.191h132.467c-0.424,2.962-0.722,5.961-0.722,9.032c0,17.685,7.316,33.672,19.066,45.159H339.223z M524.159,541.936
		c3.874-3.794,7.226-8.093,10.034-12.763c2.81,4.67,6.158,8.979,10.033,12.763H524.159z M674.971,541.936h-42.425
		c11.751-11.487,19.067-27.477,19.067-45.159c0-3.071-0.299-6.07-0.725-9.032h78.273L674.971,541.936z M741.936,349.738v119.938
		h-36.129v-18.063h-18.063v18.063h-36.129V162.581h36.129v72.258v96.835v101.875h18.063V337.69L741.936,349.738z"/>
	<path d="M371.613,135.484c19.925,0,36.129-16.204,36.129-36.129s-16.204-36.129-36.129-36.129
		c-19.925,0-36.129,16.204-36.129,36.129S351.688,135.484,371.613,135.484z M371.613,81.291c9.963,0,18.064,8.102,18.064,18.064
		s-8.102,18.064-18.064,18.064c-9.962,0-18.064-8.102-18.064-18.064C353.548,89.392,361.65,81.291,371.613,81.291z"/>
	<path d="M480,469.678c-14.938,0-27.097,12.157-27.097,27.099c0,14.938,12.155,27.097,27.097,27.097s27.097-12.157,27.097-27.097
		C507.097,481.835,494.938,469.678,480,469.678z M480,505.807c-4.985,0-9.032-4.047-9.032-9.03c0-4.986,4.047-9.032,9.032-9.032
		s9.032,4.046,9.032,9.032C489.032,501.76,484.985,505.807,480,505.807z"/>
</g>
</svg>
