<?xml version="1.0" encoding="utf-8"?>
<!-- Generator: Adobe Illustrator 16.0.0, SVG Export Plug-In . SVG Version: 6.00 Build 0)  -->
<!DOCTYPE svg PUBLIC "-//W3C//DTD SVG 1.1//EN" "http://www.w3.org/Graphics/SVG/1.1/DTD/svg11.dtd">
<svg version="1.1" id="Layer_35" xmlns="http://www.w3.org/2000/svg" xmlns:xlink="http://www.w3.org/1999/xlink" x="0px" y="0px"
	 width="512px" height="512px" viewBox="0 0 512 512" enable-background="new 0 0 512 512" xml:space="preserve">
<path fill="#F0BC5E" d="M256,504C119.256,504,8,392.752,8,256S119.256,8,256,8s248,111.248,248,248S392.744,504,256,504z M256,64
	C150.128,64,64,150.136,64,256s86.128,192,192,192s192-86.136,192-192S361.872,64,256,64z"/>
<circle fill="#F0BC5E" stroke="#000000" stroke-miterlimit="10" cx="254.739" cy="256.626" r="43.761"/>
<path d="M390.408,155.192c-4.424-5.88-9.28-11.528-14.432-16.8l-11.433,11.2c4.664,4.76,9.063,9.872,13.072,15.2L390.408,155.192z"
	/>
<path d="M356.816,121.6C327.561,99.616,292.695,88,256,88v16c33.2,0,64.744,10.504,91.208,30.4L356.816,121.6z"/>
<path d="M256,56C145.72,56,56,145.72,56,256c0,110.28,89.72,200,200,200c110.279,0,200-89.72,200-200C456,145.72,366.279,56,256,56z
	 M435.568,296h-63.289c-4.991,0-9.911,0.488-14.711,1.424c1.56-8.32,2.432-16.816,2.432-25.424c0-31.48-10.712-61.072-29.216-83.2
	c52.521,6.584,91.464,18.056,103.56,21.904C438.024,225.2,440,240.376,440,256C440,269.736,438.44,283.111,435.568,296z M256,72
	c79.04,0,146.584,50.096,172.584,120.208C400.368,184.008,335.2,168,256,168s-144.368,16.008-172.584,24.208
	C109.416,122.096,176.96,72,256,72z M72,256c0-15.624,1.976-30.8,5.656-45.296c12.088-3.848,51.008-15.328,103.568-21.912
	C162.712,210.92,152,240.512,152,272c0,8.607,0.872,17.104,2.424,25.424c-4.792-0.936-9.712-1.424-14.712-1.424h-63.28
	C73.56,283.111,72,269.736,72,256z M80.744,312h58.976c16.104,0,31.24,6.272,42.632,17.656C193.728,341.048,200,356.176,200,372.28
	v58.976C143.512,413.168,98.832,368.488,80.744,312z M216,435.568V372.28c0-20.376-7.936-39.528-22.344-53.937
	c-6.336-6.336-13.64-11.344-21.52-15.056C169.44,293.2,168,282.704,168,272c0-34.56,14.424-66.416,38.568-85.864
	C222.248,184.808,238.808,184,256,184c17.191,0,33.76,0.816,49.456,2.136C329.584,205.6,344,237.456,344,272
	c0,10.704-1.439,21.2-4.145,31.288c-7.879,3.712-15.176,8.712-21.52,15.056C303.936,332.752,296,351.904,296,372.28v63.288
	C283.111,438.44,269.736,440,256,440C242.264,440,228.888,438.44,216,435.568z M312,431.256V372.28
	c0-16.104,6.271-31.232,17.656-42.624C341.04,318.271,356.184,312,372.288,312h58.976C413.168,368.488,368.488,413.168,312,431.256z
	"/>
<path d="M312,256c0-30.872-25.12-56-56-56s-56,25.128-56,56s25.12,56,56,56S312,286.872,312,256z M216,256c0-22.056,17.944-40,40-40
	c22.057,0,40,17.944,40,40c0,22.057-17.943,40-40,40C233.944,296,216,278.057,216,256z"/>
<path d="M408,216h-16c-8.824,0-16,7.176-16,16v32c0,8.824,7.176,16,16,16h16c8.824,0,16-7.176,16-16v-32
	C424,223.176,416.824,216,408,216z M392,264v-32h16l0.008,32H392z"/>
<path d="M120,216h-16c-8.824,0-16,7.176-16,16v32c0,8.824,7.176,16,16,16h16c8.824,0,16-7.176,16-16v-32
	C136,223.176,128.824,216,120,216z M104,264v-32h16l0.008,32H104z"/>
<path d="M232,408h48v16h-48V408z"/>
<path d="M232,376h48v16h-48V376z"/>
<path d="M232,344h48v16h-48V344z"/>
</svg>
