<?xml version="1.0" encoding="utf-8"?>
<!-- Generator: Adobe Illustrator 16.0.0, SVG Export Plug-In . SVG Version: 6.00 Build 0)  -->
<!DOCTYPE svg PUBLIC "-//W3C//DTD SVG 1.1//EN" "http://www.w3.org/Graphics/SVG/1.1/DTD/svg11.dtd">
<svg version="1.1" id="Capa_1" xmlns="http://www.w3.org/2000/svg" xmlns:xlink="http://www.w3.org/1999/xlink" x="0px" y="0px"
	 width="562px" height="560px" viewBox="191.5 0 562 560" enable-background="new 191.5 0 562 560" xml:space="preserve">
<path fill="#F0BC5E" d="M678.71,144.516H461.936c-4.995,0-9.032-4.038-9.032-9.032V45.161c0-4.995,4.037-9.032,9.032-9.032H678.71
	c4.994,0,9.032,4.038,9.032,9.032v90.323C687.742,140.479,683.704,144.516,678.71,144.516z"/>
<path d="M416.774,0v126.452v9.384v270.615c0,19.926,16.204,36.13,36.129,36.13h45.161v27.097h17.152
	c-4.2,20.584-22.437,36.129-44.249,36.129h-72.258c-24.902,0-45.161-20.26-45.161-45.161V189.677h-18.064v270.968
	c0,34.864,28.361,63.226,63.226,63.226h72.258c31.784,0,58.096-23.602,62.503-54.193h18.787v-27.097h36.129v27.097h18.064v9.032
	c0,34.864-28.36,63.226-63.226,63.226H335.484c-34.865,0-63.226-28.361-63.226-63.226V189.677h-18.064V478.71
	c0,44.817,36.473,81.29,81.291,81.29h207.742c44.818,0,81.291-36.473,81.291-81.29v-9.032h18.064v-90.323h-54.194v45.161h-36.129
	v-45.161h-54.193v45.161H480v-235.19c0-8.273-3.703-15.987-10.17-21.163l-31.595-25.272c-2.159-1.725-3.396-4.299-3.396-7.054
	v-9.384V18.064h270.968v108.387v9.384c0,2.755-1.237,5.329-3.388,7.054l-31.612,25.281c-6.458,5.176-10.161,12.889-10.161,21.154
	v235.19h-18.064v18.065h45.161c19.925,0,36.129-16.204,36.129-36.13V135.836v-9.384V0H416.774z M606.451,397.419h18.065v54.194
	h-18.065V397.419z M516.129,397.419h18.064v54.194h-18.064V397.419z M461.936,379.354h-27.097V361.29h18.064v-18.064h-18.064
	v-18.064h27.097V379.354z M461.936,307.097h-27.097v-18.064h27.097V307.097z M461.936,270.968h-27.097v-18.064h27.097V270.968z
	 M461.936,234.839h-27.097v-18.064h27.097V234.839z M452.903,424.516c-9.963,0-18.064-8.102-18.064-18.064v-9.032h27.097v27.097
	H452.903z M458.539,182.271c2.159,1.725,3.396,4.299,3.396,7.054v9.384h-27.097v-35.397L458.539,182.271z M682.097,182.271
	l23.71-18.958v35.397H678.71v-9.384C678.71,186.57,679.947,183.996,682.097,182.271z M705.807,252.903v18.064H678.71v-54.193h27.097
	v18.064h-18.064v18.064H705.807z M678.71,343.226v-18.064h27.097v18.064H678.71z M705.807,361.29v18.064H678.71V361.29H705.807z
	 M678.71,307.097v-18.064h27.097v18.064H678.71z M687.742,424.516h-9.032v-27.097h27.097v9.032
	C705.807,416.414,697.704,424.516,687.742,424.516z"/>
<rect x="254.193" width="18.064" height="81.291"/>
<rect x="335.484" width="18.064" height="81.291"/>
<rect x="507.097" y="81.291" width="18.064" height="18.064"/>
<rect x="615.483" y="81.291" width="18.065" height="18.064"/>
<rect x="561.29" y="81.291" width="18.064" height="18.064"/>
<path d="M570.322,343.226c34.865,0,63.227-28.361,63.227-63.226s-28.361-63.226-63.227-63.226
	c-34.864,0-63.226,28.361-63.226,63.226S535.458,343.226,570.322,343.226z M615.483,280c0,14.695-7.162,27.647-18.064,35.895
	v-71.798C608.321,252.352,615.483,265.305,615.483,280z M579.354,235.751v88.498c-2.917,0.596-5.943,0.912-9.032,0.912
	s-6.114-0.316-9.032-0.912v-88.498c2.918-0.596,5.943-0.912,9.032-0.912S576.438,235.155,579.354,235.751z M543.226,244.106v71.797
	c-10.901-8.256-18.064-21.208-18.064-35.895C525.161,265.323,532.324,252.352,543.226,244.106z"/>
<rect x="498.064" y="180.645" width="18.064" height="18.064"/>
<rect x="534.193" y="180.645" width="18.064" height="18.064"/>
<rect x="624.517" y="180.645" width="18.064" height="18.064"/>
<rect x="588.387" y="180.645" width="18.064" height="18.064"/>
<g>
	<path fill="#F0BC5E" d="M257.825,198.186c-12.862-2.501-21.696-14.533-21.696-27.639V72.258h54.194v99.355
		C290.323,188.323,275.121,201.546,257.825,198.186z"/>
	<path fill="#F0BC5E" d="M339.115,198.186c-12.862-2.501-21.695-14.533-21.695-27.639V72.258h54.193v99.355
		C371.613,188.323,356.412,201.546,339.115,198.186z"/>
</g>
</svg>
