<svg id="Capa_1" data-name="Capa 1" xmlns="http://www.w3.org/2000/svg" viewBox="0 0 362.74 303.96"><defs><style>.cls-1{fill:#0f374b;}.cls-2{fill:#ffc857;}</style></defs><title>hands</title><path class="cls-1" d="M-990-1287.61a18.36,18.36,0,0,0,12.9,5.34,18.23,18.23,0,0,0,18.18-17.6,18.21,18.21,0,0,0,17.54-17.54,18.21,18.21,0,0,0,17.54-17.54,18.24,18.24,0,0,0,17.6-18.18,18.53,18.53,0,0,0-.25-2.47l8.39-8.39,6.78,13.56,40.3-20.15-5.23-10.46-29.84,14.92L-921.55-1437l30.76-12.06-4.27-10.89-34.84,13.66L-982-1461.91a36.84,36.84,0,0,0-11.92-1.43v-0.13h-63.36l-26.67-8.86-3.69,11.09,21.68,7.2-30.59,76.5-18-7.18-4.34,10.85,28.8,11.52,7.23-18.08,10.47,10.48-9.77,9.78a18.36,18.36,0,0,0-5.34,12.9,18.23,18.23,0,0,0,17.6,18.18,18.21,18.21,0,0,0,17.54,17.54A18.21,18.21,0,0,0-1034.8-1294a18.23,18.23,0,0,0,18.18,17.6,18.36,18.36,0,0,0,12.9-5.34l9.78-9.77Zm4.64-163.09,51.64,15.49,30.11,60.23-8.47,8.47-24-24.21c2.15,0.2,4.31.33,6.49,0.33v-11.69a54.12,54.12,0,0,1-36.66-14.26L-980-1428.88c-7.71-7.08-20.8-6.8-28.21.61l-15.48,15.49a6.64,6.64,0,0,1-4.64,1.92,6.56,6.56,0,0,1-6.55-6.55,6.51,6.51,0,0,1,1.92-4.64l22.28-22.28A25.59,25.59,0,0,1-985.38-1450.7Zm-68.9-1.08h34.54l-21.46,21.47a18.1,18.1,0,0,0-5.34,12.9,18.26,18.26,0,0,0,18.24,18.24,18.36,18.36,0,0,0,12.9-5.34l15.49-15.49a9,9,0,0,1,12-.26l13.67,12.53a66,66,0,0,0,15,10.33l39.35,39.65a6.6,6.6,0,0,1,1.92,4.64,6.56,6.56,0,0,1-6.55,6.55,6.6,6.6,0,0,1-4.64-1.92l-49-49-8.27,8.27,49,49a6.6,6.6,0,0,1,1.92,4.64A6.56,6.56,0,0,1-942-1329a6.6,6.6,0,0,1-4.64-1.92l-49-49-8.27,8.27,49,49A6.6,6.6,0,0,1-953-1318a6.56,6.56,0,0,1-6.55,6.55,6.6,6.6,0,0,1-4.64-1.92l-49-49-8.27,8.27,49,49a6.6,6.6,0,0,1,1.92,4.64,6.56,6.56,0,0,1-6.55,6.55,6.6,6.6,0,0,1-4.64-1.92l-6.59-6.6a17.39,17.39,0,0,0,.25-2.47,18.23,18.23,0,0,0-17.6-18.18,18.21,18.21,0,0,0-17.54-17.54,18.21,18.21,0,0,0-17.54-17.54,18.23,18.23,0,0,0-18.18-17.6,18.45,18.45,0,0,0-2.47.25l-16.69-16.69Zm-21.49,104.51a6.6,6.6,0,0,1,1.92-4.64l10.28-10.27a6.6,6.6,0,0,1,4.64-1.92,6.56,6.56,0,0,1,6.55,6.55,6.6,6.6,0,0,1-1.92,4.64l-10.27,10.28a6.6,6.6,0,0,1-4.64,1.92A6.56,6.56,0,0,1-1075.78-1347.27Zm17.54,17.54a6.6,6.6,0,0,1,1.92-4.64l10.28-10.27a6.6,6.6,0,0,1,4.64-1.92,6.56,6.56,0,0,1,6.55,6.55,6.6,6.6,0,0,1-1.92,4.64l-10.27,10.28a6.6,6.6,0,0,1-4.64,1.92A6.56,6.56,0,0,1-1058.24-1329.73Zm17.54,17.54a6.6,6.6,0,0,1,1.92-4.64l10.28-10.27a6.6,6.6,0,0,1,4.64-1.92,6.56,6.56,0,0,1,6.55,6.55,6.6,6.6,0,0,1-1.92,4.64l-10.27,10.28a6.6,6.6,0,0,1-4.64,1.92A6.56,6.56,0,0,1-1040.7-1312.2Zm39,11.89L-1012-1290a6.6,6.6,0,0,1-4.64,1.92,6.56,6.56,0,0,1-6.55-6.55,6.6,6.6,0,0,1,1.92-4.64l10.28-10.27a6.6,6.6,0,0,1,4.64-1.92,6.56,6.56,0,0,1,6.55,6.55A6.6,6.6,0,0,1-1001.7-1300.31Z" transform="translate(1169.63 1539.46)"/><path class="cls-1" d="M-1099.7-1284.15l8.27-8.27,8.27,8.27-8.27,8.27Z" transform="translate(1169.63 1539.46)"/><path class="cls-1" d="M-1077.4-1264.37l6.5-9.72,9.71,6.49-6.5,9.72Z" transform="translate(1169.63 1539.46)"/><path class="cls-1" d="M-1051.67-1249.31l4.48-10.8,10.8,4.48-4.48,10.8Z" transform="translate(1169.63 1539.46)"/><path class="cls-1" d="M-1023.48-1239.55l2.28-11.46,11.46,2.28-2.28,11.46Z" transform="translate(1169.63 1539.46)"/><path class="cls-1" d="M-915-1507.38l6.5-9.72,9.71,6.49-6.5,9.72Z" transform="translate(1169.63 1539.46)"/><path class="cls-1" d="M-939.82-1519.32l4.48-10.8,10.8,4.48-4.48,10.8Z" transform="translate(1169.63 1539.46)"/><path class="cls-1" d="M-966.45-1526.21l2.28-11.47,11.46,2.28-2.28,11.47Z" transform="translate(1169.63 1539.46)"/><path class="cls-1" d="M-877-1521.92h-11.69v29.23H-918V-1481H-877v-40.92Z" transform="translate(1169.63 1539.46)"/><path class="cls-1" d="M-1087.47-1317.34h-35.07v35.07h11.69v-23.38h23.38v-11.69Z" transform="translate(1169.63 1539.46)"/><path class="cls-1" d="M-988.1-1527.77h5.85v-11.69h-5.85a151.48,151.48,0,0,0-103.35,40.55l8,8.57A139.81,139.81,0,0,1-988.1-1527.77Z" transform="translate(1169.63 1539.46)"/><path class="cls-1" d="M-988.1-1247.2h-5.85v11.69h5.85a151,151,0,0,0,129.83-72.94l-10-6.09A139.44,139.44,0,0,1-988.1-1247.2Z" transform="translate(1169.63 1539.46)"/><path class="cls-2" d="M-1137-1326.83l-32.25-16.12-0.34-157.86,92.06,30.59-4.67,9.35Z" transform="translate(1169.63 1539.46)"/><path class="cls-2" d="M-832.44-1326.41l-68.69-131.14,94.24-37v151.08Z" transform="translate(1169.63 1539.46)"/></svg>