<svg id="Capa_1" data-name="Capa 1" xmlns="http://www.w3.org/2000/svg" xmlns:xlink="http://www.w3.org/1999/xlink" viewBox="0 0 199.96 199.96"><defs><style>.cls-1{fill:#fff;}.cls-2{fill:#c8c7c8;}.cls-3{fill:#ffc857;}.cls-4{fill:#bcbabc;}.cls-5{fill:url(#Degradado_sin_nombre_71);}</style><linearGradient id="Degradado_sin_nombre_71" x1="-1142.39" y1="-971" x2="-1043.08" y2="-971" gradientUnits="userSpaceOnUse"><stop offset="0" stop-color="#3a5b6b"/><stop offset="1" stop-color="#0e3245"/></linearGradient></defs><title>logo_nuevo</title><path class="cls-1" d="M-1135.21-873h115.28A42.34,42.34,0,0,0-990-885.44a42.34,42.34,0,0,0,12.4-29.94v-115.28A42.34,42.34,0,0,0-990-1060.6a42.34,42.34,0,0,0-29.94-12.4h-115.28a42.34,42.34,0,0,0-29.94,12.4,42.34,42.34,0,0,0-12.4,29.94v115.28a42.34,42.34,0,0,0,12.4,29.94A42.34,42.34,0,0,0-1135.21-873Z" transform="translate(1177.55 1073)"/><polygon class="cls-2" points="32.38 170.43 121.65 170.43 130.29 183.26 32.38 170.43"/><path class="cls-3" d="M-1031.94-1008.69c0.16-.17.26-0.26,0.35-0.37a55.89,55.89,0,0,0,6.85-10.4,34.81,34.81,0,0,0,3.93-15.65q0-9.55,0-19.11c0-.22,0-0.45-0.05-0.65-1.1-.18-21.71-0.11-22.26.07v21.89h8.14c0.88,0,1.77,0,2.72,0,0,0.56-.05,1-0.12,1.48a21.21,21.21,0,0,1-2.37,7.12,39.33,39.33,0,0,1-5.6,7.84l-0.92,1Z" transform="translate(1177.55 1073)"/><path class="cls-4" d="M-1043.13-952.93a31.73,31.73,0,0,0-31.73,31.73,31.73,31.73,0,0,0,31.73,31.73,31.73,31.73,0,0,0,31.73-31.73A31.73,31.73,0,0,0-1043.13-952.93Zm-12.26,46.63a19.28,19.28,0,0,1-6.78-11.74h10.64a9,9,0,0,0,1.46,2.53Zm3.86-18.07h-10.64a19.28,19.28,0,0,1,6.78-11.74l5.32,9.21A9,9,0,0,0-1051.53-924.36Zm8.4,22.46a19.25,19.25,0,0,1-6.78-1.23l5.32-9.22a9,9,0,0,0,1.46.12,9,9,0,0,0,1.46-.12l5.32,9.22A19.25,19.25,0,0,1-1043.13-901.9Zm1.46-28.15a9,9,0,0,0-1.46-.12,9,9,0,0,0-1.46.12l-5.32-9.22a19.25,19.25,0,0,1,6.78-1.23,19.25,19.25,0,0,1,6.78,1.23Zm10.8,23.76-5.32-9.21a9,9,0,0,0,1.46-2.53h10.64A19.28,19.28,0,0,1-1030.88-906.3Zm-3.86-18.07a9,9,0,0,0-1.46-2.53l5.32-9.21a19.28,19.28,0,0,1,6.78,11.74h-10.64Z" transform="translate(1177.55 1073)"/><path class="cls-5" d="M-1043.1-982.06a53.43,53.43,0,0,0-1.12-10.77,36.14,36.14,0,0,0-9.34-17.87,38.51,38.51,0,0,0-12.61-8.59,59.29,59.29,0,0,0-14.61-4.07,110.63,110.63,0,0,0-17-1.37,104.3,104.3,0,0,0-14.13.77,52,52,0,0,0-9.42,2,23.45,23.45,0,0,0-7.73,4c-4.43,3.62-5.89,8.33-4.69,13.81a20.39,20.39,0,0,0,5.22,9.46c0.51,0.55,1.05,1.06,1.59,1.59l0.41-.24a26.65,26.65,0,0,1,4.4-2.21,53,53,0,0,1,13.2-3.07,77.84,77.84,0,0,1,9.57-.45,55.4,55.4,0,0,1,10,.86,22.52,22.52,0,0,1,6.85,2.28,12.72,12.72,0,0,1,6.92,9.79,5.77,5.77,0,0,1,0,1.9l-1-.09c-1.73-.14-3.46-0.3-5.2-0.41-1.5-.09-3-0.12-4.51-0.17a167.28,167.28,0,0,0-17.33.29,91.26,91.26,0,0,0-11,1.46,53,53,0,0,0-11.34,3.52,25.6,25.6,0,0,0-14.94,17.22,41.83,41.83,0,0,0-1.37,8.82,38.11,38.11,0,0,0,1.06,11.81,25,25,0,0,0,5.85,11.1,31.46,31.46,0,0,0,8.06,6.2,55.68,55.68,0,0,0,15.29,5.38,95.07,95.07,0,0,0,16.79,1.79c6.24,0.18,12.49,0,18.73-.17a33.6,33.6,0,0,1,8.39-26.12,33.6,33.6,0,0,1,25.06-11.16C-1043.09-963.89-1043.07-973-1043.1-982.06Zm-32.24,41c-0.62.11-1.21,0.26-1.81,0.3-2.88.21-5.76,0.47-8.64,0.57s-5.73.08-8.59,0a27.58,27.58,0,0,1-9.68-1.94,18.42,18.42,0,0,1-1.78-.84,8.07,8.07,0,0,1-4.37-6.27,14.22,14.22,0,0,1,.22-5.17,9.26,9.26,0,0,1,4.59-6.13,19.19,19.19,0,0,1,6-2.13,35.91,35.91,0,0,1,6.93-.66c3.22,0,6.44,0,9.65.15,2.22,0.1,4.44.43,6.65,0.66a7.71,7.71,0,0,1,.83.18v21.3Z" transform="translate(1177.55 1073)"/></svg>