<svg id="Capa_1" data-name="Capa 1" xmlns="http://www.w3.org/2000/svg" viewBox="0 0 442.52 442.52"><defs><style>.cls-1{fill:#0f374b;}.cls-2{fill:#ffc857;}</style></defs><title>store</title><path class="cls-1" d="M-1549.4-1189.2h92.79v14.27h-92.79v-14.27Z" transform="translate(1813.49 1596.04)"/><path class="cls-1" d="M-1670.74-1239.17a14.29,14.29,0,0,0-14.27-14.27h-28.55v-178.44h-14.27v178.44h-28.55v-178.44h-14.27v178.44h-28.55a14.29,14.29,0,0,0-14.27,14.27v28.55a14.12,14.12,0,0,0,2,7.14,14.12,14.12,0,0,0-2,7.14v28.55a14.29,14.29,0,0,0,14.27,14.27H-1685a14.29,14.29,0,0,0,14.27-14.27v-28.55a14.12,14.12,0,0,0-2-7.14,14.12,14.12,0,0,0,2-7.14v-28.55Zm-14.27,28.55h-15.21l9.51-14.27-9.51-14.27H-1685v28.55Zm-22.86,28.55-9.51,14.27h-18.53l9.51-14.27-9.51-14.27h18.53Zm-9.51-57.1,9.51,14.27-9.51,14.27h-18.53l9.51-14.27-9.51-14.27h18.53Zm-26.17,14.27-9.51,14.27h-18.53l9.51-14.27-9.51-14.27h18.53Zm-9.51,28.55,9.51,14.27-9.51,14.27h-18.53l9.51-14.27-9.51-14.27h18.53Zm-46.14-42.82h10.46l9.51,14.27-9.51,14.27h-10.46v-28.55Zm0,42.82h10.46l9.51,14.27-9.51,14.27h-10.46v-28.55Zm99,28.55,9.51-14.27-9.51-14.27H-1685v28.55h-15.22Z" transform="translate(1813.49 1596.04)"/><path class="cls-2" d="M-1699.29-1424.74h-85.65v-42.82h85.65v42.82Z" transform="translate(1813.49 1596.04)"/><path class="cls-1" d="M-1442.34-1282h-95.74l-32.73,32.73v8.94a146,146,0,0,0,7.51,46.24l13.54-4.52a131.8,131.8,0,0,1-6.73-40.57h112.77a128.52,128.52,0,0,1-10.86,37l12.91,6.1a143.35,143.35,0,0,0,13.6-60.74v-10.9A14.29,14.29,0,0,0-1442.34-1282Zm-104.11,28.55,14.27-14.27h89.83v10.9c0,1.12-.16,2.24-0.18,3.37h-103.92Z" transform="translate(1813.49 1596.04)"/><path class="cls-1" d="M-1542.26-1224.89h28.55v14.27h-28.55v-14.27Z" transform="translate(1813.49 1596.04)"/><path class="cls-1" d="M-1371-1467.56v-99.92a14.29,14.29,0,0,0-14.27-14.27h-57.1v0.14a70.93,70.93,0,0,0-42.82-14.41,71.12,71.12,0,0,0-50.88,21.41h-67.5L-1625-1596h-40.81l-21.41,14.27h-112a14.29,14.29,0,0,0-14.27,14.27v99.92a14.29,14.29,0,0,0,14.27,14.27h128.47v28.55h14.27v164.16h14.27v-164.16h214.12v114.2h-115.13a21.48,21.48,0,0,0-15.66,6.82l-35.73,38.33a7.13,7.13,0,0,1-3.47,2l-42.2,10.55a21.38,21.38,0,0,0-16.22,20.77v35.69a21.44,21.44,0,0,0,21.41,21.41h42.82v-14.27h-42.82a7.14,7.14,0,0,1-7.14-7.14v-21.46a145.93,145.93,0,0,0,45.08-7.46l-4.52-13.54a131.75,131.75,0,0,1-40.56,6.73,7.14,7.14,0,0,1,5.39-6.88l42.19-10.55a21.23,21.23,0,0,0,10.47-6.17l35.73-38.32a7.14,7.14,0,0,1,5.21-2.27h111.38a100.51,100.51,0,0,1,18,57.1v7.14h28.55v14.27h-21.41v14.27h21.41v7.14a7.14,7.14,0,0,1-7.14,7.14h-21.41v14.27h21.41a21.44,21.44,0,0,0,21.41-21.41v-55.49a21.28,21.28,0,0,0-5.75-14.6l-8.52-9.15v-177.71A14.29,14.29,0,0,0-1371-1467.56Zm-14.27,0h-57.28a71.42,71.42,0,0,0,27.29-42.82h30v42.82Zm-87-31.8a28.44,28.44,0,0,0,8.29-6.41l8,16.14,16.56-1.07a57.05,57.05,0,0,1-35.5,22.16l-8.86-13.29,11.63-17.45Zm87-68.12v42.82h-28.55a70.93,70.93,0,0,0-14.41-42.82h43Zm-47.59,20.07a56.72,56.72,0,0,1,4.76,22.75,56.71,56.71,0,0,1-3.37,19.14l-15.92,1-9.3-18.81-0.1,0c0-.47.14-0.92,0.14-1.4a28.18,28.18,0,0,0-1.58-9l18,1.16Zm-45.88-34a57,57,0,0,1,37,19.74l-7.06,14.31-20.94-1.35v0.06a28.23,28.23,0,0,0-9.63-4l9.92-14.87Zm7.82,56.71a14.29,14.29,0,0,1-14.27,14.27,14.29,14.29,0,0,1-14.27-14.27,14.29,14.29,0,0,1,14.27-14.27A14.29,14.29,0,0,1-1470.89-1524.66Zm-20.73,56.71a57,57,0,0,1-37-19.74l7.06-14.31,20.94,1.35v-0.06a28.23,28.23,0,0,0,9.63,4l-9.92,14.87Zm-3.85-112.83,8.86,13.3-11.63,17.45,0.12,0.08a28.44,28.44,0,0,0-8.29,6.41l-8-16.14-16.56,1.07A57.08,57.08,0,0,1-1495.47-1580.78Zm-43.42,37,15.92-1,9.3,18.81,0.1,0c0,0.47-.14.92-0.14,1.4a28.18,28.18,0,0,0,1.58,9l-18-1.16-7.4,15a56.72,56.72,0,0,1-4.76-22.75A56.71,56.71,0,0,1-1538.89-1543.8Zm-139-27,16.44-11h30.57l21.41,21.41h62.57a70.69,70.69,0,0,0-9.29,28.55h-53.28l-21.41,21.41h-30.57l-16.44-11v-3.32h35.69v-42.82h-35.69v-3.32Zm-121.34,103.24v-42.82h28.55v-14.27h-28.55v-42.82h107.06v14.27h35.69v14.27h-35.69v14.27h-64.24v14.27h69.21l21.41,14.27H-1625l21.41-21.41h47.37a71.34,71.34,0,0,0,28.37,50h-271.41Zm142.75,28.55v-14.27h228.4V-1439h-228.4Zm256.72,192.71A114.72,114.72,0,0,0-1406-1277l18.9,20.28a7.11,7.11,0,0,1,1.91,4.86v5.52h-14.5Zm-11.72-57.41a22.08,22.08,0,0,0-2.32-2v-147.54h14.27v162.4Z" transform="translate(1813.49 1596.04)"/><path class="cls-2" d="M-1592.23-1403.33h128.47V-1332h-128.47v-71.37Z" transform="translate(1813.49 1596.04)"/><path class="cls-1" d="M-1520.85-1410.46h-78.51v85.65h142.75v-85.65h-64.24Zm-64.24,14.27h50v57.1h-50v-57.1Zm114.2,57.1h-50v-57.1h50v57.1Z" transform="translate(1813.49 1596.04)"/><path class="cls-2" d="M-1570.81-1153.52a28.58,28.58,0,0,1-28.55-28.55,28.58,28.58,0,0,1,28.55-28.55,28.58,28.58,0,0,1,28.55,28.55A28.58,28.58,0,0,1-1570.81-1153.52Z" transform="translate(1813.49 1596.04)"/><path class="cls-2" d="M-1435.2-1153.52a28.58,28.58,0,0,1-28.55-28.55,28.58,28.58,0,0,1,28.55-28.55,28.58,28.58,0,0,1,28.55,28.55A28.58,28.58,0,0,1-1435.2-1153.52Z" transform="translate(1813.49 1596.04)"/></svg>