<svg id="Capa_1" data-name="Capa 1" xmlns="http://www.w3.org/2000/svg" viewBox="0 0 118.67 118.67"><defs><style>.cls-1{fill:#bcbabc;}</style></defs><title>tick</title><path class="cls-1" d="M-778-1122.33A59.4,59.4,0,0,0-837.33-1063,59.4,59.4,0,0,0-778-1003.67,59.4,59.4,0,0,0-718.67-1063,59.4,59.4,0,0,0-778-1122.33Zm0,114.1A54.83,54.83,0,0,1-832.77-1063,54.83,54.83,0,0,1-778-1117.77,54.83,54.83,0,0,1-723.23-1063,54.83,54.83,0,0,1-778-1008.23Z" transform="translate(837.33 1122.33)"/><path class="cls-1" d="M-750-1087.34l-35.07,39.46-21.13-16.9a2.28,2.28,0,0,0-3.21.36,2.28,2.28,0,0,0,.36,3.21l22.82,18.26a2.28,2.28,0,0,0,1.43.5,2.28,2.28,0,0,0,1.71-.77l36.51-41.08a2.28,2.28,0,0,0-.19-3.22A2.28,2.28,0,0,0-750-1087.34Z" transform="translate(837.33 1122.33)"/></svg>