<svg id="Capa_1" data-name="Capa 1" xmlns="http://www.w3.org/2000/svg" viewBox="0 0 353.12 494.08"><defs><style>.cls-1{fill:#ffc857;}.cls-2{fill:#0f374b;}.cls-3{fill:#3e885b;}</style></defs><title>whats</title><path class="cls-1" d="M-419.46-1278A17.09,17.09,0,0,1-436.55-1295V-1465.9h-131v216.43h159.47V-1278h-11.39Z" transform="translate(590.32 1675.21)"/><path class="cls-1" d="M-419.46-1408.95h125.3v79.74h-125.3v-79.74Z" transform="translate(590.32 1675.21)"/><path class="cls-2" d="M-465-1511.47h11.39v11.39H-465v-11.39Z" transform="translate(590.32 1675.21)"/><path class="cls-2" d="M-522-1511.47h45.56v11.39H-522v-11.39Z" transform="translate(590.32 1675.21)"/><path class="cls-2" d="M-271.38-1317.82v-133.35l-48.9-48.9h-65v-5.7a28.51,28.51,0,0,0-28.48-28.48H-561.85a28.51,28.51,0,0,0-28.48,28.48v296.16a28.51,28.51,0,0,0,28.48,28.48h148.08a28.51,28.51,0,0,0,28.48-28.48v-62.65H-260A22.8,22.8,0,0,0-237.21-1295v-22.78h-34.17Zm-34.17-125.3v11.39H-408.07v-34.17h79.74v22.78h22.78Zm-11.39-11.39v-26.12l26.12,26.12h-26.12Zm-11.39-22.78h-91.13v57h125.3v-22.78h11.39v125.3h-125.3V-1295a11.4,11.4,0,0,1-11.39,11.39A11.4,11.4,0,0,1-430.85-1295v-193.64h102.52v11.39Zm-233.51-45.56h148.08a17.11,17.11,0,0,1,17.09,17.09v5.7h-45.56v11.39H-578.93v-17.09A17.11,17.11,0,0,1-561.85-1522.86Zm148.08,330.34H-561.85a17.11,17.11,0,0,1-17.09-17.09v-17.09h182.25v17.09A17.11,17.11,0,0,1-413.77-1192.52Zm17.09-45.56H-578.93v-239.21h136.69V-1295a22.8,22.8,0,0,0,22.78,22.78h22.78v34.17Zm148.08-57A11.4,11.4,0,0,1-260-1283.65H-399.74a22.61,22.61,0,0,0,3.06-11.39v-11.39H-248.6V-1295Z" transform="translate(590.32 1675.21)"/><path class="cls-2" d="M-487.81-1386.17a11.4,11.4,0,0,1,11.39,11.39H-465a22.76,22.76,0,0,0-17.09-22v-12.2H-493.5v11.39h-17.09v22.78A22.8,22.8,0,0,0-487.81-1352a11.4,11.4,0,0,1,11.39,11.39v11.39h-11.39a11.4,11.4,0,0,1-11.39-11.39h-11.39a22.76,22.76,0,0,0,17.09,22v12.2h11.39v-11.39H-465v-22.78a22.8,22.8,0,0,0-22.78-22.78,11.4,11.4,0,0,1-11.39-11.39v-11.39h11.39Z" transform="translate(590.32 1675.21)"/><path class="cls-2" d="M-419.46-1408.95h11.39v11.39h-11.39v-11.39Z" transform="translate(590.32 1675.21)"/><path class="cls-2" d="M-396.68-1408.95h102.52v11.39H-396.68v-11.39Z" transform="translate(590.32 1675.21)"/><path class="cls-2" d="M-419.46-1386.17h11.39v11.39h-11.39v-11.39Z" transform="translate(590.32 1675.21)"/><path class="cls-2" d="M-396.68-1386.17h102.52v11.39H-396.68v-11.39Z" transform="translate(590.32 1675.21)"/><path class="cls-2" d="M-419.46-1363.39h11.39V-1352h-11.39v-11.39Z" transform="translate(590.32 1675.21)"/><path class="cls-2" d="M-396.68-1363.39h102.52V-1352H-396.68v-11.39Z" transform="translate(590.32 1675.21)"/><path class="cls-2" d="M-419.46-1340.6h11.39v11.39h-11.39v-11.39Z" transform="translate(590.32 1675.21)"/><path class="cls-2" d="M-396.68-1340.6h102.52v11.39H-396.68v-11.39Z" transform="translate(590.32 1675.21)"/><path class="cls-2" d="M-533.37-1323.52h-11.39v51.26h34.17v-11.39h-22.78v-39.87Z" transform="translate(590.32 1675.21)"/><path class="cls-2" d="M-544.76-1346.3h11.39v11.39h-11.39v-11.39Z" transform="translate(590.32 1675.21)"/><path class="cls-2" d="M-544.76-1443.12h11.39v11.39h-11.39v-11.39Z" transform="translate(590.32 1675.21)"/><path class="cls-2" d="M-522-1443.12h11.39v11.39H-522v-11.39Z" transform="translate(590.32 1675.21)"/><path class="cls-2" d="M-499.2-1443.12h11.39v11.39H-499.2v-11.39Z" transform="translate(590.32 1675.21)"/><path class="cls-2" d="M-317.22-1675.21c-43.33,0-78.75,35.42-78.75,78.48a79.67,79.67,0,0,0,10.9,40.06l-10.9,39.51,40.33-10.9c11.72,6.54,24.8,10.9,38.42,10.9,43.33,0,79.29-36.51,79.29-79.57S-273.89-1675.21-317.22-1675.21Zm0.27,144.42A64.7,64.7,0,0,1-351-1540.87l-2.45-1.36-23.43,6,6.27-22.89-1.64-2.45a66,66,0,0,1-10.08-35.15,64.89,64.89,0,0,1,65.13-64.85c36,0,65.67,28.61,65.67,64.85S-281.25-1530.79-316.94-1530.79Z" transform="translate(590.32 1675.21)"/><path class="cls-3" d="M-338.2-1633.24l-5.18-.27a6.19,6.19,0,0,0-4.36,1.64c-2.45,2.18-6.54,6.27-7.63,11.72-1.91,8.17,1.09,18,8.17,27.79s20.71,25.61,44.69,32.43c7.63,2.18,13.62.82,18.53-2.18a16.08,16.08,0,0,0,7.08-10.35l0.82-3.81a2.74,2.74,0,0,0-1.36-3l-17.17-7.9a2.6,2.6,0,0,0-3.27.82l-6.81,8.72a2.12,2.12,0,0,1-2.18.55c-4.63-1.64-20.16-8.17-28.61-24.52a2.06,2.06,0,0,1,.27-2.18l6.54-7.36a3.36,3.36,0,0,0,.55-2.73l-7.9-17.71a2.37,2.37,0,0,0-2.18-1.64" transform="translate(590.32 1675.21)"/></svg>