<svg width="105" height="103" viewBox="0 0 105 103" fill="none" xmlns="http://www.w3.org/2000/svg">
  <path d="M52.5 15.4498C45.2316 15.4498 38.1263 17.5641 32.0828 21.5253C26.0393 25.4866 21.329 31.1168 18.5474 37.7041C15.7659 44.2914 15.0382 51.5398 16.4562 58.5328C17.8742 65.5259 21.3743 71.9493 26.5138 76.991C31.6534 82.0327 38.2016 85.4661 45.3304 86.8571C52.4592 88.2481 59.8484 87.5342 66.5636 84.8057C73.2788 82.0771 79.0184 77.4565 83.0565 71.5281C87.0947 65.5997 89.25 58.6298 89.25 51.4998C89.2389 41.9421 85.3635 32.779 78.4739 26.0207C71.5844 19.2624 62.2433 15.4607 52.5 15.4498ZM52.5 84.1165C45.9238 84.1165 39.4952 82.2036 34.0273 78.6196C28.5594 75.0356 24.2976 69.9416 21.781 63.9817C19.2644 58.0218 18.6059 51.4636 19.8889 45.1366C21.1719 38.8096 24.3386 32.9979 28.9887 28.4364C33.6388 23.8748 39.5634 20.7684 46.0133 19.5099C52.4631 18.2514 59.1486 18.8973 65.2242 21.366C71.2999 23.8346 76.4928 28.0152 80.1464 33.379C83.7999 38.7428 85.75 45.0489 85.75 51.4998C85.7403 60.1474 82.234 68.438 76.0006 74.5528C69.7671 80.6675 61.3155 84.107 52.5 84.1165Z" fill="#A7A7A7"/>
  <path d="M93.6443 36.9083L101.78 33.657L100.46 30.476L92.3108 33.7377C90.3787 29.5856 87.7861 25.7612 84.63 22.4077L90.86 16.2963L88.3855 13.8707L82.1555 19.982C78.8644 16.9997 75.1275 14.5288 71.0745 12.6553L74.4887 4.70367L71.2635 3.36982L67.851 11.318C63.4936 9.71176 58.9014 8.80292 54.25 8.62625V0H50.75V8.62625C46.2691 8.79514 41.8417 9.6429 37.625 11.1395L34.3088 3.15695L31.0695 4.45303L34.3945 12.4458C30.162 14.3421 26.2634 16.8858 22.8445 19.982L16.6145 13.8707L14.14 16.298L20.37 22.4094C17.3298 25.6378 14.811 29.3035 12.901 33.2793L4.795 29.9301L3.43525 33.0939L11.5378 36.4414C9.90034 40.7158 8.97386 45.2205 8.79375 49.7833H0V53.2167H8.79375C8.96592 57.6122 9.83014 61.9552 11.3558 66.0917L3.22 69.3379L4.5395 72.5189L12.6893 69.2572C14.6213 73.4092 17.2139 77.2336 20.37 80.5872L14.14 86.6985L16.6145 89.1259L22.8445 83.0146C26.1356 85.9969 29.8725 88.4677 33.9255 90.3413L30.5112 98.2963L33.7365 99.6302L37.149 91.682C41.5064 93.2882 46.0986 94.1971 50.75 94.3737V103H54.25V94.3737C58.7309 94.2049 63.1583 93.3571 67.375 91.8606L70.7 99.843L73.9392 98.547L70.6143 90.5542C74.8468 88.658 78.7454 86.1142 82.1643 83.018L88.3943 89.1293L90.8688 86.702L84.6388 80.5906C87.679 77.3622 90.1978 73.6965 92.1077 69.7207L100.214 73.0699L101.574 69.9061L93.471 66.5586C95.1054 62.2837 96.0289 57.779 96.2062 53.2167H105V49.7833H96.2062C96.0341 45.3878 95.1699 41.0448 93.6443 36.9083ZM52.5 90.9833C44.5393 90.9833 36.7574 88.6677 30.1383 84.3292C23.5192 79.9907 18.3603 73.8243 15.3138 66.6096C12.2674 59.395 11.4703 51.4562 13.0234 43.7972C14.5764 36.1382 18.4099 29.1029 24.039 23.5811C29.668 18.0592 36.8399 14.2988 44.6476 12.7753C52.4553 11.2519 60.5483 12.0338 67.903 15.0222C75.2577 18.0106 81.5439 23.0712 85.9667 29.5642C90.3894 36.0572 92.75 43.6909 92.75 51.5C92.738 61.968 88.4935 72.0039 80.9477 79.4059C73.402 86.8079 63.1713 90.9715 52.5 90.9833Z" fill="#A7A7A7"/>
  <path d="M40.6682 53.1668C43.8445 52.2037 46.6937 50.411 48.9107 47.9808C57.0937 39.9553 54.775 34.3092 51.387 30.9858C50.0898 29.6979 48.5458 28.6743 46.8438 27.9739C45.1419 27.2735 43.3155 26.9101 41.4699 26.9047C39.6242 26.8993 37.7957 27.2519 36.0895 27.9423C34.3833 28.6327 32.8331 29.6472 31.528 30.9275C30.223 32.2078 29.189 33.7285 28.4853 35.4023C27.7817 37.0761 27.4224 38.8698 27.428 40.6803C27.4337 42.4908 27.8043 44.2823 28.5184 45.9518C29.2326 47.6213 30.2762 49.1358 31.5892 50.4081C32.4644 51.3392 33.5221 52.0875 34.699 52.6081C35.876 53.1287 37.1479 53.411 38.4387 53.4381C39.1903 53.4364 39.939 53.3454 40.6682 53.1668ZM34.0637 47.9808C32.0944 46.0492 30.988 43.4294 30.9878 40.6976C30.9876 37.9658 32.0938 35.3458 34.0628 33.414C36.0319 31.4822 38.7026 30.3968 41.4875 30.3967C44.2723 30.3965 46.9432 31.4816 48.9125 33.4131C51.037 35.4989 53.0932 39.0249 46.4362 45.5534C44.656 47.5241 42.3781 49.0001 39.8317 49.833C38.7899 50.0859 37.6967 50.0463 36.6768 49.7188C35.6568 49.3913 34.7514 48.789 34.0637 47.9808Z" fill="#A7A7A7"/>
  <path d="M47.2499 36.0502H43.7499V39.4835H47.2499V36.0502Z" fill="#A7A7A7"/>
  <path d="M71.75 46.3496H68.25V49.7829H71.75V46.3496Z" fill="#A7A7A7"/>
  <path d="M49.0001 66.9498H45.5001V70.3832H49.0001V66.9498Z" fill="#A7A7A7"/>
  <path d="M69.9999 70.3829H66.4999V73.8163H69.9999V70.3829Z" fill="#A7A7A7"/>
  <path d="M54.2499 51.5H50.7499V54.9333H54.2499V51.5Z" fill="#A7A7A7"/>
  <path d="M29.75 56.6504H26.25V60.0837H29.75V56.6504Z" fill="#A7A7A7"/>
  <path d="M62.9999 27.4664H59.4999V30.8998H62.9999V27.4664Z" fill="#A7A7A7"/>
  <path d="M68.2499 39.4839C59.4999 39.4839 59.4999 48.529 59.4999 51.5006C59.4999 54.4721 59.4999 63.5172 68.2499 63.5172C71.4988 63.5172 74.6147 62.2512 76.912 59.9976C79.2093 57.7441 80.4999 54.6876 80.4999 51.5006C80.4999 48.3135 79.2093 45.257 76.912 43.0035C74.6147 40.7499 71.4988 39.4839 68.2499 39.4839ZM68.2499 60.0839C65.0999 60.0839 62.9999 58.6247 62.9999 51.5006C62.9999 44.3764 65.0999 42.9172 68.2499 42.9172C70.5706 42.9172 72.7962 43.8215 74.4371 45.4312C76.0781 47.0409 76.9999 49.2241 76.9999 51.5006C76.9999 53.777 76.0781 55.9602 74.4371 57.5699C72.7962 59.1796 70.5706 60.0839 68.2499 60.0839Z" fill="#A7A7A7"/>
  <path d="M52.3055 61.1325C50.5683 59.289 48.2842 58.0279 45.7763 57.5275C44.4869 57.3227 43.166 57.4331 41.9305 57.8491C40.6951 58.265 39.5834 58.9736 38.694 59.9119C36.724 61.8444 35.6173 64.4654 35.6173 67.1983C35.6173 69.9313 36.724 72.5522 38.694 74.4847C40.664 76.4172 43.3359 77.5028 46.1219 77.5028C48.9079 77.5028 51.5798 76.4172 53.5498 74.4847C54.5065 73.6122 55.2291 72.5218 55.6537 71.31C56.0783 70.0982 56.1918 68.8024 55.984 67.5374C55.4718 65.0772 54.1852 62.8369 52.3055 61.1325ZM51.0683 72.0574C49.734 73.3047 47.9615 74.0005 46.1184 74.0005C44.2753 74.0005 42.5028 73.3047 41.1685 72.0574C40.5185 71.4197 40.0028 70.6627 39.651 69.8296C39.2992 68.9965 39.1182 68.1035 39.1182 67.2018C39.1182 66.3 39.2992 65.407 39.651 64.5739C40.0028 63.7408 40.5185 62.9838 41.1685 62.3462C41.5876 61.8901 42.0973 61.5231 42.6665 61.2677C43.2356 61.0123 43.8521 60.874 44.4778 60.8613C44.7275 60.8615 44.9767 60.881 45.2233 60.9196C47 61.3125 48.6094 62.2347 49.831 63.5599C51.1823 64.7579 52.1224 66.3368 52.5225 68.0798C52.6409 68.8093 52.5696 69.5563 52.3154 70.2516C52.0612 70.9468 51.6323 71.5679 51.0683 72.0574Z" fill="#A7A7A7"/>
</svg>
