<?xml version="1.0" encoding="utf-8"?>
<!-- Generator: Adobe Illustrator 19.0.0, SVG Export Plug-In . SVG Version: 6.00 Build 0)  -->
<svg version="1.1" baseProfile="tiny" id="Capa_1" xmlns="http://www.w3.org/2000/svg" xmlns:xlink="http://www.w3.org/1999/xlink"
	 x="0px" y="0px" viewBox="0 0 1024 120.2" xml:space="preserve">
<g id="XMLID_107_">
	<path id="XMLID_108_" fill="none" d="M756.3,105.3c-0.3-0.4-0.4-1-0.8-1.3c-0.4-0.3-1.1,0-1.6-0.1c-0.4-0.1-0.5,0.1-0.7,0.4
		c-1,1.8-2.1,3.6-3.1,5.4c-0.1,0.1-0.1,0.3-0.2,0.5c2.6,1.1,6.5,1.1,9.2,0c-0.1-0.2-0.2-0.3-0.2-0.4
		C758,108.2,757.1,106.8,756.3,105.3z"/>
	<path id="XMLID_150_" fill="none" d="M753.8,91.4c0.4,0,0.8,0,1.1,0c0.4,0,0.6-0.1,0.7-0.4c1.1-1.9,2.1-3.7,3.2-5.6
		c0-0.1,0.1-0.2,0.1-0.3c-2.4-1.2-6.9-1.2-9.2,0c1.1,2,2.3,4,3.4,5.9C753.4,91.3,753.6,91.4,753.8,91.4z"/>
	<path id="XMLID_151_" fill="none" d="M748.1,99.8c-1.4,0-2.9,0-4.3,0c-0.8,0-1.6,0-2.4,0c0.1,2.7,2.6,6.9,4.6,8
		c1.2-2.1,2.4-4.1,3.6-6.2c-0.3-0.5-0.6-0.9-0.8-1.4C748.6,99.9,748.4,99.8,748.1,99.8z"/>
	<path id="XMLID_159_" fill="none" d="M748.2,95.3c0.3,0,0.4-0.1,0.5-0.4c0.2-0.4,0.4-0.7,0.6-1.1c0.1-0.2,0.2-0.3,0-0.6
		c-1.1-2-2.3-4-3.5-6.1c-1.4,1.2-2.5,2.5-3.3,4c-0.6,1.2-1.2,2.5-1.3,3.9c0.1,0.1,0.1,0.1,0.2,0.1C743.7,95.3,746,95.3,748.2,95.3z"
		/>
	<path id="XMLID_160_" fill="none" d="M880.4,43.6c-4.9-4.4-10.8-6.5-17.3-6.6c-2.9,0-5.7,0.4-8.5,1.2c-5.5,1.6-10,4.6-13.2,9.3
		c-4.3,6.2-6.1,13.1-5.2,20.6c0.3,3,1.1,6,2.3,8.8c2.4,5.6,6.1,9.9,11.5,12.7c2.8,1.5,5.7,2.4,8.8,2.8c1.6,0.2,3.3,0.3,4.9,0.2
		c1.7,0,3.3-0.2,5-0.6c7.9-1.8,13.7-6.3,17.4-13.5c2.2-4.3,3.1-8.9,3.2-15.3c0-2.6-0.9-6.7-2.5-10.6
		C885.3,49.2,883.3,46.1,880.4,43.6z"/>
	<path id="XMLID_161_" fill="none" d="M760.1,94.8c0.2,0.4,0.4,0.5,0.9,0.5c2,0,4.1,0,6.1,0c0.2,0,0.3,0,0.5-0.2
		c-0.6-3.1-2.1-5.7-4.6-7.9c-1.2,2.1-2.3,4-3.4,5.9c-0.2,0.3-0.2,0.5,0,0.7C759.8,94.2,760,94.5,760.1,94.8z"/>
	<path id="XMLID_162_" fill="none" d="M761.5,99.8c-0.7,0-1.4,0-1.6,0.9c0,0.2-0.2,0.3-0.3,0.4c-0.3,0.3-0.2,0.6,0,0.9
		c1.1,1.8,2.1,3.7,3.2,5.5c0.1,0.1,0.1,0.3,0.4,0.3c2.4-2.1,3.9-4.7,4.5-8c-0.5,0-0.8,0-1.1,0C764.9,99.8,763.2,99.9,761.5,99.8z"/>
	<path id="XMLID_163_" fill="none" d="M25.9,82.8c1.4,0.8,2.9,1.3,4.5,1.6c1.5,0.3,3,0.3,4.5,0.4c3,0.1,6,0,9-0.2
		c0.4,0,0.8-0.1,1.2-0.2c0.8-0.2,1.2-0.7,1.3-1.5c0-0.2,0-0.4,0-0.6c0-1.7,0-3.4,0-5.1c0,0,0,0,0,0c0-0.5,0-1,0-1.5
		c0-1.4,0-2.7,0-4.1c0-1.1-0.6-1.6-1.7-1.7c-1.9-0.1-3.8-0.3-5.6-0.4c-2.6-0.1-5.2,0.2-7.8,0.2c-0.1,0-0.3,0-0.4,0
		c-1.4,0.2-2.7,0.6-3.9,1.2c-1.7,0.8-2.9,2-3.6,3.8c-0.6,1.5-0.7,3.1-0.2,4.6C23.7,80.8,24.5,82,25.9,82.8z"/>
	<path id="XMLID_164_" fill="none" d="M264.8,47.1c-2-0.3-4,0-6,0.6c-5,1.6-8.5,4.7-10.3,9.7c-1.3,3.6-1.5,7.2-0.6,10.9
		c0.4,1.9,1.1,3.7,2.1,5.3c3.5,5.6,10.3,8.4,16.7,6.8c5.6-1.4,9.4-4.7,11.3-10.2c0.7-2,1-4.2,0.9-6.4c0.1-2-0.2-4-0.8-6
		C275.8,51.5,271.3,48,264.8,47.1z"/>
	<path id="XMLID_167_" fill="#FCFDFE" d="M1.3,83.8c0.7,2.7,1.8,5.1,3.6,7.2c1.8,2.1,3.9,3.7,6.3,5c2.3,1.3,4.8,2.2,7.3,2.9
		c3.6,1,7.2,1.5,10.9,1.8c2.7,0.2,5.3,0.3,8,0.3c2.5,0,5.1-0.1,7.6-0.2c2.2-0.2,4.4-0.2,6.7-0.3c1.8-0.1,3.7-0.2,5.5-0.4
		c0.8-0.1,1.6-0.2,2.3-0.2c1.8-0.2,3.6-0.4,5.4-0.6c0.9-0.1,1.7-0.2,2.5-0.4c0.9-0.2,1.7-0.9,1.7-2c0-0.9,0.1-1.7,0.1-2.6
		c0-7.7,0-15.3,0-23c0-5,0-10.1,0-15.1c0-2.6-0.2-5.1-0.8-7.6c-0.8-3.6-2.2-6.9-4.4-9.8c-2.5-3.4-5.8-5.9-9.5-7.8
		c-4.8-2.3-9.9-3.4-15.2-3.9c-1.5-0.1-3-0.2-4.5-0.3c-4.6-0.3-9.2-0.1-13.8,0.5c-2.7,0.3-5.3,1.1-7.9,2.1c-1.9,0.8-3.6,2-4.9,3.6
		c-1.6,2-2.3,4.3-1.9,6.8c0.4,2.9,1.7,5.5,3.7,7.6c0.1,0.1,0.2,0.2,0.3,0.3c0.5,0.5,1.1,0.6,1.8,0.5c0.6-0.1,1.1-0.3,1.5-0.5
		c0.9-0.5,1.9-0.9,2.9-1.2c4.2-1.2,8.4-1.9,12.7-1.9c2.7,0,5.4,0.1,8.1,0.7c1.9,0.4,3.6,1,5.2,2c1.8,1.2,3.1,2.8,3.6,4.9
		c0,0.2,0.1,0.3,0.1,0.5c0.1,0.7-0.4,1.2-1.1,1.2c-0.3,0-0.6,0-0.9,0c-2.2,0-4.4-0.1-6.7-0.1c-4,0-8.1,0-12.1,0.4
		c-2.6,0.3-5.1,0.7-7.7,1.3c-2.6,0.6-5.1,1.5-7.5,2.8c-4.2,2.3-7.1,5.7-8.5,10.3c-0.6,2-1.1,4-1.2,6c0,0.5,0,1-0.4,1.3
		c0,0.8,0,1.5,0,2.3c0.3,0.4,0.3,0.9,0.4,1.4C0.7,81.2,0.9,82.5,1.3,83.8z M23.5,74.6c0.7-1.7,1.9-3,3.6-3.8c1.2-0.6,2.5-1,3.9-1.2
		c0.1,0,0.3,0,0.4,0c2.6,0,5.2-0.3,7.8-0.2c1.9,0.1,3.8,0.2,5.6,0.4c1.1,0.1,1.6,0.6,1.7,1.7c0,1.4,0,2.7,0,4.1c0,0.5,0,1,0,1.5
		c0,0,0,0,0,0c0,1.7,0,3.4,0,5.1c0,0.2,0,0.4,0,0.6c-0.1,0.8-0.6,1.3-1.3,1.5c-0.4,0.1-0.8,0.1-1.2,0.2c-3,0.2-6,0.3-9,0.2
		c-1.5-0.1-3-0.1-4.5-0.4c-1.6-0.3-3.1-0.9-4.5-1.6c-1.4-0.8-2.2-2-2.6-3.5C22.8,77.7,22.9,76.2,23.5,74.6z"/>
	<path id="XMLID_168_" fill="#F9FAFB" d="M740.3,118.9c-0.3-0.3-0.7-0.5-1.1-0.8c-2-1.6-3.9-3.3-5.5-5.4c-0.7-1-1.7-1.4-2.9-1.4
		c-1.2,0-2.5,0-3.7,0c-141.6,0-283.2,0-424.8,0c-67.9,0-135.8,0-203.7,0c-8.2,0-16.4,0-24.5,0.1c-4.1,0.1-8.3,0.1-12.4,0.2
		c-1.4,0-2.9,0.1-4.3,0.1c-0.2,0-0.4,0-0.6,0.2c-0.1,0.1-0.1,0.2-0.1,0.3c0,0,0.1,0.1,0.1,0.1c0.1,0,0.3,0,0.4,0
		c2.1,0.1,4.1,0.1,6.2,0.2c3.5,0.1,7,0.1,10.5,0.2c5.6,0.1,11.3,0.1,16.9,0.2c5.7,0.1,11.4,0.1,17,0.2c5.7,0.1,11.4,0.1,17.1,0.2
		c5.7,0.1,11.5,0.1,17.2,0.2c5.7,0.1,11.5,0.1,17.2,0.2c5.7,0.1,11.5,0.1,17.2,0.2c5.8,0.1,11.6,0.1,17.3,0.2
		c5.8,0.1,11.6,0.1,17.5,0.2c5.8,0.1,11.6,0.1,17.5,0.2c5.8,0.1,11.6,0.1,17.5,0.2c5.9,0.1,11.7,0.1,17.6,0.2
		c5.8,0.1,11.6,0.1,17.5,0.2c5.8,0.1,11.6,0.1,17.5,0.2c5.9,0.1,11.7,0.1,17.6,0.2c5.8,0.1,11.6,0.1,17.5,0.2
		c5.8,0.1,11.6,0.1,17.3,0.2c5.8,0.1,11.6,0.1,17.5,0.2c5.8,0.1,11.6,0.1,17.3,0.2c5.9,0.1,11.7,0.1,17.6,0.2
		c5.9,0.1,11.7,0.1,17.6,0.2c5.9,0.1,11.7,0.1,17.6,0.2s11.7,0.1,17.6,0.2c5.9,0.1,11.7,0.1,17.6,0.2c5.9,0.1,11.7,0.1,17.6,0.2
		c5.7,0.1,11.5,0.1,17.2,0.2c5.8,0.1,11.6,0.1,17.3,0.2c5.8,0.1,11.6,0.1,17.3,0.2c5.8,0.1,11.6,0.1,17.5,0.2
		c5.9,0.1,11.8,0.1,17.8,0.2c5.9,0.1,11.8,0.1,17.8,0.2c6,0.1,11.9,0.1,17.9,0.2c5.9,0.1,11.8,0.1,17.7,0.2
		c5.9,0.1,11.8,0.1,17.7,0.2c5.8,0.1,11.6,0.1,17.5,0.2c5.7,0.1,11.4,0.1,17,0.2s11.4,0.1,17,0.2c3.8,0,7.5,0.1,11.3,0.1h28.1
		C740.8,119.7,740.8,119.3,740.3,118.9z"/>
	<path id="XMLID_169_" fill="#F9FAFB" d="M1024,49.8c-0.2-1.1-0.4-2.2-0.7-3.2c-2.1-7-6.4-12-13.1-14.9c-3.7-1.6-7.5-2.5-11.5-2.8
		c-2.2-0.2-4.3-0.1-6.5,0.1c-2.1,0.2-4.3,0.6-6.3,1.2c-5.8,1.6-10.6,4.7-14.4,9.5c-0.5,0.7-1.1,1.3-1.6,2c-0.5,0.6-1,0.6-1.4,0
		c-0.4-0.5-0.8-1.1-1.2-1.6c-1.6-2.1-3.4-4-5.6-5.5c-4.8-3.4-10.3-5.1-16.2-5.6c-3.6-0.3-7.2-0.1-10.7,0.6
		c-4.1,0.7-7.9,2.2-11.4,4.6c-5.6,3.9-8.8,9.3-9.7,16.1c-0.3,2.2-0.5,4.5-0.5,6.8c0,3,0,6,0,9c0,8.5,0,17,0,25.6c0,1.6,0,3.3,0,4.9
		c0,0.4,0.1,0.9,0.2,1.3c0.3,0.6,0.7,1,1.4,1.1c2.2,0.4,4.4,0.3,6.5,0c0.6-0.1,0.9-0.4,1.1-0.9c0.1-0.2,0.1-0.5,0.2-0.7
		c0.1-0.8,0.2-1.6,0.2-2.4c0-5.2,0-10.5,0-15.7c0-6,0-12,0-18c0-2.1,0-4.2,0.2-6.3c0.3-2.3,0.8-4.6,1.7-6.7c1.9-4.6,5.1-7.9,9.8-9.6
		c2.8-1,5.6-1.4,8.5-1.5c2.5,0,5,0.3,7.4,1c3.4,1,6.4,2.8,8.6,5.6c2.8,3.5,4.3,7.6,4.6,12.1c0.1,1.8,0.2,3.6,0.2,5.4
		c0,10.6,0,21.1,0,31.7c0,1.1,0,2.2,0,3.3c0,0.4,0.1,0.9,0.2,1.3c0.2,0.7,0.6,1.1,1.3,1.3c0.5,0.1,1,0.2,1.5,0.2c1.2,0,2.5,0,3.7,0
		c0.5,0,1-0.1,1.4-0.2c0.8-0.2,1.2-0.6,1.4-1.3c0.1-0.3,0.1-0.6,0.1-0.9c0-0.5,0-1,0-1.4c0-11.5,0-22.9,0-34.4c0-1.5,0-2.9,0.1-4.4
		c0.3-2.9,0.9-5.7,2.1-8.3c1.9-4.3,5-7.5,9.5-9.3c3.6-1.4,7.4-2,11.4-1.6c2.3,0.2,4.5,0.7,6.7,1.5c5.3,2.1,8.8,5.8,10.3,11.4
		c0.7,2.5,1,5.1,1,7.7c0,5.1,0,10.2,0,15.3c0,6.7,0,13.3,0,20c0,1.3,0,2.6,0.1,3.9c0.1,1.2,0.6,1.7,1.7,1.9c1.3,0.2,2.6,0.2,3.9,0.2
		c0.8,0,1.6-0.1,2.3-0.2c0.6-0.1,1-0.3,1.2-0.8V49.8z"/>
	<path id="XMLID_170_" fill="#F9FAFB" d="M454.2,4.3c-1-2.1-2.7-3.4-5-3.9c-0.1,0-0.3,0-0.3-0.2c-0.7,0-1.4,0-2.1,0
		c-0.1,0.2-0.3,0.2-0.5,0.2c-2.7,0.6-4.9,3-5.3,5.7c-0.4,3.5,1.7,6.2,4.3,7.4c0.6,0.3,1.3,0.5,2,0.5c2.9,0.1,5.1-1.2,6.5-3.6
		C455.1,8.4,455.2,6.3,454.2,4.3z"/>
	<path id="XMLID_173_" fill="#FCFDFE" d="M289.9,36.6c-4.3-3.8-9.3-6.5-14.7-8.2c-3.5-1.1-7.2-1.7-10.9-1.6c-1.7,0.1-3.4,0.1-5,0.2
		c-2.1,0.1-4.2,0.4-6.3,0.9c-4.8,1.4-9.3,3.5-13.5,6.3c-2.7,1.9-5.2,4.1-7.3,6.7c-3,3.7-5.1,7.9-6.4,12.5c-1.6,5.4-2,10.9-1.1,16.5
		c0.8,5,2.6,9.6,5.4,13.8c4.2,6.4,9.9,10.9,16.9,14c4.6,2,9.5,3,14.5,3.3c3.2,0.2,6.4,0,9.5-0.6c5.1-1,9.7-2.9,14.1-5.6
		c3.5-2.2,6.6-4.9,9.2-8.1c5.3-6.7,7.7-14.3,8-22.2c0-3-0.3-6-1-8.8C299.5,48.1,295.8,41.7,289.9,36.6z M278.9,63.7
		c0.1,2.2-0.2,4.4-0.9,6.4c-1.9,5.4-5.7,8.8-11.3,10.2c-6.4,1.6-13.2-1.2-16.7-6.8c-1-1.6-1.7-3.4-2.1-5.3
		c-0.8-3.7-0.6-7.3,0.6-10.9c1.8-4.9,5.3-8.1,10.3-9.7c2-0.6,4-0.8,6-0.6c6.5,0.9,11,4.4,13.3,10.7C278.7,59.7,279,61.7,278.9,63.7z
		"/>
	<path id="XMLID_174_" fill="#FCFDFE" d="M123.7,79.6c-0.9,0.3-1.8,0.3-2.7,0.4c-2.1,0.2-4.2,0.1-6.2-0.3c-2.4-0.5-4.4-1.8-5.8-3.9
		c-0.9-1.3-1.5-2.8-1.9-4.4c-0.5-1.9-0.6-3.8-0.6-5.8c0-9.4,0-18.8,0-28.2c0-1.6,0-3.1,0-4.7c0-1.2-0.6-2-1.7-2.4
		c-2.1-0.8-4.2-1.3-6.4-1.5c-1.9-0.1-3.9-0.1-5.8,0.1c-1.5,0.2-2.9,0.6-4.3,1.3c-2.1,1.1-3.5,2.8-4,5.2c-0.2,1-0.3,2.1-0.3,3.2
		c0,0.4,0,0.8,0,1.1c0,10.2,0,20.5,0,30.7c0,2.6,0.2,5.2,0.8,7.7c1.2,5.4,3.7,10.1,7.7,13.8c2.5,2.4,5.4,4.2,8.5,5.6
		c4.9,2.2,10.2,3.2,15.5,3.5c2.4,0.1,4.9,0.1,7.3-0.1c2.9-0.3,5.8-0.8,8.6-1.5c3.8-1,7.4-2.6,10.6-5c4.8-3.4,8.1-8,9.9-13.6
		c1.1-3.5,1.6-7.2,1.6-10.9c0-5.6,0-11.3,0-16.9c0,0,0,0,0,0c0-5.9,0-11.8,0-17.7c0-1,0-2-0.1-3c0-0.9-0.5-1.5-1.3-1.9
		c-0.1-0.1-0.2-0.1-0.4-0.2c-2.3-0.8-4.7-1.4-7.2-1.5c-1.7-0.1-3.5,0-5.2,0.2c-1.9,0.2-3.6,0.9-5.2,2c-1.2,0.8-2,1.9-2.5,3.3
		c-0.4,1-0.6,2-0.6,3c0,2.4-0.1,4.8-0.1,7.2c0,6.9,0,13.8,0,20.7c0,2.5-0.2,4.9-0.9,7.3C129.7,76.1,127.4,78.5,123.7,79.6z"/>
	<path id="XMLID_175_" fill="#FCFDFE" d="M191.8,50.8c0.2-0.5,0.6-0.9,1.2-1c0.7-0.1,1.4-0.1,2.1-0.1c5,0,9.9,0,14.9,0
		c1.4,0,2.8-0.1,4.2-0.1c1,0,1.7-0.5,2.1-1.5c0.6-1.2,1.1-2.4,1.4-3.7c0.9-3,1.1-6.1,0.3-9.2c-0.8-3-2.6-4.9-5.5-5.8
		c-1.4-0.4-2.7-0.6-4.1-0.6c-3.6,0-7.3-0.1-10.9-0.1c-1.4,0-2.8-0.1-4.2-0.2c-1.1-0.1-1.7-0.7-1.7-1.8c-0.1-1.7-0.2-3.4-0.2-5.1
		c0-2.8,0-5.7,0-8.5c0-0.6-0.1-1.2-0.1-1.7c-0.1-0.8-0.5-1.3-1.2-1.5c-0.4-0.2-0.9-0.3-1.3-0.5c-1.9-0.7-3.9-1.1-6-1.3
		c-1.8-0.2-3.6-0.1-5.4,0.2c-1.4,0.3-2.8,0.7-4.2,1.4c-1.8,0.9-3,2.3-3.7,4.2c-0.2,0.6-0.3,1.2-0.5,1.8c-0.3,1.5-0.3,3.1-0.3,4.6
		c0,9,0,18.1,0,27.1c0,8.1,0,16.2,0,24.3c0,1.8,0,3.6,0.1,5.3c0.2,2.5,0.5,5,1.3,7.4c1.4,4.7,4.1,8.6,8.1,11.5
		c4.6,3.2,9.7,4.8,15.2,5.1c3.4,0.2,6.7,0,10-0.6c3.9-0.6,7.6-1.7,11.2-3.3c2-0.9,3.9-1.8,5.6-3.1c0.2-0.2,0.5-0.4,0.7-0.6
		c0.6-0.6,0.7-1.2,0.4-2c-0.1-0.2-0.3-0.5-0.4-0.7c-2.2-3.8-4.4-7.6-6.6-11.5c-0.1-0.2-0.2-0.4-0.3-0.5c-0.5-0.8-1.1-1-2-0.8
		c-0.5,0.1-1,0.3-1.5,0.5c-2.3,1-4.7,1.6-7.2,1.9c-2.1,0.2-4.1,0.1-6.1-0.5c-2.8-0.8-4.6-2.7-5.3-5.5c-0.3-1.2-0.4-2.4-0.4-3.6
		c0-5.2,0-10.3,0-15.5c0-0.8,0-1.6,0-2.5C191.5,52.1,191.5,51.5,191.8,50.8z"/>
	<path id="XMLID_176_" fill="#F9FAFB" d="M416.6,97.4c0.1,0.7,0.4,1.1,0.9,1.5c0.2,0.1,0.5,0.1,0.7,0.2c2,0.3,4.1,0.3,6.1,0
		c1-0.1,1.5-0.6,1.6-1.7c0.2-1.4,0.2-2.8,0.2-4.2c0-11.4,0-22.7,0-34.1c0-1.8,0-3.6,0-5.4c0-2.4-0.4-4.7-1.1-7
		c-2.1-6.9-6.4-11.9-13-14.9c-3.6-1.6-7.4-2.5-11.4-2.8c-3.8-0.2-7.5-0.1-11.2,0.8c-6.4,1.4-11.7,4.6-15.9,9.6
		c-0.5,0.6-1,1.2-1.4,1.9c-0.4,0.5-0.8,0.9-1.5,1c-0.6-0.7-1.2-1.5-1.7-2.2c-1.7-2.2-3.6-4.2-5.9-5.8c-4.7-3.2-9.9-4.8-15.4-5.2
		c-4.1-0.3-8.1-0.1-12.1,0.8c-4.1,0.9-7.8,2.5-11.1,5c-5.1,3.9-8,9-8.9,15.3c-0.3,2.2-0.4,4.5-0.4,6.8c0,12.6,0,25.1,0,37.7
		c0,1,0.1,2.1,0.2,3.1c0.1,0.9,0.7,1.4,1.6,1.4c1.9,0,3.8,0,5.6,0c0.1,0,0.2,0,0.3,0c1-0.1,1.6-0.7,1.7-1.7c0-0.2,0-0.4,0-0.6
		c0-3,0.1-6.1,0.1-9.1c0-8.5,0-17,0-25.6c0-2.4,0-4.8,0.3-7.2c0.3-2.3,0.8-4.5,1.7-6.6c1.8-4.4,4.8-7.5,9.2-9.3
		c2.5-1,5.2-1.6,7.9-1.7c2.9-0.2,5.8,0.2,8.6,1c4.4,1.3,7.9,3.8,10.2,7.9c0.9,1.5,1.6,3.2,2.2,4.9c0.4,1.4,0.7,2.8,0.9,4.3
		c0.2,2.9,0.3,5.8,0.3,8.7c0,9.6,0,19.3,0,28.9c0,1.2,0,2.4,0.1,3.6c0,0.4,0,0.8,0.1,1.1c0.2,0.7,0.6,1.2,1.3,1.4
		c0.4,0.1,0.7,0.1,1.1,0.1c1.5,0,3.1,0,4.6-0.1c0.2,0,0.4,0,0.6,0c0.9-0.1,1.5-0.6,1.6-1.6c0.1-0.7,0.1-1.4,0.1-2.1
		c0-10.8,0-21.6,0-32.3c0-2.3-0.1-4.5,0.2-6.8c0.3-2.8,1-5.5,2.1-8.1c1.9-4.3,5-7.4,9.4-9.2c2.4-1,5-1.5,7.6-1.7
		c3.6-0.2,7.1,0.3,10.5,1.6c2,0.8,3.8,1.8,5.4,3.1c1,0.8,1.8,1.8,2.5,2.8c1.9,2.8,2.9,5.9,3.2,9.2c0.2,2,0.2,4.1,0.2,6.2
		c0,1.6,0,3.2,0,4.8c0,8.4,0,16.8,0,25.3C416.5,92.6,416.4,95,416.6,97.4z"/>
	<path id="XMLID_179_" fill="#F9FAFB" d="M887.4,37.7c-2.6-2.2-5.4-4-8.4-5.4c-4.6-2.2-9.5-3.3-14.5-3.4c-0.6,0-1.2,0-1.8,0
		c0,0,0,0,0,0c-1.2,0-2.5,0-3.7,0.1c-2.2,0.2-4.5,0.6-6.6,1.2c-5.6,1.5-10.6,4.1-14.9,8c-8.6,7.9-12.8,19.4-11.3,31.2
		c0.4,3,1.2,5.9,2.2,8.7c2.9,7.6,7.7,13.5,14.8,17.6c4.8,2.7,10,4.5,15.5,5.1c2.3,0.2,4.5,0.2,6.8,0.1c2.4-0.2,4.8-0.6,7.2-1.2
		c5.3-1.3,10.1-3.6,14.2-7.2c3.8-3.2,6.8-7.1,9-11.6c2.6-5.1,3.9-10.4,3.8-16.1c-0.1-4-0.8-8-2-11.8
		C895.6,47.1,892.3,41.9,887.4,37.7z M886.1,78.6c-3.6,7.2-9.5,11.6-17.4,13.5c-1.6,0.4-3.3,0.5-5,0.6c-1.6,0-3.3,0-4.9-0.2
		c-3.1-0.4-6.1-1.3-8.8-2.8c-5.4-2.9-9.2-7.2-11.5-12.7c-1.2-2.8-2-5.7-2.3-8.8c-0.8-7.5,1-14.4,5.2-20.6c3.2-4.7,7.7-7.7,13.2-9.3
		c2.8-0.8,5.6-1.2,8.5-1.2c6.6,0.1,12.4,2.3,17.3,6.6c2.8,2.5,4.9,5.5,6.3,9c1.6,3.9,2.5,8,2.5,10.6
		C889.2,69.7,888.2,74.3,886.1,78.6z"/>
	<path id="XMLID_180_" fill="#F9FAFB" d="M689.2,50.8c1.6-3.2,3.8-6,6.7-8.2c2.6-2,5.4-3.4,8.5-4.3c2.8-0.8,5.7-1.3,8.6-1.2
		c2.8,0.1,5.5,0.5,8.1,1.4c6.2,2,11,5.8,14.2,11.6c2.4,4.5,3.8,9.3,3.9,14.4c0,1.8-0.1,3.6-0.4,5.3c-0.5,2.8-1.4,5.5-2.6,8.1
		c-0.1,0.2-0.2,0.4-0.2,0.7c-0.1,0.4,0.1,0.6,0.4,0.8c0.3,0.2,0.6,0.1,0.9,0c0.2-0.1,0.4-0.3,0.5-0.5c2.4-2.1,5.1-3.7,8.1-4.8
		c0.4-0.1,0.7-0.2,1.1-0.4c1-0.4,1.6-1,1.8-2.1c0.2-1,0.3-2.1,0.4-3.1c0.4-3.7,0.2-7.3-0.5-10.9c-0.9-4.7-2.8-9-5.5-12.9
		c-3.9-5.6-8.9-9.9-15.2-12.6c-5-2.1-10.2-3-15.6-3.1c-3.5,0.1-7,0.5-10.4,1.4c-5.9,1.5-11.1,4.3-15.5,8.6
		c-6.9,6.8-10.6,15-10.9,24.7c-0.1,3.6,0.2,7.2,1.1,10.7c4.1,15.7,17.5,25.8,33.1,26.8c3.3,0.2,6.6,0.1,9.9-0.6
		c2.7-0.5,5.4-1.3,7.9-2.4c1.1-0.5,1.7-1.3,1.8-2.5c0.1-0.8,0.2-1.6,0.3-2.3c0.3-2,1-3.9,1.8-5.8c0.1-0.2,0.2-0.4,0.2-0.7
		c0-0.3-0.1-0.6-0.4-0.8c-0.3-0.2-0.6-0.2-0.9,0c-0.2,0.1-0.3,0.3-0.5,0.4c-4.5,4-9.9,5.8-15.8,6.2c-2.2,0.2-4.4,0-6.5-0.4
		c-2.8-0.5-5.5-1.3-8-2.6c-4.4-2.3-7.7-5.7-10-10c-2.1-3.9-3.4-8-3.8-12.5c-0.2-2-0.1-3.9,0.1-5.8C686.4,57.6,687.5,54.1,689.2,50.8
		z"/>
	<path id="XMLID_181_" fill="#F9FAFB" d="M524.7,94.7c0,0.4,0,0.8,0,1.2c0,0.5,0.1,1,0.1,1.5c0.1,0.8,0.6,1.4,1.4,1.5
		c0.4,0.1,0.8,0.2,1.2,0.2c1.4,0,2.7,0,4.1,0c0.4,0,0.8-0.1,1.2-0.2c0.7-0.2,1.1-0.6,1.3-1.3c0.1-0.3,0.2-0.6,0.2-0.9
		c0-0.6,0-1.2,0-1.7c0-3.9,0-7.7,0-11.6c0-6,0-11.9,0-17.9c0-2.4,0-4.8,0-7.2c0-2.5-0.3-4.9-0.8-7.3C531.8,43,527.3,36.9,520,33
		c-4.4-2.4-9.2-3.6-14.2-4c-3.8-0.3-7.6-0.1-11.4,0.5c-3.9,0.7-7.6,1.9-11,4c-7.8,4.6-11.9,11.6-13.1,20.5c-0.2,1.7-0.2,3.5-0.2,5.2
		c0,5.6,0,11.3,0,16.9c0,0,0,0,0,0c0,4.4,0,8.8,0,13.1c0,2.3,0,4.7,0.1,7c0,0.4,0,0.8,0.1,1.2c0.1,0.9,0.6,1.4,1.5,1.5
		c2,0.3,4.1,0.3,6.1,0c1.1-0.2,1.6-0.7,1.7-1.7c0.1-1.6,0.2-3.2,0.2-4.8c0-9.5,0-19,0-28.5c0-2.7,0.1-5.3,0.3-8
		c0-0.7,0.2-1.4,0.3-2.1c0.4-2.2,1.2-4.3,2.2-6.3c2.1-4.2,5.4-7.2,9.9-8.8c2.7-1,5.5-1.4,8.3-1.6c3.2-0.2,6.4,0.2,9.5,1
		c5.8,1.5,10,5.1,12.3,10.6c1.4,3.2,2.1,6.6,2.2,10.2c0.1,2.1,0,4.2,0,6.3C524.7,75.1,524.7,84.9,524.7,94.7z"/>
	<path id="XMLID_182_" fill="#F9FAFB" d="M602.7,82.3c-2.2,4.5-5.8,7.5-10.5,9c-2.2,0.7-4.5,1.1-6.8,1.3c-3.7,0.3-7.3,0-10.9-1
		c-3.7-1-6.8-2.9-9.2-5.9c-1.2-1.5-2.2-3.2-2.9-5.1c-0.9-2.4-1.6-4.9-1.8-7.5c-0.1-1.6-0.1-3.1-0.1-4.7c0-4.9,0-9.8,0-14.7
		c0,0,0,0,0,0c0-5.4,0-10.9,0-16.3c0-1.2,0-2.4-0.1-3.6c0-1.3-0.7-2.1-1.9-2.5c-1.2-0.3-2.4-0.4-3.7-0.3c-1.8,0.2-3.7,1.7-3.9,3.9
		c-0.1,0.9-0.1,1.8-0.1,2.8c0,11.3,0,22.5,0,33.8c0,2.6,0.3,5.1,0.8,7.6c0.9,3.8,2.4,7.3,4.7,10.4c2.8,3.7,6.3,6.4,10.5,8.4
		c4.4,2.1,9.1,3,14,3.2c3.6,0.2,7.1-0.1,10.6-0.8c3.2-0.6,6.3-1.6,9.2-3.2c6-3.1,10.2-7.8,12.6-14.1c1.4-3.8,2.1-7.8,2.1-11.9
		c0-12.1,0-24.2,0-36.3c0-0.4,0-0.9-0.1-1.3c-0.3-1.4-1.1-2.2-2.5-2.4c-1-0.1-2-0.2-3-0.1c-1.9,0.2-3.4,1.5-3.8,3.3
		c-0.1,0.4-0.2,0.9-0.2,1.3c0,1.2-0.1,2.4-0.1,3.6c0,3.9,0,7.8,0,11.7c0,5.7,0,11.4,0,17.1c0,2,0,4-0.3,5.9
		C604.8,76.9,604,79.7,602.7,82.3z"/>
	<path id="XMLID_183_" fill="#F9FAFB" d="M642.1,41.1c0.1-0.7,0.6-1.1,1.3-1.3c0.6-0.1,1.3-0.2,1.9-0.2c6.3,0,12.7,0,19,0
		c1.1,0,2.3,0,3.4,0c0.3,0,0.7,0,1-0.1c0.8-0.1,1.4-0.6,1.7-1.3c0.2-0.3,0.3-0.6,0.3-1c0.2-1,0.2-2,0-2.9c-0.4-1.8-1.9-3.1-3.8-3.3
		c-1.2-0.1-2.5-0.2-3.7-0.2c-5.3,0-10.5,0-15.8,0c-0.9,0-1.8,0-2.8,0c-0.4,0-0.9,0-1.3-0.1c-0.8-0.1-1.2-0.6-1.3-1.4
		c-0.1-1.3-0.2-2.7-0.2-4c0-2.9,0-5.8,0-8.7c0-0.6-0.1-1.2-0.2-1.7c-0.2-1.1-0.8-1.8-1.9-2c-1.4-0.3-2.8-0.4-4.2,0
		c-1.7,0.4-3,1.8-3.2,3.6c-0.2,1.2-0.2,2.5-0.2,3.7c0,10,0,20,0,30c0,0,0,0,0,0c0,3.3,0,6.5,0,9.8c0,7.1,0,14.2,0,21.4
		c0,2.1,0.3,4.2,0.8,6.2c1.6,5.9,5.3,9.9,11,12.1c2.7,1.1,5.6,1.5,8.5,1.6c2.6,0.1,5.3-0.1,7.9-0.6c3.8-0.6,7.3-1.9,10.6-3.8
		c0.4-0.2,0.8-0.5,1.1-0.8c0.7-0.6,0.8-1.3,0.3-2.1c-0.5-0.8-1.1-1.7-1.6-2.5c-0.2-0.3-0.4-0.7-0.7-1c-0.6-0.8-1.4-1-2.4-0.7
		c-0.2,0.1-0.4,0.2-0.6,0.2c-0.9,0.4-1.9,0.8-2.8,1.2c-2.9,1.2-5.9,1.8-9,1.7c-0.6,0-1.2-0.1-1.8-0.2c-1.6-0.1-3.2-0.5-4.8-1.1
		c-2.9-1.1-5-3.1-6.1-6.1c-0.3-1-0.6-2-0.6-3.1c-0.1-1.7-0.2-3.5-0.2-5.2c0-10.9,0-21.8,0-32.8c0-0.7,0-1.3,0-2
		C642,41.9,642,41.5,642.1,41.1z"/>
	<path id="XMLID_186_" fill="#F9FAFB" d="M754.5,119.7c11.7,0,22.1-9.4,22.1-22.2c0-12.5-10.1-22.1-22.2-22.1
		c-12.4,0.1-22.2,10.1-22.1,22.2C732.4,110.2,742.6,119.8,754.5,119.7z M763.1,107.8c-0.3,0-0.3-0.2-0.4-0.3
		c-1.1-1.8-2.1-3.7-3.2-5.5c-0.2-0.3-0.2-0.6,0-0.9c0.1-0.1,0.2-0.3,0.3-0.4c0.2-0.9,0.8-0.9,1.6-0.9c1.7,0,3.4,0,5.1,0
		c0.3,0,0.6,0,1.1,0C767,103.1,765.5,105.7,763.1,107.8z M759.6,93.2c1.1-1.9,2.3-3.9,3.4-5.9c2.5,2.2,4,4.8,4.6,7.9
		c-0.2,0.2-0.4,0.2-0.5,0.2c-2,0-4.1,0-6.1,0c-0.4,0-0.7-0.1-0.9-0.5c-0.1-0.3-0.3-0.6-0.5-0.9C759.3,93.7,759.4,93.5,759.6,93.2z
		 M749.9,110.2c0.1-0.2,0.1-0.3,0.2-0.5c1-1.8,2.1-3.6,3.1-5.4c0.2-0.3,0.4-0.5,0.7-0.4c0.5,0.1,1.2-0.2,1.6,0.1
		c0.4,0.3,0.6,0.8,0.8,1.3c0.9,1.5,1.7,3,2.5,4.4c0.1,0.1,0.1,0.2,0.2,0.4C756.3,111.3,752.5,111.3,749.9,110.2z M759,85.1
		c0,0.1,0,0.2-0.1,0.3c-1.1,1.9-2.2,3.7-3.2,5.6c-0.2,0.3-0.4,0.5-0.7,0.4c-0.4,0-0.8,0-1.1,0c-0.3,0-0.5-0.1-0.6-0.3
		c-1.1-2-2.3-4-3.4-5.9C752.1,83.9,756.6,83.9,759,85.1z M746,107.8c-2-1.1-4.5-5.3-4.6-8c0.9,0,1.6,0,2.4,0c1.4,0,2.9,0,4.3,0
		c0.4,0,0.5,0.1,0.7,0.5c0.2,0.5,0.5,0.9,0.8,1.4C748.3,103.7,747.2,105.7,746,107.8z M742.6,91.3c0.8-1.5,1.9-2.8,3.3-4
		c1.2,2.1,2.4,4.1,3.5,6.1c0.1,0.2,0.1,0.4,0,0.6c-0.2,0.3-0.4,0.7-0.6,1.1c-0.1,0.2-0.3,0.4-0.5,0.4c-2.3,0-4.5,0-6.8,0
		c0,0-0.1,0-0.2-0.1C741.5,93.8,742,92.5,742.6,91.3z"/>
	<path id="XMLID_192_" fill="#F9FAFB" d="M818.5,34.6c-0.6-0.6-1.3-1.1-2-1.6c-2.5-1.4-5.1-2.4-7.9-3c-1.9-0.4-3.8-0.7-5.8-0.9
		c-2.1-0.2-4.2-0.4-6.3-0.3c-2.5,0.1-4.9,0.3-7.3,0.7c-2.7,0.5-5.3,1.1-7.8,2.1c-4.8,1.8-8.9,4.6-12.3,8.4
		c-4.5,5.2-7.1,11.2-8.2,17.9c-0.5,3.1-0.7,6.3-0.6,9.4c0,1.4,0.2,2.8,0.5,4.2c0.3,1.2,1,2,2.1,2.4c3.2,1.1,6.1,2.9,8.6,5.2
		c0.2,0.1,0.3,0.3,0.5,0.4c0.3,0.2,0.7,0.2,1,0c0.3-0.2,0.4-0.6,0.3-1c-0.1-0.3-0.2-0.5-0.3-0.8c-0.9-2.2-1.5-4.4-1.9-6.8
		c-0.3-2-0.4-4-0.4-6.3c-0.1-1.7,0.1-3.6,0.3-5.6c0.3-3.1,1.2-6.1,2.6-8.9c3-6.2,7.9-10.1,14.5-11.9c2.2-0.6,4.4-0.9,6.7-1.1
		c3.2-0.3,6.4-0.1,9.5,0.6c3.5,0.7,6.8,2.1,9.9,4c0.6,0.4,1.3,0.7,1.9,1.1c0.6,0.4,1.6,0.2,2-0.4c0.5-0.7,1.1-1.3,1.5-2.1
		C820.5,38.4,820.1,36.2,818.5,34.6z"/>
	<path id="XMLID_193_" fill="#FCFDFE" d="M443.3,97.5c0.1,0.8,0.6,1.4,1.4,1.5c2.1,0.3,4.3,0.3,6.4,0c0.9-0.1,1.4-0.7,1.5-1.6
		c0.2-1.4,0.2-2.8,0.2-4.2c0-9.4,0-18.8,0-28.1c0,0,0,0,0,0c0-9.3,0-18.6,0-27.9c0-1,0-1.9,0-2.9c0-0.3,0-0.6-0.1-0.9
		c-0.2-1.1-0.8-1.9-1.9-2.2c-0.2-0.1-0.5-0.1-0.7-0.2c-1-0.1-2-0.2-3.1,0c-1.8,0.2-3.4,1.6-3.7,3.5c-0.1,0.7-0.2,1.4-0.2,2.1
		c0,0.9,0,1.7,0,2.6c0,17.7,0,35.4,0,53.1C443.2,94,443.2,95.7,443.3,97.5z"/>
	<path id="XMLID_194_" fill="#F9FAFB" d="M817.2,90.1c-0.1-0.1-0.1-0.2-0.2-0.3c-0.5-0.7-1.1-0.9-1.9-0.6c-0.5,0.2-1,0.4-1.5,0.6
		c-1.2,0.6-2.4,1.1-3.7,1.6c-3.2,1.1-6.6,1.5-10,1.6c-1.2,0-2.3-0.1-3.5-0.1c-2.2,0-4.4-0.4-6.5-0.9c-4.2-1-8-2.8-11.2-5.7
		c-0.1-0.1-0.2-0.2-0.4-0.3c-0.4-0.3-0.7-0.3-1,0c-0.3,0.2-0.4,0.6-0.3,1c0.1,0.3,0.2,0.6,0.4,0.8c1.1,2.6,1.8,5.4,2,8.2
		c0.1,1.3,0.7,2.2,1.9,2.6c1.4,0.6,2.9,1,4.4,1.4c4,1,8.1,1.4,12.2,1.4c1.3,0,2.7-0.1,4-0.2c2.6-0.2,5.1-0.6,7.6-1.3
		c2.9-0.8,5.7-1.9,8.4-3.2c0.5-0.2,0.9-0.5,1.3-0.8c0.3-0.3,0.5-0.7,0.4-1.2c-0.1-0.5-0.3-1-0.5-1.4
		C818.5,92.3,817.9,91.2,817.2,90.1z"/>
</g>
</svg>
