<?xml version="1.0" encoding="utf-8"?>
<!-- Generator: Adobe Illustrator 16.0.0, SVG Export Plug-In . SVG Version: 6.00 Build 0)  -->
<!DOCTYPE svg PUBLIC "-//W3C//DTD SVG 1.1//EN" "http://www.w3.org/Graphics/SVG/1.1/DTD/svg11.dtd">
<svg version="1.1" id="Layer_1" xmlns="http://www.w3.org/2000/svg" xmlns:xlink="http://www.w3.org/1999/xlink" x="0px" y="0px"
	 width="22px" height="125px" viewBox="0 0 22 125" enable-background="new 0 0 22 125" xml:space="preserve">
<g>
	<path fill="#FFFFFF" d="M20.972,113.97c0,1.442-0.281,2.751-0.846,3.926c-0.563,1.174-1.312,2.182-2.247,3.023
		c-0.934,0.842-2.002,1.493-3.203,1.955c-1.202,0.463-2.432,0.693-3.689,0.693c-1.313,0-2.57-0.244-3.773-0.734
		c-1.201-0.49-2.265-1.165-3.189-2.025c-0.924-0.86-1.659-1.881-2.205-3.064S1,115.274,1,113.887c0-1.424,0.292-2.723,0.874-3.897
		c0.582-1.174,1.346-2.178,2.288-3.01c0.943-0.832,2.017-1.479,3.219-1.941c1.201-0.462,2.422-0.693,3.661-0.693
		c1.312,0,2.565,0.24,3.758,0.721c1.193,0.481,2.247,1.147,3.162,1.998c0.916,0.851,1.646,1.867,2.192,3.051
		C20.699,111.298,20.972,112.583,20.972,113.97z M10.986,119.685c0.851,0,1.674-0.129,2.469-0.389
		c0.795-0.259,1.498-0.633,2.108-1.123s1.101-1.091,1.47-1.803c0.37-0.713,0.556-1.521,0.556-2.428c0-0.925-0.189-1.742-0.569-2.455
		c-0.379-0.712-0.883-1.312-1.512-1.803c-0.628-0.49-1.336-0.86-2.123-1.109c-0.785-0.25-1.584-0.375-2.398-0.375
		c-0.851,0-1.674,0.135-2.469,0.402c-0.795,0.269-1.498,0.647-2.108,1.138c-0.61,0.489-1.096,1.091-1.456,1.803
		c-0.361,0.712-0.541,1.512-0.541,2.399c0,0.925,0.189,1.747,0.568,2.469c0.379,0.721,0.879,1.322,1.498,1.803
		c0.62,0.481,1.322,0.847,2.108,1.096C9.373,119.56,10.173,119.685,10.986,119.685z"/>
	<path fill="#FFFFFF" d="M20.834,98.63H1.139v-13.23h3.356v9.403h5.076V86.98h3.106v7.822h8.156V98.63z"/>
	<path fill="#FFFFFF" d="M20.834,79.935H1.139v-3.828h19.695V79.935z"/>
	<path fill="#FFFFFF" d="M10.848,70.42c-1.202,0-2.39-0.218-3.564-0.652C6.109,69.334,5.06,68.7,4.134,67.868
		c-0.924-0.832-1.673-1.85-2.246-3.052s-0.859-2.57-0.859-4.105c0-1.812,0.397-3.38,1.192-4.702s1.83-2.307,3.106-2.954l2.025,2.94
		c-0.556,0.26-1.022,0.573-1.401,0.943s-0.679,0.768-0.901,1.192c-0.222,0.426-0.384,0.87-0.485,1.332s-0.152,0.915-0.152,1.359
		c0,0.961,0.194,1.798,0.583,2.51c0.388,0.713,0.892,1.304,1.511,1.775c0.62,0.472,1.322,0.828,2.109,1.068
		c0.785,0.24,1.566,0.36,2.343,0.36c0.869,0,1.707-0.139,2.511-0.416s1.512-0.67,2.122-1.179s1.101-1.119,1.471-1.831
		s0.554-1.493,0.554-2.344c0-0.444-0.055-0.906-0.166-1.388c-0.11-0.479-0.286-0.938-0.527-1.372
		c-0.24-0.435-0.55-0.837-0.929-1.207s-0.836-0.666-1.374-0.888l1.804-3.135c0.74,0.314,1.393,0.763,1.956,1.346
		c0.564,0.582,1.04,1.239,1.429,1.97c0.388,0.73,0.684,1.512,0.887,2.344C20.898,59.269,21,60.082,21,60.877
		c0,1.406-0.295,2.691-0.888,3.856c-0.592,1.165-1.363,2.168-2.316,3.01c-0.952,0.842-2.034,1.497-3.245,1.97
		C13.34,70.184,12.105,70.42,10.848,70.42z"/>
	<path fill="#FFFFFF" d="M20.834,47.424H1.139v-3.827h19.695V47.424z"/>
	<path fill="#FFFFFF" d="M1.139,31.113v-3.384l19.695-7.49v3.939l-4.91,1.831v6.879l4.91,1.803v3.939L1.139,31.113z M13.232,26.703
		l-7.738,2.718l7.738,2.83V26.703z"/>
	<path fill="#FFFFFF" d="M20.834,15.302H1.139v-3.827h16.339V1.433h3.356V15.302z"/>
</g>
</svg>
