<svg xmlns="http://www.w3.org/2000/svg" width="118" height="118" viewBox="0 0 118 118">
  <g id="Grupo_329" data-name="Grupo 329" transform="translate(-125 -1300)">
    <circle id="Elipse_7" data-name="Elipse 7" cx="59" cy="59" r="59" transform="translate(125 1300)" fill="#f0f0f0"/>
    <g id="oil" transform="translate(162 1325)">
      <path id="Trazado_214" data-name="Trazado 214" d="M76.178,256a12.178,12.178,0,1,0,12.178,12.178A12.192,12.192,0,0,0,76.178,256Zm.054,18.82h-.108a4.375,4.375,0,0,1-3.8-6.544l3.853-6.741,3.851,6.741a4.373,4.373,0,0,1-3.8,6.544Zm0,0" transform="translate(-55.144 -220.574)" fill="#ffc857"/>
      <path id="Trazado_215" data-name="Trazado 215" d="M122.412,130.3l11.664,4.913a7.729,7.729,0,0,1,.871.432l1.1-1.92a9.981,9.981,0,0,0-1.115-.552l-11.664-4.913A3.308,3.308,0,0,0,121.98,128H120v2.214h1.98A1.1,1.1,0,0,1,122.412,130.3Zm0,0" transform="translate(-103.394 -110.287)"/>
      <path id="Trazado_216" data-name="Trazado 216" d="M88,128h2.214v2.214H88Zm0,0" transform="translate(-75.822 -110.287)"/>
      <path id="Trazado_217" data-name="Trazado 217" d="M33.26,18.8,21.593,13.891h0c-.184-.077-.371-.141-.558-.2V10.867a3.317,3.317,0,0,0,2.214-3.117V3.321A3.325,3.325,0,0,0,19.927,0H6.642A3.325,3.325,0,0,0,3.321,3.321V7.749a3.317,3.317,0,0,0,2.214,3.117v3.676A7.743,7.743,0,0,0,3.8,16.073l-2,2.4A7.764,7.764,0,0,0,0,23.438v37.45a7.759,7.759,0,0,0,7.749,7.749H34.319a7.759,7.759,0,0,0,7.749-7.749V32.069A14.363,14.363,0,0,0,33.26,18.8ZM5.535,3.321A1.108,1.108,0,0,1,6.642,2.214H7.749V6.642H9.963V2.214h2.214V6.642h2.214V2.214h2.214V6.642H18.82V2.214h1.107a1.108,1.108,0,0,1,1.107,1.107V7.749a1.108,1.108,0,0,1-1.107,1.107H6.642A1.108,1.108,0,0,1,5.535,7.749Zm2.214,7.749H18.82V13.3c-.078,0-.156-.011-.235-.011H9.753a7.759,7.759,0,0,0-2,.274V11.071ZM3.5,19.9l2-2.406A5.517,5.517,0,0,1,9.754,15.5h8.832a5.516,5.516,0,0,1,2.149.434L32.4,20.846a12.145,12.145,0,0,1,6.136,5.723H2.214V23.438A5.537,5.537,0,0,1,3.5,19.9ZM39.854,60.888a5.542,5.542,0,0,1-5.535,5.535H7.749a5.542,5.542,0,0,1-5.535-5.535v-32.1H39.4a12.176,12.176,0,0,1,.456,3.285Zm0,0" transform="translate(0)"/>
      <path id="Trazado_218" data-name="Trazado 218" d="M61.89,224H35.321A3.325,3.325,0,0,0,32,227.321V253.89a3.325,3.325,0,0,0,3.321,3.321H61.89a3.325,3.325,0,0,0,3.321-3.321V227.321A3.325,3.325,0,0,0,61.89,224ZM63,253.89A1.108,1.108,0,0,1,61.89,255H35.321a1.108,1.108,0,0,1-1.107-1.107V227.321a1.108,1.108,0,0,1,1.107-1.107H61.89A1.108,1.108,0,0,1,63,227.321Zm0,0" transform="translate(-27.572 -193.002)"/>
      <path id="Trazado_219" data-name="Trazado 219" d="M117.535,279.871l-4.814,8.422a5.536,5.536,0,1,0,9.627,0Zm-.054,14.41a3.266,3.266,0,0,1-2.836-4.888l2.89-5.058,2.89,5.058a3.268,3.268,0,0,1-2.944,4.888Zm0,0" transform="translate(-96.501 -241.142)"/>
      <path id="Trazado_220" data-name="Trazado 220" d="M66.214,257.107A1.107,1.107,0,1,1,65.107,256,1.107,1.107,0,0,1,66.214,257.107Zm0,0" transform="translate(-55.144 -220.574)"/>
      <path id="Trazado_221" data-name="Trazado 221" d="M226.214,257.107A1.107,1.107,0,1,1,225.107,256,1.107,1.107,0,0,1,226.214,257.107Zm0,0" transform="translate(-193.002 -220.574)"/>
      <path id="Trazado_222" data-name="Trazado 222" d="M66.214,417.107A1.107,1.107,0,1,1,65.107,416,1.107,1.107,0,0,1,66.214,417.107Zm0,0" transform="translate(-55.144 -358.433)"/>
      <path id="Trazado_223" data-name="Trazado 223" d="M226.214,417.107A1.107,1.107,0,1,1,225.107,416,1.107,1.107,0,0,1,226.214,417.107Zm0,0" transform="translate(-193.002 -358.433)"/>
    </g>
  </g>
</svg>
