<svg xmlns="http://www.w3.org/2000/svg" width="118" height="118" viewBox="0 0 118 118">
  <g id="Grupo_325" data-name="Grupo 325" transform="translate(-930 -1300)">
    <circle id="Elipse_10" data-name="Elipse 10" cx="59" cy="59" r="59" transform="translate(930 1300)" fill="#f0f0f0"/>
    <g id="_001-car_battery" data-name="001-car battery" transform="translate(955 1325)">
      <path id="Trazado_224" data-name="Trazado 224" d="M175.755,286.155H154.83a2.83,2.83,0,0,1-2.4-4.329l10.229-16.366a3.106,3.106,0,0,1,5.268,0l10.228,16.366a2.828,2.828,0,0,1-2.4,4.329Zm0,0" transform="translate(-130.953 -227.444)" fill="#ffc857"/>
      <path id="Trazado_225" data-name="Trazado 225" d="M222.984,327.3l-2.059-.824,1.609-4.019h-3.48l3.017-6.034,1.983.99-1.414,2.828h3.167Zm0,0" transform="translate(-188.723 -272.611)"/>
      <path id="Trazado_226" data-name="Trazado 226" d="M103.387,141.293v-4.431a2.218,2.218,0,0,0-2.215-2.215H98.956v-4.431A2.218,2.218,0,0,0,96.741,128H92.31a2.218,2.218,0,0,0-2.215,2.215v4.431H85.663v-2.215a2.218,2.218,0,0,0-2.215-2.215H79.017a2.218,2.218,0,0,0-2.215,2.215v2.215H74.586v-2.215a2.218,2.218,0,0,0-2.215-2.215H67.939a2.218,2.218,0,0,0-2.215,2.215v2.215H61.293v-4.431A2.218,2.218,0,0,0,59.077,128H54.646a2.218,2.218,0,0,0-2.215,2.215v4.431H50.215A2.218,2.218,0,0,0,48,136.862v4.431a2.218,2.218,0,0,0,2.215,2.215v28.8A2.218,2.218,0,0,0,48,174.525v4.431h55.387v-4.431a2.218,2.218,0,0,0-2.215-2.215v-28.8A2.218,2.218,0,0,0,103.387,141.293ZM92.31,130.215h4.431v4.431H92.31Zm-13.293,2.215h4.431v2.215H79.017Zm-11.077,0H72.37v2.215H67.939Zm-13.293-2.215h4.431v4.431H54.646ZM94.525,172.31v2.215h6.646v2.215H50.215v-2.215h6.646V172.31H52.431v-28.8H98.956v28.8Zm-44.31-31.017v-4.431h50.956v4.431Zm0,0" transform="translate(-41.354 -110.276)"/>
      <path id="Trazado_227" data-name="Trazado 227" d="M128,448h33.232v2.216H128Zm0,0" transform="translate(-110.276 -385.966)"/>
      <path id="Trazado_228" data-name="Trazado 228" d="M360,48h4.431v2.215H360Zm0,0" transform="translate(-310.152 -41.354)"/>
      <path id="Trazado_229" data-name="Trazado 229" d="M391.754,15.508a7.754,7.754,0,1,1,7.754-7.754A7.764,7.764,0,0,1,391.754,15.508Zm0,0" transform="translate(-330.828)" fill="#ffc857"/>
      <path id="Trazado_230" data-name="Trazado 230" d="M422.646,34.215h-2.215V32h-2.215v2.215H416v2.215h2.216v2.215h2.215V36.431h2.215Zm0,0" transform="translate(-358.397 -27.569)"/>
      <path id="Trazado_231" data-name="Trazado 231" d="M124.963,19.294,120.6,7.3l-3.162,8.432-3.045-6.092H104V7.424h11.762l1.386,2.77L120.633.9l4.5,12.375,2.509-5.854H132.8V9.639h-3.7Zm0,0" transform="translate(-89.599 -0.777)"/>
      <path id="Trazado_232" data-name="Trazado 232" d="M7.754,15.508a7.754,7.754,0,1,1,7.754-7.754A7.764,7.764,0,0,1,7.754,15.508Zm0,0" fill="#ffc857"/>
      <path id="Trazado_233" data-name="Trazado 233" d="M32,48h6.646v2.215H32Zm0,0" transform="translate(-27.569 -41.354)"/>
      <path id="Trazado_234" data-name="Trazado 234" d="M328,48h2.215v2.215H328Zm0,0" transform="translate(-282.583 -41.354)"/>
    </g>
  </g>
</svg>
