<svg width="90" height="91" viewBox="0 0 90 91" fill="none" xmlns="http://www.w3.org/2000/svg">
  <path d="M67.5 48.8C66.9001 48.8 66.4001 48.9 65.8001 49C64.9001 46.7 62.6 45 60 45C59.4 45 58.9 45.1 58.3 45.2C57.4 42.9 55.1 41.2 52.5 41.2C52.1 41.2 51.7001 41.2 51.2001 41.3V34.3C51.2001 30.9 48.4001 28 44.9001 28C41.4001 28 38.6 30.8 38.6 34.3V49L32 55.7C31.5 56.2 31.3 56.8 31.3 57.5V75C31.3 75.7 31.6 76.3 32 76.8L38.8 83.6V87.6C38.8 89 39.9 90.1 41.3 90.1C42.7 90.1 43.8 89 43.8 87.6V82.6C43.8 81.9 43.5 81.3 43.1 80.8L36.3 74V58.5L38.8 56V67.5C38.8 68.9 39.9 70 41.3 70C42.7 70 43.8 68.9 43.8 67.5V34.4C43.8 33.7 44.4 33.1 45.1 33.1C45.8 33.1 46.4001 33.7 46.4001 34.4V57.5C46.4001 58.9 47.5001 60 48.9001 60C50.3001 60 51.4001 58.9 51.4001 57.5V47.5C51.4001 46.8 52 46.2 52.7001 46.2C53.4001 46.2 54 46.8 54 47.5V57.5C54 58.9 55.1 60 56.5 60C57.9 60 59 58.9 59 57.5V51.2C59 50.5 59.6001 49.9 60.3001 49.9C61.0001 49.9 61.6 50.5 61.6 51.2V57.5C61.6 58.9 62.7 60 64.1 60C65.5 60 66.6 58.9 66.6 57.5V55C66.6 54.3 67.2001 53.7 67.9001 53.7C68.6001 53.7 69.2 54.3 69.2 55V74.6L66.8001 81.7C66.7001 82 66.7 82.2 66.7 82.5V85.7V87.5C66.7 88.9 67.8 90 69.2 90C70.6 90 71.7 88.9 71.7 87.5V82.9L74.1 75.8C74.2 75.5 74.2 75.3 74.2 75V55C73.8 51.6 70.9001 48.8 67.5 48.8Z" fill="white"/>
  <path d="M70 0C59 0 50 9 50 20C50 31 59 40 70 40C81 40 90 31 90 20C90 9 81 0 70 0ZM70 35C61.7 35 55 28.3 55 20C55 11.7 61.7 5 70 5C78.3 5 85 11.7 85 20C85 28.3 78.3 35 70 35Z" fill="white"/>
  <path d="M75.3 11.2L70 16.5L64.7 11.2L61.2 14.7L66.5 20L61.2 25.2999L64.7 28.7999L70 23.5L75.3 28.7999L78.8 25.2999L73.5 20L78.8 14.7L75.3 11.2Z" fill="white"/>
  <path d="M40 20C40 9 31 0 20 0C9 0 0 9 0 20C0 31 9 40 20 40C31 40 40 31 40 20ZM20 35C11.7 35 5 28.3 5 20C5 11.7 11.7 5 20 5C28.3 5 35 11.7 35 20C35 28.3 28.3 35 20 35Z" fill="white"/>
  <path d="M27.2 12.6L18.3 21.5L13 16.2L9.5 19.7L18.3 28.5L30.7 16.2L27.2 12.6Z" fill="white"/>
</svg>
