<svg width="291" height="291" viewBox="0 0 291 291" fill="none" xmlns="http://www.w3.org/2000/svg">
<path d="M291 222.557H0V222.702H291V222.557Z" fill="#EBEBEB"/>
<path d="M137.94 196.6H25.5614C23.7281 196.6 22.2382 195.11 22.2382 193.276V35.3041C22.2382 33.4708 23.7281 31.9808 25.5614 31.9808H137.946C139.779 31.9808 141.269 33.4708 141.269 35.3041V193.276C141.263 195.11 139.773 196.6 137.94 196.6ZM25.5614 32.1263C23.8096 32.1263 22.3837 33.5522 22.3837 35.3041V193.276C22.3837 195.028 23.8096 196.454 25.5614 196.454H137.946C139.697 196.454 141.123 195.028 141.123 193.276V35.3041C141.123 33.5522 139.697 32.1263 137.946 32.1263H25.5614Z" fill="#EBEBEB"/>
<path d="M263.826 196.6H151.442C149.609 196.6 148.119 195.11 148.119 193.276V35.3041C148.119 33.4708 149.609 31.9808 151.442 31.9808H263.826C265.66 31.9808 267.15 33.4708 267.15 35.3041V193.276C267.15 195.11 265.66 196.6 263.826 196.6ZM151.442 32.1263C149.69 32.1263 148.265 33.5522 148.265 35.3041V193.276C148.265 195.028 149.69 196.454 151.442 196.454H263.826C265.578 196.454 267.004 195.028 267.004 193.276V35.3041C267.004 33.5522 265.578 32.1263 263.826 32.1263H151.442Z" fill="#EBEBEB"/>
<path d="M261.842 231.921H246.71V232.067H261.842V231.921Z" fill="#EBEBEB"/>
<path d="M207.209 233.504H181.002V233.65H207.209V233.504Z" fill="#EBEBEB"/>
<path d="M246.128 226.52H210.748V226.666H246.128V226.52Z" fill="#EBEBEB"/>
<path d="M41.7235 227.498H30.5317V227.643H41.7235V227.498Z" fill="#EBEBEB"/>
<path d="M79.0879 227.498H46.9091V227.643H79.0879V227.498Z" fill="#EBEBEB"/>
<path d="M142.089 229.954H98.7479V230.099H142.089V229.954Z" fill="#EBEBEB"/>
<path d="M39.2501 179.85H26.9117V222.557H39.2501V179.85Z" fill="#FAFAFA"/>
<path d="M50.052 189.22H37.7136V222.557H50.052V189.22Z" fill="#FAFAFA"/>
<path d="M57.9439 161.749H45.6055V222.557H57.9439V161.749Z" fill="#FAFAFA"/>
<path d="M66.1443 112.442H53.8059V222.557H66.1443V112.442Z" fill="#FAFAFA"/>
<path d="M96.6644 121.015H63.5544V222.557H96.6644V121.015Z" fill="#FAFAFA"/>
<path d="M225.397 222.555H239.493V193.327H225.397V222.555Z" fill="#FAFAFA"/>
<path d="M213.05 222.559H227.146V199.744H213.05V222.559Z" fill="#FAFAFA"/>
<path d="M204.035 222.555H218.131V180.936H204.035V222.555Z" fill="#FAFAFA"/>
<path d="M194.667 222.555H208.763V147.192H194.667V222.555Z" fill="#FAFAFA"/>
<path d="M202.245 130.49H158.985V222.557H202.245V130.49Z" fill="#F0F0F0"/>
<path d="M198.125 134.349H196.064V145.552H198.125V134.349Z" fill="#F5F5F5"/>
<path d="M198.125 151.873H196.064V163.076H198.125V151.873Z" fill="#F5F5F5"/>
<path d="M198.125 169.391H196.064V180.594H198.125V169.391Z" fill="#F5F5F5"/>
<path d="M198.125 186.909H196.064V198.113H198.125V186.909Z" fill="#F5F5F5"/>
<path d="M198.125 204.433H196.064V215.637H198.125V204.433Z" fill="#F5F5F5"/>
<path d="M190.826 134.349H188.766V145.552H190.826V134.349Z" fill="#F5F5F5"/>
<path d="M190.826 151.873H188.766V163.076H190.826V151.873Z" fill="#F5F5F5"/>
<path d="M190.826 169.391H188.766V180.594H190.826V169.391Z" fill="#F5F5F5"/>
<path d="M190.826 186.909H188.766V198.113H190.826V186.909Z" fill="#F5F5F5"/>
<path d="M190.826 204.433H188.766V215.637H190.826V204.433Z" fill="#F5F5F5"/>
<path d="M183.528 134.349H181.468V145.552H183.528V134.349Z" fill="#F5F5F5"/>
<path d="M183.528 151.873H181.468V163.076H183.528V151.873Z" fill="#F5F5F5"/>
<path d="M183.528 169.391H181.468V180.594H183.528V169.391Z" fill="#F5F5F5"/>
<path d="M183.528 186.909H181.468V198.113H183.528V186.909Z" fill="#F5F5F5"/>
<path d="M183.528 204.433H181.468V215.637H183.528V204.433Z" fill="#F5F5F5"/>
<path d="M176.23 134.349H174.17V145.552H176.23V134.349Z" fill="#F5F5F5"/>
<path d="M176.23 151.873H174.17V163.076H176.23V151.873Z" fill="#F5F5F5"/>
<path d="M176.23 169.391H174.17V180.594H176.23V169.391Z" fill="#F5F5F5"/>
<path d="M176.23 186.909H174.17V198.113H176.23V186.909Z" fill="#F5F5F5"/>
<path d="M176.23 204.433H174.17V215.637H176.23V204.433Z" fill="#F5F5F5"/>
<path d="M168.926 134.349H166.865V145.552H168.926V134.349Z" fill="#F5F5F5"/>
<path d="M168.926 151.873H166.865V163.076H168.926V151.873Z" fill="#F5F5F5"/>
<path d="M168.926 169.391H166.865V180.594H168.926V169.391Z" fill="#F5F5F5"/>
<path d="M168.926 186.909H166.865V198.113H168.926V186.909Z" fill="#F5F5F5"/>
<path d="M168.926 204.433H166.865V215.637H168.926V204.433Z" fill="#F5F5F5"/>
<path opacity="0.5" d="M158.985 130.49H167.895L171.772 222.557H158.985V130.49Z" fill="#E0E0E0"/>
<path d="M137.719 94.9183L163.373 99.7722V222.557H137.719V94.9183Z" fill="#F0F0F0"/>
<path d="M137.719 94.9183H117.192V222.557H137.719V94.9183Z" fill="#E6E6E6"/>
<path d="M117.193 106.149H163.374V105.497H117.193V106.149Z" fill="#E0E0E0"/>
<path d="M117.193 113.1H163.374V112.448H117.193V113.1Z" fill="#E0E0E0"/>
<path d="M117.193 120.05H163.374V119.398H117.193V120.05Z" fill="#E0E0E0"/>
<path d="M117.193 126.995H163.374V126.343H117.193V126.995Z" fill="#E0E0E0"/>
<path d="M117.193 133.945H163.374V133.293H117.193V133.945Z" fill="#E0E0E0"/>
<path d="M117.193 140.896H163.374V140.244H117.193V140.896Z" fill="#E0E0E0"/>
<path d="M117.193 147.846H163.374V147.194H117.193V147.846Z" fill="#E0E0E0"/>
<path d="M117.193 154.797H163.374V154.145H117.193V154.797Z" fill="#E0E0E0"/>
<path d="M117.193 161.747H163.374V161.096H117.193V161.747Z" fill="#E0E0E0"/>
<path d="M117.193 168.698H163.374V168.046H117.193V168.698Z" fill="#E0E0E0"/>
<path d="M117.193 175.648H163.374V174.997H117.193V175.648Z" fill="#E0E0E0"/>
<path d="M117.193 182.593H163.374V181.941H117.193V182.593Z" fill="#E0E0E0"/>
<path d="M117.193 189.544H163.374V188.892H117.193V189.544Z" fill="#E0E0E0"/>
<path d="M117.193 196.494H163.374V195.842H117.193V196.494Z" fill="#E0E0E0"/>
<path d="M117.193 203.445H163.374V202.793H117.193V203.445Z" fill="#E0E0E0"/>
<path d="M117.193 210.395H163.374V209.743H117.193V210.395Z" fill="#E0E0E0"/>
<path d="M117.193 217.346H163.374V216.694H117.193V217.346Z" fill="#E0E0E0"/>
<path d="M105.965 67.7913H84.5064V222.557H105.965V67.7913Z" fill="#F0F0F0"/>
<path d="M105.965 67.7913H84.5064L92.4042 54.126H123.134L105.965 67.7913Z" fill="#FAFAFA"/>
<path d="M105.965 67.7913L123.134 54.126V222.557H105.965V67.7913Z" fill="#EBEBEB"/>
<path d="M123.134 75.0023H84.5064V75.8288H123.134V75.0023Z" fill="#E0E0E0"/>
<path d="M123.134 83.7615H84.5064V84.5879H123.134V83.7615Z" fill="#E0E0E0"/>
<path d="M123.134 92.5205H84.5064V93.347H123.134V92.5205Z" fill="#E0E0E0"/>
<path d="M123.134 101.285H84.5064V102.112H123.134V101.285Z" fill="#E0E0E0"/>
<path d="M123.134 110.044H84.5064V110.871H123.134V110.044Z" fill="#E0E0E0"/>
<path d="M123.134 118.804H84.5064V119.63H123.134V118.804Z" fill="#E0E0E0"/>
<path d="M123.134 127.563H84.5064V128.389H123.134V127.563Z" fill="#E0E0E0"/>
<path d="M123.134 136.322H84.5064V137.148H123.134V136.322Z" fill="#E0E0E0"/>
<path d="M123.134 145.081H84.5064V145.907H123.134V145.081Z" fill="#E0E0E0"/>
<path d="M123.134 153.846H84.5064V154.672H123.134V153.846Z" fill="#E0E0E0"/>
<path d="M123.134 162.605H84.5064V163.431H123.134V162.605Z" fill="#E0E0E0"/>
<path d="M123.134 171.364H84.5064V172.19H123.134V171.364Z" fill="#E0E0E0"/>
<path d="M123.134 180.123H84.5064V180.95H123.134V180.123Z" fill="#E0E0E0"/>
<path d="M123.134 188.882H84.5064V189.709H123.134V188.882Z" fill="#E0E0E0"/>
<path d="M123.134 197.641H84.5064V198.468H123.134V197.641Z" fill="#E0E0E0"/>
<path d="M123.134 206.406H84.5064V207.233H123.134V206.406Z" fill="#E0E0E0"/>
<path d="M123.134 215.165H84.5064V215.992H123.134V215.165Z" fill="#E0E0E0"/>
<path d="M80.7816 142.683H57.3561V222.557H80.7816V142.683Z" fill="#F0F0F0"/>
<path d="M65.7253 146.81H61.9656V159.631H65.7253V146.81Z" fill="#E6E6E6"/>
<path d="M74.95 146.81H71.1903V159.631H74.95V146.81Z" fill="#E6E6E6"/>
<path d="M65.7253 163.414H61.9656V176.235H65.7253V163.414Z" fill="#E6E6E6"/>
<path d="M74.95 163.414H71.1903V176.235H74.95V163.414Z" fill="#E6E6E6"/>
<path d="M65.7253 180.013H61.9656V192.834H65.7253V180.013Z" fill="#E6E6E6"/>
<path d="M74.95 180.013H71.1903V192.834H74.95V180.013Z" fill="#E6E6E6"/>
<path d="M65.7253 196.617H61.9656V209.438H65.7253V196.617Z" fill="#E6E6E6"/>
<path d="M74.95 196.617H71.1903V209.438H74.95V196.617Z" fill="#E6E6E6"/>
<path d="M80.7758 142.683H57.3561L62.8502 137.148H86.2757L80.7758 142.683Z" fill="white"/>
<path d="M80.7758 142.683L86.2757 137.148L91.7698 142.683V222.557H80.7758V142.683Z" fill="#E6E6E6"/>
<path d="M145.5 248.84C207.822 248.84 258.344 245.89 258.344 242.252C258.344 238.613 207.822 235.663 145.5 235.663C83.178 235.663 32.656 238.613 32.656 242.252C32.656 245.89 83.178 248.84 145.5 248.84Z" fill="#F5F5F5"/>
<path d="M168.442 66.6856H242.665C245.651 66.6856 248.072 69.1067 248.072 72.0924V236.845C248.072 239.831 245.651 242.252 242.665 242.252H168.442C165.457 242.252 163.036 239.831 163.036 236.845V72.0924C163.036 69.1067 165.457 66.6856 168.442 66.6856Z" fill="#FFC857"/>
<path d="M165.078 66.6856H239.301C242.287 66.6856 244.708 69.1067 244.708 72.0924V236.845C244.708 239.831 242.287 242.252 239.301 242.252H165.078C162.093 242.252 159.672 239.831 159.672 236.845V72.0924C159.672 69.1067 162.093 66.6856 165.078 66.6856Z" fill="#FFC857"/>
<path opacity="0.7" d="M165.223 66.4761H239.445C242.431 66.4761 244.852 68.8972 244.852 71.8829V236.635C244.852 239.621 242.431 242.042 239.445 242.042H165.223C162.237 242.042 159.816 239.621 159.816 236.635V71.8829C159.816 68.8972 162.237 66.4761 165.223 66.4761Z" fill="white"/>
<g opacity="0.9">
<path opacity="0.9" d="M176.742 66.6856H172.138V242.246H176.742V66.6856Z" fill="white"/>
<path opacity="0.9" d="M225.449 66.6856H222.627V242.246H225.449V66.6856Z" fill="white"/>
<path opacity="0.9" d="M159.672 104.818V109.422L244.708 104.155V99.5511L159.672 104.818Z" fill="white"/>
<path opacity="0.9" d="M159.675 213.578V218.181H244.711V213.578H159.675Z" fill="white"/>
<path opacity="0.9" d="M159.671 127.8V130.309H244.707V127.8H159.671Z" fill="white"/>
<path opacity="0.9" d="M159.672 187.148V192.421L244.708 163.647V158.374L159.672 187.148Z" fill="white"/>
<path opacity="0.9" d="M189.476 66.6856H184.872L197.246 242.252H201.849L189.476 66.6856Z" fill="white"/>
</g>
<path d="M229.884 224.239H128.651V192.683H217.889L226.218 199.451C228.54 201.337 229.884 204.171 229.884 207.163V224.239Z" fill="#407BFF"/>
<path d="M229.884 224.239H128.651V192.683H217.889L226.218 199.451C228.54 201.337 229.884 204.171 229.884 207.163V224.239Z" fill="#F0F0F0"/>
<path d="M128.069 221.393C128.069 209.875 133.29 200.54 139.732 200.54H127.359C120.916 200.54 115.696 209.875 115.696 221.393C115.696 232.911 120.916 242.246 127.359 242.246H139.732C133.29 242.252 128.069 232.911 128.069 221.393Z" fill="#999999"/>
<path d="M139.732 242.246C146.174 242.246 151.396 232.91 151.396 221.393C151.396 209.876 146.174 200.54 139.732 200.54C133.291 200.54 128.069 209.876 128.069 221.393C128.069 232.91 133.291 242.246 139.732 242.246Z" fill="#999999"/>
<path d="M140.669 237.654C145.237 237.654 148.94 230.374 148.94 221.393C148.94 212.412 145.237 205.132 140.669 205.132C136.102 205.132 132.399 212.412 132.399 221.393C132.399 230.374 136.102 237.654 140.669 237.654Z" fill="white"/>
<path d="M60.8422 221.393C60.8422 209.875 66.0628 200.54 72.5055 200.54H60.1322C53.6895 200.54 48.4689 209.875 48.4689 221.393C48.4689 232.911 53.6895 242.246 60.1322 242.246H72.5055C66.0628 242.252 60.8422 232.911 60.8422 221.393Z" fill="#999999"/>
<path d="M72.5055 242.246C78.947 242.246 84.1688 232.91 84.1688 221.393C84.1688 209.876 78.947 200.54 72.5055 200.54C66.0641 200.54 60.8422 209.876 60.8422 221.393C60.8422 232.91 66.0641 242.246 72.5055 242.246Z" fill="#999999"/>
<path d="M207.995 221.393C207.995 209.875 213.216 200.54 219.658 200.54H207.285C200.842 200.54 195.622 209.875 195.622 221.393C195.622 232.911 200.842 242.246 207.285 242.246H219.658C213.222 242.252 207.995 232.911 207.995 221.393Z" fill="#999999"/>
<path d="M219.658 242.246C226.1 242.246 231.322 232.91 231.322 221.393C231.322 209.876 226.1 200.54 219.658 200.54C213.217 200.54 207.995 209.876 207.995 221.393C207.995 232.91 213.217 242.246 219.658 242.246Z" fill="#999999"/>
<path d="M220.601 237.654C225.169 237.654 228.871 230.374 228.871 221.393C228.871 212.412 225.169 205.132 220.601 205.132C216.034 205.132 212.331 212.412 212.331 221.393C212.331 230.374 216.034 237.654 220.601 237.654Z" fill="white"/>
<path d="M114.287 227.213H99.3241L98.486 226.375C97.6246 225.513 96.4548 225.03 95.2326 225.03H57.8391C56.6169 225.03 55.4471 225.513 54.5857 226.375L54.0794 226.881H52.7175C48.2827 226.881 44.6859 223.284 44.6859 218.85V206.517H129.553L122.79 221.195C121.516 224.809 118.111 227.213 114.287 227.213Z" fill="#407BFF"/>
<path d="M114.287 227.213H99.3241L98.486 226.375C97.6246 225.513 96.4548 225.03 95.2326 225.03H57.8391C56.6169 225.03 55.4471 225.513 54.5857 226.375L54.0794 226.881H52.7175C48.2827 226.881 44.6859 223.284 44.6859 218.85V206.517H129.553L122.79 221.195C121.516 224.809 118.111 227.213 114.287 227.213Z" fill="#CECECE"/>
<path d="M202.629 154.044C202.577 154.044 202.53 154.032 202.484 154.003C202.344 153.922 202.297 153.741 202.379 153.607L206.453 146.623C206.534 146.484 206.715 146.437 206.849 146.519C206.988 146.6 207.035 146.78 206.953 146.914L202.879 153.898C202.827 153.991 202.728 154.044 202.629 154.044Z" fill="#999999"/>
<path d="M224.117 188.789V180.851C224.117 176.678 218.052 156.989 209.712 153.305C201.372 149.621 181.194 147.968 168.489 148.649C155.784 149.33 138.83 175.904 138.83 175.904L140.675 198.765C143.259 198.765 151.483 197.991 152.694 220.607C152.868 223.913 155.586 226.509 158.892 226.509H203.392C206.482 226.509 209.107 224.239 209.537 221.172C210.678 213.111 213.74 198.759 221.061 198.759C226.2 198.759 229.89 203.159 229.89 208.205C229.89 202.664 228.54 197.205 225.962 192.299L224.117 188.789Z" fill="#CECECE"/>
<path d="M121.923 148.642C98.7712 148.642 72.5521 175.897 72.5521 175.897H138.824C138.824 175.897 155.778 149.317 168.483 148.642H121.923Z" fill="#CECECE"/>
<path d="M123.343 148.643C103.84 148.643 83.3947 167.983 77.4292 174.082C76.7658 174.763 77.243 175.898 78.1917 175.898H131.654C136.008 175.898 140.116 173.838 142.689 170.322C148.433 162.489 159.515 149.12 168.477 148.637H123.343V148.643Z" fill="white"/>
<path d="M138.824 175.904L114.34 195.22L48.4631 195.011C48.4631 195.011 44.6801 200.505 44.6801 206.523C48.789 206.523 124.769 206.523 129.553 206.523C130.944 202.839 135.815 198.765 140.669 198.765C140.669 191.909 138.824 175.904 138.824 175.904Z" fill="#CECECE"/>
<path opacity="0.2" d="M122.802 189.528C122.662 189.528 122.534 189.424 122.517 189.284C122.493 189.127 122.604 188.975 122.761 188.952C129.978 187.858 135.385 184.331 138.65 181.561C140.501 179.995 140.861 177.306 139.494 175.31C139.401 175.176 139.436 174.996 139.569 174.908C139.703 174.815 139.884 174.85 139.971 174.984C141.507 177.225 141.1 180.245 139.022 182.009C135.699 184.826 130.199 188.417 122.849 189.528C122.831 189.528 122.819 189.528 122.802 189.528Z" fill="black"/>
<path d="M48.4689 195.011C48.4689 195.011 60.0391 181.526 72.5521 175.904H138.824L114.34 195.22L48.4689 195.011Z" fill="#CECECE"/>
<path d="M99.714 195.011H56.2561V196.274H99.714V195.011Z" fill="#999999"/>
<path d="M98.812 192.485L101.146 190.151C101.67 189.627 102.333 189.266 103.055 189.109L120.637 185.28C121.254 185.146 121.894 185.163 122.505 185.338L123.442 185.6C126.178 186.368 127.173 189.726 125.305 191.862L121.527 196.181C120.876 196.926 119.962 197.391 118.978 197.484L101.897 199.067C100.756 199.172 99.6268 198.765 98.812 197.956C97.3046 196.448 97.2988 193.992 98.812 192.485Z" fill="white"/>
<path d="M57.4841 193.719L55.5519 190.116C55.2783 189.61 54.8768 189.191 54.3879 188.894C53.4392 188.324 52.2636 188.289 51.28 188.807L49.8192 189.575C49.0975 189.953 48.5504 190.593 48.2885 191.367L47.3922 194.004C46.7637 195.849 47.9393 197.822 49.8599 198.154L53.8815 198.846C55.226 199.079 56.5704 198.427 57.2164 197.222L57.4841 196.728C57.9905 195.785 57.9905 194.656 57.4841 193.719Z" fill="white"/>
<path opacity="0.4" d="M152.362 176.678H213.635C215.87 176.678 217.464 174.53 216.824 172.389C215.433 167.727 212.744 160.452 208.728 156.739C208.28 156.325 207.733 156.052 207.14 155.924C199.917 154.393 188.306 153.375 179.692 152.781C171.789 152.24 164.054 155.179 158.502 160.83C155.58 163.81 152.426 167.453 149.661 171.614C148.224 173.785 149.766 176.678 152.362 176.678Z" fill="white"/>
<path d="M112.745 213.344C112.745 215.253 110.789 216.801 108.38 216.801C105.97 216.801 104.015 215.253 104.015 213.344C104.015 211.435 105.97 209.887 108.38 209.887C110.789 209.887 112.745 211.435 112.745 213.344Z" fill="#999999"/>
<path d="M77.5748 192.369C79.0065 192.369 79.7049 193.835 79.1346 195.639C78.5642 197.449 76.9404 198.91 75.5087 198.91C74.077 198.91 73.3786 197.444 73.9489 195.639C74.5193 193.835 76.1431 192.369 77.5748 192.369Z" fill="#999999"/>
<path d="M48.207 213.344C48.207 215.253 47.6541 216.801 46.979 216.801C46.2981 216.801 45.751 215.253 45.751 213.344C45.751 211.435 46.3039 209.887 46.979 209.887C47.6541 209.887 48.207 211.435 48.207 213.344Z" fill="#999999"/>
<path d="M150.476 176.125V174.164C150.476 171.76 152.682 169.967 155.039 170.456L162.5 172.01C164.258 172.377 165.515 173.925 165.515 175.718V176.125C165.515 178.214 163.821 179.914 161.726 179.914H154.265C152.17 179.914 150.476 178.214 150.476 176.125Z" fill="#999999"/>
<path d="M189.732 153.596C189.732 153.596 188.737 153.497 187.002 153.345C194.679 169.065 192.723 176.684 192.723 176.684H198.578C198.631 167.11 189.732 153.596 189.732 153.596Z" fill="#999999"/>
<path d="M125.037 169.641C124.787 172.202 122.639 174.152 120.067 174.152H89.9073C87.7074 174.152 86.91 171.702 88.4989 169.868C91.5602 166.347 94.8543 163.263 97.8458 160.743C103.526 155.959 110.58 153.473 117.174 153.933C117.977 153.991 118.809 154.05 119.671 154.114C121.877 154.282 123.71 155.889 124.17 158.054C125.258 163.129 125.299 166.982 125.037 169.641Z" fill="#F0F0F0"/>
<path opacity="0.2" d="M193.416 222.365C193.253 222.365 193.125 222.237 193.125 222.074C193.125 216.184 196.128 191.897 196.914 188.254C197.676 184.721 197.682 180.781 196.92 178.214C196.873 178.063 196.96 177.9 197.118 177.853C197.269 177.807 197.432 177.894 197.478 178.051C198.264 180.705 198.264 184.762 197.484 188.382C196.699 192.014 193.707 216.207 193.707 222.074C193.707 222.237 193.573 222.365 193.416 222.365Z" fill="black"/>
<path opacity="0.2" d="M192.642 188.545H185.547C184.954 188.545 184.558 188.062 184.663 187.468L184.808 186.642C184.913 186.048 185.483 185.565 186.071 185.565H193.166C193.759 185.565 194.155 186.048 194.05 186.642L193.905 187.468C193.8 188.062 193.236 188.545 192.642 188.545Z" fill="black"/>
<path d="M214.106 100.383H213.524C213.524 98.8935 213.309 97.421 212.89 96.0067L213.449 95.838C213.885 97.3104 214.106 98.8411 214.106 100.383ZM211.598 92.9396C208.88 88.0624 203.741 85.036 198.177 85.036V84.454C203.95 84.454 209.293 87.5968 212.11 92.6602L211.598 92.9396Z" fill="#FFC857"/>
<path d="M198.171 86.491C190.5 86.491 184.279 92.7126 184.279 100.383C184.279 113.764 198.171 122.942 198.171 122.942C198.171 122.942 212.069 113.764 212.069 100.383C212.069 92.7126 205.848 86.491 198.171 86.491ZM198.171 106.925C194.592 106.925 191.688 104.021 191.688 100.442C191.688 96.8565 194.592 93.9581 198.171 93.9581C201.756 93.9581 204.66 96.8565 204.66 100.442C204.66 104.027 201.756 106.925 198.171 106.925Z" fill="#FFC857"/>
<path d="M173.419 241.367L176.934 241.309L177.947 233.161L174.437 233.219L173.419 241.367Z" fill="#B55B52"/>
<path d="M190.198 241.105L193.608 240.063L191.49 232.34L188.079 233.388L190.198 241.105Z" fill="#B55B52"/>
<path d="M193.503 239.039L189.697 241C189.569 241.064 189.505 241.21 189.54 241.35L190.355 244.44C190.442 244.76 190.809 244.917 191.1 244.76C192.31 244.108 193.172 243.573 194.714 242.781C195.663 242.292 198.573 240.913 199.882 240.238C201.162 239.575 200.697 238.178 200.097 238.335C197.42 239.051 195.232 239.26 194.109 238.963C193.905 238.917 193.69 238.94 193.503 239.039Z" fill="#263238"/>
<path d="M177.004 240.901L173.168 240.96C173.023 240.96 172.901 241.064 172.872 241.204L172.225 244.335C172.161 244.661 172.412 244.964 172.743 244.952C174.129 244.906 176.125 244.795 177.865 244.766C179.896 244.737 180.49 244.818 182.87 244.778C184.314 244.754 184.692 243.294 184.087 243.171C181.328 242.613 180.251 242.583 177.853 241.158C177.597 241.012 177.306 240.901 177.004 240.901Z" fill="#263238"/>
<path d="M182.341 134.471C183.138 136.072 184.034 137.765 184.942 139.372C185.856 140.99 186.799 142.59 187.817 144.097C188.079 144.464 188.324 144.854 188.591 145.215L189.243 146.111C189.383 146.286 189.458 146.373 189.476 146.414C189.493 146.455 189.511 146.507 189.68 146.519C190.011 146.542 190.716 146.193 191.344 145.704C191.664 145.459 191.99 145.18 192.31 144.883C192.625 144.592 192.95 144.243 193.224 143.964L195.523 145.256C195.313 145.814 195.092 146.262 194.836 146.751C194.58 147.234 194.289 147.7 193.94 148.16C193.597 148.62 193.201 149.062 192.718 149.487C192.235 149.912 191.641 150.307 190.873 150.587C190.116 150.872 189.127 150.965 188.219 150.732C187.305 150.505 186.548 150.04 185.996 149.545C185.838 149.423 185.728 149.295 185.6 149.167L185.414 148.975L185.28 148.823L184.768 148.235C184.424 147.845 184.11 147.444 183.784 147.048C182.521 145.436 181.392 143.76 180.35 142.043C179.838 141.182 179.332 140.314 178.866 139.43C178.395 138.533 177.947 137.678 177.516 136.7L182.341 134.471Z" fill="#B55B52"/>
<path d="M176.043 134.494C175.095 137.719 181.764 146.501 181.764 146.501L188.487 142.177C188.487 142.177 186.514 137.695 183.831 134.279C181.072 130.764 177.079 130.962 176.043 134.494Z" fill="#407BFF"/>
<path d="M176.043 134.494C175.095 137.719 181.764 146.501 181.764 146.501L188.487 142.177C188.487 142.177 186.514 137.695 183.831 134.279C181.072 130.764 177.079 130.962 176.043 134.494Z" fill="#FFC857"/>
<path opacity="0.2" d="M180.141 138.277C181.526 138.871 183.557 142.2 184.616 144.668L181.764 146.501C181.764 146.501 179.198 143.12 177.475 139.779C178.377 138.79 179.407 137.969 180.141 138.277Z" fill="black"/>
<path d="M192.828 144.604L195.261 140.669L197.38 144.057C197.38 144.057 196.6 145.541 195.04 145.971L192.828 144.604Z" fill="#B55B52"/>
<path d="M198.654 140.71L198.648 141.927C198.648 142.305 198.514 142.671 198.276 142.968L197.385 144.062L195.267 140.675L197.461 139.872C198.037 139.657 198.654 140.093 198.654 140.71Z" fill="#B55B52"/>
<path d="M196.28 145.739L192.45 145.68L194.568 137.748L198.398 137.806L196.28 145.739Z" fill="#FFC857"/>
<path d="M196.669 145.739L192.84 145.68L194.958 137.748L198.788 137.806L196.669 145.739Z" fill="#263238"/>
<path opacity="0.2" d="M177.947 233.167L177.423 237.363L173.913 237.421L174.431 233.219L177.947 233.167Z" fill="black"/>
<path opacity="0.2" d="M188.079 233.388L191.495 232.34L192.584 236.321L189.167 237.369L188.079 233.388Z" fill="black"/>
<path d="M161.185 136.2C164.054 148.55 163.426 160.801 163.74 163.443C166.487 163.245 176.835 162.471 182.474 162.052C184.273 141.979 180.013 131.788 180.013 131.788C180.013 131.788 178.808 131.555 177.172 131.387C176.66 131.334 176.102 131.288 175.525 131.258C175.205 131.241 174.885 131.229 174.553 131.224C172.435 131.189 168.972 131.526 166.586 131.817C166.085 131.881 165.579 131.957 165.084 132.033C164.63 132.108 164.182 132.196 163.757 132.277C163.74 132.283 163.717 132.283 163.699 132.289C161.924 132.644 160.772 134.419 161.185 136.2Z" fill="#407BFF"/>
<path d="M161.185 136.2C164.054 148.55 163.426 160.801 163.74 163.443C166.487 163.245 176.835 162.471 182.474 162.052C184.273 141.979 180.013 131.788 180.013 131.788C180.013 131.788 178.808 131.555 177.172 131.387C176.66 131.334 176.102 131.288 175.525 131.258C175.205 131.241 174.885 131.229 174.553 131.224C172.435 131.189 168.972 131.526 166.586 131.817C166.085 131.881 165.579 131.957 165.084 132.033C164.63 132.108 164.182 132.196 163.757 132.277C163.74 132.283 163.717 132.283 163.699 132.289C161.924 132.644 160.772 134.419 161.185 136.2Z" fill="#FFC857"/>
<path opacity="0.2" d="M164.386 138.795L162.238 141.56C162.244 141.595 162.25 141.624 162.25 141.659C162.547 143.533 162.785 145.372 162.954 147.135C165.009 144.598 164.7 140.006 164.386 138.795Z" fill="black"/>
<path d="M167.529 126.329C167.977 128.215 167.948 130.31 166.598 131.811C168.093 133.092 170.031 134.558 173.087 134.436C176.137 134.314 175.45 132.265 174.565 131.218C171.958 130.799 171.952 129.105 171.934 127.243C171.929 126.853 171.678 126.515 171.312 126.393L168.448 125.473C167.907 125.305 167.401 125.782 167.529 126.329Z" fill="#B55B52"/>
<path d="M175.787 146.472C174.216 146.472 172.767 144.586 172.482 142.177C172.307 140.693 172.627 139.319 173.349 138.51C173.762 138.045 174.274 137.8 174.839 137.8C174.839 137.8 174.839 137.8 174.844 137.8C176.416 137.8 177.865 139.686 178.15 142.095C178.325 143.579 178.005 144.953 177.283 145.762C176.87 146.222 176.352 146.472 175.787 146.472ZM174.844 138.382C174.839 138.382 174.839 138.382 174.844 138.382C174.443 138.382 174.088 138.557 173.785 138.9C173.186 139.575 172.912 140.803 173.064 142.107C173.308 144.156 174.553 145.89 175.787 145.89C175.787 145.89 175.787 145.89 175.793 145.89C176.189 145.89 176.544 145.715 176.847 145.372C177.446 144.697 177.725 143.469 177.568 142.159C177.324 140.111 176.078 138.382 174.844 138.382Z" fill="#C89825"/>
<path opacity="0.2" d="M171.934 127.347L169.054 127.72C169.118 127.848 169.199 127.97 169.275 128.092C169.822 128.965 171.032 129.542 172.266 129.751C171.958 129.076 171.946 128.232 171.934 127.347Z" fill="black"/>
<path d="M175.671 119.863C177.271 120.131 180.269 118.315 179.57 115.894C178.674 117.017 175.671 116.645 175.671 116.645V119.863Z" fill="#263238"/>
<path d="M169.42 122.453C169.595 124.071 167.599 126.946 165.224 126.108C166.4 125.276 166.202 122.261 166.202 122.261L169.42 122.453Z" fill="#263238"/>
<path d="M167.075 119.298C166.644 122.755 166.219 124.763 167.616 126.841C169.723 129.966 174.233 129.192 175.688 125.933C176.998 123 177.481 117.832 174.391 115.847C171.341 113.886 167.5 115.841 167.075 119.298Z" fill="#B55B52"/>
<path d="M166.598 122.779C167.441 123.669 169.764 120.038 169.339 118.74C170.212 119.118 171.888 118.39 171.783 116.941C174.396 118.338 178.179 119.444 178.243 116.918C178.307 114.386 175.915 112.53 173.576 112.326C173.855 113.077 173.116 113.397 171.597 113.077C170.078 112.751 164.217 110.068 164.869 115.446C162.692 115.591 162.407 118.361 166.598 122.779Z" fill="#263238"/>
<path d="M164.886 121.458C165.009 122.389 165.55 123.18 166.167 123.64C167.098 124.333 167.68 123.599 167.767 122.499C167.849 121.51 167.762 119.962 166.656 119.7C165.573 119.45 164.747 120.393 164.886 121.458Z" fill="#B55B52"/>
<path d="M170.165 162.966L182.48 162.052C182.48 162.052 184.069 187.328 183.953 198.049C183.831 209.194 178.732 236.536 178.732 236.536L172.784 236.63C172.784 236.63 173.256 210.114 173.256 199.166C173.256 184.418 170.165 162.966 170.165 162.966Z" fill="#263238"/>
<path opacity="0.2" d="M174.926 189.237C175.089 189.965 179.669 210.457 181.147 222.423C181.939 217.447 182.748 211.871 183.289 206.942L174.926 189.237Z" fill="black"/>
<path d="M175.834 162.547C175.834 162.547 185.204 185.513 187.323 195.587C189.639 206.616 193.34 234.511 193.34 234.511L186.985 235.506C186.985 235.506 182.166 214.653 179.477 203.997C176.41 191.862 164.275 172.633 163.746 163.443C175.834 162.547 175.834 162.547 175.834 162.547Z" fill="#263238"/>
<path d="M194.144 235.052L186.24 236.903L185.245 233.859L193.876 232.381L194.144 235.052Z" fill="#FFC857"/>
<path d="M179.483 236.659L172.394 236.769L172.359 234.482L180.28 234.238L179.483 236.659Z" fill="#FFC857"/>
<path d="M171.894 121.103C171.841 121.382 171.946 121.632 172.127 121.667C172.307 121.702 172.499 121.504 172.551 121.225C172.604 120.945 172.499 120.695 172.319 120.66C172.132 120.625 171.946 120.823 171.894 121.103Z" fill="#263238"/>
<path d="M175.339 121.836C175.287 122.115 175.392 122.366 175.572 122.401C175.752 122.435 175.944 122.238 175.997 121.958C176.049 121.679 175.944 121.429 175.764 121.394C175.584 121.359 175.392 121.557 175.339 121.836Z" fill="#263238"/>
<path d="M174.204 121.766C174.204 121.766 174.536 123.489 175.089 124.397C174.513 124.763 173.71 124.397 173.71 124.397L174.204 121.766Z" fill="#A02724"/>
<path d="M173.122 125.252C172.063 125.014 171.632 124.222 171.609 124.187C171.585 124.146 171.603 124.094 171.644 124.077C171.684 124.053 171.737 124.071 171.754 124.112C171.76 124.123 172.266 125.037 173.5 125.147C173.547 125.153 173.582 125.194 173.576 125.241C173.57 125.287 173.529 125.322 173.483 125.316C173.355 125.299 173.232 125.281 173.122 125.252Z" fill="#263238"/>
<path d="M171.55 119.857C171.521 119.851 171.498 119.834 171.481 119.811C171.416 119.741 171.422 119.636 171.492 119.578C172.173 118.961 172.918 119.141 172.947 119.153C173.034 119.176 173.087 119.269 173.064 119.357C173.04 119.444 172.947 119.496 172.86 119.473C172.837 119.467 172.255 119.327 171.707 119.822C171.667 119.863 171.603 119.875 171.55 119.857Z" fill="#263238"/>
<path d="M177.196 120.969C177.143 120.951 177.103 120.911 177.085 120.852C176.893 120.142 176.323 119.95 176.299 119.939C176.212 119.909 176.166 119.816 176.195 119.729C176.224 119.642 176.317 119.595 176.404 119.624C176.433 119.636 177.167 119.875 177.405 120.765C177.429 120.852 177.376 120.945 177.289 120.969C177.26 120.98 177.225 120.98 177.196 120.969Z" fill="#263238"/>
<path d="M194.819 239.051C194.528 239.202 194.19 239.301 193.946 239.359C193.911 239.365 193.882 239.353 193.858 239.33C193.841 239.301 193.835 239.266 193.853 239.237C193.928 239.109 194.615 237.968 195.052 237.968C195.121 237.968 195.214 237.992 195.284 238.114C195.377 238.271 195.395 238.434 195.331 238.585C195.255 238.771 195.057 238.929 194.819 239.051ZM194.103 239.144C194.685 238.975 195.086 238.748 195.18 238.515C195.22 238.416 195.209 238.312 195.139 238.195C195.104 238.137 195.075 238.131 195.046 238.131C194.825 238.137 194.394 238.702 194.103 239.144Z" fill="#FFC857"/>
<path d="M193.963 239.353C193.951 239.359 193.934 239.365 193.917 239.365C193.887 239.359 193.858 239.342 193.847 239.313C193.829 239.272 193.439 238.335 193.649 237.852C193.701 237.724 193.794 237.636 193.917 237.596C194.103 237.526 194.208 237.613 194.254 237.666C194.499 237.98 194.231 238.987 193.998 239.33C193.986 239.336 193.975 239.348 193.963 239.353ZM193.94 237.765C193.882 237.794 193.835 237.846 193.806 237.916C193.672 238.224 193.841 238.801 193.94 239.086C194.138 238.678 194.266 237.957 194.12 237.77C194.109 237.753 194.074 237.712 193.975 237.753C193.963 237.753 193.951 237.759 193.94 237.765Z" fill="#FFC857"/>
<path d="M177.359 241.385C177.33 241.373 177.306 241.35 177.3 241.321C177.295 241.286 177.312 241.251 177.341 241.233C177.498 241.146 178.901 240.413 179.332 240.64C179.413 240.686 179.466 240.762 179.471 240.861C179.489 241.024 179.436 241.163 179.32 241.268C178.942 241.617 177.929 241.495 177.365 241.39C177.365 241.385 177.364 241.385 177.359 241.385ZM179.227 240.773C178.959 240.686 178.203 240.989 177.65 241.262C178.43 241.379 179.006 241.338 179.215 241.14C179.291 241.07 179.32 240.983 179.314 240.872C179.308 240.832 179.297 240.803 179.262 240.785C179.244 240.779 179.239 240.779 179.227 240.773Z" fill="#FFC857"/>
<path d="M177.359 241.385C177.353 241.385 177.341 241.379 177.335 241.373C177.312 241.355 177.295 241.326 177.301 241.297C177.306 241.257 177.382 240.308 177.824 239.935C177.958 239.819 178.115 239.772 178.284 239.784C178.511 239.802 178.581 239.918 178.598 240.011C178.668 240.407 177.842 241.181 177.423 241.379C177.399 241.39 177.382 241.39 177.359 241.385ZM178.354 239.97C178.331 239.965 178.307 239.959 178.267 239.953C178.139 239.941 178.028 239.976 177.929 240.063C177.638 240.308 177.522 240.878 177.481 241.152C177.912 240.884 178.47 240.279 178.43 240.04C178.435 240.029 178.424 239.994 178.354 239.97Z" fill="#FFC857"/>
<path d="M166.807 137.282C165.649 139.348 164.479 141.554 163.431 143.725C162.372 145.902 161.412 148.113 160.719 150.296C160.632 150.569 160.568 150.831 160.492 151.105C160.457 151.227 160.405 151.402 160.388 151.483C160.376 151.553 160.347 151.611 160.341 151.687C160.294 151.978 160.294 152.356 160.376 152.787C160.539 153.648 160.97 154.649 161.511 155.621C162.611 157.571 164.147 159.538 165.713 161.319L164.025 163.35C161.796 161.837 159.829 160.12 158.1 157.903C157.256 156.779 156.459 155.545 155.964 153.968C155.72 153.182 155.551 152.298 155.598 151.332C155.604 151.093 155.644 150.843 155.673 150.604C155.708 150.377 155.743 150.243 155.772 150.057C155.842 149.714 155.906 149.365 155.982 149.027C156.628 146.35 157.565 143.882 158.624 141.496C159.695 139.098 160.865 136.84 162.232 134.558L166.807 137.282Z" fill="#B55B52"/>
<path d="M163.152 132.516C159.91 133.4 156.733 142.509 156.733 142.509L164.531 144.674C164.531 144.674 166.248 142.497 167.779 138.435C169.438 134.011 167.075 131.445 163.152 132.516Z" fill="#407BFF"/>
<path d="M163.152 132.516C159.91 133.4 156.733 142.509 156.733 142.509L164.531 144.674C164.531 144.674 166.248 142.497 167.779 138.435C169.438 134.011 167.075 131.445 163.152 132.516Z" fill="#FFC857"/>
<path d="M164.217 160.714L167.779 161.651L166.365 164.997C166.365 164.997 163.17 164.322 163.187 162.576L164.217 160.714Z" fill="#B55B52"/>
<path d="M169.147 163.92L168.093 166.568L166.365 164.997L167.779 161.651L169.147 163.92Z" fill="#B55B52"/>
</svg>
