<svg xmlns="http://www.w3.org/2000/svg" width="118" height="118" viewBox="0 0 118 118">
  <g id="Grupo_327" data-name="Grupo 327" transform="translate(-529 -1300)">
    <circle id="Elipse_9" data-name="Elipse 9" cx="59" cy="59" r="59" transform="translate(529 1300)" fill="#f0f0f0"/>
    <g id="car-insurance" transform="translate(554 1325)">
      <path id="Trazado_175" data-name="Trazado 175" d="M32,128H57.344v19.834H32Zm0,0" transform="translate(-27.592 -110.369)" fill="#ffc857"/>
      <path id="Trazado_176" data-name="Trazado 176" d="M265.917,138.21l-.492-.247A16.953,16.953,0,0,1,256,122.715v-4.9l3.873,1.293a4.68,4.68,0,0,0,4.74-1.121l1.3-1.3,1.3,1.3a4.673,4.673,0,0,0,4.741,1.12l3.872-1.293v4.9a16.956,16.956,0,0,1-9.425,15.249Zm0,0" transform="translate(-220.739 -100.615)" fill="#ffc857"/>
      <path id="Trazado_177" data-name="Trazado 177" d="M302.429,123.006l-4.085-4.085,1.558-1.558,2.527,2.527,13.546-13.546,1.558,1.558Zm0,0" transform="translate(-257.25 -91.696)"/>
      <path id="Trazado_178" data-name="Trazado 178" d="M272,400h12.121v2.2H272Zm0,0" transform="translate(-234.535 -344.904)"/>
      <path id="Trazado_179" data-name="Trazado 179" d="M44.077,66.115H2.2V15.427H15.427V2.2h28.65V17.174l1.1-1.1,1.1,1.1V0H13.869L0,13.869v54.45H46.28V56.06h-2.2ZM3.762,13.223l9.461-9.461v9.461Zm0,0"/>
      <path id="Trazado_180" data-name="Trazado 180" d="M182.747,272.557l-4.888-.7a1.111,1.111,0,0,1-.74-.449l-3.643-5.1A5.515,5.515,0,0,0,168.992,264h-14.1a5.5,5.5,0,0,0-4.584,2.454l-2.659,3.988a1.1,1.1,0,0,1-.6.444l-8.688,2.606A3.286,3.286,0,0,0,136,276.659v4.972a3.31,3.31,0,0,0,3.306,3.306h6.611v-2.2h-6.611a1.1,1.1,0,0,1-1.1-1.1v-4.972a1.1,1.1,0,0,1,.784-1.056L147.677,273a3.31,3.31,0,0,0,1.8-1.333l2.659-3.988a3.3,3.3,0,0,1,2.752-1.472h14.105a3.314,3.314,0,0,1,2.69,1.384l3.644,5.1a3.326,3.326,0,0,0,2.223,1.35l4.888.7a1.1,1.1,0,0,1,.944,1.088v5.8a1.1,1.1,0,0,1-1.1,1.1h-6.611v2.2h6.611a3.31,3.31,0,0,0,3.306-3.306v-5.8A3.321,3.321,0,0,0,182.747,272.557Zm0,0" transform="translate(-117.267 -227.637)"/>
      <path id="Trazado_181" data-name="Trazado 181" d="M246.36,296l-3.306,6.611h22.3L262.048,296Zm.26,4.408,1.1-2.2h12.963l1.1,2.2Zm0,0" transform="translate(-209.576 -255.229)"/>
      <path id="Trazado_182" data-name="Trazado 182" d="M208,64h2.2v2.2H208Zm0,0" transform="translate(-179.35 -55.185)"/>
      <path id="Trazado_183" data-name="Trazado 183" d="M240,64h2.2v2.2H240Zm0,0" transform="translate(-206.943 -55.185)"/>
      <path id="Trazado_184" data-name="Trazado 184" d="M176,64h2.2v2.2H176Zm0,0" transform="translate(-151.758 -55.185)"/>
      <path id="Trazado_185" data-name="Trazado 185" d="M32,128H57.344v2.2H32Zm0,0" transform="translate(-27.592 -110.369)"/>
      <path id="Trazado_186" data-name="Trazado 186" d="M32,192H57.344v2.2H32Zm0,0" transform="translate(-27.592 -165.554)"/>
      <path id="Trazado_187" data-name="Trazado 187" d="M205.51,379.019a5.51,5.51,0,1,1,5.51-5.51A5.516,5.516,0,0,1,205.51,379.019Zm0,0" transform="translate(-172.452 -317.312)" fill="#ffc857"/>
      <path id="Trazado_188" data-name="Trazado 188" d="M232,400h2.2v2.2H232Zm0,0" transform="translate(-200.044 -344.904)"/>
      <path id="Trazado_189" data-name="Trazado 189" d="M357.51,379.019a5.51,5.51,0,1,1,5.51-5.51A5.516,5.516,0,0,1,357.51,379.019Zm0,0" transform="translate(-303.516 -317.312)" fill="#ffc857"/>
      <path id="Trazado_190" data-name="Trazado 190" d="M384,400h2.2v2.2H384Zm0,0" transform="translate(-331.108 -344.904)"/>
      <path id="Trazado_191" data-name="Trazado 191" d="M144,160h9.917v2.2H144Zm0,0" transform="translate(-124.166 -137.962)"/>
      <path id="Trazado_192" data-name="Trazado 192" d="M32,160H45.223v2.2H32Zm0,0" transform="translate(-27.592 -137.962)"/>
      <path id="Trazado_193" data-name="Trazado 193" d="M32,224H57.344v2.2H32Zm0,0" transform="translate(-27.592 -193.146)"/>
      <path id="Trazado_194" data-name="Trazado 194" d="M32,256H57.344v2.2H32Zm0,0" transform="translate(-27.592 -220.739)"/>
      <path id="Trazado_195" data-name="Trazado 195" d="M51.834,422.611h-2.2c-1.684,0-2.408-1.655-2.937-2.865-.2-.462-.674-1.543-.917-1.543s-.715,1.081-.917,1.543c-.529,1.209-1.253,2.865-2.938,2.865s-2.41-1.655-2.939-2.864c-.2-.463-.675-1.544-.92-1.544s-.718,1.081-.92,1.544c-.53,1.209-1.255,2.864-2.94,2.864H32v-2.2h2.2c.245,0,.718-1.081.92-1.544.53-1.209,1.255-2.864,2.94-2.864s2.41,1.655,2.939,2.864c.2.463.677,1.544.921,1.544s.715-1.081.918-1.543c.528-1.21,1.252-2.865,2.937-2.865s2.409,1.656,2.937,2.865c.2.462.673,1.543.916,1.543h2.2Zm0,0" transform="translate(-27.592 -358.7)"/>
      <path id="Trazado_196" data-name="Trazado 196" d="M192,448h2.2v2.2H192Zm0,0" transform="translate(-165.554 -386.293)"/>
      <path id="Trazado_197" data-name="Trazado 197" d="M152.242,43.019H128V32h24.242Zm-22.038-2.2h19.834V34.2H130.2Zm0,0" transform="translate(-110.369 -27.592)"/>
    </g>
  </g>
</svg>
