<svg width="60" height="86" viewBox="0 0 60 86" fill="none" xmlns="http://www.w3.org/2000/svg">
  <path d="M29.5961 85.5C28.5537 85.5 27.5737 85.0067 26.9555 84.1714C25.8539 82.6884 0 47.6071 0 29.5961C0 13.2788 13.2788 0 29.5961 0C45.9168 0 59.1923 13.2788 59.1923 29.5961C59.1923 47.6071 33.3384 82.6884 32.2368 84.1714C31.6185 85.0067 30.6386 85.5 29.5961 85.5ZM29.5961 6.57692C16.9027 6.57692 6.57692 16.9027 6.57692 29.5961C6.57692 41.3524 21.352 64.8386 29.5961 76.5817C37.8403 64.8353 52.6154 41.3425 52.6154 29.5961C52.6154 16.9027 42.2863 6.57692 29.5961 6.57692Z" fill="white"/>
  <path d="M29.5961 42.7499C22.3417 42.7499 16.4422 36.8505 16.4422 29.5961C16.4422 22.3418 22.3417 16.4423 29.5961 16.4423C36.8504 16.4423 42.7499 22.3418 42.7499 29.5961C42.7499 36.8505 36.8504 42.7499 29.5961 42.7499ZM29.5961 23.0192C25.9689 23.0192 23.0192 25.9689 23.0192 29.5961C23.0192 33.2233 25.9689 36.173 29.5961 36.173C33.2232 36.173 36.173 33.2233 36.173 29.5961C36.173 25.9689 33.2232 23.0192 29.5961 23.0192Z" fill="white"/>
</svg>
