<svg xmlns="http://www.w3.org/2000/svg" width="92.453" height="92.453" viewBox="0 0 92.453 92.453">
  <g id="Grupo_331" data-name="Grupo 331" transform="translate(-125 -1630.438)">
    <g id="wrench_1_" data-name="wrench (1)" transform="translate(125 1630.438)">
      <path id="Trazado_243" data-name="Trazado 243" d="M221.383,103.88l-4.526-.755a26.692,26.692,0,0,0-1.685-4.087l2.662-3.726a1.492,1.492,0,0,0-.158-1.921l-8.436-8.436a1.487,1.487,0,0,0-1.921-.158l-3.726,2.662a26.7,26.7,0,0,0-4.087-1.685l-.755-4.526A1.493,1.493,0,0,0,197.28,80H185.35a1.491,1.491,0,0,0-1.47,1.247l-.755,4.526a26.7,26.7,0,0,0-4.087,1.685L175.311,84.8a1.49,1.49,0,0,0-1.921.158l-8.436,8.436a1.488,1.488,0,0,0-.158,1.921l2.662,3.726a26.693,26.693,0,0,0-1.685,4.087l-4.526.755A1.493,1.493,0,0,0,160,105.35V117.28a1.491,1.491,0,0,0,1.247,1.47l4.526.755a26.693,26.693,0,0,0,1.685,4.087l-2.662,3.726a1.492,1.492,0,0,0,.158,1.921l8.436,8.436a1.492,1.492,0,0,0,1.921.158l3.726-2.662a26.785,26.785,0,0,0,4.087,1.685l.755,4.526a1.493,1.493,0,0,0,1.472,1.248H197.28a1.491,1.491,0,0,0,1.47-1.247l.755-4.526a26.784,26.784,0,0,0,4.087-1.685l3.726,2.662a1.5,1.5,0,0,0,1.921-.158l8.436-8.436a1.488,1.488,0,0,0,.158-1.921l-2.662-3.726a26.693,26.693,0,0,0,1.685-4.087l4.526-.755a1.493,1.493,0,0,0,1.248-1.472V105.35A1.491,1.491,0,0,0,221.383,103.88Zm-30.068,22.347a14.912,14.912,0,1,1,14.912-14.912A14.912,14.912,0,0,1,191.315,126.227Z" transform="translate(-130.176 -65.088)" fill="#ffc857"/>
      <path id="Trazado_244" data-name="Trazado 244" d="M20.877,14.294,18.768,16.4H11.056L8.947,14.294V0L0,6.71V21.494l4.474,4.474V66.486L0,70.959V85.743l8.947,6.71V79.65l2.109-2.109h7.712l2.109,2.109v12.8l8.947-6.71V70.959L25.35,66.486V25.967l4.474-4.474V6.71L20.877,0Zm2.982-8.33L26.841,8.2V20.259l-4.474,4.474V67.721l4.474,4.474V84.252l-2.982,2.237V78.415L20,74.559H9.821L5.965,78.415v8.073L2.982,84.252V72.194l4.474-4.474V24.733L2.982,20.259V8.2L5.965,5.965v9.564l3.856,3.856H20l3.856-3.856Z" fill="#fff"/>
      <path id="Trazado_245" data-name="Trazado 245" d="M308.474,197.965a1.493,1.493,0,0,1,1.491,1.491h2.982a4.467,4.467,0,0,0-2.982-4.2V192h-2.982v3.257a4.463,4.463,0,0,0,1.491,8.673,1.491,1.491,0,1,1-1.491,1.491H304a4.467,4.467,0,0,0,2.982,4.2v3.257h2.982V209.62a4.463,4.463,0,0,0-1.491-8.673,1.491,1.491,0,1,1,0-2.982Z" transform="translate(-247.335 -156.212)" fill="#fff"/>
      <path id="Trazado_246" data-name="Trazado 246" d="M60.474,144A4.479,4.479,0,0,0,56,148.474v31.315a4.474,4.474,0,1,0,8.947,0V148.474A4.479,4.479,0,0,0,60.474,144Zm0,2.982a1.493,1.493,0,0,1,1.491,1.491v2.982H58.982v-2.982A1.493,1.493,0,0,1,60.474,146.982ZM58.982,169.35v-2.982h2.982v2.982Zm2.982,2.982v2.982H58.982v-2.982Zm-2.982-8.947V160.4h2.982v2.982Zm0-5.965v-2.982h2.982v2.982Zm1.491,23.859a1.493,1.493,0,0,1-1.491-1.491V178.3h2.982v1.491A1.493,1.493,0,0,1,60.474,181.28Z" transform="translate(-45.562 -117.159)" fill="#fff"/>
      <rect id="Rectángulo_78" data-name="Rectángulo 78" width="2.76" height="2.76" transform="translate(68.765 44.847)" fill="#fff"/>
      <rect id="Rectángulo_79" data-name="Rectángulo 79" width="2.76" height="2.76" transform="translate(50.826 44.847)" fill="#fff"/>
      <path id="Trazado_247" data-name="Trazado 247" d="M272.806,176.4a16.4,16.4,0,1,0-6.56,13.122l-1.791-2.386a13.3,13.3,0,0,1-8.052,2.684,13.421,13.421,0,1,1,9.773-4.223l2.171,2.044A16.337,16.337,0,0,0,272.806,176.4Z" transform="translate(-195.265 -130.176)" fill="#fff"/>
      <rect id="Rectángulo_80" data-name="Rectángulo 80" width="3.22" height="2.76" transform="translate(59.566 20.928)" fill="#0f374b"/>
      <rect id="Rectángulo_81" data-name="Rectángulo 81" width="2.982" height="2.982" transform="translate(46.376 29.356) rotate(135)" fill="#0f374b"/>
      <rect id="Rectángulo_82" data-name="Rectángulo 82" width="3.22" height="2.76" transform="translate(35.647 44.847)" fill="#0f374b"/>
      <rect id="Rectángulo_83" data-name="Rectángulo 83" width="2.982" height="2.982" transform="matrix(-0.707, 0.707, -0.707, -0.707, 46.372, 63.096)" fill="#0f374b"/>
      <rect id="Rectángulo_84" data-name="Rectángulo 84" width="3.22" height="2.76" transform="translate(59.566 68.765)" fill="#0f374b"/>
      <rect id="Rectángulo_85" data-name="Rectángulo 85" width="2.982" height="2.982" transform="translate(80.113 63.09) rotate(135)" fill="#0f374b"/>
      <rect id="Rectángulo_86" data-name="Rectángulo 86" width="3.22" height="2.76" transform="translate(83.484 44.847)" fill="#0f374b"/>
      <rect id="Rectángulo_87" data-name="Rectángulo 87" width="2.982" height="2.982" transform="matrix(-0.707, 0.707, -0.707, -0.707, 80.115, 29.363)" fill="#0f374b"/>
    </g>
  </g>
</svg>
