<svg width="71" height="75" viewBox="0 0 71 75" fill="none" xmlns="http://www.w3.org/2000/svg">
  <path d="M69.6856 67.3077L56.1015 53.6923C61.1667 48 64.3133 40.4615 64.3133 32.2308C64.3133 14.4615 49.885 0 32.1567 0C14.4283 0 0 14.4615 0 32.2308C0 50 14.4283 64.4615 32.1567 64.4615C38.4499 64.4615 44.2826 62.6154 49.1943 59.5385L63.3156 73.6923C64.1598 74.5385 65.311 75 66.4622 75C67.6134 75 68.7646 74.5385 69.6088 73.6923C71.4507 71.9231 71.4507 69.0769 69.6856 67.3077ZM8.97931 32.2308C8.97931 19.4615 19.34 9 32.1567 9C44.9733 9 55.2573 19.4615 55.2573 32.2308C55.2573 45 44.8965 55.4615 32.1567 55.4615C19.4168 55.4615 8.97931 45.0769 8.97931 32.2308Z" fill="white"/>
</svg>
