<svg xmlns="http://www.w3.org/2000/svg" width="228.25" height="25.055" viewBox="0 0 228.25 25.055">
  <g id="Grupo_10" data-name="Grupo 10" transform="translate(-143.337 -694.543)">
    <path id="Trazado_1" data-name="Trazado 1" d="M385.544,714.589q0,3.149,0,6.3c0,.319-.025.638-.046.956a.389.389,0,0,1-.279.288,5.323,5.323,0,0,1-1.486.006.364.364,0,0,1-.289-.273c-.019-.319-.042-.638-.043-.956q0-4.857,0-9.714c0-.925,0-1.85,0-2.775a4.072,4.072,0,0,1,.043-.637.964.964,0,0,1,.879-.8,2.838,2.838,0,0,1,.532.006c.587.063.677.342.685.77.005.284.005.569.005.854Q385.544,711.6,385.544,714.589Z" transform="translate(-141.37 -7.32)" fill="#fff"/>
    <path id="Trazado_2" data-name="Trazado 2" d="M485.951,705.328q0-3.261,0-6.522a9.1,9.1,0,0,1,.037-.96.929.929,0,0,1,.862-.81,3.4,3.4,0,0,1,.533,0c.5.039.677.232.687.761.013.748,0,1.5.012,2.245,0,.248.025.5.046.744a.342.342,0,0,0,.28.28c.249.015.5.03.747.031,1.247,0,2.495,0,3.742,0a8.227,8.227,0,0,1,.853.036.936.936,0,0,1,.792.762,1.438,1.438,0,0,1-.041.738.543.543,0,0,1-.46.387q-.427.022-.855.023-1.924,0-3.849,0c-.214,0-.428,0-.641.007-.5.017-.591.12-.611.656-.005.142,0,.285-.006.428,0,.178,0,.356,0,.534,0,2.21,0,4.419,0,6.629,0,.427.014.856.055,1.281a2.327,2.327,0,0,0,2,2.2,4.781,4.781,0,0,0,2.839-.194c.3-.116.587-.256.883-.38a.414.414,0,0,1,.554.173c.183.263.356.533.528.8a.315.315,0,0,1-.084.381,1.885,1.885,0,0,1-.167.132,6.994,6.994,0,0,1-2.492.914,8.143,8.143,0,0,1-2.658.022,4.057,4.057,0,0,1-3.567-3.929c-.029-.354-.02-.712-.02-1.068Q485.949,708.481,485.951,705.328Z" transform="translate(-201.764 -1.463)" fill="#fff"/>
    <path id="Trazado_3" data-name="Trazado 3" d="M456.09,712.026v3.852a7.668,7.668,0,0,1-.373,2.42A5.724,5.724,0,0,1,453,721.6a7.561,7.561,0,0,1-2.516.857,9.872,9.872,0,0,1-3.193,0,7.277,7.277,0,0,1-2.6-.928,5.825,5.825,0,0,1-2.745-3.789,7.213,7.213,0,0,1-.2-1.695c0-2.532,0-5.064,0-7.6a4.54,4.54,0,0,1,.037-.639.984.984,0,0,1,.855-.833,2.054,2.054,0,0,1,.846.066.557.557,0,0,1,.384.466q.022.48.023.962,0,3.263,0,6.526c0,.392.016.784.02,1.176a5.035,5.035,0,0,0,.264,1.469,3.987,3.987,0,0,0,3.008,2.892,7.417,7.417,0,0,0,3.391.009,4.052,4.052,0,0,0,3.117-3.053,6.954,6.954,0,0,0,.256-2.009c-.009-1.926,0-3.851,0-5.777,0-.463,0-.927,0-1.391a3.484,3.484,0,0,1,.042-.532.973.973,0,0,1,.879-.805,3.087,3.087,0,0,1,.533,0c.477.044.682.264.685.769.007,1.427,0,2.853,0,4.279Z" transform="translate(-175.727 -7.311)" fill="#fff"/>
    <path id="Trazado_4" data-name="Trazado 4" d="M397.952,716.383c0-1.355,0-2.71,0-4.065a6.726,6.726,0,0,1,.4-2.305,5.8,5.8,0,0,1,2.709-3.187,7.1,7.1,0,0,1,2.416-.825,9.423,9.423,0,0,1,4.643.358,6.2,6.2,0,0,1,2.428,1.517,5.868,5.868,0,0,1,1.586,3.094,9.181,9.181,0,0,1,.151,1.595c.015,2.675.007,5.349.007,8.024,0,.107,0,.214-.006.321-.02.44-.161.592-.566.612-.071,0-.143.006-.214.006-1.424,0-1.352.083-1.351-1.32,0-2.354,0-4.708,0-7.061a7.381,7.381,0,0,0-.2-1.908,6.517,6.517,0,0,0-.339-1.011,3.973,3.973,0,0,0-2.878-2.332,7.117,7.117,0,0,0-3.287,0,3.94,3.94,0,0,0-2.816,2.255,4.9,4.9,0,0,0-.481,1.743c-.036.533-.06,1.068-.062,1.6-.007,2.247,0,4.493-.006,6.74,0,.319-.028.639-.05.958a.383.383,0,0,1-.281.287,5.287,5.287,0,0,1-1.489,0,.361.361,0,0,1-.277-.287c-.017-.248-.035-.5-.036-.746q0-2.033,0-4.065Z" transform="translate(-149.939 -6.668)" fill="#fff"/>
    <path id="Trazado_5" data-name="Trazado 5" d="M593.492,716.168a6.688,6.688,0,0,1,.217-5.1,5.537,5.537,0,0,1,4.838-3.352,5.917,5.917,0,0,1,2.925.461,5.474,5.474,0,0,1,3.023,3.149,6.966,6.966,0,0,1,.022,5.109,5.64,5.64,0,0,1-5.178,3.648h-.2A5.659,5.659,0,0,1,593.492,716.168Zm3.01-9.925a7.929,7.929,0,0,0-5.415,9.69,7.678,7.678,0,0,0,5.552,5.686,8.327,8.327,0,0,0,3.807.225,7.983,7.983,0,0,0,6.675-9.433,7.661,7.661,0,0,0-4.266-5.67,9.234,9.234,0,0,0-6.353-.5Z" transform="translate(-263.521 -6.685)" fill="#fff"/>
    <path id="Trazado_6" data-name="Trazado 6" d="M663.037,716.136c0,1.392,0,2.783,0,4.174,0,.284-.019.569-.036.853a.369.369,0,0,1-.271.294,5.241,5.241,0,0,1-1.49.013.408.408,0,0,1-.332-.366c-.012-.321-.02-.642-.02-.962q0-3.746,0-7.492a8.294,8.294,0,0,0-.185-1.911,3.686,3.686,0,0,0-2.869-2.856,5.619,5.619,0,0,0-2.648-.061,4.024,4.024,0,0,0-3.232,3.057,6.266,6.266,0,0,0-.24,1.8c.007,1.177,0,2.355,0,3.532,0,1.5,0,3,0,4.5,0,.724-.08.792-.8.807h-.107c-1.246.008-1.246.023-1.244-1.23q.006-3.532,0-7.064c0-.463-.009-.928-.046-1.39a5.055,5.055,0,0,0-.618-2.032,3.788,3.788,0,0,0-2.568-1.931,5.971,5.971,0,0,0-2.651-.033,3.792,3.792,0,0,0-3.065,2.93,7.015,7.015,0,0,0-.232,1.906c.011,1.534,0,3.068,0,4.6,0,1.106,0,2.212,0,3.318a3.212,3.212,0,0,1-.056.635.332.332,0,0,1-.2.222,3.962,3.962,0,0,1-1.589,0,.409.409,0,0,1-.215-.211.766.766,0,0,1-.061-.312c-.011-.249-.012-.5-.012-.749,0-2.6-.006-5.209,0-7.813a13.458,13.458,0,0,1,.106-1.707,5.084,5.084,0,0,1,2.655-3.919,6.625,6.625,0,0,1,2.534-.8,8.832,8.832,0,0,1,3.19.15,6,6,0,0,1,3.6,2.333c.083.115.171.227.26.339a.179.179,0,0,0,.272.009c.135-.166.267-.333.4-.5a6.009,6.009,0,0,1,3.158-2.1,8.081,8.081,0,0,1,5.152.2,5.039,5.039,0,0,1,3.186,3.375,6.654,6.654,0,0,1,.275,2.007c-.009,1.463,0,2.925,0,4.388Z" transform="translate(-291.45 -6.65)" fill="#fff"/>
    <path id="Trazado_7" data-name="Trazado 7" d="M326.319,708.851c.229-.05.317-.214.421-.354a6.512,6.512,0,0,1,5.369-2.62,7.99,7.99,0,0,1,3.045.476,5.109,5.109,0,0,1,3.2,3.231,5.562,5.562,0,0,1,.312,1.676q.01.428.01.856,0,4.119,0,8.239c0,.284-.023.568-.042.852a.368.368,0,0,1-.289.275,5.268,5.268,0,0,1-1.489-.005.388.388,0,0,1-.281-.287c-.019-.319-.044-.639-.044-.959,0-2.425,0-4.85,0-7.276,0-.463-.022-.927-.04-1.39a4.509,4.509,0,0,0-.3-1.353,3.661,3.661,0,0,0-2.629-2.3,5.517,5.517,0,0,0-3.065,0,4.022,4.022,0,0,0-2.925,3.109,7.469,7.469,0,0,0-.218,1.907c.008,2.247,0,4.494,0,6.741,0,.356,0,.713,0,1.07,0,.142-.013.284-.026.426a.388.388,0,0,1-.363.331c-.427.01-.855.014-1.282.007a.42.42,0,0,1-.432-.39c-.018-.32-.028-.641-.029-.962,0-2.1,0-4.208,0-6.312q0-1.016-.06-2.031a4.768,4.768,0,0,0-.574-1.933,3.74,3.74,0,0,0-2.323-1.924,5.689,5.689,0,0,0-3.374,0,3.775,3.775,0,0,0-2.655,2.951,8.412,8.412,0,0,0-.208,2.017c.011,2.425,0,4.85,0,7.276,0,.32-.011.641-.026.961a.375.375,0,0,1-.358.334c-.462.007-.925,0-1.387,0a.368.368,0,0,1-.287-.279c-.02-.213-.045-.426-.046-.638q0-4.28,0-8.56a10.884,10.884,0,0,1,.06-1.175,5.139,5.139,0,0,1,2.528-4,6.569,6.569,0,0,1,2.617-.881,8.634,8.634,0,0,1,3.5.2,5.93,5.93,0,0,1,3.315,2.215C326.063,708.537,326.2,708.7,326.319,708.851Z" transform="translate(-100.451 -6.666)" fill="#fff"/>
    <path id="Trazado_8" data-name="Trazado 8" d="M234.56,703.276v-5.989a4.813,4.813,0,0,1,.124-1.272,1.7,1.7,0,0,1,.913-1.122,3.306,3.306,0,0,1,1.231-.332,5.5,5.5,0,0,1,2.51.408.382.382,0,0,1,.239.329c.024.247.038.5.04.746.005.713,0,1.426,0,2.139,0,.213.023.426.037.64a.416.416,0,0,0,.281.29c.213.017.425.042.638.044.784.005,1.569,0,2.353.007a7.2,7.2,0,0,1,1.066.07,1.751,1.751,0,0,1,1.566,1.4,3.639,3.639,0,0,1,.106.737,4.656,4.656,0,0,1-.518,2.161.469.469,0,0,1-.427.271c-.285.009-.57.016-.855.017-1.105,0-2.211,0-3.316,0a3.4,3.4,0,0,0-.638.045.366.366,0,0,0-.213.209,1.156,1.156,0,0,0-.073.416q-.008,2.032,0,4.064a4.117,4.117,0,0,0,.058.638,1.708,1.708,0,0,0,1.4,1.424,4.391,4.391,0,0,0,2.317-.171c.236-.078.465-.182.7-.268a.413.413,0,0,1,.556.164q.807,1.386,1.6,2.779a.4.4,0,0,1-.145.556,6.8,6.8,0,0,1-1.5.814,10.8,10.8,0,0,1-3.424.781,7.565,7.565,0,0,1-2.954-.368,4.991,4.991,0,0,1-3.559-4.146,9.493,9.493,0,0,1-.118-1.6Q234.563,706.217,234.56,703.276Z" transform="translate(-53.72)" fill="#fff"/>
    <path id="Trazado_9" data-name="Trazado 9" d="M173.852,750.671c.355-.014.71-.035,1.065-.039,1.534-.022,3.068-.051,4.6-.055q6.9-.017,13.809-.017,48.492,0,96.983,0l32.756,0q.535,0,1.07.009a.674.674,0,0,1,.565.249,7.837,7.837,0,0,0,1.549,1.465.166.166,0,0,1-.106.291c-.249.014-.5.016-.749.014q-1.873-.017-3.746-.039-7.439-.089-14.878-.178l-21.3-.247-16.055-.19-20.23-.236-16.591-.2-19.8-.233-16.484-.194q-9.9-.118-19.8-.238c-.89-.011-1.78-.032-2.67-.049Z" transform="translate(-17.963 -32.986)" fill="#fff"/>
    <path id="Trazado_10" data-name="Trazado 10" d="M204.249,711.227c0,1.249,0,2.5,0,3.746a8.118,8.118,0,0,1-.171,1.7,5.957,5.957,0,0,1-2.8,4,7.945,7.945,0,0,1-2.69,1.008,11.176,11.176,0,0,1-5.089-.165,7.445,7.445,0,0,1-1.781-.717,6.037,6.037,0,0,1-3.138-4.932c-.031-.319-.029-.642-.029-.962q0-3.264,0-6.528a7.9,7.9,0,0,1,.031-.855,1.7,1.7,0,0,1,1.08-1.474,2.6,2.6,0,0,1,.608-.195,5.643,5.643,0,0,1,2.947.282.5.5,0,0,1,.337.494c0,.321.011.642.011.963q0,3.157,0,6.314a5.214,5.214,0,0,0,.186,1.586,2.261,2.261,0,0,0,2.089,1.71,6.426,6.426,0,0,0,1.174-.009,2.255,2.255,0,0,0,2.035-1.773,6.351,6.351,0,0,0,.182-1.59c-.009-1.676,0-3.353,0-5.03,0-.321,0-.643.011-.963a3.2,3.2,0,0,1,.055-.532,1.622,1.622,0,0,1,.763-1.112,2.394,2.394,0,0,1,.892-.345,5.74,5.74,0,0,1,2.948.287.5.5,0,0,1,.341.492c0,.285.012.571.012.856q0,1.873,0,3.746Z" transform="translate(-26.625 -6.613)" fill="#fff"/>
    <path id="Trazado_11" data-name="Trazado 11" d="M276.655,714.411a3.483,3.483,0,0,1-6.556.081,4.36,4.36,0,0,1,0-3.036,3.5,3.5,0,0,1,6.763,1.163.96.96,0,0,1,0,.171A4.339,4.339,0,0,1,276.655,714.411Zm-6.47-9.148a8.154,8.154,0,0,0-2.358,14.138,9.17,9.17,0,0,0,10.514.387,7.912,7.912,0,0,0,3.57-5.353,8.084,8.084,0,0,0-3.536-8.243,9.259,9.259,0,0,0-8.19-.93Z" transform="translate(-71.455 -5.991)" fill="#fff"/>
    <path id="Trazado_12" data-name="Trazado 12" d="M153.223,714.3a.391.391,0,0,1,.379.43q.008,1.229,0,2.458a.408.408,0,0,1-.406.411,17.815,17.815,0,0,1-2.882.024,3.339,3.339,0,0,1-1.222-.36,1.285,1.285,0,0,1-.719-1,1.573,1.573,0,0,1,.941-1.738,3,3,0,0,1,1.03-.261l1.43-.053C152.229,714.234,152.726,714.258,153.223,714.3Zm5.418,1.163c0-1.248.006-2.5,0-3.743a12.664,12.664,0,0,0-.065-1.495,5.564,5.564,0,0,0-2.884-4.375,7.142,7.142,0,0,0-1.475-.62,10.944,10.944,0,0,0-2.095-.409,21.648,21.648,0,0,0-3.845-.02,7.359,7.359,0,0,0-1.974.451,2.873,2.873,0,0,0-1,.6,2.059,2.059,0,0,0-.573,2.246,3.175,3.175,0,0,0,.549,1.034c.3.376.452.521.99.247a4.875,4.875,0,0,1,1.006-.352,10.347,10.347,0,0,1,3.608-.26,4.373,4.373,0,0,1,1.548.387,1.93,1.93,0,0,1,1.107,1.356c.028.129-.086.31-.213.311-.285,0-.57,0-.855-.01a23.443,23.443,0,0,0-4.374.185,8.474,8.474,0,0,0-2.443.744,3.855,3.855,0,0,0-2.019,2.378,6,6,0,0,0-.04,3.581,3.821,3.821,0,0,0,.983,1.631,5.02,5.02,0,0,0,1.3.922,8.52,8.52,0,0,0,1.911.671,17.335,17.335,0,0,0,3.4.359c1.178.032,2.351-.086,3.526-.123,1.071-.035,2.129-.2,3.194-.284a2.232,2.232,0,0,0,.314-.06.474.474,0,0,0,.4-.435c.013-.284.021-.57.021-.855q0-2.032,0-4.064Z" transform="translate(0 -5.994)" fill="#fff"/>
    <path id="Trazado_13" data-name="Trazado 13" d="M521.617,718.608a.181.181,0,0,1,.287.209,5.486,5.486,0,0,0-.5,1.946.571.571,0,0,1-.342.481l-.151.064a8.835,8.835,0,0,1-6.558,0,8.091,8.091,0,0,1-3.545-12,7.794,7.794,0,0,1,5.807-3.4,8.089,8.089,0,0,1,2.032,0,7.794,7.794,0,0,1,5.807,3.4,7.881,7.881,0,0,1,1.4,4.633,8.29,8.29,0,0,1-.134,1.434.572.572,0,0,1-.392.443,5.607,5.607,0,0,0-2.144,1.243.182.182,0,0,1-.287-.212q.054-.112.105-.228a6.666,6.666,0,0,0-.032-5.6,5.388,5.388,0,0,0-3.293-3.016,6.136,6.136,0,0,0-4.083,0,5.387,5.387,0,0,0-3.294,3.016,6.666,6.666,0,0,0-.032,5.6,5.43,5.43,0,0,0,3.95,3.294,6.021,6.021,0,0,0,2.833,0A5.4,5.4,0,0,0,521.617,718.608Z" transform="translate(-215.579 -6.661)" fill="#fff"/>
    <path id="Trazado_14" data-name="Trazado 14" d="M564.78,736.74a5.942,5.942,0,0,0,3.507,1.519c.247.03.5.03.746.042a6.894,6.894,0,0,0,3.622-.709,1.76,1.76,0,0,1,.4-.149.3.3,0,0,1,.2.051.431.431,0,0,1,.147.151c.756,1.332.893,1.227-.59,1.845a9.972,9.972,0,0,1-4.819.638,9.086,9.086,0,0,1-2.617-.606.571.571,0,0,1-.356-.5,5.608,5.608,0,0,0-.524-2.075A.181.181,0,0,1,564.78,736.74Z" transform="translate(-248.006 -24.82)" fill="#fff"/>
    <path id="Trazado_15" data-name="Trazado 15" d="M557.923,717.129a5.606,5.606,0,0,0-2.079-1.269.577.577,0,0,1-.364-.387,5.458,5.458,0,0,1-.144-1.654,9.331,9.331,0,0,1,.543-3.038,7.075,7.075,0,0,1,5.3-4.659,11.317,11.317,0,0,1,4.778-.048,6.8,6.8,0,0,1,1.8.654,2.4,2.4,0,0,1,.518.371,1.091,1.091,0,0,1,.262,1.272,2.926,2.926,0,0,1-.354.528.356.356,0,0,1-.389.094q-.234-.128-.462-.266a7.213,7.213,0,0,0-5.041-.926,6.653,6.653,0,0,0-1.244.3,4.762,4.762,0,0,0-2.731,2.421,6.015,6.015,0,0,0-.623,2.144,13.845,13.845,0,0,0-.037,1.924,6.429,6.429,0,0,0,.553,2.333A.181.181,0,0,1,557.923,717.129Z" transform="translate(-242.622 -6.655)" fill="#fff"/>
    <path id="Trazado_16" data-name="Trazado 16" d="M545.12,731.142a4.926,4.926,0,1,0,4.926,4.926A4.926,4.926,0,0,0,545.12,731.142Zm1.9,2.612a2.992,2.992,0,0,1,1.053,1.823h-1.651a1.4,1.4,0,0,0-.227-.393Zm-.85-.492-.826,1.431a1.4,1.4,0,0,0-.453,0l-.826-1.431a3.006,3.006,0,0,1,2.106,0Zm-2.956.492.826,1.43a1.4,1.4,0,0,0-.227.393h-1.651A2.994,2.994,0,0,1,543.217,733.754Zm-1.053,2.8h1.651a1.392,1.392,0,0,0,.227.393l-.826,1.43A2.992,2.992,0,0,1,542.164,736.559Zm1.9,2.315.826-1.431a1.4,1.4,0,0,0,.453,0l.826,1.431a3.007,3.007,0,0,1-2.106,0Zm2.955-.492-.826-1.43a1.389,1.389,0,0,0,.227-.393h1.651A2.99,2.99,0,0,1,547.023,738.382Z" transform="translate(-233.708 -21.553)" fill="#fff" fill-rule="evenodd"/>
  </g>
</svg>
