<svg xmlns="http://www.w3.org/2000/svg" width="118" height="118" viewBox="0 0 118 118">
  <g id="Grupo_328" data-name="Grupo 328" transform="translate(-320 -1300)">
    <circle id="Elipse_8" data-name="Elipse 8" cx="59" cy="59" r="59" transform="translate(320 1300)" fill="#f0f0f0"/>
    <g id="tire_1_" data-name="tire (1)" transform="translate(344 1325)">
      <g id="Grupo_95" data-name="Grupo 95" transform="translate(12.259 9.955)">
        <path id="Trazado_172" data-name="Trazado 172" d="M215.485,72a15.485,15.485,0,1,0,15.485,15.485A15.485,15.485,0,0,0,215.485,72Zm0,22.122a6.637,6.637,0,1,1,6.637-6.637A6.636,6.636,0,0,1,215.485,94.122Z" transform="translate(-184.607 -72)" fill="#ffc857"/>
        <rect id="Rectángulo_55" data-name="Rectángulo 55" width="44" height="4" transform="translate(11 46.364)" fill="#ffc857"/>
        <rect id="Rectángulo_56" data-name="Rectángulo 56" width="4" height="53" transform="translate(0 4.364)" fill="#ffc857"/>
      </g>
      <path id="Trazado_173" data-name="Trazado 173" d="M64.154,48.668H53.494A25.434,25.434,0,1,0,20.761,13.359a4.413,4.413,0,0,0-.852-.086H8.849A4.429,4.429,0,0,0,4.424,17.7v9.271l-2.59,1.3A3.3,3.3,0,0,0,0,31.232V50.618a3.3,3.3,0,0,0,1.834,2.969l2.59,1.3v9.271a4.429,4.429,0,0,0,4.424,4.424h55.3a4.429,4.429,0,0,0,4.424-4.424V53.093A4.429,4.429,0,0,0,64.154,48.668ZM51.988,50.88l-1.77,1.327,1.326,1.77,4.129-3.1h8.48a2.214,2.214,0,0,1,2.212,2.212V55.3h-2.95l-4.129-3.1-1.327,1.77,1.77,1.327h-11.8l-4.129-3.1-1.327,1.77,1.77,1.327h-12.9l-3.376-2.532a3.29,3.29,0,0,0,.778-1.893H35.4l-1.77,1.327,1.326,1.77,4.129-3.1Zm-19.2-2.212H28.759V46.425A25.378,25.378,0,0,0,32.792,48.668Zm-6.246,1.951a1.1,1.1,0,0,1-.612.99l-1.6.8V29.442l1.6.8a1.1,1.1,0,0,1,.612.989Zm-2.212,4.263,1.654-.826L27.654,55.3H24.334ZM30.225,6.121,35.77,7.607l.573-2.137-3.4-.91a23.185,23.185,0,0,1,8.682-2.3l4.048,4.048,1.564-1.564L44.786,2.3a23.022,23.022,0,0,1,8.64,2.35l1.472,5.5,2.137-.573-.9-3.375a23.411,23.411,0,0,1,6.319,6.36l-1.478,5.517,2.137.573.9-3.344a23.013,23.013,0,0,1,2.286,8.65l-4.025,4.025,1.564,1.564,2.452-2.452a23.021,23.021,0,0,1-2.35,8.64l-5.5,1.472.573,2.137,3.375-.9a23.411,23.411,0,0,1-6.36,6.319l-5.517-1.478-.573,2.137,3.344.9a23.013,23.013,0,0,1-8.65,2.286L40.6,44.57l-1.564,1.564L41.5,48.6a23.267,23.267,0,0,1-8.649-2.352L31.379,40.74l-2.137.573.9,3.376c-.476-.321-.936-.667-1.387-1.023V31.232a3.3,3.3,0,0,0-1.834-2.969l-2.592-1.294V17.7a4.382,4.382,0,0,0-1.029-2.8l4.535-1.214-.573-2.137-3.387.907A23.13,23.13,0,0,1,30.225,6.121ZM2.824,51.608a1.1,1.1,0,0,1-.612-.989V31.232a1.1,1.1,0,0,1,.612-.99l1.6-.8V52.409ZM6.637,64.154V54.2l1.327,1.77,1.77-1.326-3.1-4.129V38.065l1.43,1.43,1.564-1.564L6.637,34.937V22.58l1.43,1.43,1.564-1.564L6.637,19.452V17.7a2.214,2.214,0,0,1,2.212-2.212h2.212V19.91h2.212V15.485h2.212v50.88H13.273V22.122H11.061v5.073L8.067,30.189l1.564,1.564,1.43-1.43V42.769L7.964,46.9l1.77,1.327,1.327-1.77v11.8l-3.1,4.128,1.77,1.327,1.327-1.77v4.424H8.849A2.214,2.214,0,0,1,6.637,64.154ZM17.7,66.366V61.94l1.327,1.77,1.77-1.326-3.1-4.129v-11.8l1.327,1.77,1.77-1.326-3.1-4.129V29.864l1.327,1.77,1.77-1.326-3.1-4.129V15.485H19.91A2.214,2.214,0,0,1,22.122,17.7v.738l-3.1,4.129,1.77,1.326,1.327-1.77v11.8l-3.1,4.129,1.77,1.326,1.327-1.77V50.512l-3.1,4.129,1.77,1.326,1.327-1.77v9.956a2.214,2.214,0,0,1-2.212,2.212Zm46.456,0h-8.48l-4.129-3.1-1.327,1.77,1.77,1.327h-12.9l-4.129-3.1-1.327,1.77,1.77,1.327H23.719a4.379,4.379,0,0,0,.615-2.212V61.941h3.319l-1.77,1.327,1.326,1.77,4.129-3.1H35.4V59.729H24.334V57.517H66.366v2.212H37.607v2.212h6.638l-1.77,1.327,1.326,1.77,4.129-3.1h11.8l-1.77,1.327,1.326,1.77,4.129-3.1h2.95v2.212A2.214,2.214,0,0,1,64.154,66.366Z"/>
      <path id="Trazado_174" data-name="Trazado 174" d="M263.743,143.485A7.743,7.743,0,1,0,256,135.743,7.753,7.753,0,0,0,263.743,143.485Zm0-13.273a5.53,5.53,0,1,1-5.53,5.531A5.537,5.537,0,0,1,263.743,130.212Z" transform="translate(-220.605 -110.302)"/>
      <rect id="Rectángulo_57" data-name="Rectángulo 57" width="2" height="2" transform="translate(42.259 13.319)"/>
      <rect id="Rectángulo_58" data-name="Rectángulo 58" width="2.212" height="2.212" transform="translate(34.012 21.313) rotate(107.975)"/>
      <rect id="Rectángulo_59" data-name="Rectángulo 59" width="2.211" height="2.212" transform="matrix(-0.588, 0.809, -0.809, -0.588, 38.179, 34.145)"/>
      <rect id="Rectángulo_60" data-name="Rectángulo 60" width="2.212" height="2.211" transform="translate(51.183 34.625) rotate(143.978)"/>
      <rect id="Rectángulo_61" data-name="Rectángulo 61" width="2.212" height="2.212" transform="translate(55.043 22.732) rotate(162.002)"/>
    </g>
  </g>
</svg>
