<svg xmlns="http://www.w3.org/2000/svg" width="118" height="118" viewBox="0 0 118 118">
  <g id="Grupo_326" data-name="Grupo 326" transform="translate(-735 -1300)">
    <circle id="Elipse_10" data-name="Elipse 10" cx="59" cy="59" r="59" transform="translate(735 1300)" fill="#f0f0f0"/>
    <g id="door" transform="translate(756 1325)">
      <path id="Trazado_210" data-name="Trazado 210" d="M119.18,32a20.834,20.834,0,0,0-16.505,8.194l-10.8,14.227-.045.831a2.385,2.385,0,0,1,.635-.1h12.188v4.875a4.876,4.876,0,0,1-4.875,4.875H97.342v1.219h51.191V32Zm0,0" transform="translate(-77.841 -27.125)" fill="#ffc857"/>
      <path id="Trazado_211" data-name="Trazado 211" d="M71.911,0H41.279A25.747,25.747,0,0,0,20.968,10.023L5.282,30.479A25.735,25.735,0,0,0,0,46.054V64.6a3.661,3.661,0,0,0,3.656,3.656H71.911A3.661,3.661,0,0,0,75.567,64.6V3.656A3.661,3.661,0,0,0,71.911,0ZM7.217,31.963,22.9,11.506A23.293,23.293,0,0,1,41.279,2.438H71.911A1.221,1.221,0,0,1,73.13,3.656V53.628H2.438V46.054A23.288,23.288,0,0,1,7.217,31.963ZM71.911,65.817H3.656A1.221,1.221,0,0,1,2.438,64.6V60.941H7.313V58.5H2.438V56.066H73.13V58.5H8.532v2.438h64.6V64.6A1.221,1.221,0,0,1,71.911,65.817Zm0,0"/>
      <path id="Trazado_212" data-name="Trazado 212" d="M370.438,279.313h9.751a2.44,2.44,0,0,0,2.438-2.438v-2.438A2.44,2.44,0,0,0,380.188,272h-9.751A2.44,2.44,0,0,0,368,274.438v2.438A2.44,2.44,0,0,0,370.438,279.313Zm9.751-2.438h-2.438v-2.438h2.438Zm-9.751-2.438h4.875v2.438h-4.875Zm0,0" transform="translate(-311.934 -230.56)"/>
      <path id="Trazado_213" data-name="Trazado 213" d="M75.656,188.188h7.313a6.1,6.1,0,0,0,6.094-6.094V176H75.656A3.661,3.661,0,0,0,72,179.656v4.875A3.661,3.661,0,0,0,75.656,188.188Zm-1.219-8.532a1.221,1.221,0,0,1,1.219-1.219H86.626v3.656a3.661,3.661,0,0,1-3.656,3.656H75.656a1.221,1.221,0,0,1-1.219-1.219Zm0,0" transform="translate(-61.031 -149.186)"/>
    </g>
  </g>
</svg>
