<svg width="39" height="44" viewBox="0 0 39 44" fill="none" xmlns="http://www.w3.org/2000/svg">
<path d="M37.142 9.51466L30.3519 1.96914C29.7943 1.34893 29.1123 0.853061 28.3505 0.513796C27.5886 0.174531 26.7638 -0.000530556 25.9298 1.20783e-06H5.94136C4.36561 1.20783e-06 2.8544 0.625964 1.74018 1.74019C0.625963 2.85441 0 4.36561 0 5.94136V38.0586C0 39.6344 0.625963 41.1456 1.74018 42.2598C2.8544 43.374 4.36561 44 5.94136 44H32.6944C34.2702 44 35.7814 43.374 36.8956 42.2598C38.0098 41.1456 38.6358 39.6344 38.6358 38.0586V13.5123C38.6501 12.0408 38.1178 10.6162 37.142 9.51466ZM28.9514 34.9776H9.70988C9.25966 34.9776 8.82789 34.7988 8.50954 34.4804C8.19119 34.1621 8.01235 33.7303 8.01235 33.2801C8.01235 32.8299 8.19119 32.3981 8.50954 32.0798C8.82789 31.7614 9.25966 31.5826 9.70988 31.5826H28.9259C29.3761 31.5826 29.8079 31.7614 30.1263 32.0798C30.4446 32.3981 30.6235 32.8299 30.6235 33.2801C30.6235 33.7303 30.4446 34.1621 30.1263 34.4804C29.8079 34.7988 29.3761 34.9776 28.9259 34.9776H28.9514ZM28.9514 25.6836H9.70988C9.25966 25.6836 8.82789 25.5048 8.50954 25.1864C8.19119 24.8681 8.01235 24.4363 8.01235 23.9861C8.01235 23.5359 8.19119 23.1041 8.50954 22.7858C8.82789 22.4674 9.25966 22.2886 9.70988 22.2886H28.9259C29.3761 22.2886 29.8079 22.4674 30.1263 22.7858C30.4446 23.1041 30.6235 23.5359 30.6235 23.9861C30.6235 24.4363 30.4446 24.8681 30.1263 25.1864C29.8079 25.5048 29.3761 25.6836 28.9259 25.6836H28.9514ZM28.9514 16.3981H9.70988C9.25966 16.3981 8.82789 16.2193 8.50954 15.901C8.19119 15.5826 8.01235 15.1508 8.01235 14.7006C8.01235 14.2504 8.19119 13.8186 8.50954 13.5003C8.82789 13.1819 9.25966 13.0031 9.70988 13.0031H28.9259C29.3761 13.0031 29.8079 13.1819 30.1263 13.5003C30.4446 13.8186 30.6235 14.2504 30.6235 14.7006C30.6235 15.1508 30.4446 15.5826 30.1263 15.901C29.8079 16.2193 29.3761 16.3981 28.9259 16.3981H28.9514Z" fill="#0F374B"/>
</svg>
