<svg width="45" height="45" viewBox="0 0 45 45" fill="none" xmlns="http://www.w3.org/2000/svg">
<path d="M22.5 0C18.0499 0 13.6998 1.3196 9.99968 3.79193C6.29957 6.26426 3.41569 9.77828 1.71272 13.8896C0.0097489 18.001 -0.435826 22.525 0.432341 26.8895C1.30051 31.2541 3.44342 35.2632 6.59011 38.4099C9.73679 41.5566 13.7459 43.6995 18.1105 44.5677C22.475 45.4358 26.999 44.9902 31.1104 43.2873C35.2217 41.5843 38.7357 38.7004 41.2081 35.0003C43.6804 31.3002 45 26.9501 45 22.5C45 16.5326 42.6295 10.8097 38.4099 6.5901C34.1903 2.37053 28.4674 0 22.5 0ZM33.75 17.5327L22.5 29.4923C22.0956 29.9189 21.6084 30.2586 21.0683 30.4907C20.5282 30.7229 19.9465 30.8425 19.3587 30.8423H19.2115C18.6063 30.8275 18.0109 30.6858 17.4638 30.4264C16.9167 30.1671 16.4302 29.7958 16.0356 29.3365L11.1548 23.6596C10.9763 23.4946 10.8346 23.2938 10.7388 23.0703C10.6431 22.8468 10.5955 22.6057 10.5992 22.3626C10.6029 22.1195 10.6577 21.88 10.7602 21.6595C10.8626 21.439 11.0104 21.2426 11.1938 21.083C11.3772 20.9234 11.5922 20.8043 11.8247 20.7334C12.0572 20.6624 12.3021 20.6412 12.5433 20.6712C12.7846 20.7012 13.0168 20.7817 13.2249 20.9074C13.433 21.0332 13.6122 21.2013 13.751 21.401L18.6317 27.0779C18.7111 27.1707 18.8091 27.2456 18.9195 27.2978C19.0299 27.3501 19.1501 27.3783 19.2721 27.3808C19.393 27.3839 19.5133 27.3616 19.6251 27.3154C19.7369 27.2692 19.8377 27.2001 19.9212 27.1125L31.2577 15.1529C31.5782 14.8418 32.0065 14.6667 32.4531 14.6641C32.8997 14.6615 33.33 14.8317 33.6541 15.139C33.9781 15.4463 34.1709 15.8669 34.192 16.3131C34.2131 16.7592 34.0609 17.1962 33.7673 17.5327H33.75Z" fill="#0F374B"/>
</svg>
