<svg width="44" height="44" viewBox="0 0 44 44" fill="none" xmlns="http://www.w3.org/2000/svg">
<path d="M22 0C17.6488 0 13.3953 1.29028 9.77746 3.70767C6.15958 6.12506 3.33979 9.56099 1.67466 13.581C0.00953223 17.6009 -0.426141 22.0244 0.422734 26.292C1.27161 30.5596 3.3669 34.4796 6.44366 37.5563C9.52041 40.6331 13.4404 42.7284 17.708 43.5773C21.9756 44.4261 26.3991 43.9905 30.419 42.3253C34.439 40.6602 37.8749 37.8404 40.2923 34.2225C42.7097 30.6047 44 26.3512 44 22C44 16.1652 41.6822 10.5694 37.5564 6.44365C33.4306 2.31785 27.8348 0 22 0ZM22 31.4286C20.1352 31.4286 18.3123 30.8756 16.7618 29.8396C15.2113 28.8035 14.0028 27.331 13.2891 25.6082C12.5755 23.8853 12.3888 21.9895 12.7526 20.1606C13.1164 18.3316 14.0144 16.6516 15.333 15.333C16.6516 14.0144 18.3316 13.1164 20.1606 12.7526C21.9895 12.3888 23.8853 12.5755 25.6082 13.2891C27.331 14.0028 28.8036 15.2112 29.8396 16.7618C30.8756 18.3123 31.4286 20.1352 31.4286 22C31.4286 24.5006 30.4352 26.8988 28.667 28.667C26.8988 30.4352 24.5006 31.4286 22 31.4286Z" fill="#0F374B"/>
<path d="M22 25.1429C23.7357 25.1429 25.1428 23.7358 25.1428 22C25.1428 20.2643 23.7357 18.8572 22 18.8572C20.2642 18.8572 18.8571 20.2643 18.8571 22C18.8571 23.7358 20.2642 25.1429 22 25.1429Z" fill="#0F374B"/>
<path d="M22 15.7144C20.7568 15.7144 19.5415 16.083 18.5079 16.7737C17.4742 17.4644 16.6685 18.4461 16.1928 19.5946C15.717 20.7432 15.5925 22.007 15.8351 23.2264C16.0776 24.4457 16.6763 25.5657 17.5553 26.4447C18.4344 27.3238 19.5544 27.9225 20.7737 28.165C21.993 28.4075 23.2569 28.2831 24.4054 27.8073C25.554 27.3316 26.5357 26.5259 27.2264 25.4922C27.9171 24.4585 28.2857 23.2433 28.2857 22.0001C28.2857 20.333 27.6235 18.7342 26.4447 17.5554C25.2659 16.3766 23.6671 15.7144 22 15.7144ZM22 26.7144C21.0676 26.7144 20.1562 26.4379 19.3809 25.9199C18.6056 25.4018 18.0014 24.6656 17.6446 23.8041C17.2878 22.9427 17.1944 21.9948 17.3763 21.0804C17.5582 20.1659 18.0072 19.3259 18.6665 18.6666C19.3258 18.0073 20.1658 17.5583 21.0803 17.3764C21.9948 17.1945 22.9427 17.2878 23.8041 17.6446C24.6655 18.0015 25.4018 18.6057 25.9198 19.381C26.4378 20.1562 26.7143 21.0677 26.7143 22.0001C26.7143 23.2504 26.2176 24.4495 25.3335 25.3336C24.4494 26.2177 23.2503 26.7144 22 26.7144Z" fill="#0F374B"/>
</svg>
