<svg xmlns="http://www.w3.org/2000/svg" width="37.987" height="46.996" viewBox="0 0 37.987 46.996">
  <g id="Grupo_357" data-name="Grupo 357" transform="translate(-136.711 -134.684)">
    <path id="Trazado_18" data-name="Trazado 18" d="M136.711,287.08h25.35l2.456,3.643Z" transform="translate(0 -109.119)" fill="#c8c7c8"/>
    <path id="Trazado_19" data-name="Trazado 19" d="M241.942,147.824c.045-.047.075-.074.1-.1a15.869,15.869,0,0,0,1.946-2.952,9.887,9.887,0,0,0,1.116-4.443q0-2.713,0-5.425c0-.064-.01-.128-.015-.186-.312-.05-6.165-.031-6.32.019v6.217H240.3c.26,0,.521,0,.781,0s.5-.01.772.01c-.012.158-.016.29-.033.421a6.026,6.026,0,0,1-.674,2.021,11.17,11.17,0,0,1-1.59,2.226l-.262.291Z" transform="translate(-73.075 0)" fill="#ffc857"/>
    <g id="Grupo_5" data-name="Grupo 5" transform="translate(156.678 163.66)">
      <g id="Grupo_4" data-name="Grupo 4" transform="translate(0)">
        <g id="Grupo_3" data-name="Grupo 3">
          <g id="Grupo_2" data-name="Grupo 2">
            <path id="Trazado_20" data-name="Trazado 20" d="M216.03,236.72a9.01,9.01,0,1,0,9.01,9.01A9.01,9.01,0,0,0,216.03,236.72Zm-3.48,13.243a5.473,5.473,0,0,1-1.926-3.335h3.021a2.549,2.549,0,0,0,.415.719Zm1.1-5.13h-3.021a5.475,5.475,0,0,1,1.926-3.335l1.51,2.616A2.548,2.548,0,0,0,213.645,244.832Zm2.385,6.378a5.462,5.462,0,0,1-1.926-.348l1.511-2.617a2.561,2.561,0,0,0,.83,0l1.511,2.617A5.459,5.459,0,0,1,216.03,251.21Zm.415-7.994a2.563,2.563,0,0,0-.83,0L214.1,240.6a5.5,5.5,0,0,1,3.851,0Zm3.066,6.747L218,247.347a2.553,2.553,0,0,0,.415-.719h3.021A5.473,5.473,0,0,1,219.511,249.963Zm-1.1-5.13a2.553,2.553,0,0,0-.415-.718l1.51-2.616a5.475,5.475,0,0,1,1.926,3.335Z" transform="translate(-207.02 -236.72)" fill="#bcbabc"/>
          </g>
        </g>
      </g>
    </g>
    <g id="Grupo_6" data-name="Grupo 6" transform="translate(137.499 143.267)">
      <path id="Trazado_21" data-name="Trazado 21" d="M167.685,177.026a15.18,15.18,0,0,0-.319-3.059,10.263,10.263,0,0,0-2.652-5.075,10.936,10.936,0,0,0-3.582-2.441,16.84,16.84,0,0,0-4.15-1.155,31.379,31.379,0,0,0-4.842-.389,29.577,29.577,0,0,0-4.014.218,14.776,14.776,0,0,0-2.675.572,6.651,6.651,0,0,0-2.2,1.124,3.71,3.71,0,0,0-1.333,3.92,5.789,5.789,0,0,0,1.481,2.686c.144.156.3.3.451.453.05-.029.084-.048.118-.068a7.554,7.554,0,0,1,1.25-.627,15.047,15.047,0,0,1,3.749-.872,22.153,22.153,0,0,1,2.717-.127,15.735,15.735,0,0,1,2.847.244,6.4,6.4,0,0,1,1.946.649,3.612,3.612,0,0,1,1.965,2.78,1.646,1.646,0,0,1,.009.54l-.288-.024c-.492-.039-.983-.086-1.475-.116-.426-.026-.853-.035-1.28-.047a47.5,47.5,0,0,0-4.921.082,25.861,25.861,0,0,0-3.131.413,15.061,15.061,0,0,0-3.221,1,7.27,7.27,0,0,0-4.242,4.89,11.867,11.867,0,0,0-.39,2.5,10.811,10.811,0,0,0,.3,3.354,7.092,7.092,0,0,0,1.661,3.152,8.946,8.946,0,0,0,2.29,1.762A15.815,15.815,0,0,0,148.1,194.9a27.011,27.011,0,0,0,4.768.508c1.773.051,3.546.009,5.319-.05a9.543,9.543,0,0,1,9.5-10.588C167.688,182.187,167.691,179.607,167.685,177.026Zm-9.156,11.64c-.175.03-.343.074-.513.087-.818.061-1.635.135-2.454.161s-1.628.023-2.44,0a7.833,7.833,0,0,1-2.75-.55,5.2,5.2,0,0,1-.505-.24,2.291,2.291,0,0,1-1.241-1.781,4.037,4.037,0,0,1,.062-1.469,2.629,2.629,0,0,1,1.3-1.741,5.452,5.452,0,0,1,1.707-.606,10.228,10.228,0,0,1,1.968-.187c.914-.005,1.828,0,2.74.042.631.028,1.259.122,1.889.188a2.151,2.151,0,0,1,.235.051Z" transform="translate(-139.486 -164.907)" fill="#0f374b"/>
    </g>
  </g>
</svg>
