<svg xmlns="http://www.w3.org/2000/svg" viewBox="0 0 555.21 60.95"><defs><style>.cls-1,.cls-2{fill:#0f374b;}.cls-2{fill-rule:evenodd;}</style></defs><title>Recurso 1</title><g id="Capa_2" data-name="Capa 2"><g id="Capa_1-2" data-name="Capa 1"><path class="cls-1" d="M245.28,31c0,5.1,0,10.21,0,15.32,0,.77-.07,1.55-.12,2.32a.92.92,0,0,1-.67.7,12.91,12.91,0,0,1-3.62,0,.89.89,0,0,1-.7-.67c0-.77-.1-1.55-.11-2.32V22.7q0-3.37,0-6.75a10,10,0,0,1,.1-1.55,2.35,2.35,0,0,1,2.14-2,6.94,6.94,0,0,1,1.29,0c1.43.15,1.65.83,1.67,1.87,0,.69,0,1.38,0,2.08Z"/><path class="cls-1" d="M342.61,22.68q0-7.93,0-15.87a20.08,20.08,0,0,1,.09-2.33,2.25,2.25,0,0,1,2.1-2,7.94,7.94,0,0,1,1.29,0c1.21.1,1.65.57,1.67,1.85,0,1.82,0,3.64,0,5.46,0,.61.06,1.21.11,1.81a.83.83,0,0,0,.69.68c.6,0,1.21.08,1.81.08h9.1a20.55,20.55,0,0,1,2.08.08,2.29,2.29,0,0,1,1.93,1.86,3.51,3.51,0,0,1-.1,1.79,1.31,1.31,0,0,1-1.12.94c-.69,0-1.39.06-2.08.06-3.12,0-6.24,0-9.36,0-.52,0-1,0-1.56,0-1.21,0-1.44.29-1.49,1.59,0,.35,0,.7,0,1s0,.87,0,1.31c0,5.37,0,10.74,0,16.12,0,1,0,2.08.14,3.11a5.66,5.66,0,0,0,4.85,5.36,11.67,11.67,0,0,0,6.91-.47c.73-.29,1.43-.63,2.15-.93a1,1,0,0,1,1.35.42c.44.64.86,1.3,1.28,1.95a.77.77,0,0,1-.2.93,4.12,4.12,0,0,1-.41.32,17,17,0,0,1-6.06,2.22,19.78,19.78,0,0,1-6.47.06c-4.59-.77-8.2-3.83-8.67-9.56-.08-.86-.05-1.73-.05-2.6Q342.61,30.35,342.61,22.68Z"/><path class="cls-1" d="M333.31,24.74v9.37A18.4,18.4,0,0,1,332.4,40a13.85,13.85,0,0,1-6.62,8,18.28,18.28,0,0,1-6.12,2.09,24.05,24.05,0,0,1-7.76,0,17.72,17.72,0,0,1-6.33-2.26,14.17,14.17,0,0,1-6.68-9.22,17.79,17.79,0,0,1-.49-4.12c0-6.16,0-12.32,0-18.47a10.13,10.13,0,0,1,.09-1.56,2.39,2.39,0,0,1,2.08-2,5.14,5.14,0,0,1,2.06.16,1.36,1.36,0,0,1,.93,1.14q.06,1.17.06,2.34V32c0,1,0,1.91.05,2.86a12.09,12.09,0,0,0,.64,3.58,9.71,9.71,0,0,0,7.32,7,18,18,0,0,0,8.25,0c4-.91,6.44-3.55,7.58-7.42a16.79,16.79,0,0,0,.62-4.89c0-4.68,0-9.37,0-14,0-1.13,0-2.26,0-3.38a8,8,0,0,1,.1-1.3,2.37,2.37,0,0,1,2.14-2,7.94,7.94,0,0,1,1.29,0c1.16.1,1.66.64,1.67,1.87,0,3.47,0,6.94,0,10.4Z"/><path class="cls-1" d="M254.62,36.91c0-3.3,0-6.6,0-9.89a16.23,16.23,0,0,1,1-5.61,14.06,14.06,0,0,1,6.59-7.75,17.26,17.26,0,0,1,5.87-2,22.94,22.94,0,0,1,11.3.87,15,15,0,0,1,5.9,3.69,14.26,14.26,0,0,1,3.86,7.53,22.87,22.87,0,0,1,.37,3.88c0,6.5,0,13,0,19.51,0,.26,0,.52,0,.78-.05,1.07-.39,1.44-1.37,1.49l-.52,0c-3.47,0-3.29.2-3.29-3.22,0-5.72,0-11.45,0-17.17a17.6,17.6,0,0,0-.49-4.64,14.83,14.83,0,0,0-.83-2.46,9.64,9.64,0,0,0-7-5.67,17.13,17.13,0,0,0-8,0,9.56,9.56,0,0,0-6.85,5.49A11.81,11.81,0,0,0,260,26c-.09,1.29-.15,2.6-.15,3.9,0,5.46,0,10.93,0,16.39,0,.78-.06,1.56-.12,2.33a.92.92,0,0,1-.68.7,13,13,0,0,1-3.63,0,.89.89,0,0,1-.67-.7c0-.6-.08-1.21-.08-1.81q0-4.95,0-9.89Z"/><path class="cls-1" d="M454,36.34a16.28,16.28,0,0,1,.53-12.41c2.29-5,6.33-7.65,11.77-8.15a14.33,14.33,0,0,1,7.11,1.12,13.37,13.37,0,0,1,7.36,7.66A17,17,0,0,1,480.8,37a13.72,13.72,0,0,1-12.6,8.87h-.49A13.77,13.77,0,0,1,454,36.34ZM461.3,12.2a19.29,19.29,0,0,0-13.17,23.57c1.85,7.11,6.48,11.71,13.51,13.83a20.13,20.13,0,0,0,9.26.55,19.42,19.42,0,0,0,16.23-22.94,18.62,18.62,0,0,0-10.37-13.8,19.48,19.48,0,0,0-9.21-2.05A19.81,19.81,0,0,0,461.3,12.2Z"/><path class="cls-1" d="M555.21,36.35c0,3.38,0,6.77,0,10.15,0,.69-.05,1.39-.09,2.08a.89.89,0,0,1-.66.71,12.55,12.55,0,0,1-3.62,0,1,1,0,0,1-.81-.89c0-.78,0-1.56,0-2.34V27.87a20.78,20.78,0,0,0-.45-4.65c-.89-3.79-3.35-6-7-6.95a13.74,13.74,0,0,0-6.44-.15,9.8,9.8,0,0,0-7.87,7.44,15.3,15.3,0,0,0-.58,4.37c0,2.86,0,5.73,0,8.59,0,3.65,0,7.29,0,10.93,0,1.76-.19,1.93-1.93,2h-.26c-3,0-3,.06-3-3q0-8.59,0-17.19c0-1.12,0-2.25-.11-3.38a12.31,12.31,0,0,0-1.51-4.94,9.22,9.22,0,0,0-6.24-4.7,14.62,14.62,0,0,0-6.45-.07,9.21,9.21,0,0,0-7.46,7.12,17.2,17.2,0,0,0-.56,4.64c0,3.73,0,7.46,0,11.19,0,2.69,0,5.38,0,8.07a8.85,8.85,0,0,1-.14,1.55.81.81,0,0,1-.48.54,9.7,9.7,0,0,1-3.87,0,1.05,1.05,0,0,1-.52-.52,1.9,1.9,0,0,1-.15-.75q0-.91,0-1.83c0-6.33,0-12.67,0-19a33.75,33.75,0,0,1,.26-4.15,12.38,12.38,0,0,1,6.46-9.54,16.22,16.22,0,0,1,6.16-2,21.57,21.57,0,0,1,7.76.36,14.64,14.64,0,0,1,8.76,5.68c.2.28.42.55.63.82a.43.43,0,0,0,.66,0c.33-.4.65-.81,1-1.22a14.64,14.64,0,0,1,7.68-5.09,19.69,19.69,0,0,1,12.53.49,12.26,12.26,0,0,1,7.75,8.21,16.07,16.07,0,0,1,.67,4.88c0,3.56,0,7.12,0,10.68Z"/><path class="cls-1" d="M200.75,18.59c.56-.12.77-.52,1-.86,3.26-4.37,7.73-6.24,13.06-6.37a19.47,19.47,0,0,1,7.41,1.15A12.42,12.42,0,0,1,230,20.37a13.21,13.21,0,0,1,.76,4.08c0,.7,0,1.39,0,2.08q0,10,0,20c0,.7-.05,1.39-.1,2.08a.89.89,0,0,1-.7.67,13,13,0,0,1-3.63,0,1,1,0,0,1-.68-.7c-.05-.77-.1-1.55-.11-2.33q0-8.85,0-17.7c0-1.12,0-2.25-.09-3.38a11.23,11.23,0,0,0-.74-3.29,8.91,8.91,0,0,0-6.39-5.59,13.42,13.42,0,0,0-7.46,0c-3.88,1.09-6.13,3.75-7.12,7.56a18.57,18.57,0,0,0-.53,4.64c0,5.47,0,10.93,0,16.4,0,.86,0,1.73,0,2.6,0,.35,0,.69-.06,1a.94.94,0,0,1-.88.8c-1,0-2.08,0-3.12,0a1,1,0,0,1-1.05-.95c0-.78-.07-1.56-.07-2.34,0-5.12,0-10.24,0-15.35,0-1.65-.05-3.3-.15-4.94a11.67,11.67,0,0,0-1.39-4.71,9.13,9.13,0,0,0-5.65-4.68,13.93,13.93,0,0,0-8.21,0,9.21,9.21,0,0,0-6.46,7.18,20.73,20.73,0,0,0-.5,4.91c0,5.9,0,11.8,0,17.7,0,.78,0,1.56-.06,2.33a.91.91,0,0,1-.87.82c-1.13,0-2.25,0-3.38,0a.9.9,0,0,1-.69-.68c-.05-.52-.11-1-.11-1.56q0-10.41,0-20.82a27.06,27.06,0,0,1,.14-2.85,12.52,12.52,0,0,1,6.15-9.75,15.94,15.94,0,0,1,6.37-2.14,20.94,20.94,0,0,1,8.52.48,14.47,14.47,0,0,1,8.06,5.39C200.13,17.83,200.46,18.22,200.75,18.59Z"/><path class="cls-1" d="M91.22,21.24V6.68a12,12,0,0,1,.3-3.1A4.11,4.11,0,0,1,93.75.85a8,8,0,0,1,3-.81,13.48,13.48,0,0,1,6.11,1,1,1,0,0,1,.58.81c.06.6.09,1.2.09,1.81,0,1.73,0,3.47,0,5.2,0,.52.06,1,.09,1.56a1,1,0,0,0,.69.7c.51,0,1,.11,1.55.11,1.91,0,3.82,0,5.72,0a17.38,17.38,0,0,1,2.6.17,4.25,4.25,0,0,1,3.8,3.4,8.32,8.32,0,0,1,.26,1.79A11.21,11.21,0,0,1,117,21.86a1.16,1.16,0,0,1-1,.66c-.69,0-1.38,0-2.08,0H105.8a9.93,9.93,0,0,0-1.55.11.87.87,0,0,0-.52.51,2.69,2.69,0,0,0-.18,1c0,3.3,0,6.59,0,9.89a10,10,0,0,0,.14,1.55,4.17,4.17,0,0,0,3.41,3.47,10.78,10.78,0,0,0,5.63-.42c.58-.19,1.13-.44,1.7-.65a1,1,0,0,1,1.35.4c1.31,2.24,2.61,4.5,3.9,6.75a1,1,0,0,1-.36,1.36,16.9,16.9,0,0,1-3.64,2,26.29,26.29,0,0,1-8.33,1.9,18.46,18.46,0,0,1-7.19-.9,12.14,12.14,0,0,1-8.65-10.08,23,23,0,0,1-.29-3.89C91.23,30.78,91.22,26,91.22,21.24Z"/><path class="cls-1" d="M30.53,56.29c.87,0,1.73-.08,2.59-.09,3.73-.06,7.47-.13,11.2-.14q16.78,0,33.59,0H393.5l2.6,0a1.64,1.64,0,0,1,1.37.61,19.57,19.57,0,0,0,3.77,3.56.48.48,0,0,1,.11.45.49.49,0,0,1-.36.26q-.92,0-1.83,0l-9.11-.09-36.19-.43-51.81-.6L263,59.35l-49.21-.57-40.35-.48-48.17-.56-40.1-.48L37,56.68c-2.17,0-4.33-.07-6.5-.12Z"/><path class="cls-1" d="M83.4,24.5v9.11A19.1,19.1,0,0,1,83,37.74a14.51,14.51,0,0,1-6.81,9.73,19.32,19.32,0,0,1-6.55,2.45,27.13,27.13,0,0,1-12.38-.4,17.84,17.84,0,0,1-4.33-1.74,14.68,14.68,0,0,1-7.63-12,22.86,22.86,0,0,1-.07-2.34q0-7.95,0-15.88a20.55,20.55,0,0,1,.08-2.08,4.15,4.15,0,0,1,2.63-3.59,6.38,6.38,0,0,1,1.48-.47,13.66,13.66,0,0,1,7.16.69,1.18,1.18,0,0,1,.82,1.2c0,.78,0,1.56,0,2.34,0,5.12,0,10.24,0,15.36a12.64,12.64,0,0,0,.46,3.86A5.5,5.5,0,0,0,63,39a16,16,0,0,0,2.85,0,5.48,5.48,0,0,0,5-4.32,15.62,15.62,0,0,0,.45-3.86c0-4.08,0-8.16,0-12.24,0-.78,0-1.56,0-2.34A7,7,0,0,1,71.35,15a3.94,3.94,0,0,1,1.86-2.71,5.65,5.65,0,0,1,2.17-.84,13.92,13.92,0,0,1,7.17.7,1.2,1.2,0,0,1,.82,1.19c0,.7,0,1.39,0,2.09q0,4.55,0,9.11Z"/><path class="cls-1" d="M150.48,33.76a8.48,8.48,0,0,1-15.95.19,10.65,10.65,0,0,1,0-7.38A8.52,8.52,0,0,1,151,29.4a3,3,0,0,1,0,.41A10.61,10.61,0,0,1,150.48,33.76ZM134.74,11.5c-7,2.76-11.61,7.69-13.06,15.26A19.54,19.54,0,0,0,129,45.9a22.32,22.32,0,0,0,25.57.94,19.24,19.24,0,0,0,8.68-13,19.64,19.64,0,0,0-8.6-20,20.41,20.41,0,0,0-11.18-3.59C139.37,10.24,137.83,10.3,134.74,11.5Z"/><path class="cls-1" d="M24.05,33.47a1,1,0,0,1,.92,1q0,3,0,6a1,1,0,0,1-1,1,42.07,42.07,0,0,1-7,.06,8.2,8.2,0,0,1-3-.87,3.14,3.14,0,0,1-1.75-2.43A3.83,3.83,0,0,1,14.53,34,7.26,7.26,0,0,1,17,33.38l3.48-.13C21.63,33.32,22.84,33.38,24.05,33.47ZM37.23,36.3c0-3,0-6.07,0-9.11a31.39,31.39,0,0,0-.16-3.63,13.53,13.53,0,0,0-7-10.65,17.36,17.36,0,0,0-3.59-1.5,26.91,26.91,0,0,0-5.1-1A53.08,53.08,0,0,0,12,10.36a18,18,0,0,0-4.8,1.1,7.08,7.08,0,0,0-2.44,1.47,5,5,0,0,0-1.39,5.46A7.67,7.67,0,0,0,4.71,20.9c.73.92,1.1,1.27,2.41.6a12.25,12.25,0,0,1,2.45-.85A25.2,25.2,0,0,1,18.35,20a10.53,10.53,0,0,1,3.76.95,4.66,4.66,0,0,1,2.69,3.3c.07.31-.21.75-.51.75l-2.08,0a56.49,56.49,0,0,0-10.64.45,20.54,20.54,0,0,0-5.94,1.81A9.32,9.32,0,0,0,.72,33a14.54,14.54,0,0,0-.1,8.71,9.22,9.22,0,0,0,2.39,4A12.15,12.15,0,0,0,6.18,48a20.23,20.23,0,0,0,4.65,1.63,42.52,42.52,0,0,0,8.26.88c2.87.08,5.72-.21,8.58-.3,2.6-.09,5.18-.49,7.77-.69a4.87,4.87,0,0,0,.76-.15,1.15,1.15,0,0,0,1-1.06c0-.69,0-1.38,0-2.08,0-3.29,0-6.59,0-9.88Z"/><path class="cls-1" d="M395.77,42.34a.44.44,0,0,1,.7.51,13.14,13.14,0,0,0-1.23,4.73,1.41,1.41,0,0,1-.83,1.17l-.37.15a21.42,21.42,0,0,1-16,0,19.29,19.29,0,0,1-12-17.9,19.14,19.14,0,0,1,3.4-11.27,18.93,18.93,0,0,1,14.12-8.26,19.22,19.22,0,0,1,5,0,18.93,18.93,0,0,1,14.12,8.26A19.14,19.14,0,0,1,406.06,31a20.14,20.14,0,0,1-.33,3.49,1.38,1.38,0,0,1-1,1.07,13.65,13.65,0,0,0-5.22,3,.44.44,0,0,1-.7-.52c.09-.18.18-.37.26-.56A16.21,16.21,0,0,0,399,23.89a13.1,13.1,0,0,0-8-7.33,14.93,14.93,0,0,0-9.93,0,13.1,13.1,0,0,0-8,7.33A16.21,16.21,0,0,0,373,37.51a13.22,13.22,0,0,0,9.61,8,14.68,14.68,0,0,0,6.89,0A13.21,13.21,0,0,0,395.77,42.34Z"/><path class="cls-1" d="M421.88,42.27a14.5,14.5,0,0,0,8.53,3.7c.6.07,1.21.07,1.82.1A16.71,16.71,0,0,0,441,44.34a4.12,4.12,0,0,1,1-.36.7.7,0,0,1,.48.12,1.06,1.06,0,0,1,.36.37c1.84,3.24,2.17,3-1.43,4.49a24.18,24.18,0,0,1-11.72,1.55A22.53,22.53,0,0,1,423.32,49a1.4,1.4,0,0,1-.86-1.21,13.59,13.59,0,0,0-1.28-5A.44.44,0,0,1,421.88,42.27Z"/><path class="cls-1" d="M418.3,38.75a13.67,13.67,0,0,0-5.06-3.08,1.4,1.4,0,0,1-.88-.94,13.14,13.14,0,0,1-.35-4,22.43,22.43,0,0,1,1.32-7.39A17.2,17.2,0,0,1,426.23,12a27.58,27.58,0,0,1,11.62-.12,16.53,16.53,0,0,1,4.38,1.59,6,6,0,0,1,1.26.91,2.64,2.64,0,0,1,.64,3.09,7.24,7.24,0,0,1-.86,1.29.85.85,0,0,1-.94.22c-.38-.2-.76-.42-1.13-.64a17.55,17.55,0,0,0-12.26-2.26,16.55,16.55,0,0,0-3,.74,11.57,11.57,0,0,0-6.64,5.89,14.68,14.68,0,0,0-1.52,5.21,34.82,34.82,0,0,0-.09,4.68A15.71,15.71,0,0,0,419,38.26.44.44,0,0,1,418.3,38.75Z"/><path class="cls-2" d="M408.84,36.6a12,12,0,1,0,12,12A12,12,0,0,0,408.84,36.6ZM413.47,43A7.29,7.29,0,0,1,416,47.39h-4a3.52,3.52,0,0,0-.55-1Zm-2.07-1.19-2,3.48a3.05,3.05,0,0,0-1.1,0l-2-3.48a7.21,7.21,0,0,1,5.12,0ZM404.21,43l2,3.48a3.52,3.52,0,0,0-.55,1h-4A7.29,7.29,0,0,1,404.21,43Zm-2.56,6.83h4a3.33,3.33,0,0,0,.55.95l-2,3.48A7.29,7.29,0,0,1,401.65,49.78Zm4.63,5.63,2-3.48a3.8,3.8,0,0,0,1.1,0l2,3.48a7.35,7.35,0,0,1-5.12,0Zm7.19-1.2-2-3.48a3.33,3.33,0,0,0,.55-.95h4A7.29,7.29,0,0,1,413.47,54.21Z"/></g></g></svg>