<svg id="Grupo_81" data-name="Grupo 81" xmlns="http://www.w3.org/2000/svg" width="97.248" height="97.248" viewBox="0 0 97.248 97.248">
  <g id="Grupo_35" data-name="Grupo 35" transform="translate(0)">
    <path id="Trazado_313" data-name="Trazado 313" d="M5307.687-1675.054h-4.706V-1687.6h-72.151v12.548h-4.706a7.852,7.852,0,0,0-7.843,7.843v53.329a7.852,7.852,0,0,0,7.843,7.843h26.056l-2.091,6.274h-8.28a3.14,3.14,0,0,0-3.137,3.137v3.137a3.14,3.14,0,0,0,3.137,3.137H5292a3.14,3.14,0,0,0,3.137-3.137v-3.137a3.14,3.14,0,0,0-3.137-3.137h-8.28l-2.091-6.274h26.057a7.851,7.851,0,0,0,7.842-7.843v-53.329A7.851,7.851,0,0,0,5307.687-1675.054Zm0,3.137a4.711,4.711,0,0,1,4.705,4.705v45.487h-3.137v-43.918a3.14,3.14,0,0,0-3.137-3.137h-3.137v-3.137Zm-1.569,50.192h-3.137v-43.918h3.137Zm-6.274-62.74v62.74h-65.877v-62.74Zm-69.015,62.74h-3.137v-43.918h3.137Zm-4.706-50.192h4.706v3.137h-3.137a3.14,3.14,0,0,0-3.137,3.137v43.918h-3.137v-45.487A4.711,4.711,0,0,1,5226.124-1671.917ZM5292-1593.491h-50.194v-3.137H5292Zm-11.589-6.274H5253.4l2.091-6.274h22.834Zm27.273-9.411h-81.563a4.711,4.711,0,0,1-4.706-4.705v-4.705h90.974v4.705A4.711,4.711,0,0,1,5307.687-1609.177Z" transform="translate(-5218.281 1687.602)"/>
    <path id="Trazado_314" data-name="Trazado 314" d="M5413.378-1367.086h9.411v3.137h-9.411Z" transform="translate(-5369.459 1439.238)"/>
    <path id="Trazado_315" data-name="Trazado 315" d="M5469.12-1367.086h3.137v3.137h-3.137Z" transform="translate(-5412.653 1439.238)"/>
    <path id="Trazado_316" data-name="Trazado 316" d="M5385.507-1367.086h3.137v3.137h-3.137Z" transform="translate(-5347.862 1439.238)"/>
    <path id="Trazado_317" data-name="Trazado 317" d="M5346.549-1552.286h.7a3.163,3.163,0,0,0,3.163-3.163,3.163,3.163,0,0,0-3.163-3.163h-.7a3.163,3.163,0,0,0-3.163,3.163,3.163,3.163,0,0,0,3.163,3.163Zm0-4.61h.7a1.447,1.447,0,0,1,1.447,1.447,1.447,1.447,0,0,1-1.447,1.448h-.7a1.447,1.447,0,0,1-1.448-1.448A1.447,1.447,0,0,1,5346.549-1556.9Z" transform="translate(-5315.224 1587.649)"/>
    <path id="Trazado_318" data-name="Trazado 318" d="M5375.95-1600.77l-2.529-.244a12.038,12.038,0,0,0-1.257-2.968l1.6-1.929a.858.858,0,0,0-.052-1.151l-2.938-2.969a.858.858,0,0,0-1.158-.057l-1.929,1.6c-.372-.216-.8-.41-1.124-.584v-4.769a5.146,5.146,0,0,0-1.59-3.7l-.918-.978-3.215-8.66a3.707,3.707,0,0,0-3.47-2.4h-22.944a3.705,3.705,0,0,0-3.469,2.4l-3.172,8.557-1.335,1.221a5.125,5.125,0,0,0-1.812,3.888v15.454a.89.89,0,0,0,.9.856h8.05a.817.817,0,0,0,.811-.856v-4.72h15.791a17.942,17.942,0,0,0-.621,1.745l-2.508.253a.853.853,0,0,0-.76.863v4.208a.845.845,0,0,0,.76.854l2.513.244a12.029,12.029,0,0,0,1.249,2.968l-1.6,1.929a.858.858,0,0,0,.053,1.155l2.975,2.969a.858.858,0,0,0,1.153.053l1.935-1.6a12.424,12.424,0,0,0,2.969,1.253l.244,2.5a.849.849,0,0,0,.854.765h4.214a.849.849,0,0,0,.854-.765l.243-2.508a12.021,12.021,0,0,0,2.974-1.246l1.93,1.6a.858.858,0,0,0,1.154-.052l2.975-2.969a.859.859,0,0,0,.055-1.155l-1.6-1.933a12.461,12.461,0,0,0,1.253-2.965l2.507-.244a.875.875,0,0,0,.794-.853v-4.209A.875.875,0,0,0,5375.95-1600.77Zm-43.388-25.8a1.994,1.994,0,0,1,1.86-1.3h22.944a1.993,1.993,0,0,1,1.859,1.3l2.815,7.6h-32.293Zm-6.212,13.058a3.418,3.418,0,0,1,1.221-2.6c.01-.008.029,0,.039-.013l1.242-1.133h34.005l.87.916c.012.013.031.019.043.031a3.408,3.408,0,0,1,1.073,2.468v4.136c0-.012-.088-.025-.13-.036l-.246-2.536a.882.882,0,0,0-.857-.8H5359.4a.878.878,0,0,0-.854.8l-.244,2.524a12.041,12.041,0,0,0-2.973,1.255l-1.93-1.6a.841.841,0,0,0-1.141.055l-.063.077v-2.728a.841.841,0,0,0-.883-.812h-11.4a.865.865,0,0,0-.909.812v4.541a.911.911,0,0,0,.909.867h9.578l-.223.219a.831.831,0,0,0-.055,1.134l1.207,1.435h-24.068Zm24.125,4.515h-9.757v-2.788h9.757Zm-17.8,10.079h-6.326v-3.86h6.326Zm42.353,2.431-2.335.227a.868.868,0,0,0-.763.668,10.79,10.79,0,0,1-1.507,3.551.858.858,0,0,0,.056,1.016l1.5,1.8-1.87,1.865-1.806-1.5a.857.857,0,0,0-1.021-.055,10.34,10.34,0,0,1-3.547,1.491.847.847,0,0,0-.673.746l-.228,2.335h-2.657l-.228-2.335a.852.852,0,0,0-.675-.751,10.7,10.7,0,0,1-3.554-1.495.858.858,0,0,0-1.012.063l-1.805,1.5-1.869-1.865,1.5-1.8a.858.858,0,0,0,.054-1.022,10.339,10.339,0,0,1-1.5-3.541.841.841,0,0,0-.741-.672l-2.335-.227v-2.651l2.336-.227a.85.85,0,0,0,.748-.668,10.764,10.764,0,0,1,1.5-3.551.858.858,0,0,0-.06-1.016l-1.5-1.8,1.868-1.865,1.806,1.5a.858.858,0,0,0,1.021.055,10.333,10.333,0,0,1,3.546-1.491.885.885,0,0,0,.674-.779l.228-2.368h2.657l.228,2.368a.871.871,0,0,0,.675.768,10.729,10.729,0,0,1,3.555,1.5.858.858,0,0,0,1.011-.058l1.8-1.493,1.839,1.859-1.5,1.809a.858.858,0,0,0-.054,1.022,10.348,10.348,0,0,1,1.5,3.541.88.88,0,0,0,.775.671l2.37.227Z" transform="translate(-5300.693 1642.643)"/>
    <path id="Trazado_319" data-name="Trazado 319" d="M5457.359-1528.495a9.015,9.015,0,0,0-9,9.027,9.015,9.015,0,0,0,9.027,9,9.014,9.014,0,0,0,9-9.015A9.031,9.031,0,0,0,5457.359-1528.495Zm0,16.313a7.3,7.3,0,0,1-7.287-7.312,7.3,7.3,0,0,1,7.312-7.287,7.3,7.3,0,0,1,7.287,7.3A7.313,7.313,0,0,1,5457.359-1512.182Z" transform="translate(-5396.564 1564.312)"/>
    <path id="Trazado_320" data-name="Trazado 320" d="M5472.644-1508.743a4.568,4.568,0,0,0-4.562,4.574,4.568,4.568,0,0,0,4.574,4.562,4.568,4.568,0,0,0,4.562-4.568A4.577,4.577,0,0,0,5472.644-1508.743Zm0,7.421a2.852,2.852,0,0,1-2.846-2.858,2.852,2.852,0,0,1,2.858-2.846,2.852,2.852,0,0,1,2.846,2.852,2.859,2.859,0,0,1-2.858,2.852Z" transform="translate(-5411.849 1549.006)"/>
  </g>
</svg>
