<svg id="Grupo_82" data-name="Grupo 82" xmlns="http://www.w3.org/2000/svg" width="100.297" height="100.297" viewBox="0 0 100.297 100.297">
  <path id="Trazado_273" data-name="Trazado 273" d="M-1125.862-1628.958a9.215,9.215,0,0,0,9.2-9.2,9.215,9.215,0,0,0-9.2-9.2,9.215,9.215,0,0,0-9.2,9.2A9.215,9.215,0,0,0-1125.862-1628.958Zm-3.342-3.168a3.46,3.46,0,0,1,3.341-2.584,3.456,3.456,0,0,1,3.341,2.585,6.851,6.851,0,0,1-3.34.866A6.859,6.859,0,0,1-1129.2-1632.126Zm3.342-4.885a1.151,1.151,0,0,1-1.151-1.15,1.151,1.151,0,0,1,1.151-1.151,1.152,1.152,0,0,1,1.151,1.151A1.152,1.152,0,0,1-1125.862-1637.011Zm0-8.054a6.91,6.91,0,0,1,6.9,6.9,6.868,6.868,0,0,1-1.683,4.5,5.77,5.77,0,0,0-2.363-2.57,3.429,3.429,0,0,0,.595-1.934,3.456,3.456,0,0,0-3.451-3.452,3.456,3.456,0,0,0-3.452,3.452,3.418,3.418,0,0,0,.595,1.933,5.764,5.764,0,0,0-2.364,2.569,6.864,6.864,0,0,1-1.682-4.5,6.91,6.91,0,0,1,6.9-6.9Z" transform="translate(1175.295 1656.886)"/>
  <path id="Trazado_274" data-name="Trazado 274" d="M-1154.337-1555.369h-46.021a1.15,1.15,0,0,0-1.151,1.151v6.9a1.149,1.149,0,0,0,1.151,1.15h46.021a1.149,1.149,0,0,0,1.151-1.15v-6.9a1.15,1.15,0,0,0-1.151-1.151Zm-1.151,6.9h-43.72v-4.6h43.72Z" transform="translate(1226.78 1585.599)"/>
  <path id="Trazado_275" data-name="Trazado 275" d="M-1154.337-1509.386h-46.021a1.15,1.15,0,0,0-1.151,1.151v6.906a1.15,1.15,0,0,0,1.151,1.151h46.021a1.149,1.149,0,0,0,1.151-1.151v-6.906A1.149,1.149,0,0,0-1154.337-1509.386Zm-1.151,6.906h-43.72v-4.6h43.72Z" transform="translate(1226.78 1549.967)"/>
  <path id="Trazado_276" data-name="Trazado 276" d="M-1149.249-1537.74h23.011a1.149,1.149,0,0,0,1.151-1.15,1.15,1.15,0,0,0-1.151-1.151h-23.011a1.15,1.15,0,0,0-1.151,1.151A1.149,1.149,0,0,0-1149.249-1537.74Z" transform="translate(1187.176 1573.721)"/>
  <path id="Trazado_277" data-name="Trazado 277" d="M-1128.667-1491.742a1.15,1.15,0,0,0,1.151-1.151,1.15,1.15,0,0,0-1.151-1.151h-.011a1.144,1.144,0,0,0-1.144,1.151A1.154,1.154,0,0,0-1128.667-1491.742Z" transform="translate(1171.231 1538.078)"/>
  <path id="Trazado_278" data-name="Trazado 278" d="M-1113.334-1491.742a1.15,1.15,0,0,0,1.151-1.151,1.15,1.15,0,0,0-1.151-1.151h-.011a1.144,1.144,0,0,0-1.144,1.151A1.154,1.154,0,0,0-1113.334-1491.742Z" transform="translate(1159.35 1538.078)"/>
  <path id="Trazado_279" data-name="Trazado 279" d="M-1098-1491.742a1.15,1.15,0,0,0,1.151-1.151,1.15,1.15,0,0,0-1.151-1.151h-.011a1.144,1.144,0,0,0-1.144,1.151,1.154,1.154,0,0,0,1.155,1.151Z" transform="translate(1147.468 1538.078)"/>
  <path id="Trazado_280" data-name="Trazado 280" d="M-1082.669-1491.742a1.15,1.15,0,0,0,1.151-1.151,1.15,1.15,0,0,0-1.151-1.151h-.011a1.144,1.144,0,0,0-1.144,1.151,1.154,1.154,0,0,0,1.155,1.151Z" transform="translate(1135.588 1538.078)"/>
  <path id="Trazado_281" data-name="Trazado 281" d="M-1067.336-1491.742a1.15,1.15,0,0,0,1.15-1.151,1.15,1.15,0,0,0-1.15-1.151h-.012a1.144,1.144,0,0,0-1.144,1.151,1.154,1.154,0,0,0,1.155,1.151Z" transform="translate(1123.706 1538.078)"/>
  <path id="Trazado_282" data-name="Trazado 282" d="M-1052-1491.742a1.15,1.15,0,0,0,1.151-1.151,1.15,1.15,0,0,0-1.151-1.151h-.011a1.144,1.144,0,0,0-1.144,1.151,1.154,1.154,0,0,0,1.155,1.151Z" transform="translate(1111.825 1538.078)"/>
  <path id="Trazado_283" data-name="Trazado 283" d="M-1132.5-1458.261h-18.41a4.609,4.609,0,0,0-4.6,4.6,4.609,4.609,0,0,0,4.6,4.6h18.408l.01,0a4.606,4.606,0,0,0,4.593-4.6A4.607,4.607,0,0,0-1132.5-1458.261Zm0,6.9h-18.413a2.3,2.3,0,0,1-2.3-2.3,2.3,2.3,0,0,1,2.3-2.3h18.41a2.3,2.3,0,0,1,2.3,2.3A2.3,2.3,0,0,1-1132.5-1451.358Z" transform="translate(1191.14 1510.351)"/>
  <path id="Trazado_284" data-name="Trazado 284" d="M-1115-1442.929H-1128.8a1.149,1.149,0,0,0-1.151,1.151,1.149,1.149,0,0,0,1.151,1.151H-1115a1.149,1.149,0,0,0,1.151-1.151A1.149,1.149,0,0,0-1115-1442.929Z" transform="translate(1171.334 1498.47)"/>
  <path id="Trazado_285" data-name="Trazado 285" d="M-1221.564-1676.715h-4.853v-12.942h-74.413v12.942h-4.853a8.1,8.1,0,0,0-8.088,8.088v55a8.1,8.1,0,0,0,8.088,8.089h26.873l-2.156,6.471h-8.54a3.239,3.239,0,0,0-3.235,3.235v3.235a3.239,3.239,0,0,0,3.235,3.235h51.766a3.239,3.239,0,0,0,3.235-3.235v-3.235a3.239,3.239,0,0,0-3.235-3.235h-8.54l-2.156-6.471h26.873a8.1,8.1,0,0,0,8.089-8.089v-55A8.1,8.1,0,0,0-1221.564-1676.715Zm0,3.235a4.859,4.859,0,0,1,4.853,4.853v46.913h-3.235v-45.3a3.239,3.239,0,0,0-3.235-3.235h-3.236v-3.235Zm-1.618,51.766h-3.236v-45.3h3.236Zm-6.471-64.708v64.708H-1297.6v-64.708Zm-71.178,64.708h-3.235v-45.3h3.235Zm-4.853-51.766h4.853v3.235h-3.235a3.239,3.239,0,0,0-3.235,3.235v45.3h-3.235v-46.913A4.859,4.859,0,0,1-1305.684-1673.48Zm67.944,80.885h-51.767v-3.235h51.766Zm-11.953-6.471h-27.863l2.156-6.471h23.55Zm28.128-9.706h-84.12a4.859,4.859,0,0,1-4.853-4.853v-4.853h93.826v4.853A4.859,4.859,0,0,1-1221.564-1608.772Z" transform="translate(1313.772 1689.657)"/>
  <path id="Trazado_286" data-name="Trazado 286" d="M-1112.559-1359.092h9.706v3.235h-9.706Z" transform="translate(1157.854 1433.506)"/>
  <path id="Trazado_287" data-name="Trazado 287" d="M-1055.069-1359.092h3.235v3.235h-3.235Z" transform="translate(1113.306 1433.506)"/>
  <path id="Trazado_288" data-name="Trazado 288" d="M-1141.3-1359.092h3.235v3.235h-3.235Z" transform="translate(1180.128 1433.506)"/>
</svg>
