<?xml version="1.0" encoding="utf-8"?>
<!-- Generator: Adobe Illustrator 16.0.0, SVG Export Plug-In . SVG Version: 6.00 Build 0)  -->
<!DOCTYPE svg PUBLIC "-//W3C//DTD SVG 1.1//EN" "http://www.w3.org/Graphics/SVG/1.1/DTD/svg11.dtd">
<svg version="1.1" id="Capa_1" xmlns="http://www.w3.org/2000/svg" xmlns:xlink="http://www.w3.org/1999/xlink" x="0px" y="0px"
	 width="512px" height="512px" viewBox="0 0 512 512" enable-background="new 0 0 512 512" xml:space="preserve">
<g>
	<path fill="#729ABC" d="M249.998,357.027c-12.133,0-22.004,9.871-22.004,22.005v12.003c0,12.133,9.871,22.004,22.004,22.004
		c12.134,0,22.005-9.871,22.005-22.004v-12.003C272.003,366.898,262.132,357.027,249.998,357.027z"/>
	<path fill="#729ABC" d="M256,1.135C115.466,1.135,1.134,115.467,1.134,256c0,140.533,114.333,254.865,254.866,254.865
		c140.534,0,254.866-114.332,254.866-254.866C510.866,115.467,396.534,1.135,256,1.135z M256,466.857
		c-116.267,0-210.856-94.59-210.856-210.857c0-116.267,94.59-210.856,210.856-210.856c116.268,0,210.857,94.59,210.857,210.856
		C466.857,372.268,372.268,466.857,256,466.857z"/>
	<path fill="#729ABC" d="M252.099,98.061c-49.167,0-72.816,26.659-83.999,49.023c-11.691,23.383-11.826,45.567-11.826,46.5
		c0,11.803,9.737,21.405,21.705,21.405h0.225v-0.001c12.231-0.114,21.78-9.474,21.779-21.315c0.003-0.136,0.396-13.717,7.081-26.807
		c8.342-16.685,22.975-24.796,44.735-24.796c20.623,0,35.817,5.583,43.96,16.167c6.701,8.578,8.574,20.574,5.277,33.761
		c-4.133,16.256-18.544,30.956-32.479,45.17l-2.3,2.361c-18.074,18.662-36.763,37.958-36.763,64.482
		c0,12.134,9.872,22.006,22.005,22.006c12.134,0,22.005-9.872,22.005-22.006c0-9.446,13.566-23.012,25.56-35.005l0.103-0.104
		c17.473-17.778,37.276-37.928,44.423-65.891c6.938-26.176,2.189-52.279-13.002-71.585
		C318.854,116.205,295.713,98.061,252.099,98.061z"/>
</g>
</svg>
