<?xml version="1.0" encoding="utf-8"?>
<!-- Generator: Adobe Illustrator 16.0.0, SVG Export Plug-In . SVG Version: 6.00 Build 0)  -->
<!DOCTYPE svg PUBLIC "-//W3C//DTD SVG 1.1//EN" "http://www.w3.org/Graphics/SVG/1.1/DTD/svg11.dtd">
<svg version="1.1" id="Layer_1" xmlns="http://www.w3.org/2000/svg" xmlns:xlink="http://www.w3.org/1999/xlink" x="0px" y="0px"
	 width="53px" height="46px" viewBox="0 0 53 46" enable-background="new 0 0 53 46" xml:space="preserve">
<g>
	<path fill="#85FF85" d="M43.228,24.285c-0.71,10.413-9.728,18.28-20.14,17.57c-10.415-0.71-18.28-9.729-17.57-20.142
		s9.728-18.28,20.142-17.57c2.842,0.194,5.495,1.007,7.835,2.297l3.411-2.73c-3.179-2.069-6.916-3.38-10.968-3.656
		C13.265-0.811,2.291,8.762,1.426,21.435c-0.864,12.673,8.708,23.646,21.381,24.511c12.673,0.864,23.646-8.708,24.511-21.381
		c0.103-1.525,0.057-3.024-0.129-4.484L43.228,24.285z"/>
	<path fill="#85FF85" d="M50.733,3.025c-1.153-1.155-3.169-1.156-4.325,0L23.797,25.67l-6.178-6.178
		c-0.578-0.578-1.346-0.896-2.163-0.896c-0.818,0-1.585,0.318-2.163,0.896c-0.578,0.578-0.896,1.347-0.896,2.164
		c0,0.816,0.318,1.585,0.896,2.164L23.743,34.2l2.236-2.057L50.733,7.351C51.926,6.158,51.926,4.217,50.733,3.025z"/>
</g>
</svg>
