<svg xmlns="http://www.w3.org/2000/svg" width="115.257" height="100.857" viewBox="0 0 115.257 100.857">
  <g id="Grupo_80" data-name="Grupo 80" transform="translate(0 0)">
    <g id="Grupo_38" data-name="Grupo 38">
      <path id="Trazado_192" data-name="Trazado 192" d="M-564.17-1695.986H-668.621a5.409,5.409,0,0,0-5.4,5.4v93.653a1.8,1.8,0,0,0,1.8,1.8h111.655a1.8,1.8,0,0,0,1.8-1.8v-93.653A5.409,5.409,0,0,0-564.17-1695.986Zm-106.252,10.805h108.053v86.45H-670.422Zm1.8-7.2h1.837a1.792,1.792,0,0,0-1.79,1.8,1.808,1.808,0,0,0,1.81,1.8,1.8,1.8,0,0,0,1.8-1.8,1.8,1.8,0,0,0-1.8-1.8h5.381a1.792,1.792,0,0,0-1.79,1.8,1.808,1.808,0,0,0,1.81,1.8,1.8,1.8,0,0,0,1.8-1.8,1.8,1.8,0,0,0-1.8-1.8h5.388a1.792,1.792,0,0,0-1.79,1.8,1.808,1.808,0,0,0,1.81,1.8,1.8,1.8,0,0,0,1.8-1.8,1.8,1.8,0,0,0-1.8-1.8h91.786a1.8,1.8,0,0,1,1.8,1.8v1.8H-670.422v-1.8A1.8,1.8,0,0,1-668.621-1692.384Z" transform="translate(674.024 1695.986)"/>
      <path id="Trazado_193" data-name="Trazado 193" d="M-613.212-1631.986h-27.011a1.8,1.8,0,0,0-1.8,1.8v34.213a1.8,1.8,0,0,0,1.8,1.8h27.011a1.8,1.8,0,0,0,1.8-1.8v-34.213A1.8,1.8,0,0,0-613.212-1631.986Zm-1.8,34.213h-23.41v-30.611h23.41Z" transform="translate(649.228 1646.393)"/>
      <path id="Trazado_194" data-name="Trazado 194" d="M-608.247-1508.384h5.4a1.8,1.8,0,0,0,1.8-1.8,1.8,1.8,0,0,0-1.8-1.8h-5.4a1.8,1.8,0,0,0-1.8,1.8A1.8,1.8,0,0,0-608.247-1508.384Z" transform="translate(624.45 1553.406)"/>
      <path id="Trazado_195" data-name="Trazado 195" d="M-556.633-1518.185a1.8,1.8,0,0,0-1.8-1.8h-1.8c-.02,0-.036.011-.054.011a1.752,1.752,0,0,0-.353.072,1.914,1.914,0,0,0-.342.092.491.491,0,0,0-.054.014,1.609,1.609,0,0,0-.205.16,1.744,1.744,0,0,0-.3.236,1.807,1.807,0,0,0-.193.286,1.822,1.822,0,0,0-.166.3,1.691,1.691,0,0,0-.077.382,1.658,1.658,0,0,0-.05.25c0,.02.011.036.011.054a1.8,1.8,0,0,0,.072.355,1.658,1.658,0,0,0,.094.342.484.484,0,0,0,.014.054l.654,1.309a1.773,1.773,0,0,0-.845,1.488,1.8,1.8,0,0,0,1.8,1.8h1.8a1.781,1.781,0,0,0,.632-.128c.036-.013.068-.021.1-.036s.047-.014.07-.025a1.619,1.619,0,0,0,.205-.16,1.947,1.947,0,0,0,.3-.236,1.689,1.689,0,0,0,.191-.286,1.662,1.662,0,0,0,.167-.3,1.694,1.694,0,0,0,.077-.38,1.691,1.691,0,0,0,.05-.252c0-.02-.011-.036-.011-.054a1.755,1.755,0,0,0-.072-.353,1.651,1.651,0,0,0-.094-.342.466.466,0,0,0-.014-.054l-.654-1.309a1.774,1.774,0,0,0,.841-1.488Z" transform="translate(587.243 1559.605)"/>
      <path id="Trazado_196" data-name="Trazado 196" d="M-461.212-1631.986h-27.011a1.8,1.8,0,0,0-1.8,1.8v34.213a1.8,1.8,0,0,0,1.8,1.8h27.011a1.8,1.8,0,0,0,1.8-1.8v-34.213A1.8,1.8,0,0,0-461.212-1631.986Zm-1.8,34.213h-23.41v-30.611h23.41Z" transform="translate(531.444 1646.393)"/>
      <path id="Trazado_197" data-name="Trazado 197" d="M-456.247-1508.384h5.4a1.8,1.8,0,0,0,1.8-1.8,1.8,1.8,0,0,0-1.8-1.8h-5.4a1.8,1.8,0,0,0-1.8,1.8A1.8,1.8,0,0,0-456.247-1508.384Z" transform="translate(506.667 1553.406)"/>
      <path id="Trazado_198" data-name="Trazado 198" d="M-404.633-1518.185a1.8,1.8,0,0,0-1.8-1.8h-1.8c-.02,0-.036.011-.054.011a1.769,1.769,0,0,0-.355.072,1.9,1.9,0,0,0-.34.092.493.493,0,0,0-.054.014,1.607,1.607,0,0,0-.205.16,1.743,1.743,0,0,0-.3.236,1.805,1.805,0,0,0-.193.286,1.82,1.82,0,0,0-.166.3,1.689,1.689,0,0,0-.077.382,1.662,1.662,0,0,0-.05.25c0,.02.011.036.011.054a1.8,1.8,0,0,0,.072.355,1.656,1.656,0,0,0,.094.342.477.477,0,0,0,.014.054l.654,1.309a1.773,1.773,0,0,0-.845,1.488,1.8,1.8,0,0,0,1.8,1.8h1.8a1.781,1.781,0,0,0,.632-.128c.036-.013.068-.021.1-.036s.047-.014.07-.025a1.617,1.617,0,0,0,.205-.16,1.95,1.95,0,0,0,.3-.236,1.687,1.687,0,0,0,.191-.286,1.659,1.659,0,0,0,.167-.3,1.692,1.692,0,0,0,.077-.38,1.683,1.683,0,0,0,.05-.252c0-.02-.011-.036-.011-.054a1.755,1.755,0,0,0-.072-.353,1.653,1.653,0,0,0-.094-.342.472.472,0,0,0-.014-.054l-.654-1.309a1.774,1.774,0,0,0,.841-1.488Z" transform="translate(469.459 1559.605)"/>
      <path id="Trazado_199" data-name="Trazado 199" d="M-613.212-1447.986h-27.011a1.8,1.8,0,0,0-1.8,1.8v34.213a1.8,1.8,0,0,0,1.8,1.8h27.011a1.8,1.8,0,0,0,1.8-1.8v-34.213A1.8,1.8,0,0,0-613.212-1447.986Zm-1.8,34.213h-23.41v-30.611h23.41Z" transform="translate(649.228 1503.813)"/>
      <path id="Trazado_200" data-name="Trazado 200" d="M-608.247-1324.384h5.4a1.8,1.8,0,0,0,1.8-1.8,1.8,1.8,0,0,0-1.8-1.8h-5.4a1.8,1.8,0,0,0-1.8,1.8A1.8,1.8,0,0,0-608.247-1324.384Z" transform="translate(624.45 1410.827)"/>
      <path id="Trazado_201" data-name="Trazado 201" d="M-556.639-1334.185a1.8,1.8,0,0,0-1.8-1.8h-1.8a.532.532,0,0,0-.058.013,1.868,1.868,0,0,0-.337.067,1.7,1.7,0,0,0-.358.1c-.016.007-.036.005-.052.015a1.583,1.583,0,0,0-.2.158,1.663,1.663,0,0,0-.306.24,1.765,1.765,0,0,0-.191.283,1.845,1.845,0,0,0-.167.3,1.814,1.814,0,0,0-.077.382,1.683,1.683,0,0,0-.05.252c0,.02.011.036.011.054a1.754,1.754,0,0,0,.072.353,1.656,1.656,0,0,0,.094.342.484.484,0,0,0,.014.054l.654,1.309a1.775,1.775,0,0,0-.845,1.487,1.8,1.8,0,0,0,1.8,1.8h1.8l.011,0a1.785,1.785,0,0,0,.744-.176c.016-.009.034-.005.049-.013a1.751,1.751,0,0,0,.2-.158,1.721,1.721,0,0,0,.3-.24,1.78,1.78,0,0,0,.191-.283,1.945,1.945,0,0,0,.169-.3,1.78,1.78,0,0,0,.076-.38,1.685,1.685,0,0,0,.05-.252c0-.02-.011-.036-.011-.054a1.714,1.714,0,0,0-.072-.351,1.72,1.72,0,0,0-.094-.346c-.007-.016-.005-.036-.014-.052l-.654-1.309A1.769,1.769,0,0,0-556.639-1334.185Z" transform="translate(587.249 1417.026)"/>
      <path id="Trazado_202" data-name="Trazado 202" d="M-461.212-1447.986h-27.011a1.8,1.8,0,0,0-1.8,1.8v34.213a1.8,1.8,0,0,0,1.8,1.8h27.011a1.8,1.8,0,0,0,1.8-1.8v-34.213A1.8,1.8,0,0,0-461.212-1447.986Zm-1.8,34.213h-23.41v-30.611h23.41Z" transform="translate(531.444 1503.813)"/>
      <path id="Trazado_203" data-name="Trazado 203" d="M-456.247-1324.384h5.4a1.8,1.8,0,0,0,1.8-1.8,1.8,1.8,0,0,0-1.8-1.8h-5.4a1.8,1.8,0,0,0-1.8,1.8A1.8,1.8,0,0,0-456.247-1324.384Z" transform="translate(506.667 1410.827)"/>
      <path id="Trazado_204" data-name="Trazado 204" d="M-404.639-1334.185a1.8,1.8,0,0,0-1.8-1.8h-1.8a.534.534,0,0,0-.058.013,1.919,1.919,0,0,0-.339.067,1.715,1.715,0,0,0-.357.1c-.016.007-.036.005-.052.015a1.583,1.583,0,0,0-.2.158,1.66,1.66,0,0,0-.306.24,1.765,1.765,0,0,0-.191.283,1.848,1.848,0,0,0-.167.3,1.814,1.814,0,0,0-.077.382,1.687,1.687,0,0,0-.05.252c0,.02.011.036.011.054a1.754,1.754,0,0,0,.072.353,1.654,1.654,0,0,0,.094.342.477.477,0,0,0,.014.054l.654,1.309a1.775,1.775,0,0,0-.845,1.487,1.8,1.8,0,0,0,1.8,1.8h1.8l.011,0a1.785,1.785,0,0,0,.744-.176c.016-.009.034-.005.049-.013a1.754,1.754,0,0,0,.2-.158,1.722,1.722,0,0,0,.3-.24,1.774,1.774,0,0,0,.191-.283,1.942,1.942,0,0,0,.169-.3,1.778,1.778,0,0,0,.076-.38,1.688,1.688,0,0,0,.05-.252c0-.02-.011-.036-.011-.054a1.714,1.714,0,0,0-.072-.351,1.72,1.72,0,0,0-.094-.346c-.007-.016-.005-.036-.014-.052l-.654-1.309A1.769,1.769,0,0,0-404.639-1334.185Z" transform="translate(469.466 1417.026)"/>
      <path id="Trazado_205" data-name="Trazado 205" d="M-307.411-1631.986h-28.812a1.8,1.8,0,0,0-1.8,1.8v75.635a1.8,1.8,0,0,0,1.8,1.8h28.812a1.8,1.8,0,0,0,1.8-1.8v-75.635A1.8,1.8,0,0,0-307.411-1631.986Zm-1.8,75.635h-25.211v-72.034h25.211Z" transform="translate(413.661 1646.393)"/>
      <path id="Trazado_206" data-name="Trazado 206" d="M-303.982-1503.938H-304a1.792,1.792,0,0,0-1.79,1.8,1.808,1.808,0,0,0,1.81,1.8,1.8,1.8,0,0,0,1.8-1.8A1.8,1.8,0,0,0-303.982-1503.938Z" transform="translate(388.685 1547.17)"/>
      <path id="Trazado_207" data-name="Trazado 207" d="M-271.2-1503.938h-8.994a1.8,1.8,0,0,0-1.8,1.8,1.8,1.8,0,0,0,1.8,1.8h8.994a1.8,1.8,0,0,0,1.8-1.8A1.8,1.8,0,0,0-271.2-1503.938Z" transform="translate(370.243 1547.17)"/>
      <path id="Trazado_208" data-name="Trazado 208" d="M-303.982-1527.946H-304a1.792,1.792,0,0,0-1.79,1.8,1.808,1.808,0,0,0,1.81,1.8,1.8,1.8,0,0,0,1.8-1.8A1.8,1.8,0,0,0-303.982-1527.946Z" transform="translate(388.685 1565.774)"/>
      <path id="Trazado_209" data-name="Trazado 209" d="M-271.2-1527.946h-8.994a1.8,1.8,0,0,0-1.8,1.8,1.8,1.8,0,0,0,1.8,1.8h8.994a1.8,1.8,0,0,0,1.8-1.8A1.8,1.8,0,0,0-271.2-1527.946Z" transform="translate(370.243 1565.774)"/>
      <path id="Trazado_210" data-name="Trazado 210" d="M-304.223-1596.368h14.4a1.8,1.8,0,0,0,1.8-1.8,1.8,1.8,0,0,0-1.8-1.8h-14.4a1.8,1.8,0,0,0-1.8,1.8A1.8,1.8,0,0,0-304.223-1596.368Z" transform="translate(388.865 1621.584)"/>
      <path id="Trazado_211" data-name="Trazado 211" d="M-288.231-1572.352h7.2a1.8,1.8,0,0,0,1.8-1.8,1.8,1.8,0,0,0-1.8-1.8h-7.2a1.8,1.8,0,0,0-1.8,1.8A1.8,1.8,0,0,0-288.231-1572.352Z" transform="translate(376.473 1602.975)"/>
      <path id="Trazado_212" data-name="Trazado 212" d="M-303.982-1455.93H-304a1.791,1.791,0,0,0-1.79,1.8,1.807,1.807,0,0,0,1.81,1.8,1.8,1.8,0,0,0,1.8-1.8A1.8,1.8,0,0,0-303.982-1455.93Z" transform="translate(388.685 1509.969)"/>
      <path id="Trazado_213" data-name="Trazado 213" d="M-271.2-1455.93h-8.994a1.8,1.8,0,0,0-1.8,1.8,1.8,1.8,0,0,0,1.8,1.8h8.994a1.8,1.8,0,0,0,1.8-1.8A1.8,1.8,0,0,0-271.2-1455.93Z" transform="translate(370.243 1509.969)"/>
      <path id="Trazado_214" data-name="Trazado 214" d="M-303.982-1479.954H-304a1.792,1.792,0,0,0-1.79,1.8,1.808,1.808,0,0,0,1.81,1.8,1.8,1.8,0,0,0,1.8-1.8,1.8,1.8,0,0,0-1.8-1.8Z" transform="translate(388.685 1528.585)"/>
      <path id="Trazado_215" data-name="Trazado 215" d="M-271.2-1479.954h-8.994a1.8,1.8,0,0,0-1.8,1.8,1.8,1.8,0,0,0,1.8,1.8h8.994a1.8,1.8,0,0,0,1.8-1.8,1.8,1.8,0,0,0-1.8-1.8Z" transform="translate(370.243 1528.585)"/>
      <path id="Trazado_216" data-name="Trazado 216" d="M-303.982-1407.914H-304a1.791,1.791,0,0,0-1.79,1.8,1.807,1.807,0,0,0,1.81,1.8,1.8,1.8,0,0,0,1.8-1.8A1.8,1.8,0,0,0-303.982-1407.914Z" transform="translate(388.685 1472.762)"/>
      <path id="Trazado_217" data-name="Trazado 217" d="M-271.2-1407.914h-8.994a1.8,1.8,0,0,0-1.8,1.8,1.8,1.8,0,0,0,1.8,1.8h8.994a1.8,1.8,0,0,0,1.8-1.8A1.8,1.8,0,0,0-271.2-1407.914Z" transform="translate(370.243 1472.762)"/>
      <path id="Trazado_218" data-name="Trazado 218" d="M-303.982-1431.93H-304a1.791,1.791,0,0,0-1.79,1.8,1.807,1.807,0,0,0,1.81,1.8,1.8,1.8,0,0,0,1.8-1.8A1.8,1.8,0,0,0-303.982-1431.93Z" transform="translate(388.685 1491.372)"/>
      <path id="Trazado_219" data-name="Trazado 219" d="M-271.2-1431.93h-8.994a1.8,1.8,0,0,0-1.8,1.8,1.8,1.8,0,0,0,1.8,1.8h8.994a1.8,1.8,0,0,0,1.8-1.8A1.8,1.8,0,0,0-271.2-1431.93Z" transform="translate(370.243 1491.372)"/>
      <path id="Trazado_220" data-name="Trazado 220" d="M-301.53-1342.99h9.008a4.506,4.506,0,0,0,4.5-4.5,4.506,4.506,0,0,0-4.5-4.5h-9.008a4.506,4.506,0,0,0-4.5,4.5A4.506,4.506,0,0,0-301.53-1342.99Zm9.008-5.4a.9.9,0,0,1,.9.9.9.9,0,0,1-.9.9h-9.008a.9.9,0,0,1-.9-.9.9.9,0,0,1,.9-.9Z" transform="translate(388.871 1429.43)"/>
      <g id="Grupo_4" data-name="Grupo 4" transform="translate(15.145 20.548)">
        <g id="Grupo_3" data-name="Grupo 3" transform="translate(0)">
          <g id="Grupo_2" data-name="Grupo 2">
            <path id="Trazado_221" data-name="Trazado 221" d="M-594.373-1598.743v-.436a1.579,1.579,0,0,0-.708-1.316,1.579,1.579,0,0,0,.708-1.316v-1.316a1.581,1.581,0,0,0-1.579-1.579h-9.213a1.581,1.581,0,0,0-1.579,1.579v1.316a1.579,1.579,0,0,0,.708,1.316,1.579,1.579,0,0,0-.708,1.316v1.316a1.58,1.58,0,0,0,.708,1.316,1.579,1.579,0,0,0-.708,1.316v1.316a1.581,1.581,0,0,0,1.579,1.579h4.385a5.269,5.269,0,0,0,5.091,3.948,5.27,5.27,0,0,0,5.264-5.264A5.269,5.269,0,0,0-594.373-1598.743Zm2.426,2.2a4.71,4.71,0,0,1,.99,2.781l-.583-.583a4.2,4.2,0,0,0-1.1-2.2Zm-.474-.526h-.822a4.182,4.182,0,0,0-2.342-.785l.49-.49A4.718,4.718,0,0,1-592.421-1597.073Zm-2.516-2.369h-2.657l.947-.79h.695A1.052,1.052,0,0,1-594.937-1599.443Zm-5.691-1.316h-2.336l-.948-.79h2.336Zm-.125-.79h2.336l.947.79h-2.336Zm.948,1.316h2.336l-.947.79h-2.336Zm3.853-.526h-.695l-.947-.79h2.657A1.052,1.052,0,0,1-595.952-1600.759Zm-1.517-3.422-.947.79h-2.336l.948-.79Zm-3.159,0-.948.79h-2.336l.948-.79Zm-4.538,0h1.379l-.947.79h-1.447A1.052,1.052,0,0,1-605.165-1604.181Zm-1.053,1.316h8.95v-.526h-.326l.948-.79h.694a1.052,1.052,0,0,1,1.015.79h-.752v.527h.79v.789h-11.319Zm.037,1.316h1.447l.947.79h-1.379A1.052,1.052,0,0,1-606.18-1601.548Zm1.016,1.316h1.379l-.947.79h-1.447A1.052,1.052,0,0,1-605.165-1600.232Zm-1.053,1.316h1.675l1.579-1.316h2.336l-.948.79h-.168v.526h6.844v.066a5.247,5.247,0,0,0-.79-.066,5.225,5.225,0,0,0-2.759.79h-7.769Zm10.414.532-.583.583a4.2,4.2,0,0,0-2.2,1.1v-.692A4.707,4.707,0,0,1-595.8-1598.384Zm-4.949.784h1.594a5.289,5.289,0,0,0-.7.746Zm.125.79h-2.336l-.948-.79h2.336Zm1.517-.109v.822a4.18,4.18,0,0,0-.784,2.342l-.49-.49A4.718,4.718,0,0,1-599.111-1596.92Zm-7.07-.68h1.447l.947.79h-1.379A1.052,1.052,0,0,1-606.18-1597.6Zm1.016,1.316h1.379l-.947.79h-1.447A1.052,1.052,0,0,1-605.165-1596.284Zm0,3.422a1.052,1.052,0,0,1-1.016-.79h1.447l.947.79Zm4.385-2.106a5.244,5.244,0,0,0-.173,1.316,5.225,5.225,0,0,0,.066.79h-2.076l-.948-.79h1.642v-.527h-3.948v-.79h3.948v-.526h-1.642l.948-.789h2.723a5.264,5.264,0,0,0-.373.789h-1.129v.526Zm1.349,4.212a4.708,4.708,0,0,1-.99-2.781l.583.584a4.2,4.2,0,0,0,1.1,2.2Zm3.148,1.8a4.718,4.718,0,0,1-2.674-1.275h.822a4.182,4.182,0,0,0,2.342.784Zm-3.091-4.7a3.689,3.689,0,0,1,3.685-3.685,3.689,3.689,0,0,1,3.685,3.685,3.689,3.689,0,0,1-3.685,3.685A3.689,3.689,0,0,1-599.374-1593.652Zm6.58,3.742a4.708,4.708,0,0,1-2.781.99l.583-.583a4.194,4.194,0,0,0,2.2-1.1Zm.527-.474v-.822a4.18,4.18,0,0,0,.784-2.342l.491.49A4.72,4.72,0,0,1-592.267-1590.384Z" transform="translate(606.744 1604.707)"/>
            <path id="Trazado_222" data-name="Trazado 222" d="M-564.063-1564.657a2.635,2.635,0,0,0-2.632-2.632,2.635,2.635,0,0,0-2.632,2.632,2.635,2.635,0,0,0,2.632,2.632A2.635,2.635,0,0,0-564.063-1564.657Zm-4.738,0a2.108,2.108,0,0,1,2.106-2.106,2.108,2.108,0,0,1,2.106,2.106,2.108,2.108,0,0,1-2.106,2.106A2.108,2.108,0,0,1-568.8-1564.657Z" transform="translate(577.75 1575.712)"/>
            <rect id="Rectángulo_1" data-name="Rectángulo 1" width="0.526" height="0.526" transform="translate(10.002 1.316)"/>
            <rect id="Rectángulo_2" data-name="Rectángulo 2" width="0.526" height="0.526" transform="translate(3.948 5.264)"/>
            <rect id="Rectángulo_3" data-name="Rectángulo 3" width="0.526" height="0.526" transform="translate(2.906 5.264)"/>
            <path id="Trazado_223" data-name="Trazado 223" d="M-557.634-1545.272v.526a3.415,3.415,0,0,0,2.281-.872l-.351-.392A2.89,2.89,0,0,1-557.634-1545.272Z" transform="translate(568.689 1559.223)"/>
            <rect id="Rectángulo_4" data-name="Rectángulo 4" width="0.526" height="0.526" transform="translate(5.001 10.529)"/>
            <path id="Trazado_224" data-name="Trazado 224" d="M-582.68-1543.3l-.462.253a6.92,6.92,0,0,0,1.9,2.19l.316-.421A6.391,6.391,0,0,1-582.68-1543.3Z" transform="translate(588.455 1557.12)"/>
          </g>
        </g>
      </g>
      <g id="Grupo_7" data-name="Grupo 7" transform="translate(48.848 20.167)">
        <g id="Grupo_6" data-name="Grupo 6" transform="translate(0)">
          <g id="Grupo_5" data-name="Grupo 5">
            <path id="Trazado_225" data-name="Trazado 225" d="M-440.532-1594.4v-2.128h-1.6v-1.6h-2.661v1.6h-7.982v-1.6h-2.661v1.6h-1.6v2.128h1.064v8.513h-1.064v2.128h16.5v-2.128H-441.6v-8.513Zm-.532,9.046v1.064h-15.431v-1.064h15.431Zm-1.064-.532h-13.3v-8.513h13.3v8.513Zm.532-9.046h-14.9V-1596h1.6v-1.6h1.6v1.6h9.046v-1.6h1.6v1.6h1.6v1.064Z" transform="translate(457.027 1599.987)"/>
            <rect id="Rectángulo_5" data-name="Rectángulo 5" width="6.385" height="0.532" transform="translate(5.055 2.394)"/>
            <path id="Trazado_226" data-name="Trazado 226" d="M-443.2-1569.026l1.322-1.323h6.541v-.532h-6.009l2.661-2.661h-2.45l.931-1.064h4.868v-.532h-4.4l.466-.532h-2.879l-.266.532h-5.157v.532h4.891l-1.33,2.66h1.909l-.414,1.1v-.04h-5.055v.532h4.87Zm.047-3.451,1.33-2.66h1.378l-1.862,2.129h2.338l-1.87,1.87.5-1.338Z" transform="translate(449.7 1582.587)"/>
            <rect id="Rectángulo_6" data-name="Rectángulo 6" width="1.596" height="0.532" transform="translate(2.128 0.532)"/>
            <path id="Trazado_227" data-name="Trazado 227" d="M-399.765-1604.8h.532v-.532h.532v-.532h-.532v-.532h-.532v.532h-.532v.532h.532Z" transform="translate(413.068 1606.398)"/>
            <rect id="Rectángulo_7" data-name="Rectángulo 7" width="0.532" height="0.532" transform="translate(2.128 6.119)"/>
            <rect id="Rectángulo_8" data-name="Rectángulo 8" width="0.532" height="0.532" transform="translate(3.193 6.119)"/>
            <rect id="Rectángulo_9" data-name="Rectángulo 9" width="0.532" height="0.532" transform="translate(2.128 13.036)"/>
            <rect id="Rectángulo_10" data-name="Rectángulo 10" width="0.532" height="0.532" transform="translate(13.835 6.119)"/>
            <rect id="Rectángulo_11" data-name="Rectángulo 11" width="0.532" height="0.532" transform="translate(12.77 6.119)"/>
          </g>
        </g>
      </g>
      <path id="Trazado_228" data-name="Trazado 228" d="M-576.945-1388.054a.854.854,0,0,0,.853-.853.854.854,0,0,0-.853-.853.854.854,0,0,0-.853.853A.854.854,0,0,0-576.945-1388.054Zm0-1.137a.285.285,0,0,1,.284.284.285.285,0,0,1-.284.285.285.285,0,0,1-.285-.285A.285.285,0,0,1-576.945-1389.191Z" transform="translate(599.459 1458.695)"/>
      <path id="Trazado_229" data-name="Trazado 229" d="M-576.945-1403.214a.854.854,0,0,0,.853-.854.854.854,0,0,0-.853-.853.854.854,0,0,0-.853.853A.854.854,0,0,0-576.945-1403.214Zm0-1.138a.285.285,0,0,1,.284.284.285.285,0,0,1-.284.285.285.285,0,0,1-.285-.285A.285.285,0,0,1-576.945-1404.352Z" transform="translate(599.459 1470.443)"/>
      <path id="Trazado_230" data-name="Trazado 230" d="M-590.5-1395.748a.847.847,0,0,0,.425.114.853.853,0,0,0,.74-.427.855.855,0,0,0-.312-1.166.855.855,0,0,0-1.166.313.847.847,0,0,0-.085.647.849.849,0,0,0,.4.518Zm.18-.881a.285.285,0,0,1,.247-.142.284.284,0,0,1,.142.038.284.284,0,0,1,.1.388.285.285,0,0,1-.388.1.283.283,0,0,1-.133-.173.283.283,0,0,1,.028-.216Z" transform="translate(609.635 1464.568)"/>
      <path id="Trazado_231" data-name="Trazado 231" d="M-589.648-1380.587a.855.855,0,0,0,.312-1.166.855.855,0,0,0-1.166-.312.855.855,0,0,0-.312,1.166.854.854,0,0,0,.741.426A.85.85,0,0,0-589.648-1380.587Zm-.673-.6a.285.285,0,0,1,.1-.389.285.285,0,0,1,.389.1.285.285,0,0,1-.1.388.285.285,0,0,1-.389-.1Z" transform="translate(609.633 1452.82)"/>
      <path id="Trazado_232" data-name="Trazado 232" d="M-576.945-1374.6a.854.854,0,0,0-.853.853.854.854,0,0,0,.853.853.854.854,0,0,0,.853-.853A.854.854,0,0,0-576.945-1374.6Zm0,1.138a.285.285,0,0,1-.285-.284.285.285,0,0,1,.285-.284.285.285,0,0,1,.284.284A.285.285,0,0,1-576.945-1373.461Z" transform="translate(599.459 1446.947)"/>
      <path id="Trazado_233" data-name="Trazado 233" d="M-563.388-1382.064a.855.855,0,0,0-1.165.313.855.855,0,0,0,.312,1.166h0a.849.849,0,0,0,.425.114.854.854,0,0,0,.741-.426A.855.855,0,0,0-563.388-1382.064Zm-.18.881a.284.284,0,0,1-.389.1.285.285,0,0,1-.1-.389.284.284,0,0,1,.389-.1A.284.284,0,0,1-563.569-1381.183Z" transform="translate(589.285 1452.819)"/>
      <path id="Trazado_234" data-name="Trazado 234" d="M-563.814-1395.633a.847.847,0,0,0,.425-.114.847.847,0,0,0,.4-.518.848.848,0,0,0-.085-.647.854.854,0,0,0-1.166-.312.854.854,0,0,0-.312,1.165A.854.854,0,0,0-563.814-1395.633Zm-.144-1.1a.283.283,0,0,1,.142-.038.284.284,0,0,1,.247.142.283.283,0,0,1,.028.216.282.282,0,0,1-.133.173.285.285,0,0,1-.389-.1.284.284,0,0,1,.1-.388Z" transform="translate(589.285 1464.568)"/>
      <path id="Trazado_235" data-name="Trazado 235" d="M-580.861-1390.832a1.993,1.993,0,0,0,1.991-1.991,1.993,1.993,0,0,0-1.991-1.991,1.993,1.993,0,0,0-1.991,1.991A1.993,1.993,0,0,0-580.861-1390.832Zm0-3.413a1.424,1.424,0,0,1,1.422,1.422,1.424,1.424,0,0,1-1.422,1.422,1.424,1.424,0,0,1-1.422-1.422A1.424,1.424,0,0,1-580.861-1394.245Z" transform="translate(603.376 1462.611)"/>
      <path id="Trazado_236" data-name="Trazado 236" d="M-603.066-1412.5h.569v.569h-.569Z" transform="translate(619.039 1476.316)"/>
      <path id="Trazado_237" data-name="Trazado 237" d="M-603.066-1407.448h.569v.569h-.569Z" transform="translate(619.039 1472.401)"/>
      <path id="Trazado_238" data-name="Trazado 238" d="M-603.066-1402.394h.569v.569h-.569Z" transform="translate(619.039 1468.485)"/>
      <path id="Trazado_239" data-name="Trazado 239" d="M-603.066-1361.965h.569v.569h-.569Z" transform="translate(619.039 1437.157)"/>
      <path id="Trazado_240" data-name="Trazado 240" d="M-603.066-1367.019h.569v.569h-.569Z" transform="translate(619.039 1441.073)"/>
      <path id="Trazado_241" data-name="Trazado 241" d="M-603.066-1372.072h.569v.569h-.569Z" transform="translate(619.039 1444.988)"/>
      <circle id="Elipse_1" data-name="Elipse 1" cx="0.284" cy="0.284" r="0.284" transform="translate(14.836 70.641)"/>
      <circle id="Elipse_2" data-name="Elipse 2" cx="0.284" cy="0.284" r="0.284" transform="translate(14.836 68.366)"/>
      <path id="Trazado_242" data-name="Trazado 242" d="M-604.357-1425.135a8.732,8.732,0,0,0-4.835,1.449V-1424h-1.574l-.286.429a9.211,9.211,0,0,0-1.547,4.978,1.416,1.416,0,0,0-.574,1.135,1.417,1.417,0,0,0,.578,1.137,1.417,1.417,0,0,0-.578,1.138,1.416,1.416,0,0,0,.574,1.135,9.211,9.211,0,0,0,1.547,4.977l.286.429h1.574v-.311a8.733,8.733,0,0,0,4.835,1.449,8.827,8.827,0,0,0,8.816-8.817A8.827,8.827,0,0,0-604.357-1425.135Zm-8.248,7.679a.854.854,0,0,1,.853-.853.854.854,0,0,1,.853.853.854.854,0,0,1-.853.853A.854.854,0,0,1-612.605-1417.456Zm.853,1.422a.854.854,0,0,1,.853.853.854.854,0,0,1-.853.853.854.854,0,0,1-.853-.853A.854.854,0,0,1-611.752-1416.034Zm1.991,6.826h-.7l-.117-.176a8.641,8.641,0,0,1-1.442-4.4,1.419,1.419,0,0,0,.269.027,1.424,1.424,0,0,0,1.422-1.422,1.417,1.417,0,0,0-.578-1.138,1.416,1.416,0,0,0,.578-1.137,1.423,1.423,0,0,0-1.422-1.422,1.4,1.4,0,0,0-.269.027,8.642,8.642,0,0,1,1.442-4.4l.117-.176h.7Zm5.4,1.138a8.173,8.173,0,0,1-4.835-1.571v-4.278a5.4,5.4,0,0,0,4.835,3.005,5.41,5.41,0,0,0,5.4-5.4,5.41,5.41,0,0,0-5.4-5.4,5.4,5.4,0,0,0-4.835,3.005V-1423a8.172,8.172,0,0,1,4.835-1.571,8.257,8.257,0,0,1,8.248,8.248A8.257,8.257,0,0,1-604.357-1408.071Zm-4.835-8.248a4.84,4.84,0,0,1,4.835-4.835,4.84,4.84,0,0,1,4.835,4.835,4.84,4.84,0,0,1-4.835,4.835A4.84,4.84,0,0,1-609.192-1416.319Z" transform="translate(626.872 1486.106)"/>
      <path id="Trazado_243" data-name="Trazado 243" d="M-576.393-1357.623l.4-.4.4.4-.4.4Z" transform="translate(598.371 1434.104)"/>
      <path id="Trazado_244" data-name="Trazado 244" d="M-579.965-1361.195l.4-.4.4.4-.4.4Z" transform="translate(601.139 1436.871)"/>
      <path id="Trazado_245" data-name="Trazado 245" d="M-572.825-1354.035l.4-.4.4.4-.4.4Z" transform="translate(595.606 1431.323)"/>
      <path id="Trazado_246" data-name="Trazado 246" d="M-556.3-1359.6l.147-.549.549.147-.147.549Z" transform="translate(582.799 1435.751)"/>
      <path id="Trazado_247" data-name="Trazado 247" d="M-561.2-1360.953l.147-.549.549.147-.147.55Z" transform="translate(586.596 1436.798)"/>
      <path id="Trazado_248" data-name="Trazado 248" d="M-566.063-1362.223l.147-.549.549.147-.147.549Z" transform="translate(590.366 1437.782)"/>
      <path id="Trazado_249" data-name="Trazado 249" d="M-554.966-1370.694l.549-.147.147.55-.549.147Z" transform="translate(581.767 1444.035)"/>
      <path id="Trazado_250" data-name="Trazado 250" d="M-545.2-1373.312l.549-.147.147.549-.549.147Z" transform="translate(574.2 1446.063)"/>
      <path id="Trazado_251" data-name="Trazado 251" d="M-550.083-1372l.549-.147.147.55-.549.147Z" transform="translate(577.983 1445.049)"/>
      <path id="Trazado_252" data-name="Trazado 252" d="M-546.071-1386.765l.4-.4.4.4-.4.4Z" transform="translate(574.875 1456.685)"/>
      <path id="Trazado_253" data-name="Trazado 253" d="M-549.645-1383.191l.4-.4.4.4-.4.4Z" transform="translate(577.644 1453.916)"/>
      <path id="Trazado_254" data-name="Trazado 254" d="M-542.5-1390.337l.4-.4.4.4-.4.4Z" transform="translate(572.106 1459.453)"/>
      <path id="Trazado_255" data-name="Trazado 255" d="M-549.525-1401.348l.147-.549.549.147-.147.55Z" transform="translate(577.551 1468.099)"/>
      <path id="Trazado_256" data-name="Trazado 256" d="M-548.189-1406.21l.147-.549.549.147-.147.55Z" transform="translate(576.516 1471.867)"/>
      <path id="Trazado_257" data-name="Trazado 257" d="M-550.806-1396.446l.147-.549.549.147-.147.549Z" transform="translate(578.544 1464.301)"/>
      <path id="Trazado_258" data-name="Trazado 258" d="M-560.173-1412.837l.549-.147.147.55-.549.147Z" transform="translate(585.802 1476.691)"/>
      <path id="Trazado_259" data-name="Trazado 259" d="M-561.482-1417.719l.549-.147.147.549-.55.147Z" transform="translate(586.816 1480.474)"/>
      <path id="Trazado_260" data-name="Trazado 260" d="M-558.865-1407.956l.549-.147.147.55-.549.147Z" transform="translate(584.788 1472.909)"/>
      <path id="Trazado_261" data-name="Trazado 261" d="M-571.64-1413.512l.4-.4.4.4-.4.4Z" transform="translate(594.688 1477.411)"/>
      <path id="Trazado_262" data-name="Trazado 262" d="M-578.786-1420.659l.4-.4.4.4-.4.4Z" transform="translate(600.225 1482.95)"/>
      <path id="Trazado_263" data-name="Trazado 263" d="M-575.215-1417.086l.4-.4.4.4-.4.4Z" transform="translate(597.458 1480.181)"/>
      <path id="Trazado_264" data-name="Trazado 264" d="M-594.791-1414.32l.147-.55.549.147-.147.549Z" transform="translate(612.627 1478.152)"/>
      <path id="Trazado_265" data-name="Trazado 265" d="M-589.914-1413.017l.147-.549.549.147-.147.549Z" transform="translate(608.848 1477.142)"/>
      <path id="Trazado_266" data-name="Trazado 266" d="M-585.027-1411.7l.147-.549.549.147-.147.55Z" transform="translate(605.061 1476.123)"/>
      <path id="Trazado_267" data-name="Trazado 267" d="M-590.918-1361.913l.549-.147.147.55-.549.147Z" transform="translate(609.626 1437.23)"/>
      <path id="Trazado_268" data-name="Trazado 268" d="M-592.226-1366.794l.549-.147.147.549-.549.147Z" transform="translate(610.64 1441.012)"/>
      <path id="Trazado_269" data-name="Trazado 269" d="M-589.608-1357.03l.549-.147.147.549-.549.147Z" transform="translate(608.611 1433.446)"/>
      <path id="Trazado_270" data-name="Trazado 270" d="M-441.491-1418.873a1.354,1.354,0,0,0-1.353-1.353h-.112l-1.505,1.5-.541-.541-1.765,1.765-.373-.373a1.566,1.566,0,0,0-1.115-.462,1.566,1.566,0,0,0-1.115.462l-1.4,1.4a1.566,1.566,0,0,0-.462,1.115,1.566,1.566,0,0,0,.462,1.115l.373.373-1.511,1.511-.261-.261a1.029,1.029,0,0,0-.732-.3,1.037,1.037,0,0,0-1.036,1.036,1.028,1.028,0,0,0,.3.732l2.425,2.425-.7.7-2.425-2.425a1.029,1.029,0,0,0-.732-.3,1.037,1.037,0,0,0-1.036,1.036,1.028,1.028,0,0,0,.3.733l.261.261-1.217,1.218.541.541-2.052,2.052v.112a1.354,1.354,0,0,0,1.353,1.353h.112l2.052-2.052.541.541,1.217-1.217.373.373a1.565,1.565,0,0,0,1.115.462,1.565,1.565,0,0,0,1.115-.462l1.4-1.4a1.566,1.566,0,0,0,.462-1.115,1.566,1.566,0,0,0-.462-1.115l-.373-.373,1.511-1.511.261.261a1.029,1.029,0,0,0,.733.3,1.037,1.037,0,0,0,1.036-1.036,1.029,1.029,0,0,0-.3-.733l-2.425-2.425.7-.7,2.425,2.425a1.028,1.028,0,0,0,.732.3,1.037,1.037,0,0,0,1.036-1.036,1.029,1.029,0,0,0-.3-.732l-.261-.261,1.765-1.765-.541-.541,1.505-1.505ZM-457.017-1404a.814.814,0,0,1-.7-.7l1.887-1.887.7.7Zm2.811-1.728-1.782-1.782.835-.835,1.782,1.782Zm1.973-.462-3.181-3.181a.491.491,0,0,1-.145-.35.5.5,0,0,1,.495-.495.492.492,0,0,1,.35.145l3.912,3.913a1.061,1.061,0,0,1-1.431-.032Zm1.814-.35-1.105-1.106.7-.7,1.105,1.105Zm1.082-1.083-3.913-3.912a.492.492,0,0,1-.145-.35.5.5,0,0,1,.495-.495.49.49,0,0,1,.35.145l3.181,3.181a1.029,1.029,0,0,1,.3.732A1.028,1.028,0,0,1-449.338-1407.623Zm-.405-2.569-1.782-1.782,1.511-1.511,1.782,1.782Zm3.382-1.6a.5.5,0,0,1-.495.495.492.492,0,0,1-.35-.145l-3.181-3.181a1.029,1.029,0,0,1-.3-.733,1.029,1.029,0,0,1,.271-.7l3.913,3.912a.492.492,0,0,1,.145.35Zm-2.57-3.54-1.105-1.106.7-.7,1.105,1.105Zm4.24,1.87a.492.492,0,0,1-.35-.145l-3.912-3.913a1.06,1.06,0,0,1,1.431.032l3.181,3.181a.492.492,0,0,1,.145.35.5.5,0,0,1-.495.495Zm.089-1.87-1.782-1.782L-445-1418.5l1.782,1.782Zm1.223-2.306-.7-.7,1.34-1.34a.814.814,0,0,1,.7.7Z" transform="translate(506.835 1482.302)"/>
    </g>
  </g>
</svg>
