<?xml version="1.0" encoding="utf-8"?>
<!-- Generator: Adobe Illustrator 16.0.0, SVG Export Plug-In . SVG Version: 6.00 Build 0)  -->
<!DOCTYPE svg PUBLIC "-//W3C//DTD SVG 1.1//EN" "http://www.w3.org/Graphics/SVG/1.1/DTD/svg11.dtd">
<svg version="1.1" id="Layer_1" xmlns="http://www.w3.org/2000/svg" xmlns:xlink="http://www.w3.org/1999/xlink" x="0px" y="0px"
	 width="1275.59px" height="1275.59px" viewBox="0 0 1275.59 1275.59" enable-background="new 0 0 1275.59 1275.59"
	 xml:space="preserve">
<g>
	<g>
		<g>
			<path d="M1196.81,452.623c-21.028,0-40.799,8.188-55.692,23.063l-112.416,112.438V327.189
				c13.126,26.766,20.574,56.042,20.574,84.294h41.149c0-73.121,73.738-185.165,164.591-185.165v-41.149
				c-99.99,0-164.591-64.622-164.591-164.591h-41.149c0,29.544-7.47,56.988-20.574,80.712V61.728
				c0-34.033-27.689-61.728-61.719-61.728H61.728C27.695,0,0.004,27.695,0.004,61.723v1152.144
				c0,34.028,27.694,61.723,61.723,61.723h905.255c34.029,0,61.724-27.694,61.724-61.723V810.903l223.804-223.825
				c14.893-14.854,23.08-34.625,23.08-55.695C1275.59,487.97,1240.265,452.623,1196.81,452.623z M1068.343,114.784
				c19.874,44.091,54.438,77.255,99.7,95.544c-42.177,25.387-75.652,66.99-96.162,110.545
				c-20.574-48.697-56.725-89.292-100.504-113.034C1013.515,188.725,1047.608,155.928,1068.343,114.784z M987.557,1213.862h-0.004
				c0,11.358-9.237,20.574-20.574,20.574H61.728c-11.337,0-20.574-9.216-20.574-20.574V61.723c0-11.359,9.237-20.574,20.574-20.574
				h905.255c11.338,0,20.574,9.215,20.574,20.574v88.096c-28.001,22.16-63.594,35.346-102.871,35.346v41.149
				c39.705,0,75.116,17.507,102.871,44.151v358.812L699.521,917.313V802.388H555.504v144.017H670.43l-6.026,6.027l-2.8,2.799
				l-83.551,194.96l194.938-83.55l214.565-214.588V1213.862z M725.197,1042.32l-68.801,29.482l29.483-68.8L725.197,1042.32z
				 M658.367,843.532v61.723h-61.724v-61.723H658.367z M761.239,1020.182l-53.203-53.203l361.814-361.814l53.203,53.203
				L761.239,1020.182z M1223.41,557.988l-71.267,71.289l-53.203-53.203l71.268-71.268c7.12-7.12,16.561-11.026,26.602-11.026
				c20.76,0,37.632,16.872,37.632,37.61C1234.437,541.303,1230.428,550.972,1223.41,557.988z"/>
			<path d="M267.467,390.904c68.079,0,123.442-55.363,123.442-123.442s-55.363-123.446-123.442-123.446
				c-68.079,0-123.446,55.367-123.446,123.446S199.388,390.904,267.467,390.904z M267.467,185.165
				c45.388,0,82.298,36.91,82.298,82.297s-36.91,82.293-82.298,82.293c-45.387,0-82.302-36.906-82.302-82.293
				S222.08,185.165,267.467,185.165z"/>
			<rect x="164.595" y="432.054" width="164.59" height="41.148"/>
			<path d="M329.186,596.644H185.165V740.66h144.017V596.644H329.186z M288.037,699.516h-61.723v-61.723h61.723V699.516z"/>
			<path d="M185.165,946.404h144.017V802.388H185.165V946.404z M226.314,843.532h61.723v61.723h-61.723V843.532z"/>
			<path d="M699.512,596.648H555.495v144.016h144.017V596.648L699.512,596.648z M658.367,699.516h-61.724v-61.723h61.724V699.516z"
				/>
			<rect x="534.93" y="205.739" width="288.037" height="41.149"/>
			<rect x="534.93" y="329.182" width="370.33" height="41.148"/>
			<rect x="534.93" y="452.628" width="370.33" height="41.148"/>
			<rect x="370.33" y="617.219" width="102.872" height="41.148"/>
			<rect x="370.33" y="699.516" width="102.872" height="41.149"/>
			<rect x="740.669" y="617.219" width="102.872" height="41.148"/>
			<rect x="740.669" y="699.516" width="102.872" height="41.149"/>
			<rect x="370.33" y="864.106" width="102.872" height="41.148"/>
			<rect x="185.165" y="1028.697" width="370.33" height="41.148"/>
			<rect x="185.165" y="1110.995" width="370.33" height="41.148"/>
			<rect x="370.33" y="432.054" width="41.148" height="41.148"/>
			<rect x="905.256" y="1152.144" width="41.148" height="41.148"/>
			<rect x="822.962" y="1152.144" width="41.149" height="41.148"/>
			<rect x="82.297" y="1152.144" width="41.149" height="41.148"/>
		</g>
	</g>
</g>
<path fill="#24B047" d="M308.623,252.114l-45.028,45.028c-1.915,1.915-4.459,2.968-7.167,2.968c-2.707,0-5.252-1.054-7.167-2.968
	l-22.949-22.949c-1.915-1.915-2.969-4.459-2.969-7.167c0-2.708,1.055-5.253,2.969-7.167c1.914-1.915,4.458-2.97,7.167-2.97
	c2.708,0,5.253,1.055,7.167,2.97l15.781,15.781l37.86-37.861c1.915-1.915,4.459-2.968,7.167-2.968s5.252,1.054,7.167,2.968
	C312.575,241.732,312.575,248.162,308.623,252.114z"/>
</svg>
