<?xml version="1.0" encoding="utf-8"?>
<!-- Generator: Adobe Illustrator 16.0.0, SVG Export Plug-In . SVG Version: 6.00 Build 0)  -->
<!DOCTYPE svg PUBLIC "-//W3C//DTD SVG 1.1//EN" "http://www.w3.org/Graphics/SVG/1.1/DTD/svg11.dtd">
<svg version="1.1" id="Capa_1" xmlns="http://www.w3.org/2000/svg" xmlns:xlink="http://www.w3.org/1999/xlink" x="0px" y="0px"
	 width="170px" height="84px" viewBox="0 0 170 84" enable-background="new 0 0 170 84" xml:space="preserve">
<title>876FF7AB-2A38-44CC-918B-E725F4279C3A</title>
<desc>Created with sketchtool.</desc>
<g id="Page-1">
	<g id="Error-v1" transform="translate(-315.000000, -165.000000)">
		<g id="error_v1" transform="translate(316.000000, 165.000000)">
			<g id="Group-4">
				<ellipse id="Oval-Copy-6" fill="none" stroke="#FF503A" stroke-width="1.0981" cx="14.54" cy="76.49" rx="1.988" ry="1.996"/>
				<path id="Line" fill="none" stroke="#FF503A" stroke-width="1.0981" stroke-linecap="square" d="M15.272,60l2.246,2.252"/>
				<path id="Line-Copy" fill="none" stroke="#FF503A" stroke-width="1.0981" stroke-linecap="square" d="M17.518,60l-2.246,2.252"
					/>
				<polyline id="Rectangle-2-Copy-2" fill="none" stroke="#FF503A" stroke-width="1.0981" points="0,70.398 1.987,68.402 
					3.975,70.398 1.987,72.394 0,70.398 				"/>
				
					<ellipse id="Oval-Copy-6_1_" fill="none" stroke="#FF503A" stroke-width="1.0981" cx="164.539" cy="26.49" rx="1.988" ry="1.996"/>
				<path id="Line_1_" fill="none" stroke="#FF503A" stroke-width="1.0981" stroke-linecap="square" d="M165.271,10l2.246,2.252"/>
				<path id="Line-Copy_1_" fill="none" stroke="#FF503A" stroke-width="1.0981" stroke-linecap="square" d="M167.518,10
					l-2.246,2.252"/>
				<polyline id="Rectangle-2-Copy-2_1_" fill="none" stroke="#FF503A" stroke-width="1.0981" points="150,20.398 151.987,18.402 
					153.975,20.398 151.987,22.394 150,20.398 				"/>
				<path id="Fill-1119" opacity="0.1" fill="#BABABA" enable-background="new    " d="M103.026,44.401
					c-0.38-1.013-0.358-1.415-0.39-2.335c0.002-2.644-2.074-4.733-4.633-4.733l-3.607,0c-2.559,0-4.633-2.089-4.633-4.666
					S91.838,28,94.396,28h22.145c2.447,0,4.451-1.912,4.621-4.333c0.077-1.219-0.012-1.581,0.421-2.731
					c0.3-0.8,1.196-2.169,3.669-2.265l9.826-0.004c2.559,0,4.635-2.089,4.635-4.667c0-2.578-2.076-4.667-4.635-4.667l-6.393,0
					c-2.473-0.096-3.369-1.465-3.67-2.265c-0.338-0.896-0.357-1.315-0.379-2.038c0.008-0.12,0.014-0.242,0.014-0.364
					c0-2.577-2.074-4.667-4.634-4.667H34.282c-2.56,0-4.634,2.089-4.634,4.667c0,2.577,2.075,4.666,4.634,4.666h7.535
					c2.56,0,4.635,2.09,4.634,4.667c0,2.578-2.074,4.667-4.634,4.667H26.171c-2.559,0-4.634,2.089-4.634,4.667
					c0,2.577,2.075,4.667,4.634,4.667h13.903c2.56,0,4.635,2.089,4.635,4.667c0,2.578-2.075,4.667-4.635,4.667H7.634
					C5.075,37.333,3,39.423,3,42c0,2.577,2.075,4.667,4.635,4.666l26.647,0.001c2.56,0,4.634,2.089,4.634,4.667
					c0,2.576-2.075,4.666-4.634,4.666h1.03c-2.56,0-4.634,2.089-4.634,4.666c0,2.578,2.076,4.667,4.634,4.667h1.871
					c2.559,0,4.634,2.089,4.634,4.667c0,2.577-2.075,4.666-4.634,4.666h0.575c-2.56,0-4.634,2.09-4.634,4.667S35.198,84,37.757,84
					h85.736c2.559,0,4.634-2.09,4.634-4.666c0-2.578-2.074-4.668-4.635-4.668h-2.316c-2.561,0-4.635-2.089-4.635-4.666
					c0-2.578,2.074-4.667,4.635-4.667h15.19c2.559,0,4.634-2.089,4.634-4.666S138.925,56,136.365,56h-0.742
					c-2.018-0.275-2.791-1.48-3.064-2.211c-0.365-0.97-0.358-1.381-0.387-2.221c0.006-2.813-2.069-4.901-4.629-4.901l-20.848-0.001
					C104.223,46.57,103.327,45.201,103.026,44.401z"/>
				<circle id="bg" fill="#FFFFFF" stroke="#CF200A" stroke-width="2" cx="78.5" cy="39.5" r="35.5"/>
				<g id="_x32_4x24_x2F_lock" transform="translate(68.000000, 25.000000)">
					
						<rect id="Rectangle-3" x="0.477" y="13.359" fill="none" stroke="#FF503A" stroke-width="2.5137" stroke-linecap="round" stroke-linejoin="round" width="20.046" height="16.406"/>
					<path id="Rectangle-6" fill="none" stroke="#FF503A" stroke-width="2.5137" d="M3.818,6.797c0-3.625,2.933-6.563,6.564-6.563
						h0.235c3.625,0,6.564,2.945,6.564,6.563v6.563H3.818V6.797z"/>
				</g>
				<circle id="Oval" fill="#FFFFFF" stroke="#FF503A" cx="108" cy="16" r="10"/>
				<g id="Group-5" transform="translate(99.000000, 7.000000)">
					<path id="Rectangle-154" fill="#FFFFFF" d="M9,0L9,0c4.971,0,9,4.029,9,9l0,0c0,4.971-4.029,9-9,9l0,0c-4.971,0-9-4.029-9-9
						l0,0C0,4.029,4.029,0,9,0z"/>
				</g>
				<g id="Group-3" transform="translate(106.000000, 13.000000)">
					<path id="Path-9037" fill="none" stroke="#FF503A" stroke-width="2" stroke-linecap="round" stroke-linejoin="round" d="
						M4.938,4.714L0,0"/>
					<path id="Path-9037_1_" fill="none" stroke="#FF503A" stroke-width="2" stroke-linecap="round" stroke-linejoin="round" d="
						M0.063,4.714L5,0"/>
				</g>
			</g>
		</g>
	</g>
</g>
</svg>
