<?xml version="1.0" encoding="utf-8"?>
<!-- Generator: Adobe Illustrator 19.2.0, SVG Export Plug-In . SVG Version: 6.00 Build 0)  -->
<svg version="1.1" id="Capa_1" xmlns="http://www.w3.org/2000/svg" xmlns:xlink="http://www.w3.org/1999/xlink" x="0px" y="0px"
	 viewBox="0 0 170 84" style="enable-background:new 0 0 170 84;" xml:space="preserve">
<style type="text/css">
	.st0{fill:none;stroke:#FF4D40;stroke-width:1.098;}
	.st1{fill:none;stroke:#FF4D40;stroke-width:1.098;stroke-linecap:square;}
	.st2{fill:none;stroke:#E4E4E4;stroke-width:1.098;}
	.st3{fill:none;stroke:#E4E4E4;stroke-width:1.098;stroke-linecap:square;}
	.st4{opacity:0.1;fill:#BABABA;enable-background:new    ;}
	.st5{fill:#FFFFFF;stroke:#CF200A;stroke-width:2;}
	.st6{fill:#FF4D40;stroke:#FF4D40;stroke-width:0.67;}
	.st7{fill:#FFFFFF;stroke:#FF4D40;}
	.st8{fill:#FFFFFF;}
	.st9{fill:none;stroke:#FF4D40;stroke-width:2;stroke-linecap:round;stroke-linejoin:round;}
</style>
<ellipse class="st0" cx="15.5" cy="76.5" rx="2" ry="2"/>
<path class="st1" d="M16.3,60l2.2,2.3 M18.5,60l-2.2,2.3"/>
<path class="st0" d="M1,70.4l2-2l2,2l-2,2L1,70.4"/>
<ellipse class="st2" cx="165.5" cy="26.5" rx="2" ry="2"/>
<path class="st3" d="M166.3,10l2.2,2.3 M168.5,10l-2.2,2.3"/>
<path class="st2" d="M151,20.4l2-2l2,2l-2,2L151,20.4"/>
<path class="st4" d="M104,44.4c-0.4-1-0.4-1.4-0.4-2.3c0-2.6-2.1-4.7-4.6-4.7h-3.6c-2.6,0-4.6-2.1-4.6-4.7s2.1-4.7,4.6-4.7h22.1
	c2.4,0,4.5-1.9,4.6-4.3c0.1-1.2,0-1.6,0.4-2.7c0.3-0.8,1.2-2.2,3.7-2.3l9.8,0c2.6,0,4.6-2.1,4.6-4.7s-2.1-4.7-4.6-4.7h-6.4
	c-2.5-0.1-3.4-1.5-3.7-2.3c-0.3-0.9-0.4-1.3-0.4-2c0-0.1,0-0.2,0-0.4c0-2.6-2.1-4.7-4.6-4.7H35.3c-2.6,0-4.6,2.1-4.6,4.7
	s2.1,4.7,4.6,4.7h7.5c2.6,0,4.6,2.1,4.6,4.7c0,2.6-2.1,4.7-4.6,4.7H27.2c-2.6,0-4.6,2.1-4.6,4.7c0,2.6,2.1,4.7,4.6,4.7h13.9
	c2.6,0,4.6,2.1,4.6,4.7s-2.1,4.7-4.6,4.7H8.6C6.1,37.3,4,39.4,4,42s2.1,4.7,4.6,4.7h26.6c2.6,0,4.6,2.1,4.6,4.7S37.8,56,35.3,56h1
	c-2.6,0-4.6,2.1-4.6,4.7c0,2.6,2.1,4.7,4.6,4.7h1.9c2.6,0,4.6,2.1,4.6,4.7s-2.1,4.7-4.6,4.7h0.6c-2.6,0-4.6,2.1-4.6,4.7
	s2.1,4.7,4.6,4.7h85.7c2.6,0,4.6-2.1,4.6-4.7s-2.1-4.7-4.6-4.7h-2.3c-2.6,0-4.6-2.1-4.6-4.7s2.1-4.7,4.6-4.7h15.2
	c2.6,0,4.6-2.1,4.6-4.7c0-2.6-2.1-4.7-4.6-4.7h-0.7c-2-0.3-2.8-1.5-3.1-2.2c-0.4-1-0.4-1.4-0.4-2.2c0-2.8-2.1-4.9-4.6-4.9l-20.8,0
	C105.2,46.6,104.3,45.2,104,44.4z"/>
<circle class="st5" cx="79.5" cy="39.5" r="35.5"/>
<path class="st6" d="M93.6,40c0.4-0.5,0.7-1.2,0.7-1.9c0-1.1-0.5-2-1.4-2.6c1.1-1.3,0.9-3.2-0.4-4.3c-0.1-0.1-0.2-0.2-0.4-0.3
	c0.4-0.5,0.7-1.2,0.7-1.9c0-1.7-1.3-3-3-3l-17.3,0v0c-1.1,0.1-2.2,0.6-2.9,1.5h-4.9c-2,0-3.7,4.1-3.7,9.1c0,5,1.7,9.1,3.7,9.1h6.2
	l5.6,8.3v3.8c0.4,2.5,2.2,2.3,2.2,2.3c1.6,0,2.2-0.8,2.2-0.8c2.2-2.3,2.2-6,2.2-6c0-5-2.2-7.6-2.2-7.6H92c1.6,0,3-1.4,3-3
	C95,41.5,94.4,40.6,93.6,40z M64.7,44.1c-0.6,0-2.2-2.6-2.2-7.6c0-5,1.6-7.6,2.2-7.6h4.1c0,0.1-0.1,0.3-0.1,0.5
	c-0.4,2.2-1.1,5.7-1.1,8.6c0,3.1,1.6,5.2,2.2,6h0L64.7,44.1L64.7,44.1z M92,44.1H77.7l2.2,2.5c0,0,1.8,2.3,1.8,6.5c0,0,0,3.2-1.8,5
	l-0.1,0.1c-0.5,0.3-1.2,0.2-1.2,0.2c-0.4,0-0.6-0.5-0.6-0.9v-4.1l-6.9-10.2L71,43.1c-0.6-0.8-1.9-2.6-1.9-5c0-2.8,0.6-6.4,1-8.4
	c0.2-1.2,1.2-2.1,2.4-2.2l17.2,0c0.8,0,1.5,0.7,1.5,1.5c0,0.4-0.2,0.8-0.4,1l-1.1,1.4l1.5,0.9c0.5,0.3,0.7,0.8,0.7,1.3
	c0,0.4-0.2,0.8-0.4,1l-1.1,1.4l1.5,0.9c0.5,0.3,0.7,0.8,0.7,1.3c0,0.4-0.2,0.8-0.4,1l-1.1,1.4l1.5,0.9c0.5,0.3,0.7,0.8,0.7,1.3
	C93.5,43.5,92.9,44.1,92,44.1L92,44.1z M65.8,30.5c-0.6,0-1.1,0.5-1.1,1.1c0,0.6,0.5,1.1,1.1,1.1s1.1-0.5,1.1-1.1
	C66.9,31,66.4,30.5,65.8,30.5z"/>
<circle class="st7" cx="109" cy="16" r="10"/>
<path class="st8" d="M109,7L109,7c5,0,9,4,9,9l0,0c0,5-4,9-9,9l0,0c-5,0-9-4-9-9l0,0C100,11,104,7,109,7z"/>
<g>
	<path class="st9" d="M111.9,17.7L107,13 M107.1,17.7L112,13"/>
</g>
</svg>
