<?xml version="1.0" encoding="utf-8"?>
<!-- Generator: Adobe Illustrator 19.2.0, SVG Export Plug-In . SVG Version: 6.00 Build 0)  -->
<svg version="1.1" id="Capa_1" xmlns="http://www.w3.org/2000/svg" xmlns:xlink="http://www.w3.org/1999/xlink" x="0px" y="0px"
	 viewBox="0 0 170 84" style="enable-background:new 0 0 170 84;" xml:space="preserve">
<style type="text/css">
	.st0{fill:none;stroke:#FF4D40;stroke-width:1.098;}
	.st1{fill:none;stroke:#FF4D40;stroke-width:1.098;stroke-linecap:square;}
	.st2{fill:none;stroke:#E4E4E4;stroke-width:1.098;}
	.st3{fill:none;stroke:#E4E4E4;stroke-width:1.098;stroke-linecap:square;}
	.st4{opacity:0.1;fill:#BABABA;enable-background:new    ;}
	.st5{fill:#FFFFFF;stroke:#CF200A;stroke-width:2;}
	.st6{fill:#FFFFFF;stroke:#FF4D40;}
	.st7{fill:#FFFFFF;}
	.st8{fill:none;stroke:#FF4D40;stroke-width:2;stroke-linecap:round;stroke-linejoin:round;}
	.st9{fill:#CF200A;}
</style>
<ellipse class="st0" cx="15.5" cy="76.5" rx="2" ry="2"/>
<path class="st1" d="M16.3,60l2.2,2.3 M18.5,60l-2.2,2.3"/>
<path class="st0" d="M2,70.4l2-2l2,2l-2,2L2,70.4"/>
<ellipse class="st2" cx="165.5" cy="26.5" rx="2" ry="2"/>
<path class="st3" d="M166.3,10l2.2,2.3 M168.5,10l-2.2,2.3"/>
<path class="st2" d="M151,20.4l2-2l2,2l-2,2L151,20.4"/>
<path class="st4" d="M104,44.4c-0.4-1-0.4-1.4-0.4-2.3c0-2.6-2.1-4.7-4.6-4.7h-3.6c-2.6,0-4.6-2.1-4.6-4.7s2.1-4.7,4.6-4.7h22.1
	c2.4,0,4.5-1.9,4.6-4.3c0.1-1.2,0-1.6,0.4-2.7c0.3-0.8,1.2-2.2,3.7-2.3l9.8,0c2.6,0,4.6-2.1,4.6-4.7s-2.1-4.7-4.6-4.7h-6.4
	c-2.5-0.1-3.4-1.5-3.7-2.3c-0.3-0.9-0.4-1.3-0.4-2c0-0.1,0-0.2,0-0.4c0-2.6-2.1-4.7-4.6-4.7H35.3c-2.6,0-4.6,2.1-4.6,4.7
	s2.1,4.7,4.6,4.7h7.5c2.6,0,4.6,2.1,4.6,4.7c0,2.6-2.1,4.7-4.6,4.7H27.2c-2.6,0-4.6,2.1-4.6,4.7c0,2.6,2.1,4.7,4.6,4.7h13.9
	c2.6,0,4.6,2.1,4.6,4.7s-2.1,4.7-4.6,4.7H8.6C6.1,37.3,4,39.4,4,42s2.1,4.7,4.6,4.7h26.6c2.6,0,4.6,2.1,4.6,4.7S37.8,56,35.3,56h1
	c-2.6,0-4.6,2.1-4.6,4.7c0,2.6,2.1,4.7,4.6,4.7h1.9c2.6,0,4.6,2.1,4.6,4.7s-2.1,4.7-4.6,4.7h0.6c-2.6,0-4.6,2.1-4.6,4.7
	s2.1,4.7,4.6,4.7h85.7c2.6,0,4.6-2.1,4.6-4.7s-2.1-4.7-4.6-4.7h-2.3c-2.6,0-4.6-2.1-4.6-4.7s2.1-4.7,4.6-4.7h15.2
	c2.6,0,4.6-2.1,4.6-4.7c0-2.6-2.1-4.7-4.6-4.7h-0.7c-2-0.3-2.8-1.5-3.1-2.2c-0.4-1-0.4-1.4-0.4-2.2c0-2.8-2.1-4.9-4.6-4.9l-20.8,0
	C105.2,46.6,104.3,45.2,104,44.4z"/>
<circle class="st5" cx="79.5" cy="39.5" r="35.5"/>
<circle class="st6" cx="109" cy="16" r="10"/>
<path class="st7" d="M109,7L109,7c5,0,9,4,9,9l0,0c0,5-4,9-9,9l0,0c-5,0-9-4-9-9l0,0C100,11,104,7,109,7z"/>
<g>
	<path class="st8" d="M111.9,17.7L107,13 M107.1,17.7L112,13"/>
</g>
<g>
	<path class="st9" d="M74.5,19.3v1.8h-7v35.5h2.6V23.7h4.4v36l17-3.1v-5V22.4L74.5,19.3z M77.6,40.9c-0.6,0-1-0.6-1-1.3
		c0-0.7,0.5-1.3,1-1.3s1,0.6,1,1.3C78.6,40.3,78.2,40.9,77.6,40.9z"/>
</g>
</svg>
