<svg id="Grupo_79" data-name="Grupo 79" xmlns="http://www.w3.org/2000/svg" width="96.882" height="96.882" viewBox="0 0 96.882 96.882">
  <g id="Page-1" transform="translate(0)">
    <g id="_040---Browser-Survey" data-name="040---Browser-Survey" transform="translate(0 0)">
      <path id="Shape" d="M4708.252-1690.1h-80.735a8.083,8.083,0,0,0-8.074,8.073v80.735a8.083,8.083,0,0,0,8.074,8.074h80.735a8.083,8.083,0,0,0,8.073-8.074v-80.735A8.083,8.083,0,0,0,4708.252-1690.1Zm-80.735,3.229h80.735a4.849,4.849,0,0,1,4.844,4.844v11.3h-90.423v-11.3A4.85,4.85,0,0,1,4627.518-1686.868Zm80.735,90.423h-80.735a4.85,4.85,0,0,1-4.844-4.844v-66.2H4713.1v66.2A4.849,4.849,0,0,1,4708.252-1596.445Z" transform="translate(-4619.444 1690.097)"/>
      <path id="Shape-2" data-name="Shape" d="M4652.98-1651.718a4.844,4.844,0,0,0,4.844-4.844,4.844,4.844,0,0,0-4.844-4.844,4.844,4.844,0,0,0-4.844,4.844A4.849,4.849,0,0,0,4652.98-1651.718Zm0-6.459a1.615,1.615,0,0,1,1.615,1.615,1.615,1.615,0,0,1-1.615,1.615,1.614,1.614,0,0,1-1.615-1.615A1.616,1.616,0,0,1,4652.98-1658.177Z" transform="translate(-4641.677 1667.865)"/>
      <path id="Shape-3" data-name="Shape" d="M4710.363-1651.718a4.845,4.845,0,0,0,4.844-4.844,4.845,4.845,0,0,0-4.844-4.844,4.844,4.844,0,0,0-4.844,4.844A4.849,4.849,0,0,0,4710.363-1651.718Zm0-6.459a1.615,1.615,0,0,1,1.615,1.615,1.615,1.615,0,0,1-1.615,1.615,1.614,1.614,0,0,1-1.615-1.615A1.616,1.616,0,0,1,4710.363-1658.177Z" transform="translate(-4686.143 1667.865)"/>
      <path id="Shape-4" data-name="Shape" d="M4767.746-1651.718a4.844,4.844,0,0,0,4.844-4.844,4.844,4.844,0,0,0-4.844-4.844,4.844,4.844,0,0,0-4.844,4.844A4.849,4.849,0,0,0,4767.746-1651.718Zm0-6.459a1.615,1.615,0,0,1,1.615,1.615,1.615,1.615,0,0,1-1.615,1.615,1.615,1.615,0,0,1-1.615-1.615A1.616,1.616,0,0,1,4767.746-1658.177Z" transform="translate(-4730.608 1667.865)"/>
      <path id="Shape-5" data-name="Shape" d="M4895.244-1520.09h12.918a3.233,3.233,0,0,0,3.229-3.229v-12.918a3.233,3.233,0,0,0-3.229-3.229h-12.918a3.233,3.233,0,0,0-3.229,3.229v12.918A3.233,3.233,0,0,0,4895.244-1520.09Zm0-16.147h12.918v12.918h-12.918Z" transform="translate(-4830.656 1573.375)"/>
      <path id="Shape-6" data-name="Shape" d="M4909.776-1399.051a1.615,1.615,0,0,0-1.614,1.615v3.229h-12.918v-12.917h8.074a1.615,1.615,0,0,0,1.615-1.615,1.615,1.615,0,0,0-1.615-1.615h-8.074a3.233,3.233,0,0,0-3.229,3.229v12.917a3.233,3.233,0,0,0,3.229,3.229h12.918a3.234,3.234,0,0,0,3.229-3.229v-3.229A1.615,1.615,0,0,0,4909.776-1399.051Z" transform="translate(-4830.656 1473.327)"/>
      <path id="Shape-7" data-name="Shape" d="M4678.443-1529.064h12.917a1.615,1.615,0,0,0,1.615-1.615,1.615,1.615,0,0,0-1.615-1.615h-12.917a1.614,1.614,0,0,0-1.615,1.615A1.615,1.615,0,0,0,4678.443-1529.064Z" transform="translate(-4663.91 1567.816)"/>
      <path id="Shape-8" data-name="Shape" d="M4783.893-1532.293h-19.376a1.615,1.615,0,0,0-1.615,1.615,1.615,1.615,0,0,0,1.615,1.615h19.376a1.615,1.615,0,0,0,1.615-1.615A1.615,1.615,0,0,0,4783.893-1532.293Z" transform="translate(-4730.608 1567.816)"/>
      <path id="Shape-9" data-name="Shape" d="M4717.2-1503.6h-38.752a1.615,1.615,0,0,0-1.615,1.615,1.615,1.615,0,0,0,1.615,1.615H4717.2a1.615,1.615,0,0,0,1.615-1.615A1.615,1.615,0,0,0,4717.2-1503.6Z" transform="translate(-4663.91 1545.584)"/>
      <path id="Shape-10" data-name="Shape" d="M4678.443-1471.681h19.376a1.615,1.615,0,0,0,1.614-1.615,1.614,1.614,0,0,0-1.614-1.615h-19.376a1.615,1.615,0,0,0-1.615,1.615A1.615,1.615,0,0,0,4678.443-1471.681Z" transform="translate(-4663.91 1523.351)"/>
      <path id="Shape-11" data-name="Shape" d="M4806.126-1474.91h-12.917a1.615,1.615,0,0,0-1.615,1.615,1.615,1.615,0,0,0,1.615,1.615h12.917a1.615,1.615,0,0,0,1.615-1.615A1.615,1.615,0,0,0,4806.126-1474.91Z" transform="translate(-4752.841 1523.351)"/>
      <path id="Shape-12" data-name="Shape" d="M4678.443-1399.952h12.917a1.615,1.615,0,0,0,1.615-1.615,1.615,1.615,0,0,0-1.615-1.615h-12.917a1.614,1.614,0,0,0-1.615,1.615A1.615,1.615,0,0,0,4678.443-1399.952Z" transform="translate(-4663.91 1467.769)"/>
      <path id="Shape-13" data-name="Shape" d="M4783.893-1403.181h-19.376a1.615,1.615,0,0,0-1.615,1.615,1.615,1.615,0,0,0,1.615,1.615h19.376a1.615,1.615,0,0,0,1.615-1.615A1.615,1.615,0,0,0,4783.893-1403.181Z" transform="translate(-4730.608 1467.769)"/>
      <path id="Shape-14" data-name="Shape" d="M4717.2-1374.49h-38.752a1.615,1.615,0,0,0-1.615,1.615,1.615,1.615,0,0,0,1.615,1.615H4717.2a1.615,1.615,0,0,0,1.615-1.615A1.615,1.615,0,0,0,4717.2-1374.49Z" transform="translate(-4663.91 1445.536)"/>
      <path id="Shape-15" data-name="Shape" d="M4697.819-1345.8h-19.376a1.614,1.614,0,0,0-1.615,1.615,1.615,1.615,0,0,0,1.615,1.615h19.376a1.615,1.615,0,0,0,1.614-1.615A1.614,1.614,0,0,0,4697.819-1345.8Z" transform="translate(-4663.91 1423.303)"/>
      <path id="Shape-16" data-name="Shape" d="M4806.126-1345.8h-12.917a1.614,1.614,0,0,0-1.615,1.615,1.615,1.615,0,0,0,1.615,1.615h12.917a1.615,1.615,0,0,0,1.615-1.615A1.615,1.615,0,0,0,4806.126-1345.8Z" transform="translate(-4752.841 1423.303)"/>
      <path id="Shape-17" data-name="Shape" d="M4934.015-1424.054l-8.572,11.428-1.913-1.913a1.615,1.615,0,0,0-2.264.02,1.615,1.615,0,0,0-.02,2.264l3.229,3.229a1.612,1.612,0,0,0,1.142.473c.038,0,.076,0,.115,0a1.613,1.613,0,0,0,1.177-.642l9.688-12.917a1.615,1.615,0,0,0-.323-2.261,1.615,1.615,0,0,0-2.261.323Z" transform="translate(-4852.957 1484.444)"/>
    </g>
  </g>
</svg>
