<?xml version="1.0" encoding="utf-8"?>
<!-- Generator: Adobe Illustrator 16.0.0, SVG Export Plug-In . SVG Version: 6.00 Build 0)  -->
<!DOCTYPE svg PUBLIC "-//W3C//DTD SVG 1.1//EN" "http://www.w3.org/Graphics/SVG/1.1/DTD/svg11.dtd">
<svg version="1.1" id="Layer_1" xmlns="http://www.w3.org/2000/svg" xmlns:xlink="http://www.w3.org/1999/xlink" x="0px" y="0px"
	 width="252.283px" height="232.441px" viewBox="-1.142 18.779 252.283 232.441"
	 enable-background="new -1.142 18.779 252.283 232.441" xml:space="preserve">
<path fill="#24B047" d="M1919.289,120.226c1.93,7.552,3.066,15.442,3.066,23.584c0,52.664-42.853,95.519-95.521,95.519
	c-52.684,0-95.535-42.854-95.535-95.519c0-52.688,42.852-95.534,95.535-95.534c13.418,0,26.188,2.813,37.793,7.82l14.207-22.814
	c-15.814-7.474-33.387-11.779-52-11.779c-67.441,0-122.301,54.861-122.301,122.311c0,67.425,54.859,122.285,122.301,122.285
	c67.428,0,122.291-54.86,122.291-122.285c0-18.747-4.373-36.452-11.928-52.336L1919.289,120.226z"/>
<g>
	<path fill="#24B047" d="M207.087,141.306c-3.483,51.098-47.732,89.704-98.833,86.22c-51.105-3.484-89.704-47.741-86.22-98.839
		c3.484-51.101,47.736-89.704,98.838-86.22c13.949,0.951,26.967,4.939,38.451,11.272l16.742-13.397
		c-15.6-10.153-33.94-16.586-53.826-17.941C60.053,18.157,6.203,65.13,1.959,127.32c-4.24,62.189,42.734,116.036,104.92,120.279
		c62.193,4.244,116.039-42.73,120.283-104.919c0.503-7.481,0.279-14.837-0.632-22.001L207.087,141.306z"/>
	<path fill="#24B047" d="M243.919,36.98c-5.657-5.666-15.551-5.674-21.225,0L111.737,148.098l-30.32-30.312
		c-2.837-2.833-6.604-4.395-10.612-4.395c-4.012,0-7.779,1.562-10.612,4.395c-2.837,2.837-4.399,6.609-4.399,10.617
		s1.562,7.78,4.399,10.617l51.277,50.938l10.976-10.093L243.919,58.206C249.77,52.353,249.77,42.831,243.919,36.98z"/>
</g>
</svg>
