<?xml version="1.0" encoding="utf-8"?>
<!-- Generator: Adobe Illustrator 16.0.0, SVG Export Plug-In . SVG Version: 6.00 Build 0)  -->
<!DOCTYPE svg PUBLIC "-//W3C//DTD SVG 1.1//EN" "http://www.w3.org/Graphics/SVG/1.1/DTD/svg11.dtd">
<svg version="1.1" id="Capa_1" xmlns="http://www.w3.org/2000/svg" xmlns:xlink="http://www.w3.org/1999/xlink" x="0px" y="0px"
	 width="1024px" height="768px" viewBox="0 0 1024 768" enable-background="new 0 0 1024 768" xml:space="preserve">
<g>
	<path fill="#FFFFFF" d="M882.596,578.34c0.289-0.059,0.57-0.136,0.854-0.209c0.242-0.063,0.486-0.113,0.725-0.187
		c0.277-0.085,0.549-0.188,0.819-0.286c0.239-0.087,0.481-0.165,0.72-0.265c0.255-0.106,0.502-0.231,0.75-0.349
		c0.242-0.115,0.489-0.223,0.727-0.351c0.237-0.127,0.462-0.271,0.693-0.409c0.237-0.142,0.477-0.275,0.708-0.431
		c0.246-0.164,0.476-0.347,0.713-0.524c0.2-0.148,0.404-0.288,0.6-0.448c0.359-0.295,0.702-0.61,1.034-0.935
		c0.061-0.058,0.125-0.106,0.185-0.167c0.063-0.063,0.116-0.131,0.176-0.195c0.319-0.329,0.631-0.666,0.924-1.021
		c0.171-0.209,0.319-0.427,0.479-0.642c0.164-0.223,0.338-0.438,0.491-0.669c0.164-0.246,0.309-0.502,0.459-0.755
		c0.127-0.213,0.263-0.422,0.38-0.642c0.138-0.256,0.254-0.52,0.376-0.779c0.108-0.231,0.224-0.46,0.324-0.697
		c0.106-0.256,0.19-0.516,0.284-0.775c0.091-0.253,0.188-0.504,0.266-0.762c0.08-0.262,0.139-0.528,0.205-0.795
		c0.064-0.262,0.14-0.52,0.19-0.784c0.063-0.313,0.101-0.628,0.145-0.943c0.031-0.223,0.073-0.442,0.096-0.666
		c0.056-0.554,0.084-1.106,0.084-1.661v-356c0-9.2-7.454-16.655-16.655-16.655H354.702c-0.146,0-0.289,0.018-0.436,0.022
		c-0.317,0.009-0.633,0.022-0.948,0.049c-0.251,0.02-0.5,0.049-0.748,0.082c-0.284,0.036-0.566,0.078-0.849,0.129
		c-0.264,0.046-0.526,0.102-0.786,0.162c-0.264,0.062-0.528,0.129-0.791,0.204c-0.26,0.073-0.515,0.153-0.768,0.238
		c-0.26,0.089-0.52,0.182-0.775,0.284c-0.242,0.096-0.479,0.193-0.715,0.3c-0.262,0.118-0.522,0.244-0.779,0.375
		c-0.22,0.113-0.436,0.229-0.648,0.351c-0.258,0.146-0.511,0.302-0.762,0.462c-0.207,0.133-0.409,0.271-0.609,0.411
		c-0.235,0.167-0.468,0.339-0.697,0.521c-0.208,0.167-0.413,0.338-0.615,0.513c-0.2,0.175-0.398,0.351-0.591,0.538
		c-0.22,0.211-0.431,0.431-0.64,0.653c-0.104,0.111-0.215,0.208-0.315,0.322c-0.06,0.067-0.106,0.14-0.164,0.207
		c-0.209,0.242-0.404,0.495-0.6,0.75c-0.143,0.187-0.289,0.373-0.422,0.564c-0.173,0.249-0.333,0.504-0.493,0.761
		c-0.131,0.211-0.267,0.42-0.387,0.635c-0.14,0.249-0.262,0.504-0.389,0.76c-0.115,0.233-0.235,0.466-0.339,0.704
		c-0.109,0.251-0.205,0.511-0.3,0.767c-0.096,0.251-0.193,0.5-0.275,0.752c-0.083,0.255-0.149,0.515-0.22,0.775
		c-0.071,0.266-0.146,0.531-0.206,0.799c-0.056,0.251-0.094,0.506-0.138,0.759c-0.049,0.289-0.098,0.578-0.133,0.866
		c-0.029,0.24-0.042,0.484-0.06,0.729c-0.022,0.311-0.042,0.622-0.047,0.935c-0.002,0.091-0.013,0.18-0.013,0.271v102.713
		c0,9.2,7.455,16.655,16.655,16.655c9.201,0,16.656-7.455,16.656-16.655V242.98l148.079,131.105
		c-0.772,0.544-1.517,1.146-2.209,1.836L371.353,521.793V412.339c0-9.201-7.455-16.655-16.655-16.655
		c-9.201,0-16.656,7.454-16.656,16.655v20.351h-86.053c-9.2,0-16.655,7.455-16.655,16.655S242.789,466,251.989,466h86.053v96.004
		c0,9.2,7.455,16.655,16.656,16.655h524.645c0.548,0,1.097-0.028,1.643-0.082c0.256-0.024,0.502-0.073,0.753-0.108
		C882.027,578.429,882.312,578.396,882.596,578.34z M862.689,521.796L716.814,375.923c-0.093-0.093-0.193-0.171-0.288-0.26
		l109.665-93.041c7.014-5.952,7.875-16.46,1.923-23.476c-5.946-7.011-16.455-7.876-23.475-1.923L617.253,416.205L398.637,222.651
		h464.053V521.796z M540.782,399.48c1.188-1.188,2.152-2.512,2.905-3.919l62.293,55.151c3.149,2.787,7.093,4.186,11.042,4.186
		c3.833,0,7.663-1.316,10.777-3.955l63.483-53.861c0.577,0.844,1.228,1.65,1.977,2.398l145.872,145.872H394.91L540.782,399.48z"/>
	<path fill="#FFFFFF" d="M144.655,379.023h281.292c9.2,0,16.655-7.455,16.655-16.655s-7.455-16.655-16.655-16.655H144.655
		c-9.2,0-16.655,7.455-16.655,16.655S135.455,379.023,144.655,379.023z"/>
	<path fill="#FFFFFF" d="M173.802,287.239h126.303c9.201,0,16.656-7.455,16.656-16.655c0-9.201-7.455-16.655-16.656-16.655H173.802
		c-9.2,0-16.655,7.455-16.655,16.655C157.147,279.784,164.602,287.239,173.802,287.239z"/>
	<path fill="#FFFFFF" d="M266.795,503.015h-122.14c-9.2,0-16.655,7.455-16.655,16.655c0,9.201,7.455,16.656,16.655,16.656h122.14
		c9.2,0,16.655-7.455,16.655-16.656C283.45,510.47,275.995,503.015,266.795,503.015z"/>
</g>
</svg>
