<svg id="Grupo_73" data-name="Grupo 73" xmlns="http://www.w3.org/2000/svg" width="93.994" height="93.994" viewBox="0 0 93.994 93.994">
  <path id="Trazado_179" data-name="Trazado 179" d="M1097.885-1662.554h3.032v3.032h-3.032Z" transform="translate(-1066.048 1668.618)"/>
  <path id="Trazado_180" data-name="Trazado 180" d="M1044.008-1662.554h3.032v3.032h-3.032Z" transform="translate(-1024.3 1668.618)"/>
  <path id="Trazado_181" data-name="Trazado 181" d="M1070.947-1662.554h3.032v3.032h-3.032Z" transform="translate(-1045.174 1668.618)"/>
  <path id="Trazado_182" data-name="Trazado 182" d="M1050.743-1312.354h12.128v3.032h-12.128Z" transform="translate(-1029.518 1397.252)"/>
  <path id="Trazado_183" data-name="Trazado 183" d="M1184.094-1473.984a5.987,5.987,0,0,0-3.032.828,5.986,5.986,0,0,0-3.032-.828,6.07,6.07,0,0,0-6.064,6.064,6.07,6.07,0,0,0,6.064,6.064,5.986,5.986,0,0,0,3.032-.828,5.987,5.987,0,0,0,3.032.828,6.07,6.07,0,0,0,6.064-6.064A6.07,6.07,0,0,0,1184.094-1473.984Zm0,9.1a2.993,2.993,0,0,1-2.018-.79l-1.014-.914-1.014.914a2.994,2.994,0,0,1-2.018.79,3.035,3.035,0,0,1-3.032-3.032,3.035,3.035,0,0,1,3.032-3.032,2.993,2.993,0,0,1,2.018.79l1.014.914,1.014-.914a2.992,2.992,0,0,1,2.018-.79,3.035,3.035,0,0,1,3.032,3.032A3.035,3.035,0,0,1,1184.094-1464.888Z" transform="translate(-1123.453 1522.497)"/>
  <path id="Trazado_184" data-name="Trazado 184" d="M1077.681-1433.577h3.032v3.032h-3.032Z" transform="translate(-1050.392 1491.186)"/>
  <path id="Trazado_185" data-name="Trazado 185" d="M1104.62-1433.577h3.032v3.032h-3.032Z" transform="translate(-1071.267 1491.186)"/>
  <path id="Trazado_186" data-name="Trazado 186" d="M1131.558-1433.577h3.032v3.032h-3.032Z" transform="translate(-1092.141 1491.186)"/>
  <path id="Trazado_187" data-name="Trazado 187" d="M1077.681-1460.515h15.16v3.032h-15.16Z" transform="translate(-1050.392 1512.06)"/>
  <path id="Trazado_188" data-name="Trazado 188" d="M1010.335-1393.169h3.032v3.032h-3.032Z" transform="translate(-998.207 1459.874)"/>
  <path id="Trazado_189" data-name="Trazado 189" d="M1010.335-1420.108h3.032v3.032h-3.032Z" transform="translate(-998.207 1480.749)"/>
  <path id="Trazado_190" data-name="Trazado 190" d="M1010.335-1447.046h3.032v3.032h-3.032Z" transform="translate(-998.207 1501.623)"/>
  <path id="Trazado_191" data-name="Trazado 191" d="M1041.356-1659.171v3.032h-3.921a10.543,10.543,0,0,0-7.427-3.032h-.781v-1.516a4.554,4.554,0,0,0-4.548-4.548h-13.644v-16.676a7.589,7.589,0,0,0-7.58-7.58H964.038a7.589,7.589,0,0,0-7.58,7.58v78.834a7.589,7.589,0,0,0,7.58,7.58h39.417a7.589,7.589,0,0,0,7.58-7.58v-19.708h13.644a4.542,4.542,0,0,0,4.269-3.032h1.165a10.675,10.675,0,0,0,4.747-1.12l3.822-1.912h2.674v3.032h9.1v-33.353Zm-15.161-1.516v1.516h-12.128a3.035,3.035,0,0,0-3.032,3.032H977.683v-4.548a1.519,1.519,0,0,1,1.516-1.516h45.481A1.518,1.518,0,0,1,1026.2-1660.687Zm0,13.644H977.683v-6.064h34.2a6.044,6.044,0,0,0,5.221,3.032h9.1Zm-24.256-18.192H979.2a4.554,4.554,0,0,0-4.548,4.548v33.353a4.554,4.554,0,0,0,4.548,4.548h22.741v6.064H965.554v-51.545h36.385Zm-37.9-21.224h39.417a4.554,4.554,0,0,1,4.548,4.548v4.548H959.49v-4.548A4.554,4.554,0,0,1,964.038-1686.46Zm39.417,87.93H964.038a4.554,4.554,0,0,1-4.548-4.548v-4.548H1008v4.548A4.554,4.554,0,0,1,1003.455-1598.53Zm4.548-12.128H959.49v-63.673H1008v9.1h-3.032v-3.032a3.035,3.035,0,0,0-3.032-3.032H965.554a3.035,3.035,0,0,0-3.032,3.032v51.545a3.035,3.035,0,0,0,3.032,3.032h36.385a3.035,3.035,0,0,0,3.032-3.032v-6.064H1008Zm16.676-15.16H979.2a1.518,1.518,0,0,1-1.516-1.516v-16.676H1026.2v16.676A1.517,1.517,0,0,1,1024.68-1625.819Zm13.286-6.064-4.463,2.232a7.63,7.63,0,0,1-3.391.8h-.884v-19.61a10.546,10.546,0,0,0,5.283,1.417h.781v-3.032h-.781a7.537,7.537,0,0,1-5.361-2.219l-.811-.812H1017.1a3.035,3.035,0,0,1-3.032-3.032h15.941a7.537,7.537,0,0,1,5.361,2.22l.811.813h5.176v21.224Zm9.454,3.032h-3.032v-27.289h3.032Z" transform="translate(-956.458 1689.492)"/>
</svg>
