<svg id="Grupo_76" data-name="Grupo 76" xmlns="http://www.w3.org/2000/svg" width="106.922" height="95.621" viewBox="0 0 106.922 95.621">
  <path id="Trazado_328" data-name="Trazado 328" d="M1729.643-1661.659h-4.181l0-7.474a9.11,9.11,0,0,0-9.1-9.1l-31.729-.018h0a6.72,6.72,0,0,0-4.782,1.981l-47.369,47.369a9.041,9.041,0,0,0-2.665,6.435,9.04,9.04,0,0,0,2.665,6.435l30.741,30.741a9.071,9.071,0,0,0,6.435,2.661,9.072,9.072,0,0,0,6.435-2.661l29.824-29.824a2.088,2.088,0,0,0,0-2.953,2.089,2.089,0,0,0-2.954,0l-29.824,29.824a4.929,4.929,0,0,1-6.962,0l-30.741-30.741a4.892,4.892,0,0,1-1.442-3.482,4.893,4.893,0,0,1,1.442-3.482l47.368-47.368a2.57,2.57,0,0,1,1.829-.758h0l31.729.018a4.93,4.93,0,0,1,4.922,4.926l-.01,17.5h-9.406a2.915,2.915,0,0,1-2.073-.865,7.661,7.661,0,0,0,2.4-1.628,7.707,7.707,0,0,0,0-10.886,7.706,7.706,0,0,0-10.887,0,7.707,7.707,0,0,0,0,10.886,7.657,7.657,0,0,0,3.923,2.1,7.112,7.112,0,0,0,6.633,4.569h9.4l-.006,10.011a2.564,2.564,0,0,1-.758,1.827l-5.733,5.734a2.088,2.088,0,0,0,0,2.954,2.089,2.089,0,0,0,2.953,0l5.734-5.734a6.722,6.722,0,0,0,1.981-4.779l.006-10.013h4.189a7.108,7.108,0,0,0,7.1-7.1A7.109,7.109,0,0,0,1729.643-1661.659Zm-25.372-.4a3.511,3.511,0,0,1,2.491-1.029,3.512,3.512,0,0,1,2.49,1.029,3.518,3.518,0,0,1,.545.712,7.129,7.129,0,0,0-4.752,4.849,3.493,3.493,0,0,1-.774-.581A3.526,3.526,0,0,1,1704.271-1662.06Zm25.372,10.425h-4.186l0-5.847h4.183a2.927,2.927,0,0,1,2.924,2.923A2.927,2.927,0,0,1,1729.643-1651.635Z" transform="translate(-1629.821 1678.255)"/>
  <path id="Trazado_329" data-name="Trazado 329" d="M1779.3-1473.851a2.088,2.088,0,0,0,2.01,1.529,2.08,2.08,0,0,0,.561-.077l21.438-5.967a2.089,2.089,0,0,0,1.452-2.572,2.089,2.089,0,0,0-2.572-1.451l-21.438,5.966A2.09,2.09,0,0,0,1779.3-1473.851Z" transform="translate(-1745.59 1526.541)"/>
  <path id="Trazado_330" data-name="Trazado 330" d="M1815.275-1438.152a6.117,6.117,0,0,0-1.8,4.354,6.116,6.116,0,0,0,1.8,4.354,6.139,6.139,0,0,0,4.354,1.8,6.141,6.141,0,0,0,4.354-1.8,6.164,6.164,0,0,0,0-8.708A6.164,6.164,0,0,0,1815.275-1438.152Zm5.754,5.754a1.983,1.983,0,0,1-2.8,0,1.965,1.965,0,0,1-.58-1.4,1.971,1.971,0,0,1,.58-1.4,1.979,1.979,0,0,1,1.4-.579,1.975,1.975,0,0,1,1.4.579A1.983,1.983,0,0,1,1821.029-1432.4Z" transform="translate(-1772.129 1493.597)"/>
  <path id="Trazado_331" data-name="Trazado 331" d="M1828.588-1523.372a6.165,6.165,0,0,0,0-8.708,6.118,6.118,0,0,0-4.355-1.8,6.114,6.114,0,0,0-4.354,1.8,6.164,6.164,0,0,0,0,8.708,6.14,6.14,0,0,0,4.354,1.8A6.142,6.142,0,0,0,1828.588-1523.372Zm-5.755-5.755a1.967,1.967,0,0,1,1.4-.58,1.964,1.964,0,0,1,1.4.58,1.983,1.983,0,0,1,0,2.8,1.983,1.983,0,0,1-2.8,0A1.984,1.984,0,0,1,1822.833-1529.127Z" transform="translate(-1775.7 1566.383)"/>
  <path id="Trazado_332" data-name="Trazado 332" d="M1689.391-1581.339a2.089,2.089,0,0,0-2.954,0l-5.934,5.934a2.087,2.087,0,0,0-.612,1.476,2.088,2.088,0,0,0,.612,1.477l26.482,26.482a2.083,2.083,0,0,0,1.477.611,2.084,2.084,0,0,0,1.476-.611l39.593-39.594a2.089,2.089,0,0,0,0-2.954L1723.05-1615a2.089,2.089,0,0,0-1.477-.612,2.089,2.089,0,0,0-1.477.612l-21.847,21.847a2.088,2.088,0,0,0,0,2.954,2.089,2.089,0,0,0,2.953,0l20.37-20.37,23.528,23.528-36.64,36.64-23.528-23.528,4.457-4.457A2.088,2.088,0,0,0,1689.391-1581.339Z" transform="translate(-1668.62 1629.713)"/>
  <path id="Trazado_333" data-name="Trazado 333" d="M1980.369-1439.864a2.1,2.1,0,0,0-1.477.612,2.105,2.105,0,0,0-.612,1.477,2.1,2.1,0,0,0,.612,1.476,2.1,2.1,0,0,0,1.477.612,2.107,2.107,0,0,0,1.477-.612,2.105,2.105,0,0,0,.612-1.476,2.106,2.106,0,0,0-.612-1.477A2.106,2.106,0,0,0,1980.369-1439.864Z" transform="translate(-1899.839 1493.528)"/>
  <path id="Trazado_334" data-name="Trazado 334" d="M1736.054-1488.761a2.091,2.091,0,0,0,.613-1.476,2.1,2.1,0,0,0-.613-1.476,2.1,2.1,0,0,0-1.476-.612,2.1,2.1,0,0,0-1.476.612,2.1,2.1,0,0,0-.612,1.476,2.1,2.1,0,0,0,.612,1.476,2.1,2.1,0,0,0,1.476.612A2.09,2.09,0,0,0,1736.054-1488.761Z" transform="translate(-1709.378 1534.181)"/>
</svg>
