<?xml version="1.0" encoding="utf-8"?>
<!-- Generator: Adobe Illustrator 16.0.0, SVG Export Plug-In . SVG Version: 6.00 Build 0)  -->
<!DOCTYPE svg PUBLIC "-//W3C//DTD SVG 1.1//EN" "http://www.w3.org/Graphics/SVG/1.1/DTD/svg11.dtd">
<svg version="1.1" id="Layer_1" xmlns="http://www.w3.org/2000/svg" xmlns:xlink="http://www.w3.org/1999/xlink" x="0px" y="0px"
	 width="1275.59px" height="1275.59px" viewBox="0 0 1275.59 1275.59" enable-background="new 0 0 1275.59 1275.59"
	 xml:space="preserve">
<g>
	<g>
		<rect x="82.298" y="226.314" fill="#333333" width="493.778" height="329.183"/>
		<path fill="#333333" d="M1213.866,123.442H61.723C27.695,123.442,0,151.137,0,185.166v761.238
			c0,34.028,27.695,61.723,61.723,61.723H411.48v102.872H308.608v41.149h658.369v-41.149H864.109v-102.872h349.757
			c34.029,0,61.724-27.694,61.724-61.723V185.166C1275.59,151.137,1247.896,123.442,1213.866,123.442z M61.723,164.591h1152.148
			c11.358,0,20.574,9.237,20.574,20.574v637.795H41.149V185.166C41.149,173.829,50.365,164.591,61.723,164.591z M822.961,1110.998
			H452.629v-102.872h370.332V1110.998z M1213.866,966.978H61.723c-11.358,0-20.574-9.237-20.574-20.574v-82.294h1193.292v82.298
			C1234.441,957.74,1225.226,966.978,1213.866,966.978z"/>
		<path fill="#333333" d="M722.499,617.221h59.317v3.784c-23.889,8.517-41.149,31.151-41.149,57.938
			c0,34.029,27.694,61.724,61.724,61.724c26.787,0,49.418-17.261,57.938-41.148h172.183c8.516,23.888,31.151,41.148,57.938,41.148
			c34.028,0,61.724-27.694,61.724-61.724c0-26.787-17.261-49.418-41.149-57.938v-3.784h59.767l24.688-246.889H761.237v41.149
			h388.745l-16.461,164.591H758.826l-41.148-329.182h-79.887v41.149h43.56L722.499,617.221z M1032.485,658.369H860.303
			c-6.213-17.425-19.935-31.151-37.363-37.364v-3.784h246.889v3.784C1052.425,627.219,1038.698,640.944,1032.485,658.369z
			 M802.387,699.519c-11.359,0-20.575-9.237-20.575-20.575c0-11.337,9.216-20.574,20.575-20.574
			c11.358,0,20.574,9.237,20.574,20.574C822.961,690.281,813.745,699.519,802.387,699.519z M1090.424,699.519
			c-11.358,0-20.574-9.237-20.574-20.575c0-11.337,9.216-20.574,20.574-20.574c11.359,0,20.574,9.237,20.574,20.574
			C1110.998,690.281,1101.778,699.519,1090.424,699.519z"/>
		<rect x="781.812" y="473.204" fill="#333333" width="329.183" height="41.148"/>
		<rect x="82.298" y="617.221" fill="#333333" width="493.778" height="41.148"/>
		<rect x="82.298" y="720.093" fill="#333333" width="493.778" height="41.148"/>
	</g>
</g>
</svg>
