<svg height="512pt" viewBox="0 -12 512 512" width="512pt" xmlns="http://www.w3.org/2000/svg"><path d="m40.015625 128.136719c-4.421875 0-8-3.585938-8-8v-22.9375c0-4.414063 3.578125-8 8-8 4.425781 0 8 3.585937 8 8v22.9375c0 4.414062-3.574219 8-8 8zm0 0"/><path d="m152.015625 128.136719c-4.421875 0-8-3.585938-8-8v-28c0-4.417969 3.578125-8 8-8 4.425781 0 8 3.582031 8 8v28c0 4.414062-3.574219 8-8 8zm0 0"/><path d="m152.015625 100.136719c-4.421875 0-8-3.585938-8-8 0-28.671875-23.328125-52-52-52s-52 23.328125-52 52c0 4.414062-3.574219 8-8 8-4.421875 0-8-3.585938-8-8 0-37.496094 30.503906-68 68-68s68 30.503906 68 68c0 4.421875-3.574219 8-8 8zm0 0"/><path d="m152.023438 111.105469c-2.40625 0-4.785157-1.082031-6.359376-3.136719-15.449218-20.175781-19.671874-18.496094-35.3125-12.304688-15.023437 5.953126-37.71875 14.945313-79.582031 8.34375-4.363281-.6875-7.34375-4.785156-6.648437-9.152343.6875-4.359375 4.789062-7.335938 9.152344-6.65625 37.535156 5.9375 56.984374-1.785157 71.183593-7.414063 19.269531-7.625 32.199219-10.898437 53.910157 17.453125 2.6875 3.503907 2.023437 8.53125-1.488282 11.21875-1.445312 1.109375-3.160156 1.648438-4.855468 1.648438zm0 0"/><path d="m120.007812 91.953125c-1.175781 0-2.382812-.265625-3.511718-.824219-3.96875-1.945312-5.601563-6.746094-3.65625-10.703125l16-32.578125c1.945312-3.96875 6.71875-5.617187 10.703125-3.65625 3.96875 1.945313 5.601562 6.746094 3.65625 10.703125l-16 32.578125c-1.390625 2.839844-4.238281 4.480469-7.191407 4.480469zm0 0"/><path d="m32.015625 224.105469c-4.421875 0-8-3.585938-8-8 0-17.648438 14.351563-32 32-32 4.425781 0 8 3.582031 8 8 0 4.414062-3.574219 8-8 8-8.824219 0-16 7.175781-16 16 0 4.414062-3.574219 8-8 8zm0 0"/><path d="m72.015625 200.152344h-16c-4.421875 0-8-3.585938-8-8 0-4.417969 3.578125-8 8-8h16c4.425781 0 8 3.582031 8 8 0 4.414062-3.574219 8-8 8zm0 0"/><path d="m32.015625 256.136719c-4.421875 0-8-3.578125-8-8v-32.03125c0-4.417969 3.578125-8 8-8 4.425781 0 8 3.582031 8 8v32.03125c0 4.421875-3.574219 8-8 8zm0 0"/><path d="m160.015625 224.105469c-4.421875 0-8-3.585938-8-8 0-8.824219-7.175781-16-16-16-4.421875 0-8-3.585938-8-8 0-4.417969 3.578125-8 8-8 17.648437 0 32 14.351562 32 32 0 4.414062-3.574219 8-8 8zm0 0"/><path d="m136.015625 200.152344h-16c-4.421875 0-8-3.585938-8-8 0-4.417969 3.578125-8 8-8h16c4.425781 0 8 3.582031 8 8 0 4.414062-3.574219 8-8 8zm0 0"/><path d="m160.015625 256.136719c-4.421875 0-8-3.578125-8-8v-32.03125c0-4.417969 3.578125-8 8-8 4.425781 0 8 3.582031 8 8v32.03125c0 4.421875-3.574219 8-8 8zm0 0"/><path d="m160.015625 256.136719h-128c-4.421875 0-8-3.578125-8-8 0-4.417969 3.578125-8 8-8h128c4.425781 0 8 3.582031 8 8 0 4.421875-3.574219 8-8 8zm0 0"/><path d="m72.015625 200.152344c-4.421875 0-8-3.585938-8-8v-21.472656c0-4.414063 3.578125-8 8-8 4.425781 0 8 3.585937 8 8v21.472656c0 4.414062-3.574219 8-8 8zm0 0"/><path d="m120.015625 200.105469c-4.421875 0-8-3.585938-8-8v-21.425781c0-4.414063 3.578125-8 8-8 4.425781 0 8 3.585937 8 8v21.425781c0 4.414062-3.574219 8-8 8zm0 0"/><path d="m96.015625 184.070312c-35.289063 0-64-28.695312-64-63.964843 0-4.417969 3.578125-8 8-8 4.425781 0 8 3.582031 8 8 0 26.445312 21.527344 47.964843 48 47.964843s48-21.519531 48-47.964843c0-4.417969 3.578125-8 8-8 4.425781 0 8 3.582031 8 8 0 35.269531-28.710937 63.964843-64 63.964843zm0 0"/><path d="m80.023438 208.136719c-2.933594 0-5.757813-1.617188-7.167969-4.425781-1.976563-3.949219-.375-8.757813 3.578125-10.734376l16-8c3.957031-1.976562 8.75-.375 10.734375 3.574219 1.976562 3.953125.375 8.761719-3.574219 10.738281l-16 8c-1.144531.574219-2.371094.847657-3.570312.847657zm0 0"/><path d="m112.015625 208.136719c-2.039063 0-4.085937-.777344-5.648437-2.335938-3.128907-3.121093-3.144532-8.183593-.015626-11.3125l8-8.03125c3.121094-3.128906 8.175782-3.136719 11.3125-.023437 3.128907 3.117187 3.144532 8.183594.015626 11.308594l-8 8.035156c-1.558594 1.574218-3.609376 2.359375-5.664063 2.359375zm0 0"/><path d="m80.015625 208.136719c-2.054687 0-4.105469-.785157-5.664063-2.351563l-8-8.03125c-3.128906-3.128906-3.113281-8.195312.015626-11.3125 3.136718-3.121094 8.191406-3.113281 11.3125.023438l8 8.03125c3.128906 3.128906 3.113281 8.191406-.015626 11.3125-1.558593 1.550781-3.609374 2.328125-5.648437 2.328125zm0 0"/><path d="m112.007812 208.136719c-1.199218 0-2.421874-.273438-3.566406-.839844l-16-8c-3.953125-1.976563-5.554687-6.785156-3.578125-10.738281 1.984375-3.949219 6.785157-5.550782 10.738281-3.574219l16 8c3.949219 1.976563 5.550782 6.785156 3.574219 10.734375-1.40625 2.800781-4.230469 4.417969-7.167969 4.417969zm0 0"/><path d="m191.871094 256.070312c-4.421875 0-8-3.574218-8-8 0-17.636718 14.351562-31.992187 32-31.992187 4.425781 0 8 3.585937 8 8 0 4.417969-3.574219 8-8 8-8.824219 0-16 7.179687-16 15.992187 0 4.425782-3.574219 8-8 8zm0 0"/><path d="m231.871094 232.128906h-16c-4.421875 0-8-3.585937-8-8 0-4.417968 3.578125-8 8-8h16c4.425781 0 8 3.582032 8 8 0 4.414063-3.574219 8-8 8zm0 0"/><path d="m191.871094 288.097656c-4.421875 0-8-3.578125-8-8v-32.027344c0-4.414062 3.578125-8 8-8 4.425781 0 8 3.585938 8 8v32.027344c0 4.421875-3.574219 8-8 8zm0 0"/><path d="m319.871094 256.070312c-4.421875 0-8-3.574218-8-8 0-8.8125-7.175782-15.992187-16-15.992187-4.421875 0-8-3.582031-8-8 0-4.414063 3.578125-8 8-8 17.648437 0 32 14.355469 32 31.992187 0 4.425782-3.574219 8-8 8zm0 0"/><path d="m295.871094 232.128906h-16c-4.421875 0-8-3.585937-8-8 0-4.417968 3.578125-8 8-8h16c4.425781 0 8 3.582032 8 8 0 4.414063-3.574219 8-8 8zm0 0"/><path d="m319.871094 288.097656c-4.421875 0-8-3.578125-8-8v-32.027344c0-4.414062 3.578125-8 8-8 4.425781 0 8 3.585938 8 8v32.027344c0 4.421875-3.574219 8-8 8zm0 0"/><path d="m319.871094 288.097656h-128c-4.421875 0-8-3.578125-8-8 0-4.425781 3.578125-8 8-8h128c4.425781 0 8 3.574219 8 8 0 4.421875-3.574219 8-8 8zm0 0"/><path d="m231.871094 232.128906c-4.421875 0-8-3.585937-8-8v-21.464844c0-4.417968 3.578125-8 8-8 4.425781 0 8 3.582032 8 8v21.464844c0 4.414063-3.574219 8-8 8zm0 0"/><path d="m279.871094 232.078125c-4.421875 0-8-3.582031-8-8v-21.414063c0-4.417968 3.578125-8 8-8 4.425781 0 8 3.582032 8 8v21.414063c0 4.417969-3.574219 8-8 8zm0 0"/><path d="m239.878906 240.070312c-2.933594 0-5.765625-1.621093-7.167968-4.421874-1.976563-3.953126-.375-8.761719 3.578124-10.726563l16-7.992187c3.949219-1.976563 8.765626-.371094 10.734376 3.582031 1.976562 3.953125.375 8.761719-3.574219 10.726562l-16 7.992188c-1.144531.570312-2.359375.839843-3.570313.839843zm0 0"/><path d="m271.871094 240.070312c-2.046875 0-4.09375-.78125-5.65625-2.34375-3.125-3.125-3.125-8.183593 0-11.3125l8-7.988281c3.128906-3.121093 8.183594-3.128906 11.3125.007813 3.128906 3.125 3.128906 8.183594 0 11.308594l-8 7.992187c-1.558594 1.554687-3.605469 2.335937-5.65625 2.335937zm0 0"/><path d="m239.871094 240.070312c-2.046875 0-4.09375-.78125-5.65625-2.335937l-8-7.992187c-3.125-3.125-3.125-8.183594 0-11.308594 3.128906-3.136719 8.183594-3.128906 11.3125-.007813l8 7.988281c3.128906 3.128907 3.128906 8.1875 0 11.3125-1.558594 1.5625-3.605469 2.34375-5.65625 2.34375zm0 0"/><path d="m271.863281 240.070312c-1.199219 0-2.421875-.269531-3.566406-.839843l-16-7.992188c-3.953125-1.972656-5.554687-6.773437-3.578125-10.726562 1.96875-3.953125 6.785156-5.558594 10.738281-3.582031l16 7.992187c3.949219 1.972656 5.550781 6.773437 3.574219 10.726563-1.398438 2.800781-4.222656 4.421874-7.167969 4.421874zm0 0"/><path d="m258.984375 136.839844c-23.023437 0-45.191406-8.9375-46.136719-9.320313-4.085937-1.664062-6.046875-6.328125-4.382812-10.414062 1.664062-4.089844 6.328125-6.058594 10.421875-4.402344.203125.082031 20.28125 8.136719 40.097656 8.136719 19.121094 0 32.769531-7.664063 32.894531-7.734375 3.824219-2.175781 8.707032-.867188 10.914063 2.949219 2.191406 3.824218.902343 8.6875-2.90625 10.90625-.695313.390624-17.285157 9.878906-40.902344 9.878906zm0 0"/><path d="m255.871094 216.113281c-35.285156 0-64-28.714843-64-64 0-4.417969 3.578125-8 8-8 4.425781 0 8 3.582031 8 8 0 26.472657 21.527344 48 48 48s48-21.527343 48-48c0-4.417969 3.578125-8 8-8 4.425781 0 8 3.582031 8 8 0 35.285157-28.703125 64-64 64zm0 0"/><path d="m199.871094 160.113281c-4.421875 0-8-3.585937-8-8v-40c0-4.417969 3.578125-8 8-8 4.425781 0 8 3.582031 8 8v40c0 4.414063-3.574219 8-8 8zm0 0"/><path d="m311.871094 160.113281c-4.421875 0-8-3.585937-8-8l.015625-39.992187c0-4.417969 3.585937-8 8-8 4.425781 0 8 3.582031 8 8l-.015625 39.992187c0 4.421875-3.582032 8-8 8zm0 0"/><path d="m311.886719 120.121094c-4.421875 0-8-3.585938-8-8 0-8.832032-7.183594-16.007813-16.015625-16.007813-4.421875 0-8-3.585937-8-8 0-4.417969 3.578125-8 8-8 17.65625 0 32.015625 14.359375 32.015625 32.007813 0 4.414062-3.574219 8-8 8zm0 0"/><path d="m287.871094 96.113281c-4.421875 0-8-3.585937-8-8v-24c0-4.417969 3.578125-8 8-8 4.425781 0 8 3.582031 8 8v24c0 4.414063-3.574219 8-8 8zm0 0"/><path d="m199.871094 120.113281c-4.421875 0-8-3.585937-8-8 0-30.882812 25.128906-56 56-56 4.425781 0 8 3.582031 8 8 0 4.414063-3.574219 8-8 8-22.054688 0-40 17.941407-40 40 0 4.414063-3.574219 8-8 8zm0 0"/><path d="m311.871094 143.375c-1.976563 0-3.960938-.726562-5.503906-2.199219l-16-15.183593c-3.199219-3.039063-3.335938-8.105469-.296876-11.3125 3.058594-3.199219 8.113282-3.335938 11.3125-.296876l16 15.183594c3.203126 3.042969 3.335938 8.105469.296876 11.3125-1.574219 1.664063-3.6875 2.496094-5.808594 2.496094zm0 0"/><path d="m199.871094 143.375c-2.128906 0-4.238282-.839844-5.816406-2.503906-3.039063-3.207032-2.886719-8.269532.320312-11.3125l16-15.109375c3.21875-3.035157 8.28125-2.882813 11.304688.328125 3.039062 3.207031 2.886718 8.269531-.320313 11.3125l-16 15.109375c-1.535156 1.457031-3.519531 2.175781-5.488281 2.175781zm0 0"/><path d="m287.871094 72.113281h-40c-4.421875 0-8-3.585937-8-8 0-4.417969 3.578125-8 8-8h40c4.425781 0 8 3.582031 8 8 0 4.414063-3.574219 8-8 8zm0 0"/><path d="m351.976562 191.96875c-4.425781 0-8-3.585938-8-8 0-17.648438 14.351563-32 32-32 4.421876 0 8 3.582031 8 8 0 4.414062-3.578124 8-8 8-8.824218 0-16 7.175781-16 16 0 4.421875-3.578124 8-8 8zm0 0"/><path d="m391.976562 168.015625h-16c-4.425781 0-8-3.582031-8-8 0-4.414063 3.574219-8 8-8h16c4.421876 0 8 3.585937 8 8 0 4.417969-3.578124 8-8 8zm0 0"/><path d="m351.976562 224.007812c-4.425781 0-8-3.582031-8-8v-32.039062c0-4.417969 3.574219-8 8-8 4.421876 0 8 3.582031 8 8v32.039062c0 4.417969-3.578124 8-8 8zm0 0"/><path d="m479.976562 191.96875c-4.425781 0-8-3.585938-8-8 0-8.824219-7.175781-16-16-16-4.425781 0-8-3.585938-8-8 0-4.417969 3.574219-8 8-8 17.648438 0 32 14.351562 32 32 0 4.421875-3.578124 8-8 8zm0 0"/><path d="m455.976562 168.015625h-16c-4.425781 0-8-3.582031-8-8 0-4.414063 3.574219-8 8-8h16c4.421876 0 8 3.585937 8 8 0 4.417969-3.578124 8-8 8zm0 0"/><path d="m479.976562 224.007812c-4.425781 0-8-3.582031-8-8v-32.039062c0-4.417969 3.574219-8 8-8 4.421876 0 8 3.582031 8 8v32.039062c0 4.417969-3.578124 8-8 8zm0 0"/><path d="m479.976562 224.007812h-128c-4.425781 0-8-3.582031-8-8 0-4.414062 3.574219-8 8-8h128c4.421876 0 8 3.585938 8 8 0 4.417969-3.578124 8-8 8zm0 0"/><path d="m391.976562 168.015625c-4.425781 0-8-3.582031-8-8v-21.472656c0-4.414063 3.574219-8 8-8 4.421876 0 8 3.585937 8 8v21.472656c0 4.417969-3.578124 8-8 8zm0 0"/><path d="m439.976562 167.96875c-4.425781 0-8-3.585938-8-8v-21.425781c0-4.414063 3.574219-8 8-8 4.421876 0 8 3.585937 8 8v21.425781c0 4.421875-3.578124 8-8 8zm0 0"/><path d="m399.984375 175.96875c-2.9375 0-5.761719-1.617188-7.167969-4.425781-1.976562-3.949219-.375-8.757813 3.574219-10.734375l16-8c3.953125-1.984375 8.753906-.367188 10.738281 3.574218 1.976563 3.953126.375 8.761719-3.578125 10.738282l-16 8c-1.144531.582031-2.367187.847656-3.566406.847656zm0 0"/><path d="m431.976562 175.96875c-2.046874 0-4.097656-.785156-5.65625-2.34375-3.128906-3.128906-3.128906-8.183594 0-11.3125l8-8c3.128907-3.128906 8.183594-3.128906 11.3125 0 3.128907 3.128906 3.128907 8.183594 0 11.3125l-8 8c-1.5625 1.566406-3.609374 2.34375-5.65625 2.34375zm0 0"/><path d="m399.976562 175.96875c-2.046874 0-4.097656-.785156-5.65625-2.34375l-8-8c-3.128906-3.128906-3.128906-8.183594 0-11.3125 3.128907-3.128906 8.183594-3.128906 11.3125 0l8 8c3.128907 3.128906 3.128907 8.183594 0 11.3125-1.5625 1.566406-3.609374 2.34375-5.65625 2.34375zm0 0"/><path d="m431.96875 175.96875c-1.199219 0-2.425781-.273438-3.570312-.839844l-16-8c-3.949219-1.976562-5.550782-6.785156-3.574219-10.738281 1.984375-3.949219 6.785156-5.558594 10.734375-3.574219l16 8c3.953125 1.976563 5.554687 6.785156 3.578125 10.734375-1.410157 2.800781-4.234375 4.417969-7.167969 4.417969zm0 0"/><path d="m419.089844 72.726562c-23.027344 0-45.195313-8.933593-46.136719-9.320312-4.089844-1.664062-6.050781-6.328125-4.386719-10.414062 1.664063-4.097657 6.320313-6.0625 10.425782-4.398438.199218.078125 20.28125 8.132812 40.097656 8.132812 19.117187 0 32.765625-7.664062 32.894531-7.734374 3.824219-2.183594 8.710937-.871094 10.910156 2.953124 2.195313 3.824219.90625 8.6875-2.902343 10.902344-.695313.390625-17.289063 9.878906-40.902344 9.878906zm0 0"/><path d="m415.976562 152c-35.289062 0-64-28.710938-64-64 0-4.414062 3.574219-8 8-8 4.421876 0 8 3.585938 8 8 0 26.472656 21.527344 48 48 48 26.472657 0 48-21.527344 48-48 0-4.414062 3.574219-8 8-8 4.421876 0 8 3.585938 8 8 0 35.289062-28.710937 64-64 64zm0 0"/><path d="m359.976562 96c-4.425781 0-8-3.585938-8-8v-24c0-4.414062 3.574219-8 8-8 4.421876 0 8 3.585938 8 8v24c0 4.414062-3.578124 8-8 8zm0 0"/><path d="m471.976562 96c-4.425781 0-8-3.585938-8-8l.015626-23.992188c0-4.414062 3.582031-8 8-8h.007812c4.414062 0 7.992188 3.585938 7.992188 8l-.015626 23.992188c0 4.425781-3.585937 8-8 8zm0 0"/><path d="m471.992188 72c-4.425782 0-8-3.585938-8-8 0-26.472656-21.527344-48-48-48-26.472657 0-48 21.527344-48 48 0 4.414062-3.578126 8-8 8-4.425782 0-8-3.585938-8-8 0-35.289062 28.710937-64 64-64 35.289062 0 64 28.710938 64 64 0 4.414062-3.578126 8-8 8zm0 0"/><path d="m471.976562 79.265625c-1.976562 0-3.960937-.730469-5.503906-2.203125l-16-15.183594c-3.199218-3.039062-3.335937-8.101562-.296875-11.3125 3.046875-3.199218 8.113281-3.335937 11.3125-.292968l16 15.183593c3.199219 3.039063 3.335938 8.101563.296875 11.3125-1.585937 1.664063-3.6875 2.496094-5.808594 2.496094zm0 0"/><path d="m359.976562 79.265625c-2.128906 0-4.242187-.839844-5.816406-2.503906-3.039062-3.210938-2.886718-8.273438.320313-11.3125l16-15.113281c3.214843-3.039063 8.273437-2.886719 11.304687.328124 3.039063 3.207032 2.886719 8.273438-.320312 11.3125l-16 15.113282c-1.542969 1.453125-3.519532 2.175781-5.488282 2.175781zm0 0"/><path d="m160.015625 488.113281h-128c-4.421875 0-8-3.578125-8-8v-199.945312c0-4.425781 3.578125-8 8-8h128c4.425781 0 8 3.574219 8 8v199.945312c0 4.421875-3.574219 8-8 8zm-120-16h112v-183.945312h-112zm0 0"/><path d="m319.871094 488.113281h-128c-4.421875 0-8-3.578125-8-8v-167.914062c0-4.421875 3.578125-8 8-8h128c4.425781 0 8 3.578125 8 8v167.914062c0 4.421875-3.574219 8-8 8zm-120-16h112v-151.914062h-112zm0 0"/><path d="m479.976562 488.113281h-128c-4.425781 0-8-3.578125-8-8v-231.976562c0-4.417969 3.574219-8 8-8h128c4.421876 0 8 3.582031 8 8v231.976562c0 4.421875-3.578124 8-8 8zm-120-16h112v-215.976562h-112zm0 0"/><path d="m96.03125 408.121094c-4.421875 0-8-3.578125-8-8v-48c0-4.425782 3.578125-8 8-8 4.425781 0 8 3.574218 8 8v48c0 4.421875-3.574219 8-8 8zm0 0"/><path d="m80.023438 376.121094c-2.046876 0-4.09375-.785156-5.65625-2.34375-3.128907-3.128906-3.128907-8.183594 0-11.3125l16.007812-16c3.128906-3.128906 8.183594-3.128906 11.3125 0s3.128906 8.183594 0 11.3125l-16.007812 16c-1.558594 1.558594-3.609376 2.34375-5.65625 2.34375zm0 0"/><path d="m112.023438 376.121094c-2.046876 0-4.09375-.785156-5.65625-2.34375l-15.992188-16c-3.128906-3.128906-3.128906-8.183594 0-11.3125s8.183594-3.128906 11.3125 0l15.992188 16c3.128906 3.128906 3.128906 8.183594 0 11.3125-1.558594 1.558594-3.609376 2.34375-5.65625 2.34375zm0 0"/><path d="m256.007812 432.070312c-4.421874 0-8-3.574218-8-8v-48c0-4.421874 3.578126-8 8-8 4.425782 0 8 3.578126 8 8v48c0 4.425782-3.574218 8-8 8zm0 0"/><path d="m256.007812 432.070312c-2.046874 0-4.097656-.78125-5.65625-2.34375-3.128906-3.125-3.128906-8.183593 0-11.3125l16.007813-16c3.128906-3.125 8.183594-3.125 11.3125 0 3.128906 3.128907 3.128906 8.1875 0 11.3125l-16.007813 16c-1.558593 1.5625-3.609374 2.34375-5.65625 2.34375zm0 0"/><path d="m256.007812 432.070312c-2.046874 0-4.097656-.78125-5.65625-2.34375l-15.992187-16c-3.128906-3.125-3.128906-8.183593 0-11.3125 3.128906-3.125 8.183594-3.125 11.3125 0l15.992187 16c3.128907 3.128907 3.128907 8.1875 0 11.3125-1.558593 1.5625-3.609374 2.34375-5.65625 2.34375zm0 0"/><path d="m416 400.039062c-4.425781 0-8-3.574218-8-8v-48c0-4.421874 3.574219-8 8-8s8 3.578126 8 8v48c0 4.425782-3.574219 8-8 8zm0 0"/><path d="m399.992188 368.039062c-2.046876 0-4.097657-.78125-5.65625-2.34375-3.128907-3.128906-3.128907-8.183593 0-11.3125l16.007812-16c3.128906-3.125 8.183594-3.125 11.3125 0 3.128906 3.128907 3.128906 8.183594 0 11.3125l-16.007812 16c-1.558594 1.5625-3.609376 2.34375-5.65625 2.34375zm0 0"/><path d="m431.992188 368.039062c-2.046876 0-4.097657-.78125-5.65625-2.34375l-15.992188-16c-3.128906-3.128906-3.128906-8.183593 0-11.3125 3.128906-3.125 8.183594-3.125 11.3125 0l15.992188 16c3.128906 3.128907 3.128906 8.183594 0 11.3125-1.558594 1.5625-3.609376 2.34375-5.65625 2.34375zm0 0"/><path d="m504 488.128906h-496c-4.425781 0-8-3.578125-8-8 0-4.425781 3.574219-8 8-8h496c4.425781 0 8 3.574219 8 8 0 4.421875-3.574219 8-8 8zm0 0"/></svg>