<svg id="Layer_35" enable-background="new 0 0 64 64" height="512" viewBox="0 0 64 64" width="512" xmlns="http://www.w3.org/2000/svg"><path d="m48 57h2v2h-2z"/><path d="m48 53h2v2h-2z"/><path d="m48 49h2v2h-2z"/><path d="m14 5h2v2h-2z"/><path d="m14 9h2v2h-2z"/><path d="m14 13h2v2h-2z"/><path d="m61 32c-.732 0-1.409.212-2 .556v-8.556c0-1.654-1.346-3-3-3-.395 0-.77.081-1.116.22-.345-1.275-1.501-2.22-2.884-2.22-1.654 0-3 1.346-3 3v10h2v-10c0-.551.449-1 1-1s1 .449 1 1v2 7 1h2v-1-7c0-.551.449-1 1-1s1 .449 1 1v12 2 1.382l-.979.489c-1.83.916-3.165 2.579-3.661 4.563l-.331 1.323 1.94.485.331-1.323c.354-1.418 1.308-2.606 2.615-3.26l2.085-1.041v-2.618-2c0-1.103.897-2 2-2v10.667c0 .645-.213 1.284-.6 1.8l-2.4 3.2v11.333h-12v-13.333l-1.771-2.361-1.6 1.2 1.371 1.827v14.667h16v-12.667l2-2.667c.645-.86 1-1.925 1-3v-12.666z"/><path d="m20 15.667v-14.667h-16v12.667l-2 2.667c-.645.86-1 1.925-1 3v12.666h2c.732 0 1.409-.212 2-.556v8.556c0 1.654 1.346 3 3 3 .395 0 .77-.081 1.116-.22.345 1.275 1.501 2.22 2.884 2.22 1.654 0 3-1.346 3-3v-10h-2v10c0 .551-.449 1-1 1s-1-.449-1-1v-2-7-1h-2v1 7c0 .551-.449 1-1 1s-1-.449-1-1v-12-2-1.382l.979-.489c1.83-.916 3.165-2.579 3.661-4.563l.331-1.323-1.94-.485-.332 1.322c-.354 1.418-1.308 2.606-2.615 3.26l-2.084 1.042v2.618 2c0 1.103-.897 2-2 2v-10.667c0-.645.213-1.285.6-1.8l2.4-3.2v-11.333h12v13.333l1.771 2.361 1.6-1.2z"/><path d="m32 51c-10.477 0-19-8.523-19-19s8.523-19 19-19 19 8.523 19 19-8.523 19-19 19zm0-33c-7.72 0-14 6.28-14 14s6.28 14 14 14 14-6.28 14-14-6.28-14-14-14z" fill="#f0bc5e"/><path d="m32 47c-8.271 0-15-6.729-15-15s6.729-15 15-15 15 6.729 15 15-6.729 15-15 15zm0-28c-7.168 0-13 5.832-13 13s5.832 13 13 13 13-5.832 13-13-5.832-13-13-13z"/><path d="m32 31c-1.103 0-2-.897-2-2v-2h2c1.103 0 2 .897 2 2h2c0-1.858-1.28-3.411-3-3.858v-2.142h-2v2h-3v4c0 2.206 1.794 4 4 4 1.103 0 2 .897 2 2v2h-2c-1.103 0-2-.897-2-2h-2c0 1.858 1.28 3.411 3 3.858v2.142h2v-2h3v-4c0-2.206-1.794-4-4-4z"/><path d="m39 31h2v2h-2z"/><path d="m23 31h2v2h-2z"/><path d="m47.025 13.284c-.525-.422-1.073-.826-1.628-1.2l1.118-1.658c.601.405 1.194.842 1.763 1.3z"/><path d="m43.52 10.94c-4.916-2.694-10.833-3.573-16.321-2.46l-.397-1.96c5.948-1.206 12.354-.253 17.679 2.666z"/><path d="m25 11c-1.654 0-3-1.346-3-3s1.346-3 3-3 3 1.346 3 3-1.346 3-3 3z" fill="#f0bc5e"/><path d="m17.485 53.575c-.601-.405-1.194-.842-1.763-1.3l1.253-1.559c.525.422 1.073.826 1.628 1.2z"/><path d="m32 58c-4.363 0-8.678-1.102-12.48-3.186l.961-1.754c4.916 2.694 10.834 3.572 16.321 2.46l.397 1.96c-1.701.345-3.451.52-5.199.52z"/><path d="m39 59c-1.654 0-3-1.346-3-3s1.346-3 3-3 3 1.346 3 3-1.346 3-3 3z" fill="#f0bc5e"/></svg>