<svg id="Layer_35" enable-background="new 0 0 64 64" height="512" viewBox="0 0 64 64" width="512" xmlns="http://www.w3.org/2000/svg"><g fill="#f0bc5e"><path d="m31.458 26c-.298-.947-.458-1.955-.458-3 0-2.279.771-4.372 2.054-6.054l1.892-1.892c1.682-1.283 3.775-2.054 6.054-2.054 5.523 0 10 4.477 10 10 0 1.047-.163 2.054-.463 3.001z"/><path d="m32 50c-5.514 0-10-4.486-10-10s4.486-10 10-10 10 4.486 10 10-4.486 10-10 10z"/><path d="m26.414 54h-14.828l7.414 6.414z"/><path d="m35.586 50 6.414 6.414 6.414-6.414z"/></g><circle cx="6" cy="30" r="1"/><circle cx="6" cy="50" r="1"/><circle cx="58" cy="30" r="1"/><path d="m32 43c-.551 0-1-.448-1-1h-2c0 1.302.839 2.402 2 2.816v2.184h2v-2h2v-3c0-1.654-1.346-3-3-3-.551 0-1-.448-1-1v-1h1c.551 0 1 .448 1 1h2c0-1.302-.839-2.402-2-2.816v-2.184h-2v2h-2v3c0 1.654 1.346 3 3 3 .551 0 1 .448 1 1v1z"/><circle cx="38" cy="40" r="1"/><circle cx="26" cy="40" r="1"/><circle cx="58" cy="50" r="1"/><path d="m48 9.071 1.636 1.636 1.414-1.414-3.05-3.05-3.05 3.05 1.414 1.414z"/><path d="m54.707 19.05 3.05-3.05-3.05-3.05-1.414 1.414 1.636 1.636-1.636 1.636z"/><path d="m63.414 16-15.414-15.414-24.414 24.414h-22.586v38h62v-38h-8.586zm-15.414-12.586 12.586 12.586-9 9h-8.586c0-.911-.355-1.769-1-2.414l-.585-.586c-.268-.268-.415-.622-.415-1s.147-.732.414-1l.586-.586 1.585 1.586c.268.268.415.622.415 1s-.147.732-.414 1l-.293.293 1.414 1.414.293-.293c.645-.646 1-1.503 1-2.414 0-.713-.223-1.388-.626-1.959l1.333-1.333-1.414-1.414-1.293 1.292-2-2-2 2c-.645.646-1 1.503-1 2.414s.355 1.769 1 2.414l.585.586c.268.268.415.622.415 1h-2.585c-.268-.268-.415-.622-.415-1s.147-.732.414-1l.293-.293-1.414-1.414-.293.293c-.645.646-1 1.503-1 2.414 0 .346.067.678.165 1h-9.751zm13 49.586h-15.586l-2 2h17.586v2h-38.054l-2.312 2h40.366v2h-58v-2h14.365l-2.312-2h-12.053v-2h37.586l-2-2h-35.586v-26h58z"/><path d="m12 33h2v2h-2z"/><path d="m16 33h2v2h-2z"/><path d="m50 45h2v2h-2z"/><path d="m46 45h2v2h-2z"/><path d="m9 50v1h46v-1c0-1.654 1.346-3 3-3h1v-14h-1c-1.654 0-3-1.346-3-3v-1h-46v1c0 1.654-1.346 3-3 3h-1v14h1c1.654 0 3 1.346 3 3zm-2-15.101c1.956-.398 3.501-1.943 3.899-3.899h42.201c.398 1.956 1.943 3.501 3.899 3.899v10.201c-1.956.398-3.501 1.943-3.899 3.899h-42.201c-.398-1.955-1.943-3.5-3.899-3.898z"/></svg>