<svg xmlns="http://www.w3.org/2000/svg" width="30.103" height="33.991" viewBox="0 0 30.103 33.991">
    <g data-name="Grupo 58">
        <path d="M7.953 17.414c0-.915-.636-1.462-1.757-1.462a3.84 3.84 0 0 0-.93.088v2.939a3.486 3.486 0 0 0 .752.059c1.197.003 1.935-.602 1.935-1.624z" data-name="Trazado 352"/>
        <path d="M14.895 15.984a4.687 4.687 0 0 0-1.019.089v6.512a4.086 4.086 0 0 0 .783.045c2.038.014 3.367-1.107 3.367-3.485a2.855 2.855 0 0 0-3.131-3.161z" data-name="Trazado 353"/>
        <path d="M28.196 12.158h-.816V8.22a.575.575 0 0 0-.007-.074.654.654 0 0 0-.158-.432L20.662.228h-.005a.661.661 0 0 0-.133-.111C20.51.1 20.496.094 20.481.086a.687.687 0 0 0-.132-.055l-.036-.012A.665.665 0 0 0 20.16 0H4.054a1.334 1.334 0 0 0-1.333 1.333v10.825h-.816a1.905 1.905 0 0 0-1.909 1.905v9.907a1.905 1.905 0 0 0 1.905 1.905h.816v6.782A1.334 1.334 0 0 0 4.05 33.99h21.998a1.335 1.335 0 0 0 1.333-1.333v-6.781h.815a1.906 1.906 0 0 0 1.905-1.905v-9.907a1.905 1.905 0 0 0-1.905-1.906zM4.054 1.333h15.442v6.82a.667.667 0 0 0 .666.666h5.888v3.339H4.054zM20.418 19.07a5.045 5.045 0 0 1-1.656 4.03 7.14 7.14 0 0 1-4.591 1.284 19.564 19.564 0 0 1-2.555-.147v-9.774a20.138 20.138 0 0 1 3.043-.206 6.407 6.407 0 0 1 4.075 1.063 4.4 4.4 0 0 1 1.684 3.75zM3.036 24.283v-9.82a18.5 18.5 0 0 1 3.042-.206 4.771 4.771 0 0 1 3.042.8 2.908 2.908 0 0 1 1.062 2.3 3.177 3.177 0 0 1-.915 2.363 4.614 4.614 0 0 1-3.234 1.049 5.635 5.635 0 0 1-.767-.045v3.559h-2.23zM26.048 32.3H4.054v-6.424h21.994V32.3zm1.931-16.121h-3.825v2.271h3.574v1.831h-3.574v4h-2.258V14.33h6.084z" data-name="Trazado 354"/>
    </g>
</svg>
