<svg id="Grupo_75" data-name="Grupo 75" xmlns="http://www.w3.org/2000/svg" width="97.248" height="97.248" viewBox="0 0 97.248 97.248">
  <g id="Grupo_34" data-name="Grupo 34" transform="translate(0)">
    <g id="Grupo_15" data-name="Grupo 15" transform="translate(50.192 87.837)">
      <g id="Grupo_14" data-name="Grupo 14">
        <rect id="Rectángulo_14" data-name="Rectángulo 14" width="18.822" height="3.137"/>
      </g>
    </g>
    <g id="Grupo_17" data-name="Grupo 17" transform="translate(37.644 28.233)">
      <g id="Grupo_16" data-name="Grupo 16">
        <rect id="Rectángulo_15" data-name="Rectángulo 15" width="3.137" height="47.055"/>
      </g>
    </g>
    <g id="Grupo_19" data-name="Grupo 19">
      <g id="Grupo_18" data-name="Grupo 18">
        <path id="Trazado_309" data-name="Trazado 309" d="M2562.924-1653.118h-6.274v-23.528a7.852,7.852,0,0,0-7.843-7.842h-40.781a7.852,7.852,0,0,0-7.843,7.842v7.843h-25.1v17.254h-6.274v47.055h31.37v9.411a7.852,7.852,0,0,0,7.843,7.843h40.781a7.852,7.852,0,0,0,7.843-7.843v-23.528h6.274a3.14,3.14,0,0,0,3.137-3.137v-28.233A3.14,3.14,0,0,0,2562.924-1653.118Zm-62.741,23.816a4.648,4.648,0,0,0-1.568-.289h-3.137a1.57,1.57,0,0,1-1.569-1.569,1.57,1.57,0,0,1,1.569-1.568h3.137a1.57,1.57,0,0,1,1.568,1.568Zm0-6.274a4.648,4.648,0,0,0-1.568-.289V-1639h-3.137v3.137a4.711,4.711,0,0,0-4.706,4.705,4.711,4.711,0,0,0,4.706,4.706h3.137a1.57,1.57,0,0,1,1.568,1.569,1.57,1.57,0,0,1-1.568,1.568h-3.137a1.57,1.57,0,0,1-1.569-1.568h-3.137a4.711,4.711,0,0,0,4.706,4.705v3.137h3.137v-3.137a4.654,4.654,0,0,0,1.568-.289v6.172a14.214,14.214,0,0,1-3.137.391,14.133,14.133,0,0,1-14.117-14.117,14.133,14.133,0,0,1,14.117-14.116,14.114,14.114,0,0,1,3.137.392Zm0-9.4a17.3,17.3,0,0,0-3.137-.3,17.274,17.274,0,0,0-17.254,17.254,17.274,17.274,0,0,0,17.254,17.254,17.3,17.3,0,0,0,3.137-.3v3.433H2471.95v-40.781h28.233Zm0-6.57h-21.959v-14.116h21.959Zm62.741,1.568v3.137h-43.918v-3.137Zm0,6.274v3.137h-43.918v-3.137Zm-59.6-32.939a4.711,4.711,0,0,1,4.706-4.705h40.781a4.711,4.711,0,0,1,4.706,4.705v4.706H2503.32Zm50.192,81.563a4.711,4.711,0,0,1-4.706,4.705h-40.781a4.711,4.711,0,0,1-4.706-4.705v-4.705h50.192Zm0-7.843H2503.32V-1668.8h50.192v15.685h-34.507a3.14,3.14,0,0,0-3.137,3.137v28.233a3.14,3.14,0,0,0,3.137,3.137h34.507Zm-34.507-18.822v-15.685h43.918v15.685Z" transform="translate(-2468.813 1684.488)"/>
      </g>
    </g>
    <g id="Grupo_21" data-name="Grupo 21" transform="translate(53.329 56.466)">
      <g id="Grupo_20" data-name="Grupo 20">
        <rect id="Rectángulo_16" data-name="Rectángulo 16" width="7.843" height="3.137"/>
      </g>
    </g>
    <g id="Grupo_23" data-name="Grupo 23" transform="translate(6.274 39.213)">
      <g id="Grupo_22" data-name="Grupo 22">
        <path id="Trazado_310" data-name="Trazado 310" d="M2496.684-1510.295v6.274h3.137v-3.137h3.137v-3.137Z" transform="translate(-2496.684 1510.295)"/>
      </g>
    </g>
    <g id="Grupo_25" data-name="Grupo 25" transform="translate(12.548 21.959)">
      <g id="Grupo_24" data-name="Grupo 24">
        <path id="Trazado_311" data-name="Trazado 311" d="M2524.555-1586.94v6.274h3.137v-3.137h3.137v-3.137Z" transform="translate(-2524.555 1586.94)"/>
      </g>
    </g>
    <g id="Grupo_27" data-name="Grupo 27" transform="translate(6.274 67.446)">
      <g id="Grupo_26" data-name="Grupo 26">
        <path id="Trazado_312" data-name="Trazado 312" d="M2499.821-1381.738v-3.137h-3.137v6.274h6.274v-3.137Z" transform="translate(-2496.684 1384.875)"/>
      </g>
    </g>
    <g id="Grupo_29" data-name="Grupo 29" transform="translate(87.837 56.466)">
      <g id="Grupo_28" data-name="Grupo 28">
        <rect id="Rectángulo_17" data-name="Rectángulo 17" width="3.137" height="3.137"/>
      </g>
    </g>
    <g id="Grupo_31" data-name="Grupo 31" transform="translate(81.563 56.466)">
      <g id="Grupo_30" data-name="Grupo 30">
        <rect id="Rectángulo_18" data-name="Rectángulo 18" width="3.137" height="3.137"/>
      </g>
    </g>
    <g id="Grupo_33" data-name="Grupo 33" transform="translate(37.644 21.959)">
      <g id="Grupo_32" data-name="Grupo 32">
        <rect id="Rectángulo_19" data-name="Rectángulo 19" width="3.137" height="3.137"/>
      </g>
    </g>
  </g>
</svg>
