<svg id="Grupo_77" data-name="Grupo 77" xmlns="http://www.w3.org/2000/svg" width="97.212" height="97.212" viewBox="0 0 97.212 97.212">
  <g id="Grupo_11" data-name="Grupo 11" transform="translate(0)">
    <g id="Grupo_10" data-name="Grupo 10" transform="translate(0 0)">
      <g id="Grupo_9" data-name="Grupo 9">
        <g id="Grupo_8" data-name="Grupo 8">
          <path id="Trazado_271" data-name="Trazado 271" d="M4075.95-1607h.127v-9.407a35.145,35.145,0,0,0-1.7-10.026l-5.111-11.926h-8.338l-5.159,12.048a34.946,34.946,0,0,0-1.648,9.9v3.136h-4.7a4.71,4.71,0,0,1-4.7-4.7v-6.531a25.082,25.082,0,0,0,12.543-21.692v-.223a6.265,6.265,0,0,0,4.7-6.049,8.762,8.762,0,0,0-1.656-5.375,4.939,4.939,0,0,0,.088-.9v-3.136a28.255,28.255,0,0,0-28.223-28.223,28.255,28.255,0,0,0-28.222,28.223v3.136a4.912,4.912,0,0,0,.088.9,8.761,8.761,0,0,0-1.656,5.375,6.265,6.265,0,0,0,4.7,6.049v.223a25.082,25.082,0,0,0,12.543,21.692v6.531a4.71,4.71,0,0,1-4.7,4.7h-7.84v-2.209a9.672,9.672,0,0,0,4.7-8.766,9.686,9.686,0,0,0-7.495-9.37l-1.913-.431v8.233h-3.136v-8.236l-1.916.434a9.7,9.7,0,0,0-7.491,9.37,9.674,9.674,0,0,0,4.7,8.766v3.944a18.824,18.824,0,0,0-10.975,17.081v1.568h3.136v-1.568a15.7,15.7,0,0,1,14.111-15.6v17.167h3.136v-17.247h4.7v17.247h3.136v-17.247h3.136a7.8,7.8,0,0,0,1.847-.243,15.7,15.7,0,0,0,15.4,12.786,15.7,15.7,0,0,0,15.4-12.786,7.8,7.8,0,0,0,1.847.243h3.136v17.247h3.136v-17.247h4.7v17.247h3.136v-17.168a15.7,15.7,0,0,1,14.112,15.6v1.568h3.136v-1.568A18.718,18.718,0,0,0,4075.95-1607Zm-71.128-10.812-.87.433v4.108h-1.568a18.7,18.7,0,0,0-4.7.619v-4.727l-.87-.433a6.575,6.575,0,0,1-3.834-6.435,6.618,6.618,0,0,1,3.136-5.542v7.11h9.407v-7.114a6.616,6.616,0,0,1,3.136,5.546A6.575,6.575,0,0,1,4004.822-1617.809Zm52.44-36a9.748,9.748,0,0,0,1.193-.908,6.591,6.591,0,0,1,.375,2.253,3.127,3.127,0,0,1-1.568,2.7Zm-26.655-33.069v10.9h3.136v-10.9a25.082,25.082,0,0,1,23.477,24.182c-5.58-2.974-17.293-3.879-25.045-3.879s-19.464.9-25.044,3.878A25.08,25.08,0,0,1,4030.607-1686.881Zm-23.519,37.113a3.121,3.121,0,0,1-1.568-2.7,6.585,6.585,0,0,1,.375-2.255,9.432,9.432,0,0,0,1.193.908Zm0-8.966c.307-1.6,9.428-4.708,25.085-4.708s24.791,3.112,25.087,4.7c0,3.082-9.384,6.271-25.087,6.271S4007.1-1655.653,4007.09-1658.734Zm3.135,12.538v-6.06c6.913,2.634,17.626,2.924,21.951,2.924s15.038-.29,21.951-2.924v6.06a21.975,21.975,0,0,1-21.951,21.951A21.975,21.975,0,0,1,4010.224-1646.2Zm21.951,45.47a12.557,12.557,0,0,1-12.452-11.092,7.8,7.8,0,0,0,3.045-6.156v-4.983a24.925,24.925,0,0,0,9.407,1.847,24.921,24.921,0,0,0,9.408-1.847v4.983a7.8,7.8,0,0,0,3.045,6.156A12.558,12.558,0,0,1,4032.175-1600.725Zm29.446-12.543h-4.359v-3.136a31.9,31.9,0,0,1,1.441-8.79l4.3-10.026h.535v14.4a4.7,4.7,0,0,0-3.136,4.416A4.674,4.674,0,0,0,4061.621-1613.268Zm3.48-1.568a1.57,1.57,0,0,1-1.568-1.568,1.57,1.57,0,0,1,1.568-1.568,1.569,1.569,0,0,1,1.568,1.568A1.569,1.569,0,0,1,4065.1-1614.836Zm7.84,5.132a18.778,18.778,0,0,0-5.373-2.713,4.689,4.689,0,0,0,2.237-3.987,4.7,4.7,0,0,0-3.136-4.415v-14.4h.535l4.249,9.9a32.239,32.239,0,0,1,1.488,8.914v6.7Z" transform="translate(-3983.569 1690.097)"/>
          <path id="Trazado_272" data-name="Trazado 272" d="M4195.66-1498.9h14.111v-3.136h-17.248v15.679h3.136Z" transform="translate(-4145.486 1544.372)"/>
          <rect id="Rect치ngulo_12" data-name="Rect치ngulo 12" width="3.136" height="3.136" transform="translate(28.223 20.383)"/>
          <rect id="Rect치ngulo_13" data-name="Rect치ngulo 13" width="3.136" height="3.136" transform="translate(34.495 18.815)"/>
        </g>
      </g>
    </g>
  </g>
</svg>
