<svg xmlns="http://www.w3.org/2000/svg" width="96.801" height="96.801" viewBox="0 0 96.801 96.801">
  <g id="Grupo_78" data-name="Grupo 78" transform="translate(0 0)">
    <path id="Trazado_289" data-name="Trazado 289" d="M122.393-1493.709a14.068,14.068,0,0,1-14.052-14.052,14.068,14.068,0,0,1,14.052-14.052,14.068,14.068,0,0,1,14.052,14.052A14.068,14.068,0,0,1,122.393-1493.709Zm0-24.981a10.942,10.942,0,0,0-10.929,10.929,10.942,10.942,0,0,0,10.929,10.929,10.942,10.942,0,0,0,10.929-10.929A10.942,10.942,0,0,0,122.393-1518.69Z" transform="translate(-92.728 1559.284)"/>
    <path id="Trazado_290" data-name="Trazado 290" d="M143.891-1478.457a7.815,7.815,0,0,1-7.807-7.807,7.815,7.815,0,0,1,7.807-7.806,7.815,7.815,0,0,1,7.807,7.806A7.815,7.815,0,0,1,143.891-1478.457Zm0-12.49a4.69,4.69,0,0,0-4.684,4.684,4.69,4.69,0,0,0,4.684,4.684,4.69,4.69,0,0,0,4.684-4.684A4.69,4.69,0,0,0,143.891-1490.947Z" transform="translate(-114.226 1537.787)"/>
    <path id="Trazado_291" data-name="Trazado 291" d="M198.506-1577.3h3.123v16.793h-3.123Z" transform="translate(-162.596 1602.28)"/>
    <path id="Trazado_292" data-name="Trazado 292" d="M231.741-1649.678l-2.309-2.1,5.174-5.686a9.391,9.391,0,0,1,6.927-3.062H281.8v3.123H241.534a6.26,6.26,0,0,0-4.618,2.042Z" transform="translate(-186.56 1666.773)"/>
    <path id="Trazado_293" data-name="Trazado 293" d="M211-1613.359h-12.49v-1.561a10.942,10.942,0,0,1,10.929-10.929H211a6.251,6.251,0,0,1,6.245,6.245A6.252,6.252,0,0,1,211-1613.359Zm-9.21-3.122H211a3.126,3.126,0,0,0,3.122-3.123,3.126,3.126,0,0,0-3.122-3.123h-1.561A7.818,7.818,0,0,0,201.786-1616.481Z" transform="translate(-162.596 1639.901)"/>
    <path id="Trazado_294" data-name="Trazado 294" d="M240.12-1584.235h13.029v3.122H240.12Z" transform="translate(-194.842 1607.654)"/>
    <path id="Trazado_295" data-name="Trazado 295" d="M65.117-1559.725a9.311,9.311,0,0,1-6.512-2.65l2.175-2.242a6.2,6.2,0,0,0,4.337,1.769,6.252,6.252,0,0,0,6.245-6.245,6.171,6.171,0,0,0-1.308-3.775l2.478-1.9a9.272,9.272,0,0,1,1.953,5.675,9.377,9.377,0,0,1-9.368,9.368Z" transform="translate(-54.188 1600.319)"/>
    <path id="Trazado_296" data-name="Trazado 296" d="M57.838-1467.708H43.668a4.689,4.689,0,0,1-4.684-4.684v-3.123a4.69,4.69,0,0,1,4.684-4.684h12.89v3.123H43.668a1.563,1.563,0,0,0-1.561,1.561v3.123a1.563,1.563,0,0,0,1.561,1.561h14.17Z" transform="translate(-38.984 1527.038)"/>
    <path id="Trazado_297" data-name="Trazado 297" d="M218.786-1438.584h5.36v3.123h-5.36Z" transform="translate(-178.311 1494.791)"/>
    <path id="Trazado_298" data-name="Trazado 298" d="M146.534-1628.941h-7.807v-3.123h4.684v-53.085H105.262a14.04,14.04,0,0,0-10.618,4.849l-16.014,18.478-10.456,1.394a14.1,14.1,0,0,0-12.2,13.929v6.628H52.855v-6.628a17.227,17.227,0,0,1,14.9-17.023l9.284-1.238,15.24-17.585a17.169,17.169,0,0,1,12.979-5.927h41.272Z" transform="translate(-49.732 1688.271)"/>
    <path id="Trazado_299" data-name="Trazado 299" d="M283.476-1566.881a15.631,15.631,0,0,1-15.613-15.613,15.631,15.631,0,0,1,15.613-15.613,15.631,15.631,0,0,1,15.613,15.613A15.631,15.631,0,0,1,283.476-1566.881Zm0-28.1a12.5,12.5,0,0,0-12.49,12.49,12.505,12.505,0,0,0,12.49,12.49,12.505,12.505,0,0,0,12.49-12.49A12.505,12.505,0,0,0,283.476-1594.984Z" transform="translate(-216.34 1618.404)"/>
    <path id="Trazado_300" data-name="Trazado 300" d="M256.967-1439.4h-8.589a5.471,5.471,0,0,1-5.465-5.464,5.471,5.471,0,0,1,5.465-5.465h10.148v3.123H248.378a2.345,2.345,0,0,0-2.342,2.342,2.345,2.345,0,0,0,2.342,2.342h8.589a4.652,4.652,0,0,0,3.312-1.373,4.651,4.651,0,0,0,1.371-3.311v-.39a23.008,23.008,0,0,0-6.826-16.421,23.012,23.012,0,0,0-16.345-6.75h-.106l-6.387.03a23.571,23.571,0,0,0-23.42,23.531,4.691,4.691,0,0,0,4.685,4.684h8.586a2.345,2.345,0,0,0,2.342-2.342,2.345,2.345,0,0,0-2.342-2.342H211.687v-3.123h10.148a5.471,5.471,0,0,1,5.465,5.465,5.471,5.471,0,0,1-5.465,5.464H213.25a7.818,7.818,0,0,1-7.808-7.806,26.7,26.7,0,0,1,26.528-26.653l6.389-.029h.12a26.116,26.116,0,0,1,18.547,7.658,26.124,26.124,0,0,1,7.744,18.634v.39a7.755,7.755,0,0,1-2.286,5.519,7.753,7.753,0,0,1-5.518,2.287Z" transform="translate(-167.971 1522.147)"/>
    <path id="Trazado_301" data-name="Trazado 301" d="M287.65-1389.163h-3.123v-3.123a1.563,1.563,0,0,0-1.561-1.561H251.74a1.563,1.563,0,0,0-1.561,1.561v3.123h-3.123v-3.123a4.69,4.69,0,0,1,4.684-4.684h31.226a4.69,4.69,0,0,1,4.684,4.684Z" transform="translate(-200.217 1462.545)"/>
    <path id="Trazado_302" data-name="Trazado 302" d="M282.966-1312H251.74a4.69,4.69,0,0,1-4.684-4.684v-10.929h3.123v10.929a1.563,1.563,0,0,0,1.561,1.561h31.226a1.563,1.563,0,0,0,1.561-1.561v-10.929h3.123v10.929A4.69,4.69,0,0,1,282.966-1312Z" transform="translate(-200.217 1408.801)"/>
    <path id="Trazado_303" data-name="Trazado 303" d="M378.835-1584.235h18.736v3.122H378.835Z" transform="translate(-302.331 1607.654)"/>
    <path id="Trazado_304" data-name="Trazado 304" d="M351.092-1653.592h3.123v14.052h-3.123Z" transform="translate(-280.833 1661.399)"/>
    <path id="Trazado_305" data-name="Trazado 305" d="M302.133-1289.2h10.178l.986,1.462Z" transform="translate(-242.896 1379.036)"/>
    <path id="Trazado_306" data-name="Trazado 306" d="M355.1-1361.112c.018-.019.03-.03.04-.042a6.368,6.368,0,0,0,.781-1.185,3.97,3.97,0,0,0,.448-1.784q0-1.089,0-2.178c0-.026,0-.051-.006-.074-.125-.02-2.475-.013-2.538.008v2.5h.928c.1,0,.2,0,.31,0,0,.063-.006.116-.013.169a2.414,2.414,0,0,1-.271.811,4.485,4.485,0,0,1-.638.894l-.105.117Z" transform="translate(-282.95 1438.847)"/>
    <g id="Grupo_12" data-name="Grupo 12" transform="translate(67.254 84.093)">
      <path id="Trazado_307" data-name="Trazado 307" d="M341.362-1314.707a3.617,3.617,0,0,0-3.618,3.617,3.618,3.618,0,0,0,3.618,3.618,3.618,3.618,0,0,0,3.618-3.618A3.617,3.617,0,0,0,341.362-1314.707Zm-1.4,5.317a2.2,2.2,0,0,1-.773-1.339H340.4a1.025,1.025,0,0,0,.167.288Zm.44-2.06h-1.213a2.2,2.2,0,0,1,.773-1.339l.606,1.05A1.031,1.031,0,0,0,340.4-1311.45Zm.958,2.561a2.19,2.19,0,0,1-.773-.14l.607-1.051a1.041,1.041,0,0,0,.167.013,1.041,1.041,0,0,0,.167-.013l.606,1.051A2.188,2.188,0,0,1,341.362-1308.89Zm.167-3.21a1.013,1.013,0,0,0-.167-.014,1.013,1.013,0,0,0-.167.014l-.607-1.051a2.2,2.2,0,0,1,.773-.14,2.193,2.193,0,0,1,.773.14Zm1.231,2.709-.606-1.05a1.019,1.019,0,0,0,.167-.288h1.213A2.2,2.2,0,0,1,342.759-1309.39Zm-.44-2.06a1.025,1.025,0,0,0-.167-.289l.606-1.05a2.2,2.2,0,0,1,.773,1.339Z" transform="translate(-337.744 1314.707)"/>
    </g>
    <g id="Grupo_13" data-name="Grupo 13" transform="translate(59.554 75.905)">
      <path id="Trazado_308" data-name="Trazado 308" d="M314.86-1346.214a6.074,6.074,0,0,0-.128-1.228,4.12,4.12,0,0,0-1.065-2.037,4.392,4.392,0,0,0-1.438-.98,6.76,6.76,0,0,0-1.666-.464,12.615,12.615,0,0,0-1.944-.156,11.849,11.849,0,0,0-1.611.088,5.926,5.926,0,0,0-1.074.23,2.668,2.668,0,0,0-.882.451,1.489,1.489,0,0,0-.535,1.574,2.324,2.324,0,0,0,.595,1.078c.058.062.12.121.181.182l.047-.027a3.017,3.017,0,0,1,.5-.251,6.028,6.028,0,0,1,1.505-.35,8.87,8.87,0,0,1,1.091-.051,6.315,6.315,0,0,1,1.143.1,2.563,2.563,0,0,1,.782.26,1.45,1.45,0,0,1,.789,1.116.655.655,0,0,1,0,.217l-.115-.01c-.2-.016-.395-.034-.592-.046-.171-.01-.342-.014-.514-.019a19.048,19.048,0,0,0-1.976.033,10.37,10.37,0,0,0-1.257.166,6.047,6.047,0,0,0-1.293.4,2.919,2.919,0,0,0-1.7,1.963,4.772,4.772,0,0,0-.157,1.006,4.35,4.35,0,0,0,.121,1.346,2.848,2.848,0,0,0,.667,1.265,3.587,3.587,0,0,0,.92.708,6.352,6.352,0,0,0,1.744.614,10.844,10.844,0,0,0,1.914.2c.712.021,1.424,0,2.135-.02a3.832,3.832,0,0,1,.956-2.978,3.831,3.831,0,0,1,2.857-1.273C314.862-1344.142,314.863-1345.178,314.86-1346.214Zm-3.676,4.674c-.07.012-.138.03-.206.035-.328.024-.656.054-.985.065s-.654.009-.98,0a3.145,3.145,0,0,1-1.1-.221,2.121,2.121,0,0,1-.2-.1.92.92,0,0,1-.5-.715,1.615,1.615,0,0,1,.025-.59,1.056,1.056,0,0,1,.523-.7,2.186,2.186,0,0,1,.685-.243,4.072,4.072,0,0,1,.79-.075c.367,0,.734,0,1.1.017.253.011.506.049.758.076a.821.821,0,0,1,.094.02Z" transform="translate(-303.539 1351.079)"/>
    </g>
  </g>
</svg>
