<?xml version="1.0" encoding="utf-8"?>
<!-- Generator: Adobe Illustrator 19.2.0, SVG Export Plug-In . SVG Version: 6.00 Build 0)  -->
<svg version="1.1" id="Capa_1" xmlns="http://www.w3.org/2000/svg" xmlns:xlink="http://www.w3.org/1999/xlink" x="0px" y="0px"
	 viewBox="0 0 170 84" style="enable-background:new 0 0 170 84;" xml:space="preserve">
<style type="text/css">
	.st0{fill:none;stroke:#30C580;stroke-width:1.0981;}
	.st1{fill:none;stroke:#30C580;stroke-width:1.0981;stroke-linecap:square;}
	.st2{fill:none;stroke:#E4E4E4;stroke-width:1.0981;}
	.st3{fill:none;stroke:#E4E4E4;stroke-width:1.0981;stroke-linecap:square;}
	.st4{opacity:0.1;fill:#BABABA;enable-background:new    ;}
	.st5{fill:#FFFFFF;stroke:#27B574;stroke-width:2;}
	.st6{fill:#30C580;stroke:#30C580;stroke-width:0.67;}
	.st7{fill:#FFFFFF;stroke:#30C580;}
	.st8{fill:#FFFFFF;stroke:#FFFFFF;}
	.st9{fill:none;stroke:#30C580;stroke-width:1.6;stroke-linecap:round;stroke-linejoin:round;}
</style>
<title>06050B68-143C-4BCB-B762-E70BD8CF7AEC</title>
<desc>Created with sketchtool.</desc>
<g id="Page-1">
	<g id="Exito-v1---1" transform="translate(-315.000000, -165.000000)">
		<g id="Success_cuenta_activada_v1" transform="translate(316.000000, 165.000000)">
			<g id="Group-3">
				<ellipse id="Oval-Copy-6" class="st0" cx="14.5" cy="76.5" rx="2" ry="2"/>
				<path id="Line" class="st1" d="M15.3,60l2.2,2.3"/>
				<path id="Line-Copy" class="st1" d="M17.5,60l-2.2,2.3"/>
				<polyline id="Rectangle-2-Copy-2" class="st0" points="0,70.4 2,68.4 4,70.4 2,72.4 0,70.4 				"/>
				<ellipse id="Oval-Copy-6_1_" class="st2" cx="164.5" cy="26.5" rx="2" ry="2"/>
				<path id="Line_1_" class="st3" d="M165.3,10l2.2,2.3"/>
				<path id="Line-Copy_1_" class="st3" d="M167.5,10l-2.2,2.3"/>
				<polyline id="Rectangle-2-Copy-2_1_" class="st2" points="150,20.4 152,18.4 154,20.4 152,22.4 150,20.4 				"/>
				<path id="Fill-1119" class="st4" d="M103,44.4c-0.4-1-0.4-1.4-0.4-2.3c0-2.6-2.1-4.7-4.6-4.7h-3.6c-2.6,0-4.6-2.1-4.6-4.7
					s2.1-4.7,4.6-4.7h22.1c2.4,0,4.5-1.9,4.6-4.3c0.1-1.2,0-1.6,0.4-2.7c0.3-0.8,1.2-2.2,3.7-2.3h9.8c2.6,0,4.6-2.1,4.6-4.7
					s-2.1-4.7-4.6-4.7h-6.4c-2.5-0.1-3.4-1.5-3.7-2.3c-0.3-0.9-0.4-1.3-0.4-2c0-0.1,0-0.2,0-0.4c0-2.6-2.1-4.7-4.6-4.7L34.3,0
					c-2.6,0-4.6,2.1-4.6,4.7s2.1,4.7,4.6,4.7h7.5c2.6,0,4.6,2.1,4.6,4.7s-2.1,4.7-4.6,4.7H26.2c-2.6,0-4.6,2.1-4.6,4.7
					s2.1,4.7,4.6,4.7h13.9c2.6,0,4.6,2.1,4.6,4.7s-2.1,4.7-4.6,4.7H7.6C5.1,37.3,3,39.4,3,42s2.1,4.7,4.6,4.7h26.6
					c2.6,0,4.6,2.1,4.6,4.7c0,2.6-2.1,4.7-4.6,4.7h1c-2.6,0-4.6,2.1-4.6,4.7c0,2.6,2.1,4.7,4.6,4.7h1.9c2.6,0,4.6,2.1,4.6,4.7
					s-2.1,4.7-4.6,4.7h0.6c-2.6,0-4.6,2.1-4.6,4.7s2.1,4.7,4.6,4.7h85.7c2.6,0,4.6-2.1,4.6-4.7s-2.1-4.7-4.6-4.7h-2.3
					c-2.6,0-4.6-2.1-4.6-4.7s2.1-4.7,4.6-4.7h15.2c2.6,0,4.6-2.1,4.6-4.7c0-2.6-2.1-4.7-4.6-4.7h-0.7c-2-0.3-2.8-1.5-3.1-2.2
					c-0.4-1-0.4-1.4-0.4-2.2c0-2.8-2.1-4.9-4.6-4.9h-20.8C104.2,46.6,103.3,45.2,103,44.4z"/>
				<circle id="bg" class="st5" cx="78.5" cy="39.5" r="35.5"/>
				<path id="Shape" class="st6" d="M93.5,40c0.4,0.5,0.7,1.2,0.7,1.9c0,1.1-0.6,2.1-1.5,2.6c0.4,0.5,0.7,1.2,0.7,1.9
					c0,1.1-0.6,2.1-1.5,2.6c0.4,0.5,0.7,1.2,0.7,1.9c0,1.7-1.3,3-3,3H72.3l0,0c-1.2-0.1-2.2-0.6-2.9-1.5h-4.9c-2,0-3.7-4.1-3.7-9.1
					s1.7-9.1,3.7-9.1h6.2l5.6-8.3v-3.8c0.4-2.5,2.2-2.3,2.2-2.3c1.6,0,2.2,0.8,2.2,0.8c2.2,2.3,2.2,6,2.2,6c0,5-2.2,7.6-2.2,7.6H92
					c1.6,0,3,1.4,3,3C95,38.5,94.4,39.4,93.5,40L93.5,40z M64.7,35.9c-0.6,0-2.2,2.6-2.2,7.6s1.6,7.6,2.2,7.6h4.1
					c0-0.1-0.1-0.3-0.1-0.5c-0.4-2.2-1.1-5.7-1.1-8.6c0-3.1,1.6-5.2,2.2-6l0,0l0,0L64.7,35.9L64.7,35.9z M92,35.9H77.7l2.2-2.5
					c0,0,1.8-2.3,1.8-6.5c0,0,0-3.2-1.8-5l-0.1-0.1c-0.5-0.3-1.2-0.2-1.2-0.2c-0.4,0-0.6,0.5-0.6,0.9v4.1l-6.9,10.2L71,36.9
					c-0.6,0.8-1.9,2.6-1.9,5c0,2.8,0.6,6.4,1,8.4c0.2,1.2,1.2,2.1,2.4,2.2h17.2c0.8,0,1.5-0.7,1.5-1.5c0-0.4-0.2-0.8-0.4-1l-1.1-1.4
					l1.5-0.9c0.5-0.3,0.7-0.8,0.7-1.3c0-0.4-0.2-0.8-0.4-1L90.4,44l1.5-0.9c0.5-0.3,0.7-0.8,0.7-1.3c0-0.4-0.2-0.8-0.4-1l-1.1-1.4
					l1.5-0.9c0.5-0.3,0.7-0.8,0.7-1.3C93.5,36.5,92.9,35.9,92,35.9L92,35.9z M65.8,49.5c-0.6,0-1.1-0.5-1.1-1.1s0.5-1.1,1.1-1.1
					s1.1,0.5,1.1,1.1S66.4,49.5,65.8,49.5L65.8,49.5z"/>
				<circle id="Oval" class="st7" cx="108" cy="16" r="10"/>
				<g id="Group-5" transform="translate(99.000000, 7.000000)">
					<path id="Rectangle-154" class="st8" d="M9,0L9,0c5,0,9,4,9,9l0,0c0,5-4,9-9,9l0,0c-5,0-9-4-9-9l0,0C0,4,4,0,9,0z"/>
					<polyline id="Path-9037" class="st9" points="5.6,8.6 8,11.1 12.2,6.9 					"/>
				</g>
			</g>
		</g>
	</g>
</g>
</svg>
