<?xml version="1.0" encoding="utf-8"?>
<!-- Generator: Adobe Illustrator 19.2.0, SVG Export Plug-In . SVG Version: 6.00 Build 0)  -->
<svg version="1.1" id="Capa_1" xmlns="http://www.w3.org/2000/svg" xmlns:xlink="http://www.w3.org/1999/xlink" x="0px" y="0px"
	 viewBox="0 0 170 84" style="enable-background:new 0 0 170 84;" xml:space="preserve">
<style type="text/css">
	.st0{fill:none;stroke:#30C580;stroke-width:1.0981;}
	.st1{fill:none;stroke:#30C580;stroke-width:1.0981;stroke-linecap:square;}
	.st2{fill:none;stroke:#E4E4E4;stroke-width:1.0981;}
	.st3{fill:none;stroke:#E4E4E4;stroke-width:1.0981;stroke-linecap:square;}
	.st4{opacity:0.1;fill:#BABABA;enable-background:new    ;}
	.st5{fill:#FFFFFF;stroke:#27B574;stroke-width:2;}
	.st6{fill:#30C580;stroke:#30C580;stroke-width:0.67;}
	.st7{fill:#FFFFFF;stroke:#30C580;}
	.st8{fill:#FFFFFF;}
	.st9{fill:none;stroke:#30C580;stroke-width:1.6;stroke-linecap:round;stroke-linejoin:round;}
</style>
<title>9498F2C9-F80E-401A-8090-170E49B97125</title>
<desc>Created with sketchtool.</desc>
<ellipse id="Oval-Copy-6" class="st0" cx="15.5" cy="76.5" rx="2" ry="2"/>
<path id="Line" class="st1" d="M16.3,60l2.2,2.3"/>
<path id="Line-Copy" class="st1" d="M18.5,60l-2.2,2.3"/>
<polyline id="Rectangle-2-Copy-2" class="st0" points="1,70.4 3,68.4 5,70.4 3,72.4 1,70.4 "/>
<ellipse id="Oval-Copy-6_1_" class="st2" cx="165.5" cy="26.5" rx="2" ry="2"/>
<path id="Line_1_" class="st3" d="M166.3,10l2.2,2.3"/>
<path id="Line-Copy_1_" class="st3" d="M168.5,10l-2.2,2.3"/>
<polyline id="Rectangle-2-Copy-2_1_" class="st2" points="151,20.4 153,18.4 155,20.4 153,22.4 151,20.4 "/>
<path id="Fill-1119" class="st4" d="M104,44.4c-0.4-1-0.4-1.4-0.4-2.3c0-2.6-2.1-4.7-4.6-4.7l-3.6,0c-2.6,0-4.6-2.1-4.6-4.7
	c0-2.6,2.1-4.7,4.6-4.7h22.1c2.4,0,4.5-1.9,4.6-4.3c0.1-1.2,0-1.6,0.4-2.7c0.3-0.8,1.2-2.2,3.7-2.3l9.8,0c2.6,0,4.6-2.1,4.6-4.7
	c0-2.6-2.1-4.7-4.6-4.7l-6.4,0c-2.5-0.1-3.4-1.5-3.7-2.3c-0.3-0.9-0.4-1.3-0.4-2c0-0.1,0-0.2,0-0.4c0-2.6-2.1-4.7-4.6-4.7L35.3,0
	c-2.6,0-4.6,2.1-4.6,4.7c0,2.6,2.1,4.7,4.6,4.7h7.5c2.6,0,4.6,2.1,4.6,4.7c0,2.6-2.1,4.7-4.6,4.7H27.2c-2.6,0-4.6,2.1-4.6,4.7
	c0,2.6,2.1,4.7,4.6,4.7l13.9,0c2.6,0,4.6,2.1,4.6,4.7c0,2.6-2.1,4.7-4.6,4.7H8.6C6.1,37.3,4,39.4,4,42c0,2.6,2.1,4.7,4.6,4.7l26.6,0
	c2.6,0,4.6,2.1,4.6,4.7c0,2.6-2.1,4.7-4.6,4.7l1,0c-2.6,0-4.6,2.1-4.6,4.7c0,2.6,2.1,4.7,4.6,4.7h1.9c2.6,0,4.6,2.1,4.6,4.7
	c0,2.6-2.1,4.7-4.6,4.7h0.6c-2.6,0-4.6,2.1-4.6,4.7s2.1,4.7,4.6,4.7l85.7,0c2.6,0,4.6-2.1,4.6-4.7c0-2.6-2.1-4.7-4.6-4.7h-2.3
	c-2.6,0-4.6-2.1-4.6-4.7c0-2.6,2.1-4.7,4.6-4.7h15.2c2.6,0,4.6-2.1,4.6-4.7c0-2.6-2.1-4.7-4.6-4.7h-0.7c-2-0.3-2.8-1.5-3.1-2.2
	c-0.4-1-0.4-1.4-0.4-2.2c0-2.8-2.1-4.9-4.6-4.9l-20.8,0C105.2,46.6,104.3,45.2,104,44.4z"/>
<circle id="bg" class="st5" cx="79.5" cy="39.5" r="35.5"/>
<g id="Group-28" transform="translate(61.000000, 27.000000)">
	<path id="Fill-1" class="st6" d="M28.3,29c-0.2,0-0.3-0.1-0.4-0.2L21,23H5.7C3.1,23,1,20.9,1,18.3V4.7C1,2.1,3.1,0,5.7,0h24.5
		C32.9,0,35,2.1,35,4.7v13.5c0,2.6-2.1,4.7-4.7,4.7H29v5.3c0,0.3-0.2,0.5-0.4,0.6C28.5,29,28.4,29,28.3,29z M5.7,1.4
		c-1.8,0-3.3,1.5-3.3,3.4v13.5c0,1.9,1.5,3.4,3.3,3.4h15.5c0.2,0,0.3,0.1,0.4,0.2l5.9,5v-4.5c0-0.4,0.3-0.7,0.7-0.7h1.9
		c1.8,0,3.3-1.5,3.3-3.4V4.7c0-1.9-1.5-3.4-3.3-3.4H5.7z"/>
	<path id="Fill-4" class="st6" d="M29.9,7.2H7.6c-0.4,0-0.7-0.3-0.7-0.7c0-0.4,0.3-0.7,0.7-0.7h22.3c0.4,0,0.7,0.3,0.7,0.7
		C30.6,6.9,30.3,7.2,29.9,7.2z"/>
	<path id="Fill-5" class="st6" d="M29.9,11.6H7.6c-0.4,0-0.7-0.3-0.7-0.7s0.3-0.7,0.7-0.7h22.3c0.4,0,0.7,0.3,0.7,0.7
		S30.3,11.6,29.9,11.6z"/>
	<path id="Fill-6" class="st6" d="M29.9,15.9H7.6c-0.4,0-0.7-0.3-0.7-0.7c0-0.4,0.3-0.7,0.7-0.7h22.3c0.4,0,0.7,0.3,0.7,0.7
		C30.6,15.6,30.3,15.9,29.9,15.9z"/>
</g>
<circle id="Oval" class="st7" cx="109" cy="16" r="10"/>
<g id="Group-5" transform="translate(99.000000, 7.000000)">
	<path id="Rectangle-154" class="st8" d="M10,0L10,0c5,0,9,4,9,9l0,0c0,5-4,9-9,9l0,0c-5,0-9-4-9-9l0,0C1,4,5,0,10,0z"/>
	<polyline id="Path-9037" class="st9" points="6.6,8.6 9,11.1 13.2,6.9 	"/>
</g>
</svg>
