<svg xmlns="http://www.w3.org/2000/svg" width="111.864" height="82.034" viewBox="0 0 111.864 82.034">
    <g id="Grupo_88" data-name="Grupo 88" transform="translate(-16 -120)">
        <path id="Trazado_355" d="M147.661 187.966a1.865 1.865 0 0 0 1.864-1.864v-24.238a1.864 1.864 0 0 0-1.864-1.864h-57.8A1.864 1.864 0 0 0 88 161.864v42.881a1.864 1.864 0 0 0 1.864 1.864h42.881a1.864 1.864 0 1 0 0-3.729H91.729v-39.151H145.8V186.1a1.865 1.865 0 0 0 1.861 1.866z" class="cls-1" data-name="Trazado 355" transform="translate(-55.22 -30.678)"/>
        <path id="Trazado_356" d="M381.051 169.322a1.864 1.864 0 0 0 1.864-1.864v-5.593a1.864 1.864 0 0 0-1.864-1.865h-11.187a1.865 1.865 0 0 0-1.864 1.864v11.186a1.865 1.865 0 0 0 1.864 1.864h7.458a1.864 1.864 0 1 0 0-3.729h-5.593v-7.458h7.458v3.729a1.864 1.864 0 0 0 1.864 1.866z" class="cls-1" data-name="Trazado 356" transform="translate(-269.966 -30.678)"/>
        <path id="Trazado_357" d="M194.7 228.192a1.864 1.864 0 0 0-2.7 1.669v9.322a1.864 1.864 0 0 0 2.7 1.678l9.322-4.661a1.864 1.864 0 0 0 0-3.337zm1.031 7.974v-3.289l3.289 1.644z" class="cls-1" data-name="Trazado 357" transform="translate(-134.983 -82.826)"/>
        <path id="Trazado_358" d="M177.584 214.863a1.864 1.864 0 0 0 2.526-.746 14.9 14.9 0 1 0-6.022 6.024 1.865 1.865 0 1 0-1.777-3.28 11.186 11.186 0 1 1 4.521-4.521 1.864 1.864 0 0 0 .752 2.523z" class="cls-1" data-name="Trazado 358" transform="translate(-104.38 -55.321)"/>
        <path id="Trazado_359" d="M126 183.39h-13.051v-31.695a1.865 1.865 0 0 0-1.864-1.864H99.9a1.864 1.864 0 0 0-1.864 1.864v9.322H84.983a1.864 1.864 0 0 0-1.864 1.864v20.509H27.186v-54.068a5.593 5.593 0 0 1 5.593-5.593h78.305a5.593 5.593 0 0 1 5.593 5.593V177.8a1.864 1.864 0 1 0 3.729 0v-48.478a9.333 9.333 0 0 0-9.321-9.322H32.78a9.333 9.333 0 0 0-9.322 9.322v54.068h-5.594A1.864 1.864 0 0 0 16 185.254v7.458a9.333 9.333 0 0 0 9.322 9.322h68.983a1.864 1.864 0 1 0 0-3.729H25.322a5.593 5.593 0 0 1-5.593-5.593v-5.593h61.525v3.729H60.746a1.864 1.864 0 0 0 0 3.729h22.373a1.864 1.864 0 0 0 1.864-1.864v-5.593h39.153v5.593a5.593 5.593 0 0 1-5.593 5.593h-16.78a1.864 1.864 0 1 0 0 3.729h16.78a9.333 9.333 0 0 0 9.322-9.322v-7.458A1.864 1.864 0 0 0 126 183.39zm-24.237-29.83h7.458v7.458h-7.458zm-5.593 20.508a1.864 1.864 0 1 1 1.864 1.864 1.864 1.864 0 0 1-1.865-1.864zm-1.864 9.322v-1.864a1.864 1.864 0 0 1 1.864-1.864h3.73a1.864 1.864 0 0 1 1.864 1.864v1.864zm11.186 0v-1.864a5.582 5.582 0 0 0-2.61-4.715 5.534 5.534 0 0 0 .746-2.743 5.593 5.593 0 0 0-11.186 0 5.534 5.534 0 0 0 .746 2.743 5.582 5.582 0 0 0-2.61 4.715v1.864h-3.731v-18.644h22.373v18.644z" class="cls-1" data-name="Trazado 359"/>
        <ellipse id="Elipse_3" cx="1.619" cy="2.159" class="cls-1" data-name="Elipse 3" rx="1.619" ry="2.159" transform="translate(105.393 190.161)"/>
        <circle id="Elipse_4" cx="2.159" cy="2.159" r="2.159" class="cls-1" data-name="Elipse 4" transform="translate(112.949 190.161)"/>
        <circle id="Elipse_5" cx="2.159" cy="2.159" r="2.159" class="cls-1" data-name="Elipse 5" transform="translate(26.598 190.161)"/>
        <ellipse id="Elipse_6" cx="1.619" cy="2.159" class="cls-1" data-name="Elipse 6" rx="1.619" ry="2.159" transform="translate(35.233 190.161)"/>
    </g>
</svg>
